<?xml version="1.0" encoding="utf-8" standalone="no"?>
<!DOCTYPE svg PUBLIC "-//W3C//DTD SVG 1.1//EN"
  "http://www.w3.org/Graphics/SVG/1.1/DTD/svg11.dtd">
<!-- Created with matplotlib (https://matplotlib.org/) -->
<svg height="266.374219pt" version="1.1" viewBox="0 0 401.384062 266.374219" width="401.384062pt" xmlns="http://www.w3.org/2000/svg" xmlns:xlink="http://www.w3.org/1999/xlink">
 <metadata>
  <rdf:RDF xmlns:cc="http://creativecommons.org/ns#" xmlns:dc="http://purl.org/dc/elements/1.1/" xmlns:rdf="http://www.w3.org/1999/02/22-rdf-syntax-ns#">
   <cc:Work>
    <dc:type rdf:resource="http://purl.org/dc/dcmitype/StillImage"/>
    <dc:date>2021-07-20T16:13:45.921759</dc:date>
    <dc:format>image/svg+xml</dc:format>
    <dc:creator>
     <cc:Agent>
      <dc:title>Matplotlib v3.3.4, https://matplotlib.org/</dc:title>
     </cc:Agent>
    </dc:creator>
   </cc:Work>
  </rdf:RDF>
 </metadata>
 <defs>
  <style type="text/css">*{stroke-linecap:butt;stroke-linejoin:round;}</style>
 </defs>
 <g id="figure_1">
  <g id="patch_1">
   <path d="M 0 266.374219 
L 401.384062 266.374219 
L 401.384062 0 
L 0 0 
z
" style="fill:#ffffff;"/>
  </g>
  <g id="axes_1">
   <g id="patch_2">
    <path d="M 53.267031 224.64 
L 388.067031 224.64 
L 388.067031 7.2 
L 53.267031 7.2 
z
" style="fill:#ffffff;"/>
   </g>
   <g id="matplotlib.axis_1">
    <g id="xtick_1">
     <g id="line2d_1">
      <defs>
       <path d="M 0 0 
L 0 6 
" id="mc5b6ca2f85" style="stroke:#262626;stroke-width:1.25;"/>
      </defs>
      <g>
       <use style="fill:#262626;stroke:#262626;stroke-width:1.25;" x="75.587031" xlink:href="#mc5b6ca2f85" y="224.64"/>
      </g>
     </g>
     <g id="text_1">
      <!-- −4 -->
      <g style="fill:#262626;" transform="translate(69.316172 242.013594)scale(0.11 -0.11)">
       <defs>
        <path d="M 52.828125 31.203125 
L 5.5625 31.203125 
L 5.5625 39.40625 
L 52.828125 39.40625 
z
" id="ArialMT-8722"/>
        <path d="M 32.328125 0 
L 32.328125 17.140625 
L 1.265625 17.140625 
L 1.265625 25.203125 
L 33.9375 71.578125 
L 41.109375 71.578125 
L 41.109375 25.203125 
L 50.78125 25.203125 
L 50.78125 17.140625 
L 41.109375 17.140625 
L 41.109375 0 
z
M 32.328125 25.203125 
L 32.328125 57.46875 
L 9.90625 25.203125 
z
" id="ArialMT-52"/>
       </defs>
       <use xlink:href="#ArialMT-8722"/>
       <use x="58.398438" xlink:href="#ArialMT-52"/>
      </g>
     </g>
    </g>
    <g id="xtick_2">
     <g id="line2d_2">
      <g>
       <use style="fill:#262626;stroke:#262626;stroke-width:1.25;" x="120.227031" xlink:href="#mc5b6ca2f85" y="224.64"/>
      </g>
     </g>
     <g id="text_2">
      <!-- −2 -->
      <g style="fill:#262626;" transform="translate(113.956172 242.013594)scale(0.11 -0.11)">
       <defs>
        <path d="M 50.34375 8.453125 
L 50.34375 0 
L 3.03125 0 
Q 2.9375 3.171875 4.046875 6.109375 
Q 5.859375 10.9375 9.828125 15.625 
Q 13.8125 20.3125 21.34375 26.46875 
Q 33.015625 36.03125 37.109375 41.625 
Q 41.21875 47.21875 41.21875 52.203125 
Q 41.21875 57.421875 37.46875 61 
Q 33.734375 64.59375 27.734375 64.59375 
Q 21.390625 64.59375 17.578125 60.78125 
Q 13.765625 56.984375 13.71875 50.25 
L 4.6875 51.171875 
Q 5.609375 61.28125 11.65625 66.578125 
Q 17.71875 71.875 27.9375 71.875 
Q 38.234375 71.875 44.234375 66.15625 
Q 50.25 60.453125 50.25 52 
Q 50.25 47.703125 48.484375 43.546875 
Q 46.734375 39.40625 42.65625 34.8125 
Q 38.578125 30.21875 29.109375 22.21875 
Q 21.1875 15.578125 18.9375 13.203125 
Q 16.703125 10.84375 15.234375 8.453125 
z
" id="ArialMT-50"/>
       </defs>
       <use xlink:href="#ArialMT-8722"/>
       <use x="58.398438" xlink:href="#ArialMT-50"/>
      </g>
     </g>
    </g>
    <g id="xtick_3">
     <g id="line2d_3">
      <g>
       <use style="fill:#262626;stroke:#262626;stroke-width:1.25;" x="164.867031" xlink:href="#mc5b6ca2f85" y="224.64"/>
      </g>
     </g>
     <g id="text_3">
      <!-- 0 -->
      <g style="fill:#262626;" transform="translate(161.808516 242.013594)scale(0.11 -0.11)">
       <defs>
        <path d="M 4.15625 35.296875 
Q 4.15625 48 6.765625 55.734375 
Q 9.375 63.484375 14.515625 67.671875 
Q 19.671875 71.875 27.484375 71.875 
Q 33.25 71.875 37.59375 69.546875 
Q 41.9375 67.234375 44.765625 62.859375 
Q 47.609375 58.5 49.21875 52.21875 
Q 50.828125 45.953125 50.828125 35.296875 
Q 50.828125 22.703125 48.234375 14.96875 
Q 45.65625 7.234375 40.5 3 
Q 35.359375 -1.21875 27.484375 -1.21875 
Q 17.140625 -1.21875 11.234375 6.203125 
Q 4.15625 15.140625 4.15625 35.296875 
z
M 13.1875 35.296875 
Q 13.1875 17.671875 17.3125 11.828125 
Q 21.4375 6 27.484375 6 
Q 33.546875 6 37.671875 11.859375 
Q 41.796875 17.71875 41.796875 35.296875 
Q 41.796875 52.984375 37.671875 58.78125 
Q 33.546875 64.59375 27.390625 64.59375 
Q 21.34375 64.59375 17.71875 59.46875 
Q 13.1875 52.9375 13.1875 35.296875 
z
" id="ArialMT-48"/>
       </defs>
       <use xlink:href="#ArialMT-48"/>
      </g>
     </g>
    </g>
    <g id="xtick_4">
     <g id="line2d_4">
      <g>
       <use style="fill:#262626;stroke:#262626;stroke-width:1.25;" x="209.507031" xlink:href="#mc5b6ca2f85" y="224.64"/>
      </g>
     </g>
     <g id="text_4">
      <!-- 2 -->
      <g style="fill:#262626;" transform="translate(206.448516 242.013594)scale(0.11 -0.11)">
       <use xlink:href="#ArialMT-50"/>
      </g>
     </g>
    </g>
    <g id="xtick_5">
     <g id="line2d_5">
      <g>
       <use style="fill:#262626;stroke:#262626;stroke-width:1.25;" x="254.147031" xlink:href="#mc5b6ca2f85" y="224.64"/>
      </g>
     </g>
     <g id="text_5">
      <!-- 4 -->
      <g style="fill:#262626;" transform="translate(251.088516 242.013594)scale(0.11 -0.11)">
       <use xlink:href="#ArialMT-52"/>
      </g>
     </g>
    </g>
    <g id="xtick_6">
     <g id="line2d_6">
      <g>
       <use style="fill:#262626;stroke:#262626;stroke-width:1.25;" x="298.787031" xlink:href="#mc5b6ca2f85" y="224.64"/>
      </g>
     </g>
     <g id="text_6">
      <!-- 6 -->
      <g style="fill:#262626;" transform="translate(295.728516 242.013594)scale(0.11 -0.11)">
       <defs>
        <path d="M 49.75 54.046875 
L 41.015625 53.375 
Q 39.84375 58.546875 37.703125 60.890625 
Q 34.125 64.65625 28.90625 64.65625 
Q 24.703125 64.65625 21.53125 62.3125 
Q 17.390625 59.28125 14.984375 53.46875 
Q 12.59375 47.65625 12.5 36.921875 
Q 15.671875 41.75 20.265625 44.09375 
Q 24.859375 46.4375 29.890625 46.4375 
Q 38.671875 46.4375 44.84375 39.96875 
Q 51.03125 33.5 51.03125 23.25 
Q 51.03125 16.5 48.125 10.71875 
Q 45.21875 4.9375 40.140625 1.859375 
Q 35.0625 -1.21875 28.609375 -1.21875 
Q 17.625 -1.21875 10.6875 6.859375 
Q 3.765625 14.9375 3.765625 33.5 
Q 3.765625 54.25 11.421875 63.671875 
Q 18.109375 71.875 29.4375 71.875 
Q 37.890625 71.875 43.28125 67.140625 
Q 48.6875 62.40625 49.75 54.046875 
z
M 13.875 23.1875 
Q 13.875 18.65625 15.796875 14.5 
Q 17.71875 10.359375 21.1875 8.171875 
Q 24.65625 6 28.46875 6 
Q 34.03125 6 38.03125 10.484375 
Q 42.046875 14.984375 42.046875 22.703125 
Q 42.046875 30.125 38.078125 34.390625 
Q 34.125 38.671875 28.125 38.671875 
Q 22.171875 38.671875 18.015625 34.390625 
Q 13.875 30.125 13.875 23.1875 
z
" id="ArialMT-54"/>
       </defs>
       <use xlink:href="#ArialMT-54"/>
      </g>
     </g>
    </g>
    <g id="xtick_7">
     <g id="line2d_7">
      <g>
       <use style="fill:#262626;stroke:#262626;stroke-width:1.25;" x="343.427031" xlink:href="#mc5b6ca2f85" y="224.64"/>
      </g>
     </g>
     <g id="text_7">
      <!-- 8 -->
      <g style="fill:#262626;" transform="translate(340.368516 242.013594)scale(0.11 -0.11)">
       <defs>
        <path d="M 17.671875 38.8125 
Q 12.203125 40.828125 9.5625 44.53125 
Q 6.9375 48.25 6.9375 53.421875 
Q 6.9375 61.234375 12.546875 66.546875 
Q 18.171875 71.875 27.484375 71.875 
Q 36.859375 71.875 42.578125 66.421875 
Q 48.296875 60.984375 48.296875 53.171875 
Q 48.296875 48.1875 45.671875 44.5 
Q 43.0625 40.828125 37.75 38.8125 
Q 44.34375 36.671875 47.78125 31.875 
Q 51.21875 27.09375 51.21875 20.453125 
Q 51.21875 11.28125 44.71875 5.03125 
Q 38.234375 -1.21875 27.640625 -1.21875 
Q 17.046875 -1.21875 10.546875 5.046875 
Q 4.046875 11.328125 4.046875 20.703125 
Q 4.046875 27.6875 7.59375 32.390625 
Q 11.140625 37.109375 17.671875 38.8125 
z
M 15.921875 53.71875 
Q 15.921875 48.640625 19.1875 45.40625 
Q 22.46875 42.1875 27.6875 42.1875 
Q 32.765625 42.1875 36.015625 45.375 
Q 39.265625 48.578125 39.265625 53.21875 
Q 39.265625 58.0625 35.90625 61.359375 
Q 32.5625 64.65625 27.59375 64.65625 
Q 22.5625 64.65625 19.234375 61.421875 
Q 15.921875 58.203125 15.921875 53.71875 
z
M 13.09375 20.65625 
Q 13.09375 16.890625 14.875 13.375 
Q 16.65625 9.859375 20.171875 7.921875 
Q 23.6875 6 27.734375 6 
Q 34.03125 6 38.125 10.046875 
Q 42.234375 14.109375 42.234375 20.359375 
Q 42.234375 26.703125 38.015625 30.859375 
Q 33.796875 35.015625 27.4375 35.015625 
Q 21.234375 35.015625 17.15625 30.90625 
Q 13.09375 26.8125 13.09375 20.65625 
z
" id="ArialMT-56"/>
       </defs>
       <use xlink:href="#ArialMT-56"/>
      </g>
     </g>
    </g>
    <g id="xtick_8">
     <g id="line2d_8">
      <g>
       <use style="fill:#262626;stroke:#262626;stroke-width:1.25;" x="388.067031" xlink:href="#mc5b6ca2f85" y="224.64"/>
      </g>
     </g>
     <g id="text_8">
      <!-- 10 -->
      <g style="fill:#262626;" transform="translate(381.95 242.013594)scale(0.11 -0.11)">
       <defs>
        <path d="M 37.25 0 
L 28.46875 0 
L 28.46875 56 
Q 25.296875 52.984375 20.140625 49.953125 
Q 14.984375 46.921875 10.890625 45.40625 
L 10.890625 53.90625 
Q 18.265625 57.375 23.78125 62.296875 
Q 29.296875 67.234375 31.59375 71.875 
L 37.25 71.875 
z
" id="ArialMT-49"/>
       </defs>
       <use xlink:href="#ArialMT-49"/>
       <use x="55.615234" xlink:href="#ArialMT-48"/>
      </g>
     </g>
    </g>
    <g id="text_9">
     <!-- $x$ -->
     <g style="fill:#262626;" transform="translate(217.067031 256.789219)scale(0.12 -0.12)">
      <defs>
       <path d="M 60.015625 54.6875 
L 34.90625 27.875 
L 50.296875 0 
L 39.984375 0 
L 28.421875 21.6875 
L 8.296875 0 
L -2.59375 0 
L 24.3125 28.8125 
L 10.015625 54.6875 
L 20.3125 54.6875 
L 30.8125 34.90625 
L 49.125 54.6875 
z
" id="DejaVuSans-Oblique-120"/>
      </defs>
      <use transform="translate(0 0.3125)" xlink:href="#DejaVuSans-Oblique-120"/>
     </g>
    </g>
   </g>
   <g id="matplotlib.axis_2">
    <g id="ytick_1">
     <g id="line2d_9">
      <defs>
       <path d="M 0 0 
L -6 0 
" id="m480a9dbd7d" style="stroke:#262626;stroke-width:1.25;"/>
      </defs>
      <g>
       <use style="fill:#262626;stroke:#262626;stroke-width:1.25;" x="53.267031" xlink:href="#m480a9dbd7d" y="224.64"/>
      </g>
     </g>
     <g id="text_10">
      <!-- 0.00 -->
      <g style="fill:#262626;" transform="translate(22.36 228.576797)scale(0.11 -0.11)">
       <defs>
        <path d="M 9.078125 0 
L 9.078125 10.015625 
L 19.09375 10.015625 
L 19.09375 0 
z
" id="ArialMT-46"/>
       </defs>
       <use xlink:href="#ArialMT-48"/>
       <use x="55.615234" xlink:href="#ArialMT-46"/>
       <use x="83.398438" xlink:href="#ArialMT-48"/>
       <use x="139.013672" xlink:href="#ArialMT-48"/>
      </g>
     </g>
    </g>
    <g id="ytick_2">
     <g id="line2d_10">
      <g>
       <use style="fill:#262626;stroke:#262626;stroke-width:1.25;" x="53.267031" xlink:href="#m480a9dbd7d" y="187.229768"/>
      </g>
     </g>
     <g id="text_11">
      <!-- 0.05 -->
      <g style="fill:#262626;" transform="translate(22.36 191.166564)scale(0.11 -0.11)">
       <defs>
        <path d="M 4.15625 18.75 
L 13.375 19.53125 
Q 14.40625 12.796875 18.140625 9.390625 
Q 21.875 6 27.15625 6 
Q 33.5 6 37.890625 10.78125 
Q 42.28125 15.578125 42.28125 23.484375 
Q 42.28125 31 38.0625 35.34375 
Q 33.84375 39.703125 27 39.703125 
Q 22.75 39.703125 19.328125 37.765625 
Q 15.921875 35.84375 13.96875 32.765625 
L 5.71875 33.84375 
L 12.640625 70.609375 
L 48.25 70.609375 
L 48.25 62.203125 
L 19.671875 62.203125 
L 15.828125 42.96875 
Q 22.265625 47.46875 29.34375 47.46875 
Q 38.71875 47.46875 45.15625 40.96875 
Q 51.609375 34.46875 51.609375 24.265625 
Q 51.609375 14.546875 45.953125 7.46875 
Q 39.0625 -1.21875 27.15625 -1.21875 
Q 17.390625 -1.21875 11.203125 4.25 
Q 5.03125 9.71875 4.15625 18.75 
z
" id="ArialMT-53"/>
       </defs>
       <use xlink:href="#ArialMT-48"/>
       <use x="55.615234" xlink:href="#ArialMT-46"/>
       <use x="83.398438" xlink:href="#ArialMT-48"/>
       <use x="139.013672" xlink:href="#ArialMT-53"/>
      </g>
     </g>
    </g>
    <g id="ytick_3">
     <g id="line2d_11">
      <g>
       <use style="fill:#262626;stroke:#262626;stroke-width:1.25;" x="53.267031" xlink:href="#m480a9dbd7d" y="149.819535"/>
      </g>
     </g>
     <g id="text_12">
      <!-- 0.10 -->
      <g style="fill:#262626;" transform="translate(22.36 153.756332)scale(0.11 -0.11)">
       <use xlink:href="#ArialMT-48"/>
       <use x="55.615234" xlink:href="#ArialMT-46"/>
       <use x="83.398438" xlink:href="#ArialMT-49"/>
       <use x="139.013672" xlink:href="#ArialMT-48"/>
      </g>
     </g>
    </g>
    <g id="ytick_4">
     <g id="line2d_12">
      <g>
       <use style="fill:#262626;stroke:#262626;stroke-width:1.25;" x="53.267031" xlink:href="#m480a9dbd7d" y="112.409303"/>
      </g>
     </g>
     <g id="text_13">
      <!-- 0.15 -->
      <g style="fill:#262626;" transform="translate(22.36 116.346099)scale(0.11 -0.11)">
       <use xlink:href="#ArialMT-48"/>
       <use x="55.615234" xlink:href="#ArialMT-46"/>
       <use x="83.398438" xlink:href="#ArialMT-49"/>
       <use x="139.013672" xlink:href="#ArialMT-53"/>
      </g>
     </g>
    </g>
    <g id="ytick_5">
     <g id="line2d_13">
      <g>
       <use style="fill:#262626;stroke:#262626;stroke-width:1.25;" x="53.267031" xlink:href="#m480a9dbd7d" y="74.99907"/>
      </g>
     </g>
     <g id="text_14">
      <!-- 0.20 -->
      <g style="fill:#262626;" transform="translate(22.36 78.935867)scale(0.11 -0.11)">
       <use xlink:href="#ArialMT-48"/>
       <use x="55.615234" xlink:href="#ArialMT-46"/>
       <use x="83.398438" xlink:href="#ArialMT-50"/>
       <use x="139.013672" xlink:href="#ArialMT-48"/>
      </g>
     </g>
    </g>
    <g id="ytick_6">
     <g id="line2d_14">
      <g>
       <use style="fill:#262626;stroke:#262626;stroke-width:1.25;" x="53.267031" xlink:href="#m480a9dbd7d" y="37.588838"/>
      </g>
     </g>
     <g id="text_15">
      <!-- 0.25 -->
      <g style="fill:#262626;" transform="translate(22.36 41.525634)scale(0.11 -0.11)">
       <use xlink:href="#ArialMT-48"/>
       <use x="55.615234" xlink:href="#ArialMT-46"/>
       <use x="83.398438" xlink:href="#ArialMT-50"/>
       <use x="139.013672" xlink:href="#ArialMT-53"/>
      </g>
     </g>
    </g>
    <g id="text_16">
     <!-- $f_X(x)$ -->
     <g style="fill:#262626;" transform="translate(15.975 129.36)rotate(-90)scale(0.12 -0.12)">
      <defs>
       <path d="M 47.796875 75.984375 
L 46.390625 68.5 
L 37.796875 68.5 
Q 32.90625 68.5 30.6875 66.578125 
Q 28.46875 64.65625 27.390625 59.515625 
L 26.421875 54.6875 
L 41.21875 54.6875 
L 39.890625 47.703125 
L 25.09375 47.703125 
L 15.828125 0 
L 6.78125 0 
L 16.109375 47.703125 
L 7.515625 47.703125 
L 8.796875 54.6875 
L 17.390625 54.6875 
L 18.109375 58.5 
Q 19.96875 68.171875 24.625 72.078125 
Q 29.296875 75.984375 39.3125 75.984375 
z
" id="DejaVuSans-Oblique-102"/>
       <path d="M 13.71875 72.90625 
L 23.6875 72.90625 
L 36.1875 46.578125 
L 58.796875 72.90625 
L 70.3125 72.90625 
L 40.28125 38.09375 
L 58.40625 0 
L 48.484375 0 
L 33.796875 30.71875 
L 7.171875 0 
L -4.296875 0 
L 29.78125 39.203125 
z
" id="DejaVuSans-Oblique-88"/>
       <path d="M 31 75.875 
Q 24.46875 64.65625 21.28125 53.65625 
Q 18.109375 42.671875 18.109375 31.390625 
Q 18.109375 20.125 21.3125 9.0625 
Q 24.515625 -2 31 -13.1875 
L 23.1875 -13.1875 
Q 15.875 -1.703125 12.234375 9.375 
Q 8.59375 20.453125 8.59375 31.390625 
Q 8.59375 42.28125 12.203125 53.3125 
Q 15.828125 64.359375 23.1875 75.875 
z
" id="DejaVuSans-40"/>
       <path d="M 8.015625 75.875 
L 15.828125 75.875 
Q 23.140625 64.359375 26.78125 53.3125 
Q 30.421875 42.28125 30.421875 31.390625 
Q 30.421875 20.453125 26.78125 9.375 
Q 23.140625 -1.703125 15.828125 -13.1875 
L 8.015625 -13.1875 
Q 14.5 -2 17.703125 9.0625 
Q 20.90625 20.125 20.90625 31.390625 
Q 20.90625 42.671875 17.703125 53.65625 
Q 14.5 64.65625 8.015625 75.875 
z
" id="DejaVuSans-41"/>
      </defs>
      <use transform="translate(0 0.015625)" xlink:href="#DejaVuSans-Oblique-102"/>
      <use transform="translate(35.205078 -16.390625)scale(0.7)" xlink:href="#DejaVuSans-Oblique-88"/>
      <use transform="translate(85.893555 0.015625)" xlink:href="#DejaVuSans-40"/>
      <use transform="translate(124.907227 0.015625)" xlink:href="#DejaVuSans-Oblique-120"/>
      <use transform="translate(184.086914 0.015625)" xlink:href="#DejaVuSans-41"/>
     </g>
    </g>
   </g>
   <g id="PolyCollection_1">
    <defs>
     <path d="M 187.187031 -124.32471 
L 187.187031 -41.734219 
L 187.63794 -41.734219 
L 188.088849 -41.734219 
L 188.539759 -41.734219 
L 188.990668 -41.734219 
L 189.441577 -41.734219 
L 189.892486 -41.734219 
L 190.343395 -41.734219 
L 190.794304 -41.734219 
L 191.245213 -41.734219 
L 191.696122 -41.734219 
L 192.147031 -41.734219 
L 192.59794 -41.734219 
L 193.048849 -41.734219 
L 193.499759 -41.734219 
L 193.950668 -41.734219 
L 194.401577 -41.734219 
L 194.852486 -41.734219 
L 195.303395 -41.734219 
L 195.754304 -41.734219 
L 196.205213 -41.734219 
L 196.656122 -41.734219 
L 197.107031 -41.734219 
L 197.55794 -41.734219 
L 198.008849 -41.734219 
L 198.459759 -41.734219 
L 198.910668 -41.734219 
L 199.361577 -41.734219 
L 199.812486 -41.734219 
L 200.263395 -41.734219 
L 200.714304 -41.734219 
L 201.165213 -41.734219 
L 201.616122 -41.734219 
L 202.067031 -41.734219 
L 202.51794 -41.734219 
L 202.968849 -41.734219 
L 203.419759 -41.734219 
L 203.870668 -41.734219 
L 204.321577 -41.734219 
L 204.772486 -41.734219 
L 205.223395 -41.734219 
L 205.674304 -41.734219 
L 206.125213 -41.734219 
L 206.576122 -41.734219 
L 207.027031 -41.734219 
L 207.47794 -41.734219 
L 207.928849 -41.734219 
L 208.379759 -41.734219 
L 208.830668 -41.734219 
L 209.281577 -41.734219 
L 209.732486 -41.734219 
L 210.183395 -41.734219 
L 210.634304 -41.734219 
L 211.085213 -41.734219 
L 211.536122 -41.734219 
L 211.987031 -41.734219 
L 212.43794 -41.734219 
L 212.888849 -41.734219 
L 213.339759 -41.734219 
L 213.790668 -41.734219 
L 214.241577 -41.734219 
L 214.692486 -41.734219 
L 215.143395 -41.734219 
L 215.594304 -41.734219 
L 216.045213 -41.734219 
L 216.496122 -41.734219 
L 216.947031 -41.734219 
L 217.39794 -41.734219 
L 217.848849 -41.734219 
L 218.299759 -41.734219 
L 218.750668 -41.734219 
L 219.201577 -41.734219 
L 219.652486 -41.734219 
L 220.103395 -41.734219 
L 220.554304 -41.734219 
L 221.005213 -41.734219 
L 221.456122 -41.734219 
L 221.907031 -41.734219 
L 222.35794 -41.734219 
L 222.808849 -41.734219 
L 223.259759 -41.734219 
L 223.710668 -41.734219 
L 224.161577 -41.734219 
L 224.612486 -41.734219 
L 225.063395 -41.734219 
L 225.514304 -41.734219 
L 225.965213 -41.734219 
L 226.416122 -41.734219 
L 226.867031 -41.734219 
L 227.31794 -41.734219 
L 227.768849 -41.734219 
L 228.219759 -41.734219 
L 228.670668 -41.734219 
L 229.121577 -41.734219 
L 229.572486 -41.734219 
L 230.023395 -41.734219 
L 230.474304 -41.734219 
L 230.925213 -41.734219 
L 231.376122 -41.734219 
L 231.827031 -41.734219 
L 231.827031 -251.672326 
L 231.827031 -251.672326 
L 231.376122 -251.691632 
L 230.925213 -251.629122 
L 230.474304 -251.48511 
L 230.023395 -251.260014 
L 229.572486 -250.954366 
L 229.121577 -250.5688 
L 228.670668 -250.104062 
L 228.219759 -249.561001 
L 227.768849 -248.940571 
L 227.31794 -248.243829 
L 226.867031 -247.471934 
L 226.416122 -246.626141 
L 225.965213 -245.707806 
L 225.514304 -244.718376 
L 225.063395 -243.659394 
L 224.612486 -242.532488 
L 224.161577 -241.339377 
L 223.710668 -240.081858 
L 223.259759 -238.761814 
L 222.808849 -237.381201 
L 222.35794 -235.94205 
L 221.907031 -234.446461 
L 221.456122 -232.896599 
L 221.005213 -231.294694 
L 220.554304 -229.643033 
L 220.103395 -227.943954 
L 219.652486 -226.19985 
L 219.201577 -224.413156 
L 218.750668 -222.58635 
L 218.299759 -220.721947 
L 217.848849 -218.822492 
L 217.39794 -216.890563 
L 216.947031 -214.928759 
L 216.496122 -212.939697 
L 216.045213 -210.926011 
L 215.594304 -208.890344 
L 215.143395 -206.835346 
L 214.692486 -204.763668 
L 214.241577 -202.677956 
L 213.790668 -200.580852 
L 213.339759 -198.474983 
L 212.888849 -196.362962 
L 212.43794 -194.247382 
L 211.987031 -192.130809 
L 211.536122 -190.015784 
L 211.085213 -187.904813 
L 210.634304 -185.800367 
L 210.183395 -183.704876 
L 209.732486 -181.620729 
L 209.281577 -179.550263 
L 208.830668 -177.495769 
L 208.379759 -175.459483 
L 207.928849 -173.443581 
L 207.47794 -171.450182 
L 207.027031 -169.481342 
L 206.576122 -167.539049 
L 206.125213 -165.625225 
L 205.674304 -163.74172 
L 205.223395 -161.890311 
L 204.772486 -160.0727 
L 204.321577 -158.290512 
L 203.870668 -156.545293 
L 203.419759 -154.838508 
L 202.968849 -153.171539 
L 202.51794 -151.545687 
L 202.067031 -149.962166 
L 201.616122 -148.422106 
L 201.165213 -146.926548 
L 200.714304 -145.476448 
L 200.263395 -144.072673 
L 199.812486 -142.716003 
L 199.361577 -141.407128 
L 198.910668 -140.14665 
L 198.459759 -138.935084 
L 198.008849 -137.772854 
L 197.55794 -136.660298 
L 197.107031 -135.597667 
L 196.656122 -134.585125 
L 196.205213 -133.622748 
L 195.754304 -132.71053 
L 195.303395 -131.84838 
L 194.852486 -131.036124 
L 194.401577 -130.273506 
L 193.950668 -129.560191 
L 193.499759 -128.895766 
L 193.048849 -128.279739 
L 192.59794 -127.711545 
L 192.147031 -127.190545 
L 191.696122 -126.716029 
L 191.245213 -126.287218 
L 190.794304 -125.903265 
L 190.343395 -125.563259 
L 189.892486 -125.266227 
L 189.441577 -125.011136 
L 188.990668 -124.796893 
L 188.539759 -124.622352 
L 188.088849 -124.486315 
L 187.63794 -124.387533 
L 187.187031 -124.32471 
z
" id="m4948340379" style="stroke:#c44e52;stroke-opacity:0.5;"/>
    </defs>
    <g clip-path="url(#pa9066f911f)">
     <use style="fill:#c44e52;fill-opacity:0.5;stroke:#c44e52;stroke-opacity:0.5;" x="0" xlink:href="#m4948340379" y="266.374219"/>
    </g>
   </g>
   <g id="line2d_15">
    <path clip-path="url(#pa9066f911f)" d="M 53.267031 224.639666 
L 81.868036 224.551007 
L 90.280097 224.30336 
L 95.327333 223.941378 
L 98.692157 223.535185 
L 102.056981 222.932082 
L 105.421805 222.059079 
L 108.786629 220.82747 
L 110.469041 220.045569 
L 112.151453 219.134674 
L 113.833865 218.080552 
L 115.516277 216.868862 
L 117.19869 215.485488 
L 118.881102 213.916928 
L 120.563514 212.150734 
L 122.245926 210.175994 
L 123.928338 207.98385 
L 125.61075 205.568033 
L 127.293162 202.925402 
L 128.975574 200.056468 
L 132.340398 193.662826 
L 135.705222 186.480842 
L 139.070046 178.685068 
L 149.164519 154.50425 
L 152.529343 147.400101 
L 154.211755 144.242208 
L 155.894167 141.403203 
L 157.576579 138.91856 
L 159.258991 136.816889 
L 160.941403 135.118756 
L 162.623815 133.835655 
L 164.306227 132.969179 
L 165.988639 132.510429 
L 167.671051 132.439685 
L 169.353463 132.726352 
L 171.035875 133.329199 
L 172.718288 134.196897 
L 174.4007 135.26884 
L 181.130348 140.130626 
L 182.81276 141.080264 
L 184.495172 141.753239 
L 186.177584 142.066724 
L 187.859996 141.942615 
L 189.542408 141.309625 
L 191.22482 140.105328 
L 192.907232 138.278057 
L 194.589644 135.78865 
L 196.272056 132.611975 
L 197.954468 128.738183 
L 199.63688 124.173671 
L 201.319293 118.941692 
L 203.001705 113.082591 
L 204.684117 106.653632 
L 208.048941 92.395852 
L 213.096177 69.039553 
L 216.461001 53.590517 
L 219.825825 39.498723 
L 221.508237 33.295787 
L 223.190649 27.820126 
L 224.873061 23.182317 
L 226.555473 19.478879 
L 228.237886 16.789887 
L 229.920298 15.177007 
L 231.60271 14.682046 
L 233.285122 15.326042 
L 234.967534 17.10893 
L 236.649946 20.009804 
L 238.332358 23.987744 
L 240.01477 28.98319 
L 241.697182 34.919796 
L 243.379594 41.706694 
L 245.062006 49.241089 
L 248.42683 66.098624 
L 251.791654 84.541196 
L 260.203715 131.510217 
L 263.568539 148.625002 
L 266.933363 163.987887 
L 268.615775 170.922038 
L 270.298187 177.332898 
L 271.980599 183.214644 
L 273.663011 188.570583 
L 275.345423 193.411951 
L 277.027835 197.756651 
L 278.710247 201.627987 
L 280.392659 205.053424 
L 282.075071 208.063414 
L 283.757484 210.69032 
L 285.439896 212.967444 
L 287.122308 214.928188 
L 288.80472 216.605348 
L 290.487132 218.030533 
L 292.169544 219.233722 
L 293.851956 220.242936 
L 295.534368 221.084017 
L 297.21678 221.780507 
L 300.581604 222.822203 
L 303.946428 223.510382 
L 307.311252 223.953805 
L 312.358489 224.328674 
L 319.088137 224.539763 
L 330.865021 224.628916 
L 388.067031 224.64 
L 388.067031 224.64 
" style="fill:none;stroke:#4c72b0;stroke-linecap:round;stroke-width:1.5;"/>
   </g>
   <g id="patch_3">
    <path d="M 53.267031 224.64 
L 53.267031 7.2 
" style="fill:none;stroke:#262626;stroke-linecap:square;stroke-linejoin:miter;stroke-width:1.25;"/>
   </g>
   <g id="patch_4">
    <path d="M 388.067031 224.64 
L 388.067031 7.2 
" style="fill:none;stroke:#262626;stroke-linecap:square;stroke-linejoin:miter;stroke-width:1.25;"/>
   </g>
   <g id="patch_5">
    <path d="M 53.267031 224.64 
L 388.067031 224.64 
" style="fill:none;stroke:#262626;stroke-linecap:square;stroke-linejoin:miter;stroke-width:1.25;"/>
   </g>
   <g id="patch_6">
    <path d="M 53.267031 7.2 
L 388.067031 7.2 
" style="fill:none;stroke:#262626;stroke-linecap:square;stroke-linejoin:miter;stroke-width:1.25;"/>
   </g>
  </g>
 </g>
 <defs>
  <clipPath id="pa9066f911f">
   <rect height="217.44" width="334.8" x="53.267031" y="7.2"/>
  </clipPath>
 </defs>
</svg>