<?xml version="1.0" encoding="utf-8" standalone="no"?>
<!DOCTYPE svg PUBLIC "-//W3C//DTD SVG 1.1//EN"
  "http://www.w3.org/Graphics/SVG/1.1/DTD/svg11.dtd">
<!-- Created with matplotlib (https://matplotlib.org/) -->
<svg height="269.233133pt" version="1.1" viewBox="0 0 401.864063 269.233133" width="401.864063pt" xmlns="http://www.w3.org/2000/svg" xmlns:xlink="http://www.w3.org/1999/xlink">
 <metadata>
  <rdf:RDF xmlns:cc="http://creativecommons.org/ns#" xmlns:dc="http://purl.org/dc/elements/1.1/" xmlns:rdf="http://www.w3.org/1999/02/22-rdf-syntax-ns#">
   <cc:Work>
    <dc:type rdf:resource="http://purl.org/dc/dcmitype/StillImage"/>
    <dc:date>2021-07-21T12:44:15.344477</dc:date>
    <dc:format>image/svg+xml</dc:format>
    <dc:creator>
     <cc:Agent>
      <dc:title>Matplotlib v3.3.4, https://matplotlib.org/</dc:title>
     </cc:Agent>
    </dc:creator>
   </cc:Work>
  </rdf:RDF>
 </metadata>
 <defs>
  <style type="text/css">*{stroke-linecap:butt;stroke-linejoin:round;}</style>
 </defs>
 <g id="figure_1">
  <g id="patch_1">
   <path d="M 0 269.233133 
L 401.864063 269.233133 
L 401.864063 0 
L 0 0 
z
" style="fill:#ffffff;"/>
  </g>
  <g id="axes_1">
   <g id="patch_2">
    <path d="M 53.747031 227.498914 
L 388.547031 227.498914 
L 388.547031 10.058914 
L 53.747031 10.058914 
z
" style="fill:#ffffff;"/>
   </g>
   <g id="matplotlib.axis_1">
    <g id="xtick_1">
     <g id="line2d_1">
      <defs>
       <path d="M 0 0 
L 0 6 
" id="mfa6637a33d" style="stroke:#262626;stroke-width:1.25;"/>
      </defs>
      <g>
       <use style="fill:#262626;stroke:#262626;stroke-width:1.25;" x="73.441149" xlink:href="#mfa6637a33d" y="227.498914"/>
      </g>
     </g>
     <g id="text_1">
      <!-- −4 -->
      <g style="fill:#262626;" transform="translate(67.17029 244.872508)scale(0.11 -0.11)">
       <defs>
        <path d="M 52.828125 31.203125 
L 5.5625 31.203125 
L 5.5625 39.40625 
L 52.828125 39.40625 
z
" id="ArialMT-8722"/>
        <path d="M 32.328125 0 
L 32.328125 17.140625 
L 1.265625 17.140625 
L 1.265625 25.203125 
L 33.9375 71.578125 
L 41.109375 71.578125 
L 41.109375 25.203125 
L 50.78125 25.203125 
L 50.78125 17.140625 
L 41.109375 17.140625 
L 41.109375 0 
z
M 32.328125 25.203125 
L 32.328125 57.46875 
L 9.90625 25.203125 
z
" id="ArialMT-52"/>
       </defs>
       <use xlink:href="#ArialMT-8722"/>
       <use x="58.398438" xlink:href="#ArialMT-52"/>
      </g>
     </g>
    </g>
    <g id="xtick_2">
     <g id="line2d_2">
      <g>
       <use style="fill:#262626;stroke:#262626;stroke-width:1.25;" x="112.829384" xlink:href="#mfa6637a33d" y="227.498914"/>
      </g>
     </g>
     <g id="text_2">
      <!-- −2 -->
      <g style="fill:#262626;" transform="translate(106.558525 244.872508)scale(0.11 -0.11)">
       <defs>
        <path d="M 50.34375 8.453125 
L 50.34375 0 
L 3.03125 0 
Q 2.9375 3.171875 4.046875 6.109375 
Q 5.859375 10.9375 9.828125 15.625 
Q 13.8125 20.3125 21.34375 26.46875 
Q 33.015625 36.03125 37.109375 41.625 
Q 41.21875 47.21875 41.21875 52.203125 
Q 41.21875 57.421875 37.46875 61 
Q 33.734375 64.59375 27.734375 64.59375 
Q 21.390625 64.59375 17.578125 60.78125 
Q 13.765625 56.984375 13.71875 50.25 
L 4.6875 51.171875 
Q 5.609375 61.28125 11.65625 66.578125 
Q 17.71875 71.875 27.9375 71.875 
Q 38.234375 71.875 44.234375 66.15625 
Q 50.25 60.453125 50.25 52 
Q 50.25 47.703125 48.484375 43.546875 
Q 46.734375 39.40625 42.65625 34.8125 
Q 38.578125 30.21875 29.109375 22.21875 
Q 21.1875 15.578125 18.9375 13.203125 
Q 16.703125 10.84375 15.234375 8.453125 
z
" id="ArialMT-50"/>
       </defs>
       <use xlink:href="#ArialMT-8722"/>
       <use x="58.398438" xlink:href="#ArialMT-50"/>
      </g>
     </g>
    </g>
    <g id="xtick_3">
     <g id="line2d_3">
      <g>
       <use style="fill:#262626;stroke:#262626;stroke-width:1.25;" x="152.217619" xlink:href="#mfa6637a33d" y="227.498914"/>
      </g>
     </g>
     <g id="text_3">
      <!-- 0 -->
      <g style="fill:#262626;" transform="translate(149.159104 244.872508)scale(0.11 -0.11)">
       <defs>
        <path d="M 4.15625 35.296875 
Q 4.15625 48 6.765625 55.734375 
Q 9.375 63.484375 14.515625 67.671875 
Q 19.671875 71.875 27.484375 71.875 
Q 33.25 71.875 37.59375 69.546875 
Q 41.9375 67.234375 44.765625 62.859375 
Q 47.609375 58.5 49.21875 52.21875 
Q 50.828125 45.953125 50.828125 35.296875 
Q 50.828125 22.703125 48.234375 14.96875 
Q 45.65625 7.234375 40.5 3 
Q 35.359375 -1.21875 27.484375 -1.21875 
Q 17.140625 -1.21875 11.234375 6.203125 
Q 4.15625 15.140625 4.15625 35.296875 
z
M 13.1875 35.296875 
Q 13.1875 17.671875 17.3125 11.828125 
Q 21.4375 6 27.484375 6 
Q 33.546875 6 37.671875 11.859375 
Q 41.796875 17.71875 41.796875 35.296875 
Q 41.796875 52.984375 37.671875 58.78125 
Q 33.546875 64.59375 27.390625 64.59375 
Q 21.34375 64.59375 17.71875 59.46875 
Q 13.1875 52.9375 13.1875 35.296875 
z
" id="ArialMT-48"/>
       </defs>
       <use xlink:href="#ArialMT-48"/>
      </g>
     </g>
    </g>
    <g id="xtick_4">
     <g id="line2d_4">
      <g>
       <use style="fill:#262626;stroke:#262626;stroke-width:1.25;" x="191.605855" xlink:href="#mfa6637a33d" y="227.498914"/>
      </g>
     </g>
     <g id="text_4">
      <!-- 2 -->
      <g style="fill:#262626;" transform="translate(188.547339 244.872508)scale(0.11 -0.11)">
       <use xlink:href="#ArialMT-50"/>
      </g>
     </g>
    </g>
    <g id="xtick_5">
     <g id="line2d_5">
      <g>
       <use style="fill:#262626;stroke:#262626;stroke-width:1.25;" x="230.99409" xlink:href="#mfa6637a33d" y="227.498914"/>
      </g>
     </g>
     <g id="text_5">
      <!-- 4 -->
      <g style="fill:#262626;" transform="translate(227.935574 244.872508)scale(0.11 -0.11)">
       <use xlink:href="#ArialMT-52"/>
      </g>
     </g>
    </g>
    <g id="xtick_6">
     <g id="line2d_6">
      <g>
       <use style="fill:#262626;stroke:#262626;stroke-width:1.25;" x="270.382325" xlink:href="#mfa6637a33d" y="227.498914"/>
      </g>
     </g>
     <g id="text_6">
      <!-- 6 -->
      <g style="fill:#262626;" transform="translate(267.32381 244.872508)scale(0.11 -0.11)">
       <defs>
        <path d="M 49.75 54.046875 
L 41.015625 53.375 
Q 39.84375 58.546875 37.703125 60.890625 
Q 34.125 64.65625 28.90625 64.65625 
Q 24.703125 64.65625 21.53125 62.3125 
Q 17.390625 59.28125 14.984375 53.46875 
Q 12.59375 47.65625 12.5 36.921875 
Q 15.671875 41.75 20.265625 44.09375 
Q 24.859375 46.4375 29.890625 46.4375 
Q 38.671875 46.4375 44.84375 39.96875 
Q 51.03125 33.5 51.03125 23.25 
Q 51.03125 16.5 48.125 10.71875 
Q 45.21875 4.9375 40.140625 1.859375 
Q 35.0625 -1.21875 28.609375 -1.21875 
Q 17.625 -1.21875 10.6875 6.859375 
Q 3.765625 14.9375 3.765625 33.5 
Q 3.765625 54.25 11.421875 63.671875 
Q 18.109375 71.875 29.4375 71.875 
Q 37.890625 71.875 43.28125 67.140625 
Q 48.6875 62.40625 49.75 54.046875 
z
M 13.875 23.1875 
Q 13.875 18.65625 15.796875 14.5 
Q 17.71875 10.359375 21.1875 8.171875 
Q 24.65625 6 28.46875 6 
Q 34.03125 6 38.03125 10.484375 
Q 42.046875 14.984375 42.046875 22.703125 
Q 42.046875 30.125 38.078125 34.390625 
Q 34.125 38.671875 28.125 38.671875 
Q 22.171875 38.671875 18.015625 34.390625 
Q 13.875 30.125 13.875 23.1875 
z
" id="ArialMT-54"/>
       </defs>
       <use xlink:href="#ArialMT-54"/>
      </g>
     </g>
    </g>
    <g id="xtick_7">
     <g id="line2d_7">
      <g>
       <use style="fill:#262626;stroke:#262626;stroke-width:1.25;" x="309.770561" xlink:href="#mfa6637a33d" y="227.498914"/>
      </g>
     </g>
     <g id="text_7">
      <!-- 8 -->
      <g style="fill:#262626;" transform="translate(306.712045 244.872508)scale(0.11 -0.11)">
       <defs>
        <path d="M 17.671875 38.8125 
Q 12.203125 40.828125 9.5625 44.53125 
Q 6.9375 48.25 6.9375 53.421875 
Q 6.9375 61.234375 12.546875 66.546875 
Q 18.171875 71.875 27.484375 71.875 
Q 36.859375 71.875 42.578125 66.421875 
Q 48.296875 60.984375 48.296875 53.171875 
Q 48.296875 48.1875 45.671875 44.5 
Q 43.0625 40.828125 37.75 38.8125 
Q 44.34375 36.671875 47.78125 31.875 
Q 51.21875 27.09375 51.21875 20.453125 
Q 51.21875 11.28125 44.71875 5.03125 
Q 38.234375 -1.21875 27.640625 -1.21875 
Q 17.046875 -1.21875 10.546875 5.046875 
Q 4.046875 11.328125 4.046875 20.703125 
Q 4.046875 27.6875 7.59375 32.390625 
Q 11.140625 37.109375 17.671875 38.8125 
z
M 15.921875 53.71875 
Q 15.921875 48.640625 19.1875 45.40625 
Q 22.46875 42.1875 27.6875 42.1875 
Q 32.765625 42.1875 36.015625 45.375 
Q 39.265625 48.578125 39.265625 53.21875 
Q 39.265625 58.0625 35.90625 61.359375 
Q 32.5625 64.65625 27.59375 64.65625 
Q 22.5625 64.65625 19.234375 61.421875 
Q 15.921875 58.203125 15.921875 53.71875 
z
M 13.09375 20.65625 
Q 13.09375 16.890625 14.875 13.375 
Q 16.65625 9.859375 20.171875 7.921875 
Q 23.6875 6 27.734375 6 
Q 34.03125 6 38.125 10.046875 
Q 42.234375 14.109375 42.234375 20.359375 
Q 42.234375 26.703125 38.015625 30.859375 
Q 33.796875 35.015625 27.4375 35.015625 
Q 21.234375 35.015625 17.15625 30.90625 
Q 13.09375 26.8125 13.09375 20.65625 
z
" id="ArialMT-56"/>
       </defs>
       <use xlink:href="#ArialMT-56"/>
      </g>
     </g>
    </g>
    <g id="xtick_8">
     <g id="line2d_8">
      <g>
       <use style="fill:#262626;stroke:#262626;stroke-width:1.25;" x="349.158796" xlink:href="#mfa6637a33d" y="227.498914"/>
      </g>
     </g>
     <g id="text_8">
      <!-- 10 -->
      <g style="fill:#262626;" transform="translate(343.041765 244.872508)scale(0.11 -0.11)">
       <defs>
        <path d="M 37.25 0 
L 28.46875 0 
L 28.46875 56 
Q 25.296875 52.984375 20.140625 49.953125 
Q 14.984375 46.921875 10.890625 45.40625 
L 10.890625 53.90625 
Q 18.265625 57.375 23.78125 62.296875 
Q 29.296875 67.234375 31.59375 71.875 
L 37.25 71.875 
z
" id="ArialMT-49"/>
       </defs>
       <use xlink:href="#ArialMT-49"/>
       <use x="55.615234" xlink:href="#ArialMT-48"/>
      </g>
     </g>
    </g>
    <g id="xtick_9">
     <g id="line2d_9">
      <g>
       <use style="fill:#262626;stroke:#262626;stroke-width:1.25;" x="388.547031" xlink:href="#mfa6637a33d" y="227.498914"/>
      </g>
     </g>
     <g id="text_9">
      <!-- 12 -->
      <g style="fill:#262626;" transform="translate(382.43 244.872508)scale(0.11 -0.11)">
       <use xlink:href="#ArialMT-49"/>
       <use x="55.615234" xlink:href="#ArialMT-50"/>
      </g>
     </g>
    </g>
    <g id="text_10">
     <!-- $x$ -->
     <g style="fill:#262626;" transform="translate(217.547031 259.648133)scale(0.12 -0.12)">
      <defs>
       <path d="M 60.015625 54.6875 
L 34.90625 27.875 
L 50.296875 0 
L 39.984375 0 
L 28.421875 21.6875 
L 8.296875 0 
L -2.59375 0 
L 24.3125 28.8125 
L 10.015625 54.6875 
L 20.3125 54.6875 
L 30.8125 34.90625 
L 49.125 54.6875 
z
" id="DejaVuSans-Oblique-120"/>
      </defs>
      <use transform="translate(0 0.3125)" xlink:href="#DejaVuSans-Oblique-120"/>
     </g>
    </g>
   </g>
   <g id="matplotlib.axis_2">
    <g id="ytick_1">
     <g id="line2d_10">
      <defs>
       <path d="M 0 0 
L -6 0 
" id="m9a7ca3a82f" style="stroke:#262626;stroke-width:1.25;"/>
      </defs>
      <g>
       <use style="fill:#262626;stroke:#262626;stroke-width:1.25;" x="53.747031" xlink:href="#m9a7ca3a82f" y="217.615278"/>
      </g>
     </g>
     <g id="text_11">
      <!-- 0.00 -->
      <g style="fill:#262626;" transform="translate(22.84 221.552075)scale(0.11 -0.11)">
       <defs>
        <path d="M 9.078125 0 
L 9.078125 10.015625 
L 19.09375 10.015625 
L 19.09375 0 
z
" id="ArialMT-46"/>
       </defs>
       <use xlink:href="#ArialMT-48"/>
       <use x="55.615234" xlink:href="#ArialMT-46"/>
       <use x="83.398438" xlink:href="#ArialMT-48"/>
       <use x="139.013672" xlink:href="#ArialMT-48"/>
      </g>
     </g>
    </g>
    <g id="ytick_2">
     <g id="line2d_11">
      <g>
       <use style="fill:#262626;stroke:#262626;stroke-width:1.25;" x="53.747031" xlink:href="#m9a7ca3a82f" y="176.319582"/>
      </g>
     </g>
     <g id="text_12">
      <!-- 0.05 -->
      <g style="fill:#262626;" transform="translate(22.84 180.256379)scale(0.11 -0.11)">
       <defs>
        <path d="M 4.15625 18.75 
L 13.375 19.53125 
Q 14.40625 12.796875 18.140625 9.390625 
Q 21.875 6 27.15625 6 
Q 33.5 6 37.890625 10.78125 
Q 42.28125 15.578125 42.28125 23.484375 
Q 42.28125 31 38.0625 35.34375 
Q 33.84375 39.703125 27 39.703125 
Q 22.75 39.703125 19.328125 37.765625 
Q 15.921875 35.84375 13.96875 32.765625 
L 5.71875 33.84375 
L 12.640625 70.609375 
L 48.25 70.609375 
L 48.25 62.203125 
L 19.671875 62.203125 
L 15.828125 42.96875 
Q 22.265625 47.46875 29.34375 47.46875 
Q 38.71875 47.46875 45.15625 40.96875 
Q 51.609375 34.46875 51.609375 24.265625 
Q 51.609375 14.546875 45.953125 7.46875 
Q 39.0625 -1.21875 27.15625 -1.21875 
Q 17.390625 -1.21875 11.203125 4.25 
Q 5.03125 9.71875 4.15625 18.75 
z
" id="ArialMT-53"/>
       </defs>
       <use xlink:href="#ArialMT-48"/>
       <use x="55.615234" xlink:href="#ArialMT-46"/>
       <use x="83.398438" xlink:href="#ArialMT-48"/>
       <use x="139.013672" xlink:href="#ArialMT-53"/>
      </g>
     </g>
    </g>
    <g id="ytick_3">
     <g id="line2d_12">
      <g>
       <use style="fill:#262626;stroke:#262626;stroke-width:1.25;" x="53.747031" xlink:href="#m9a7ca3a82f" y="135.023886"/>
      </g>
     </g>
     <g id="text_13">
      <!-- 0.10 -->
      <g style="fill:#262626;" transform="translate(22.84 138.960682)scale(0.11 -0.11)">
       <use xlink:href="#ArialMT-48"/>
       <use x="55.615234" xlink:href="#ArialMT-46"/>
       <use x="83.398438" xlink:href="#ArialMT-49"/>
       <use x="139.013672" xlink:href="#ArialMT-48"/>
      </g>
     </g>
    </g>
    <g id="ytick_4">
     <g id="line2d_13">
      <g>
       <use style="fill:#262626;stroke:#262626;stroke-width:1.25;" x="53.747031" xlink:href="#m9a7ca3a82f" y="93.728189"/>
      </g>
     </g>
     <g id="text_14">
      <!-- 0.15 -->
      <g style="fill:#262626;" transform="translate(22.84 97.664986)scale(0.11 -0.11)">
       <use xlink:href="#ArialMT-48"/>
       <use x="55.615234" xlink:href="#ArialMT-46"/>
       <use x="83.398438" xlink:href="#ArialMT-49"/>
       <use x="139.013672" xlink:href="#ArialMT-53"/>
      </g>
     </g>
    </g>
    <g id="ytick_5">
     <g id="line2d_14">
      <g>
       <use style="fill:#262626;stroke:#262626;stroke-width:1.25;" x="53.747031" xlink:href="#m9a7ca3a82f" y="52.432493"/>
      </g>
     </g>
     <g id="text_15">
      <!-- 0.20 -->
      <g style="fill:#262626;" transform="translate(22.84 56.36929)scale(0.11 -0.11)">
       <use xlink:href="#ArialMT-48"/>
       <use x="55.615234" xlink:href="#ArialMT-46"/>
       <use x="83.398438" xlink:href="#ArialMT-50"/>
       <use x="139.013672" xlink:href="#ArialMT-48"/>
      </g>
     </g>
    </g>
    <g id="ytick_6">
     <g id="line2d_15">
      <g>
       <use style="fill:#262626;stroke:#262626;stroke-width:1.25;" x="53.747031" xlink:href="#m9a7ca3a82f" y="11.136797"/>
      </g>
     </g>
     <g id="text_16">
      <!-- 0.25 -->
      <g style="fill:#262626;" transform="translate(22.84 15.073594)scale(0.11 -0.11)">
       <use xlink:href="#ArialMT-48"/>
       <use x="55.615234" xlink:href="#ArialMT-46"/>
       <use x="83.398438" xlink:href="#ArialMT-50"/>
       <use x="139.013672" xlink:href="#ArialMT-53"/>
      </g>
     </g>
    </g>
    <g id="text_17">
     <!-- $p(x)$ -->
     <g style="fill:#262626;" transform="translate(16.32 130.838914)rotate(-90)scale(0.12 -0.12)">
      <defs>
       <path d="M 49.609375 33.6875 
Q 49.609375 40.875 46.484375 44.671875 
Q 43.359375 48.484375 37.5 48.484375 
Q 33.5 48.484375 29.859375 46.4375 
Q 26.21875 44.390625 23.390625 40.484375 
Q 20.609375 36.625 18.9375 31.15625 
Q 17.28125 25.6875 17.28125 20.3125 
Q 17.28125 13.484375 20.40625 9.796875 
Q 23.53125 6.109375 29.296875 6.109375 
Q 33.546875 6.109375 37.1875 8.109375 
Q 40.828125 10.109375 43.40625 13.921875 
Q 46.1875 17.921875 47.890625 23.34375 
Q 49.609375 28.765625 49.609375 33.6875 
z
M 21.78125 46.390625 
Q 25.390625 51.125 30.296875 53.5625 
Q 35.203125 56 41.21875 56 
Q 49.609375 56 54.25 50.5 
Q 58.890625 45.015625 58.890625 35.109375 
Q 58.890625 27 56 19.65625 
Q 53.125 12.3125 47.703125 6.5 
Q 44.09375 2.640625 39.546875 0.609375 
Q 35.015625 -1.421875 29.984375 -1.421875 
Q 24.171875 -1.421875 20.21875 1 
Q 16.265625 3.421875 14.3125 8.203125 
L 8.6875 -20.796875 
L -0.296875 -20.796875 
L 14.40625 54.6875 
L 23.390625 54.6875 
z
" id="DejaVuSans-Oblique-112"/>
       <path d="M 31 75.875 
Q 24.46875 64.65625 21.28125 53.65625 
Q 18.109375 42.671875 18.109375 31.390625 
Q 18.109375 20.125 21.3125 9.0625 
Q 24.515625 -2 31 -13.1875 
L 23.1875 -13.1875 
Q 15.875 -1.703125 12.234375 9.375 
Q 8.59375 20.453125 8.59375 31.390625 
Q 8.59375 42.28125 12.203125 53.3125 
Q 15.828125 64.359375 23.1875 75.875 
z
" id="DejaVuSans-40"/>
       <path d="M 8.015625 75.875 
L 15.828125 75.875 
Q 23.140625 64.359375 26.78125 53.3125 
Q 30.421875 42.28125 30.421875 31.390625 
Q 30.421875 20.453125 26.78125 9.375 
Q 23.140625 -1.703125 15.828125 -13.1875 
L 8.015625 -13.1875 
Q 14.5 -2 17.703125 9.0625 
Q 20.90625 20.125 20.90625 31.390625 
Q 20.90625 42.671875 17.703125 53.65625 
Q 14.5 64.65625 8.015625 75.875 
z
" id="DejaVuSans-41"/>
      </defs>
      <use transform="translate(0 0.125)" xlink:href="#DejaVuSans-Oblique-112"/>
      <use transform="translate(63.476562 0.125)" xlink:href="#DejaVuSans-40"/>
      <use transform="translate(102.490234 0.125)" xlink:href="#DejaVuSans-Oblique-120"/>
      <use transform="translate(161.669922 0.125)" xlink:href="#DejaVuSans-41"/>
     </g>
    </g>
   </g>
   <g id="PolyCollection_1">
    <defs>
     <path d="M 53.747031 -51.618346 
L 53.747031 -51.617855 
L 55.429443 -51.617855 
L 57.111855 -51.617855 
L 58.794267 -51.617855 
L 60.476679 -51.617855 
L 62.159092 -51.617855 
L 63.841504 -51.617855 
L 65.523916 -51.617855 
L 67.206328 -51.617855 
L 68.88874 -51.617855 
L 70.571152 -51.617855 
L 72.253564 -51.617855 
L 73.935976 -51.617855 
L 75.618388 -51.617855 
L 77.3008 -51.617855 
L 78.983212 -51.617855 
L 80.665624 -51.617855 
L 82.348036 -51.617855 
L 84.030448 -51.617855 
L 85.71286 -51.617855 
L 87.395272 -51.617855 
L 89.077685 -51.617855 
L 90.760097 -51.617855 
L 92.442509 -51.617855 
L 94.124921 -51.617855 
L 95.807333 -51.617855 
L 97.489745 -51.617855 
L 99.172157 -51.617855 
L 100.854569 -51.617855 
L 102.536981 -51.617855 
L 104.219393 -51.617855 
L 105.901805 -51.617855 
L 107.584217 -51.617855 
L 109.266629 -51.617855 
L 110.949041 -51.617855 
L 112.631453 -51.617855 
L 114.313865 -51.617855 
L 115.996277 -51.617855 
L 117.67869 -51.617855 
L 119.361102 -51.617855 
L 121.043514 -51.617855 
L 122.725926 -51.617855 
L 124.408338 -51.617855 
L 126.09075 -51.617855 
L 127.773162 -51.617855 
L 129.455574 -51.617855 
L 131.137986 -51.617855 
L 132.820398 -51.617855 
L 134.50281 -51.617855 
L 136.185222 -51.617855 
L 137.867634 -51.617855 
L 139.550046 -51.617855 
L 141.232458 -51.617855 
L 142.91487 -51.617855 
L 144.597283 -51.617855 
L 146.279695 -51.617855 
L 147.962107 -51.617855 
L 149.644519 -51.617855 
L 151.326931 -51.617855 
L 153.009343 -51.617855 
L 154.691755 -51.617855 
L 156.374167 -51.617855 
L 158.056579 -51.617855 
L 159.738991 -51.617855 
L 161.421403 -51.617855 
L 163.103815 -51.617855 
L 164.786227 -51.617855 
L 166.468639 -51.617855 
L 168.151051 -51.617855 
L 169.833463 -51.617855 
L 171.515875 -51.617855 
L 173.198288 -51.617855 
L 174.8807 -51.617855 
L 176.563112 -51.617855 
L 178.245524 -51.617855 
L 179.927936 -51.617855 
L 181.610348 -51.617855 
L 183.29276 -51.617855 
L 184.975172 -51.617855 
L 186.657584 -51.617855 
L 188.339996 -51.617855 
L 190.022408 -51.617855 
L 191.70482 -51.617855 
L 193.387232 -51.617855 
L 195.069644 -51.617855 
L 196.752056 -51.617855 
L 198.434468 -51.617855 
L 200.11688 -51.617855 
L 201.799293 -51.617855 
L 203.481705 -51.617855 
L 205.164117 -51.617855 
L 206.846529 -51.617855 
L 208.528941 -51.617855 
L 210.211353 -51.617855 
L 211.893765 -51.617855 
L 213.576177 -51.617855 
L 215.258589 -51.617855 
L 216.941001 -51.617855 
L 218.623413 -51.617855 
L 220.305825 -51.617855 
L 221.988237 -51.617855 
L 223.670649 -51.617855 
L 225.353061 -51.617855 
L 227.035473 -51.617855 
L 228.717886 -51.617855 
L 230.400298 -51.617855 
L 232.08271 -51.617855 
L 233.765122 -51.617855 
L 235.447534 -51.617855 
L 237.129946 -51.617855 
L 238.812358 -51.617855 
L 240.49477 -51.617855 
L 242.177182 -51.617855 
L 243.859594 -51.617855 
L 245.542006 -51.617855 
L 247.224418 -51.617855 
L 248.90683 -51.617855 
L 250.589242 -51.617855 
L 252.271654 -51.617855 
L 253.954066 -51.617855 
L 255.636478 -51.617855 
L 257.318891 -51.617855 
L 259.001303 -51.617855 
L 260.683715 -51.617855 
L 262.366127 -51.617855 
L 264.048539 -51.617855 
L 265.730951 -51.617855 
L 267.413363 -51.617855 
L 269.095775 -51.617855 
L 270.778187 -51.617855 
L 272.460599 -51.617855 
L 274.143011 -51.617855 
L 275.825423 -51.617855 
L 277.507835 -51.617855 
L 279.190247 -51.617855 
L 280.872659 -51.617855 
L 282.555071 -51.617855 
L 284.237484 -51.617855 
L 285.919896 -51.617855 
L 287.602308 -51.617855 
L 289.28472 -51.617855 
L 290.967132 -51.617855 
L 292.649544 -51.617855 
L 294.331956 -51.617855 
L 296.014368 -51.617855 
L 297.69678 -51.617855 
L 299.379192 -51.617855 
L 301.061604 -51.617855 
L 302.744016 -51.617855 
L 304.426428 -51.617855 
L 306.10884 -51.617855 
L 307.791252 -51.617855 
L 309.473664 -51.617855 
L 311.156076 -51.617855 
L 312.838489 -51.617855 
L 314.520901 -51.617855 
L 316.203313 -51.617855 
L 317.885725 -51.617855 
L 319.568137 -51.617855 
L 321.250549 -51.617855 
L 322.932961 -51.617855 
L 324.615373 -51.617855 
L 326.297785 -51.617855 
L 327.980197 -51.617855 
L 329.662609 -51.617855 
L 331.345021 -51.617855 
L 333.027433 -51.617855 
L 334.709845 -51.617855 
L 336.392257 -51.617855 
L 338.074669 -51.617855 
L 339.757082 -51.617855 
L 341.439494 -51.617855 
L 343.121906 -51.617855 
L 344.804318 -51.617855 
L 346.48673 -51.617855 
L 348.169142 -51.617855 
L 349.851554 -51.617855 
L 351.533966 -51.617855 
L 353.216378 -51.617855 
L 354.89879 -51.617855 
L 356.581202 -51.617855 
L 358.263614 -51.617855 
L 359.946026 -51.617855 
L 361.628438 -51.617855 
L 363.31085 -51.617855 
L 364.993262 -51.617855 
L 366.675674 -51.617855 
L 368.358087 -51.617855 
L 370.040499 -51.617855 
L 371.722911 -51.617855 
L 373.405323 -51.617855 
L 375.087735 -51.617855 
L 376.770147 -51.617855 
L 378.452559 -51.617855 
L 380.134971 -51.617855 
L 381.817383 -51.617855 
L 383.499795 -51.617855 
L 385.182207 -51.617855 
L 386.864619 -51.617855 
L 388.547031 -51.617855 
L 388.547031 -51.684174 
L 388.547031 -51.684174 
L 386.864619 -51.71085 
L 385.182207 -51.747306 
L 383.499795 -51.796744 
L 381.817383 -51.863266 
L 380.134971 -51.952076 
L 378.452559 -52.069715 
L 376.770147 -52.224319 
L 375.087735 -52.425902 
L 373.405323 -52.686662 
L 371.722911 -53.021289 
L 370.040499 -53.447284 
L 368.358087 -53.985244 
L 366.675674 -54.659121 
L 364.993262 -55.496408 
L 363.31085 -56.528241 
L 361.628438 -57.789376 
L 359.946026 -59.318008 
L 358.263614 -61.155411 
L 356.581202 -63.345356 
L 354.89879 -65.933288 
L 353.216378 -68.965242 
L 351.533966 -72.486501 
L 349.851554 -76.53998 
L 348.169142 -81.164386 
L 346.48673 -86.392164 
L 344.804318 -92.247324 
L 343.121906 -98.743183 
L 341.439494 -105.880159 
L 339.757082 -113.643699 
L 338.074669 -122.00247 
L 336.392257 -130.906941 
L 334.709845 -140.288463 
L 333.027433 -150.058981 
L 331.345021 -160.111441 
L 329.662609 -170.320983 
L 327.980197 -180.546931 
L 326.297785 -190.635582 
L 324.615373 -200.42374 
L 322.932961 -209.742891 
L 321.250549 -218.423896 
L 319.568137 -226.302013 
L 317.885725 -233.222049 
L 316.203313 -239.043422 
L 314.520901 -243.644902 
L 312.838489 -246.928799 
L 311.156076 -248.824417 
L 309.473664 -249.290582 
L 307.791252 -248.317128 
L 306.10884 -245.925264 
L 304.426428 -242.166812 
L 302.744016 -237.122333 
L 301.061604 -230.898261 
L 299.379192 -223.623169 
L 297.69678 -215.443358 
L 296.014368 -206.517979 
L 294.331956 -197.013911 
L 292.649544 -187.100633 
L 290.967132 -176.945295 
L 289.28472 -166.70819 
L 287.602308 -156.538788 
L 285.919896 -146.572463 
L 284.237484 -136.927975 
L 282.555071 -127.705767 
L 280.872659 -118.987055 
L 279.190247 -110.833671 
L 277.507835 -103.288592 
L 275.825423 -96.377044 
L 274.143011 -90.108072 
L 272.460599 -84.476461 
L 270.778187 -79.464861 
L 269.095775 -75.046033 
L 267.413363 -71.185076 
L 265.730951 -67.841575 
L 264.048539 -64.971581 
L 262.366127 -62.529376 
L 260.683715 -60.468993 
L 259.001303 -58.745473 
L 257.318891 -57.315848 
L 255.636478 -56.139882 
L 253.954066 -55.180572 
L 252.271654 -54.404443 
L 250.589242 -53.781666 
L 248.90683 -53.286046 
L 247.224418 -52.894882 
L 245.542006 -52.58876 
L 243.859594 -52.351295 
L 242.177182 -52.16883 
L 240.49477 -52.030145 
L 238.812358 -51.926157 
L 237.129946 -51.849649 
L 235.447534 -51.79502 
L 233.765122 -51.758075 
L 232.08271 -51.735848 
L 230.400298 -51.72647 
L 228.717886 -51.729078 
L 227.035473 -51.743759 
L 225.353061 -51.771546 
L 223.670649 -51.814442 
L 221.988237 -51.87549 
L 220.305825 -51.958873 
L 218.623413 -52.070047 
L 216.941001 -52.215898 
L 215.258589 -52.404919 
L 213.576177 -52.647399 
L 211.893765 -52.955613 
L 210.211353 -53.343992 
L 208.528941 -53.829278 
L 206.846529 -54.430621 
L 205.164117 -55.169611 
L 203.481705 -56.070234 
L 201.799293 -57.158702 
L 200.11688 -58.463164 
L 198.434468 -60.01326 
L 196.752056 -61.839516 
L 195.069644 -63.972553 
L 193.387232 -66.442134 
L 191.70482 -69.276026 
L 190.022408 -72.49872 
L 188.339996 -76.130031 
L 186.657584 -80.183622 
L 184.975172 -84.665499 
L 183.29276 -89.57257 
L 181.610348 -94.891311 
L 179.927936 -100.596643 
L 178.245524 -106.651096 
L 176.563112 -113.004339 
L 174.8807 -119.59314 
L 173.198288 -126.341822 
L 171.515875 -133.163244 
L 169.833463 -139.960319 
L 168.151051 -146.628051 
L 166.468639 -153.056053 
L 164.786227 -159.131466 
L 163.103815 -164.742173 
L 161.421403 -169.780203 
L 159.738991 -174.145153 
L 158.056579 -177.74751 
L 156.374167 -180.511697 
L 154.691755 -182.378705 
L 153.009343 -183.308192 
L 151.326931 -183.279929 
L 149.644519 -182.294532 
L 147.962107 -180.373441 
L 146.279695 -177.558144 
L 144.597283 -173.908687 
L 142.91487 -169.501545 
L 141.232458 -164.426959 
L 139.550046 -158.78587 
L 137.867634 -152.68659 
L 136.185222 -146.241371 
L 134.50281 -139.563014 
L 132.820398 -132.761667 
L 131.137986 -125.941925 
L 129.455574 -119.200341 
L 127.773162 -112.62342 
L 126.09075 -106.286128 
L 124.408338 -100.250944 
L 122.725926 -94.56744 
L 121.043514 -89.272338 
L 119.361102 -84.390012 
L 117.67869 -79.933337 
L 115.996277 -75.904834 
L 114.313865 -72.298004 
L 112.631453 -69.09878 
L 110.949041 -66.287033 
L 109.266629 -63.838039 
L 107.584217 -61.723879 
L 105.901805 -59.914711 
L 104.219393 -58.379889 
L 102.536981 -57.088918 
L 100.854569 -56.012226 
L 99.172157 -55.12176 
L 97.489745 -54.391422 
L 95.807333 -53.797348 
L 94.124921 -53.318066 
L 92.442509 -52.934537 
L 90.760097 -52.630109 
L 89.077685 -52.390409 
L 87.395272 -52.203182 
L 85.71286 -52.058105 
L 84.030448 -51.946578 
L 82.348036 -51.861519 
L 80.665624 -51.797157 
L 78.983212 -51.748836 
L 77.3008 -51.712841 
L 75.618388 -51.686238 
L 73.935976 -51.666727 
L 72.253564 -51.652529 
L 70.571152 -51.642277 
L 68.88874 -51.634931 
L 67.206328 -51.629708 
L 65.523916 -51.626023 
L 63.841504 -51.623442 
L 62.159092 -51.621649 
L 60.476679 -51.620413 
L 58.794267 -51.619567 
L 57.111855 -51.618992 
L 55.429443 -51.618605 
L 53.747031 -51.618346 
z
" id="mff14a4f31b" style="stroke:#4c72b0;stroke-opacity:0.5;"/>
    </defs>
    <g clip-path="url(#p9da1b74f61)">
     <use style="fill:#4c72b0;fill-opacity:0.5;stroke:#4c72b0;stroke-opacity:0.5;" x="0" xlink:href="#mff14a4f31b" y="269.233133"/>
    </g>
   </g>
   <g id="line2d_16">
    <path clip-path="url(#p9da1b74f61)" d="M 53.747031 217.614787 
L 77.3008 217.520292 
L 84.030448 217.286555 
L 89.077685 216.842724 
L 92.442509 216.298596 
L 95.807333 215.435785 
L 97.489745 214.841712 
L 99.172157 214.111373 
L 100.854569 213.220907 
L 102.536981 212.144215 
L 104.219393 210.853245 
L 105.901805 209.318423 
L 107.584217 207.509254 
L 109.266629 205.395094 
L 110.949041 202.9461 
L 112.631453 200.134353 
L 114.313865 196.93513 
L 115.996277 193.328299 
L 117.67869 189.299796 
L 119.361102 184.843122 
L 121.043514 179.960795 
L 122.725926 174.665693 
L 126.09075 162.947005 
L 129.455574 150.032792 
L 137.867634 116.546543 
L 139.550046 110.447264 
L 141.232458 104.806174 
L 142.91487 99.731589 
L 144.597283 95.324446 
L 146.279695 91.674989 
L 147.962107 88.859692 
L 149.644519 86.938601 
L 151.326931 85.953204 
L 153.009343 85.924941 
L 154.691755 86.854428 
L 156.374167 88.721437 
L 158.056579 91.485623 
L 159.738991 95.08798 
L 161.421403 99.45293 
L 163.103815 104.49096 
L 164.786227 110.101668 
L 168.151051 122.605083 
L 178.245524 162.582037 
L 181.610348 174.341822 
L 183.29276 179.660563 
L 184.975172 184.567634 
L 186.657584 189.049512 
L 188.339996 193.103102 
L 190.022408 196.734414 
L 191.70482 199.957108 
L 193.387232 202.790999 
L 195.069644 205.26058 
L 196.752056 207.393618 
L 198.434468 209.219873 
L 200.11688 210.769969 
L 201.799293 212.074431 
L 203.481705 213.162899 
L 205.164117 214.063522 
L 206.846529 214.802513 
L 210.211353 215.889141 
L 213.576177 216.585734 
L 216.941001 217.017235 
L 221.988237 217.357643 
L 228.717886 217.504055 
L 235.447534 217.438113 
L 240.49477 217.202988 
L 243.859594 216.881839 
L 247.224418 216.338252 
L 250.589242 215.451467 
L 252.271654 214.828691 
L 253.954066 214.052561 
L 255.636478 213.093251 
L 257.318891 211.917286 
L 259.001303 210.487661 
L 260.683715 208.76414 
L 262.366127 206.703757 
L 264.048539 204.261552 
L 265.730951 201.391558 
L 267.413363 198.048057 
L 269.095775 194.1871 
L 270.778187 189.768272 
L 272.460599 184.756673 
L 274.143011 179.125061 
L 275.825423 172.85609 
L 277.507835 165.944541 
L 279.190247 158.399462 
L 280.872659 150.246079 
L 284.237484 132.305159 
L 287.602308 112.694345 
L 294.331956 72.219223 
L 297.69678 53.789775 
L 299.379192 45.609964 
L 301.061604 38.334872 
L 302.744016 32.1108 
L 304.426428 27.066321 
L 306.10884 23.307869 
L 307.791252 20.916006 
L 309.473664 19.942551 
L 311.156076 20.408716 
L 312.838489 22.304334 
L 314.520901 25.588232 
L 316.203313 30.189711 
L 317.885725 36.011085 
L 319.568137 42.931121 
L 321.250549 50.809237 
L 322.932961 59.490243 
L 326.297785 78.597551 
L 334.709845 128.94467 
L 338.074669 147.230663 
L 339.757082 155.589435 
L 341.439494 163.352975 
L 343.121906 170.489951 
L 344.804318 176.985809 
L 346.48673 182.840969 
L 348.169142 188.068748 
L 349.851554 192.693153 
L 351.533966 196.746632 
L 353.216378 200.267891 
L 354.89879 203.299846 
L 356.581202 205.887777 
L 358.263614 208.077722 
L 359.946026 209.915125 
L 361.628438 211.443757 
L 363.31085 212.704892 
L 364.993262 213.736726 
L 366.675674 214.574013 
L 368.358087 215.247889 
L 371.722911 216.211844 
L 375.087735 216.807231 
L 378.452559 217.163418 
L 383.499795 217.436389 
L 388.547031 217.548959 
L 388.547031 217.548959 
" style="fill:none;stroke:#4c72b0;stroke-linecap:round;stroke-width:1.5;"/>
   </g>
   <g id="line2d_17">
    <defs>
     <path d="M 0 3 
C 0.795609 3 1.55874 2.683901 2.12132 2.12132 
C 2.683901 1.55874 3 0.795609 3 0 
C 3 -0.795609 2.683901 -1.55874 2.12132 -2.12132 
C 1.55874 -2.683901 0.795609 -3 0 -3 
C -0.795609 -3 -1.55874 -2.683901 -2.12132 -2.12132 
C -2.683901 -1.55874 -3 -0.795609 -3 0 
C -3 0.795609 -2.683901 1.55874 -2.12132 2.12132 
C -1.55874 2.683901 -0.795609 3 0 3 
z
" id="m9f11fcc029" style="stroke:#c44e52;"/>
    </defs>
    <g clip-path="url(#p9da1b74f61)">
     <use style="fill:#c44e52;stroke:#c44e52;" x="246.749384" xlink:href="#m9f11fcc029" y="217.615278"/>
    </g>
   </g>
   <g id="patch_3">
    <path d="M 53.747031 227.498914 
L 53.747031 10.058914 
" style="fill:none;stroke:#262626;stroke-linecap:square;stroke-linejoin:miter;stroke-width:1.25;"/>
   </g>
   <g id="patch_4">
    <path d="M 388.547031 227.498914 
L 388.547031 10.058914 
" style="fill:none;stroke:#262626;stroke-linecap:square;stroke-linejoin:miter;stroke-width:1.25;"/>
   </g>
   <g id="patch_5">
    <path d="M 53.747031 227.498914 
L 388.547031 227.498914 
" style="fill:none;stroke:#262626;stroke-linecap:square;stroke-linejoin:miter;stroke-width:1.25;"/>
   </g>
   <g id="patch_6">
    <path d="M 53.747031 10.058914 
L 388.547031 10.058914 
" style="fill:none;stroke:#262626;stroke-linecap:square;stroke-linejoin:miter;stroke-width:1.25;"/>
   </g>
   <g id="legend_1">
    <g id="patch_7">
     <path d="M 61.447031 49.978602 
L 142.737031 49.978602 
Q 144.937031 49.978602 144.937031 47.778602 
L 144.937031 17.758914 
Q 144.937031 15.558914 142.737031 15.558914 
L 61.447031 15.558914 
Q 59.247031 15.558914 59.247031 17.758914 
L 59.247031 47.778602 
Q 59.247031 49.978602 61.447031 49.978602 
z
" style="fill:#ffffff;opacity:0.8;stroke:#cccccc;stroke-linejoin:miter;"/>
    </g>
    <g id="line2d_18">
     <path d="M 63.647031 23.982508 
L 85.647031 23.982508 
" style="fill:none;stroke:#4c72b0;stroke-linecap:round;stroke-width:1.5;"/>
    </g>
    <g id="line2d_19"/>
    <g id="text_18">
     <!-- PMF of $X$ -->
     <g style="fill:#262626;" transform="translate(94.447031 27.832508)scale(0.11 -0.11)">
      <defs>
       <path d="M 7.71875 0 
L 7.71875 71.578125 
L 34.71875 71.578125 
Q 41.84375 71.578125 45.609375 70.90625 
Q 50.875 70.015625 54.4375 67.546875 
Q 58.015625 65.09375 60.1875 60.640625 
Q 62.359375 56.203125 62.359375 50.875 
Q 62.359375 41.75 56.546875 35.421875 
Q 50.734375 29.109375 35.546875 29.109375 
L 17.1875 29.109375 
L 17.1875 0 
z
M 17.1875 37.546875 
L 35.6875 37.546875 
Q 44.875 37.546875 48.734375 40.96875 
Q 52.59375 44.390625 52.59375 50.59375 
Q 52.59375 55.078125 50.3125 58.265625 
Q 48.046875 61.46875 44.34375 62.5 
Q 41.9375 63.140625 35.5 63.140625 
L 17.1875 63.140625 
z
" id="ArialMT-80"/>
       <path d="M 7.421875 0 
L 7.421875 71.578125 
L 21.6875 71.578125 
L 38.625 20.90625 
Q 40.96875 13.8125 42.046875 10.296875 
Q 43.265625 14.203125 45.84375 21.78125 
L 62.984375 71.578125 
L 75.734375 71.578125 
L 75.734375 0 
L 66.609375 0 
L 66.609375 59.90625 
L 45.796875 0 
L 37.25 0 
L 16.546875 60.9375 
L 16.546875 0 
z
" id="ArialMT-77"/>
       <path d="M 8.203125 0 
L 8.203125 71.578125 
L 56.5 71.578125 
L 56.5 63.140625 
L 17.671875 63.140625 
L 17.671875 40.96875 
L 51.265625 40.96875 
L 51.265625 32.515625 
L 17.671875 32.515625 
L 17.671875 0 
z
" id="ArialMT-70"/>
       <path id="ArialMT-32"/>
       <path d="M 3.328125 25.921875 
Q 3.328125 40.328125 11.328125 47.265625 
Q 18.015625 53.03125 27.640625 53.03125 
Q 38.328125 53.03125 45.109375 46.015625 
Q 51.90625 39.015625 51.90625 26.65625 
Q 51.90625 16.65625 48.90625 10.90625 
Q 45.90625 5.171875 40.15625 2 
Q 34.421875 -1.171875 27.640625 -1.171875 
Q 16.75 -1.171875 10.03125 5.8125 
Q 3.328125 12.796875 3.328125 25.921875 
z
M 12.359375 25.921875 
Q 12.359375 15.96875 16.703125 11.015625 
Q 21.046875 6.0625 27.640625 6.0625 
Q 34.1875 6.0625 38.53125 11.03125 
Q 42.875 16.015625 42.875 26.21875 
Q 42.875 35.84375 38.5 40.796875 
Q 34.125 45.75 27.640625 45.75 
Q 21.046875 45.75 16.703125 40.8125 
Q 12.359375 35.890625 12.359375 25.921875 
z
" id="ArialMT-111"/>
       <path d="M 8.6875 0 
L 8.6875 45.015625 
L 0.921875 45.015625 
L 0.921875 51.859375 
L 8.6875 51.859375 
L 8.6875 57.375 
Q 8.6875 62.59375 9.625 65.140625 
Q 10.890625 68.5625 14.078125 70.671875 
Q 17.28125 72.796875 23.046875 72.796875 
Q 26.765625 72.796875 31.25 71.921875 
L 29.9375 64.265625 
Q 27.203125 64.75 24.75 64.75 
Q 20.75 64.75 19.09375 63.03125 
Q 17.4375 61.328125 17.4375 56.640625 
L 17.4375 51.859375 
L 27.546875 51.859375 
L 27.546875 45.015625 
L 17.4375 45.015625 
L 17.4375 0 
z
" id="ArialMT-102"/>
       <path d="M 13.71875 72.90625 
L 23.6875 72.90625 
L 36.1875 46.578125 
L 58.796875 72.90625 
L 70.3125 72.90625 
L 40.28125 38.09375 
L 58.40625 0 
L 48.484375 0 
L 33.796875 30.71875 
L 7.171875 0 
L -4.296875 0 
L 29.78125 39.203125 
z
" id="DejaVuSans-Oblique-88"/>
      </defs>
      <use transform="translate(0 0.09375)" xlink:href="#ArialMT-80"/>
      <use transform="translate(66.699219 0.09375)" xlink:href="#ArialMT-77"/>
      <use transform="translate(150 0.09375)" xlink:href="#ArialMT-70"/>
      <use transform="translate(211.083984 0.09375)" xlink:href="#ArialMT-32"/>
      <use transform="translate(238.867188 0.09375)" xlink:href="#ArialMT-111"/>
      <use transform="translate(294.482422 0.09375)" xlink:href="#ArialMT-102"/>
      <use transform="translate(322.265625 0.09375)" xlink:href="#ArialMT-32"/>
      <use transform="translate(350.048828 0.09375)" xlink:href="#DejaVuSans-Oblique-88"/>
     </g>
    </g>
    <g id="line2d_20"/>
    <g id="line2d_21">
     <g>
      <use style="fill:#c44e52;stroke:#c44e52;" x="74.647031" xlink:href="#m9f11fcc029" y="39.542352"/>
     </g>
    </g>
    <g id="text_19">
     <!-- $\mathbb{E}[X]$ -->
     <g style="fill:#262626;" transform="translate(94.447031 43.392352)scale(0.11 -0.11)">
      <defs>
       <path d="M 66.40625 65.296875 
L 65.5 61.59375 
L 33.59375 61.59375 
L 26.703125 35.40625 
L 54.90625 35.40625 
L 53.796875 31.703125 
L 25.703125 31.703125 
L 18.203125 3.703125 
L 53.796875 3.703125 
L 53 0 
L 1.703125 0 
L 19.203125 65.296875 
z
M 29.90625 61.59375 
L 22.09375 61.59375 
L 6.5 3.703125 
L 14.5 3.703125 
z
" id="STIXNonUnicode-Italic-57686"/>
       <path d="M 8.59375 75.984375 
L 29.296875 75.984375 
L 29.296875 69 
L 17.578125 69 
L 17.578125 -6.203125 
L 29.296875 -6.203125 
L 29.296875 -13.1875 
L 8.59375 -13.1875 
z
" id="DejaVuSans-91"/>
       <path d="M 30.421875 75.984375 
L 30.421875 -13.1875 
L 9.71875 -13.1875 
L 9.71875 -6.203125 
L 21.390625 -6.203125 
L 21.390625 69 
L 9.71875 69 
L 9.71875 75.984375 
z
" id="DejaVuSans-93"/>
      </defs>
      <use transform="translate(0 0.015625)" xlink:href="#STIXNonUnicode-Italic-57686"/>
      <use transform="translate(63.899994 0.015625)" xlink:href="#DejaVuSans-91"/>
      <use transform="translate(102.913666 0.015625)" xlink:href="#DejaVuSans-Oblique-88"/>
      <use transform="translate(171.419525 0.015625)" xlink:href="#DejaVuSans-93"/>
     </g>
    </g>
   </g>
  </g>
 </g>
 <defs>
  <clipPath id="p9da1b74f61">
   <rect height="217.44" width="334.8" x="53.747031" y="10.058914"/>
  </clipPath>
 </defs>
</svg>