<?xml version="1.0" encoding="utf-8" standalone="no"?>
<!DOCTYPE svg PUBLIC "-//W3C//DTD SVG 1.1//EN"
  "http://www.w3.org/Graphics/SVG/1.1/DTD/svg11.dtd">
<!-- Created with matplotlib (https://matplotlib.org/) -->
<svg height="266.374219pt" version="1.1" viewBox="0 0 402.582207 266.374219" width="402.582207pt" xmlns="http://www.w3.org/2000/svg" xmlns:xlink="http://www.w3.org/1999/xlink">
 <metadata>
  <rdf:RDF xmlns:cc="http://creativecommons.org/ns#" xmlns:dc="http://purl.org/dc/elements/1.1/" xmlns:rdf="http://www.w3.org/1999/02/22-rdf-syntax-ns#">
   <cc:Work>
    <dc:type rdf:resource="http://purl.org/dc/dcmitype/StillImage"/>
    <dc:date>2021-08-03T16:49:40.741552</dc:date>
    <dc:format>image/svg+xml</dc:format>
    <dc:creator>
     <cc:Agent>
      <dc:title>Matplotlib v3.3.4, https://matplotlib.org/</dc:title>
     </cc:Agent>
    </dc:creator>
   </cc:Work>
  </rdf:RDF>
 </metadata>
 <defs>
  <style type="text/css">*{stroke-linecap:butt;stroke-linejoin:round;}</style>
 </defs>
 <g id="figure_1">
  <g id="patch_1">
   <path d="M 0 266.374219 
L 402.582207 266.374219 
L 402.582207 0 
L 0 0 
z
" style="fill:#ffffff;"/>
  </g>
  <g id="axes_1">
   <g id="patch_2">
    <path d="M 56.450156 224.64 
L 391.250156 224.64 
L 391.250156 7.2 
L 56.450156 7.2 
z
" style="fill:#ffffff;"/>
   </g>
   <g id="matplotlib.axis_1">
    <g id="xtick_1">
     <g id="line2d_1">
      <defs>
       <path d="M 0 0 
L 0 6 
" id="m71c2dd06fd" style="stroke:#262626;stroke-width:1.25;"/>
      </defs>
      <g>
       <use style="fill:#262626;stroke:#262626;stroke-width:1.25;" x="58.435136" xlink:href="#m71c2dd06fd" y="224.64"/>
      </g>
     </g>
     <g id="text_1">
      <!-- 0 -->
      <g style="fill:#262626;" transform="translate(55.376621 242.013594)scale(0.11 -0.11)">
       <defs>
        <path d="M 4.15625 35.296875 
Q 4.15625 48 6.765625 55.734375 
Q 9.375 63.484375 14.515625 67.671875 
Q 19.671875 71.875 27.484375 71.875 
Q 33.25 71.875 37.59375 69.546875 
Q 41.9375 67.234375 44.765625 62.859375 
Q 47.609375 58.5 49.21875 52.21875 
Q 50.828125 45.953125 50.828125 35.296875 
Q 50.828125 22.703125 48.234375 14.96875 
Q 45.65625 7.234375 40.5 3 
Q 35.359375 -1.21875 27.484375 -1.21875 
Q 17.140625 -1.21875 11.234375 6.203125 
Q 4.15625 15.140625 4.15625 35.296875 
z
M 13.1875 35.296875 
Q 13.1875 17.671875 17.3125 11.828125 
Q 21.4375 6 27.484375 6 
Q 33.546875 6 37.671875 11.859375 
Q 41.796875 17.71875 41.796875 35.296875 
Q 41.796875 52.984375 37.671875 58.78125 
Q 33.546875 64.59375 27.390625 64.59375 
Q 21.34375 64.59375 17.71875 59.46875 
Q 13.1875 52.9375 13.1875 35.296875 
z
" id="ArialMT-48"/>
       </defs>
       <use xlink:href="#ArialMT-48"/>
      </g>
     </g>
    </g>
    <g id="xtick_2">
     <g id="line2d_2">
      <g>
       <use style="fill:#262626;stroke:#262626;stroke-width:1.25;" x="113.573476" xlink:href="#m71c2dd06fd" y="224.64"/>
      </g>
     </g>
     <g id="text_2">
      <!-- 10 -->
      <g style="fill:#262626;" transform="translate(107.456445 242.013594)scale(0.11 -0.11)">
       <defs>
        <path d="M 37.25 0 
L 28.46875 0 
L 28.46875 56 
Q 25.296875 52.984375 20.140625 49.953125 
Q 14.984375 46.921875 10.890625 45.40625 
L 10.890625 53.90625 
Q 18.265625 57.375 23.78125 62.296875 
Q 29.296875 67.234375 31.59375 71.875 
L 37.25 71.875 
z
" id="ArialMT-49"/>
       </defs>
       <use xlink:href="#ArialMT-49"/>
       <use x="55.615234" xlink:href="#ArialMT-48"/>
      </g>
     </g>
    </g>
    <g id="xtick_3">
     <g id="line2d_3">
      <g>
       <use style="fill:#262626;stroke:#262626;stroke-width:1.25;" x="168.711816" xlink:href="#m71c2dd06fd" y="224.64"/>
      </g>
     </g>
     <g id="text_3">
      <!-- 20 -->
      <g style="fill:#262626;" transform="translate(162.594785 242.013594)scale(0.11 -0.11)">
       <defs>
        <path d="M 50.34375 8.453125 
L 50.34375 0 
L 3.03125 0 
Q 2.9375 3.171875 4.046875 6.109375 
Q 5.859375 10.9375 9.828125 15.625 
Q 13.8125 20.3125 21.34375 26.46875 
Q 33.015625 36.03125 37.109375 41.625 
Q 41.21875 47.21875 41.21875 52.203125 
Q 41.21875 57.421875 37.46875 61 
Q 33.734375 64.59375 27.734375 64.59375 
Q 21.390625 64.59375 17.578125 60.78125 
Q 13.765625 56.984375 13.71875 50.25 
L 4.6875 51.171875 
Q 5.609375 61.28125 11.65625 66.578125 
Q 17.71875 71.875 27.9375 71.875 
Q 38.234375 71.875 44.234375 66.15625 
Q 50.25 60.453125 50.25 52 
Q 50.25 47.703125 48.484375 43.546875 
Q 46.734375 39.40625 42.65625 34.8125 
Q 38.578125 30.21875 29.109375 22.21875 
Q 21.1875 15.578125 18.9375 13.203125 
Q 16.703125 10.84375 15.234375 8.453125 
z
" id="ArialMT-50"/>
       </defs>
       <use xlink:href="#ArialMT-50"/>
       <use x="55.615234" xlink:href="#ArialMT-48"/>
      </g>
     </g>
    </g>
    <g id="xtick_4">
     <g id="line2d_4">
      <g>
       <use style="fill:#262626;stroke:#262626;stroke-width:1.25;" x="223.850156" xlink:href="#m71c2dd06fd" y="224.64"/>
      </g>
     </g>
     <g id="text_4">
      <!-- 30 -->
      <g style="fill:#262626;" transform="translate(217.733125 242.013594)scale(0.11 -0.11)">
       <defs>
        <path d="M 4.203125 18.890625 
L 12.984375 20.0625 
Q 14.5 12.59375 18.140625 9.296875 
Q 21.78125 6 27 6 
Q 33.203125 6 37.46875 10.296875 
Q 41.75 14.59375 41.75 20.953125 
Q 41.75 27 37.796875 30.921875 
Q 33.84375 34.859375 27.734375 34.859375 
Q 25.25 34.859375 21.53125 33.890625 
L 22.515625 41.609375 
Q 23.390625 41.5 23.921875 41.5 
Q 29.546875 41.5 34.03125 44.421875 
Q 38.53125 47.359375 38.53125 53.46875 
Q 38.53125 58.296875 35.25 61.46875 
Q 31.984375 64.65625 26.8125 64.65625 
Q 21.6875 64.65625 18.265625 61.421875 
Q 14.84375 58.203125 13.875 51.765625 
L 5.078125 53.328125 
Q 6.6875 62.15625 12.390625 67.015625 
Q 18.109375 71.875 26.609375 71.875 
Q 32.46875 71.875 37.390625 69.359375 
Q 42.328125 66.84375 44.9375 62.5 
Q 47.5625 58.15625 47.5625 53.265625 
Q 47.5625 48.640625 45.0625 44.828125 
Q 42.578125 41.015625 37.703125 38.765625 
Q 44.046875 37.3125 47.5625 32.6875 
Q 51.078125 28.078125 51.078125 21.140625 
Q 51.078125 11.765625 44.234375 5.25 
Q 37.40625 -1.265625 26.953125 -1.265625 
Q 17.53125 -1.265625 11.296875 4.34375 
Q 5.078125 9.96875 4.203125 18.890625 
z
" id="ArialMT-51"/>
       </defs>
       <use xlink:href="#ArialMT-51"/>
       <use x="55.615234" xlink:href="#ArialMT-48"/>
      </g>
     </g>
    </g>
    <g id="xtick_5">
     <g id="line2d_5">
      <g>
       <use style="fill:#262626;stroke:#262626;stroke-width:1.25;" x="278.988496" xlink:href="#m71c2dd06fd" y="224.64"/>
      </g>
     </g>
     <g id="text_5">
      <!-- 40 -->
      <g style="fill:#262626;" transform="translate(272.871465 242.013594)scale(0.11 -0.11)">
       <defs>
        <path d="M 32.328125 0 
L 32.328125 17.140625 
L 1.265625 17.140625 
L 1.265625 25.203125 
L 33.9375 71.578125 
L 41.109375 71.578125 
L 41.109375 25.203125 
L 50.78125 25.203125 
L 50.78125 17.140625 
L 41.109375 17.140625 
L 41.109375 0 
z
M 32.328125 25.203125 
L 32.328125 57.46875 
L 9.90625 25.203125 
z
" id="ArialMT-52"/>
       </defs>
       <use xlink:href="#ArialMT-52"/>
       <use x="55.615234" xlink:href="#ArialMT-48"/>
      </g>
     </g>
    </g>
    <g id="xtick_6">
     <g id="line2d_6">
      <g>
       <use style="fill:#262626;stroke:#262626;stroke-width:1.25;" x="334.126836" xlink:href="#m71c2dd06fd" y="224.64"/>
      </g>
     </g>
     <g id="text_6">
      <!-- 50 -->
      <g style="fill:#262626;" transform="translate(328.009805 242.013594)scale(0.11 -0.11)">
       <defs>
        <path d="M 4.15625 18.75 
L 13.375 19.53125 
Q 14.40625 12.796875 18.140625 9.390625 
Q 21.875 6 27.15625 6 
Q 33.5 6 37.890625 10.78125 
Q 42.28125 15.578125 42.28125 23.484375 
Q 42.28125 31 38.0625 35.34375 
Q 33.84375 39.703125 27 39.703125 
Q 22.75 39.703125 19.328125 37.765625 
Q 15.921875 35.84375 13.96875 32.765625 
L 5.71875 33.84375 
L 12.640625 70.609375 
L 48.25 70.609375 
L 48.25 62.203125 
L 19.671875 62.203125 
L 15.828125 42.96875 
Q 22.265625 47.46875 29.34375 47.46875 
Q 38.71875 47.46875 45.15625 40.96875 
Q 51.609375 34.46875 51.609375 24.265625 
Q 51.609375 14.546875 45.953125 7.46875 
Q 39.0625 -1.21875 27.15625 -1.21875 
Q 17.390625 -1.21875 11.203125 4.25 
Q 5.03125 9.71875 4.15625 18.75 
z
" id="ArialMT-53"/>
       </defs>
       <use xlink:href="#ArialMT-53"/>
       <use x="55.615234" xlink:href="#ArialMT-48"/>
      </g>
     </g>
    </g>
    <g id="xtick_7">
     <g id="line2d_7">
      <g>
       <use style="fill:#262626;stroke:#262626;stroke-width:1.25;" x="389.265176" xlink:href="#m71c2dd06fd" y="224.64"/>
      </g>
     </g>
     <g id="text_7">
      <!-- 60 -->
      <g style="fill:#262626;" transform="translate(383.148145 242.013594)scale(0.11 -0.11)">
       <defs>
        <path d="M 49.75 54.046875 
L 41.015625 53.375 
Q 39.84375 58.546875 37.703125 60.890625 
Q 34.125 64.65625 28.90625 64.65625 
Q 24.703125 64.65625 21.53125 62.3125 
Q 17.390625 59.28125 14.984375 53.46875 
Q 12.59375 47.65625 12.5 36.921875 
Q 15.671875 41.75 20.265625 44.09375 
Q 24.859375 46.4375 29.890625 46.4375 
Q 38.671875 46.4375 44.84375 39.96875 
Q 51.03125 33.5 51.03125 23.25 
Q 51.03125 16.5 48.125 10.71875 
Q 45.21875 4.9375 40.140625 1.859375 
Q 35.0625 -1.21875 28.609375 -1.21875 
Q 17.625 -1.21875 10.6875 6.859375 
Q 3.765625 14.9375 3.765625 33.5 
Q 3.765625 54.25 11.421875 63.671875 
Q 18.109375 71.875 29.4375 71.875 
Q 37.890625 71.875 43.28125 67.140625 
Q 48.6875 62.40625 49.75 54.046875 
z
M 13.875 23.1875 
Q 13.875 18.65625 15.796875 14.5 
Q 17.71875 10.359375 21.1875 8.171875 
Q 24.65625 6 28.46875 6 
Q 34.03125 6 38.03125 10.484375 
Q 42.046875 14.984375 42.046875 22.703125 
Q 42.046875 30.125 38.078125 34.390625 
Q 34.125 38.671875 28.125 38.671875 
Q 22.171875 38.671875 18.015625 34.390625 
Q 13.875 30.125 13.875 23.1875 
z
" id="ArialMT-54"/>
       </defs>
       <use xlink:href="#ArialMT-54"/>
       <use x="55.615234" xlink:href="#ArialMT-48"/>
      </g>
     </g>
    </g>
    <g id="text_8">
     <!-- $x$ -->
     <g style="fill:#262626;" transform="translate(220.250156 256.789219)scale(0.12 -0.12)">
      <defs>
       <path d="M 60.015625 54.6875 
L 34.90625 27.875 
L 50.296875 0 
L 39.984375 0 
L 28.421875 21.6875 
L 8.296875 0 
L -2.59375 0 
L 24.3125 28.8125 
L 10.015625 54.6875 
L 20.3125 54.6875 
L 30.8125 34.90625 
L 49.125 54.6875 
z
" id="DejaVuSans-Oblique-120"/>
      </defs>
      <use transform="translate(0 0.3125)" xlink:href="#DejaVuSans-Oblique-120"/>
     </g>
    </g>
   </g>
   <g id="matplotlib.axis_2">
    <g id="ytick_1">
     <g id="line2d_8">
      <defs>
       <path d="M 0 0 
L -6 0 
" id="m7cf5ee4ccf" style="stroke:#262626;stroke-width:1.25;"/>
      </defs>
      <g>
       <use style="fill:#262626;stroke:#262626;stroke-width:1.25;" x="56.450156" xlink:href="#m7cf5ee4ccf" y="182.599078"/>
      </g>
     </g>
     <g id="text_9">
      <!-- −100 -->
      <g style="fill:#262626;" transform="translate(22.174375 186.535875)scale(0.11 -0.11)">
       <defs>
        <path d="M 52.828125 31.203125 
L 5.5625 31.203125 
L 5.5625 39.40625 
L 52.828125 39.40625 
z
" id="ArialMT-8722"/>
       </defs>
       <use xlink:href="#ArialMT-8722"/>
       <use x="58.398438" xlink:href="#ArialMT-49"/>
       <use x="114.013672" xlink:href="#ArialMT-48"/>
       <use x="169.628906" xlink:href="#ArialMT-48"/>
      </g>
     </g>
    </g>
    <g id="ytick_2">
     <g id="line2d_9">
      <g>
       <use style="fill:#262626;stroke:#262626;stroke-width:1.25;" x="56.450156" xlink:href="#m7cf5ee4ccf" y="135.308952"/>
      </g>
     </g>
     <g id="text_10">
      <!-- −50 -->
      <g style="fill:#262626;" transform="translate(28.291406 139.245749)scale(0.11 -0.11)">
       <use xlink:href="#ArialMT-8722"/>
       <use x="58.398438" xlink:href="#ArialMT-53"/>
       <use x="114.013672" xlink:href="#ArialMT-48"/>
      </g>
     </g>
    </g>
    <g id="ytick_3">
     <g id="line2d_10">
      <g>
       <use style="fill:#262626;stroke:#262626;stroke-width:1.25;" x="56.450156" xlink:href="#m7cf5ee4ccf" y="88.018826"/>
      </g>
     </g>
     <g id="text_11">
      <!-- 0 -->
      <g style="fill:#262626;" transform="translate(40.833125 91.955622)scale(0.11 -0.11)">
       <use xlink:href="#ArialMT-48"/>
      </g>
     </g>
    </g>
    <g id="ytick_4">
     <g id="line2d_11">
      <g>
       <use style="fill:#262626;stroke:#262626;stroke-width:1.25;" x="56.450156" xlink:href="#m7cf5ee4ccf" y="40.728699"/>
      </g>
     </g>
     <g id="text_12">
      <!-- 50 -->
      <g style="fill:#262626;" transform="translate(34.716094 44.665496)scale(0.11 -0.11)">
       <use xlink:href="#ArialMT-53"/>
       <use x="55.615234" xlink:href="#ArialMT-48"/>
      </g>
     </g>
    </g>
    <g id="text_13">
     <!-- $y$ -->
     <g style="fill:#262626;" transform="translate(15.654375 119.52)rotate(-90)scale(0.12 -0.12)">
      <defs>
       <path d="M 24.8125 -5.078125 
Q 18.5625 -15.578125 14.625 -18.1875 
Q 10.6875 -20.796875 4.59375 -20.796875 
L -2.484375 -20.796875 
L -0.984375 -13.28125 
L 4.203125 -13.28125 
Q 7.953125 -13.28125 10.59375 -11.234375 
Q 13.234375 -9.1875 16.5 -3.21875 
L 19.28125 2 
L 7.171875 54.6875 
L 16.703125 54.6875 
L 25.78125 12.796875 
L 50.875 54.6875 
L 60.296875 54.6875 
z
" id="DejaVuSans-Oblique-121"/>
      </defs>
      <use transform="translate(0 0.3125)" xlink:href="#DejaVuSans-Oblique-121"/>
     </g>
    </g>
   </g>
   <g id="line2d_12">
    <defs>
     <path d="M -3 3 
L 3 -3 
M -3 -3 
L 3 3 
" id="mceb9ee74ce" style="stroke:#4c72b0;stroke-width:2;"/>
    </defs>
    <g clip-path="url(#pb2580536fe)">
     <use style="fill:#4c72b0;stroke:#4c72b0;stroke-width:2;" x="71.668338" xlink:href="#mceb9ee74ce" y="88.018826"/>
     <use style="fill:#4c72b0;stroke:#4c72b0;stroke-width:2;" x="72.771105" xlink:href="#mceb9ee74ce" y="89.248369"/>
     <use style="fill:#4c72b0;stroke:#4c72b0;stroke-width:2;" x="76.079405" xlink:href="#mceb9ee74ce" y="90.572492"/>
     <use style="fill:#4c72b0;stroke:#4c72b0;stroke-width:2;" x="78.284939" xlink:href="#mceb9ee74ce" y="88.018826"/>
     <use style="fill:#4c72b0;stroke:#4c72b0;stroke-width:2;" x="80.490472" xlink:href="#mceb9ee74ce" y="90.572492"/>
     <use style="fill:#4c72b0;stroke:#4c72b0;stroke-width:2;" x="92.620907" xlink:href="#mceb9ee74ce" y="90.572492"/>
     <use style="fill:#4c72b0;stroke:#4c72b0;stroke-width:2;" x="94.826441" xlink:href="#mceb9ee74ce" y="90.572492"/>
     <use style="fill:#4c72b0;stroke:#4c72b0;stroke-width:2;" x="95.929208" xlink:href="#mceb9ee74ce" y="89.248369"/>
     <use style="fill:#4c72b0;stroke:#4c72b0;stroke-width:2;" x="101.443042" xlink:href="#mceb9ee74ce" y="90.572492"/>
     <use style="fill:#4c72b0;stroke:#4c72b0;stroke-width:2;" x="103.648575" xlink:href="#mceb9ee74ce" y="90.572492"/>
     <use style="fill:#4c72b0;stroke:#4c72b0;stroke-width:2;" x="106.956876" xlink:href="#mceb9ee74ce" y="89.248369"/>
     <use style="fill:#4c72b0;stroke:#4c72b0;stroke-width:2;" x="111.367943" xlink:href="#mceb9ee74ce" y="90.572492"/>
     <use style="fill:#4c72b0;stroke:#4c72b0;stroke-width:2;" x="113.573476" xlink:href="#mceb9ee74ce" y="90.572492"/>
     <use style="fill:#4c72b0;stroke:#4c72b0;stroke-width:2;" x="114.676243" xlink:href="#mceb9ee74ce" y="93.126159"/>
     <use style="fill:#4c72b0;stroke:#4c72b0;stroke-width:2;" x="116.881777" xlink:href="#mceb9ee74ce" y="90.572492"/>
     <use style="fill:#4c72b0;stroke:#4c72b0;stroke-width:2;" x="119.08731" xlink:href="#mceb9ee74ce" y="93.126159"/>
     <use style="fill:#4c72b0;stroke:#4c72b0;stroke-width:2;" x="121.292844" xlink:href="#mceb9ee74ce" y="88.018826"/>
     <use style="fill:#4c72b0;stroke:#4c72b0;stroke-width:2;" x="131.217745" xlink:href="#mceb9ee74ce" y="90.572492"/>
     <use style="fill:#4c72b0;stroke:#4c72b0;stroke-width:2;" x="133.423279" xlink:href="#mceb9ee74ce" y="90.572492"/>
     <use style="fill:#4c72b0;stroke:#4c72b0;stroke-width:2;" x="134.526046" xlink:href="#mceb9ee74ce" y="88.018826"/>
     <use style="fill:#4c72b0;stroke:#4c72b0;stroke-width:2;" x="138.937113" xlink:href="#mceb9ee74ce" y="100.597999"/>
     <use style="fill:#4c72b0;stroke:#4c72b0;stroke-width:2;" x="140.03988" xlink:href="#mceb9ee74ce" y="90.572492"/>
     <use style="fill:#4c72b0;stroke:#4c72b0;stroke-width:2;" x="143.34818" xlink:href="#mceb9ee74ce" y="109.583123"/>
     <use style="fill:#4c72b0;stroke:#4c72b0;stroke-width:2;" x="144.450947" xlink:href="#mceb9ee74ce" y="126.040087"/>
     <use style="fill:#4c72b0;stroke:#4c72b0;stroke-width:2;" x="145.553714" xlink:href="#mceb9ee74ce" y="108.35358"/>
     <use style="fill:#4c72b0;stroke:#4c72b0;stroke-width:2;" x="146.65648" xlink:href="#mceb9ee74ce" y="128.593754"/>
     <use style="fill:#4c72b0;stroke:#4c72b0;stroke-width:2;" x="147.759247" xlink:href="#mceb9ee74ce" y="108.35358"/>
     <use style="fill:#4c72b0;stroke:#4c72b0;stroke-width:2;" x="148.862014" xlink:href="#mceb9ee74ce" y="93.126159"/>
     <use style="fill:#4c72b0;stroke:#4c72b0;stroke-width:2;" x="149.964781" xlink:href="#mceb9ee74ce" y="143.821174"/>
     <use style="fill:#4c72b0;stroke:#4c72b0;stroke-width:2;" x="151.067548" xlink:href="#mceb9ee74ce" y="155.170805"/>
     <use style="fill:#4c72b0;stroke:#4c72b0;stroke-width:2;" x="155.478615" xlink:href="#mceb9ee74ce" y="123.48642"/>
     <use style="fill:#4c72b0;stroke:#4c72b0;stroke-width:2;" x="156.581382" xlink:href="#mceb9ee74ce" y="181.747856"/>
     <use style="fill:#4c72b0;stroke:#4c72b0;stroke-width:2;" x="160.992449" xlink:href="#mceb9ee74ce" y="194.421609"/>
     <use style="fill:#4c72b0;stroke:#4c72b0;stroke-width:2;" x="164.300749" xlink:href="#mceb9ee74ce" y="204.447116"/>
     <use style="fill:#4c72b0;stroke:#4c72b0;stroke-width:2;" x="165.403516" xlink:href="#mceb9ee74ce" y="168.979522"/>
     <use style="fill:#4c72b0;stroke:#4c72b0;stroke-width:2;" x="166.506283" xlink:href="#mceb9ee74ce" y="208.324906"/>
     <use style="fill:#4c72b0;stroke:#4c72b0;stroke-width:2;" x="169.814583" xlink:href="#mceb9ee74ce" y="204.447116"/>
     <use style="fill:#4c72b0;stroke:#4c72b0;stroke-width:2;" x="170.91735" xlink:href="#mceb9ee74ce" y="199.528943"/>
     <use style="fill:#4c72b0;stroke:#4c72b0;stroke-width:2;" x="175.328417" xlink:href="#mceb9ee74ce" y="214.756364"/>
     <use style="fill:#4c72b0;stroke:#4c72b0;stroke-width:2;" x="176.431184" xlink:href="#mceb9ee74ce" y="184.396103"/>
     <use style="fill:#4c72b0;stroke:#4c72b0;stroke-width:2;" x="178.636718" xlink:href="#mceb9ee74ce" y="190.543819"/>
     <use style="fill:#4c72b0;stroke:#4c72b0;stroke-width:2;" x="179.739484" xlink:href="#mceb9ee74ce" y="204.447116"/>
     <use style="fill:#4c72b0;stroke:#4c72b0;stroke-width:2;" x="186.356085" xlink:href="#mceb9ee74ce" y="204.447116"/>
     <use style="fill:#4c72b0;stroke:#4c72b0;stroke-width:2;" x="187.458852" xlink:href="#mceb9ee74ce" y="209.55445"/>
     <use style="fill:#4c72b0;stroke:#4c72b0;stroke-width:2;" x="190.767152" xlink:href="#mceb9ee74ce" y="194.421609"/>
     <use style="fill:#4c72b0;stroke:#4c72b0;stroke-width:2;" x="191.869919" xlink:href="#mceb9ee74ce" y="177.964645"/>
     <use style="fill:#4c72b0;stroke:#4c72b0;stroke-width:2;" x="194.075453" xlink:href="#mceb9ee74ce" y="138.619261"/>
     <use style="fill:#4c72b0;stroke:#4c72b0;stroke-width:2;" x="196.280986" xlink:href="#mceb9ee74ce" y="148.928508"/>
     <use style="fill:#4c72b0;stroke:#4c72b0;stroke-width:2;" x="198.48652" xlink:href="#mceb9ee74ce" y="156.400348"/>
     <use style="fill:#4c72b0;stroke:#4c72b0;stroke-width:2;" x="199.589287" xlink:href="#mceb9ee74ce" y="113.366333"/>
     <use style="fill:#4c72b0;stroke:#4c72b0;stroke-width:2;" x="201.79482" xlink:href="#mceb9ee74ce" y="93.126159"/>
     <use style="fill:#4c72b0;stroke:#4c72b0;stroke-width:2;" x="202.897587" xlink:href="#mceb9ee74ce" y="189.314276"/>
     <use style="fill:#4c72b0;stroke:#4c72b0;stroke-width:2;" x="204.000354" xlink:href="#mceb9ee74ce" y="150.063471"/>
     <use style="fill:#4c72b0;stroke:#4c72b0;stroke-width:2;" x="207.308654" xlink:href="#mceb9ee74ce" y="103.151666"/>
     <use style="fill:#4c72b0;stroke:#4c72b0;stroke-width:2;" x="208.411421" xlink:href="#mceb9ee74ce" y="131.147421"/>
     <use style="fill:#4c72b0;stroke:#4c72b0;stroke-width:2;" x="210.616955" xlink:href="#mceb9ee74ce" y="84.235615"/>
     <use style="fill:#4c72b0;stroke:#4c72b0;stroke-width:2;" x="213.925255" xlink:href="#mceb9ee74ce" y="76.669195"/>
     <use style="fill:#4c72b0;stroke:#4c72b0;stroke-width:2;" x="215.028022" xlink:href="#mceb9ee74ce" y="108.35358"/>
     <use style="fill:#4c72b0;stroke:#4c72b0;stroke-width:2;" x="216.130789" xlink:href="#mceb9ee74ce" y="43.660687"/>
     <use style="fill:#4c72b0;stroke:#4c72b0;stroke-width:2;" x="220.541856" xlink:href="#mceb9ee74ce" y="104.475789"/>
     <use style="fill:#4c72b0;stroke:#4c72b0;stroke-width:2;" x="224.952923" xlink:href="#mceb9ee74ce" y="53.780774"/>
     <use style="fill:#4c72b0;stroke:#4c72b0;stroke-width:2;" x="229.36399" xlink:href="#mceb9ee74ce" y="17.083636"/>
     <use style="fill:#4c72b0;stroke:#4c72b0;stroke-width:2;" x="230.466757" xlink:href="#mceb9ee74ce" y="80.357825"/>
     <use style="fill:#4c72b0;stroke:#4c72b0;stroke-width:2;" x="234.877824" xlink:href="#mceb9ee74ce" y="36.094267"/>
     <use style="fill:#4c72b0;stroke:#4c72b0;stroke-width:2;" x="239.288891" xlink:href="#mceb9ee74ce" y="43.660687"/>
     <use style="fill:#4c72b0;stroke:#4c72b0;stroke-width:2;" x="242.597192" xlink:href="#mceb9ee74ce" y="72.885985"/>
     <use style="fill:#4c72b0;stroke:#4c72b0;stroke-width:2;" x="244.802725" xlink:href="#mceb9ee74ce" y="44.890231"/>
     <use style="fill:#4c72b0;stroke:#4c72b0;stroke-width:2;" x="248.111026" xlink:href="#mceb9ee74ce" y="86.789282"/>
     <use style="fill:#4c72b0;stroke:#4c72b0;stroke-width:2;" x="250.316559" xlink:href="#mceb9ee74ce" y="17.083636"/>
     <use style="fill:#4c72b0;stroke:#4c72b0;stroke-width:2;" x="252.522093" xlink:href="#mceb9ee74ce" y="103.151666"/>
     <use style="fill:#4c72b0;stroke:#4c72b0;stroke-width:2;" x="253.62486" xlink:href="#mceb9ee74ce" y="22.19097"/>
     <use style="fill:#4c72b0;stroke:#4c72b0;stroke-width:2;" x="254.727627" xlink:href="#mceb9ee74ce" y="55.104898"/>
     <use style="fill:#4c72b0;stroke:#4c72b0;stroke-width:2;" x="258.035927" xlink:href="#mceb9ee74ce" y="123.48642"/>
     <use style="fill:#4c72b0;stroke:#4c72b0;stroke-width:2;" x="267.960828" xlink:href="#mceb9ee74ce" y="43.660687"/>
     <use style="fill:#4c72b0;stroke:#4c72b0;stroke-width:2;" x="274.577429" xlink:href="#mceb9ee74ce" y="82.911492"/>
     <use style="fill:#4c72b0;stroke:#4c72b0;stroke-width:2;" x="275.680196" xlink:href="#mceb9ee74ce" y="89.248369"/>
     <use style="fill:#4c72b0;stroke:#4c72b0;stroke-width:2;" x="278.988496" xlink:href="#mceb9ee74ce" y="108.35358"/>
     <use style="fill:#4c72b0;stroke:#4c72b0;stroke-width:2;" x="281.19403" xlink:href="#mceb9ee74ce" y="100.597999"/>
     <use style="fill:#4c72b0;stroke:#4c72b0;stroke-width:2;" x="287.810631" xlink:href="#mceb9ee74ce" y="58.888108"/>
     <use style="fill:#4c72b0;stroke:#4c72b0;stroke-width:2;" x="292.221698" xlink:href="#mceb9ee74ce" y="60.212231"/>
     <use style="fill:#4c72b0;stroke:#4c72b0;stroke-width:2;" x="294.427231" xlink:href="#mceb9ee74ce" y="88.018826"/>
     <use style="fill:#4c72b0;stroke:#4c72b0;stroke-width:2;" x="295.529998" xlink:href="#mceb9ee74ce" y="74.115528"/>
     <use style="fill:#4c72b0;stroke:#4c72b0;stroke-width:2;" x="301.043832" xlink:href="#mceb9ee74ce" y="89.248369"/>
     <use style="fill:#4c72b0;stroke:#4c72b0;stroke-width:2;" x="303.249366" xlink:href="#mceb9ee74ce" y="88.018826"/>
     <use style="fill:#4c72b0;stroke:#4c72b0;stroke-width:2;" x="306.557666" xlink:href="#mceb9ee74ce" y="77.898739"/>
     <use style="fill:#4c72b0;stroke:#4c72b0;stroke-width:2;" x="315.379801" xlink:href="#mceb9ee74ce" y="77.898739"/>
     <use style="fill:#4c72b0;stroke:#4c72b0;stroke-width:2;" x="321.996401" xlink:href="#mceb9ee74ce" y="113.366333"/>
     <use style="fill:#4c72b0;stroke:#4c72b0;stroke-width:2;" x="327.510235" xlink:href="#mceb9ee74ce" y="100.597999"/>
     <use style="fill:#4c72b0;stroke:#4c72b0;stroke-width:2;" x="337.435136" xlink:href="#mceb9ee74ce" y="88.018826"/>
     <use style="fill:#4c72b0;stroke:#4c72b0;stroke-width:2;" x="345.154504" xlink:href="#mceb9ee74ce" y="77.898739"/>
     <use style="fill:#4c72b0;stroke:#4c72b0;stroke-width:2;" x="351.771105" xlink:href="#mceb9ee74ce" y="101.922123"/>
     <use style="fill:#4c72b0;stroke:#4c72b0;stroke-width:2;" x="361.696006" xlink:href="#mceb9ee74ce" y="90.572492"/>
     <use style="fill:#4c72b0;stroke:#4c72b0;stroke-width:2;" x="363.90154" xlink:href="#mceb9ee74ce" y="90.572492"/>
     <use style="fill:#4c72b0;stroke:#4c72b0;stroke-width:2;" x="376.031974" xlink:href="#mceb9ee74ce" y="77.898739"/>
    </g>
   </g>
   <g id="patch_3">
    <path d="M 56.450156 224.64 
L 56.450156 7.2 
" style="fill:none;stroke:#262626;stroke-linecap:square;stroke-linejoin:miter;stroke-width:1.25;"/>
   </g>
   <g id="patch_4">
    <path d="M 391.250156 224.64 
L 391.250156 7.2 
" style="fill:none;stroke:#262626;stroke-linecap:square;stroke-linejoin:miter;stroke-width:1.25;"/>
   </g>
   <g id="patch_5">
    <path d="M 56.450156 224.64 
L 391.250156 224.64 
" style="fill:none;stroke:#262626;stroke-linecap:square;stroke-linejoin:miter;stroke-width:1.25;"/>
   </g>
   <g id="patch_6">
    <path d="M 56.450156 7.2 
L 391.250156 7.2 
" style="fill:none;stroke:#262626;stroke-linecap:square;stroke-linejoin:miter;stroke-width:1.25;"/>
   </g>
  </g>
 </g>
 <defs>
  <clipPath id="pb2580536fe">
   <rect height="217.44" width="334.8" x="56.450156" y="7.2"/>
  </clipPath>
 </defs>
</svg>