<?xml version="1.0" encoding="utf-8" standalone="no"?>
<!DOCTYPE svg PUBLIC "-//W3C//DTD SVG 1.1//EN"
  "http://www.w3.org/Graphics/SVG/1.1/DTD/svg11.dtd">
<!-- Created with matplotlib (https://matplotlib.org/) -->
<svg height="266.374219pt" version="1.1" viewBox="0 0 395.747031 266.374219" width="395.747031pt" xmlns="http://www.w3.org/2000/svg" xmlns:xlink="http://www.w3.org/1999/xlink">
 <metadata>
  <rdf:RDF xmlns:cc="http://creativecommons.org/ns#" xmlns:dc="http://purl.org/dc/elements/1.1/" xmlns:rdf="http://www.w3.org/1999/02/22-rdf-syntax-ns#">
   <cc:Work>
    <dc:type rdf:resource="http://purl.org/dc/dcmitype/StillImage"/>
    <dc:date>2021-07-26T18:23:31.429436</dc:date>
    <dc:format>image/svg+xml</dc:format>
    <dc:creator>
     <cc:Agent>
      <dc:title>Matplotlib v3.3.4, https://matplotlib.org/</dc:title>
     </cc:Agent>
    </dc:creator>
   </cc:Work>
  </rdf:RDF>
 </metadata>
 <defs>
  <style type="text/css">*{stroke-linecap:butt;stroke-linejoin:round;}</style>
 </defs>
 <g id="figure_1">
  <g id="patch_1">
   <path d="M 0 266.374219 
L 395.747031 266.374219 
L 395.747031 0 
L 0 0 
z
" style="fill:#ffffff;"/>
  </g>
  <g id="axes_1">
   <g id="patch_2">
    <path d="M 53.747031 224.64 
L 388.547031 224.64 
L 388.547031 7.2 
L 53.747031 7.2 
z
" style="fill:#ffffff;"/>
   </g>
   <g id="matplotlib.axis_1">
    <g id="xtick_1">
     <g id="line2d_1">
      <defs>
       <path d="M 0 0 
L 0 6 
" id="mabf5f32afb" style="stroke:#262626;stroke-width:1.25;"/>
      </defs>
      <g>
       <use style="fill:#262626;stroke:#262626;stroke-width:1.25;" x="68.965213" xlink:href="#mabf5f32afb" y="224.64"/>
      </g>
     </g>
     <g id="text_1">
      <!-- −6 -->
      <g style="fill:#262626;" transform="translate(62.694354 242.013594)scale(0.11 -0.11)">
       <defs>
        <path d="M 52.828125 31.203125 
L 5.5625 31.203125 
L 5.5625 39.40625 
L 52.828125 39.40625 
z
" id="ArialMT-8722"/>
        <path d="M 49.75 54.046875 
L 41.015625 53.375 
Q 39.84375 58.546875 37.703125 60.890625 
Q 34.125 64.65625 28.90625 64.65625 
Q 24.703125 64.65625 21.53125 62.3125 
Q 17.390625 59.28125 14.984375 53.46875 
Q 12.59375 47.65625 12.5 36.921875 
Q 15.671875 41.75 20.265625 44.09375 
Q 24.859375 46.4375 29.890625 46.4375 
Q 38.671875 46.4375 44.84375 39.96875 
Q 51.03125 33.5 51.03125 23.25 
Q 51.03125 16.5 48.125 10.71875 
Q 45.21875 4.9375 40.140625 1.859375 
Q 35.0625 -1.21875 28.609375 -1.21875 
Q 17.625 -1.21875 10.6875 6.859375 
Q 3.765625 14.9375 3.765625 33.5 
Q 3.765625 54.25 11.421875 63.671875 
Q 18.109375 71.875 29.4375 71.875 
Q 37.890625 71.875 43.28125 67.140625 
Q 48.6875 62.40625 49.75 54.046875 
z
M 13.875 23.1875 
Q 13.875 18.65625 15.796875 14.5 
Q 17.71875 10.359375 21.1875 8.171875 
Q 24.65625 6 28.46875 6 
Q 34.03125 6 38.03125 10.484375 
Q 42.046875 14.984375 42.046875 22.703125 
Q 42.046875 30.125 38.078125 34.390625 
Q 34.125 38.671875 28.125 38.671875 
Q 22.171875 38.671875 18.015625 34.390625 
Q 13.875 30.125 13.875 23.1875 
z
" id="ArialMT-54"/>
       </defs>
       <use xlink:href="#ArialMT-8722"/>
       <use x="58.398438" xlink:href="#ArialMT-54"/>
      </g>
     </g>
    </g>
    <g id="xtick_2">
     <g id="line2d_2">
      <g>
       <use style="fill:#262626;stroke:#262626;stroke-width:1.25;" x="119.692486" xlink:href="#mabf5f32afb" y="224.64"/>
      </g>
     </g>
     <g id="text_2">
      <!-- −4 -->
      <g style="fill:#262626;" transform="translate(113.421626 242.013594)scale(0.11 -0.11)">
       <defs>
        <path d="M 32.328125 0 
L 32.328125 17.140625 
L 1.265625 17.140625 
L 1.265625 25.203125 
L 33.9375 71.578125 
L 41.109375 71.578125 
L 41.109375 25.203125 
L 50.78125 25.203125 
L 50.78125 17.140625 
L 41.109375 17.140625 
L 41.109375 0 
z
M 32.328125 25.203125 
L 32.328125 57.46875 
L 9.90625 25.203125 
z
" id="ArialMT-52"/>
       </defs>
       <use xlink:href="#ArialMT-8722"/>
       <use x="58.398438" xlink:href="#ArialMT-52"/>
      </g>
     </g>
    </g>
    <g id="xtick_3">
     <g id="line2d_3">
      <g>
       <use style="fill:#262626;stroke:#262626;stroke-width:1.25;" x="170.419759" xlink:href="#mabf5f32afb" y="224.64"/>
      </g>
     </g>
     <g id="text_3">
      <!-- −2 -->
      <g style="fill:#262626;" transform="translate(164.148899 242.013594)scale(0.11 -0.11)">
       <defs>
        <path d="M 50.34375 8.453125 
L 50.34375 0 
L 3.03125 0 
Q 2.9375 3.171875 4.046875 6.109375 
Q 5.859375 10.9375 9.828125 15.625 
Q 13.8125 20.3125 21.34375 26.46875 
Q 33.015625 36.03125 37.109375 41.625 
Q 41.21875 47.21875 41.21875 52.203125 
Q 41.21875 57.421875 37.46875 61 
Q 33.734375 64.59375 27.734375 64.59375 
Q 21.390625 64.59375 17.578125 60.78125 
Q 13.765625 56.984375 13.71875 50.25 
L 4.6875 51.171875 
Q 5.609375 61.28125 11.65625 66.578125 
Q 17.71875 71.875 27.9375 71.875 
Q 38.234375 71.875 44.234375 66.15625 
Q 50.25 60.453125 50.25 52 
Q 50.25 47.703125 48.484375 43.546875 
Q 46.734375 39.40625 42.65625 34.8125 
Q 38.578125 30.21875 29.109375 22.21875 
Q 21.1875 15.578125 18.9375 13.203125 
Q 16.703125 10.84375 15.234375 8.453125 
z
" id="ArialMT-50"/>
       </defs>
       <use xlink:href="#ArialMT-8722"/>
       <use x="58.398438" xlink:href="#ArialMT-50"/>
      </g>
     </g>
    </g>
    <g id="xtick_4">
     <g id="line2d_4">
      <g>
       <use style="fill:#262626;stroke:#262626;stroke-width:1.25;" x="221.147031" xlink:href="#mabf5f32afb" y="224.64"/>
      </g>
     </g>
     <g id="text_4">
      <!-- 0 -->
      <g style="fill:#262626;" transform="translate(218.088516 242.013594)scale(0.11 -0.11)">
       <defs>
        <path d="M 4.15625 35.296875 
Q 4.15625 48 6.765625 55.734375 
Q 9.375 63.484375 14.515625 67.671875 
Q 19.671875 71.875 27.484375 71.875 
Q 33.25 71.875 37.59375 69.546875 
Q 41.9375 67.234375 44.765625 62.859375 
Q 47.609375 58.5 49.21875 52.21875 
Q 50.828125 45.953125 50.828125 35.296875 
Q 50.828125 22.703125 48.234375 14.96875 
Q 45.65625 7.234375 40.5 3 
Q 35.359375 -1.21875 27.484375 -1.21875 
Q 17.140625 -1.21875 11.234375 6.203125 
Q 4.15625 15.140625 4.15625 35.296875 
z
M 13.1875 35.296875 
Q 13.1875 17.671875 17.3125 11.828125 
Q 21.4375 6 27.484375 6 
Q 33.546875 6 37.671875 11.859375 
Q 41.796875 17.71875 41.796875 35.296875 
Q 41.796875 52.984375 37.671875 58.78125 
Q 33.546875 64.59375 27.390625 64.59375 
Q 21.34375 64.59375 17.71875 59.46875 
Q 13.1875 52.9375 13.1875 35.296875 
z
" id="ArialMT-48"/>
       </defs>
       <use xlink:href="#ArialMT-48"/>
      </g>
     </g>
    </g>
    <g id="xtick_5">
     <g id="line2d_5">
      <g>
       <use style="fill:#262626;stroke:#262626;stroke-width:1.25;" x="271.874304" xlink:href="#mabf5f32afb" y="224.64"/>
      </g>
     </g>
     <g id="text_5">
      <!-- 2 -->
      <g style="fill:#262626;" transform="translate(268.815788 242.013594)scale(0.11 -0.11)">
       <use xlink:href="#ArialMT-50"/>
      </g>
     </g>
    </g>
    <g id="xtick_6">
     <g id="line2d_6">
      <g>
       <use style="fill:#262626;stroke:#262626;stroke-width:1.25;" x="322.601577" xlink:href="#mabf5f32afb" y="224.64"/>
      </g>
     </g>
     <g id="text_6">
      <!-- 4 -->
      <g style="fill:#262626;" transform="translate(319.543061 242.013594)scale(0.11 -0.11)">
       <use xlink:href="#ArialMT-52"/>
      </g>
     </g>
    </g>
    <g id="xtick_7">
     <g id="line2d_7">
      <g>
       <use style="fill:#262626;stroke:#262626;stroke-width:1.25;" x="373.328849" xlink:href="#mabf5f32afb" y="224.64"/>
      </g>
     </g>
     <g id="text_7">
      <!-- 6 -->
      <g style="fill:#262626;" transform="translate(370.270334 242.013594)scale(0.11 -0.11)">
       <use xlink:href="#ArialMT-54"/>
      </g>
     </g>
    </g>
    <g id="text_8">
     <!-- $z$ -->
     <g style="fill:#262626;" transform="translate(217.967031 256.789219)scale(0.12 -0.12)">
      <defs>
       <path d="M 11.625 54.6875 
L 54.296875 54.6875 
L 52.6875 46.484375 
L 11.53125 7.171875 
L 45.515625 7.171875 
L 44.09375 0 
L -0.296875 0 
L 1.3125 8.203125 
L 42.484375 47.515625 
L 10.203125 47.515625 
z
" id="DejaVuSans-Oblique-122"/>
      </defs>
      <use transform="translate(0 0.3125)" xlink:href="#DejaVuSans-Oblique-122"/>
     </g>
    </g>
   </g>
   <g id="matplotlib.axis_2">
    <g id="ytick_1">
     <g id="line2d_8">
      <defs>
       <path d="M 0 0 
L -6 0 
" id="m912588bbeb" style="stroke:#262626;stroke-width:1.25;"/>
      </defs>
      <g>
       <use style="fill:#262626;stroke:#262626;stroke-width:1.25;" x="53.747031" xlink:href="#m912588bbeb" y="214.756364"/>
      </g>
     </g>
     <g id="text_9">
      <!-- 0.00 -->
      <g style="fill:#262626;" transform="translate(22.84 218.693161)scale(0.11 -0.11)">
       <defs>
        <path d="M 9.078125 0 
L 9.078125 10.015625 
L 19.09375 10.015625 
L 19.09375 0 
z
" id="ArialMT-46"/>
       </defs>
       <use xlink:href="#ArialMT-48"/>
       <use x="55.615234" xlink:href="#ArialMT-46"/>
       <use x="83.398438" xlink:href="#ArialMT-48"/>
       <use x="139.013672" xlink:href="#ArialMT-48"/>
      </g>
     </g>
    </g>
    <g id="ytick_2">
     <g id="line2d_9">
      <g>
       <use style="fill:#262626;stroke:#262626;stroke-width:1.25;" x="53.747031" xlink:href="#m912588bbeb" y="189.93622"/>
      </g>
     </g>
     <g id="text_10">
      <!-- 0.05 -->
      <g style="fill:#262626;" transform="translate(22.84 193.873017)scale(0.11 -0.11)">
       <defs>
        <path d="M 4.15625 18.75 
L 13.375 19.53125 
Q 14.40625 12.796875 18.140625 9.390625 
Q 21.875 6 27.15625 6 
Q 33.5 6 37.890625 10.78125 
Q 42.28125 15.578125 42.28125 23.484375 
Q 42.28125 31 38.0625 35.34375 
Q 33.84375 39.703125 27 39.703125 
Q 22.75 39.703125 19.328125 37.765625 
Q 15.921875 35.84375 13.96875 32.765625 
L 5.71875 33.84375 
L 12.640625 70.609375 
L 48.25 70.609375 
L 48.25 62.203125 
L 19.671875 62.203125 
L 15.828125 42.96875 
Q 22.265625 47.46875 29.34375 47.46875 
Q 38.71875 47.46875 45.15625 40.96875 
Q 51.609375 34.46875 51.609375 24.265625 
Q 51.609375 14.546875 45.953125 7.46875 
Q 39.0625 -1.21875 27.15625 -1.21875 
Q 17.390625 -1.21875 11.203125 4.25 
Q 5.03125 9.71875 4.15625 18.75 
z
" id="ArialMT-53"/>
       </defs>
       <use xlink:href="#ArialMT-48"/>
       <use x="55.615234" xlink:href="#ArialMT-46"/>
       <use x="83.398438" xlink:href="#ArialMT-48"/>
       <use x="139.013672" xlink:href="#ArialMT-53"/>
      </g>
     </g>
    </g>
    <g id="ytick_3">
     <g id="line2d_10">
      <g>
       <use style="fill:#262626;stroke:#262626;stroke-width:1.25;" x="53.747031" xlink:href="#m912588bbeb" y="165.116076"/>
      </g>
     </g>
     <g id="text_11">
      <!-- 0.10 -->
      <g style="fill:#262626;" transform="translate(22.84 169.052873)scale(0.11 -0.11)">
       <defs>
        <path d="M 37.25 0 
L 28.46875 0 
L 28.46875 56 
Q 25.296875 52.984375 20.140625 49.953125 
Q 14.984375 46.921875 10.890625 45.40625 
L 10.890625 53.90625 
Q 18.265625 57.375 23.78125 62.296875 
Q 29.296875 67.234375 31.59375 71.875 
L 37.25 71.875 
z
" id="ArialMT-49"/>
       </defs>
       <use xlink:href="#ArialMT-48"/>
       <use x="55.615234" xlink:href="#ArialMT-46"/>
       <use x="83.398438" xlink:href="#ArialMT-49"/>
       <use x="139.013672" xlink:href="#ArialMT-48"/>
      </g>
     </g>
    </g>
    <g id="ytick_4">
     <g id="line2d_11">
      <g>
       <use style="fill:#262626;stroke:#262626;stroke-width:1.25;" x="53.747031" xlink:href="#m912588bbeb" y="140.295932"/>
      </g>
     </g>
     <g id="text_12">
      <!-- 0.15 -->
      <g style="fill:#262626;" transform="translate(22.84 144.232729)scale(0.11 -0.11)">
       <use xlink:href="#ArialMT-48"/>
       <use x="55.615234" xlink:href="#ArialMT-46"/>
       <use x="83.398438" xlink:href="#ArialMT-49"/>
       <use x="139.013672" xlink:href="#ArialMT-53"/>
      </g>
     </g>
    </g>
    <g id="ytick_5">
     <g id="line2d_12">
      <g>
       <use style="fill:#262626;stroke:#262626;stroke-width:1.25;" x="53.747031" xlink:href="#m912588bbeb" y="115.475788"/>
      </g>
     </g>
     <g id="text_13">
      <!-- 0.20 -->
      <g style="fill:#262626;" transform="translate(22.84 119.412585)scale(0.11 -0.11)">
       <use xlink:href="#ArialMT-48"/>
       <use x="55.615234" xlink:href="#ArialMT-46"/>
       <use x="83.398438" xlink:href="#ArialMT-50"/>
       <use x="139.013672" xlink:href="#ArialMT-48"/>
      </g>
     </g>
    </g>
    <g id="ytick_6">
     <g id="line2d_13">
      <g>
       <use style="fill:#262626;stroke:#262626;stroke-width:1.25;" x="53.747031" xlink:href="#m912588bbeb" y="90.655644"/>
      </g>
     </g>
     <g id="text_14">
      <!-- 0.25 -->
      <g style="fill:#262626;" transform="translate(22.84 94.592441)scale(0.11 -0.11)">
       <use xlink:href="#ArialMT-48"/>
       <use x="55.615234" xlink:href="#ArialMT-46"/>
       <use x="83.398438" xlink:href="#ArialMT-50"/>
       <use x="139.013672" xlink:href="#ArialMT-53"/>
      </g>
     </g>
    </g>
    <g id="ytick_7">
     <g id="line2d_14">
      <g>
       <use style="fill:#262626;stroke:#262626;stroke-width:1.25;" x="53.747031" xlink:href="#m912588bbeb" y="65.8355"/>
      </g>
     </g>
     <g id="text_15">
      <!-- 0.30 -->
      <g style="fill:#262626;" transform="translate(22.84 69.772297)scale(0.11 -0.11)">
       <defs>
        <path d="M 4.203125 18.890625 
L 12.984375 20.0625 
Q 14.5 12.59375 18.140625 9.296875 
Q 21.78125 6 27 6 
Q 33.203125 6 37.46875 10.296875 
Q 41.75 14.59375 41.75 20.953125 
Q 41.75 27 37.796875 30.921875 
Q 33.84375 34.859375 27.734375 34.859375 
Q 25.25 34.859375 21.53125 33.890625 
L 22.515625 41.609375 
Q 23.390625 41.5 23.921875 41.5 
Q 29.546875 41.5 34.03125 44.421875 
Q 38.53125 47.359375 38.53125 53.46875 
Q 38.53125 58.296875 35.25 61.46875 
Q 31.984375 64.65625 26.8125 64.65625 
Q 21.6875 64.65625 18.265625 61.421875 
Q 14.84375 58.203125 13.875 51.765625 
L 5.078125 53.328125 
Q 6.6875 62.15625 12.390625 67.015625 
Q 18.109375 71.875 26.609375 71.875 
Q 32.46875 71.875 37.390625 69.359375 
Q 42.328125 66.84375 44.9375 62.5 
Q 47.5625 58.15625 47.5625 53.265625 
Q 47.5625 48.640625 45.0625 44.828125 
Q 42.578125 41.015625 37.703125 38.765625 
Q 44.046875 37.3125 47.5625 32.6875 
Q 51.078125 28.078125 51.078125 21.140625 
Q 51.078125 11.765625 44.234375 5.25 
Q 37.40625 -1.265625 26.953125 -1.265625 
Q 17.53125 -1.265625 11.296875 4.34375 
Q 5.078125 9.96875 4.203125 18.890625 
z
" id="ArialMT-51"/>
       </defs>
       <use xlink:href="#ArialMT-48"/>
       <use x="55.615234" xlink:href="#ArialMT-46"/>
       <use x="83.398438" xlink:href="#ArialMT-51"/>
       <use x="139.013672" xlink:href="#ArialMT-48"/>
      </g>
     </g>
    </g>
    <g id="ytick_8">
     <g id="line2d_15">
      <g>
       <use style="fill:#262626;stroke:#262626;stroke-width:1.25;" x="53.747031" xlink:href="#m912588bbeb" y="41.015356"/>
      </g>
     </g>
     <g id="text_16">
      <!-- 0.35 -->
      <g style="fill:#262626;" transform="translate(22.84 44.952153)scale(0.11 -0.11)">
       <use xlink:href="#ArialMT-48"/>
       <use x="55.615234" xlink:href="#ArialMT-46"/>
       <use x="83.398438" xlink:href="#ArialMT-51"/>
       <use x="139.013672" xlink:href="#ArialMT-53"/>
      </g>
     </g>
    </g>
    <g id="ytick_9">
     <g id="line2d_16">
      <g>
       <use style="fill:#262626;stroke:#262626;stroke-width:1.25;" x="53.747031" xlink:href="#m912588bbeb" y="16.195212"/>
      </g>
     </g>
     <g id="text_17">
      <!-- 0.40 -->
      <g style="fill:#262626;" transform="translate(22.84 20.132009)scale(0.11 -0.11)">
       <use xlink:href="#ArialMT-48"/>
       <use x="55.615234" xlink:href="#ArialMT-46"/>
       <use x="83.398438" xlink:href="#ArialMT-52"/>
       <use x="139.013672" xlink:href="#ArialMT-48"/>
      </g>
     </g>
    </g>
    <g id="text_18">
     <!-- $\phi(z)$ -->
     <g style="fill:#262626;" transform="translate(16.32 127.74)rotate(-90)scale(0.12 -0.12)">
      <defs>
       <path d="M 46.734375 75.984375 
L 42.78125 55.8125 
Q 52.546875 55.8125 57.5625 48.34375 
Q 62.75 40.71875 60.15625 27.296875 
Q 57.515625 13.875 49.359375 6.25 
Q 41.453125 -1.21875 31.6875 -1.21875 
L 27.875 -20.796875 
L 18.953125 -20.796875 
L 22.75 -1.21875 
Q 13.03125 -1.21875 7.953125 6.25 
Q 2.78125 13.875 5.421875 27.296875 
Q 8.015625 40.71875 16.15625 48.34375 
Q 24.125 55.8125 33.84375 55.8125 
L 37.796875 75.984375 
z
M 33.25 6.78125 
Q 38.765625 6.78125 43.5 11.8125 
Q 48.6875 17.4375 50.6875 27.296875 
Q 52.640625 37.0625 49.515625 42.78125 
Q 46.734375 47.796875 41.21875 47.796875 
z
M 24.3125 6.78125 
L 32.28125 47.796875 
Q 26.8125 47.796875 22.078125 42.78125 
Q 16.75 37.0625 14.890625 27.296875 
Q 13.03125 17.4375 16.0625 11.8125 
Q 18.796875 6.78125 24.3125 6.78125 
z
" id="DejaVuSans-Oblique-981"/>
       <path d="M 31 75.875 
Q 24.46875 64.65625 21.28125 53.65625 
Q 18.109375 42.671875 18.109375 31.390625 
Q 18.109375 20.125 21.3125 9.0625 
Q 24.515625 -2 31 -13.1875 
L 23.1875 -13.1875 
Q 15.875 -1.703125 12.234375 9.375 
Q 8.59375 20.453125 8.59375 31.390625 
Q 8.59375 42.28125 12.203125 53.3125 
Q 15.828125 64.359375 23.1875 75.875 
z
" id="DejaVuSans-40"/>
       <path d="M 8.015625 75.875 
L 15.828125 75.875 
Q 23.140625 64.359375 26.78125 53.3125 
Q 30.421875 42.28125 30.421875 31.390625 
Q 30.421875 20.453125 26.78125 9.375 
Q 23.140625 -1.703125 15.828125 -13.1875 
L 8.015625 -13.1875 
Q 14.5 -2 17.703125 9.0625 
Q 20.90625 20.125 20.90625 31.390625 
Q 20.90625 42.671875 17.703125 53.65625 
Q 14.5 64.65625 8.015625 75.875 
z
" id="DejaVuSans-41"/>
      </defs>
      <use transform="translate(0 0.015625)" xlink:href="#DejaVuSans-Oblique-981"/>
      <use transform="translate(65.966797 0.015625)" xlink:href="#DejaVuSans-40"/>
      <use transform="translate(104.980469 0.015625)" xlink:href="#DejaVuSans-Oblique-122"/>
      <use transform="translate(157.470703 0.015625)" xlink:href="#DejaVuSans-41"/>
     </g>
    </g>
   </g>
   <g id="PolyCollection_1">
    <defs>
     <path d="M 68.965213 -51.617858 
L 68.965213 -51.617855 
L 70.246205 -51.617855 
L 71.527197 -51.617855 
L 72.808188 -51.617855 
L 74.08918 -51.617855 
L 75.370172 -51.617855 
L 76.651163 -51.617855 
L 77.932155 -51.617855 
L 79.213147 -51.617855 
L 80.494139 -51.617855 
L 81.77513 -51.617855 
L 83.056122 -51.617855 
L 84.337114 -51.617855 
L 85.618106 -51.617855 
L 86.899097 -51.617855 
L 88.180089 -51.617855 
L 89.461081 -51.617855 
L 90.742073 -51.617855 
L 92.023064 -51.617855 
L 93.304056 -51.617855 
L 94.585048 -51.617855 
L 95.86604 -51.617855 
L 97.147031 -51.617855 
L 98.428023 -51.617855 
L 99.709015 -51.617855 
L 100.990006 -51.617855 
L 102.270998 -51.617855 
L 103.55199 -51.617855 
L 104.832982 -51.617855 
L 106.113973 -51.617855 
L 107.394965 -51.617855 
L 108.675957 -51.617855 
L 109.956949 -51.617855 
L 111.23794 -51.617855 
L 112.518932 -51.617855 
L 113.799924 -51.617855 
L 115.080916 -51.617855 
L 116.361907 -51.617855 
L 117.642899 -51.617855 
L 118.923891 -51.617855 
L 120.204882 -51.617855 
L 121.485874 -51.617855 
L 122.766866 -51.617855 
L 124.047858 -51.617855 
L 125.328849 -51.617855 
L 126.609841 -51.617855 
L 127.890833 -51.617855 
L 129.171825 -51.617855 
L 130.452816 -51.617855 
L 131.733808 -51.617855 
L 133.0148 -51.617855 
L 134.295792 -51.617855 
L 135.576783 -51.617855 
L 136.857775 -51.617855 
L 138.138767 -51.617855 
L 139.419759 -51.617855 
L 140.70075 -51.617855 
L 141.981742 -51.617855 
L 143.262734 -51.617855 
L 144.543725 -51.617855 
L 145.824717 -51.617855 
L 147.105709 -51.617855 
L 148.386701 -51.617855 
L 149.667692 -51.617855 
L 150.948684 -51.617855 
L 152.229676 -51.617855 
L 153.510668 -51.617855 
L 154.791659 -51.617855 
L 156.072651 -51.617855 
L 157.353643 -51.617855 
L 158.634635 -51.617855 
L 159.915626 -51.617855 
L 161.196618 -51.617855 
L 162.47761 -51.617855 
L 163.758601 -51.617855 
L 165.039593 -51.617855 
L 166.320585 -51.617855 
L 167.601577 -51.617855 
L 168.882568 -51.617855 
L 170.16356 -51.617855 
L 171.444552 -51.617855 
L 172.725544 -51.617855 
L 174.006535 -51.617855 
L 175.287527 -51.617855 
L 176.568519 -51.617855 
L 177.849511 -51.617855 
L 179.130502 -51.617855 
L 180.411494 -51.617855 
L 181.692486 -51.617855 
L 182.973478 -51.617855 
L 184.254469 -51.617855 
L 185.535461 -51.617855 
L 186.816453 -51.617855 
L 188.097444 -51.617855 
L 189.378436 -51.617855 
L 190.659428 -51.617855 
L 191.94042 -51.617855 
L 193.221411 -51.617855 
L 194.502403 -51.617855 
L 195.783395 -51.617855 
L 195.783395 -171.732819 
L 195.783395 -171.732819 
L 194.502403 -165.671498 
L 193.221411 -159.640156 
L 191.94042 -153.667126 
L 190.659428 -147.778775 
L 189.378436 -141.999352 
L 188.097444 -136.350872 
L 186.816453 -130.853031 
L 185.535461 -125.523159 
L 184.254469 -120.376198 
L 182.973478 -115.424721 
L 181.692486 -110.678971 
L 180.411494 -106.146927 
L 179.130502 -101.834394 
L 177.849511 -97.745116 
L 176.568519 -93.880899 
L 175.287527 -90.241753 
L 174.006535 -86.826041 
L 172.725544 -83.630637 
L 171.444552 -80.651089 
L 170.16356 -77.881779 
L 168.882568 -75.316092 
L 167.601577 -72.946569 
L 166.320585 -70.765067 
L 165.039593 -68.7629 
L 163.758601 -66.930983 
L 162.47761 -65.259962 
L 161.196618 -63.740327 
L 159.915626 -62.362526 
L 158.634635 -61.117061 
L 157.353643 -59.994569 
L 156.072651 -58.985901 
L 154.791659 -58.08218 
L 153.510668 -57.274855 
L 152.229676 -56.555746 
L 150.948684 -55.917068 
L 149.667692 -55.351463 
L 148.386701 -54.852008 
L 147.105709 -54.41223 
L 145.824717 -54.026103 
L 144.543725 -53.688043 
L 143.262734 -53.392905 
L 141.981742 -53.135966 
L 140.70075 -52.912912 
L 139.419759 -52.719816 
L 138.138767 -52.553123 
L 136.857775 -52.409623 
L 135.576783 -52.286433 
L 134.295792 -52.180972 
L 133.0148 -52.090938 
L 131.733808 -52.014286 
L 130.452816 -51.949208 
L 129.171825 -51.894107 
L 127.890833 -51.847583 
L 126.609841 -51.808407 
L 125.328849 -51.775509 
L 124.047858 -51.747959 
L 122.766866 -51.724949 
L 121.485874 -51.705784 
L 120.204882 -51.689865 
L 118.923891 -51.676678 
L 117.642899 -51.665783 
L 116.361907 -51.656807 
L 115.080916 -51.649431 
L 113.799924 -51.643387 
L 112.518932 -51.638447 
L 111.23794 -51.634421 
L 109.956949 -51.631147 
L 108.675957 -51.628494 
L 107.394965 -51.626348 
L 106.113973 -51.624618 
L 104.832982 -51.623227 
L 103.55199 -51.622111 
L 102.270998 -51.621218 
L 100.990006 -51.620506 
L 99.709015 -51.619939 
L 98.428023 -51.619489 
L 97.147031 -51.619133 
L 95.86604 -51.618853 
L 94.585048 -51.618631 
L 93.304056 -51.618458 
L 92.023064 -51.618322 
L 90.742073 -51.618215 
L 89.461081 -51.618133 
L 88.180089 -51.618068 
L 86.899097 -51.618019 
L 85.618106 -51.61798 
L 84.337114 -51.61795 
L 83.056122 -51.617928 
L 81.77513 -51.61791 
L 80.494139 -51.617897 
L 79.213147 -51.617887 
L 77.932155 -51.617879 
L 76.651163 -51.617873 
L 75.370172 -51.617868 
L 74.08918 -51.617865 
L 72.808188 -51.617863 
L 71.527197 -51.617861 
L 70.246205 -51.617859 
L 68.965213 -51.617858 
z
" id="m19fe83cd89" style="stroke:#4c72b0;stroke-opacity:0.5;"/>
    </defs>
    <g clip-path="url(#p427f8fc5ce)">
     <use style="fill:#4c72b0;fill-opacity:0.5;stroke:#4c72b0;stroke-opacity:0.5;" x="0" xlink:href="#m19fe83cd89" y="266.374219"/>
    </g>
   </g>
   <g id="PolyCollection_2">
    <defs>
     <path d="M 246.510668 -171.732819 
L 246.510668 -51.617855 
L 247.791659 -51.617855 
L 249.072651 -51.617855 
L 250.353643 -51.617855 
L 251.634635 -51.617855 
L 252.915626 -51.617855 
L 254.196618 -51.617855 
L 255.47761 -51.617855 
L 256.758601 -51.617855 
L 258.039593 -51.617855 
L 259.320585 -51.617855 
L 260.601577 -51.617855 
L 261.882568 -51.617855 
L 263.16356 -51.617855 
L 264.444552 -51.617855 
L 265.725544 -51.617855 
L 267.006535 -51.617855 
L 268.287527 -51.617855 
L 269.568519 -51.617855 
L 270.849511 -51.617855 
L 272.130502 -51.617855 
L 273.411494 -51.617855 
L 274.692486 -51.617855 
L 275.973478 -51.617855 
L 277.254469 -51.617855 
L 278.535461 -51.617855 
L 279.816453 -51.617855 
L 281.097444 -51.617855 
L 282.378436 -51.617855 
L 283.659428 -51.617855 
L 284.94042 -51.617855 
L 286.221411 -51.617855 
L 287.502403 -51.617855 
L 288.783395 -51.617855 
L 290.064387 -51.617855 
L 291.345378 -51.617855 
L 292.62637 -51.617855 
L 293.907362 -51.617855 
L 295.188354 -51.617855 
L 296.469345 -51.617855 
L 297.750337 -51.617855 
L 299.031329 -51.617855 
L 300.312321 -51.617855 
L 301.593312 -51.617855 
L 302.874304 -51.617855 
L 304.155296 -51.617855 
L 305.436287 -51.617855 
L 306.717279 -51.617855 
L 307.998271 -51.617855 
L 309.279263 -51.617855 
L 310.560254 -51.617855 
L 311.841246 -51.617855 
L 313.122238 -51.617855 
L 314.40323 -51.617855 
L 315.684221 -51.617855 
L 316.965213 -51.617855 
L 318.246205 -51.617855 
L 319.527197 -51.617855 
L 320.808188 -51.617855 
L 322.08918 -51.617855 
L 323.370172 -51.617855 
L 324.651163 -51.617855 
L 325.932155 -51.617855 
L 327.213147 -51.617855 
L 328.494139 -51.617855 
L 329.77513 -51.617855 
L 331.056122 -51.617855 
L 332.337114 -51.617855 
L 333.618106 -51.617855 
L 334.899097 -51.617855 
L 336.180089 -51.617855 
L 337.461081 -51.617855 
L 338.742073 -51.617855 
L 340.023064 -51.617855 
L 341.304056 -51.617855 
L 342.585048 -51.617855 
L 343.86604 -51.617855 
L 345.147031 -51.617855 
L 346.428023 -51.617855 
L 347.709015 -51.617855 
L 348.990006 -51.617855 
L 350.270998 -51.617855 
L 351.55199 -51.617855 
L 352.832982 -51.617855 
L 354.113973 -51.617855 
L 355.394965 -51.617855 
L 356.675957 -51.617855 
L 357.956949 -51.617855 
L 359.23794 -51.617855 
L 360.518932 -51.617855 
L 361.799924 -51.617855 
L 363.080916 -51.617855 
L 364.361907 -51.617855 
L 365.642899 -51.617855 
L 366.923891 -51.617855 
L 368.204882 -51.617855 
L 369.485874 -51.617855 
L 370.766866 -51.617855 
L 372.047858 -51.617855 
L 373.328849 -51.617855 
L 373.328849 -51.617858 
L 373.328849 -51.617858 
L 372.047858 -51.617859 
L 370.766866 -51.617861 
L 369.485874 -51.617863 
L 368.204882 -51.617865 
L 366.923891 -51.617868 
L 365.642899 -51.617873 
L 364.361907 -51.617879 
L 363.080916 -51.617887 
L 361.799924 -51.617897 
L 360.518932 -51.61791 
L 359.23794 -51.617928 
L 357.956949 -51.61795 
L 356.675957 -51.61798 
L 355.394965 -51.618019 
L 354.113973 -51.618068 
L 352.832982 -51.618133 
L 351.55199 -51.618215 
L 350.270998 -51.618322 
L 348.990006 -51.618458 
L 347.709015 -51.618631 
L 346.428023 -51.618853 
L 345.147031 -51.619133 
L 343.86604 -51.619489 
L 342.585048 -51.619939 
L 341.304056 -51.620506 
L 340.023064 -51.621218 
L 338.742073 -51.622111 
L 337.461081 -51.623227 
L 336.180089 -51.624618 
L 334.899097 -51.626348 
L 333.618106 -51.628494 
L 332.337114 -51.631147 
L 331.056122 -51.634421 
L 329.77513 -51.638447 
L 328.494139 -51.643387 
L 327.213147 -51.649431 
L 325.932155 -51.656807 
L 324.651163 -51.665783 
L 323.370172 -51.676678 
L 322.08918 -51.689865 
L 320.808188 -51.705784 
L 319.527197 -51.724949 
L 318.246205 -51.747959 
L 316.965213 -51.775509 
L 315.684221 -51.808407 
L 314.40323 -51.847583 
L 313.122238 -51.894107 
L 311.841246 -51.949208 
L 310.560254 -52.014286 
L 309.279263 -52.090938 
L 307.998271 -52.180972 
L 306.717279 -52.286433 
L 305.436287 -52.409623 
L 304.155296 -52.553123 
L 302.874304 -52.719816 
L 301.593312 -52.912912 
L 300.312321 -53.135966 
L 299.031329 -53.392905 
L 297.750337 -53.688043 
L 296.469345 -54.026103 
L 295.188354 -54.41223 
L 293.907362 -54.852008 
L 292.62637 -55.351463 
L 291.345378 -55.917068 
L 290.064387 -56.555746 
L 288.783395 -57.274855 
L 287.502403 -58.08218 
L 286.221411 -58.985901 
L 284.94042 -59.994569 
L 283.659428 -61.117061 
L 282.378436 -62.362526 
L 281.097444 -63.740327 
L 279.816453 -65.259962 
L 278.535461 -66.930983 
L 277.254469 -68.7629 
L 275.973478 -70.765067 
L 274.692486 -72.946569 
L 273.411494 -75.316092 
L 272.130502 -77.881779 
L 270.849511 -80.651089 
L 269.568519 -83.630637 
L 268.287527 -86.826041 
L 267.006535 -90.241753 
L 265.725544 -93.880899 
L 264.444552 -97.745116 
L 263.16356 -101.834394 
L 261.882568 -106.146927 
L 260.601577 -110.678971 
L 259.320585 -115.424721 
L 258.039593 -120.376198 
L 256.758601 -125.523159 
L 255.47761 -130.853031 
L 254.196618 -136.350872 
L 252.915626 -141.999352 
L 251.634635 -147.778775 
L 250.353643 -153.667126 
L 249.072651 -159.640156 
L 247.791659 -165.671498 
L 246.510668 -171.732819 
z
" id="m5f8fb1855f" style="stroke:#c44e52;stroke-opacity:0.5;"/>
    </defs>
    <g clip-path="url(#p427f8fc5ce)">
     <use style="fill:#c44e52;fill-opacity:0.5;stroke:#c44e52;stroke-opacity:0.5;" x="0" xlink:href="#m5f8fb1855f" y="266.374219"/>
    </g>
   </g>
   <g id="line2d_17">
    <path clip-path="url(#p427f8fc5ce)" d="M 68.965213 214.756361 
L 72.039593 214.756357 
L 75.113973 214.756351 
L 78.188354 214.756339 
L 81.262734 214.756314 
L 84.337114 214.756268 
L 87.411494 214.756182 
L 90.485874 214.756022 
L 93.560254 214.75573 
L 96.634635 214.755206 
L 99.709015 214.75428 
L 102.783395 214.752667 
L 105.857775 214.749904 
L 108.932155 214.745238 
L 112.006535 214.737482 
L 115.080916 214.724787 
L 118.155296 214.704327 
L 121.229676 214.67186 
L 124.304056 214.621138 
L 127.378436 214.543125 
L 130.452816 214.425011 
L 133.527197 214.248983 
L 136.601577 213.990772 
L 139.675957 213.618004 
L 142.750337 213.088423 
L 145.824717 212.348116 
L 148.899097 211.329942 
L 151.973478 209.952401 
L 155.047858 208.119275 
L 158.122238 205.720393 
L 161.196618 202.633892 
L 164.270998 198.730305 
L 167.345378 193.87872 
L 170.419759 187.955092 
L 173.494139 180.852555 
L 176.568519 172.493319 
L 179.642899 162.841438 
L 182.717279 151.915393 
L 185.791659 139.799275 
L 188.86604 126.651128 
L 191.94042 112.707093 
L 195.0148 98.280141 
L 198.08918 83.752584 
L 201.16356 69.562067 
L 204.23794 56.181454 
L 207.312321 44.093682 
L 210.386701 33.763338 
L 213.461081 25.607256 
L 216.535461 19.966688 
L 219.609841 17.083636 
L 222.684221 17.083636 
L 225.758601 19.966688 
L 228.832982 25.607256 
L 231.907362 33.763338 
L 234.981742 44.093682 
L 238.056122 56.181454 
L 241.130502 69.562067 
L 244.204882 83.752584 
L 247.279263 98.280141 
L 250.353643 112.707093 
L 253.428023 126.651128 
L 256.502403 139.799275 
L 259.576783 151.915393 
L 262.651163 162.841438 
L 265.725544 172.493319 
L 268.799924 180.852555 
L 271.874304 187.955092 
L 274.948684 193.87872 
L 278.023064 198.730305 
L 281.097444 202.633892 
L 284.171825 205.720393 
L 287.246205 208.119275 
L 290.320585 209.952401 
L 293.394965 211.329942 
L 296.469345 212.348116 
L 299.543725 213.088423 
L 302.618106 213.618004 
L 305.692486 213.990772 
L 308.766866 214.248983 
L 311.841246 214.425011 
L 314.915626 214.543125 
L 317.990006 214.621138 
L 321.064387 214.67186 
L 324.138767 214.704327 
L 327.213147 214.724787 
L 330.287527 214.737482 
L 333.361907 214.745238 
L 336.436287 214.749904 
L 339.510668 214.752667 
L 342.585048 214.75428 
L 345.659428 214.755206 
L 348.733808 214.75573 
L 351.808188 214.756022 
L 354.882568 214.756182 
L 357.956949 214.756268 
L 361.031329 214.756314 
L 364.105709 214.756339 
L 367.180089 214.756351 
L 370.254469 214.756357 
L 373.328849 214.756361 
" style="fill:none;stroke:#4c72b0;stroke-linecap:round;stroke-width:1.5;"/>
   </g>
   <g id="patch_3">
    <path d="M 53.747031 224.64 
L 53.747031 7.2 
" style="fill:none;stroke:#262626;stroke-linecap:square;stroke-linejoin:miter;stroke-width:1.25;"/>
   </g>
   <g id="patch_4">
    <path d="M 388.547031 224.64 
L 388.547031 7.2 
" style="fill:none;stroke:#262626;stroke-linecap:square;stroke-linejoin:miter;stroke-width:1.25;"/>
   </g>
   <g id="patch_5">
    <path d="M 53.747031 224.64 
L 388.547031 224.64 
" style="fill:none;stroke:#262626;stroke-linecap:square;stroke-linejoin:miter;stroke-width:1.25;"/>
   </g>
   <g id="patch_6">
    <path d="M 53.747031 7.2 
L 388.547031 7.2 
" style="fill:none;stroke:#262626;stroke-linecap:square;stroke-linejoin:miter;stroke-width:1.25;"/>
   </g>
  </g>
 </g>
 <defs>
  <clipPath id="p427f8fc5ce">
   <rect height="217.44" width="334.8" x="53.747031" y="7.2"/>
  </clipPath>
 </defs>
</svg>