<?xml version="1.0" encoding="utf-8" standalone="no"?>
<!DOCTYPE svg PUBLIC "-//W3C//DTD SVG 1.1//EN"
  "http://www.w3.org/Graphics/SVG/1.1/DTD/svg11.dtd">
<!-- Created with matplotlib (https://matplotlib.org/) -->
<svg height="266.374219pt" version="1.1" viewBox="0 0 401.864062 266.374219" width="401.864062pt" xmlns="http://www.w3.org/2000/svg" xmlns:xlink="http://www.w3.org/1999/xlink">
 <metadata>
  <rdf:RDF xmlns:cc="http://creativecommons.org/ns#" xmlns:dc="http://purl.org/dc/elements/1.1/" xmlns:rdf="http://www.w3.org/1999/02/22-rdf-syntax-ns#">
   <cc:Work>
    <dc:type rdf:resource="http://purl.org/dc/dcmitype/StillImage"/>
    <dc:date>2021-07-21T12:43:20.557574</dc:date>
    <dc:format>image/svg+xml</dc:format>
    <dc:creator>
     <cc:Agent>
      <dc:title>Matplotlib v3.3.4, https://matplotlib.org/</dc:title>
     </cc:Agent>
    </dc:creator>
   </cc:Work>
  </rdf:RDF>
 </metadata>
 <defs>
  <style type="text/css">*{stroke-linecap:butt;stroke-linejoin:round;}</style>
 </defs>
 <g id="figure_1">
  <g id="patch_1">
   <path d="M 0 266.374219 
L 401.864062 266.374219 
L 401.864062 0 
L 0 0 
z
" style="fill:#ffffff;"/>
  </g>
  <g id="axes_1">
   <g id="patch_2">
    <path d="M 53.747031 224.64 
L 388.547031 224.64 
L 388.547031 7.2 
L 53.747031 7.2 
z
" style="fill:#ffffff;"/>
   </g>
   <g id="matplotlib.axis_1">
    <g id="xtick_1">
     <g id="line2d_1">
      <defs>
       <path d="M 0 0 
L 0 6 
" id="mb59d179b87" style="stroke:#262626;stroke-width:1.25;"/>
      </defs>
      <g>
       <use style="fill:#262626;stroke:#262626;stroke-width:1.25;" x="76.067031" xlink:href="#mb59d179b87" y="224.64"/>
      </g>
     </g>
     <g id="text_1">
      <!-- −4 -->
      <g style="fill:#262626;" transform="translate(69.796172 242.013594)scale(0.11 -0.11)">
       <defs>
        <path d="M 52.828125 31.203125 
L 5.5625 31.203125 
L 5.5625 39.40625 
L 52.828125 39.40625 
z
" id="ArialMT-8722"/>
        <path d="M 32.328125 0 
L 32.328125 17.140625 
L 1.265625 17.140625 
L 1.265625 25.203125 
L 33.9375 71.578125 
L 41.109375 71.578125 
L 41.109375 25.203125 
L 50.78125 25.203125 
L 50.78125 17.140625 
L 41.109375 17.140625 
L 41.109375 0 
z
M 32.328125 25.203125 
L 32.328125 57.46875 
L 9.90625 25.203125 
z
" id="ArialMT-52"/>
       </defs>
       <use xlink:href="#ArialMT-8722"/>
       <use x="58.398438" xlink:href="#ArialMT-52"/>
      </g>
     </g>
    </g>
    <g id="xtick_2">
     <g id="line2d_2">
      <g>
       <use style="fill:#262626;stroke:#262626;stroke-width:1.25;" x="120.707031" xlink:href="#mb59d179b87" y="224.64"/>
      </g>
     </g>
     <g id="text_2">
      <!-- −2 -->
      <g style="fill:#262626;" transform="translate(114.436172 242.013594)scale(0.11 -0.11)">
       <defs>
        <path d="M 50.34375 8.453125 
L 50.34375 0 
L 3.03125 0 
Q 2.9375 3.171875 4.046875 6.109375 
Q 5.859375 10.9375 9.828125 15.625 
Q 13.8125 20.3125 21.34375 26.46875 
Q 33.015625 36.03125 37.109375 41.625 
Q 41.21875 47.21875 41.21875 52.203125 
Q 41.21875 57.421875 37.46875 61 
Q 33.734375 64.59375 27.734375 64.59375 
Q 21.390625 64.59375 17.578125 60.78125 
Q 13.765625 56.984375 13.71875 50.25 
L 4.6875 51.171875 
Q 5.609375 61.28125 11.65625 66.578125 
Q 17.71875 71.875 27.9375 71.875 
Q 38.234375 71.875 44.234375 66.15625 
Q 50.25 60.453125 50.25 52 
Q 50.25 47.703125 48.484375 43.546875 
Q 46.734375 39.40625 42.65625 34.8125 
Q 38.578125 30.21875 29.109375 22.21875 
Q 21.1875 15.578125 18.9375 13.203125 
Q 16.703125 10.84375 15.234375 8.453125 
z
" id="ArialMT-50"/>
       </defs>
       <use xlink:href="#ArialMT-8722"/>
       <use x="58.398438" xlink:href="#ArialMT-50"/>
      </g>
     </g>
    </g>
    <g id="xtick_3">
     <g id="line2d_3">
      <g>
       <use style="fill:#262626;stroke:#262626;stroke-width:1.25;" x="165.347031" xlink:href="#mb59d179b87" y="224.64"/>
      </g>
     </g>
     <g id="text_3">
      <!-- 0 -->
      <g style="fill:#262626;" transform="translate(162.288516 242.013594)scale(0.11 -0.11)">
       <defs>
        <path d="M 4.15625 35.296875 
Q 4.15625 48 6.765625 55.734375 
Q 9.375 63.484375 14.515625 67.671875 
Q 19.671875 71.875 27.484375 71.875 
Q 33.25 71.875 37.59375 69.546875 
Q 41.9375 67.234375 44.765625 62.859375 
Q 47.609375 58.5 49.21875 52.21875 
Q 50.828125 45.953125 50.828125 35.296875 
Q 50.828125 22.703125 48.234375 14.96875 
Q 45.65625 7.234375 40.5 3 
Q 35.359375 -1.21875 27.484375 -1.21875 
Q 17.140625 -1.21875 11.234375 6.203125 
Q 4.15625 15.140625 4.15625 35.296875 
z
M 13.1875 35.296875 
Q 13.1875 17.671875 17.3125 11.828125 
Q 21.4375 6 27.484375 6 
Q 33.546875 6 37.671875 11.859375 
Q 41.796875 17.71875 41.796875 35.296875 
Q 41.796875 52.984375 37.671875 58.78125 
Q 33.546875 64.59375 27.390625 64.59375 
Q 21.34375 64.59375 17.71875 59.46875 
Q 13.1875 52.9375 13.1875 35.296875 
z
" id="ArialMT-48"/>
       </defs>
       <use xlink:href="#ArialMT-48"/>
      </g>
     </g>
    </g>
    <g id="xtick_4">
     <g id="line2d_4">
      <g>
       <use style="fill:#262626;stroke:#262626;stroke-width:1.25;" x="209.987031" xlink:href="#mb59d179b87" y="224.64"/>
      </g>
     </g>
     <g id="text_4">
      <!-- 2 -->
      <g style="fill:#262626;" transform="translate(206.928516 242.013594)scale(0.11 -0.11)">
       <use xlink:href="#ArialMT-50"/>
      </g>
     </g>
    </g>
    <g id="xtick_5">
     <g id="line2d_5">
      <g>
       <use style="fill:#262626;stroke:#262626;stroke-width:1.25;" x="254.627031" xlink:href="#mb59d179b87" y="224.64"/>
      </g>
     </g>
     <g id="text_5">
      <!-- 4 -->
      <g style="fill:#262626;" transform="translate(251.568516 242.013594)scale(0.11 -0.11)">
       <use xlink:href="#ArialMT-52"/>
      </g>
     </g>
    </g>
    <g id="xtick_6">
     <g id="line2d_6">
      <g>
       <use style="fill:#262626;stroke:#262626;stroke-width:1.25;" x="299.267031" xlink:href="#mb59d179b87" y="224.64"/>
      </g>
     </g>
     <g id="text_6">
      <!-- 6 -->
      <g style="fill:#262626;" transform="translate(296.208516 242.013594)scale(0.11 -0.11)">
       <defs>
        <path d="M 49.75 54.046875 
L 41.015625 53.375 
Q 39.84375 58.546875 37.703125 60.890625 
Q 34.125 64.65625 28.90625 64.65625 
Q 24.703125 64.65625 21.53125 62.3125 
Q 17.390625 59.28125 14.984375 53.46875 
Q 12.59375 47.65625 12.5 36.921875 
Q 15.671875 41.75 20.265625 44.09375 
Q 24.859375 46.4375 29.890625 46.4375 
Q 38.671875 46.4375 44.84375 39.96875 
Q 51.03125 33.5 51.03125 23.25 
Q 51.03125 16.5 48.125 10.71875 
Q 45.21875 4.9375 40.140625 1.859375 
Q 35.0625 -1.21875 28.609375 -1.21875 
Q 17.625 -1.21875 10.6875 6.859375 
Q 3.765625 14.9375 3.765625 33.5 
Q 3.765625 54.25 11.421875 63.671875 
Q 18.109375 71.875 29.4375 71.875 
Q 37.890625 71.875 43.28125 67.140625 
Q 48.6875 62.40625 49.75 54.046875 
z
M 13.875 23.1875 
Q 13.875 18.65625 15.796875 14.5 
Q 17.71875 10.359375 21.1875 8.171875 
Q 24.65625 6 28.46875 6 
Q 34.03125 6 38.03125 10.484375 
Q 42.046875 14.984375 42.046875 22.703125 
Q 42.046875 30.125 38.078125 34.390625 
Q 34.125 38.671875 28.125 38.671875 
Q 22.171875 38.671875 18.015625 34.390625 
Q 13.875 30.125 13.875 23.1875 
z
" id="ArialMT-54"/>
       </defs>
       <use xlink:href="#ArialMT-54"/>
      </g>
     </g>
    </g>
    <g id="xtick_7">
     <g id="line2d_7">
      <g>
       <use style="fill:#262626;stroke:#262626;stroke-width:1.25;" x="343.907031" xlink:href="#mb59d179b87" y="224.64"/>
      </g>
     </g>
     <g id="text_7">
      <!-- 8 -->
      <g style="fill:#262626;" transform="translate(340.848516 242.013594)scale(0.11 -0.11)">
       <defs>
        <path d="M 17.671875 38.8125 
Q 12.203125 40.828125 9.5625 44.53125 
Q 6.9375 48.25 6.9375 53.421875 
Q 6.9375 61.234375 12.546875 66.546875 
Q 18.171875 71.875 27.484375 71.875 
Q 36.859375 71.875 42.578125 66.421875 
Q 48.296875 60.984375 48.296875 53.171875 
Q 48.296875 48.1875 45.671875 44.5 
Q 43.0625 40.828125 37.75 38.8125 
Q 44.34375 36.671875 47.78125 31.875 
Q 51.21875 27.09375 51.21875 20.453125 
Q 51.21875 11.28125 44.71875 5.03125 
Q 38.234375 -1.21875 27.640625 -1.21875 
Q 17.046875 -1.21875 10.546875 5.046875 
Q 4.046875 11.328125 4.046875 20.703125 
Q 4.046875 27.6875 7.59375 32.390625 
Q 11.140625 37.109375 17.671875 38.8125 
z
M 15.921875 53.71875 
Q 15.921875 48.640625 19.1875 45.40625 
Q 22.46875 42.1875 27.6875 42.1875 
Q 32.765625 42.1875 36.015625 45.375 
Q 39.265625 48.578125 39.265625 53.21875 
Q 39.265625 58.0625 35.90625 61.359375 
Q 32.5625 64.65625 27.59375 64.65625 
Q 22.5625 64.65625 19.234375 61.421875 
Q 15.921875 58.203125 15.921875 53.71875 
z
M 13.09375 20.65625 
Q 13.09375 16.890625 14.875 13.375 
Q 16.65625 9.859375 20.171875 7.921875 
Q 23.6875 6 27.734375 6 
Q 34.03125 6 38.125 10.046875 
Q 42.234375 14.109375 42.234375 20.359375 
Q 42.234375 26.703125 38.015625 30.859375 
Q 33.796875 35.015625 27.4375 35.015625 
Q 21.234375 35.015625 17.15625 30.90625 
Q 13.09375 26.8125 13.09375 20.65625 
z
" id="ArialMT-56"/>
       </defs>
       <use xlink:href="#ArialMT-56"/>
      </g>
     </g>
    </g>
    <g id="xtick_8">
     <g id="line2d_8">
      <g>
       <use style="fill:#262626;stroke:#262626;stroke-width:1.25;" x="388.547031" xlink:href="#mb59d179b87" y="224.64"/>
      </g>
     </g>
     <g id="text_8">
      <!-- 10 -->
      <g style="fill:#262626;" transform="translate(382.43 242.013594)scale(0.11 -0.11)">
       <defs>
        <path d="M 37.25 0 
L 28.46875 0 
L 28.46875 56 
Q 25.296875 52.984375 20.140625 49.953125 
Q 14.984375 46.921875 10.890625 45.40625 
L 10.890625 53.90625 
Q 18.265625 57.375 23.78125 62.296875 
Q 29.296875 67.234375 31.59375 71.875 
L 37.25 71.875 
z
" id="ArialMT-49"/>
       </defs>
       <use xlink:href="#ArialMT-49"/>
       <use x="55.615234" xlink:href="#ArialMT-48"/>
      </g>
     </g>
    </g>
    <g id="text_9">
     <!-- $x$ -->
     <g style="fill:#262626;" transform="translate(217.547031 256.789219)scale(0.12 -0.12)">
      <defs>
       <path d="M 60.015625 54.6875 
L 34.90625 27.875 
L 50.296875 0 
L 39.984375 0 
L 28.421875 21.6875 
L 8.296875 0 
L -2.59375 0 
L 24.3125 28.8125 
L 10.015625 54.6875 
L 20.3125 54.6875 
L 30.8125 34.90625 
L 49.125 54.6875 
z
" id="DejaVuSans-Oblique-120"/>
      </defs>
      <use transform="translate(0 0.3125)" xlink:href="#DejaVuSans-Oblique-120"/>
     </g>
    </g>
   </g>
   <g id="matplotlib.axis_2">
    <g id="ytick_1">
     <g id="line2d_9">
      <defs>
       <path d="M 0 0 
L -6 0 
" id="m15edaaca80" style="stroke:#262626;stroke-width:1.25;"/>
      </defs>
      <g>
       <use style="fill:#262626;stroke:#262626;stroke-width:1.25;" x="53.747031" xlink:href="#m15edaaca80" y="214.756364"/>
      </g>
     </g>
     <g id="text_10">
      <!-- 0.00 -->
      <g style="fill:#262626;" transform="translate(22.84 218.693161)scale(0.11 -0.11)">
       <defs>
        <path d="M 9.078125 0 
L 9.078125 10.015625 
L 19.09375 10.015625 
L 19.09375 0 
z
" id="ArialMT-46"/>
       </defs>
       <use xlink:href="#ArialMT-48"/>
       <use x="55.615234" xlink:href="#ArialMT-46"/>
       <use x="83.398438" xlink:href="#ArialMT-48"/>
       <use x="139.013672" xlink:href="#ArialMT-48"/>
      </g>
     </g>
    </g>
    <g id="ytick_2">
     <g id="line2d_10">
      <g>
       <use style="fill:#262626;stroke:#262626;stroke-width:1.25;" x="53.747031" xlink:href="#m15edaaca80" y="179.535108"/>
      </g>
     </g>
     <g id="text_11">
      <!-- 0.05 -->
      <g style="fill:#262626;" transform="translate(22.84 183.471905)scale(0.11 -0.11)">
       <defs>
        <path d="M 4.15625 18.75 
L 13.375 19.53125 
Q 14.40625 12.796875 18.140625 9.390625 
Q 21.875 6 27.15625 6 
Q 33.5 6 37.890625 10.78125 
Q 42.28125 15.578125 42.28125 23.484375 
Q 42.28125 31 38.0625 35.34375 
Q 33.84375 39.703125 27 39.703125 
Q 22.75 39.703125 19.328125 37.765625 
Q 15.921875 35.84375 13.96875 32.765625 
L 5.71875 33.84375 
L 12.640625 70.609375 
L 48.25 70.609375 
L 48.25 62.203125 
L 19.671875 62.203125 
L 15.828125 42.96875 
Q 22.265625 47.46875 29.34375 47.46875 
Q 38.71875 47.46875 45.15625 40.96875 
Q 51.609375 34.46875 51.609375 24.265625 
Q 51.609375 14.546875 45.953125 7.46875 
Q 39.0625 -1.21875 27.15625 -1.21875 
Q 17.390625 -1.21875 11.203125 4.25 
Q 5.03125 9.71875 4.15625 18.75 
z
" id="ArialMT-53"/>
       </defs>
       <use xlink:href="#ArialMT-48"/>
       <use x="55.615234" xlink:href="#ArialMT-46"/>
       <use x="83.398438" xlink:href="#ArialMT-48"/>
       <use x="139.013672" xlink:href="#ArialMT-53"/>
      </g>
     </g>
    </g>
    <g id="ytick_3">
     <g id="line2d_11">
      <g>
       <use style="fill:#262626;stroke:#262626;stroke-width:1.25;" x="53.747031" xlink:href="#m15edaaca80" y="144.313853"/>
      </g>
     </g>
     <g id="text_12">
      <!-- 0.10 -->
      <g style="fill:#262626;" transform="translate(22.84 148.25065)scale(0.11 -0.11)">
       <use xlink:href="#ArialMT-48"/>
       <use x="55.615234" xlink:href="#ArialMT-46"/>
       <use x="83.398438" xlink:href="#ArialMT-49"/>
       <use x="139.013672" xlink:href="#ArialMT-48"/>
      </g>
     </g>
    </g>
    <g id="ytick_4">
     <g id="line2d_12">
      <g>
       <use style="fill:#262626;stroke:#262626;stroke-width:1.25;" x="53.747031" xlink:href="#m15edaaca80" y="109.092598"/>
      </g>
     </g>
     <g id="text_13">
      <!-- 0.15 -->
      <g style="fill:#262626;" transform="translate(22.84 113.029395)scale(0.11 -0.11)">
       <use xlink:href="#ArialMT-48"/>
       <use x="55.615234" xlink:href="#ArialMT-46"/>
       <use x="83.398438" xlink:href="#ArialMT-49"/>
       <use x="139.013672" xlink:href="#ArialMT-53"/>
      </g>
     </g>
    </g>
    <g id="ytick_5">
     <g id="line2d_13">
      <g>
       <use style="fill:#262626;stroke:#262626;stroke-width:1.25;" x="53.747031" xlink:href="#m15edaaca80" y="73.871342"/>
      </g>
     </g>
     <g id="text_14">
      <!-- 0.20 -->
      <g style="fill:#262626;" transform="translate(22.84 77.808139)scale(0.11 -0.11)">
       <use xlink:href="#ArialMT-48"/>
       <use x="55.615234" xlink:href="#ArialMT-46"/>
       <use x="83.398438" xlink:href="#ArialMT-50"/>
       <use x="139.013672" xlink:href="#ArialMT-48"/>
      </g>
     </g>
    </g>
    <g id="ytick_6">
     <g id="line2d_14">
      <g>
       <use style="fill:#262626;stroke:#262626;stroke-width:1.25;" x="53.747031" xlink:href="#m15edaaca80" y="38.650087"/>
      </g>
     </g>
     <g id="text_15">
      <!-- 0.25 -->
      <g style="fill:#262626;" transform="translate(22.84 42.586884)scale(0.11 -0.11)">
       <use xlink:href="#ArialMT-48"/>
       <use x="55.615234" xlink:href="#ArialMT-46"/>
       <use x="83.398438" xlink:href="#ArialMT-50"/>
       <use x="139.013672" xlink:href="#ArialMT-53"/>
      </g>
     </g>
    </g>
    <g id="text_16">
     <!-- $p(x)$ -->
     <g style="fill:#262626;" transform="translate(16.32 127.98)rotate(-90)scale(0.12 -0.12)">
      <defs>
       <path d="M 49.609375 33.6875 
Q 49.609375 40.875 46.484375 44.671875 
Q 43.359375 48.484375 37.5 48.484375 
Q 33.5 48.484375 29.859375 46.4375 
Q 26.21875 44.390625 23.390625 40.484375 
Q 20.609375 36.625 18.9375 31.15625 
Q 17.28125 25.6875 17.28125 20.3125 
Q 17.28125 13.484375 20.40625 9.796875 
Q 23.53125 6.109375 29.296875 6.109375 
Q 33.546875 6.109375 37.1875 8.109375 
Q 40.828125 10.109375 43.40625 13.921875 
Q 46.1875 17.921875 47.890625 23.34375 
Q 49.609375 28.765625 49.609375 33.6875 
z
M 21.78125 46.390625 
Q 25.390625 51.125 30.296875 53.5625 
Q 35.203125 56 41.21875 56 
Q 49.609375 56 54.25 50.5 
Q 58.890625 45.015625 58.890625 35.109375 
Q 58.890625 27 56 19.65625 
Q 53.125 12.3125 47.703125 6.5 
Q 44.09375 2.640625 39.546875 0.609375 
Q 35.015625 -1.421875 29.984375 -1.421875 
Q 24.171875 -1.421875 20.21875 1 
Q 16.265625 3.421875 14.3125 8.203125 
L 8.6875 -20.796875 
L -0.296875 -20.796875 
L 14.40625 54.6875 
L 23.390625 54.6875 
z
" id="DejaVuSans-Oblique-112"/>
       <path d="M 31 75.875 
Q 24.46875 64.65625 21.28125 53.65625 
Q 18.109375 42.671875 18.109375 31.390625 
Q 18.109375 20.125 21.3125 9.0625 
Q 24.515625 -2 31 -13.1875 
L 23.1875 -13.1875 
Q 15.875 -1.703125 12.234375 9.375 
Q 8.59375 20.453125 8.59375 31.390625 
Q 8.59375 42.28125 12.203125 53.3125 
Q 15.828125 64.359375 23.1875 75.875 
z
" id="DejaVuSans-40"/>
       <path d="M 8.015625 75.875 
L 15.828125 75.875 
Q 23.140625 64.359375 26.78125 53.3125 
Q 30.421875 42.28125 30.421875 31.390625 
Q 30.421875 20.453125 26.78125 9.375 
Q 23.140625 -1.703125 15.828125 -13.1875 
L 8.015625 -13.1875 
Q 14.5 -2 17.703125 9.0625 
Q 20.90625 20.125 20.90625 31.390625 
Q 20.90625 42.671875 17.703125 53.65625 
Q 14.5 64.65625 8.015625 75.875 
z
" id="DejaVuSans-41"/>
      </defs>
      <use transform="translate(0 0.125)" xlink:href="#DejaVuSans-Oblique-112"/>
      <use transform="translate(63.476562 0.125)" xlink:href="#DejaVuSans-40"/>
      <use transform="translate(102.490234 0.125)" xlink:href="#DejaVuSans-Oblique-120"/>
      <use transform="translate(161.669922 0.125)" xlink:href="#DejaVuSans-41"/>
     </g>
    </g>
   </g>
   <g id="PolyCollection_1">
    <defs>
     <path d="M 53.747031 -51.618169 
L 53.747031 -51.617855 
L 55.429443 -51.617855 
L 57.111855 -51.617855 
L 58.794267 -51.617855 
L 60.476679 -51.617855 
L 62.159092 -51.617855 
L 63.841504 -51.617855 
L 65.523916 -51.617855 
L 67.206328 -51.617855 
L 68.88874 -51.617855 
L 70.571152 -51.617855 
L 72.253564 -51.617855 
L 73.935976 -51.617855 
L 75.618388 -51.617855 
L 77.3008 -51.617855 
L 78.983212 -51.617855 
L 80.665624 -51.617855 
L 82.348036 -51.617855 
L 84.030448 -51.617855 
L 85.71286 -51.617855 
L 87.395272 -51.617855 
L 89.077685 -51.617855 
L 90.760097 -51.617855 
L 92.442509 -51.617855 
L 94.124921 -51.617855 
L 95.807333 -51.617855 
L 97.489745 -51.617855 
L 99.172157 -51.617855 
L 100.854569 -51.617855 
L 102.536981 -51.617855 
L 104.219393 -51.617855 
L 105.901805 -51.617855 
L 107.584217 -51.617855 
L 109.266629 -51.617855 
L 110.949041 -51.617855 
L 112.631453 -51.617855 
L 114.313865 -51.617855 
L 115.996277 -51.617855 
L 117.67869 -51.617855 
L 119.361102 -51.617855 
L 121.043514 -51.617855 
L 122.725926 -51.617855 
L 124.408338 -51.617855 
L 126.09075 -51.617855 
L 127.773162 -51.617855 
L 129.455574 -51.617855 
L 131.137986 -51.617855 
L 132.820398 -51.617855 
L 134.50281 -51.617855 
L 136.185222 -51.617855 
L 137.867634 -51.617855 
L 139.550046 -51.617855 
L 141.232458 -51.617855 
L 142.91487 -51.617855 
L 144.597283 -51.617855 
L 146.279695 -51.617855 
L 147.962107 -51.617855 
L 149.644519 -51.617855 
L 151.326931 -51.617855 
L 153.009343 -51.617855 
L 154.691755 -51.617855 
L 156.374167 -51.617855 
L 158.056579 -51.617855 
L 159.738991 -51.617855 
L 161.421403 -51.617855 
L 163.103815 -51.617855 
L 164.786227 -51.617855 
L 166.468639 -51.617855 
L 168.151051 -51.617855 
L 169.833463 -51.617855 
L 171.515875 -51.617855 
L 173.198288 -51.617855 
L 174.8807 -51.617855 
L 176.563112 -51.617855 
L 178.245524 -51.617855 
L 179.927936 -51.617855 
L 181.610348 -51.617855 
L 183.29276 -51.617855 
L 184.975172 -51.617855 
L 186.657584 -51.617855 
L 188.339996 -51.617855 
L 190.022408 -51.617855 
L 191.70482 -51.617855 
L 193.387232 -51.617855 
L 195.069644 -51.617855 
L 196.752056 -51.617855 
L 198.434468 -51.617855 
L 200.11688 -51.617855 
L 201.799293 -51.617855 
L 203.481705 -51.617855 
L 205.164117 -51.617855 
L 206.846529 -51.617855 
L 208.528941 -51.617855 
L 210.211353 -51.617855 
L 211.893765 -51.617855 
L 213.576177 -51.617855 
L 215.258589 -51.617855 
L 216.941001 -51.617855 
L 218.623413 -51.617855 
L 220.305825 -51.617855 
L 221.988237 -51.617855 
L 223.670649 -51.617855 
L 225.353061 -51.617855 
L 227.035473 -51.617855 
L 228.717886 -51.617855 
L 230.400298 -51.617855 
L 232.08271 -51.617855 
L 233.765122 -51.617855 
L 235.447534 -51.617855 
L 237.129946 -51.617855 
L 238.812358 -51.617855 
L 240.49477 -51.617855 
L 242.177182 -51.617855 
L 243.859594 -51.617855 
L 245.542006 -51.617855 
L 247.224418 -51.617855 
L 248.90683 -51.617855 
L 250.589242 -51.617855 
L 252.271654 -51.617855 
L 253.954066 -51.617855 
L 255.636478 -51.617855 
L 257.318891 -51.617855 
L 259.001303 -51.617855 
L 260.683715 -51.617855 
L 262.366127 -51.617855 
L 264.048539 -51.617855 
L 265.730951 -51.617855 
L 267.413363 -51.617855 
L 269.095775 -51.617855 
L 270.778187 -51.617855 
L 272.460599 -51.617855 
L 274.143011 -51.617855 
L 275.825423 -51.617855 
L 277.507835 -51.617855 
L 279.190247 -51.617855 
L 280.872659 -51.617855 
L 282.555071 -51.617855 
L 284.237484 -51.617855 
L 285.919896 -51.617855 
L 287.602308 -51.617855 
L 289.28472 -51.617855 
L 290.967132 -51.617855 
L 292.649544 -51.617855 
L 294.331956 -51.617855 
L 296.014368 -51.617855 
L 297.69678 -51.617855 
L 299.379192 -51.617855 
L 301.061604 -51.617855 
L 302.744016 -51.617855 
L 304.426428 -51.617855 
L 306.10884 -51.617855 
L 307.791252 -51.617855 
L 309.473664 -51.617855 
L 311.156076 -51.617855 
L 312.838489 -51.617855 
L 314.520901 -51.617855 
L 316.203313 -51.617855 
L 317.885725 -51.617855 
L 319.568137 -51.617855 
L 321.250549 -51.617855 
L 322.932961 -51.617855 
L 324.615373 -51.617855 
L 326.297785 -51.617855 
L 327.980197 -51.617855 
L 329.662609 -51.617855 
L 331.345021 -51.617855 
L 333.027433 -51.617855 
L 334.709845 -51.617855 
L 336.392257 -51.617855 
L 338.074669 -51.617855 
L 339.757082 -51.617855 
L 341.439494 -51.617855 
L 343.121906 -51.617855 
L 344.804318 -51.617855 
L 346.48673 -51.617855 
L 348.169142 -51.617855 
L 349.851554 -51.617855 
L 351.533966 -51.617855 
L 353.216378 -51.617855 
L 354.89879 -51.617855 
L 356.581202 -51.617855 
L 358.263614 -51.617855 
L 359.946026 -51.617855 
L 361.628438 -51.617855 
L 363.31085 -51.617855 
L 364.993262 -51.617855 
L 366.675674 -51.617855 
L 368.358087 -51.617855 
L 370.040499 -51.617855 
L 371.722911 -51.617855 
L 373.405323 -51.617855 
L 375.087735 -51.617855 
L 376.770147 -51.617855 
L 378.452559 -51.617855 
L 380.134971 -51.617855 
L 381.817383 -51.617855 
L 383.499795 -51.617855 
L 385.182207 -51.617855 
L 386.864619 -51.617855 
L 388.547031 -51.617855 
L 388.547031 -51.617855 
L 388.547031 -51.617855 
L 386.864619 -51.617855 
L 385.182207 -51.617855 
L 383.499795 -51.617855 
L 381.817383 -51.617855 
L 380.134971 -51.617855 
L 378.452559 -51.617855 
L 376.770147 -51.617855 
L 375.087735 -51.617855 
L 373.405323 -51.617856 
L 371.722911 -51.617856 
L 370.040499 -51.617856 
L 368.358087 -51.617857 
L 366.675674 -51.617858 
L 364.993262 -51.617859 
L 363.31085 -51.617862 
L 361.628438 -51.617865 
L 359.946026 -51.617871 
L 358.263614 -51.617879 
L 356.581202 -51.617892 
L 354.89879 -51.61791 
L 353.216378 -51.617939 
L 351.533966 -51.61798 
L 349.851554 -51.618042 
L 348.169142 -51.618132 
L 346.48673 -51.618264 
L 344.804318 -51.618454 
L 343.121906 -51.618729 
L 341.439494 -51.619122 
L 339.757082 -51.619681 
L 338.074669 -51.620472 
L 336.392257 -51.621585 
L 334.709845 -51.62314 
L 333.027433 -51.625303 
L 331.345021 -51.628291 
L 329.662609 -51.632394 
L 327.980197 -51.637996 
L 326.297785 -51.645599 
L 324.615373 -51.655856 
L 322.932961 -51.669609 
L 321.250549 -51.68794 
L 319.568137 -51.712227 
L 317.885725 -51.74421 
L 316.203313 -51.786073 
L 314.520901 -51.840537 
L 312.838489 -51.910965 
L 311.156076 -52.001481 
L 309.473664 -52.117106 
L 307.791252 -52.263899 
L 306.10884 -52.449117 
L 304.426428 -52.681376 
L 302.744016 -52.97082 
L 301.061604 -53.329288 
L 299.379192 -53.770465 
L 297.69678 -54.310031 
L 296.014368 -54.965767 
L 294.331956 -55.757634 
L 292.649544 -56.707796 
L 290.967132 -57.840584 
L 289.28472 -59.182378 
L 287.602308 -60.761402 
L 285.919896 -62.607417 
L 284.237484 -64.7513 
L 282.555071 -67.224498 
L 280.872659 -70.058366 
L 279.190247 -73.283371 
L 277.507835 -76.928184 
L 275.825423 -81.018664 
L 274.143011 -85.57675 
L 272.460599 -90.619298 
L 270.778187 -96.156887 
L 269.095775 -102.192629 
L 267.413363 -108.721044 
L 265.730951 -115.727032 
L 264.048539 -123.185003 
L 262.366127 -131.058212 
L 260.683715 -139.298354 
L 259.001303 -147.845457 
L 257.318891 -156.628113 
L 255.636478 -165.564083 
L 253.954066 -174.561269 
L 252.271654 -183.519087 
L 250.589242 -192.330189 
L 248.90683 -200.882533 
L 247.224418 -209.061741 
L 245.542006 -216.753686 
L 243.859594 -223.847222 
L 242.177182 -230.237 
L 240.49477 -235.826239 
L 238.812358 -240.529388 
L 237.129946 -244.274567 
L 235.447534 -247.005702 
L 233.765122 -248.684268 
L 232.08271 -249.290582 
L 230.400298 -248.824584 
L 228.717886 -247.306078 
L 227.035473 -244.774426 
L 225.353061 -241.287687 
L 223.670649 -236.921249 
L 221.988237 -231.765984 
L 220.305825 -225.925999 
L 218.623413 -219.516058 
L 216.941001 -212.658755 
L 215.258589 -205.481542 
L 213.576177 -198.113685 
L 211.893765 -190.683268 
L 210.211353 -183.3143 
L 208.528941 -176.124029 
L 206.846529 -169.220513 
L 205.164117 -162.700511 
L 203.481705 -156.647729 
L 201.799293 -151.13146 
L 200.11688 -146.205619 
L 198.434468 -141.908189 
L 196.752056 -138.261064 
L 195.069644 -135.270264 
L 193.387232 -132.92652 
L 191.70482 -131.206168 
L 190.022408 -130.072337 
L 188.339996 -129.476386 
L 186.657584 -129.359538 
L 184.975172 -129.65468 
L 183.29276 -130.288278 
L 181.610348 -131.18235 
L 179.927936 -132.256482 
L 178.245524 -133.429802 
L 176.563112 -134.622904 
L 174.8807 -135.759659 
L 173.198288 -136.76888 
L 171.515875 -137.585806 
L 169.833463 -138.153379 
L 168.151051 -138.423272 
L 166.468639 -138.356668 
L 164.786227 -137.924761 
L 163.103815 -137.108984 
L 161.421403 -135.900961 
L 159.738991 -134.302191 
L 158.056579 -132.323495 
L 156.374167 -129.984234 
L 154.691755 -127.311348 
L 153.009343 -124.338232 
L 151.326931 -121.103516 
L 149.644519 -117.649767 
L 147.962107 -114.022172 
L 146.279695 -110.267241 
L 144.597283 -106.431561 
L 142.91487 -102.56065 
L 141.232458 -98.697929 
L 139.550046 -94.883836 
L 137.867634 -91.155105 
L 136.185222 -87.544214 
L 134.50281 -84.079005 
L 132.820398 -80.782468 
L 131.137986 -77.672689 
L 129.455574 -74.762936 
L 127.773162 -72.061871 
L 126.09075 -69.573868 
L 124.408338 -67.299407 
L 122.725926 -65.235531 
L 121.043514 -63.376339 
L 119.361102 -61.71349 
L 117.67869 -60.236711 
L 115.996277 -58.934282 
L 114.313865 -57.793491 
L 112.631453 -56.801049 
L 110.949041 -55.943453 
L 109.266629 -55.207304 
L 107.584217 -54.579562 
L 105.901805 -54.047759 
L 104.219393 -53.600153 
L 102.536981 -53.225838 
L 100.854569 -52.914814 
L 99.172157 -52.658024 
L 97.489745 -52.447351 
L 95.807333 -52.275599 
L 94.124921 -52.136454 
L 92.442509 -52.024429 
L 90.760097 -51.934797 
L 89.077685 -51.863525 
L 87.395272 -51.807202 
L 85.71286 -51.762965 
L 84.030448 -51.728432 
L 82.348036 -51.701641 
L 80.665624 -51.68098 
L 78.983212 -51.665145 
L 77.3008 -51.653082 
L 75.618388 -51.643947 
L 73.935976 -51.637071 
L 72.253564 -51.631927 
L 70.571152 -51.628102 
L 68.88874 -51.625274 
L 67.206328 -51.623197 
L 65.523916 -51.621679 
L 63.841504 -51.620577 
L 62.159092 -51.619781 
L 60.476679 -51.619211 
L 58.794267 -51.618804 
L 57.111855 -51.618515 
L 55.429443 -51.618312 
L 53.747031 -51.618169 
z
" id="m39ed05a1b2" style="stroke:#4c72b0;stroke-opacity:0.5;"/>
    </defs>
    <g clip-path="url(#paf33384996)">
     <use style="fill:#4c72b0;fill-opacity:0.5;stroke:#4c72b0;stroke-opacity:0.5;" x="0" xlink:href="#m39ed05a1b2" y="266.374219"/>
    </g>
   </g>
   <g id="line2d_15">
    <path clip-path="url(#paf33384996)" d="M 53.747031 214.756049 
L 84.030448 214.645786 
L 90.760097 214.439422 
L 95.807333 214.09862 
L 99.172157 213.716195 
L 102.536981 213.148381 
L 105.901805 212.326459 
L 109.266629 211.166915 
L 110.949041 210.430766 
L 112.631453 209.57317 
L 114.313865 208.580728 
L 115.996277 207.439937 
L 117.67869 206.137508 
L 119.361102 204.660729 
L 121.043514 202.99788 
L 122.725926 201.138687 
L 124.408338 199.074812 
L 126.09075 196.800351 
L 127.773162 194.312348 
L 131.137986 188.70153 
L 134.50281 182.295214 
L 137.867634 175.219114 
L 142.91487 163.813568 
L 147.962107 152.352047 
L 151.326931 145.270703 
L 153.009343 142.035987 
L 154.691755 139.062871 
L 156.374167 136.389984 
L 158.056579 134.050724 
L 159.738991 132.072028 
L 161.421403 130.473258 
L 163.103815 129.265234 
L 164.786227 128.449458 
L 166.468639 128.017551 
L 168.151051 127.950947 
L 169.833463 128.22084 
L 171.515875 128.788413 
L 173.198288 129.605339 
L 176.563112 131.751315 
L 179.927936 134.117737 
L 181.610348 135.191869 
L 183.29276 136.085941 
L 184.975172 136.719538 
L 186.657584 137.014681 
L 188.339996 136.897833 
L 190.022408 136.301882 
L 191.70482 135.168051 
L 193.387232 133.447699 
L 195.069644 131.103955 
L 196.752056 128.113155 
L 198.434468 124.466029 
L 200.11688 120.1686 
L 201.799293 115.242759 
L 203.481705 109.72649 
L 205.164117 103.673708 
L 208.528941 90.25019 
L 213.576177 68.260533 
L 216.941001 53.715463 
L 220.305825 40.44822 
L 221.988237 34.608235 
L 223.670649 29.45297 
L 225.353061 25.086532 
L 227.035473 21.599793 
L 228.717886 19.068141 
L 230.400298 17.549635 
L 232.08271 17.083636 
L 233.765122 17.68995 
L 235.447534 19.368517 
L 237.129946 22.099652 
L 238.812358 25.844831 
L 240.49477 30.54798 
L 242.177182 36.137219 
L 243.859594 42.526996 
L 245.542006 49.620533 
L 248.90683 65.491686 
L 252.271654 82.855132 
L 260.683715 127.075864 
L 264.048539 143.189216 
L 267.413363 157.653175 
L 269.095775 164.18159 
L 270.778187 170.217332 
L 272.460599 175.75492 
L 274.143011 180.797469 
L 275.825423 185.355555 
L 277.507835 189.446034 
L 279.190247 193.090848 
L 280.872659 196.315853 
L 282.555071 199.14972 
L 284.237484 201.622919 
L 285.919896 203.766801 
L 287.602308 205.612817 
L 289.28472 207.191841 
L 290.967132 208.533635 
L 292.649544 209.666422 
L 294.331956 210.616585 
L 296.014368 211.408451 
L 299.379192 212.603754 
L 302.744016 213.403398 
L 306.10884 213.925102 
L 311.156076 214.372737 
L 317.885725 214.630009 
L 327.980197 214.736222 
L 366.675674 214.756361 
L 388.547031 214.756364 
L 388.547031 214.756364 
" style="fill:none;stroke:#4c72b0;stroke-linecap:round;stroke-width:1.5;"/>
   </g>
   <g id="line2d_16">
    <defs>
     <path d="M 0 3 
C 0.795609 3 1.55874 2.683901 2.12132 2.12132 
C 2.683901 1.55874 3 0.795609 3 0 
C 3 -0.795609 2.683901 -1.55874 2.12132 -2.12132 
C 1.55874 -2.683901 0.795609 -3 0 -3 
C -0.795609 -3 -1.55874 -2.683901 -2.12132 -2.12132 
C -2.683901 -1.55874 -3 -0.795609 -3 0 
C -3 0.795609 -2.683901 1.55874 -2.12132 2.12132 
C -1.55874 2.683901 -0.795609 3 0 3 
z
" id="m686e5b0b53" style="stroke:#c44e52;"/>
    </defs>
    <g clip-path="url(#paf33384996)">
     <use style="fill:#c44e52;stroke:#c44e52;" x="212.219031" xlink:href="#m686e5b0b53" y="214.756364"/>
    </g>
   </g>
   <g id="patch_3">
    <path d="M 53.747031 224.64 
L 53.747031 7.2 
" style="fill:none;stroke:#262626;stroke-linecap:square;stroke-linejoin:miter;stroke-width:1.25;"/>
   </g>
   <g id="patch_4">
    <path d="M 388.547031 224.64 
L 388.547031 7.2 
" style="fill:none;stroke:#262626;stroke-linecap:square;stroke-linejoin:miter;stroke-width:1.25;"/>
   </g>
   <g id="patch_5">
    <path d="M 53.747031 224.64 
L 388.547031 224.64 
" style="fill:none;stroke:#262626;stroke-linecap:square;stroke-linejoin:miter;stroke-width:1.25;"/>
   </g>
   <g id="patch_6">
    <path d="M 53.747031 7.2 
L 388.547031 7.2 
" style="fill:none;stroke:#262626;stroke-linecap:square;stroke-linejoin:miter;stroke-width:1.25;"/>
   </g>
   <g id="legend_1">
    <g id="patch_7">
     <path d="M 299.557031 47.119687 
L 380.847031 47.119687 
Q 383.047031 47.119687 383.047031 44.919687 
L 383.047031 14.9 
Q 383.047031 12.7 380.847031 12.7 
L 299.557031 12.7 
Q 297.357031 12.7 297.357031 14.9 
L 297.357031 44.919687 
Q 297.357031 47.119687 299.557031 47.119687 
z
" style="fill:#ffffff;opacity:0.8;stroke:#cccccc;stroke-linejoin:miter;"/>
    </g>
    <g id="line2d_17">
     <path d="M 301.757031 21.123594 
L 323.757031 21.123594 
" style="fill:none;stroke:#4c72b0;stroke-linecap:round;stroke-width:1.5;"/>
    </g>
    <g id="line2d_18"/>
    <g id="text_17">
     <!-- PMF of $X$ -->
     <g style="fill:#262626;" transform="translate(332.557031 24.973594)scale(0.11 -0.11)">
      <defs>
       <path d="M 7.71875 0 
L 7.71875 71.578125 
L 34.71875 71.578125 
Q 41.84375 71.578125 45.609375 70.90625 
Q 50.875 70.015625 54.4375 67.546875 
Q 58.015625 65.09375 60.1875 60.640625 
Q 62.359375 56.203125 62.359375 50.875 
Q 62.359375 41.75 56.546875 35.421875 
Q 50.734375 29.109375 35.546875 29.109375 
L 17.1875 29.109375 
L 17.1875 0 
z
M 17.1875 37.546875 
L 35.6875 37.546875 
Q 44.875 37.546875 48.734375 40.96875 
Q 52.59375 44.390625 52.59375 50.59375 
Q 52.59375 55.078125 50.3125 58.265625 
Q 48.046875 61.46875 44.34375 62.5 
Q 41.9375 63.140625 35.5 63.140625 
L 17.1875 63.140625 
z
" id="ArialMT-80"/>
       <path d="M 7.421875 0 
L 7.421875 71.578125 
L 21.6875 71.578125 
L 38.625 20.90625 
Q 40.96875 13.8125 42.046875 10.296875 
Q 43.265625 14.203125 45.84375 21.78125 
L 62.984375 71.578125 
L 75.734375 71.578125 
L 75.734375 0 
L 66.609375 0 
L 66.609375 59.90625 
L 45.796875 0 
L 37.25 0 
L 16.546875 60.9375 
L 16.546875 0 
z
" id="ArialMT-77"/>
       <path d="M 8.203125 0 
L 8.203125 71.578125 
L 56.5 71.578125 
L 56.5 63.140625 
L 17.671875 63.140625 
L 17.671875 40.96875 
L 51.265625 40.96875 
L 51.265625 32.515625 
L 17.671875 32.515625 
L 17.671875 0 
z
" id="ArialMT-70"/>
       <path id="ArialMT-32"/>
       <path d="M 3.328125 25.921875 
Q 3.328125 40.328125 11.328125 47.265625 
Q 18.015625 53.03125 27.640625 53.03125 
Q 38.328125 53.03125 45.109375 46.015625 
Q 51.90625 39.015625 51.90625 26.65625 
Q 51.90625 16.65625 48.90625 10.90625 
Q 45.90625 5.171875 40.15625 2 
Q 34.421875 -1.171875 27.640625 -1.171875 
Q 16.75 -1.171875 10.03125 5.8125 
Q 3.328125 12.796875 3.328125 25.921875 
z
M 12.359375 25.921875 
Q 12.359375 15.96875 16.703125 11.015625 
Q 21.046875 6.0625 27.640625 6.0625 
Q 34.1875 6.0625 38.53125 11.03125 
Q 42.875 16.015625 42.875 26.21875 
Q 42.875 35.84375 38.5 40.796875 
Q 34.125 45.75 27.640625 45.75 
Q 21.046875 45.75 16.703125 40.8125 
Q 12.359375 35.890625 12.359375 25.921875 
z
" id="ArialMT-111"/>
       <path d="M 8.6875 0 
L 8.6875 45.015625 
L 0.921875 45.015625 
L 0.921875 51.859375 
L 8.6875 51.859375 
L 8.6875 57.375 
Q 8.6875 62.59375 9.625 65.140625 
Q 10.890625 68.5625 14.078125 70.671875 
Q 17.28125 72.796875 23.046875 72.796875 
Q 26.765625 72.796875 31.25 71.921875 
L 29.9375 64.265625 
Q 27.203125 64.75 24.75 64.75 
Q 20.75 64.75 19.09375 63.03125 
Q 17.4375 61.328125 17.4375 56.640625 
L 17.4375 51.859375 
L 27.546875 51.859375 
L 27.546875 45.015625 
L 17.4375 45.015625 
L 17.4375 0 
z
" id="ArialMT-102"/>
       <path d="M 13.71875 72.90625 
L 23.6875 72.90625 
L 36.1875 46.578125 
L 58.796875 72.90625 
L 70.3125 72.90625 
L 40.28125 38.09375 
L 58.40625 0 
L 48.484375 0 
L 33.796875 30.71875 
L 7.171875 0 
L -4.296875 0 
L 29.78125 39.203125 
z
" id="DejaVuSans-Oblique-88"/>
      </defs>
      <use transform="translate(0 0.09375)" xlink:href="#ArialMT-80"/>
      <use transform="translate(66.699219 0.09375)" xlink:href="#ArialMT-77"/>
      <use transform="translate(150 0.09375)" xlink:href="#ArialMT-70"/>
      <use transform="translate(211.083984 0.09375)" xlink:href="#ArialMT-32"/>
      <use transform="translate(238.867188 0.09375)" xlink:href="#ArialMT-111"/>
      <use transform="translate(294.482422 0.09375)" xlink:href="#ArialMT-102"/>
      <use transform="translate(322.265625 0.09375)" xlink:href="#ArialMT-32"/>
      <use transform="translate(350.048828 0.09375)" xlink:href="#DejaVuSans-Oblique-88"/>
     </g>
    </g>
    <g id="line2d_19"/>
    <g id="line2d_20">
     <g>
      <use style="fill:#c44e52;stroke:#c44e52;" x="312.757031" xlink:href="#m686e5b0b53" y="36.683437"/>
     </g>
    </g>
    <g id="text_18">
     <!-- $\mathbb{E}[X]$ -->
     <g style="fill:#262626;" transform="translate(332.557031 40.533437)scale(0.11 -0.11)">
      <defs>
       <path d="M 66.40625 65.296875 
L 65.5 61.59375 
L 33.59375 61.59375 
L 26.703125 35.40625 
L 54.90625 35.40625 
L 53.796875 31.703125 
L 25.703125 31.703125 
L 18.203125 3.703125 
L 53.796875 3.703125 
L 53 0 
L 1.703125 0 
L 19.203125 65.296875 
z
M 29.90625 61.59375 
L 22.09375 61.59375 
L 6.5 3.703125 
L 14.5 3.703125 
z
" id="STIXNonUnicode-Italic-57686"/>
       <path d="M 8.59375 75.984375 
L 29.296875 75.984375 
L 29.296875 69 
L 17.578125 69 
L 17.578125 -6.203125 
L 29.296875 -6.203125 
L 29.296875 -13.1875 
L 8.59375 -13.1875 
z
" id="DejaVuSans-91"/>
       <path d="M 30.421875 75.984375 
L 30.421875 -13.1875 
L 9.71875 -13.1875 
L 9.71875 -6.203125 
L 21.390625 -6.203125 
L 21.390625 69 
L 9.71875 69 
L 9.71875 75.984375 
z
" id="DejaVuSans-93"/>
      </defs>
      <use transform="translate(0 0.015625)" xlink:href="#STIXNonUnicode-Italic-57686"/>
      <use transform="translate(63.899994 0.015625)" xlink:href="#DejaVuSans-91"/>
      <use transform="translate(102.913666 0.015625)" xlink:href="#DejaVuSans-Oblique-88"/>
      <use transform="translate(171.419525 0.015625)" xlink:href="#DejaVuSans-93"/>
     </g>
    </g>
   </g>
  </g>
 </g>
 <defs>
  <clipPath id="paf33384996">
   <rect height="217.44" width="334.8" x="53.747031" y="7.2"/>
  </clipPath>
 </defs>
</svg>