<?xml version="1.0" encoding="utf-8" standalone="no"?>
<!DOCTYPE svg PUBLIC "-//W3C//DTD SVG 1.1//EN"
  "http://www.w3.org/Graphics/SVG/1.1/DTD/svg11.dtd">
<!-- Created with matplotlib (https://matplotlib.org/) -->
<svg height="266.661094pt" version="1.1" viewBox="0 0 402.869082 266.661094" width="402.869082pt" xmlns="http://www.w3.org/2000/svg" xmlns:xlink="http://www.w3.org/1999/xlink">
 <metadata>
  <rdf:RDF xmlns:cc="http://creativecommons.org/ns#" xmlns:dc="http://purl.org/dc/elements/1.1/" xmlns:rdf="http://www.w3.org/1999/02/22-rdf-syntax-ns#">
   <cc:Work>
    <dc:type rdf:resource="http://purl.org/dc/dcmitype/StillImage"/>
    <dc:date>2021-08-09T09:20:20.797148</dc:date>
    <dc:format>image/svg+xml</dc:format>
    <dc:creator>
     <cc:Agent>
      <dc:title>Matplotlib v3.3.4, https://matplotlib.org/</dc:title>
     </cc:Agent>
    </dc:creator>
   </cc:Work>
  </rdf:RDF>
 </metadata>
 <defs>
  <style type="text/css">*{stroke-linecap:butt;stroke-linejoin:round;}</style>
 </defs>
 <g id="figure_1">
  <g id="patch_1">
   <path d="M 0 266.661094 
L 402.869082 266.661094 
L 402.869082 0 
L 0 0 
z
" style="fill:#ffffff;"/>
  </g>
  <g id="axes_1">
   <g id="patch_2">
    <path d="M 56.737031 224.64 
L 391.537031 224.64 
L 391.537031 7.2 
L 56.737031 7.2 
z
" style="fill:#ffffff;"/>
   </g>
   <g id="matplotlib.axis_1">
    <g id="xtick_1">
     <g id="line2d_1">
      <defs>
       <path d="M 0 0 
L 0 6 
" id="m4077722ba0" style="stroke:#262626;stroke-width:1.25;"/>
      </defs>
      <g>
       <use style="fill:#262626;stroke:#262626;stroke-width:1.25;" x="58.722011" xlink:href="#m4077722ba0" y="224.64"/>
      </g>
     </g>
     <g id="text_1">
      <!-- 0 -->
      <g style="fill:#262626;" transform="translate(55.663496 242.013594)scale(0.11 -0.11)">
       <defs>
        <path d="M 4.15625 35.296875 
Q 4.15625 48 6.765625 55.734375 
Q 9.375 63.484375 14.515625 67.671875 
Q 19.671875 71.875 27.484375 71.875 
Q 33.25 71.875 37.59375 69.546875 
Q 41.9375 67.234375 44.765625 62.859375 
Q 47.609375 58.5 49.21875 52.21875 
Q 50.828125 45.953125 50.828125 35.296875 
Q 50.828125 22.703125 48.234375 14.96875 
Q 45.65625 7.234375 40.5 3 
Q 35.359375 -1.21875 27.484375 -1.21875 
Q 17.140625 -1.21875 11.234375 6.203125 
Q 4.15625 15.140625 4.15625 35.296875 
z
M 13.1875 35.296875 
Q 13.1875 17.671875 17.3125 11.828125 
Q 21.4375 6 27.484375 6 
Q 33.546875 6 37.671875 11.859375 
Q 41.796875 17.71875 41.796875 35.296875 
Q 41.796875 52.984375 37.671875 58.78125 
Q 33.546875 64.59375 27.390625 64.59375 
Q 21.34375 64.59375 17.71875 59.46875 
Q 13.1875 52.9375 13.1875 35.296875 
z
" id="ArialMT-48"/>
       </defs>
       <use xlink:href="#ArialMT-48"/>
      </g>
     </g>
    </g>
    <g id="xtick_2">
     <g id="line2d_2">
      <g>
       <use style="fill:#262626;stroke:#262626;stroke-width:1.25;" x="113.860351" xlink:href="#m4077722ba0" y="224.64"/>
      </g>
     </g>
     <g id="text_2">
      <!-- 10 -->
      <g style="fill:#262626;" transform="translate(107.74332 242.013594)scale(0.11 -0.11)">
       <defs>
        <path d="M 37.25 0 
L 28.46875 0 
L 28.46875 56 
Q 25.296875 52.984375 20.140625 49.953125 
Q 14.984375 46.921875 10.890625 45.40625 
L 10.890625 53.90625 
Q 18.265625 57.375 23.78125 62.296875 
Q 29.296875 67.234375 31.59375 71.875 
L 37.25 71.875 
z
" id="ArialMT-49"/>
       </defs>
       <use xlink:href="#ArialMT-49"/>
       <use x="55.615234" xlink:href="#ArialMT-48"/>
      </g>
     </g>
    </g>
    <g id="xtick_3">
     <g id="line2d_3">
      <g>
       <use style="fill:#262626;stroke:#262626;stroke-width:1.25;" x="168.998691" xlink:href="#m4077722ba0" y="224.64"/>
      </g>
     </g>
     <g id="text_3">
      <!-- 20 -->
      <g style="fill:#262626;" transform="translate(162.88166 242.013594)scale(0.11 -0.11)">
       <defs>
        <path d="M 50.34375 8.453125 
L 50.34375 0 
L 3.03125 0 
Q 2.9375 3.171875 4.046875 6.109375 
Q 5.859375 10.9375 9.828125 15.625 
Q 13.8125 20.3125 21.34375 26.46875 
Q 33.015625 36.03125 37.109375 41.625 
Q 41.21875 47.21875 41.21875 52.203125 
Q 41.21875 57.421875 37.46875 61 
Q 33.734375 64.59375 27.734375 64.59375 
Q 21.390625 64.59375 17.578125 60.78125 
Q 13.765625 56.984375 13.71875 50.25 
L 4.6875 51.171875 
Q 5.609375 61.28125 11.65625 66.578125 
Q 17.71875 71.875 27.9375 71.875 
Q 38.234375 71.875 44.234375 66.15625 
Q 50.25 60.453125 50.25 52 
Q 50.25 47.703125 48.484375 43.546875 
Q 46.734375 39.40625 42.65625 34.8125 
Q 38.578125 30.21875 29.109375 22.21875 
Q 21.1875 15.578125 18.9375 13.203125 
Q 16.703125 10.84375 15.234375 8.453125 
z
" id="ArialMT-50"/>
       </defs>
       <use xlink:href="#ArialMT-50"/>
       <use x="55.615234" xlink:href="#ArialMT-48"/>
      </g>
     </g>
    </g>
    <g id="xtick_4">
     <g id="line2d_4">
      <g>
       <use style="fill:#262626;stroke:#262626;stroke-width:1.25;" x="224.137031" xlink:href="#m4077722ba0" y="224.64"/>
      </g>
     </g>
     <g id="text_4">
      <!-- 30 -->
      <g style="fill:#262626;" transform="translate(218.02 242.013594)scale(0.11 -0.11)">
       <defs>
        <path d="M 4.203125 18.890625 
L 12.984375 20.0625 
Q 14.5 12.59375 18.140625 9.296875 
Q 21.78125 6 27 6 
Q 33.203125 6 37.46875 10.296875 
Q 41.75 14.59375 41.75 20.953125 
Q 41.75 27 37.796875 30.921875 
Q 33.84375 34.859375 27.734375 34.859375 
Q 25.25 34.859375 21.53125 33.890625 
L 22.515625 41.609375 
Q 23.390625 41.5 23.921875 41.5 
Q 29.546875 41.5 34.03125 44.421875 
Q 38.53125 47.359375 38.53125 53.46875 
Q 38.53125 58.296875 35.25 61.46875 
Q 31.984375 64.65625 26.8125 64.65625 
Q 21.6875 64.65625 18.265625 61.421875 
Q 14.84375 58.203125 13.875 51.765625 
L 5.078125 53.328125 
Q 6.6875 62.15625 12.390625 67.015625 
Q 18.109375 71.875 26.609375 71.875 
Q 32.46875 71.875 37.390625 69.359375 
Q 42.328125 66.84375 44.9375 62.5 
Q 47.5625 58.15625 47.5625 53.265625 
Q 47.5625 48.640625 45.0625 44.828125 
Q 42.578125 41.015625 37.703125 38.765625 
Q 44.046875 37.3125 47.5625 32.6875 
Q 51.078125 28.078125 51.078125 21.140625 
Q 51.078125 11.765625 44.234375 5.25 
Q 37.40625 -1.265625 26.953125 -1.265625 
Q 17.53125 -1.265625 11.296875 4.34375 
Q 5.078125 9.96875 4.203125 18.890625 
z
" id="ArialMT-51"/>
       </defs>
       <use xlink:href="#ArialMT-51"/>
       <use x="55.615234" xlink:href="#ArialMT-48"/>
      </g>
     </g>
    </g>
    <g id="xtick_5">
     <g id="line2d_5">
      <g>
       <use style="fill:#262626;stroke:#262626;stroke-width:1.25;" x="279.275371" xlink:href="#m4077722ba0" y="224.64"/>
      </g>
     </g>
     <g id="text_5">
      <!-- 40 -->
      <g style="fill:#262626;" transform="translate(273.15834 242.013594)scale(0.11 -0.11)">
       <defs>
        <path d="M 32.328125 0 
L 32.328125 17.140625 
L 1.265625 17.140625 
L 1.265625 25.203125 
L 33.9375 71.578125 
L 41.109375 71.578125 
L 41.109375 25.203125 
L 50.78125 25.203125 
L 50.78125 17.140625 
L 41.109375 17.140625 
L 41.109375 0 
z
M 32.328125 25.203125 
L 32.328125 57.46875 
L 9.90625 25.203125 
z
" id="ArialMT-52"/>
       </defs>
       <use xlink:href="#ArialMT-52"/>
       <use x="55.615234" xlink:href="#ArialMT-48"/>
      </g>
     </g>
    </g>
    <g id="xtick_6">
     <g id="line2d_6">
      <g>
       <use style="fill:#262626;stroke:#262626;stroke-width:1.25;" x="334.413711" xlink:href="#m4077722ba0" y="224.64"/>
      </g>
     </g>
     <g id="text_6">
      <!-- 50 -->
      <g style="fill:#262626;" transform="translate(328.29668 242.013594)scale(0.11 -0.11)">
       <defs>
        <path d="M 4.15625 18.75 
L 13.375 19.53125 
Q 14.40625 12.796875 18.140625 9.390625 
Q 21.875 6 27.15625 6 
Q 33.5 6 37.890625 10.78125 
Q 42.28125 15.578125 42.28125 23.484375 
Q 42.28125 31 38.0625 35.34375 
Q 33.84375 39.703125 27 39.703125 
Q 22.75 39.703125 19.328125 37.765625 
Q 15.921875 35.84375 13.96875 32.765625 
L 5.71875 33.84375 
L 12.640625 70.609375 
L 48.25 70.609375 
L 48.25 62.203125 
L 19.671875 62.203125 
L 15.828125 42.96875 
Q 22.265625 47.46875 29.34375 47.46875 
Q 38.71875 47.46875 45.15625 40.96875 
Q 51.609375 34.46875 51.609375 24.265625 
Q 51.609375 14.546875 45.953125 7.46875 
Q 39.0625 -1.21875 27.15625 -1.21875 
Q 17.390625 -1.21875 11.203125 4.25 
Q 5.03125 9.71875 4.15625 18.75 
z
" id="ArialMT-53"/>
       </defs>
       <use xlink:href="#ArialMT-53"/>
       <use x="55.615234" xlink:href="#ArialMT-48"/>
      </g>
     </g>
    </g>
    <g id="xtick_7">
     <g id="line2d_7">
      <g>
       <use style="fill:#262626;stroke:#262626;stroke-width:1.25;" x="389.552051" xlink:href="#m4077722ba0" y="224.64"/>
      </g>
     </g>
     <g id="text_7">
      <!-- 60 -->
      <g style="fill:#262626;" transform="translate(383.43502 242.013594)scale(0.11 -0.11)">
       <defs>
        <path d="M 49.75 54.046875 
L 41.015625 53.375 
Q 39.84375 58.546875 37.703125 60.890625 
Q 34.125 64.65625 28.90625 64.65625 
Q 24.703125 64.65625 21.53125 62.3125 
Q 17.390625 59.28125 14.984375 53.46875 
Q 12.59375 47.65625 12.5 36.921875 
Q 15.671875 41.75 20.265625 44.09375 
Q 24.859375 46.4375 29.890625 46.4375 
Q 38.671875 46.4375 44.84375 39.96875 
Q 51.03125 33.5 51.03125 23.25 
Q 51.03125 16.5 48.125 10.71875 
Q 45.21875 4.9375 40.140625 1.859375 
Q 35.0625 -1.21875 28.609375 -1.21875 
Q 17.625 -1.21875 10.6875 6.859375 
Q 3.765625 14.9375 3.765625 33.5 
Q 3.765625 54.25 11.421875 63.671875 
Q 18.109375 71.875 29.4375 71.875 
Q 37.890625 71.875 43.28125 67.140625 
Q 48.6875 62.40625 49.75 54.046875 
z
M 13.875 23.1875 
Q 13.875 18.65625 15.796875 14.5 
Q 17.71875 10.359375 21.1875 8.171875 
Q 24.65625 6 28.46875 6 
Q 34.03125 6 38.03125 10.484375 
Q 42.046875 14.984375 42.046875 22.703125 
Q 42.046875 30.125 38.078125 34.390625 
Q 34.125 38.671875 28.125 38.671875 
Q 22.171875 38.671875 18.015625 34.390625 
Q 13.875 30.125 13.875 23.1875 
z
" id="ArialMT-54"/>
       </defs>
       <use xlink:href="#ArialMT-54"/>
       <use x="55.615234" xlink:href="#ArialMT-48"/>
      </g>
     </g>
    </g>
    <g id="text_8">
     <!-- Time (ms) -->
     <g style="fill:#262626;" transform="translate(197.369531 256.935469)scale(0.12 -0.12)">
      <defs>
       <path d="M 25.921875 0 
L 25.921875 63.140625 
L 2.34375 63.140625 
L 2.34375 71.578125 
L 59.078125 71.578125 
L 59.078125 63.140625 
L 35.40625 63.140625 
L 35.40625 0 
z
" id="ArialMT-84"/>
       <path d="M 6.640625 61.46875 
L 6.640625 71.578125 
L 15.4375 71.578125 
L 15.4375 61.46875 
z
M 6.640625 0 
L 6.640625 51.859375 
L 15.4375 51.859375 
L 15.4375 0 
z
" id="ArialMT-105"/>
       <path d="M 6.59375 0 
L 6.59375 51.859375 
L 14.453125 51.859375 
L 14.453125 44.578125 
Q 16.890625 48.390625 20.9375 50.703125 
Q 25 53.03125 30.171875 53.03125 
Q 35.9375 53.03125 39.625 50.640625 
Q 43.3125 48.25 44.828125 43.953125 
Q 50.984375 53.03125 60.84375 53.03125 
Q 68.5625 53.03125 72.703125 48.75 
Q 76.859375 44.484375 76.859375 35.59375 
L 76.859375 0 
L 68.109375 0 
L 68.109375 32.671875 
Q 68.109375 37.9375 67.25 40.25 
Q 66.40625 42.578125 64.15625 43.984375 
Q 61.921875 45.40625 58.890625 45.40625 
Q 53.421875 45.40625 49.796875 41.765625 
Q 46.1875 38.140625 46.1875 30.125 
L 46.1875 0 
L 37.40625 0 
L 37.40625 33.6875 
Q 37.40625 39.546875 35.25 42.46875 
Q 33.109375 45.40625 28.21875 45.40625 
Q 24.515625 45.40625 21.359375 43.453125 
Q 18.21875 41.5 16.796875 37.734375 
Q 15.375 33.984375 15.375 26.90625 
L 15.375 0 
z
" id="ArialMT-109"/>
       <path d="M 42.09375 16.703125 
L 51.171875 15.578125 
Q 49.03125 7.625 43.21875 3.21875 
Q 37.40625 -1.171875 28.375 -1.171875 
Q 17 -1.171875 10.328125 5.828125 
Q 3.65625 12.84375 3.65625 25.484375 
Q 3.65625 38.578125 10.390625 45.796875 
Q 17.140625 53.03125 27.875 53.03125 
Q 38.28125 53.03125 44.875 45.953125 
Q 51.46875 38.875 51.46875 26.03125 
Q 51.46875 25.25 51.421875 23.6875 
L 12.75 23.6875 
Q 13.234375 15.140625 17.578125 10.59375 
Q 21.921875 6.0625 28.421875 6.0625 
Q 33.25 6.0625 36.671875 8.59375 
Q 40.09375 11.140625 42.09375 16.703125 
z
M 13.234375 30.90625 
L 42.1875 30.90625 
Q 41.609375 37.453125 38.875 40.71875 
Q 34.671875 45.796875 27.984375 45.796875 
Q 21.921875 45.796875 17.796875 41.75 
Q 13.671875 37.703125 13.234375 30.90625 
z
" id="ArialMT-101"/>
       <path id="ArialMT-32"/>
       <path d="M 23.390625 -21.046875 
Q 16.109375 -11.859375 11.078125 0.4375 
Q 6.0625 12.75 6.0625 25.921875 
Q 6.0625 37.546875 9.8125 48.1875 
Q 14.203125 60.546875 23.390625 72.796875 
L 29.6875 72.796875 
Q 23.78125 62.640625 21.875 58.296875 
Q 18.890625 51.5625 17.1875 44.234375 
Q 15.09375 35.109375 15.09375 25.875 
Q 15.09375 2.390625 29.6875 -21.046875 
z
" id="ArialMT-40"/>
       <path d="M 3.078125 15.484375 
L 11.765625 16.84375 
Q 12.5 11.625 15.84375 8.84375 
Q 19.1875 6.0625 25.203125 6.0625 
Q 31.25 6.0625 34.171875 8.515625 
Q 37.109375 10.984375 37.109375 14.3125 
Q 37.109375 17.28125 34.515625 19 
Q 32.71875 20.171875 25.53125 21.96875 
Q 15.875 24.421875 12.140625 26.203125 
Q 8.40625 27.984375 6.46875 31.125 
Q 4.546875 34.28125 4.546875 38.09375 
Q 4.546875 41.546875 6.125 44.5 
Q 7.71875 47.46875 10.453125 49.421875 
Q 12.5 50.921875 16.03125 51.96875 
Q 19.578125 53.03125 23.640625 53.03125 
Q 29.734375 53.03125 34.34375 51.265625 
Q 38.96875 49.515625 41.15625 46.5 
Q 43.359375 43.5 44.1875 38.484375 
L 35.59375 37.3125 
Q 35.015625 41.3125 32.203125 43.546875 
Q 29.390625 45.796875 24.265625 45.796875 
Q 18.21875 45.796875 15.625 43.796875 
Q 13.03125 41.796875 13.03125 39.109375 
Q 13.03125 37.40625 14.109375 36.03125 
Q 15.1875 34.625 17.484375 33.6875 
Q 18.796875 33.203125 25.25 31.453125 
Q 34.578125 28.953125 38.25 27.359375 
Q 41.9375 25.78125 44.03125 22.75 
Q 46.140625 19.734375 46.140625 15.234375 
Q 46.140625 10.84375 43.578125 6.953125 
Q 41.015625 3.078125 36.171875 0.953125 
Q 31.34375 -1.171875 25.25 -1.171875 
Q 15.140625 -1.171875 9.84375 3.03125 
Q 4.546875 7.234375 3.078125 15.484375 
z
" id="ArialMT-115"/>
       <path d="M 12.359375 -21.046875 
L 6.0625 -21.046875 
Q 20.65625 2.390625 20.65625 25.875 
Q 20.65625 35.0625 18.5625 44.09375 
Q 16.890625 51.421875 13.921875 58.15625 
Q 12.015625 62.546875 6.0625 72.796875 
L 12.359375 72.796875 
Q 21.53125 60.546875 25.921875 48.1875 
Q 29.6875 37.546875 29.6875 25.921875 
Q 29.6875 12.75 24.625 0.4375 
Q 19.578125 -11.859375 12.359375 -21.046875 
z
" id="ArialMT-41"/>
      </defs>
      <use xlink:href="#ArialMT-84"/>
      <use x="57.333984" xlink:href="#ArialMT-105"/>
      <use x="79.550781" xlink:href="#ArialMT-109"/>
      <use x="162.851562" xlink:href="#ArialMT-101"/>
      <use x="218.466797" xlink:href="#ArialMT-32"/>
      <use x="246.25" xlink:href="#ArialMT-40"/>
      <use x="279.550781" xlink:href="#ArialMT-109"/>
      <use x="362.851562" xlink:href="#ArialMT-115"/>
      <use x="412.851562" xlink:href="#ArialMT-41"/>
     </g>
    </g>
   </g>
   <g id="matplotlib.axis_2">
    <g id="ytick_1">
     <g id="line2d_8">
      <defs>
       <path d="M 0 0 
L -6 0 
" id="m10418eea4f" style="stroke:#262626;stroke-width:1.25;"/>
      </defs>
      <g>
       <use style="fill:#262626;stroke:#262626;stroke-width:1.25;" x="56.737031" xlink:href="#m10418eea4f" y="182.599078"/>
      </g>
     </g>
     <g id="text_9">
      <!-- −100 -->
      <g style="fill:#262626;" transform="translate(22.46125 186.535875)scale(0.11 -0.11)">
       <defs>
        <path d="M 52.828125 31.203125 
L 5.5625 31.203125 
L 5.5625 39.40625 
L 52.828125 39.40625 
z
" id="ArialMT-8722"/>
       </defs>
       <use xlink:href="#ArialMT-8722"/>
       <use x="58.398438" xlink:href="#ArialMT-49"/>
       <use x="114.013672" xlink:href="#ArialMT-48"/>
       <use x="169.628906" xlink:href="#ArialMT-48"/>
      </g>
     </g>
    </g>
    <g id="ytick_2">
     <g id="line2d_9">
      <g>
       <use style="fill:#262626;stroke:#262626;stroke-width:1.25;" x="56.737031" xlink:href="#m10418eea4f" y="135.308952"/>
      </g>
     </g>
     <g id="text_10">
      <!-- −50 -->
      <g style="fill:#262626;" transform="translate(28.578281 139.245749)scale(0.11 -0.11)">
       <use xlink:href="#ArialMT-8722"/>
       <use x="58.398438" xlink:href="#ArialMT-53"/>
       <use x="114.013672" xlink:href="#ArialMT-48"/>
      </g>
     </g>
    </g>
    <g id="ytick_3">
     <g id="line2d_10">
      <g>
       <use style="fill:#262626;stroke:#262626;stroke-width:1.25;" x="56.737031" xlink:href="#m10418eea4f" y="88.018826"/>
      </g>
     </g>
     <g id="text_11">
      <!-- 0 -->
      <g style="fill:#262626;" transform="translate(41.12 91.955622)scale(0.11 -0.11)">
       <use xlink:href="#ArialMT-48"/>
      </g>
     </g>
    </g>
    <g id="ytick_4">
     <g id="line2d_11">
      <g>
       <use style="fill:#262626;stroke:#262626;stroke-width:1.25;" x="56.737031" xlink:href="#m10418eea4f" y="40.728699"/>
      </g>
     </g>
     <g id="text_12">
      <!-- 50 -->
      <g style="fill:#262626;" transform="translate(35.002969 44.665496)scale(0.11 -0.11)">
       <use xlink:href="#ArialMT-53"/>
       <use x="55.615234" xlink:href="#ArialMT-48"/>
      </g>
     </g>
    </g>
    <g id="text_13">
     <!-- Acceleration (g) -->
     <g style="fill:#262626;" transform="translate(15.935625 157.935)rotate(-90)scale(0.12 -0.12)">
      <defs>
       <path d="M -0.140625 0 
L 27.34375 71.578125 
L 37.546875 71.578125 
L 66.84375 0 
L 56.0625 0 
L 47.703125 21.6875 
L 17.78125 21.6875 
L 9.90625 0 
z
M 20.515625 29.390625 
L 44.78125 29.390625 
L 37.3125 49.21875 
Q 33.890625 58.25 32.234375 64.0625 
Q 30.859375 57.171875 28.375 50.390625 
z
" id="ArialMT-65"/>
       <path d="M 40.4375 19 
L 49.078125 17.875 
Q 47.65625 8.9375 41.8125 3.875 
Q 35.984375 -1.171875 27.484375 -1.171875 
Q 16.84375 -1.171875 10.375 5.78125 
Q 3.90625 12.75 3.90625 25.734375 
Q 3.90625 34.125 6.6875 40.421875 
Q 9.46875 46.734375 15.15625 49.875 
Q 20.84375 53.03125 27.546875 53.03125 
Q 35.984375 53.03125 41.359375 48.75 
Q 46.734375 44.484375 48.25 36.625 
L 39.703125 35.296875 
Q 38.484375 40.53125 35.375 43.15625 
Q 32.28125 45.796875 27.875 45.796875 
Q 21.234375 45.796875 17.078125 41.03125 
Q 12.9375 36.28125 12.9375 25.984375 
Q 12.9375 15.53125 16.9375 10.796875 
Q 20.953125 6.0625 27.390625 6.0625 
Q 32.5625 6.0625 36.03125 9.234375 
Q 39.5 12.40625 40.4375 19 
z
" id="ArialMT-99"/>
       <path d="M 6.390625 0 
L 6.390625 71.578125 
L 15.1875 71.578125 
L 15.1875 0 
z
" id="ArialMT-108"/>
       <path d="M 6.5 0 
L 6.5 51.859375 
L 14.40625 51.859375 
L 14.40625 44 
Q 17.4375 49.515625 20 51.265625 
Q 22.5625 53.03125 25.640625 53.03125 
Q 30.078125 53.03125 34.671875 50.203125 
L 31.640625 42.046875 
Q 28.421875 43.953125 25.203125 43.953125 
Q 22.3125 43.953125 20.015625 42.21875 
Q 17.71875 40.484375 16.75 37.40625 
Q 15.28125 32.71875 15.28125 27.15625 
L 15.28125 0 
z
" id="ArialMT-114"/>
       <path d="M 40.4375 6.390625 
Q 35.546875 2.25 31.03125 0.53125 
Q 26.515625 -1.171875 21.34375 -1.171875 
Q 12.796875 -1.171875 8.203125 3 
Q 3.609375 7.171875 3.609375 13.671875 
Q 3.609375 17.484375 5.34375 20.625 
Q 7.078125 23.78125 9.890625 25.6875 
Q 12.703125 27.59375 16.21875 28.5625 
Q 18.796875 29.25 24.03125 29.890625 
Q 34.671875 31.15625 39.703125 32.90625 
Q 39.75 34.71875 39.75 35.203125 
Q 39.75 40.578125 37.25 42.78125 
Q 33.890625 45.75 27.25 45.75 
Q 21.046875 45.75 18.09375 43.578125 
Q 15.140625 41.40625 13.71875 35.890625 
L 5.125 37.0625 
Q 6.296875 42.578125 8.984375 45.96875 
Q 11.671875 49.359375 16.75 51.1875 
Q 21.828125 53.03125 28.515625 53.03125 
Q 35.15625 53.03125 39.296875 51.46875 
Q 43.453125 49.90625 45.40625 47.53125 
Q 47.359375 45.171875 48.140625 41.546875 
Q 48.578125 39.3125 48.578125 33.453125 
L 48.578125 21.734375 
Q 48.578125 9.46875 49.140625 6.21875 
Q 49.703125 2.984375 51.375 0 
L 42.1875 0 
Q 40.828125 2.734375 40.4375 6.390625 
z
M 39.703125 26.03125 
Q 34.90625 24.078125 25.34375 22.703125 
Q 19.921875 21.921875 17.671875 20.9375 
Q 15.4375 19.96875 14.203125 18.09375 
Q 12.984375 16.21875 12.984375 13.921875 
Q 12.984375 10.40625 15.640625 8.0625 
Q 18.3125 5.71875 23.4375 5.71875 
Q 28.515625 5.71875 32.46875 7.9375 
Q 36.421875 10.15625 38.28125 14.015625 
Q 39.703125 17 39.703125 22.796875 
z
" id="ArialMT-97"/>
       <path d="M 25.78125 7.859375 
L 27.046875 0.09375 
Q 23.34375 -0.6875 20.40625 -0.6875 
Q 15.625 -0.6875 12.984375 0.828125 
Q 10.359375 2.34375 9.28125 4.8125 
Q 8.203125 7.28125 8.203125 15.1875 
L 8.203125 45.015625 
L 1.765625 45.015625 
L 1.765625 51.859375 
L 8.203125 51.859375 
L 8.203125 64.703125 
L 16.9375 69.96875 
L 16.9375 51.859375 
L 25.78125 51.859375 
L 25.78125 45.015625 
L 16.9375 45.015625 
L 16.9375 14.703125 
Q 16.9375 10.9375 17.40625 9.859375 
Q 17.875 8.796875 18.921875 8.15625 
Q 19.96875 7.515625 21.921875 7.515625 
Q 23.390625 7.515625 25.78125 7.859375 
z
" id="ArialMT-116"/>
       <path d="M 3.328125 25.921875 
Q 3.328125 40.328125 11.328125 47.265625 
Q 18.015625 53.03125 27.640625 53.03125 
Q 38.328125 53.03125 45.109375 46.015625 
Q 51.90625 39.015625 51.90625 26.65625 
Q 51.90625 16.65625 48.90625 10.90625 
Q 45.90625 5.171875 40.15625 2 
Q 34.421875 -1.171875 27.640625 -1.171875 
Q 16.75 -1.171875 10.03125 5.8125 
Q 3.328125 12.796875 3.328125 25.921875 
z
M 12.359375 25.921875 
Q 12.359375 15.96875 16.703125 11.015625 
Q 21.046875 6.0625 27.640625 6.0625 
Q 34.1875 6.0625 38.53125 11.03125 
Q 42.875 16.015625 42.875 26.21875 
Q 42.875 35.84375 38.5 40.796875 
Q 34.125 45.75 27.640625 45.75 
Q 21.046875 45.75 16.703125 40.8125 
Q 12.359375 35.890625 12.359375 25.921875 
z
" id="ArialMT-111"/>
       <path d="M 6.59375 0 
L 6.59375 51.859375 
L 14.5 51.859375 
L 14.5 44.484375 
Q 20.21875 53.03125 31 53.03125 
Q 35.6875 53.03125 39.625 51.34375 
Q 43.5625 49.65625 45.515625 46.921875 
Q 47.46875 44.1875 48.25 40.4375 
Q 48.734375 37.984375 48.734375 31.890625 
L 48.734375 0 
L 39.9375 0 
L 39.9375 31.546875 
Q 39.9375 36.921875 38.90625 39.578125 
Q 37.890625 42.234375 35.28125 43.8125 
Q 32.671875 45.40625 29.15625 45.40625 
Q 23.53125 45.40625 19.453125 41.84375 
Q 15.375 38.28125 15.375 28.328125 
L 15.375 0 
z
" id="ArialMT-110"/>
       <path d="M 4.984375 -4.296875 
L 13.53125 -5.5625 
Q 14.0625 -9.515625 16.5 -11.328125 
Q 19.78125 -13.765625 25.4375 -13.765625 
Q 31.546875 -13.765625 34.859375 -11.328125 
Q 38.1875 -8.890625 39.359375 -4.5 
Q 40.046875 -1.8125 39.984375 6.78125 
Q 34.234375 0 25.640625 0 
Q 14.9375 0 9.078125 7.71875 
Q 3.21875 15.4375 3.21875 26.21875 
Q 3.21875 33.640625 5.90625 39.90625 
Q 8.59375 46.1875 13.6875 49.609375 
Q 18.796875 53.03125 25.6875 53.03125 
Q 34.859375 53.03125 40.828125 45.609375 
L 40.828125 51.859375 
L 48.921875 51.859375 
L 48.921875 7.03125 
Q 48.921875 -5.078125 46.453125 -10.125 
Q 44 -15.1875 38.640625 -18.109375 
Q 33.296875 -21.046875 25.484375 -21.046875 
Q 16.21875 -21.046875 10.5 -16.875 
Q 4.78125 -12.703125 4.984375 -4.296875 
z
M 12.25 26.859375 
Q 12.25 16.65625 16.296875 11.96875 
Q 20.359375 7.28125 26.46875 7.28125 
Q 32.515625 7.28125 36.609375 11.9375 
Q 40.71875 16.609375 40.71875 26.5625 
Q 40.71875 36.078125 36.5 40.90625 
Q 32.28125 45.75 26.3125 45.75 
Q 20.453125 45.75 16.34375 40.984375 
Q 12.25 36.234375 12.25 26.859375 
z
" id="ArialMT-103"/>
      </defs>
      <use xlink:href="#ArialMT-65"/>
      <use x="66.699219" xlink:href="#ArialMT-99"/>
      <use x="116.699219" xlink:href="#ArialMT-99"/>
      <use x="166.699219" xlink:href="#ArialMT-101"/>
      <use x="222.314453" xlink:href="#ArialMT-108"/>
      <use x="244.53125" xlink:href="#ArialMT-101"/>
      <use x="300.146484" xlink:href="#ArialMT-114"/>
      <use x="333.447266" xlink:href="#ArialMT-97"/>
      <use x="389.0625" xlink:href="#ArialMT-116"/>
      <use x="416.845703" xlink:href="#ArialMT-105"/>
      <use x="439.0625" xlink:href="#ArialMT-111"/>
      <use x="494.677734" xlink:href="#ArialMT-110"/>
      <use x="550.292969" xlink:href="#ArialMT-32"/>
      <use x="578.076172" xlink:href="#ArialMT-40"/>
      <use x="611.376953" xlink:href="#ArialMT-103"/>
      <use x="666.992188" xlink:href="#ArialMT-41"/>
     </g>
    </g>
   </g>
   <g id="line2d_12">
    <defs>
     <path d="M -3 3 
L 3 -3 
M -3 -3 
L 3 3 
" id="mce8ddf461c" style="stroke:#4c72b0;"/>
    </defs>
    <g clip-path="url(#p953c65ee6e)">
     <use style="fill:#4c72b0;stroke:#4c72b0;" x="274.864304" xlink:href="#mce8ddf461c" y="82.911492"/>
     <use style="fill:#4c72b0;stroke:#4c72b0;" x="279.275371" xlink:href="#mce8ddf461c" y="108.35358"/>
     <use style="fill:#4c72b0;stroke:#4c72b0;" x="161.279324" xlink:href="#mce8ddf461c" y="194.421609"/>
     <use style="fill:#4c72b0;stroke:#4c72b0;" x="76.36628" xlink:href="#mce8ddf461c" y="90.572492"/>
     <use style="fill:#4c72b0;stroke:#4c72b0;" x="170.101458" xlink:href="#mce8ddf461c" y="204.447116"/>
     <use style="fill:#4c72b0;stroke:#4c72b0;" x="176.718059" xlink:href="#mce8ddf461c" y="184.396103"/>
     <use style="fill:#4c72b0;stroke:#4c72b0;" x="194.362328" xlink:href="#mce8ddf461c" y="138.619261"/>
     <use style="fill:#4c72b0;stroke:#4c72b0;" x="258.322802" xlink:href="#mce8ddf461c" y="123.48642"/>
     <use style="fill:#4c72b0;stroke:#4c72b0;" x="301.330707" xlink:href="#mce8ddf461c" y="89.248369"/>
     <use style="fill:#4c72b0;stroke:#4c72b0;" x="376.318849" xlink:href="#mce8ddf461c" y="77.898739"/>
     <use style="fill:#4c72b0;stroke:#4c72b0;" x="155.76549" xlink:href="#mce8ddf461c" y="123.48642"/>
     <use style="fill:#4c72b0;stroke:#4c72b0;" x="198.773395" xlink:href="#mce8ddf461c" y="156.400348"/>
     <use style="fill:#4c72b0;stroke:#4c72b0;" x="295.816873" xlink:href="#mce8ddf461c" y="74.115528"/>
     <use style="fill:#4c72b0;stroke:#4c72b0;" x="203.184462" xlink:href="#mce8ddf461c" y="189.314276"/>
     <use style="fill:#4c72b0;stroke:#4c72b0;" x="175.615292" xlink:href="#mce8ddf461c" y="214.756364"/>
     <use style="fill:#4c72b0;stroke:#4c72b0;" x="78.571814" xlink:href="#mce8ddf461c" y="88.018826"/>
     <use style="fill:#4c72b0;stroke:#4c72b0;" x="73.05798" xlink:href="#mce8ddf461c" y="89.248369"/>
     <use style="fill:#4c72b0;stroke:#4c72b0;" x="131.50462" xlink:href="#mce8ddf461c" y="90.572492"/>
     <use style="fill:#4c72b0;stroke:#4c72b0;" x="281.480905" xlink:href="#mce8ddf461c" y="100.597999"/>
     <use style="fill:#4c72b0;stroke:#4c72b0;" x="192.156794" xlink:href="#mce8ddf461c" y="177.964645"/>
     <use style="fill:#4c72b0;stroke:#4c72b0;" x="114.963118" xlink:href="#mce8ddf461c" y="93.126159"/>
     <use style="fill:#4c72b0;stroke:#4c72b0;" x="303.536241" xlink:href="#mce8ddf461c" y="88.018826"/>
     <use style="fill:#4c72b0;stroke:#4c72b0;" x="252.808968" xlink:href="#mce8ddf461c" y="103.151666"/>
     <use style="fill:#4c72b0;stroke:#4c72b0;" x="315.666676" xlink:href="#mce8ddf461c" y="77.898739"/>
     <use style="fill:#4c72b0;stroke:#4c72b0;" x="199.876162" xlink:href="#mce8ddf461c" y="113.366333"/>
     <use style="fill:#4c72b0;stroke:#4c72b0;" x="230.753632" xlink:href="#mce8ddf461c" y="80.357825"/>
     <use style="fill:#4c72b0;stroke:#4c72b0;" x="202.081695" xlink:href="#mce8ddf461c" y="93.126159"/>
     <use style="fill:#4c72b0;stroke:#4c72b0;" x="156.868257" xlink:href="#mce8ddf461c" y="181.747856"/>
     <use style="fill:#4c72b0;stroke:#4c72b0;" x="225.239798" xlink:href="#mce8ddf461c" y="53.780774"/>
     <use style="fill:#4c72b0;stroke:#4c72b0;" x="204.287229" xlink:href="#mce8ddf461c" y="150.063471"/>
     <use style="fill:#4c72b0;stroke:#4c72b0;" x="150.251656" xlink:href="#mce8ddf461c" y="143.821174"/>
     <use style="fill:#4c72b0;stroke:#4c72b0;" x="364.188415" xlink:href="#mce8ddf461c" y="90.572492"/>
     <use style="fill:#4c72b0;stroke:#4c72b0;" x="119.374185" xlink:href="#mce8ddf461c" y="93.126159"/>
     <use style="fill:#4c72b0;stroke:#4c72b0;" x="361.982881" xlink:href="#mce8ddf461c" y="90.572492"/>
     <use style="fill:#4c72b0;stroke:#4c72b0;" x="95.113316" xlink:href="#mce8ddf461c" y="90.572492"/>
     <use style="fill:#4c72b0;stroke:#4c72b0;" x="92.907782" xlink:href="#mce8ddf461c" y="90.572492"/>
     <use style="fill:#4c72b0;stroke:#4c72b0;" x="144.737822" xlink:href="#mce8ddf461c" y="126.040087"/>
     <use style="fill:#4c72b0;stroke:#4c72b0;" x="322.283276" xlink:href="#mce8ddf461c" y="113.366333"/>
     <use style="fill:#4c72b0;stroke:#4c72b0;" x="207.595529" xlink:href="#mce8ddf461c" y="103.151666"/>
     <use style="fill:#4c72b0;stroke:#4c72b0;" x="113.860351" xlink:href="#mce8ddf461c" y="90.572492"/>
     <use style="fill:#4c72b0;stroke:#4c72b0;" x="248.397901" xlink:href="#mce8ddf461c" y="86.789282"/>
     <use style="fill:#4c72b0;stroke:#4c72b0;" x="148.046122" xlink:href="#mce8ddf461c" y="108.35358"/>
     <use style="fill:#4c72b0;stroke:#4c72b0;" x="250.603434" xlink:href="#mce8ddf461c" y="17.083636"/>
     <use style="fill:#4c72b0;stroke:#4c72b0;" x="117.168652" xlink:href="#mce8ddf461c" y="90.572492"/>
     <use style="fill:#4c72b0;stroke:#4c72b0;" x="220.828731" xlink:href="#mce8ddf461c" y="104.475789"/>
     <use style="fill:#4c72b0;stroke:#4c72b0;" x="165.690391" xlink:href="#mce8ddf461c" y="168.979522"/>
     <use style="fill:#4c72b0;stroke:#4c72b0;" x="345.441379" xlink:href="#mce8ddf461c" y="77.898739"/>
     <use style="fill:#4c72b0;stroke:#4c72b0;" x="140.326755" xlink:href="#mce8ddf461c" y="90.572492"/>
     <use style="fill:#4c72b0;stroke:#4c72b0;" x="71.955213" xlink:href="#mce8ddf461c" y="88.018826"/>
     <use style="fill:#4c72b0;stroke:#4c72b0;" x="208.698296" xlink:href="#mce8ddf461c" y="131.147421"/>
     <use style="fill:#4c72b0;stroke:#4c72b0;" x="134.812921" xlink:href="#mce8ddf461c" y="88.018826"/>
     <use style="fill:#4c72b0;stroke:#4c72b0;" x="292.508573" xlink:href="#mce8ddf461c" y="60.212231"/>
     <use style="fill:#4c72b0;stroke:#4c72b0;" x="253.911735" xlink:href="#mce8ddf461c" y="22.19097"/>
     <use style="fill:#4c72b0;stroke:#4c72b0;" x="352.05798" xlink:href="#mce8ddf461c" y="101.922123"/>
     <use style="fill:#4c72b0;stroke:#4c72b0;" x="242.884067" xlink:href="#mce8ddf461c" y="72.885985"/>
     <use style="fill:#4c72b0;stroke:#4c72b0;" x="178.923593" xlink:href="#mce8ddf461c" y="190.543819"/>
     <use style="fill:#4c72b0;stroke:#4c72b0;" x="146.943355" xlink:href="#mce8ddf461c" y="128.593754"/>
     <use style="fill:#4c72b0;stroke:#4c72b0;" x="214.21213" xlink:href="#mce8ddf461c" y="76.669195"/>
     <use style="fill:#4c72b0;stroke:#4c72b0;" x="166.793158" xlink:href="#mce8ddf461c" y="208.324906"/>
     <use style="fill:#4c72b0;stroke:#4c72b0;" x="288.097506" xlink:href="#mce8ddf461c" y="58.888108"/>
     <use style="fill:#4c72b0;stroke:#4c72b0;" x="215.314897" xlink:href="#mce8ddf461c" y="108.35358"/>
     <use style="fill:#4c72b0;stroke:#4c72b0;" x="96.216083" xlink:href="#mce8ddf461c" y="89.248369"/>
    </g>
   </g>
   <g id="line2d_13">
    <defs>
     <path d="M 0 3 
C 0.795609 3 1.55874 2.683901 2.12132 2.12132 
C 2.683901 1.55874 3 0.795609 3 0 
C 3 -0.795609 2.683901 -1.55874 2.12132 -2.12132 
C 1.55874 -2.683901 0.795609 -3 0 -3 
C -0.795609 -3 -1.55874 -2.683901 -2.12132 -2.12132 
C -2.683901 -1.55874 -3 -0.795609 -3 0 
C -3 0.795609 -2.683901 1.55874 -2.12132 2.12132 
C -1.55874 2.683901 -0.795609 3 0 3 
z
" id="m0721ec0bc6" style="stroke:#dd8452;"/>
    </defs>
    <g clip-path="url(#p953c65ee6e)">
     <use style="fill:#dd8452;stroke:#dd8452;" x="143.635055" xlink:href="#m0721ec0bc6" y="109.583123"/>
     <use style="fill:#dd8452;stroke:#dd8452;" x="107.243751" xlink:href="#m0721ec0bc6" y="89.248369"/>
     <use style="fill:#dd8452;stroke:#dd8452;" x="180.026359" xlink:href="#m0721ec0bc6" y="204.447116"/>
     <use style="fill:#dd8452;stroke:#dd8452;" x="210.90383" xlink:href="#m0721ec0bc6" y="84.235615"/>
     <use style="fill:#dd8452;stroke:#dd8452;" x="337.722011" xlink:href="#m0721ec0bc6" y="88.018826"/>
     <use style="fill:#dd8452;stroke:#dd8452;" x="164.587624" xlink:href="#m0721ec0bc6" y="204.447116"/>
     <use style="fill:#dd8452;stroke:#dd8452;" x="196.567861" xlink:href="#m0721ec0bc6" y="148.928508"/>
     <use style="fill:#dd8452;stroke:#dd8452;" x="80.777347" xlink:href="#m0721ec0bc6" y="90.572492"/>
     <use style="fill:#dd8452;stroke:#dd8452;" x="171.204225" xlink:href="#m0721ec0bc6" y="199.528943"/>
     <use style="fill:#dd8452;stroke:#dd8452;" x="191.054027" xlink:href="#m0721ec0bc6" y="194.421609"/>
     <use style="fill:#dd8452;stroke:#dd8452;" x="187.745727" xlink:href="#m0721ec0bc6" y="209.55445"/>
     <use style="fill:#dd8452;stroke:#dd8452;" x="216.417664" xlink:href="#m0721ec0bc6" y="43.660687"/>
     <use style="fill:#dd8452;stroke:#dd8452;" x="294.714106" xlink:href="#m0721ec0bc6" y="88.018826"/>
     <use style="fill:#dd8452;stroke:#dd8452;" x="151.354423" xlink:href="#m0721ec0bc6" y="155.170805"/>
     <use style="fill:#dd8452;stroke:#dd8452;" x="245.0896" xlink:href="#m0721ec0bc6" y="44.890231"/>
     <use style="fill:#dd8452;stroke:#dd8452;" x="149.148889" xlink:href="#m0721ec0bc6" y="93.126159"/>
     <use style="fill:#dd8452;stroke:#dd8452;" x="239.575766" xlink:href="#m0721ec0bc6" y="43.660687"/>
     <use style="fill:#dd8452;stroke:#dd8452;" x="268.247703" xlink:href="#m0721ec0bc6" y="43.660687"/>
     <use style="fill:#dd8452;stroke:#dd8452;" x="275.967071" xlink:href="#m0721ec0bc6" y="89.248369"/>
     <use style="fill:#dd8452;stroke:#dd8452;" x="121.579719" xlink:href="#m0721ec0bc6" y="88.018826"/>
     <use style="fill:#dd8452;stroke:#dd8452;" x="235.164699" xlink:href="#m0721ec0bc6" y="36.094267"/>
     <use style="fill:#dd8452;stroke:#dd8452;" x="255.014502" xlink:href="#m0721ec0bc6" y="55.104898"/>
     <use style="fill:#dd8452;stroke:#dd8452;" x="306.844541" xlink:href="#m0721ec0bc6" y="77.898739"/>
     <use style="fill:#dd8452;stroke:#dd8452;" x="145.840589" xlink:href="#m0721ec0bc6" y="108.35358"/>
     <use style="fill:#dd8452;stroke:#dd8452;" x="327.79711" xlink:href="#m0721ec0bc6" y="100.597999"/>
     <use style="fill:#dd8452;stroke:#dd8452;" x="101.729917" xlink:href="#m0721ec0bc6" y="90.572492"/>
     <use style="fill:#dd8452;stroke:#dd8452;" x="186.64296" xlink:href="#m0721ec0bc6" y="204.447116"/>
     <use style="fill:#dd8452;stroke:#dd8452;" x="103.93545" xlink:href="#m0721ec0bc6" y="90.572492"/>
     <use style="fill:#dd8452;stroke:#dd8452;" x="133.710154" xlink:href="#m0721ec0bc6" y="90.572492"/>
     <use style="fill:#dd8452;stroke:#dd8452;" x="229.650865" xlink:href="#m0721ec0bc6" y="17.083636"/>
     <use style="fill:#dd8452;stroke:#dd8452;" x="111.654818" xlink:href="#m0721ec0bc6" y="90.572492"/>
     <use style="fill:#dd8452;stroke:#dd8452;" x="139.223988" xlink:href="#m0721ec0bc6" y="100.597999"/>
    </g>
   </g>
   <g id="patch_3">
    <path d="M 56.737031 224.64 
L 56.737031 7.2 
" style="fill:none;stroke:#262626;stroke-linecap:square;stroke-linejoin:miter;stroke-width:1.25;"/>
   </g>
   <g id="patch_4">
    <path d="M 391.537031 224.64 
L 391.537031 7.2 
" style="fill:none;stroke:#262626;stroke-linecap:square;stroke-linejoin:miter;stroke-width:1.25;"/>
   </g>
   <g id="patch_5">
    <path d="M 56.737031 224.64 
L 391.537031 224.64 
" style="fill:none;stroke:#262626;stroke-linecap:square;stroke-linejoin:miter;stroke-width:1.25;"/>
   </g>
   <g id="patch_6">
    <path d="M 56.737031 7.2 
L 391.537031 7.2 
" style="fill:none;stroke:#262626;stroke-linecap:square;stroke-linejoin:miter;stroke-width:1.25;"/>
   </g>
   <g id="legend_1">
    <g id="patch_7">
     <path d="M 64.437031 47.248594 
L 163.425 47.248594 
Q 165.625 47.248594 165.625 45.048594 
L 165.625 14.9 
Q 165.625 12.7 163.425 12.7 
L 64.437031 12.7 
Q 62.237031 12.7 62.237031 14.9 
L 62.237031 45.048594 
Q 62.237031 47.248594 64.437031 47.248594 
z
" style="fill:#ffffff;opacity:0.8;stroke:#cccccc;stroke-linejoin:miter;"/>
    </g>
    <g id="line2d_14"/>
    <g id="line2d_15">
     <g>
      <use style="fill:#4c72b0;stroke:#4c72b0;" x="77.637031" xlink:href="#mce8ddf461c" y="21.123594"/>
     </g>
    </g>
    <g id="text_14">
     <!-- Training data -->
     <g style="fill:#262626;" transform="translate(97.437031 24.973594)scale(0.11 -0.11)">
      <defs>
       <path d="M 40.234375 0 
L 40.234375 6.546875 
Q 35.296875 -1.171875 25.734375 -1.171875 
Q 19.53125 -1.171875 14.328125 2.25 
Q 9.125 5.671875 6.265625 11.796875 
Q 3.421875 17.921875 3.421875 25.875 
Q 3.421875 33.640625 6 39.96875 
Q 8.59375 46.296875 13.765625 49.65625 
Q 18.953125 53.03125 25.34375 53.03125 
Q 30.03125 53.03125 33.6875 51.046875 
Q 37.359375 49.078125 39.65625 45.90625 
L 39.65625 71.578125 
L 48.390625 71.578125 
L 48.390625 0 
z
M 12.453125 25.875 
Q 12.453125 15.921875 16.640625 10.984375 
Q 20.84375 6.0625 26.5625 6.0625 
Q 32.328125 6.0625 36.34375 10.765625 
Q 40.375 15.484375 40.375 25.140625 
Q 40.375 35.796875 36.265625 40.765625 
Q 32.171875 45.75 26.171875 45.75 
Q 20.3125 45.75 16.375 40.96875 
Q 12.453125 36.1875 12.453125 25.875 
z
" id="ArialMT-100"/>
      </defs>
      <use xlink:href="#ArialMT-84"/>
      <use x="57.333984" xlink:href="#ArialMT-114"/>
      <use x="90.634766" xlink:href="#ArialMT-97"/>
      <use x="146.25" xlink:href="#ArialMT-105"/>
      <use x="168.466797" xlink:href="#ArialMT-110"/>
      <use x="224.082031" xlink:href="#ArialMT-105"/>
      <use x="246.298828" xlink:href="#ArialMT-110"/>
      <use x="301.914062" xlink:href="#ArialMT-103"/>
      <use x="357.529297" xlink:href="#ArialMT-32"/>
      <use x="385.3125" xlink:href="#ArialMT-100"/>
      <use x="440.927734" xlink:href="#ArialMT-97"/>
      <use x="496.542969" xlink:href="#ArialMT-116"/>
      <use x="524.326172" xlink:href="#ArialMT-97"/>
     </g>
    </g>
    <g id="line2d_16"/>
    <g id="line2d_17">
     <g>
      <use style="fill:#dd8452;stroke:#dd8452;" x="77.637031" xlink:href="#m0721ec0bc6" y="36.812344"/>
     </g>
    </g>
    <g id="text_15">
     <!-- Test data -->
     <g style="fill:#262626;" transform="translate(97.437031 40.662344)scale(0.11 -0.11)">
      <use xlink:href="#ArialMT-84"/>
      <use x="49.958984" xlink:href="#ArialMT-101"/>
      <use x="105.574219" xlink:href="#ArialMT-115"/>
      <use x="155.574219" xlink:href="#ArialMT-116"/>
      <use x="183.357422" xlink:href="#ArialMT-32"/>
      <use x="211.140625" xlink:href="#ArialMT-100"/>
      <use x="266.755859" xlink:href="#ArialMT-97"/>
      <use x="322.371094" xlink:href="#ArialMT-116"/>
      <use x="350.154297" xlink:href="#ArialMT-97"/>
     </g>
    </g>
   </g>
  </g>
 </g>
 <defs>
  <clipPath id="p953c65ee6e">
   <rect height="217.44" width="334.8" x="56.737031" y="7.2"/>
  </clipPath>
 </defs>
</svg>