<?xml version="1.0" encoding="utf-8" standalone="no"?>
<!DOCTYPE svg PUBLIC "-//W3C//DTD SVG 1.1//EN"
  "http://www.w3.org/Graphics/SVG/1.1/DTD/svg11.dtd">
<!-- Created with matplotlib (https://matplotlib.org/) -->
<svg height="281.286094pt" version="1.1" viewBox="0 0 398.737031 281.286094" width="398.737031pt" xmlns="http://www.w3.org/2000/svg" xmlns:xlink="http://www.w3.org/1999/xlink">
 <metadata>
  <rdf:RDF xmlns:cc="http://creativecommons.org/ns#" xmlns:dc="http://purl.org/dc/elements/1.1/" xmlns:rdf="http://www.w3.org/1999/02/22-rdf-syntax-ns#">
   <cc:Work>
    <dc:type rdf:resource="http://purl.org/dc/dcmitype/StillImage"/>
    <dc:date>2021-08-09T09:20:29.055767</dc:date>
    <dc:format>image/svg+xml</dc:format>
    <dc:creator>
     <cc:Agent>
      <dc:title>Matplotlib v3.3.4, https://matplotlib.org/</dc:title>
     </cc:Agent>
    </dc:creator>
   </cc:Work>
  </rdf:RDF>
 </metadata>
 <defs>
  <style type="text/css">*{stroke-linecap:butt;stroke-linejoin:round;}</style>
 </defs>
 <g id="figure_1">
  <g id="patch_1">
   <path d="M 0 281.286094 
L 398.737031 281.286094 
L 398.737031 0 
L 0 0 
z
" style="fill:#ffffff;"/>
  </g>
  <g id="axes_1">
   <g id="patch_2">
    <path d="M 56.737031 239.265 
L 391.537031 239.265 
L 391.537031 21.825 
L 56.737031 21.825 
z
" style="fill:#ffffff;"/>
   </g>
   <g id="matplotlib.axis_1">
    <g id="xtick_1">
     <g id="line2d_1">
      <defs>
       <path d="M 0 0 
L 0 6 
" id="mb5a7b8a524" style="stroke:#262626;stroke-width:1.25;"/>
      </defs>
      <g>
       <use style="fill:#262626;stroke:#262626;stroke-width:1.25;" x="71.955213" xlink:href="#mb5a7b8a524" y="239.265"/>
      </g>
     </g>
     <g id="text_1">
      <!-- 0 -->
      <g style="fill:#262626;" transform="translate(68.896697 256.638594)scale(0.11 -0.11)">
       <defs>
        <path d="M 4.15625 35.296875 
Q 4.15625 48 6.765625 55.734375 
Q 9.375 63.484375 14.515625 67.671875 
Q 19.671875 71.875 27.484375 71.875 
Q 33.25 71.875 37.59375 69.546875 
Q 41.9375 67.234375 44.765625 62.859375 
Q 47.609375 58.5 49.21875 52.21875 
Q 50.828125 45.953125 50.828125 35.296875 
Q 50.828125 22.703125 48.234375 14.96875 
Q 45.65625 7.234375 40.5 3 
Q 35.359375 -1.21875 27.484375 -1.21875 
Q 17.140625 -1.21875 11.234375 6.203125 
Q 4.15625 15.140625 4.15625 35.296875 
z
M 13.1875 35.296875 
Q 13.1875 17.671875 17.3125 11.828125 
Q 21.4375 6 27.484375 6 
Q 33.546875 6 37.671875 11.859375 
Q 41.796875 17.71875 41.796875 35.296875 
Q 41.796875 52.984375 37.671875 58.78125 
Q 33.546875 64.59375 27.390625 64.59375 
Q 21.34375 64.59375 17.71875 59.46875 
Q 13.1875 52.9375 13.1875 35.296875 
z
" id="ArialMT-48"/>
       </defs>
       <use xlink:href="#ArialMT-48"/>
      </g>
     </g>
    </g>
    <g id="xtick_2">
     <g id="line2d_2">
      <g>
       <use style="fill:#262626;stroke:#262626;stroke-width:1.25;" x="122.682486" xlink:href="#mb5a7b8a524" y="239.265"/>
      </g>
     </g>
     <g id="text_2">
      <!-- 10 -->
      <g style="fill:#262626;" transform="translate(116.565455 256.638594)scale(0.11 -0.11)">
       <defs>
        <path d="M 37.25 0 
L 28.46875 0 
L 28.46875 56 
Q 25.296875 52.984375 20.140625 49.953125 
Q 14.984375 46.921875 10.890625 45.40625 
L 10.890625 53.90625 
Q 18.265625 57.375 23.78125 62.296875 
Q 29.296875 67.234375 31.59375 71.875 
L 37.25 71.875 
z
" id="ArialMT-49"/>
       </defs>
       <use xlink:href="#ArialMT-49"/>
       <use x="55.615234" xlink:href="#ArialMT-48"/>
      </g>
     </g>
    </g>
    <g id="xtick_3">
     <g id="line2d_3">
      <g>
       <use style="fill:#262626;stroke:#262626;stroke-width:1.25;" x="173.409759" xlink:href="#mb5a7b8a524" y="239.265"/>
      </g>
     </g>
     <g id="text_3">
      <!-- 20 -->
      <g style="fill:#262626;" transform="translate(167.292727 256.638594)scale(0.11 -0.11)">
       <defs>
        <path d="M 50.34375 8.453125 
L 50.34375 0 
L 3.03125 0 
Q 2.9375 3.171875 4.046875 6.109375 
Q 5.859375 10.9375 9.828125 15.625 
Q 13.8125 20.3125 21.34375 26.46875 
Q 33.015625 36.03125 37.109375 41.625 
Q 41.21875 47.21875 41.21875 52.203125 
Q 41.21875 57.421875 37.46875 61 
Q 33.734375 64.59375 27.734375 64.59375 
Q 21.390625 64.59375 17.578125 60.78125 
Q 13.765625 56.984375 13.71875 50.25 
L 4.6875 51.171875 
Q 5.609375 61.28125 11.65625 66.578125 
Q 17.71875 71.875 27.9375 71.875 
Q 38.234375 71.875 44.234375 66.15625 
Q 50.25 60.453125 50.25 52 
Q 50.25 47.703125 48.484375 43.546875 
Q 46.734375 39.40625 42.65625 34.8125 
Q 38.578125 30.21875 29.109375 22.21875 
Q 21.1875 15.578125 18.9375 13.203125 
Q 16.703125 10.84375 15.234375 8.453125 
z
" id="ArialMT-50"/>
       </defs>
       <use xlink:href="#ArialMT-50"/>
       <use x="55.615234" xlink:href="#ArialMT-48"/>
      </g>
     </g>
    </g>
    <g id="xtick_4">
     <g id="line2d_4">
      <g>
       <use style="fill:#262626;stroke:#262626;stroke-width:1.25;" x="224.137031" xlink:href="#mb5a7b8a524" y="239.265"/>
      </g>
     </g>
     <g id="text_4">
      <!-- 30 -->
      <g style="fill:#262626;" transform="translate(218.02 256.638594)scale(0.11 -0.11)">
       <defs>
        <path d="M 4.203125 18.890625 
L 12.984375 20.0625 
Q 14.5 12.59375 18.140625 9.296875 
Q 21.78125 6 27 6 
Q 33.203125 6 37.46875 10.296875 
Q 41.75 14.59375 41.75 20.953125 
Q 41.75 27 37.796875 30.921875 
Q 33.84375 34.859375 27.734375 34.859375 
Q 25.25 34.859375 21.53125 33.890625 
L 22.515625 41.609375 
Q 23.390625 41.5 23.921875 41.5 
Q 29.546875 41.5 34.03125 44.421875 
Q 38.53125 47.359375 38.53125 53.46875 
Q 38.53125 58.296875 35.25 61.46875 
Q 31.984375 64.65625 26.8125 64.65625 
Q 21.6875 64.65625 18.265625 61.421875 
Q 14.84375 58.203125 13.875 51.765625 
L 5.078125 53.328125 
Q 6.6875 62.15625 12.390625 67.015625 
Q 18.109375 71.875 26.609375 71.875 
Q 32.46875 71.875 37.390625 69.359375 
Q 42.328125 66.84375 44.9375 62.5 
Q 47.5625 58.15625 47.5625 53.265625 
Q 47.5625 48.640625 45.0625 44.828125 
Q 42.578125 41.015625 37.703125 38.765625 
Q 44.046875 37.3125 47.5625 32.6875 
Q 51.078125 28.078125 51.078125 21.140625 
Q 51.078125 11.765625 44.234375 5.25 
Q 37.40625 -1.265625 26.953125 -1.265625 
Q 17.53125 -1.265625 11.296875 4.34375 
Q 5.078125 9.96875 4.203125 18.890625 
z
" id="ArialMT-51"/>
       </defs>
       <use xlink:href="#ArialMT-51"/>
       <use x="55.615234" xlink:href="#ArialMT-48"/>
      </g>
     </g>
    </g>
    <g id="xtick_5">
     <g id="line2d_5">
      <g>
       <use style="fill:#262626;stroke:#262626;stroke-width:1.25;" x="274.864304" xlink:href="#mb5a7b8a524" y="239.265"/>
      </g>
     </g>
     <g id="text_5">
      <!-- 40 -->
      <g style="fill:#262626;" transform="translate(268.747273 256.638594)scale(0.11 -0.11)">
       <defs>
        <path d="M 32.328125 0 
L 32.328125 17.140625 
L 1.265625 17.140625 
L 1.265625 25.203125 
L 33.9375 71.578125 
L 41.109375 71.578125 
L 41.109375 25.203125 
L 50.78125 25.203125 
L 50.78125 17.140625 
L 41.109375 17.140625 
L 41.109375 0 
z
M 32.328125 25.203125 
L 32.328125 57.46875 
L 9.90625 25.203125 
z
" id="ArialMT-52"/>
       </defs>
       <use xlink:href="#ArialMT-52"/>
       <use x="55.615234" xlink:href="#ArialMT-48"/>
      </g>
     </g>
    </g>
    <g id="xtick_6">
     <g id="line2d_6">
      <g>
       <use style="fill:#262626;stroke:#262626;stroke-width:1.25;" x="325.591577" xlink:href="#mb5a7b8a524" y="239.265"/>
      </g>
     </g>
     <g id="text_6">
      <!-- 50 -->
      <g style="fill:#262626;" transform="translate(319.474545 256.638594)scale(0.11 -0.11)">
       <defs>
        <path d="M 4.15625 18.75 
L 13.375 19.53125 
Q 14.40625 12.796875 18.140625 9.390625 
Q 21.875 6 27.15625 6 
Q 33.5 6 37.890625 10.78125 
Q 42.28125 15.578125 42.28125 23.484375 
Q 42.28125 31 38.0625 35.34375 
Q 33.84375 39.703125 27 39.703125 
Q 22.75 39.703125 19.328125 37.765625 
Q 15.921875 35.84375 13.96875 32.765625 
L 5.71875 33.84375 
L 12.640625 70.609375 
L 48.25 70.609375 
L 48.25 62.203125 
L 19.671875 62.203125 
L 15.828125 42.96875 
Q 22.265625 47.46875 29.34375 47.46875 
Q 38.71875 47.46875 45.15625 40.96875 
Q 51.609375 34.46875 51.609375 24.265625 
Q 51.609375 14.546875 45.953125 7.46875 
Q 39.0625 -1.21875 27.15625 -1.21875 
Q 17.390625 -1.21875 11.203125 4.25 
Q 5.03125 9.71875 4.15625 18.75 
z
" id="ArialMT-53"/>
       </defs>
       <use xlink:href="#ArialMT-53"/>
       <use x="55.615234" xlink:href="#ArialMT-48"/>
      </g>
     </g>
    </g>
    <g id="xtick_7">
     <g id="line2d_7">
      <g>
       <use style="fill:#262626;stroke:#262626;stroke-width:1.25;" x="376.318849" xlink:href="#mb5a7b8a524" y="239.265"/>
      </g>
     </g>
     <g id="text_7">
      <!-- 60 -->
      <g style="fill:#262626;" transform="translate(370.201818 256.638594)scale(0.11 -0.11)">
       <defs>
        <path d="M 49.75 54.046875 
L 41.015625 53.375 
Q 39.84375 58.546875 37.703125 60.890625 
Q 34.125 64.65625 28.90625 64.65625 
Q 24.703125 64.65625 21.53125 62.3125 
Q 17.390625 59.28125 14.984375 53.46875 
Q 12.59375 47.65625 12.5 36.921875 
Q 15.671875 41.75 20.265625 44.09375 
Q 24.859375 46.4375 29.890625 46.4375 
Q 38.671875 46.4375 44.84375 39.96875 
Q 51.03125 33.5 51.03125 23.25 
Q 51.03125 16.5 48.125 10.71875 
Q 45.21875 4.9375 40.140625 1.859375 
Q 35.0625 -1.21875 28.609375 -1.21875 
Q 17.625 -1.21875 10.6875 6.859375 
Q 3.765625 14.9375 3.765625 33.5 
Q 3.765625 54.25 11.421875 63.671875 
Q 18.109375 71.875 29.4375 71.875 
Q 37.890625 71.875 43.28125 67.140625 
Q 48.6875 62.40625 49.75 54.046875 
z
M 13.875 23.1875 
Q 13.875 18.65625 15.796875 14.5 
Q 17.71875 10.359375 21.1875 8.171875 
Q 24.65625 6 28.46875 6 
Q 34.03125 6 38.03125 10.484375 
Q 42.046875 14.984375 42.046875 22.703125 
Q 42.046875 30.125 38.078125 34.390625 
Q 34.125 38.671875 28.125 38.671875 
Q 22.171875 38.671875 18.015625 34.390625 
Q 13.875 30.125 13.875 23.1875 
z
" id="ArialMT-54"/>
       </defs>
       <use xlink:href="#ArialMT-54"/>
       <use x="55.615234" xlink:href="#ArialMT-48"/>
      </g>
     </g>
    </g>
    <g id="text_8">
     <!-- Time (ms) -->
     <g style="fill:#262626;" transform="translate(197.369531 271.560469)scale(0.12 -0.12)">
      <defs>
       <path d="M 25.921875 0 
L 25.921875 63.140625 
L 2.34375 63.140625 
L 2.34375 71.578125 
L 59.078125 71.578125 
L 59.078125 63.140625 
L 35.40625 63.140625 
L 35.40625 0 
z
" id="ArialMT-84"/>
       <path d="M 6.640625 61.46875 
L 6.640625 71.578125 
L 15.4375 71.578125 
L 15.4375 61.46875 
z
M 6.640625 0 
L 6.640625 51.859375 
L 15.4375 51.859375 
L 15.4375 0 
z
" id="ArialMT-105"/>
       <path d="M 6.59375 0 
L 6.59375 51.859375 
L 14.453125 51.859375 
L 14.453125 44.578125 
Q 16.890625 48.390625 20.9375 50.703125 
Q 25 53.03125 30.171875 53.03125 
Q 35.9375 53.03125 39.625 50.640625 
Q 43.3125 48.25 44.828125 43.953125 
Q 50.984375 53.03125 60.84375 53.03125 
Q 68.5625 53.03125 72.703125 48.75 
Q 76.859375 44.484375 76.859375 35.59375 
L 76.859375 0 
L 68.109375 0 
L 68.109375 32.671875 
Q 68.109375 37.9375 67.25 40.25 
Q 66.40625 42.578125 64.15625 43.984375 
Q 61.921875 45.40625 58.890625 45.40625 
Q 53.421875 45.40625 49.796875 41.765625 
Q 46.1875 38.140625 46.1875 30.125 
L 46.1875 0 
L 37.40625 0 
L 37.40625 33.6875 
Q 37.40625 39.546875 35.25 42.46875 
Q 33.109375 45.40625 28.21875 45.40625 
Q 24.515625 45.40625 21.359375 43.453125 
Q 18.21875 41.5 16.796875 37.734375 
Q 15.375 33.984375 15.375 26.90625 
L 15.375 0 
z
" id="ArialMT-109"/>
       <path d="M 42.09375 16.703125 
L 51.171875 15.578125 
Q 49.03125 7.625 43.21875 3.21875 
Q 37.40625 -1.171875 28.375 -1.171875 
Q 17 -1.171875 10.328125 5.828125 
Q 3.65625 12.84375 3.65625 25.484375 
Q 3.65625 38.578125 10.390625 45.796875 
Q 17.140625 53.03125 27.875 53.03125 
Q 38.28125 53.03125 44.875 45.953125 
Q 51.46875 38.875 51.46875 26.03125 
Q 51.46875 25.25 51.421875 23.6875 
L 12.75 23.6875 
Q 13.234375 15.140625 17.578125 10.59375 
Q 21.921875 6.0625 28.421875 6.0625 
Q 33.25 6.0625 36.671875 8.59375 
Q 40.09375 11.140625 42.09375 16.703125 
z
M 13.234375 30.90625 
L 42.1875 30.90625 
Q 41.609375 37.453125 38.875 40.71875 
Q 34.671875 45.796875 27.984375 45.796875 
Q 21.921875 45.796875 17.796875 41.75 
Q 13.671875 37.703125 13.234375 30.90625 
z
" id="ArialMT-101"/>
       <path id="ArialMT-32"/>
       <path d="M 23.390625 -21.046875 
Q 16.109375 -11.859375 11.078125 0.4375 
Q 6.0625 12.75 6.0625 25.921875 
Q 6.0625 37.546875 9.8125 48.1875 
Q 14.203125 60.546875 23.390625 72.796875 
L 29.6875 72.796875 
Q 23.78125 62.640625 21.875 58.296875 
Q 18.890625 51.5625 17.1875 44.234375 
Q 15.09375 35.109375 15.09375 25.875 
Q 15.09375 2.390625 29.6875 -21.046875 
z
" id="ArialMT-40"/>
       <path d="M 3.078125 15.484375 
L 11.765625 16.84375 
Q 12.5 11.625 15.84375 8.84375 
Q 19.1875 6.0625 25.203125 6.0625 
Q 31.25 6.0625 34.171875 8.515625 
Q 37.109375 10.984375 37.109375 14.3125 
Q 37.109375 17.28125 34.515625 19 
Q 32.71875 20.171875 25.53125 21.96875 
Q 15.875 24.421875 12.140625 26.203125 
Q 8.40625 27.984375 6.46875 31.125 
Q 4.546875 34.28125 4.546875 38.09375 
Q 4.546875 41.546875 6.125 44.5 
Q 7.71875 47.46875 10.453125 49.421875 
Q 12.5 50.921875 16.03125 51.96875 
Q 19.578125 53.03125 23.640625 53.03125 
Q 29.734375 53.03125 34.34375 51.265625 
Q 38.96875 49.515625 41.15625 46.5 
Q 43.359375 43.5 44.1875 38.484375 
L 35.59375 37.3125 
Q 35.015625 41.3125 32.203125 43.546875 
Q 29.390625 45.796875 24.265625 45.796875 
Q 18.21875 45.796875 15.625 43.796875 
Q 13.03125 41.796875 13.03125 39.109375 
Q 13.03125 37.40625 14.109375 36.03125 
Q 15.1875 34.625 17.484375 33.6875 
Q 18.796875 33.203125 25.25 31.453125 
Q 34.578125 28.953125 38.25 27.359375 
Q 41.9375 25.78125 44.03125 22.75 
Q 46.140625 19.734375 46.140625 15.234375 
Q 46.140625 10.84375 43.578125 6.953125 
Q 41.015625 3.078125 36.171875 0.953125 
Q 31.34375 -1.171875 25.25 -1.171875 
Q 15.140625 -1.171875 9.84375 3.03125 
Q 4.546875 7.234375 3.078125 15.484375 
z
" id="ArialMT-115"/>
       <path d="M 12.359375 -21.046875 
L 6.0625 -21.046875 
Q 20.65625 2.390625 20.65625 25.875 
Q 20.65625 35.0625 18.5625 44.09375 
Q 16.890625 51.421875 13.921875 58.15625 
Q 12.015625 62.546875 6.0625 72.796875 
L 12.359375 72.796875 
Q 21.53125 60.546875 25.921875 48.1875 
Q 29.6875 37.546875 29.6875 25.921875 
Q 29.6875 12.75 24.625 0.4375 
Q 19.578125 -11.859375 12.359375 -21.046875 
z
" id="ArialMT-41"/>
      </defs>
      <use xlink:href="#ArialMT-84"/>
      <use x="57.333984" xlink:href="#ArialMT-105"/>
      <use x="79.550781" xlink:href="#ArialMT-109"/>
      <use x="162.851562" xlink:href="#ArialMT-101"/>
      <use x="218.466797" xlink:href="#ArialMT-32"/>
      <use x="246.25" xlink:href="#ArialMT-40"/>
      <use x="279.550781" xlink:href="#ArialMT-109"/>
      <use x="362.851562" xlink:href="#ArialMT-115"/>
      <use x="412.851562" xlink:href="#ArialMT-41"/>
     </g>
    </g>
   </g>
   <g id="matplotlib.axis_2">
    <g id="ytick_1">
     <g id="line2d_8">
      <defs>
       <path d="M 0 0 
L -6 0 
" id="m517335c8ba" style="stroke:#262626;stroke-width:1.25;"/>
      </defs>
      <g>
       <use style="fill:#262626;stroke:#262626;stroke-width:1.25;" x="56.737031" xlink:href="#m517335c8ba" y="197.224078"/>
      </g>
     </g>
     <g id="text_9">
      <!-- −100 -->
      <g style="fill:#262626;" transform="translate(22.46125 201.160875)scale(0.11 -0.11)">
       <defs>
        <path d="M 52.828125 31.203125 
L 5.5625 31.203125 
L 5.5625 39.40625 
L 52.828125 39.40625 
z
" id="ArialMT-8722"/>
       </defs>
       <use xlink:href="#ArialMT-8722"/>
       <use x="58.398438" xlink:href="#ArialMT-49"/>
       <use x="114.013672" xlink:href="#ArialMT-48"/>
       <use x="169.628906" xlink:href="#ArialMT-48"/>
      </g>
     </g>
    </g>
    <g id="ytick_2">
     <g id="line2d_9">
      <g>
       <use style="fill:#262626;stroke:#262626;stroke-width:1.25;" x="56.737031" xlink:href="#m517335c8ba" y="149.933952"/>
      </g>
     </g>
     <g id="text_10">
      <!-- −50 -->
      <g style="fill:#262626;" transform="translate(28.578281 153.870749)scale(0.11 -0.11)">
       <use xlink:href="#ArialMT-8722"/>
       <use x="58.398438" xlink:href="#ArialMT-53"/>
       <use x="114.013672" xlink:href="#ArialMT-48"/>
      </g>
     </g>
    </g>
    <g id="ytick_3">
     <g id="line2d_10">
      <g>
       <use style="fill:#262626;stroke:#262626;stroke-width:1.25;" x="56.737031" xlink:href="#m517335c8ba" y="102.643826"/>
      </g>
     </g>
     <g id="text_11">
      <!-- 0 -->
      <g style="fill:#262626;" transform="translate(41.12 106.580622)scale(0.11 -0.11)">
       <use xlink:href="#ArialMT-48"/>
      </g>
     </g>
    </g>
    <g id="ytick_4">
     <g id="line2d_11">
      <g>
       <use style="fill:#262626;stroke:#262626;stroke-width:1.25;" x="56.737031" xlink:href="#m517335c8ba" y="55.353699"/>
      </g>
     </g>
     <g id="text_12">
      <!-- 50 -->
      <g style="fill:#262626;" transform="translate(35.002969 59.290496)scale(0.11 -0.11)">
       <use xlink:href="#ArialMT-53"/>
       <use x="55.615234" xlink:href="#ArialMT-48"/>
      </g>
     </g>
    </g>
    <g id="text_13">
     <!-- Acceleration (g) -->
     <g style="fill:#262626;" transform="translate(15.935625 172.56)rotate(-90)scale(0.12 -0.12)">
      <defs>
       <path d="M -0.140625 0 
L 27.34375 71.578125 
L 37.546875 71.578125 
L 66.84375 0 
L 56.0625 0 
L 47.703125 21.6875 
L 17.78125 21.6875 
L 9.90625 0 
z
M 20.515625 29.390625 
L 44.78125 29.390625 
L 37.3125 49.21875 
Q 33.890625 58.25 32.234375 64.0625 
Q 30.859375 57.171875 28.375 50.390625 
z
" id="ArialMT-65"/>
       <path d="M 40.4375 19 
L 49.078125 17.875 
Q 47.65625 8.9375 41.8125 3.875 
Q 35.984375 -1.171875 27.484375 -1.171875 
Q 16.84375 -1.171875 10.375 5.78125 
Q 3.90625 12.75 3.90625 25.734375 
Q 3.90625 34.125 6.6875 40.421875 
Q 9.46875 46.734375 15.15625 49.875 
Q 20.84375 53.03125 27.546875 53.03125 
Q 35.984375 53.03125 41.359375 48.75 
Q 46.734375 44.484375 48.25 36.625 
L 39.703125 35.296875 
Q 38.484375 40.53125 35.375 43.15625 
Q 32.28125 45.796875 27.875 45.796875 
Q 21.234375 45.796875 17.078125 41.03125 
Q 12.9375 36.28125 12.9375 25.984375 
Q 12.9375 15.53125 16.9375 10.796875 
Q 20.953125 6.0625 27.390625 6.0625 
Q 32.5625 6.0625 36.03125 9.234375 
Q 39.5 12.40625 40.4375 19 
z
" id="ArialMT-99"/>
       <path d="M 6.390625 0 
L 6.390625 71.578125 
L 15.1875 71.578125 
L 15.1875 0 
z
" id="ArialMT-108"/>
       <path d="M 6.5 0 
L 6.5 51.859375 
L 14.40625 51.859375 
L 14.40625 44 
Q 17.4375 49.515625 20 51.265625 
Q 22.5625 53.03125 25.640625 53.03125 
Q 30.078125 53.03125 34.671875 50.203125 
L 31.640625 42.046875 
Q 28.421875 43.953125 25.203125 43.953125 
Q 22.3125 43.953125 20.015625 42.21875 
Q 17.71875 40.484375 16.75 37.40625 
Q 15.28125 32.71875 15.28125 27.15625 
L 15.28125 0 
z
" id="ArialMT-114"/>
       <path d="M 40.4375 6.390625 
Q 35.546875 2.25 31.03125 0.53125 
Q 26.515625 -1.171875 21.34375 -1.171875 
Q 12.796875 -1.171875 8.203125 3 
Q 3.609375 7.171875 3.609375 13.671875 
Q 3.609375 17.484375 5.34375 20.625 
Q 7.078125 23.78125 9.890625 25.6875 
Q 12.703125 27.59375 16.21875 28.5625 
Q 18.796875 29.25 24.03125 29.890625 
Q 34.671875 31.15625 39.703125 32.90625 
Q 39.75 34.71875 39.75 35.203125 
Q 39.75 40.578125 37.25 42.78125 
Q 33.890625 45.75 27.25 45.75 
Q 21.046875 45.75 18.09375 43.578125 
Q 15.140625 41.40625 13.71875 35.890625 
L 5.125 37.0625 
Q 6.296875 42.578125 8.984375 45.96875 
Q 11.671875 49.359375 16.75 51.1875 
Q 21.828125 53.03125 28.515625 53.03125 
Q 35.15625 53.03125 39.296875 51.46875 
Q 43.453125 49.90625 45.40625 47.53125 
Q 47.359375 45.171875 48.140625 41.546875 
Q 48.578125 39.3125 48.578125 33.453125 
L 48.578125 21.734375 
Q 48.578125 9.46875 49.140625 6.21875 
Q 49.703125 2.984375 51.375 0 
L 42.1875 0 
Q 40.828125 2.734375 40.4375 6.390625 
z
M 39.703125 26.03125 
Q 34.90625 24.078125 25.34375 22.703125 
Q 19.921875 21.921875 17.671875 20.9375 
Q 15.4375 19.96875 14.203125 18.09375 
Q 12.984375 16.21875 12.984375 13.921875 
Q 12.984375 10.40625 15.640625 8.0625 
Q 18.3125 5.71875 23.4375 5.71875 
Q 28.515625 5.71875 32.46875 7.9375 
Q 36.421875 10.15625 38.28125 14.015625 
Q 39.703125 17 39.703125 22.796875 
z
" id="ArialMT-97"/>
       <path d="M 25.78125 7.859375 
L 27.046875 0.09375 
Q 23.34375 -0.6875 20.40625 -0.6875 
Q 15.625 -0.6875 12.984375 0.828125 
Q 10.359375 2.34375 9.28125 4.8125 
Q 8.203125 7.28125 8.203125 15.1875 
L 8.203125 45.015625 
L 1.765625 45.015625 
L 1.765625 51.859375 
L 8.203125 51.859375 
L 8.203125 64.703125 
L 16.9375 69.96875 
L 16.9375 51.859375 
L 25.78125 51.859375 
L 25.78125 45.015625 
L 16.9375 45.015625 
L 16.9375 14.703125 
Q 16.9375 10.9375 17.40625 9.859375 
Q 17.875 8.796875 18.921875 8.15625 
Q 19.96875 7.515625 21.921875 7.515625 
Q 23.390625 7.515625 25.78125 7.859375 
z
" id="ArialMT-116"/>
       <path d="M 3.328125 25.921875 
Q 3.328125 40.328125 11.328125 47.265625 
Q 18.015625 53.03125 27.640625 53.03125 
Q 38.328125 53.03125 45.109375 46.015625 
Q 51.90625 39.015625 51.90625 26.65625 
Q 51.90625 16.65625 48.90625 10.90625 
Q 45.90625 5.171875 40.15625 2 
Q 34.421875 -1.171875 27.640625 -1.171875 
Q 16.75 -1.171875 10.03125 5.8125 
Q 3.328125 12.796875 3.328125 25.921875 
z
M 12.359375 25.921875 
Q 12.359375 15.96875 16.703125 11.015625 
Q 21.046875 6.0625 27.640625 6.0625 
Q 34.1875 6.0625 38.53125 11.03125 
Q 42.875 16.015625 42.875 26.21875 
Q 42.875 35.84375 38.5 40.796875 
Q 34.125 45.75 27.640625 45.75 
Q 21.046875 45.75 16.703125 40.8125 
Q 12.359375 35.890625 12.359375 25.921875 
z
" id="ArialMT-111"/>
       <path d="M 6.59375 0 
L 6.59375 51.859375 
L 14.5 51.859375 
L 14.5 44.484375 
Q 20.21875 53.03125 31 53.03125 
Q 35.6875 53.03125 39.625 51.34375 
Q 43.5625 49.65625 45.515625 46.921875 
Q 47.46875 44.1875 48.25 40.4375 
Q 48.734375 37.984375 48.734375 31.890625 
L 48.734375 0 
L 39.9375 0 
L 39.9375 31.546875 
Q 39.9375 36.921875 38.90625 39.578125 
Q 37.890625 42.234375 35.28125 43.8125 
Q 32.671875 45.40625 29.15625 45.40625 
Q 23.53125 45.40625 19.453125 41.84375 
Q 15.375 38.28125 15.375 28.328125 
L 15.375 0 
z
" id="ArialMT-110"/>
       <path d="M 4.984375 -4.296875 
L 13.53125 -5.5625 
Q 14.0625 -9.515625 16.5 -11.328125 
Q 19.78125 -13.765625 25.4375 -13.765625 
Q 31.546875 -13.765625 34.859375 -11.328125 
Q 38.1875 -8.890625 39.359375 -4.5 
Q 40.046875 -1.8125 39.984375 6.78125 
Q 34.234375 0 25.640625 0 
Q 14.9375 0 9.078125 7.71875 
Q 3.21875 15.4375 3.21875 26.21875 
Q 3.21875 33.640625 5.90625 39.90625 
Q 8.59375 46.1875 13.6875 49.609375 
Q 18.796875 53.03125 25.6875 53.03125 
Q 34.859375 53.03125 40.828125 45.609375 
L 40.828125 51.859375 
L 48.921875 51.859375 
L 48.921875 7.03125 
Q 48.921875 -5.078125 46.453125 -10.125 
Q 44 -15.1875 38.640625 -18.109375 
Q 33.296875 -21.046875 25.484375 -21.046875 
Q 16.21875 -21.046875 10.5 -16.875 
Q 4.78125 -12.703125 4.984375 -4.296875 
z
M 12.25 26.859375 
Q 12.25 16.65625 16.296875 11.96875 
Q 20.359375 7.28125 26.46875 7.28125 
Q 32.515625 7.28125 36.609375 11.9375 
Q 40.71875 16.609375 40.71875 26.5625 
Q 40.71875 36.078125 36.5 40.90625 
Q 32.28125 45.75 26.3125 45.75 
Q 20.453125 45.75 16.34375 40.984375 
Q 12.25 36.234375 12.25 26.859375 
z
" id="ArialMT-103"/>
      </defs>
      <use xlink:href="#ArialMT-65"/>
      <use x="66.699219" xlink:href="#ArialMT-99"/>
      <use x="116.699219" xlink:href="#ArialMT-99"/>
      <use x="166.699219" xlink:href="#ArialMT-101"/>
      <use x="222.314453" xlink:href="#ArialMT-108"/>
      <use x="244.53125" xlink:href="#ArialMT-101"/>
      <use x="300.146484" xlink:href="#ArialMT-114"/>
      <use x="333.447266" xlink:href="#ArialMT-97"/>
      <use x="389.0625" xlink:href="#ArialMT-116"/>
      <use x="416.845703" xlink:href="#ArialMT-105"/>
      <use x="439.0625" xlink:href="#ArialMT-111"/>
      <use x="494.677734" xlink:href="#ArialMT-110"/>
      <use x="550.292969" xlink:href="#ArialMT-32"/>
      <use x="578.076172" xlink:href="#ArialMT-40"/>
      <use x="611.376953" xlink:href="#ArialMT-103"/>
      <use x="666.992188" xlink:href="#ArialMT-41"/>
     </g>
    </g>
   </g>
   <g id="line2d_12">
    <defs>
     <path d="M -3 3 
L 3 -3 
M -3 -3 
L 3 3 
" id="m1013fdf80c" style="stroke:#4c72b0;"/>
    </defs>
    <g clip-path="url(#p0b4132748e)">
     <use style="fill:#4c72b0;stroke:#4c72b0;" x="270.806122" xlink:href="#m1013fdf80c" y="97.536492"/>
     <use style="fill:#4c72b0;stroke:#4c72b0;" x="274.864304" xlink:href="#m1013fdf80c" y="122.97858"/>
     <use style="fill:#4c72b0;stroke:#4c72b0;" x="166.30794" xlink:href="#m1013fdf80c" y="209.046609"/>
     <use style="fill:#4c72b0;stroke:#4c72b0;" x="88.18794" xlink:href="#m1013fdf80c" y="105.197492"/>
     <use style="fill:#4c72b0;stroke:#4c72b0;" x="174.424304" xlink:href="#m1013fdf80c" y="219.072116"/>
     <use style="fill:#4c72b0;stroke:#4c72b0;" x="180.511577" xlink:href="#m1013fdf80c" y="199.021103"/>
     <use style="fill:#4c72b0;stroke:#4c72b0;" x="196.744304" xlink:href="#m1013fdf80c" y="153.244261"/>
     <use style="fill:#4c72b0;stroke:#4c72b0;" x="255.58794" xlink:href="#m1013fdf80c" y="138.11142"/>
     <use style="fill:#4c72b0;stroke:#4c72b0;" x="295.155213" xlink:href="#m1013fdf80c" y="103.873369"/>
     <use style="fill:#4c72b0;stroke:#4c72b0;" x="364.144304" xlink:href="#m1013fdf80c" y="92.523739"/>
     <use style="fill:#4c72b0;stroke:#4c72b0;" x="161.235213" xlink:href="#m1013fdf80c" y="138.11142"/>
     <use style="fill:#4c72b0;stroke:#4c72b0;" x="200.802486" xlink:href="#m1013fdf80c" y="171.025348"/>
     <use style="fill:#4c72b0;stroke:#4c72b0;" x="290.082486" xlink:href="#m1013fdf80c" y="88.740528"/>
     <use style="fill:#4c72b0;stroke:#4c72b0;" x="204.860668" xlink:href="#m1013fdf80c" y="203.939276"/>
     <use style="fill:#4c72b0;stroke:#4c72b0;" x="179.497031" xlink:href="#m1013fdf80c" y="229.381364"/>
     <use style="fill:#4c72b0;stroke:#4c72b0;" x="90.217031" xlink:href="#m1013fdf80c" y="102.643826"/>
     <use style="fill:#4c72b0;stroke:#4c72b0;" x="85.144304" xlink:href="#m1013fdf80c" y="103.873369"/>
     <use style="fill:#4c72b0;stroke:#4c72b0;" x="138.915213" xlink:href="#m1013fdf80c" y="105.197492"/>
     <use style="fill:#4c72b0;stroke:#4c72b0;" x="276.893395" xlink:href="#m1013fdf80c" y="115.222999"/>
     <use style="fill:#4c72b0;stroke:#4c72b0;" x="194.715213" xlink:href="#m1013fdf80c" y="192.589645"/>
     <use style="fill:#4c72b0;stroke:#4c72b0;" x="123.697031" xlink:href="#m1013fdf80c" y="107.751159"/>
     <use style="fill:#4c72b0;stroke:#4c72b0;" x="297.184304" xlink:href="#m1013fdf80c" y="102.643826"/>
     <use style="fill:#4c72b0;stroke:#4c72b0;" x="250.515213" xlink:href="#m1013fdf80c" y="117.776666"/>
     <use style="fill:#4c72b0;stroke:#4c72b0;" x="308.344304" xlink:href="#m1013fdf80c" y="92.523739"/>
     <use style="fill:#4c72b0;stroke:#4c72b0;" x="201.817031" xlink:href="#m1013fdf80c" y="127.991333"/>
     <use style="fill:#4c72b0;stroke:#4c72b0;" x="230.224304" xlink:href="#m1013fdf80c" y="94.982825"/>
     <use style="fill:#4c72b0;stroke:#4c72b0;" x="203.846122" xlink:href="#m1013fdf80c" y="107.751159"/>
     <use style="fill:#4c72b0;stroke:#4c72b0;" x="162.249759" xlink:href="#m1013fdf80c" y="196.372856"/>
     <use style="fill:#4c72b0;stroke:#4c72b0;" x="225.151577" xlink:href="#m1013fdf80c" y="68.405774"/>
     <use style="fill:#4c72b0;stroke:#4c72b0;" x="205.875213" xlink:href="#m1013fdf80c" y="164.688471"/>
     <use style="fill:#4c72b0;stroke:#4c72b0;" x="156.162486" xlink:href="#m1013fdf80c" y="158.446174"/>
     <use style="fill:#4c72b0;stroke:#4c72b0;" x="352.984304" xlink:href="#m1013fdf80c" y="105.197492"/>
     <use style="fill:#4c72b0;stroke:#4c72b0;" x="127.755213" xlink:href="#m1013fdf80c" y="107.751159"/>
     <use style="fill:#4c72b0;stroke:#4c72b0;" x="350.955213" xlink:href="#m1013fdf80c" y="105.197492"/>
     <use style="fill:#4c72b0;stroke:#4c72b0;" x="105.435213" xlink:href="#m1013fdf80c" y="105.197492"/>
     <use style="fill:#4c72b0;stroke:#4c72b0;" x="103.406122" xlink:href="#m1013fdf80c" y="105.197492"/>
     <use style="fill:#4c72b0;stroke:#4c72b0;" x="151.089759" xlink:href="#m1013fdf80c" y="140.665087"/>
     <use style="fill:#4c72b0;stroke:#4c72b0;" x="314.431577" xlink:href="#m1013fdf80c" y="127.991333"/>
     <use style="fill:#4c72b0;stroke:#4c72b0;" x="208.918849" xlink:href="#m1013fdf80c" y="117.776666"/>
     <use style="fill:#4c72b0;stroke:#4c72b0;" x="122.682486" xlink:href="#m1013fdf80c" y="105.197492"/>
     <use style="fill:#4c72b0;stroke:#4c72b0;" x="246.457031" xlink:href="#m1013fdf80c" y="101.414282"/>
     <use style="fill:#4c72b0;stroke:#4c72b0;" x="154.133395" xlink:href="#m1013fdf80c" y="122.97858"/>
     <use style="fill:#4c72b0;stroke:#4c72b0;" x="248.486122" xlink:href="#m1013fdf80c" y="31.708636"/>
     <use style="fill:#4c72b0;stroke:#4c72b0;" x="125.726122" xlink:href="#m1013fdf80c" y="105.197492"/>
     <use style="fill:#4c72b0;stroke:#4c72b0;" x="221.093395" xlink:href="#m1013fdf80c" y="119.100789"/>
     <use style="fill:#4c72b0;stroke:#4c72b0;" x="170.366122" xlink:href="#m1013fdf80c" y="183.604522"/>
     <use style="fill:#4c72b0;stroke:#4c72b0;" x="335.737031" xlink:href="#m1013fdf80c" y="92.523739"/>
     <use style="fill:#4c72b0;stroke:#4c72b0;" x="147.031577" xlink:href="#m1013fdf80c" y="105.197492"/>
     <use style="fill:#4c72b0;stroke:#4c72b0;" x="84.129759" xlink:href="#m1013fdf80c" y="102.643826"/>
     <use style="fill:#4c72b0;stroke:#4c72b0;" x="209.933395" xlink:href="#m1013fdf80c" y="145.772421"/>
     <use style="fill:#4c72b0;stroke:#4c72b0;" x="141.958849" xlink:href="#m1013fdf80c" y="102.643826"/>
     <use style="fill:#4c72b0;stroke:#4c72b0;" x="287.038849" xlink:href="#m1013fdf80c" y="74.837231"/>
     <use style="fill:#4c72b0;stroke:#4c72b0;" x="251.529759" xlink:href="#m1013fdf80c" y="36.81597"/>
     <use style="fill:#4c72b0;stroke:#4c72b0;" x="341.824304" xlink:href="#m1013fdf80c" y="116.547123"/>
     <use style="fill:#4c72b0;stroke:#4c72b0;" x="241.384304" xlink:href="#m1013fdf80c" y="87.510985"/>
     <use style="fill:#4c72b0;stroke:#4c72b0;" x="182.540668" xlink:href="#m1013fdf80c" y="205.168819"/>
     <use style="fill:#4c72b0;stroke:#4c72b0;" x="153.118849" xlink:href="#m1013fdf80c" y="143.218754"/>
     <use style="fill:#4c72b0;stroke:#4c72b0;" x="215.006122" xlink:href="#m1013fdf80c" y="91.294195"/>
     <use style="fill:#4c72b0;stroke:#4c72b0;" x="171.380668" xlink:href="#m1013fdf80c" y="222.949906"/>
     <use style="fill:#4c72b0;stroke:#4c72b0;" x="282.980668" xlink:href="#m1013fdf80c" y="73.513108"/>
     <use style="fill:#4c72b0;stroke:#4c72b0;" x="216.020668" xlink:href="#m1013fdf80c" y="122.97858"/>
     <use style="fill:#4c72b0;stroke:#4c72b0;" x="106.449759" xlink:href="#m1013fdf80c" y="103.873369"/>
    </g>
   </g>
   <g id="line2d_13">
    <defs>
     <path d="M 0 3 
C 0.795609 3 1.55874 2.683901 2.12132 2.12132 
C 2.683901 1.55874 3 0.795609 3 0 
C 3 -0.795609 2.683901 -1.55874 2.12132 -2.12132 
C 1.55874 -2.683901 0.795609 -3 0 -3 
C -0.795609 -3 -1.55874 -2.683901 -2.12132 -2.12132 
C -2.683901 -1.55874 -3 -0.795609 -3 0 
C -3 0.795609 -2.683901 1.55874 -2.12132 2.12132 
C -1.55874 2.683901 -0.795609 3 0 3 
z
" id="mf3d327e1e5" style="stroke:#dd8452;"/>
    </defs>
    <g clip-path="url(#p0b4132748e)">
     <use style="fill:#dd8452;stroke:#dd8452;" x="150.075213" xlink:href="#mf3d327e1e5" y="124.208123"/>
     <use style="fill:#dd8452;stroke:#dd8452;" x="116.595213" xlink:href="#mf3d327e1e5" y="103.873369"/>
     <use style="fill:#dd8452;stroke:#dd8452;" x="183.555213" xlink:href="#mf3d327e1e5" y="219.072116"/>
     <use style="fill:#dd8452;stroke:#dd8452;" x="211.962486" xlink:href="#mf3d327e1e5" y="98.860615"/>
     <use style="fill:#dd8452;stroke:#dd8452;" x="328.635213" xlink:href="#mf3d327e1e5" y="102.643826"/>
     <use style="fill:#dd8452;stroke:#dd8452;" x="169.351577" xlink:href="#mf3d327e1e5" y="219.072116"/>
     <use style="fill:#dd8452;stroke:#dd8452;" x="198.773395" xlink:href="#mf3d327e1e5" y="163.553508"/>
     <use style="fill:#dd8452;stroke:#dd8452;" x="92.246122" xlink:href="#mf3d327e1e5" y="105.197492"/>
     <use style="fill:#dd8452;stroke:#dd8452;" x="175.438849" xlink:href="#mf3d327e1e5" y="214.153943"/>
     <use style="fill:#dd8452;stroke:#dd8452;" x="193.700668" xlink:href="#mf3d327e1e5" y="209.046609"/>
     <use style="fill:#dd8452;stroke:#dd8452;" x="190.657031" xlink:href="#mf3d327e1e5" y="224.17945"/>
     <use style="fill:#dd8452;stroke:#dd8452;" x="217.035213" xlink:href="#mf3d327e1e5" y="58.285687"/>
     <use style="fill:#dd8452;stroke:#dd8452;" x="289.06794" xlink:href="#mf3d327e1e5" y="102.643826"/>
     <use style="fill:#dd8452;stroke:#dd8452;" x="157.177031" xlink:href="#mf3d327e1e5" y="169.795805"/>
     <use style="fill:#dd8452;stroke:#dd8452;" x="243.413395" xlink:href="#mf3d327e1e5" y="59.515231"/>
     <use style="fill:#dd8452;stroke:#dd8452;" x="155.14794" xlink:href="#mf3d327e1e5" y="107.751159"/>
     <use style="fill:#dd8452;stroke:#dd8452;" x="238.340668" xlink:href="#mf3d327e1e5" y="58.285687"/>
     <use style="fill:#dd8452;stroke:#dd8452;" x="264.718849" xlink:href="#mf3d327e1e5" y="58.285687"/>
     <use style="fill:#dd8452;stroke:#dd8452;" x="271.820668" xlink:href="#mf3d327e1e5" y="103.873369"/>
     <use style="fill:#dd8452;stroke:#dd8452;" x="129.784304" xlink:href="#mf3d327e1e5" y="102.643826"/>
     <use style="fill:#dd8452;stroke:#dd8452;" x="234.282486" xlink:href="#mf3d327e1e5" y="50.719267"/>
     <use style="fill:#dd8452;stroke:#dd8452;" x="252.544304" xlink:href="#mf3d327e1e5" y="69.729898"/>
     <use style="fill:#dd8452;stroke:#dd8452;" x="300.22794" xlink:href="#mf3d327e1e5" y="92.523739"/>
     <use style="fill:#dd8452;stroke:#dd8452;" x="152.104304" xlink:href="#mf3d327e1e5" y="122.97858"/>
     <use style="fill:#dd8452;stroke:#dd8452;" x="319.504304" xlink:href="#mf3d327e1e5" y="115.222999"/>
     <use style="fill:#dd8452;stroke:#dd8452;" x="111.522486" xlink:href="#mf3d327e1e5" y="105.197492"/>
     <use style="fill:#dd8452;stroke:#dd8452;" x="189.642486" xlink:href="#mf3d327e1e5" y="219.072116"/>
     <use style="fill:#dd8452;stroke:#dd8452;" x="113.551577" xlink:href="#mf3d327e1e5" y="105.197492"/>
     <use style="fill:#dd8452;stroke:#dd8452;" x="140.944304" xlink:href="#mf3d327e1e5" y="105.197492"/>
     <use style="fill:#dd8452;stroke:#dd8452;" x="229.209759" xlink:href="#mf3d327e1e5" y="31.708636"/>
     <use style="fill:#dd8452;stroke:#dd8452;" x="120.653395" xlink:href="#mf3d327e1e5" y="105.197492"/>
     <use style="fill:#dd8452;stroke:#dd8452;" x="146.017031" xlink:href="#mf3d327e1e5" y="115.222999"/>
    </g>
   </g>
   <g id="line2d_14">
    <path clip-path="url(#p0b4132748e)" d="M 71.955213 43.923249 
L 75.029593 52.416108 
L 78.103973 60.510125 
L 81.178354 68.212883 
L 84.252734 75.531965 
L 87.327114 82.474953 
L 90.401494 89.049431 
L 93.475874 95.262981 
L 96.550254 101.123186 
L 99.624635 106.63763 
L 102.699015 111.813894 
L 105.773395 116.659561 
L 108.847775 121.182215 
L 111.922155 125.389439 
L 114.996535 129.288814 
L 118.070916 132.887924 
L 121.145296 136.194352 
L 124.219676 139.215681 
L 127.294056 141.959493 
L 130.368436 144.433371 
L 133.442816 146.644898 
L 136.517197 148.601658 
L 139.591577 150.311232 
L 142.665957 151.781203 
L 145.740337 153.019155 
L 148.814717 154.03267 
L 151.889097 154.829331 
L 154.963478 155.416721 
L 158.037858 155.802422 
L 161.112238 155.994019 
L 164.186618 155.999092 
L 167.260998 155.825226 
L 170.335378 155.480002 
L 173.409759 154.971005 
L 176.484139 154.305816 
L 179.558519 153.492019 
L 182.632899 152.537196 
L 185.707279 151.44893 
L 188.781659 150.234804 
L 191.85604 148.902401 
L 194.93042 147.459303 
L 198.0048 145.913094 
L 201.07918 144.271356 
L 204.15356 142.541673 
L 207.22794 140.731626 
L 210.302321 138.848799 
L 213.376701 136.900775 
L 216.451081 134.895136 
L 219.525461 132.839466 
L 222.599841 130.741346 
L 225.674221 128.60836 
L 228.748601 126.448092 
L 231.822982 124.268122 
L 234.897362 122.076035 
L 237.971742 119.879414 
L 241.046122 117.68584 
L 244.120502 115.502897 
L 247.194882 113.338168 
L 250.269263 111.199236 
L 253.343643 109.093683 
L 256.418023 107.029092 
L 259.492403 105.013046 
L 262.566783 103.053128 
L 265.641163 101.156921 
L 268.715544 99.332007 
L 271.789924 97.58597 
L 274.864304 95.926391 
L 277.938684 94.360855 
L 281.013064 92.896944 
L 284.087444 91.54224 
L 287.161825 90.304326 
L 290.236205 89.190786 
L 293.310585 88.209203 
L 296.384965 87.367158 
L 299.459345 86.672235 
L 302.533725 86.132016 
L 305.608106 85.754085 
L 308.682486 85.546025 
L 311.756866 85.515417 
L 314.831246 85.669845 
L 317.905626 86.016892 
L 320.980006 86.564141 
L 324.054387 87.319174 
L 327.128767 88.289575 
L 330.203147 89.482925 
L 333.277527 90.906809 
L 336.351907 92.568808 
L 339.426287 94.476505 
L 342.500668 96.637485 
L 345.575048 99.059328 
L 348.649428 101.749618 
L 351.723808 104.715939 
L 354.798188 107.965872 
L 357.872568 111.507 
L 360.946949 115.346907 
L 364.021329 119.493175 
L 367.095709 123.953387 
L 370.170089 128.735126 
L 373.244469 133.845975 
L 376.318849 139.293516 
" style="fill:none;stroke:#55a868;stroke-dasharray:5.55,2.4;stroke-dashoffset:0;stroke-width:1.5;"/>
   </g>
   <g id="patch_3">
    <path d="M 56.737031 239.265 
L 56.737031 21.825 
" style="fill:none;stroke:#262626;stroke-linecap:square;stroke-linejoin:miter;stroke-width:1.25;"/>
   </g>
   <g id="patch_4">
    <path d="M 391.537031 239.265 
L 391.537031 21.825 
" style="fill:none;stroke:#262626;stroke-linecap:square;stroke-linejoin:miter;stroke-width:1.25;"/>
   </g>
   <g id="patch_5">
    <path d="M 56.737031 239.265 
L 391.537031 239.265 
" style="fill:none;stroke:#262626;stroke-linecap:square;stroke-linejoin:miter;stroke-width:1.25;"/>
   </g>
   <g id="patch_6">
    <path d="M 56.737031 21.825 
L 391.537031 21.825 
" style="fill:none;stroke:#262626;stroke-linecap:square;stroke-linejoin:miter;stroke-width:1.25;"/>
   </g>
   <g id="text_14">
    <!-- Polynomial degree 3 -->
    <g style="fill:#262626;" transform="translate(169.440469 15.825)scale(0.12 -0.12)">
     <defs>
      <path d="M 7.71875 0 
L 7.71875 71.578125 
L 34.71875 71.578125 
Q 41.84375 71.578125 45.609375 70.90625 
Q 50.875 70.015625 54.4375 67.546875 
Q 58.015625 65.09375 60.1875 60.640625 
Q 62.359375 56.203125 62.359375 50.875 
Q 62.359375 41.75 56.546875 35.421875 
Q 50.734375 29.109375 35.546875 29.109375 
L 17.1875 29.109375 
L 17.1875 0 
z
M 17.1875 37.546875 
L 35.6875 37.546875 
Q 44.875 37.546875 48.734375 40.96875 
Q 52.59375 44.390625 52.59375 50.59375 
Q 52.59375 55.078125 50.3125 58.265625 
Q 48.046875 61.46875 44.34375 62.5 
Q 41.9375 63.140625 35.5 63.140625 
L 17.1875 63.140625 
z
" id="ArialMT-80"/>
      <path d="M 6.203125 -19.96875 
L 5.21875 -11.71875 
Q 8.109375 -12.5 10.25 -12.5 
Q 13.1875 -12.5 14.9375 -11.515625 
Q 16.703125 -10.546875 17.828125 -8.796875 
Q 18.65625 -7.46875 20.515625 -2.25 
Q 20.75 -1.515625 21.296875 -0.09375 
L 1.609375 51.859375 
L 11.078125 51.859375 
L 21.875 21.828125 
Q 23.96875 16.109375 25.640625 9.8125 
Q 27.15625 15.875 29.25 21.625 
L 40.328125 51.859375 
L 49.125 51.859375 
L 29.390625 -0.875 
Q 26.21875 -9.421875 24.46875 -12.640625 
Q 22.125 -17 19.09375 -19.015625 
Q 16.0625 -21.046875 11.859375 -21.046875 
Q 9.328125 -21.046875 6.203125 -19.96875 
z
" id="ArialMT-121"/>
      <path d="M 40.234375 0 
L 40.234375 6.546875 
Q 35.296875 -1.171875 25.734375 -1.171875 
Q 19.53125 -1.171875 14.328125 2.25 
Q 9.125 5.671875 6.265625 11.796875 
Q 3.421875 17.921875 3.421875 25.875 
Q 3.421875 33.640625 6 39.96875 
Q 8.59375 46.296875 13.765625 49.65625 
Q 18.953125 53.03125 25.34375 53.03125 
Q 30.03125 53.03125 33.6875 51.046875 
Q 37.359375 49.078125 39.65625 45.90625 
L 39.65625 71.578125 
L 48.390625 71.578125 
L 48.390625 0 
z
M 12.453125 25.875 
Q 12.453125 15.921875 16.640625 10.984375 
Q 20.84375 6.0625 26.5625 6.0625 
Q 32.328125 6.0625 36.34375 10.765625 
Q 40.375 15.484375 40.375 25.140625 
Q 40.375 35.796875 36.265625 40.765625 
Q 32.171875 45.75 26.171875 45.75 
Q 20.3125 45.75 16.375 40.96875 
Q 12.453125 36.1875 12.453125 25.875 
z
" id="ArialMT-100"/>
     </defs>
     <use xlink:href="#ArialMT-80"/>
     <use x="66.699219" xlink:href="#ArialMT-111"/>
     <use x="122.314453" xlink:href="#ArialMT-108"/>
     <use x="144.53125" xlink:href="#ArialMT-121"/>
     <use x="194.53125" xlink:href="#ArialMT-110"/>
     <use x="250.146484" xlink:href="#ArialMT-111"/>
     <use x="305.761719" xlink:href="#ArialMT-109"/>
     <use x="389.0625" xlink:href="#ArialMT-105"/>
     <use x="411.279297" xlink:href="#ArialMT-97"/>
     <use x="466.894531" xlink:href="#ArialMT-108"/>
     <use x="489.111328" xlink:href="#ArialMT-32"/>
     <use x="516.894531" xlink:href="#ArialMT-100"/>
     <use x="572.509766" xlink:href="#ArialMT-101"/>
     <use x="628.125" xlink:href="#ArialMT-103"/>
     <use x="683.740234" xlink:href="#ArialMT-114"/>
     <use x="717.041016" xlink:href="#ArialMT-101"/>
     <use x="772.65625" xlink:href="#ArialMT-101"/>
     <use x="828.271484" xlink:href="#ArialMT-32"/>
     <use x="856.054688" xlink:href="#ArialMT-51"/>
    </g>
   </g>
   <g id="legend_1">
    <g id="patch_7">
     <path d="M 284.849063 233.765 
L 383.837031 233.765 
Q 386.037031 233.765 386.037031 231.565 
L 386.037031 185.856562 
Q 386.037031 183.656562 383.837031 183.656562 
L 284.849063 183.656562 
Q 282.649063 183.656562 282.649063 185.856562 
L 282.649063 231.565 
Q 282.649063 233.765 284.849063 233.765 
z
" style="fill:#ffffff;opacity:0.8;stroke:#cccccc;stroke-linejoin:miter;"/>
    </g>
    <g id="line2d_15"/>
    <g id="line2d_16">
     <g>
      <use style="fill:#4c72b0;stroke:#4c72b0;" x="298.049063" xlink:href="#m1013fdf80c" y="192.080156"/>
     </g>
    </g>
    <g id="text_15">
     <!-- Training data -->
     <g style="fill:#262626;" transform="translate(317.849063 195.930156)scale(0.11 -0.11)">
      <use xlink:href="#ArialMT-84"/>
      <use x="57.333984" xlink:href="#ArialMT-114"/>
      <use x="90.634766" xlink:href="#ArialMT-97"/>
      <use x="146.25" xlink:href="#ArialMT-105"/>
      <use x="168.466797" xlink:href="#ArialMT-110"/>
      <use x="224.082031" xlink:href="#ArialMT-105"/>
      <use x="246.298828" xlink:href="#ArialMT-110"/>
      <use x="301.914062" xlink:href="#ArialMT-103"/>
      <use x="357.529297" xlink:href="#ArialMT-32"/>
      <use x="385.3125" xlink:href="#ArialMT-100"/>
      <use x="440.927734" xlink:href="#ArialMT-97"/>
      <use x="496.542969" xlink:href="#ArialMT-116"/>
      <use x="524.326172" xlink:href="#ArialMT-97"/>
     </g>
    </g>
    <g id="line2d_17"/>
    <g id="line2d_18">
     <g>
      <use style="fill:#dd8452;stroke:#dd8452;" x="298.049063" xlink:href="#mf3d327e1e5" y="207.768906"/>
     </g>
    </g>
    <g id="text_16">
     <!-- Test data -->
     <g style="fill:#262626;" transform="translate(317.849063 211.618906)scale(0.11 -0.11)">
      <use xlink:href="#ArialMT-84"/>
      <use x="49.958984" xlink:href="#ArialMT-101"/>
      <use x="105.574219" xlink:href="#ArialMT-115"/>
      <use x="155.574219" xlink:href="#ArialMT-116"/>
      <use x="183.357422" xlink:href="#ArialMT-32"/>
      <use x="211.140625" xlink:href="#ArialMT-100"/>
      <use x="266.755859" xlink:href="#ArialMT-97"/>
      <use x="322.371094" xlink:href="#ArialMT-116"/>
      <use x="350.154297" xlink:href="#ArialMT-97"/>
     </g>
    </g>
    <g id="line2d_19">
     <path d="M 287.049063 223.32875 
L 309.049063 223.32875 
" style="fill:none;stroke:#55a868;stroke-dasharray:5.55,2.4;stroke-dashoffset:0;stroke-width:1.5;"/>
    </g>
    <g id="line2d_20"/>
    <g id="text_17">
     <!-- Prediction -->
     <g style="fill:#262626;" transform="translate(317.849063 227.17875)scale(0.11 -0.11)">
      <use xlink:href="#ArialMT-80"/>
      <use x="66.699219" xlink:href="#ArialMT-114"/>
      <use x="100" xlink:href="#ArialMT-101"/>
      <use x="155.615234" xlink:href="#ArialMT-100"/>
      <use x="211.230469" xlink:href="#ArialMT-105"/>
      <use x="233.447266" xlink:href="#ArialMT-99"/>
      <use x="283.447266" xlink:href="#ArialMT-116"/>
      <use x="311.230469" xlink:href="#ArialMT-105"/>
      <use x="333.447266" xlink:href="#ArialMT-111"/>
      <use x="389.0625" xlink:href="#ArialMT-110"/>
     </g>
    </g>
   </g>
  </g>
 </g>
 <defs>
  <clipPath id="p0b4132748e">
   <rect height="217.44" width="334.8" x="56.737031" y="21.825"/>
  </clipPath>
 </defs>
</svg>