<?xml version="1.0" encoding="utf-8" standalone="no"?>
<!DOCTYPE svg PUBLIC "-//W3C//DTD SVG 1.1//EN"
  "http://www.w3.org/Graphics/SVG/1.1/DTD/svg11.dtd">
<!-- Created with matplotlib (https://matplotlib.org/) -->
<svg height="266.374219pt" version="1.1" viewBox="0 0 386.216094 266.374219" width="386.216094pt" xmlns="http://www.w3.org/2000/svg" xmlns:xlink="http://www.w3.org/1999/xlink">
 <metadata>
  <rdf:RDF xmlns:cc="http://creativecommons.org/ns#" xmlns:dc="http://purl.org/dc/elements/1.1/" xmlns:rdf="http://www.w3.org/1999/02/22-rdf-syntax-ns#">
   <cc:Work>
    <dc:type rdf:resource="http://purl.org/dc/dcmitype/StillImage"/>
    <dc:date>2021-08-04T10:52:22.667550</dc:date>
    <dc:format>image/svg+xml</dc:format>
    <dc:creator>
     <cc:Agent>
      <dc:title>Matplotlib v3.3.4, https://matplotlib.org/</dc:title>
     </cc:Agent>
    </dc:creator>
   </cc:Work>
  </rdf:RDF>
 </metadata>
 <defs>
  <style type="text/css">*{stroke-linecap:butt;stroke-linejoin:round;}</style>
 </defs>
 <g id="figure_1">
  <g id="patch_1">
   <path d="M 0 266.374219 
L 386.216094 266.374219 
L 386.216094 0 
L 0 0 
z
" style="fill:#ffffff;"/>
  </g>
  <g id="axes_1">
   <g id="patch_2">
    <path d="M 44.216094 224.64 
L 379.016094 224.64 
L 379.016094 7.2 
L 44.216094 7.2 
z
" style="fill:#ffffff;"/>
   </g>
   <g id="matplotlib.axis_1">
    <g id="xtick_1">
     <g id="line2d_1">
      <defs>
       <path d="M 0 0 
L 0 6 
" id="md27037011d" style="stroke:#262626;stroke-width:1.25;"/>
      </defs>
      <g>
       <use style="fill:#262626;stroke:#262626;stroke-width:1.25;" x="59.434276" xlink:href="#md27037011d" y="224.64"/>
      </g>
     </g>
     <g id="text_1">
      <!-- −1.00 -->
      <g style="fill:#262626;" transform="translate(45.518416 242.013594)scale(0.11 -0.11)">
       <defs>
        <path d="M 52.828125 31.203125 
L 5.5625 31.203125 
L 5.5625 39.40625 
L 52.828125 39.40625 
z
" id="ArialMT-8722"/>
        <path d="M 37.25 0 
L 28.46875 0 
L 28.46875 56 
Q 25.296875 52.984375 20.140625 49.953125 
Q 14.984375 46.921875 10.890625 45.40625 
L 10.890625 53.90625 
Q 18.265625 57.375 23.78125 62.296875 
Q 29.296875 67.234375 31.59375 71.875 
L 37.25 71.875 
z
" id="ArialMT-49"/>
        <path d="M 9.078125 0 
L 9.078125 10.015625 
L 19.09375 10.015625 
L 19.09375 0 
z
" id="ArialMT-46"/>
        <path d="M 4.15625 35.296875 
Q 4.15625 48 6.765625 55.734375 
Q 9.375 63.484375 14.515625 67.671875 
Q 19.671875 71.875 27.484375 71.875 
Q 33.25 71.875 37.59375 69.546875 
Q 41.9375 67.234375 44.765625 62.859375 
Q 47.609375 58.5 49.21875 52.21875 
Q 50.828125 45.953125 50.828125 35.296875 
Q 50.828125 22.703125 48.234375 14.96875 
Q 45.65625 7.234375 40.5 3 
Q 35.359375 -1.21875 27.484375 -1.21875 
Q 17.140625 -1.21875 11.234375 6.203125 
Q 4.15625 15.140625 4.15625 35.296875 
z
M 13.1875 35.296875 
Q 13.1875 17.671875 17.3125 11.828125 
Q 21.4375 6 27.484375 6 
Q 33.546875 6 37.671875 11.859375 
Q 41.796875 17.71875 41.796875 35.296875 
Q 41.796875 52.984375 37.671875 58.78125 
Q 33.546875 64.59375 27.390625 64.59375 
Q 21.34375 64.59375 17.71875 59.46875 
Q 13.1875 52.9375 13.1875 35.296875 
z
" id="ArialMT-48"/>
       </defs>
       <use xlink:href="#ArialMT-8722"/>
       <use x="58.398438" xlink:href="#ArialMT-49"/>
       <use x="114.013672" xlink:href="#ArialMT-46"/>
       <use x="141.796875" xlink:href="#ArialMT-48"/>
       <use x="197.412109" xlink:href="#ArialMT-48"/>
      </g>
     </g>
    </g>
    <g id="xtick_2">
     <g id="line2d_2">
      <g>
       <use style="fill:#262626;stroke:#262626;stroke-width:1.25;" x="97.47973" xlink:href="#md27037011d" y="224.64"/>
      </g>
     </g>
     <g id="text_2">
      <!-- −0.75 -->
      <g style="fill:#262626;" transform="translate(83.563871 242.013594)scale(0.11 -0.11)">
       <defs>
        <path d="M 4.734375 62.203125 
L 4.734375 70.65625 
L 51.078125 70.65625 
L 51.078125 63.8125 
Q 44.234375 56.546875 37.515625 44.484375 
Q 30.8125 32.421875 27.15625 19.671875 
Q 24.515625 10.6875 23.78125 0 
L 14.75 0 
Q 14.890625 8.453125 18.0625 20.40625 
Q 21.234375 32.375 27.171875 43.484375 
Q 33.109375 54.59375 39.796875 62.203125 
z
" id="ArialMT-55"/>
        <path d="M 4.15625 18.75 
L 13.375 19.53125 
Q 14.40625 12.796875 18.140625 9.390625 
Q 21.875 6 27.15625 6 
Q 33.5 6 37.890625 10.78125 
Q 42.28125 15.578125 42.28125 23.484375 
Q 42.28125 31 38.0625 35.34375 
Q 33.84375 39.703125 27 39.703125 
Q 22.75 39.703125 19.328125 37.765625 
Q 15.921875 35.84375 13.96875 32.765625 
L 5.71875 33.84375 
L 12.640625 70.609375 
L 48.25 70.609375 
L 48.25 62.203125 
L 19.671875 62.203125 
L 15.828125 42.96875 
Q 22.265625 47.46875 29.34375 47.46875 
Q 38.71875 47.46875 45.15625 40.96875 
Q 51.609375 34.46875 51.609375 24.265625 
Q 51.609375 14.546875 45.953125 7.46875 
Q 39.0625 -1.21875 27.15625 -1.21875 
Q 17.390625 -1.21875 11.203125 4.25 
Q 5.03125 9.71875 4.15625 18.75 
z
" id="ArialMT-53"/>
       </defs>
       <use xlink:href="#ArialMT-8722"/>
       <use x="58.398438" xlink:href="#ArialMT-48"/>
       <use x="114.013672" xlink:href="#ArialMT-46"/>
       <use x="141.796875" xlink:href="#ArialMT-55"/>
       <use x="197.412109" xlink:href="#ArialMT-53"/>
      </g>
     </g>
    </g>
    <g id="xtick_3">
     <g id="line2d_3">
      <g>
       <use style="fill:#262626;stroke:#262626;stroke-width:1.25;" x="135.525185" xlink:href="#md27037011d" y="224.64"/>
      </g>
     </g>
     <g id="text_3">
      <!-- −0.50 -->
      <g style="fill:#262626;" transform="translate(121.609325 242.013594)scale(0.11 -0.11)">
       <use xlink:href="#ArialMT-8722"/>
       <use x="58.398438" xlink:href="#ArialMT-48"/>
       <use x="114.013672" xlink:href="#ArialMT-46"/>
       <use x="141.796875" xlink:href="#ArialMT-53"/>
       <use x="197.412109" xlink:href="#ArialMT-48"/>
      </g>
     </g>
    </g>
    <g id="xtick_4">
     <g id="line2d_4">
      <g>
       <use style="fill:#262626;stroke:#262626;stroke-width:1.25;" x="173.570639" xlink:href="#md27037011d" y="224.64"/>
      </g>
     </g>
     <g id="text_4">
      <!-- −0.25 -->
      <g style="fill:#262626;" transform="translate(159.65478 242.013594)scale(0.11 -0.11)">
       <defs>
        <path d="M 50.34375 8.453125 
L 50.34375 0 
L 3.03125 0 
Q 2.9375 3.171875 4.046875 6.109375 
Q 5.859375 10.9375 9.828125 15.625 
Q 13.8125 20.3125 21.34375 26.46875 
Q 33.015625 36.03125 37.109375 41.625 
Q 41.21875 47.21875 41.21875 52.203125 
Q 41.21875 57.421875 37.46875 61 
Q 33.734375 64.59375 27.734375 64.59375 
Q 21.390625 64.59375 17.578125 60.78125 
Q 13.765625 56.984375 13.71875 50.25 
L 4.6875 51.171875 
Q 5.609375 61.28125 11.65625 66.578125 
Q 17.71875 71.875 27.9375 71.875 
Q 38.234375 71.875 44.234375 66.15625 
Q 50.25 60.453125 50.25 52 
Q 50.25 47.703125 48.484375 43.546875 
Q 46.734375 39.40625 42.65625 34.8125 
Q 38.578125 30.21875 29.109375 22.21875 
Q 21.1875 15.578125 18.9375 13.203125 
Q 16.703125 10.84375 15.234375 8.453125 
z
" id="ArialMT-50"/>
       </defs>
       <use xlink:href="#ArialMT-8722"/>
       <use x="58.398438" xlink:href="#ArialMT-48"/>
       <use x="114.013672" xlink:href="#ArialMT-46"/>
       <use x="141.796875" xlink:href="#ArialMT-50"/>
       <use x="197.412109" xlink:href="#ArialMT-53"/>
      </g>
     </g>
    </g>
    <g id="xtick_5">
     <g id="line2d_5">
      <g>
       <use style="fill:#262626;stroke:#262626;stroke-width:1.25;" x="211.616094" xlink:href="#md27037011d" y="224.64"/>
      </g>
     </g>
     <g id="text_5">
      <!-- 0.00 -->
      <g style="fill:#262626;" transform="translate(200.912578 242.013594)scale(0.11 -0.11)">
       <use xlink:href="#ArialMT-48"/>
       <use x="55.615234" xlink:href="#ArialMT-46"/>
       <use x="83.398438" xlink:href="#ArialMT-48"/>
       <use x="139.013672" xlink:href="#ArialMT-48"/>
      </g>
     </g>
    </g>
    <g id="xtick_6">
     <g id="line2d_6">
      <g>
       <use style="fill:#262626;stroke:#262626;stroke-width:1.25;" x="249.661548" xlink:href="#md27037011d" y="224.64"/>
      </g>
     </g>
     <g id="text_6">
      <!-- 0.25 -->
      <g style="fill:#262626;" transform="translate(238.958033 242.013594)scale(0.11 -0.11)">
       <use xlink:href="#ArialMT-48"/>
       <use x="55.615234" xlink:href="#ArialMT-46"/>
       <use x="83.398438" xlink:href="#ArialMT-50"/>
       <use x="139.013672" xlink:href="#ArialMT-53"/>
      </g>
     </g>
    </g>
    <g id="xtick_7">
     <g id="line2d_7">
      <g>
       <use style="fill:#262626;stroke:#262626;stroke-width:1.25;" x="287.707003" xlink:href="#md27037011d" y="224.64"/>
      </g>
     </g>
     <g id="text_7">
      <!-- 0.50 -->
      <g style="fill:#262626;" transform="translate(277.003487 242.013594)scale(0.11 -0.11)">
       <use xlink:href="#ArialMT-48"/>
       <use x="55.615234" xlink:href="#ArialMT-46"/>
       <use x="83.398438" xlink:href="#ArialMT-53"/>
       <use x="139.013672" xlink:href="#ArialMT-48"/>
      </g>
     </g>
    </g>
    <g id="xtick_8">
     <g id="line2d_8">
      <g>
       <use style="fill:#262626;stroke:#262626;stroke-width:1.25;" x="325.752457" xlink:href="#md27037011d" y="224.64"/>
      </g>
     </g>
     <g id="text_8">
      <!-- 0.75 -->
      <g style="fill:#262626;" transform="translate(315.048942 242.013594)scale(0.11 -0.11)">
       <use xlink:href="#ArialMT-48"/>
       <use x="55.615234" xlink:href="#ArialMT-46"/>
       <use x="83.398438" xlink:href="#ArialMT-55"/>
       <use x="139.013672" xlink:href="#ArialMT-53"/>
      </g>
     </g>
    </g>
    <g id="xtick_9">
     <g id="line2d_9">
      <g>
       <use style="fill:#262626;stroke:#262626;stroke-width:1.25;" x="363.797912" xlink:href="#md27037011d" y="224.64"/>
      </g>
     </g>
     <g id="text_9">
      <!-- 1.00 -->
      <g style="fill:#262626;" transform="translate(353.094396 242.013594)scale(0.11 -0.11)">
       <use xlink:href="#ArialMT-49"/>
       <use x="55.615234" xlink:href="#ArialMT-46"/>
       <use x="83.398438" xlink:href="#ArialMT-48"/>
       <use x="139.013672" xlink:href="#ArialMT-48"/>
      </g>
     </g>
    </g>
    <g id="text_10">
     <!-- $x$ -->
     <g style="fill:#262626;" transform="translate(208.016094 256.789219)scale(0.12 -0.12)">
      <defs>
       <path d="M 60.015625 54.6875 
L 34.90625 27.875 
L 50.296875 0 
L 39.984375 0 
L 28.421875 21.6875 
L 8.296875 0 
L -2.59375 0 
L 24.3125 28.8125 
L 10.015625 54.6875 
L 20.3125 54.6875 
L 30.8125 34.90625 
L 49.125 54.6875 
z
" id="DejaVuSans-Oblique-120"/>
      </defs>
      <use transform="translate(0 0.3125)" xlink:href="#DejaVuSans-Oblique-120"/>
     </g>
    </g>
   </g>
   <g id="matplotlib.axis_2">
    <g id="ytick_1">
     <g id="line2d_10">
      <defs>
       <path d="M 0 0 
L -6 0 
" id="m4ab940b046" style="stroke:#262626;stroke-width:1.25;"/>
      </defs>
      <g>
       <use style="fill:#262626;stroke:#262626;stroke-width:1.25;" x="44.216094" xlink:href="#m4ab940b046" y="209.367465"/>
      </g>
     </g>
     <g id="text_11">
      <!-- −1 -->
      <g style="fill:#262626;" transform="translate(22.174375 213.304262)scale(0.11 -0.11)">
       <use xlink:href="#ArialMT-8722"/>
       <use x="58.398438" xlink:href="#ArialMT-49"/>
      </g>
     </g>
    </g>
    <g id="ytick_2">
     <g id="line2d_11">
      <g>
       <use style="fill:#262626;stroke:#262626;stroke-width:1.25;" x="44.216094" xlink:href="#m4ab940b046" y="167.187617"/>
      </g>
     </g>
     <g id="text_12">
      <!-- 0 -->
      <g style="fill:#262626;" transform="translate(28.599063 171.124414)scale(0.11 -0.11)">
       <use xlink:href="#ArialMT-48"/>
      </g>
     </g>
    </g>
    <g id="ytick_3">
     <g id="line2d_12">
      <g>
       <use style="fill:#262626;stroke:#262626;stroke-width:1.25;" x="44.216094" xlink:href="#m4ab940b046" y="125.007769"/>
      </g>
     </g>
     <g id="text_13">
      <!-- 1 -->
      <g style="fill:#262626;" transform="translate(28.599063 128.944566)scale(0.11 -0.11)">
       <use xlink:href="#ArialMT-49"/>
      </g>
     </g>
    </g>
    <g id="ytick_4">
     <g id="line2d_13">
      <g>
       <use style="fill:#262626;stroke:#262626;stroke-width:1.25;" x="44.216094" xlink:href="#m4ab940b046" y="82.827921"/>
      </g>
     </g>
     <g id="text_14">
      <!-- 2 -->
      <g style="fill:#262626;" transform="translate(28.599063 86.764718)scale(0.11 -0.11)">
       <use xlink:href="#ArialMT-50"/>
      </g>
     </g>
    </g>
    <g id="ytick_5">
     <g id="line2d_14">
      <g>
       <use style="fill:#262626;stroke:#262626;stroke-width:1.25;" x="44.216094" xlink:href="#m4ab940b046" y="40.648072"/>
      </g>
     </g>
     <g id="text_15">
      <!-- 3 -->
      <g style="fill:#262626;" transform="translate(28.599063 44.584869)scale(0.11 -0.11)">
       <defs>
        <path d="M 4.203125 18.890625 
L 12.984375 20.0625 
Q 14.5 12.59375 18.140625 9.296875 
Q 21.78125 6 27 6 
Q 33.203125 6 37.46875 10.296875 
Q 41.75 14.59375 41.75 20.953125 
Q 41.75 27 37.796875 30.921875 
Q 33.84375 34.859375 27.734375 34.859375 
Q 25.25 34.859375 21.53125 33.890625 
L 22.515625 41.609375 
Q 23.390625 41.5 23.921875 41.5 
Q 29.546875 41.5 34.03125 44.421875 
Q 38.53125 47.359375 38.53125 53.46875 
Q 38.53125 58.296875 35.25 61.46875 
Q 31.984375 64.65625 26.8125 64.65625 
Q 21.6875 64.65625 18.265625 61.421875 
Q 14.84375 58.203125 13.875 51.765625 
L 5.078125 53.328125 
Q 6.6875 62.15625 12.390625 67.015625 
Q 18.109375 71.875 26.609375 71.875 
Q 32.46875 71.875 37.390625 69.359375 
Q 42.328125 66.84375 44.9375 62.5 
Q 47.5625 58.15625 47.5625 53.265625 
Q 47.5625 48.640625 45.0625 44.828125 
Q 42.578125 41.015625 37.703125 38.765625 
Q 44.046875 37.3125 47.5625 32.6875 
Q 51.078125 28.078125 51.078125 21.140625 
Q 51.078125 11.765625 44.234375 5.25 
Q 37.40625 -1.265625 26.953125 -1.265625 
Q 17.53125 -1.265625 11.296875 4.34375 
Q 5.078125 9.96875 4.203125 18.890625 
z
" id="ArialMT-51"/>
       </defs>
       <use xlink:href="#ArialMT-51"/>
      </g>
     </g>
    </g>
    <g id="text_16">
     <!-- $y$ -->
     <g style="fill:#262626;" transform="translate(15.654375 119.52)rotate(-90)scale(0.12 -0.12)">
      <defs>
       <path d="M 24.8125 -5.078125 
Q 18.5625 -15.578125 14.625 -18.1875 
Q 10.6875 -20.796875 4.59375 -20.796875 
L -2.484375 -20.796875 
L -0.984375 -13.28125 
L 4.203125 -13.28125 
Q 7.953125 -13.28125 10.59375 -11.234375 
Q 13.234375 -9.1875 16.5 -3.21875 
L 19.28125 2 
L 7.171875 54.6875 
L 16.703125 54.6875 
L 25.78125 12.796875 
L 50.875 54.6875 
L 60.296875 54.6875 
z
" id="DejaVuSans-Oblique-121"/>
      </defs>
      <use transform="translate(0 0.3125)" xlink:href="#DejaVuSans-Oblique-121"/>
     </g>
    </g>
   </g>
   <g id="PolyCollection_1">
    <defs>
     <path d="M 59.434276 -79.679527 
L 59.434276 -67.986722 
L 62.508656 -66.573077 
L 65.583036 -65.223247 
L 68.657416 -63.937231 
L 71.731796 -62.715029 
L 74.806176 -61.556641 
L 77.880557 -60.462067 
L 80.954937 -59.431307 
L 84.029317 -58.464361 
L 87.103697 -57.56123 
L 90.178077 -56.721912 
L 93.252457 -55.946408 
L 96.326838 -55.234718 
L 99.401218 -54.586842 
L 102.475598 -54.00278 
L 105.549978 -53.482533 
L 108.624358 -53.026099 
L 111.698738 -52.633479 
L 114.773119 -52.304673 
L 117.847499 -52.039682 
L 120.921879 -51.838504 
L 123.996259 -51.70114 
L 127.070639 -51.627591 
L 130.145019 -51.617855 
L 133.2194 -51.671934 
L 136.29378 -51.789826 
L 139.36816 -51.971532 
L 142.44254 -52.217053 
L 145.51692 -52.526387 
L 148.5913 -52.899536 
L 151.665681 -53.336498 
L 154.740061 -53.837275 
L 157.814441 -54.401866 
L 160.888821 -55.03027 
L 163.963201 -55.722489 
L 167.037581 -56.478522 
L 170.111962 -57.298368 
L 173.186342 -58.182029 
L 176.260722 -59.129504 
L 179.335102 -60.140792 
L 182.409482 -61.215895 
L 185.483862 -62.354812 
L 188.558243 -63.557543 
L 191.632623 -64.824088 
L 194.707003 -66.154446 
L 197.781383 -67.548619 
L 200.855763 -69.006606 
L 203.930143 -70.528407 
L 207.004524 -72.114022 
L 210.078904 -73.763451 
L 213.153284 -75.476694 
L 216.227664 -77.253751 
L 219.302044 -79.094622 
L 222.376424 -80.999307 
L 225.450804 -82.967806 
L 228.525185 -85.000119 
L 231.599565 -87.096246 
L 234.673945 -89.256188 
L 237.748325 -91.479943 
L 240.822705 -93.767512 
L 243.897085 -96.118895 
L 246.971466 -98.534092 
L 250.045846 -101.013104 
L 253.120226 -103.555929 
L 256.194606 -106.162568 
L 259.268986 -108.833021 
L 262.343366 -111.567289 
L 265.417747 -114.36537 
L 268.492127 -117.227265 
L 271.566507 -120.152975 
L 274.640887 -123.142498 
L 277.715267 -126.195836 
L 280.789647 -129.312987 
L 283.864028 -132.493953 
L 286.938408 -135.738732 
L 290.012788 -139.047326 
L 293.087168 -142.419733 
L 296.161548 -145.855955 
L 299.235928 -149.35599 
L 302.310309 -152.91984 
L 305.384689 -156.547504 
L 308.459069 -160.238981 
L 311.533449 -163.994273 
L 314.607829 -167.813379 
L 317.682209 -171.696298 
L 320.75659 -175.643032 
L 323.83097 -179.65358 
L 326.90535 -183.727942 
L 329.97973 -187.866118 
L 333.05411 -192.068107 
L 336.12849 -196.333911 
L 339.202871 -200.663529 
L 342.277251 -205.056961 
L 345.351631 -209.514207 
L 348.426011 -214.035267 
L 351.500391 -218.620141 
L 354.574771 -223.268829 
L 357.649152 -227.981331 
L 360.723532 -232.757647 
L 363.797912 -237.597777 
L 363.797912 -249.290582 
L 363.797912 -249.290582 
L 360.723532 -244.450452 
L 357.649152 -239.674136 
L 354.574771 -234.961634 
L 351.500391 -230.312946 
L 348.426011 -225.728072 
L 345.351631 -221.207012 
L 342.277251 -216.749766 
L 339.202871 -212.356335 
L 336.12849 -208.026717 
L 333.05411 -203.760913 
L 329.97973 -199.558923 
L 326.90535 -195.420747 
L 323.83097 -191.346385 
L 320.75659 -187.335838 
L 317.682209 -183.389104 
L 314.607829 -179.506184 
L 311.533449 -175.687079 
L 308.459069 -171.931787 
L 305.384689 -168.240309 
L 302.310309 -164.612646 
L 299.235928 -161.048796 
L 296.161548 -157.54876 
L 293.087168 -154.112539 
L 290.012788 -150.740131 
L 286.938408 -147.431538 
L 283.864028 -144.186758 
L 280.789647 -141.005793 
L 277.715267 -137.888641 
L 274.640887 -134.835304 
L 271.566507 -131.84578 
L 268.492127 -128.920071 
L 265.417747 -126.058176 
L 262.343366 -123.260094 
L 259.268986 -120.525827 
L 256.194606 -117.855374 
L 253.120226 -115.248734 
L 250.045846 -112.705909 
L 246.971466 -110.226898 
L 243.897085 -107.811701 
L 240.822705 -105.460317 
L 237.748325 -103.172748 
L 234.673945 -100.948993 
L 231.599565 -98.789052 
L 228.525185 -96.692925 
L 225.450804 -94.660612 
L 222.376424 -92.692113 
L 219.302044 -90.787428 
L 216.227664 -88.946557 
L 213.153284 -87.1695 
L 210.078904 -85.456257 
L 207.004524 -83.806828 
L 203.930143 -82.221213 
L 200.855763 -80.699412 
L 197.781383 -79.241425 
L 194.707003 -77.847252 
L 191.632623 -76.516893 
L 188.558243 -75.250348 
L 185.483862 -74.047617 
L 182.409482 -72.908701 
L 179.335102 -71.833598 
L 176.260722 -70.822309 
L 173.186342 -69.874834 
L 170.111962 -68.991174 
L 167.037581 -68.171327 
L 163.963201 -67.415294 
L 160.888821 -66.723076 
L 157.814441 -66.094671 
L 154.740061 -65.530081 
L 151.665681 -65.029304 
L 148.5913 -64.592341 
L 145.51692 -64.219193 
L 142.44254 -63.909858 
L 139.36816 -63.664338 
L 136.29378 -63.482631 
L 133.2194 -63.364739 
L 130.145019 -63.310661 
L 127.070639 -63.320396 
L 123.996259 -63.393946 
L 120.921879 -63.53131 
L 117.847499 -63.732487 
L 114.773119 -63.997479 
L 111.698738 -64.326285 
L 108.624358 -64.718904 
L 105.549978 -65.175338 
L 102.475598 -65.695586 
L 99.401218 -66.279648 
L 96.326838 -66.927523 
L 93.252457 -67.639213 
L 90.178077 -68.414717 
L 87.103697 -69.254035 
L 84.029317 -70.157167 
L 80.954937 -71.124113 
L 77.880557 -72.154873 
L 74.806176 -73.249447 
L 71.731796 -74.407835 
L 68.657416 -75.630037 
L 65.583036 -76.916053 
L 62.508656 -78.265883 
L 59.434276 -79.679527 
z
" id="m50ee486a18" style="stroke:#ffffff;stroke-opacity:0.25;"/>
    </defs>
    <g clip-path="url(#p89ffadb52e)">
     <use style="fill:#4c72b0;fill-opacity:0.25;stroke:#ffffff;stroke-opacity:0.25;" x="0" xlink:href="#m50ee486a18" y="266.374219"/>
    </g>
   </g>
   <g id="line2d_15">
    <path clip-path="url(#p89ffadb52e)" d="M 59.434276 192.541094 
L 62.508656 193.954739 
L 65.583036 195.304569 
L 68.657416 196.590585 
L 71.731796 197.812787 
L 74.806176 198.971175 
L 77.880557 200.065749 
L 80.954937 201.096509 
L 84.029317 202.063455 
L 87.103697 202.966586 
L 90.178077 203.805904 
L 93.252457 204.581408 
L 96.326838 205.293098 
L 99.401218 205.940974 
L 102.475598 206.525036 
L 105.549978 207.045283 
L 108.624358 207.501717 
L 111.698738 207.894337 
L 114.773119 208.223143 
L 117.847499 208.488134 
L 120.921879 208.689312 
L 123.996259 208.826676 
L 127.070639 208.900225 
L 130.145019 208.909961 
L 133.2194 208.855882 
L 136.29378 208.73799 
L 139.36816 208.556284 
L 142.44254 208.310763 
L 145.51692 208.001429 
L 148.5913 207.62828 
L 151.665681 207.191317 
L 154.740061 206.690541 
L 157.814441 206.12595 
L 160.888821 205.497546 
L 163.963201 204.805327 
L 167.037581 204.049294 
L 170.111962 203.229448 
L 173.186342 202.345787 
L 176.260722 201.398312 
L 179.335102 200.387024 
L 182.409482 199.311921 
L 185.483862 198.173004 
L 188.558243 196.970273 
L 191.632623 195.703728 
L 194.707003 194.37337 
L 197.781383 192.979197 
L 200.855763 191.52121 
L 203.930143 189.999409 
L 207.004524 188.413794 
L 210.078904 186.764365 
L 213.153284 185.051122 
L 216.227664 183.274065 
L 219.302044 181.433194 
L 222.376424 179.528509 
L 225.450804 177.56001 
L 228.525185 175.527697 
L 231.599565 173.43157 
L 234.673945 171.271628 
L 237.748325 169.047873 
L 240.822705 166.760304 
L 243.897085 164.408921 
L 246.971466 161.993724 
L 250.045846 159.514712 
L 253.120226 156.971887 
L 256.194606 154.365248 
L 259.268986 151.694795 
L 262.343366 148.960527 
L 265.417747 146.162446 
L 268.492127 143.300551 
L 271.566507 140.374841 
L 274.640887 137.385318 
L 277.715267 134.33198 
L 280.789647 131.214829 
L 283.864028 128.033863 
L 286.938408 124.789084 
L 290.012788 121.48049 
L 293.087168 118.108083 
L 296.161548 114.671861 
L 299.235928 111.171826 
L 302.310309 107.607976 
L 305.384689 103.980312 
L 308.459069 100.288835 
L 311.533449 96.533543 
L 314.607829 92.714437 
L 317.682209 88.831518 
L 320.75659 84.884784 
L 323.83097 80.874236 
L 326.90535 76.799874 
L 329.97973 72.661698 
L 333.05411 68.459709 
L 336.12849 64.193905 
L 339.202871 59.864287 
L 342.277251 55.470855 
L 345.351631 51.013609 
L 348.426011 46.492549 
L 351.500391 41.907675 
L 354.574771 37.258987 
L 357.649152 32.546485 
L 360.723532 27.770169 
L 363.797912 22.930039 
" style="fill:none;stroke:#4c72b0;stroke-dasharray:5.55,2.4;stroke-dashoffset:0;stroke-width:1.5;"/>
   </g>
   <g id="line2d_16">
    <defs>
     <path d="M -3 3 
L 3 -3 
M -3 -3 
L 3 3 
" id="m149752977c" style="stroke:#1a1a1a;"/>
    </defs>
    <g clip-path="url(#p89ffadb52e)">
     <use style="fill:#1a1a1a;stroke:#1a1a1a;" x="95.731539" xlink:href="#m149752977c" y="206.265601"/>
     <use style="fill:#1a1a1a;stroke:#1a1a1a;" x="197.517154" xlink:href="#m149752977c" y="195.076597"/>
     <use style="fill:#1a1a1a;stroke:#1a1a1a;" x="290.900518" xlink:href="#m149752977c" y="120.665502"/>
     <use style="fill:#1a1a1a;stroke:#1a1a1a;" x="140.43607" xlink:href="#m149752977c" y="207.973133"/>
     <use style="fill:#1a1a1a;stroke:#1a1a1a;" x="319.08859" xlink:href="#m149752977c" y="91.93743"/>
     <use style="fill:#1a1a1a;stroke:#1a1a1a;" x="326.366776" xlink:href="#m149752977c" y="80.569371"/>
     <use style="fill:#1a1a1a;stroke:#1a1a1a;" x="318.490477" xlink:href="#m149752977c" y="81.654658"/>
     <use style="fill:#1a1a1a;stroke:#1a1a1a;" x="328.408242" xlink:href="#m149752977c" y="72.6546"/>
     <use style="fill:#1a1a1a;stroke:#1a1a1a;" x="248.772488" xlink:href="#m149752977c" y="160.211246"/>
     <use style="fill:#1a1a1a;stroke:#1a1a1a;" x="139.597814" xlink:href="#m149752977c" y="206.471767"/>
    </g>
   </g>
   <g id="line2d_17">
    <path clip-path="url(#p89ffadb52e)" d="M 59.434276 188.277541 
L 62.508656 189.947348 
L 65.583036 191.548298 
L 68.657416 193.080389 
L 71.731796 194.543622 
L 74.806176 195.937997 
L 77.880557 197.263514 
L 80.954937 198.520173 
L 84.029317 199.707974 
L 87.103697 200.826918 
L 90.178077 201.877002 
L 93.252457 202.858229 
L 96.326838 203.770598 
L 99.401218 204.614109 
L 102.475598 205.388762 
L 105.549978 206.094557 
L 108.624358 206.731494 
L 111.698738 207.299573 
L 114.773119 207.798793 
L 117.847499 208.229156 
L 120.921879 208.590661 
L 123.996259 208.883307 
L 127.070639 209.107096 
L 130.145019 209.262026 
L 133.2194 209.348099 
L 136.29378 209.365313 
L 139.36816 209.31367 
L 142.44254 209.193168 
L 145.51692 209.003809 
L 148.5913 208.745591 
L 151.665681 208.418516 
L 154.740061 208.022582 
L 157.814441 207.55779 
L 160.888821 207.02414 
L 163.963201 206.421633 
L 167.037581 205.750267 
L 170.111962 205.010043 
L 173.186342 204.200961 
L 176.260722 203.323021 
L 179.335102 202.376223 
L 182.409482 201.360567 
L 185.483862 200.276053 
L 188.558243 199.122681 
L 191.632623 197.900451 
L 194.707003 196.609363 
L 197.781383 195.249417 
L 200.855763 193.820613 
L 203.930143 192.322951 
L 207.004524 190.75643 
L 210.078904 189.121052 
L 213.153284 187.416816 
L 216.227664 185.643721 
L 219.302044 183.801769 
L 222.376424 181.890959 
L 225.450804 179.91129 
L 228.525185 177.862764 
L 231.599565 175.745379 
L 234.673945 173.559137 
L 237.748325 171.304036 
L 240.822705 168.980078 
L 243.897085 166.587261 
L 246.971466 164.125586 
L 250.045846 161.595054 
L 253.120226 158.995663 
L 256.194606 156.327414 
L 259.268986 153.590308 
L 262.343366 150.784343 
L 265.417747 147.90952 
L 268.492127 144.965839 
L 271.566507 141.9533 
L 274.640887 138.871903 
L 277.715267 135.721648 
L 280.789647 132.502535 
L 283.864028 129.214564 
L 286.938408 125.857735 
L 290.012788 122.432048 
L 293.087168 118.937503 
L 296.161548 115.3741 
L 299.235928 111.741839 
L 302.310309 108.040719 
L 305.384689 104.270742 
L 308.459069 100.431907 
L 311.533449 96.524214 
L 314.607829 92.547662 
L 317.682209 88.502253 
L 320.75659 84.387985 
L 323.83097 80.20486 
L 326.90535 75.952877 
L 329.97973 71.632035 
L 333.05411 67.242335 
L 336.12849 62.783778 
L 339.202871 58.256362 
L 342.277251 53.660089 
L 345.351631 48.994957 
L 348.426011 44.260967 
L 351.500391 39.45812 
L 354.574771 34.586414 
L 357.649152 29.64585 
L 360.723532 24.636428 
L 363.797912 19.558148 
" style="fill:none;stroke:#dd8452;stroke-linecap:round;stroke-width:1.5;"/>
   </g>
   <g id="patch_3">
    <path d="M 44.216094 224.64 
L 44.216094 7.2 
" style="fill:none;stroke:#262626;stroke-linecap:square;stroke-linejoin:miter;stroke-width:1.25;"/>
   </g>
   <g id="patch_4">
    <path d="M 379.016094 224.64 
L 379.016094 7.2 
" style="fill:none;stroke:#262626;stroke-linecap:square;stroke-linejoin:miter;stroke-width:1.25;"/>
   </g>
   <g id="patch_5">
    <path d="M 44.216094 224.64 
L 379.016094 224.64 
" style="fill:none;stroke:#262626;stroke-linecap:square;stroke-linejoin:miter;stroke-width:1.25;"/>
   </g>
   <g id="patch_6">
    <path d="M 44.216094 7.2 
L 379.016094 7.2 
" style="fill:none;stroke:#262626;stroke-linecap:square;stroke-linejoin:miter;stroke-width:1.25;"/>
   </g>
   <g id="legend_1">
    <g id="patch_7">
     <path d="M 51.916094 78.373437 
L 196.748281 78.373437 
Q 198.948281 78.373437 198.948281 76.173437 
L 198.948281 14.9 
Q 198.948281 12.7 196.748281 12.7 
L 51.916094 12.7 
Q 49.716094 12.7 49.716094 14.9 
L 49.716094 76.173437 
Q 49.716094 78.373437 51.916094 78.373437 
z
" style="fill:#ffffff;opacity:0.8;stroke:#cccccc;stroke-linejoin:miter;"/>
    </g>
    <g id="line2d_18">
     <path d="M 54.116094 21.123594 
L 76.116094 21.123594 
" style="fill:none;stroke:#4c72b0;stroke-dasharray:5.55,2.4;stroke-dashoffset:0;stroke-width:1.5;"/>
    </g>
    <g id="line2d_19"/>
    <g id="text_17">
     <!-- Mean prediction -->
     <g style="fill:#262626;" transform="translate(84.916094 24.973594)scale(0.11 -0.11)">
      <defs>
       <path d="M 7.421875 0 
L 7.421875 71.578125 
L 21.6875 71.578125 
L 38.625 20.90625 
Q 40.96875 13.8125 42.046875 10.296875 
Q 43.265625 14.203125 45.84375 21.78125 
L 62.984375 71.578125 
L 75.734375 71.578125 
L 75.734375 0 
L 66.609375 0 
L 66.609375 59.90625 
L 45.796875 0 
L 37.25 0 
L 16.546875 60.9375 
L 16.546875 0 
z
" id="ArialMT-77"/>
       <path d="M 42.09375 16.703125 
L 51.171875 15.578125 
Q 49.03125 7.625 43.21875 3.21875 
Q 37.40625 -1.171875 28.375 -1.171875 
Q 17 -1.171875 10.328125 5.828125 
Q 3.65625 12.84375 3.65625 25.484375 
Q 3.65625 38.578125 10.390625 45.796875 
Q 17.140625 53.03125 27.875 53.03125 
Q 38.28125 53.03125 44.875 45.953125 
Q 51.46875 38.875 51.46875 26.03125 
Q 51.46875 25.25 51.421875 23.6875 
L 12.75 23.6875 
Q 13.234375 15.140625 17.578125 10.59375 
Q 21.921875 6.0625 28.421875 6.0625 
Q 33.25 6.0625 36.671875 8.59375 
Q 40.09375 11.140625 42.09375 16.703125 
z
M 13.234375 30.90625 
L 42.1875 30.90625 
Q 41.609375 37.453125 38.875 40.71875 
Q 34.671875 45.796875 27.984375 45.796875 
Q 21.921875 45.796875 17.796875 41.75 
Q 13.671875 37.703125 13.234375 30.90625 
z
" id="ArialMT-101"/>
       <path d="M 40.4375 6.390625 
Q 35.546875 2.25 31.03125 0.53125 
Q 26.515625 -1.171875 21.34375 -1.171875 
Q 12.796875 -1.171875 8.203125 3 
Q 3.609375 7.171875 3.609375 13.671875 
Q 3.609375 17.484375 5.34375 20.625 
Q 7.078125 23.78125 9.890625 25.6875 
Q 12.703125 27.59375 16.21875 28.5625 
Q 18.796875 29.25 24.03125 29.890625 
Q 34.671875 31.15625 39.703125 32.90625 
Q 39.75 34.71875 39.75 35.203125 
Q 39.75 40.578125 37.25 42.78125 
Q 33.890625 45.75 27.25 45.75 
Q 21.046875 45.75 18.09375 43.578125 
Q 15.140625 41.40625 13.71875 35.890625 
L 5.125 37.0625 
Q 6.296875 42.578125 8.984375 45.96875 
Q 11.671875 49.359375 16.75 51.1875 
Q 21.828125 53.03125 28.515625 53.03125 
Q 35.15625 53.03125 39.296875 51.46875 
Q 43.453125 49.90625 45.40625 47.53125 
Q 47.359375 45.171875 48.140625 41.546875 
Q 48.578125 39.3125 48.578125 33.453125 
L 48.578125 21.734375 
Q 48.578125 9.46875 49.140625 6.21875 
Q 49.703125 2.984375 51.375 0 
L 42.1875 0 
Q 40.828125 2.734375 40.4375 6.390625 
z
M 39.703125 26.03125 
Q 34.90625 24.078125 25.34375 22.703125 
Q 19.921875 21.921875 17.671875 20.9375 
Q 15.4375 19.96875 14.203125 18.09375 
Q 12.984375 16.21875 12.984375 13.921875 
Q 12.984375 10.40625 15.640625 8.0625 
Q 18.3125 5.71875 23.4375 5.71875 
Q 28.515625 5.71875 32.46875 7.9375 
Q 36.421875 10.15625 38.28125 14.015625 
Q 39.703125 17 39.703125 22.796875 
z
" id="ArialMT-97"/>
       <path d="M 6.59375 0 
L 6.59375 51.859375 
L 14.5 51.859375 
L 14.5 44.484375 
Q 20.21875 53.03125 31 53.03125 
Q 35.6875 53.03125 39.625 51.34375 
Q 43.5625 49.65625 45.515625 46.921875 
Q 47.46875 44.1875 48.25 40.4375 
Q 48.734375 37.984375 48.734375 31.890625 
L 48.734375 0 
L 39.9375 0 
L 39.9375 31.546875 
Q 39.9375 36.921875 38.90625 39.578125 
Q 37.890625 42.234375 35.28125 43.8125 
Q 32.671875 45.40625 29.15625 45.40625 
Q 23.53125 45.40625 19.453125 41.84375 
Q 15.375 38.28125 15.375 28.328125 
L 15.375 0 
z
" id="ArialMT-110"/>
       <path id="ArialMT-32"/>
       <path d="M 6.59375 -19.875 
L 6.59375 51.859375 
L 14.59375 51.859375 
L 14.59375 45.125 
Q 17.4375 49.078125 21 51.046875 
Q 24.5625 53.03125 29.640625 53.03125 
Q 36.28125 53.03125 41.359375 49.609375 
Q 46.4375 46.1875 49.015625 39.953125 
Q 51.609375 33.734375 51.609375 26.3125 
Q 51.609375 18.359375 48.75 11.984375 
Q 45.90625 5.609375 40.453125 2.21875 
Q 35.015625 -1.171875 29 -1.171875 
Q 24.609375 -1.171875 21.109375 0.6875 
Q 17.625 2.546875 15.375 5.375 
L 15.375 -19.875 
z
M 14.546875 25.640625 
Q 14.546875 15.625 18.59375 10.84375 
Q 22.65625 6.0625 28.421875 6.0625 
Q 34.28125 6.0625 38.453125 11.015625 
Q 42.625 15.96875 42.625 26.375 
Q 42.625 36.28125 38.546875 41.203125 
Q 34.46875 46.140625 28.8125 46.140625 
Q 23.1875 46.140625 18.859375 40.890625 
Q 14.546875 35.640625 14.546875 25.640625 
z
" id="ArialMT-112"/>
       <path d="M 6.5 0 
L 6.5 51.859375 
L 14.40625 51.859375 
L 14.40625 44 
Q 17.4375 49.515625 20 51.265625 
Q 22.5625 53.03125 25.640625 53.03125 
Q 30.078125 53.03125 34.671875 50.203125 
L 31.640625 42.046875 
Q 28.421875 43.953125 25.203125 43.953125 
Q 22.3125 43.953125 20.015625 42.21875 
Q 17.71875 40.484375 16.75 37.40625 
Q 15.28125 32.71875 15.28125 27.15625 
L 15.28125 0 
z
" id="ArialMT-114"/>
       <path d="M 40.234375 0 
L 40.234375 6.546875 
Q 35.296875 -1.171875 25.734375 -1.171875 
Q 19.53125 -1.171875 14.328125 2.25 
Q 9.125 5.671875 6.265625 11.796875 
Q 3.421875 17.921875 3.421875 25.875 
Q 3.421875 33.640625 6 39.96875 
Q 8.59375 46.296875 13.765625 49.65625 
Q 18.953125 53.03125 25.34375 53.03125 
Q 30.03125 53.03125 33.6875 51.046875 
Q 37.359375 49.078125 39.65625 45.90625 
L 39.65625 71.578125 
L 48.390625 71.578125 
L 48.390625 0 
z
M 12.453125 25.875 
Q 12.453125 15.921875 16.640625 10.984375 
Q 20.84375 6.0625 26.5625 6.0625 
Q 32.328125 6.0625 36.34375 10.765625 
Q 40.375 15.484375 40.375 25.140625 
Q 40.375 35.796875 36.265625 40.765625 
Q 32.171875 45.75 26.171875 45.75 
Q 20.3125 45.75 16.375 40.96875 
Q 12.453125 36.1875 12.453125 25.875 
z
" id="ArialMT-100"/>
       <path d="M 6.640625 61.46875 
L 6.640625 71.578125 
L 15.4375 71.578125 
L 15.4375 61.46875 
z
M 6.640625 0 
L 6.640625 51.859375 
L 15.4375 51.859375 
L 15.4375 0 
z
" id="ArialMT-105"/>
       <path d="M 40.4375 19 
L 49.078125 17.875 
Q 47.65625 8.9375 41.8125 3.875 
Q 35.984375 -1.171875 27.484375 -1.171875 
Q 16.84375 -1.171875 10.375 5.78125 
Q 3.90625 12.75 3.90625 25.734375 
Q 3.90625 34.125 6.6875 40.421875 
Q 9.46875 46.734375 15.15625 49.875 
Q 20.84375 53.03125 27.546875 53.03125 
Q 35.984375 53.03125 41.359375 48.75 
Q 46.734375 44.484375 48.25 36.625 
L 39.703125 35.296875 
Q 38.484375 40.53125 35.375 43.15625 
Q 32.28125 45.796875 27.875 45.796875 
Q 21.234375 45.796875 17.078125 41.03125 
Q 12.9375 36.28125 12.9375 25.984375 
Q 12.9375 15.53125 16.9375 10.796875 
Q 20.953125 6.0625 27.390625 6.0625 
Q 32.5625 6.0625 36.03125 9.234375 
Q 39.5 12.40625 40.4375 19 
z
" id="ArialMT-99"/>
       <path d="M 25.78125 7.859375 
L 27.046875 0.09375 
Q 23.34375 -0.6875 20.40625 -0.6875 
Q 15.625 -0.6875 12.984375 0.828125 
Q 10.359375 2.34375 9.28125 4.8125 
Q 8.203125 7.28125 8.203125 15.1875 
L 8.203125 45.015625 
L 1.765625 45.015625 
L 1.765625 51.859375 
L 8.203125 51.859375 
L 8.203125 64.703125 
L 16.9375 69.96875 
L 16.9375 51.859375 
L 25.78125 51.859375 
L 25.78125 45.015625 
L 16.9375 45.015625 
L 16.9375 14.703125 
Q 16.9375 10.9375 17.40625 9.859375 
Q 17.875 8.796875 18.921875 8.15625 
Q 19.96875 7.515625 21.921875 7.515625 
Q 23.390625 7.515625 25.78125 7.859375 
z
" id="ArialMT-116"/>
       <path d="M 3.328125 25.921875 
Q 3.328125 40.328125 11.328125 47.265625 
Q 18.015625 53.03125 27.640625 53.03125 
Q 38.328125 53.03125 45.109375 46.015625 
Q 51.90625 39.015625 51.90625 26.65625 
Q 51.90625 16.65625 48.90625 10.90625 
Q 45.90625 5.171875 40.15625 2 
Q 34.421875 -1.171875 27.640625 -1.171875 
Q 16.75 -1.171875 10.03125 5.8125 
Q 3.328125 12.796875 3.328125 25.921875 
z
M 12.359375 25.921875 
Q 12.359375 15.96875 16.703125 11.015625 
Q 21.046875 6.0625 27.640625 6.0625 
Q 34.1875 6.0625 38.53125 11.03125 
Q 42.875 16.015625 42.875 26.21875 
Q 42.875 35.84375 38.5 40.796875 
Q 34.125 45.75 27.640625 45.75 
Q 21.046875 45.75 16.703125 40.8125 
Q 12.359375 35.890625 12.359375 25.921875 
z
" id="ArialMT-111"/>
      </defs>
      <use xlink:href="#ArialMT-77"/>
      <use x="83.300781" xlink:href="#ArialMT-101"/>
      <use x="138.916016" xlink:href="#ArialMT-97"/>
      <use x="194.53125" xlink:href="#ArialMT-110"/>
      <use x="250.146484" xlink:href="#ArialMT-32"/>
      <use x="277.929688" xlink:href="#ArialMT-112"/>
      <use x="333.544922" xlink:href="#ArialMT-114"/>
      <use x="366.845703" xlink:href="#ArialMT-101"/>
      <use x="422.460938" xlink:href="#ArialMT-100"/>
      <use x="478.076172" xlink:href="#ArialMT-105"/>
      <use x="500.292969" xlink:href="#ArialMT-99"/>
      <use x="550.292969" xlink:href="#ArialMT-116"/>
      <use x="578.076172" xlink:href="#ArialMT-105"/>
      <use x="600.292969" xlink:href="#ArialMT-111"/>
      <use x="655.908203" xlink:href="#ArialMT-110"/>
     </g>
    </g>
    <g id="line2d_20"/>
    <g id="line2d_21">
     <g>
      <use style="fill:#1a1a1a;stroke:#1a1a1a;" x="65.116094" xlink:href="#m149752977c" y="36.683437"/>
     </g>
    </g>
    <g id="text_18">
     <!-- Observed data -->
     <g style="fill:#262626;" transform="translate(84.916094 40.533437)scale(0.11 -0.11)">
      <defs>
       <path d="M 4.828125 34.859375 
Q 4.828125 52.6875 14.390625 62.765625 
Q 23.96875 72.859375 39.109375 72.859375 
Q 49.03125 72.859375 56.984375 68.109375 
Q 64.9375 63.375 69.109375 54.90625 
Q 73.296875 46.4375 73.296875 35.6875 
Q 73.296875 24.8125 68.890625 16.21875 
Q 64.5 7.625 56.4375 3.203125 
Q 48.390625 -1.21875 39.0625 -1.21875 
Q 28.953125 -1.21875 20.984375 3.65625 
Q 13.03125 8.546875 8.921875 16.984375 
Q 4.828125 25.4375 4.828125 34.859375 
z
M 14.59375 34.71875 
Q 14.59375 21.78125 21.546875 14.328125 
Q 28.515625 6.890625 39.015625 6.890625 
Q 49.703125 6.890625 56.609375 14.40625 
Q 63.53125 21.921875 63.53125 35.75 
Q 63.53125 44.484375 60.578125 51 
Q 57.625 57.515625 51.921875 61.109375 
Q 46.234375 64.703125 39.15625 64.703125 
Q 29.109375 64.703125 21.84375 57.78125 
Q 14.59375 50.875 14.59375 34.71875 
z
" id="ArialMT-79"/>
       <path d="M 14.703125 0 
L 6.546875 0 
L 6.546875 71.578125 
L 15.328125 71.578125 
L 15.328125 46.046875 
Q 20.90625 53.03125 29.546875 53.03125 
Q 34.328125 53.03125 38.59375 51.09375 
Q 42.875 49.171875 45.625 45.671875 
Q 48.390625 42.1875 49.953125 37.25 
Q 51.515625 32.328125 51.515625 26.703125 
Q 51.515625 13.375 44.921875 6.09375 
Q 38.328125 -1.171875 29.109375 -1.171875 
Q 19.921875 -1.171875 14.703125 6.5 
z
M 14.59375 26.3125 
Q 14.59375 17 17.140625 12.84375 
Q 21.296875 6.0625 28.375 6.0625 
Q 34.125 6.0625 38.328125 11.0625 
Q 42.53125 16.0625 42.53125 25.984375 
Q 42.53125 36.140625 38.5 40.96875 
Q 34.46875 45.796875 28.765625 45.796875 
Q 23 45.796875 18.796875 40.796875 
Q 14.59375 35.796875 14.59375 26.3125 
z
" id="ArialMT-98"/>
       <path d="M 3.078125 15.484375 
L 11.765625 16.84375 
Q 12.5 11.625 15.84375 8.84375 
Q 19.1875 6.0625 25.203125 6.0625 
Q 31.25 6.0625 34.171875 8.515625 
Q 37.109375 10.984375 37.109375 14.3125 
Q 37.109375 17.28125 34.515625 19 
Q 32.71875 20.171875 25.53125 21.96875 
Q 15.875 24.421875 12.140625 26.203125 
Q 8.40625 27.984375 6.46875 31.125 
Q 4.546875 34.28125 4.546875 38.09375 
Q 4.546875 41.546875 6.125 44.5 
Q 7.71875 47.46875 10.453125 49.421875 
Q 12.5 50.921875 16.03125 51.96875 
Q 19.578125 53.03125 23.640625 53.03125 
Q 29.734375 53.03125 34.34375 51.265625 
Q 38.96875 49.515625 41.15625 46.5 
Q 43.359375 43.5 44.1875 38.484375 
L 35.59375 37.3125 
Q 35.015625 41.3125 32.203125 43.546875 
Q 29.390625 45.796875 24.265625 45.796875 
Q 18.21875 45.796875 15.625 43.796875 
Q 13.03125 41.796875 13.03125 39.109375 
Q 13.03125 37.40625 14.109375 36.03125 
Q 15.1875 34.625 17.484375 33.6875 
Q 18.796875 33.203125 25.25 31.453125 
Q 34.578125 28.953125 38.25 27.359375 
Q 41.9375 25.78125 44.03125 22.75 
Q 46.140625 19.734375 46.140625 15.234375 
Q 46.140625 10.84375 43.578125 6.953125 
Q 41.015625 3.078125 36.171875 0.953125 
Q 31.34375 -1.171875 25.25 -1.171875 
Q 15.140625 -1.171875 9.84375 3.03125 
Q 4.546875 7.234375 3.078125 15.484375 
z
" id="ArialMT-115"/>
       <path d="M 21 0 
L 1.265625 51.859375 
L 10.546875 51.859375 
L 21.6875 20.796875 
Q 23.484375 15.765625 25 10.359375 
Q 26.171875 14.453125 28.265625 20.21875 
L 39.796875 51.859375 
L 48.828125 51.859375 
L 29.203125 0 
z
" id="ArialMT-118"/>
      </defs>
      <use xlink:href="#ArialMT-79"/>
      <use x="77.783203" xlink:href="#ArialMT-98"/>
      <use x="133.398438" xlink:href="#ArialMT-115"/>
      <use x="183.398438" xlink:href="#ArialMT-101"/>
      <use x="239.013672" xlink:href="#ArialMT-114"/>
      <use x="272.314453" xlink:href="#ArialMT-118"/>
      <use x="322.314453" xlink:href="#ArialMT-101"/>
      <use x="377.929688" xlink:href="#ArialMT-100"/>
      <use x="433.544922" xlink:href="#ArialMT-32"/>
      <use x="461.328125" xlink:href="#ArialMT-100"/>
      <use x="516.943359" xlink:href="#ArialMT-97"/>
      <use x="572.558594" xlink:href="#ArialMT-116"/>
      <use x="600.341797" xlink:href="#ArialMT-97"/>
     </g>
    </g>
    <g id="line2d_22">
     <path d="M 54.116094 52.377344 
L 76.116094 52.377344 
" style="fill:none;stroke:#dd8452;stroke-linecap:round;stroke-width:1.5;"/>
    </g>
    <g id="line2d_23"/>
    <g id="text_19">
     <!-- True response surface -->
     <g style="fill:#262626;" transform="translate(84.916094 56.227344)scale(0.11 -0.11)">
      <defs>
       <path d="M 25.921875 0 
L 25.921875 63.140625 
L 2.34375 63.140625 
L 2.34375 71.578125 
L 59.078125 71.578125 
L 59.078125 63.140625 
L 35.40625 63.140625 
L 35.40625 0 
z
" id="ArialMT-84"/>
       <path d="M 40.578125 0 
L 40.578125 7.625 
Q 34.515625 -1.171875 24.125 -1.171875 
Q 19.53125 -1.171875 15.546875 0.578125 
Q 11.578125 2.34375 9.640625 5 
Q 7.71875 7.671875 6.9375 11.53125 
Q 6.390625 14.109375 6.390625 19.734375 
L 6.390625 51.859375 
L 15.1875 51.859375 
L 15.1875 23.09375 
Q 15.1875 16.21875 15.71875 13.8125 
Q 16.546875 10.359375 19.234375 8.375 
Q 21.921875 6.390625 25.875 6.390625 
Q 29.828125 6.390625 33.296875 8.421875 
Q 36.765625 10.453125 38.203125 13.9375 
Q 39.65625 17.4375 39.65625 24.078125 
L 39.65625 51.859375 
L 48.4375 51.859375 
L 48.4375 0 
z
" id="ArialMT-117"/>
       <path d="M 8.6875 0 
L 8.6875 45.015625 
L 0.921875 45.015625 
L 0.921875 51.859375 
L 8.6875 51.859375 
L 8.6875 57.375 
Q 8.6875 62.59375 9.625 65.140625 
Q 10.890625 68.5625 14.078125 70.671875 
Q 17.28125 72.796875 23.046875 72.796875 
Q 26.765625 72.796875 31.25 71.921875 
L 29.9375 64.265625 
Q 27.203125 64.75 24.75 64.75 
Q 20.75 64.75 19.09375 63.03125 
Q 17.4375 61.328125 17.4375 56.640625 
L 17.4375 51.859375 
L 27.546875 51.859375 
L 27.546875 45.015625 
L 17.4375 45.015625 
L 17.4375 0 
z
" id="ArialMT-102"/>
      </defs>
      <use xlink:href="#ArialMT-84"/>
      <use x="57.333984" xlink:href="#ArialMT-114"/>
      <use x="90.634766" xlink:href="#ArialMT-117"/>
      <use x="146.25" xlink:href="#ArialMT-101"/>
      <use x="201.865234" xlink:href="#ArialMT-32"/>
      <use x="229.648438" xlink:href="#ArialMT-114"/>
      <use x="262.949219" xlink:href="#ArialMT-101"/>
      <use x="318.564453" xlink:href="#ArialMT-115"/>
      <use x="368.564453" xlink:href="#ArialMT-112"/>
      <use x="424.179688" xlink:href="#ArialMT-111"/>
      <use x="479.794922" xlink:href="#ArialMT-110"/>
      <use x="535.410156" xlink:href="#ArialMT-115"/>
      <use x="585.410156" xlink:href="#ArialMT-101"/>
      <use x="641.025391" xlink:href="#ArialMT-32"/>
      <use x="668.808594" xlink:href="#ArialMT-115"/>
      <use x="718.808594" xlink:href="#ArialMT-117"/>
      <use x="774.423828" xlink:href="#ArialMT-114"/>
      <use x="807.724609" xlink:href="#ArialMT-102"/>
      <use x="835.507812" xlink:href="#ArialMT-97"/>
      <use x="891.123047" xlink:href="#ArialMT-99"/>
      <use x="941.123047" xlink:href="#ArialMT-101"/>
     </g>
    </g>
    <g id="patch_8">
     <path d="M 54.116094 71.787187 
L 76.116094 71.787187 
L 76.116094 64.087187 
L 54.116094 64.087187 
z
" style="fill:#4c72b0;opacity:0.25;stroke:#ffffff;stroke-linejoin:miter;"/>
    </g>
    <g id="text_20">
     <!-- 95% credible interval -->
     <g style="fill:#262626;" transform="translate(84.916094 71.787187)scale(0.11 -0.11)">
      <defs>
       <path d="M 5.46875 16.546875 
L 13.921875 17.328125 
Q 14.984375 11.375 18.015625 8.6875 
Q 21.046875 6 25.78125 6 
Q 29.828125 6 32.875 7.859375 
Q 35.9375 9.71875 37.890625 12.8125 
Q 39.84375 15.921875 41.15625 21.1875 
Q 42.484375 26.46875 42.484375 31.9375 
Q 42.484375 32.515625 42.4375 33.6875 
Q 39.796875 29.5 35.234375 26.875 
Q 30.671875 24.265625 25.34375 24.265625 
Q 16.453125 24.265625 10.296875 30.703125 
Q 4.15625 37.15625 4.15625 47.703125 
Q 4.15625 58.59375 10.578125 65.234375 
Q 17 71.875 26.65625 71.875 
Q 33.640625 71.875 39.421875 68.109375 
Q 45.21875 64.359375 48.21875 57.390625 
Q 51.21875 50.4375 51.21875 37.25 
Q 51.21875 23.53125 48.234375 15.40625 
Q 45.265625 7.28125 39.375 3.03125 
Q 33.5 -1.21875 25.59375 -1.21875 
Q 17.1875 -1.21875 11.859375 3.4375 
Q 6.546875 8.109375 5.46875 16.546875 
z
M 41.453125 48.140625 
Q 41.453125 55.71875 37.421875 60.15625 
Q 33.40625 64.59375 27.734375 64.59375 
Q 21.875 64.59375 17.53125 59.8125 
Q 13.1875 55.03125 13.1875 47.40625 
Q 13.1875 40.578125 17.3125 36.296875 
Q 21.4375 32.03125 27.484375 32.03125 
Q 33.59375 32.03125 37.515625 36.296875 
Q 41.453125 40.578125 41.453125 48.140625 
z
" id="ArialMT-57"/>
       <path d="M 5.8125 54.390625 
Q 5.8125 62.0625 9.671875 67.421875 
Q 13.53125 72.796875 20.84375 72.796875 
Q 27.59375 72.796875 32 67.984375 
Q 36.421875 63.1875 36.421875 53.859375 
Q 36.421875 44.78125 31.953125 39.875 
Q 27.484375 34.96875 20.953125 34.96875 
Q 14.453125 34.96875 10.125 39.796875 
Q 5.8125 44.625 5.8125 54.390625 
z
M 21.09375 66.75 
Q 17.828125 66.75 15.65625 63.90625 
Q 13.484375 61.078125 13.484375 53.515625 
Q 13.484375 46.625 15.671875 43.8125 
Q 17.875 41.015625 21.09375 41.015625 
Q 24.421875 41.015625 26.59375 43.84375 
Q 28.765625 46.6875 28.765625 54.203125 
Q 28.765625 61.140625 26.5625 63.9375 
Q 24.359375 66.75 21.09375 66.75 
z
M 21.140625 -2.640625 
L 60.296875 72.796875 
L 67.4375 72.796875 
L 28.421875 -2.640625 
z
M 52.09375 16.796875 
Q 52.09375 24.515625 55.953125 29.859375 
Q 59.8125 35.203125 67.1875 35.203125 
Q 73.921875 35.203125 78.34375 30.390625 
Q 82.765625 25.59375 82.765625 16.265625 
Q 82.765625 7.171875 78.296875 2.265625 
Q 73.828125 -2.640625 67.234375 -2.640625 
Q 60.75 -2.640625 56.421875 2.21875 
Q 52.09375 7.078125 52.09375 16.796875 
z
M 67.4375 29.15625 
Q 64.109375 29.15625 61.9375 26.3125 
Q 59.765625 23.484375 59.765625 15.921875 
Q 59.765625 9.078125 61.953125 6.25 
Q 64.15625 3.421875 67.390625 3.421875 
Q 70.75 3.421875 72.921875 6.25 
Q 75.09375 9.078125 75.09375 16.609375 
Q 75.09375 23.53125 72.890625 26.34375 
Q 70.703125 29.15625 67.4375 29.15625 
z
" id="ArialMT-37"/>
       <path d="M 6.390625 0 
L 6.390625 71.578125 
L 15.1875 71.578125 
L 15.1875 0 
z
" id="ArialMT-108"/>
      </defs>
      <use xlink:href="#ArialMT-57"/>
      <use x="55.615234" xlink:href="#ArialMT-53"/>
      <use x="111.230469" xlink:href="#ArialMT-37"/>
      <use x="200.146484" xlink:href="#ArialMT-32"/>
      <use x="227.929688" xlink:href="#ArialMT-99"/>
      <use x="277.929688" xlink:href="#ArialMT-114"/>
      <use x="311.230469" xlink:href="#ArialMT-101"/>
      <use x="366.845703" xlink:href="#ArialMT-100"/>
      <use x="422.460938" xlink:href="#ArialMT-105"/>
      <use x="444.677734" xlink:href="#ArialMT-98"/>
      <use x="500.292969" xlink:href="#ArialMT-108"/>
      <use x="522.509766" xlink:href="#ArialMT-101"/>
      <use x="578.125" xlink:href="#ArialMT-32"/>
      <use x="605.908203" xlink:href="#ArialMT-105"/>
      <use x="628.125" xlink:href="#ArialMT-110"/>
      <use x="683.740234" xlink:href="#ArialMT-116"/>
      <use x="711.523438" xlink:href="#ArialMT-101"/>
      <use x="767.138672" xlink:href="#ArialMT-114"/>
      <use x="800.439453" xlink:href="#ArialMT-118"/>
      <use x="850.439453" xlink:href="#ArialMT-97"/>
      <use x="906.054688" xlink:href="#ArialMT-108"/>
     </g>
    </g>
   </g>
  </g>
 </g>
 <defs>
  <clipPath id="p89ffadb52e">
   <rect height="217.44" width="334.8" x="44.216094" y="7.2"/>
  </clipPath>
 </defs>
</svg>