<?xml version="1.0" encoding="utf-8" standalone="no"?>
<!DOCTYPE svg PUBLIC "-//W3C//DTD SVG 1.1//EN"
  "http://www.w3.org/Graphics/SVG/1.1/DTD/svg11.dtd">
<!-- Created with matplotlib (https://matplotlib.org/) -->
<svg height="266.799844pt" version="1.1" viewBox="0 0 395.814687 266.799844" width="395.814687pt" xmlns="http://www.w3.org/2000/svg" xmlns:xlink="http://www.w3.org/1999/xlink">
 <metadata>
  <rdf:RDF xmlns:cc="http://creativecommons.org/ns#" xmlns:dc="http://purl.org/dc/elements/1.1/" xmlns:rdf="http://www.w3.org/1999/02/22-rdf-syntax-ns#">
   <cc:Work>
    <dc:type rdf:resource="http://purl.org/dc/dcmitype/StillImage"/>
    <dc:date>2021-06-23T14:55:24.784506</dc:date>
    <dc:format>image/svg+xml</dc:format>
    <dc:creator>
     <cc:Agent>
      <dc:title>Matplotlib v3.3.4, https://matplotlib.org/</dc:title>
     </cc:Agent>
    </dc:creator>
   </cc:Work>
  </rdf:RDF>
 </metadata>
 <defs>
  <style type="text/css">*{stroke-linecap:butt;stroke-linejoin:round;}</style>
 </defs>
 <g id="figure_1">
  <g id="patch_1">
   <path d="M 0 266.799844 
L 395.814687 266.799844 
L 395.814687 0 
L 0 0 
z
" style="fill:#ffffff;"/>
  </g>
  <g id="axes_1">
   <g id="patch_2">
    <path d="M 53.814688 224.64 
L 388.614688 224.64 
L 388.614688 7.2 
L 53.814688 7.2 
z
" style="fill:#ffffff;"/>
   </g>
   <g id="matplotlib.axis_1">
    <g id="xtick_1">
     <g id="line2d_1">
      <defs>
       <path d="M 0 0 
L 0 6 
" id="m7123f25e02" style="stroke:#262626;stroke-width:1.25;"/>
      </defs>
      <g>
       <use style="fill:#262626;stroke:#262626;stroke-width:1.25;" x="69.032869" xlink:href="#m7123f25e02" y="224.64"/>
      </g>
     </g>
     <g id="text_1">
      <!-- 0 -->
      <g style="fill:#262626;" transform="translate(65.974354 242.013594)scale(0.11 -0.11)">
       <defs>
        <path d="M 4.15625 35.296875 
Q 4.15625 48 6.765625 55.734375 
Q 9.375 63.484375 14.515625 67.671875 
Q 19.671875 71.875 27.484375 71.875 
Q 33.25 71.875 37.59375 69.546875 
Q 41.9375 67.234375 44.765625 62.859375 
Q 47.609375 58.5 49.21875 52.21875 
Q 50.828125 45.953125 50.828125 35.296875 
Q 50.828125 22.703125 48.234375 14.96875 
Q 45.65625 7.234375 40.5 3 
Q 35.359375 -1.21875 27.484375 -1.21875 
Q 17.140625 -1.21875 11.234375 6.203125 
Q 4.15625 15.140625 4.15625 35.296875 
z
M 13.1875 35.296875 
Q 13.1875 17.671875 17.3125 11.828125 
Q 21.4375 6 27.484375 6 
Q 33.546875 6 37.671875 11.859375 
Q 41.796875 17.71875 41.796875 35.296875 
Q 41.796875 52.984375 37.671875 58.78125 
Q 33.546875 64.59375 27.390625 64.59375 
Q 21.34375 64.59375 17.71875 59.46875 
Q 13.1875 52.9375 13.1875 35.296875 
z
" id="ArialMT-48"/>
       </defs>
       <use xlink:href="#ArialMT-48"/>
      </g>
     </g>
    </g>
    <g id="xtick_2">
     <g id="line2d_2">
      <g>
       <use style="fill:#262626;stroke:#262626;stroke-width:1.25;" x="117.473847" xlink:href="#m7123f25e02" y="224.64"/>
      </g>
     </g>
     <g id="text_2">
      <!-- 2 -->
      <g style="fill:#262626;" transform="translate(114.415331 242.013594)scale(0.11 -0.11)">
       <defs>
        <path d="M 50.34375 8.453125 
L 50.34375 0 
L 3.03125 0 
Q 2.9375 3.171875 4.046875 6.109375 
Q 5.859375 10.9375 9.828125 15.625 
Q 13.8125 20.3125 21.34375 26.46875 
Q 33.015625 36.03125 37.109375 41.625 
Q 41.21875 47.21875 41.21875 52.203125 
Q 41.21875 57.421875 37.46875 61 
Q 33.734375 64.59375 27.734375 64.59375 
Q 21.390625 64.59375 17.578125 60.78125 
Q 13.765625 56.984375 13.71875 50.25 
L 4.6875 51.171875 
Q 5.609375 61.28125 11.65625 66.578125 
Q 17.71875 71.875 27.9375 71.875 
Q 38.234375 71.875 44.234375 66.15625 
Q 50.25 60.453125 50.25 52 
Q 50.25 47.703125 48.484375 43.546875 
Q 46.734375 39.40625 42.65625 34.8125 
Q 38.578125 30.21875 29.109375 22.21875 
Q 21.1875 15.578125 18.9375 13.203125 
Q 16.703125 10.84375 15.234375 8.453125 
z
" id="ArialMT-50"/>
       </defs>
       <use xlink:href="#ArialMT-50"/>
      </g>
     </g>
    </g>
    <g id="xtick_3">
     <g id="line2d_3">
      <g>
       <use style="fill:#262626;stroke:#262626;stroke-width:1.25;" x="165.914824" xlink:href="#m7123f25e02" y="224.64"/>
      </g>
     </g>
     <g id="text_3">
      <!-- 4 -->
      <g style="fill:#262626;" transform="translate(162.856308 242.013594)scale(0.11 -0.11)">
       <defs>
        <path d="M 32.328125 0 
L 32.328125 17.140625 
L 1.265625 17.140625 
L 1.265625 25.203125 
L 33.9375 71.578125 
L 41.109375 71.578125 
L 41.109375 25.203125 
L 50.78125 25.203125 
L 50.78125 17.140625 
L 41.109375 17.140625 
L 41.109375 0 
z
M 32.328125 25.203125 
L 32.328125 57.46875 
L 9.90625 25.203125 
z
" id="ArialMT-52"/>
       </defs>
       <use xlink:href="#ArialMT-52"/>
      </g>
     </g>
    </g>
    <g id="xtick_4">
     <g id="line2d_4">
      <g>
       <use style="fill:#262626;stroke:#262626;stroke-width:1.25;" x="214.355801" xlink:href="#m7123f25e02" y="224.64"/>
      </g>
     </g>
     <g id="text_4">
      <!-- 6 -->
      <g style="fill:#262626;" transform="translate(211.297285 242.013594)scale(0.11 -0.11)">
       <defs>
        <path d="M 49.75 54.046875 
L 41.015625 53.375 
Q 39.84375 58.546875 37.703125 60.890625 
Q 34.125 64.65625 28.90625 64.65625 
Q 24.703125 64.65625 21.53125 62.3125 
Q 17.390625 59.28125 14.984375 53.46875 
Q 12.59375 47.65625 12.5 36.921875 
Q 15.671875 41.75 20.265625 44.09375 
Q 24.859375 46.4375 29.890625 46.4375 
Q 38.671875 46.4375 44.84375 39.96875 
Q 51.03125 33.5 51.03125 23.25 
Q 51.03125 16.5 48.125 10.71875 
Q 45.21875 4.9375 40.140625 1.859375 
Q 35.0625 -1.21875 28.609375 -1.21875 
Q 17.625 -1.21875 10.6875 6.859375 
Q 3.765625 14.9375 3.765625 33.5 
Q 3.765625 54.25 11.421875 63.671875 
Q 18.109375 71.875 29.4375 71.875 
Q 37.890625 71.875 43.28125 67.140625 
Q 48.6875 62.40625 49.75 54.046875 
z
M 13.875 23.1875 
Q 13.875 18.65625 15.796875 14.5 
Q 17.71875 10.359375 21.1875 8.171875 
Q 24.65625 6 28.46875 6 
Q 34.03125 6 38.03125 10.484375 
Q 42.046875 14.984375 42.046875 22.703125 
Q 42.046875 30.125 38.078125 34.390625 
Q 34.125 38.671875 28.125 38.671875 
Q 22.171875 38.671875 18.015625 34.390625 
Q 13.875 30.125 13.875 23.1875 
z
" id="ArialMT-54"/>
       </defs>
       <use xlink:href="#ArialMT-54"/>
      </g>
     </g>
    </g>
    <g id="xtick_5">
     <g id="line2d_5">
      <g>
       <use style="fill:#262626;stroke:#262626;stroke-width:1.25;" x="262.796778" xlink:href="#m7123f25e02" y="224.64"/>
      </g>
     </g>
     <g id="text_5">
      <!-- 8 -->
      <g style="fill:#262626;" transform="translate(259.738263 242.013594)scale(0.11 -0.11)">
       <defs>
        <path d="M 17.671875 38.8125 
Q 12.203125 40.828125 9.5625 44.53125 
Q 6.9375 48.25 6.9375 53.421875 
Q 6.9375 61.234375 12.546875 66.546875 
Q 18.171875 71.875 27.484375 71.875 
Q 36.859375 71.875 42.578125 66.421875 
Q 48.296875 60.984375 48.296875 53.171875 
Q 48.296875 48.1875 45.671875 44.5 
Q 43.0625 40.828125 37.75 38.8125 
Q 44.34375 36.671875 47.78125 31.875 
Q 51.21875 27.09375 51.21875 20.453125 
Q 51.21875 11.28125 44.71875 5.03125 
Q 38.234375 -1.21875 27.640625 -1.21875 
Q 17.046875 -1.21875 10.546875 5.046875 
Q 4.046875 11.328125 4.046875 20.703125 
Q 4.046875 27.6875 7.59375 32.390625 
Q 11.140625 37.109375 17.671875 38.8125 
z
M 15.921875 53.71875 
Q 15.921875 48.640625 19.1875 45.40625 
Q 22.46875 42.1875 27.6875 42.1875 
Q 32.765625 42.1875 36.015625 45.375 
Q 39.265625 48.578125 39.265625 53.21875 
Q 39.265625 58.0625 35.90625 61.359375 
Q 32.5625 64.65625 27.59375 64.65625 
Q 22.5625 64.65625 19.234375 61.421875 
Q 15.921875 58.203125 15.921875 53.71875 
z
M 13.09375 20.65625 
Q 13.09375 16.890625 14.875 13.375 
Q 16.65625 9.859375 20.171875 7.921875 
Q 23.6875 6 27.734375 6 
Q 34.03125 6 38.125 10.046875 
Q 42.234375 14.109375 42.234375 20.359375 
Q 42.234375 26.703125 38.015625 30.859375 
Q 33.796875 35.015625 27.4375 35.015625 
Q 21.234375 35.015625 17.15625 30.90625 
Q 13.09375 26.8125 13.09375 20.65625 
z
" id="ArialMT-56"/>
       </defs>
       <use xlink:href="#ArialMT-56"/>
      </g>
     </g>
    </g>
    <g id="xtick_6">
     <g id="line2d_6">
      <g>
       <use style="fill:#262626;stroke:#262626;stroke-width:1.25;" x="311.237755" xlink:href="#m7123f25e02" y="224.64"/>
      </g>
     </g>
     <g id="text_6">
      <!-- 10 -->
      <g style="fill:#262626;" transform="translate(305.120724 242.013594)scale(0.11 -0.11)">
       <defs>
        <path d="M 37.25 0 
L 28.46875 0 
L 28.46875 56 
Q 25.296875 52.984375 20.140625 49.953125 
Q 14.984375 46.921875 10.890625 45.40625 
L 10.890625 53.90625 
Q 18.265625 57.375 23.78125 62.296875 
Q 29.296875 67.234375 31.59375 71.875 
L 37.25 71.875 
z
" id="ArialMT-49"/>
       </defs>
       <use xlink:href="#ArialMT-49"/>
       <use x="55.615234" xlink:href="#ArialMT-48"/>
      </g>
     </g>
    </g>
    <g id="xtick_7">
     <g id="line2d_7">
      <g>
       <use style="fill:#262626;stroke:#262626;stroke-width:1.25;" x="359.678733" xlink:href="#m7123f25e02" y="224.64"/>
      </g>
     </g>
     <g id="text_7">
      <!-- 12 -->
      <g style="fill:#262626;" transform="translate(353.561701 242.013594)scale(0.11 -0.11)">
       <use xlink:href="#ArialMT-49"/>
       <use x="55.615234" xlink:href="#ArialMT-50"/>
      </g>
     </g>
    </g>
    <g id="text_8">
     <!-- $t$ (Time) -->
     <g style="fill:#262626;" transform="translate(199.854688 256.959844)scale(0.12 -0.12)">
      <defs>
       <path d="M 42.28125 54.6875 
L 40.921875 47.703125 
L 23 47.703125 
L 17.1875 18.015625 
Q 16.890625 16.359375 16.75 15.234375 
Q 16.609375 14.109375 16.609375 13.484375 
Q 16.609375 10.359375 18.484375 8.9375 
Q 20.359375 7.515625 24.515625 7.515625 
L 33.59375 7.515625 
L 32.078125 0 
L 23.484375 0 
Q 15.484375 0 11.546875 3.125 
Q 7.625 6.25 7.625 12.59375 
Q 7.625 13.71875 7.765625 15.0625 
Q 7.90625 16.40625 8.203125 18.015625 
L 14.015625 47.703125 
L 6.390625 47.703125 
L 7.8125 54.6875 
L 15.28125 54.6875 
L 18.3125 70.21875 
L 27.296875 70.21875 
L 24.3125 54.6875 
z
" id="DejaVuSans-Oblique-116"/>
       <path id="ArialMT-32"/>
       <path d="M 23.390625 -21.046875 
Q 16.109375 -11.859375 11.078125 0.4375 
Q 6.0625 12.75 6.0625 25.921875 
Q 6.0625 37.546875 9.8125 48.1875 
Q 14.203125 60.546875 23.390625 72.796875 
L 29.6875 72.796875 
Q 23.78125 62.640625 21.875 58.296875 
Q 18.890625 51.5625 17.1875 44.234375 
Q 15.09375 35.109375 15.09375 25.875 
Q 15.09375 2.390625 29.6875 -21.046875 
z
" id="ArialMT-40"/>
       <path d="M 25.921875 0 
L 25.921875 63.140625 
L 2.34375 63.140625 
L 2.34375 71.578125 
L 59.078125 71.578125 
L 59.078125 63.140625 
L 35.40625 63.140625 
L 35.40625 0 
z
" id="ArialMT-84"/>
       <path d="M 6.640625 61.46875 
L 6.640625 71.578125 
L 15.4375 71.578125 
L 15.4375 61.46875 
z
M 6.640625 0 
L 6.640625 51.859375 
L 15.4375 51.859375 
L 15.4375 0 
z
" id="ArialMT-105"/>
       <path d="M 6.59375 0 
L 6.59375 51.859375 
L 14.453125 51.859375 
L 14.453125 44.578125 
Q 16.890625 48.390625 20.9375 50.703125 
Q 25 53.03125 30.171875 53.03125 
Q 35.9375 53.03125 39.625 50.640625 
Q 43.3125 48.25 44.828125 43.953125 
Q 50.984375 53.03125 60.84375 53.03125 
Q 68.5625 53.03125 72.703125 48.75 
Q 76.859375 44.484375 76.859375 35.59375 
L 76.859375 0 
L 68.109375 0 
L 68.109375 32.671875 
Q 68.109375 37.9375 67.25 40.25 
Q 66.40625 42.578125 64.15625 43.984375 
Q 61.921875 45.40625 58.890625 45.40625 
Q 53.421875 45.40625 49.796875 41.765625 
Q 46.1875 38.140625 46.1875 30.125 
L 46.1875 0 
L 37.40625 0 
L 37.40625 33.6875 
Q 37.40625 39.546875 35.25 42.46875 
Q 33.109375 45.40625 28.21875 45.40625 
Q 24.515625 45.40625 21.359375 43.453125 
Q 18.21875 41.5 16.796875 37.734375 
Q 15.375 33.984375 15.375 26.90625 
L 15.375 0 
z
" id="ArialMT-109"/>
       <path d="M 42.09375 16.703125 
L 51.171875 15.578125 
Q 49.03125 7.625 43.21875 3.21875 
Q 37.40625 -1.171875 28.375 -1.171875 
Q 17 -1.171875 10.328125 5.828125 
Q 3.65625 12.84375 3.65625 25.484375 
Q 3.65625 38.578125 10.390625 45.796875 
Q 17.140625 53.03125 27.875 53.03125 
Q 38.28125 53.03125 44.875 45.953125 
Q 51.46875 38.875 51.46875 26.03125 
Q 51.46875 25.25 51.421875 23.6875 
L 12.75 23.6875 
Q 13.234375 15.140625 17.578125 10.59375 
Q 21.921875 6.0625 28.421875 6.0625 
Q 33.25 6.0625 36.671875 8.59375 
Q 40.09375 11.140625 42.09375 16.703125 
z
M 13.234375 30.90625 
L 42.1875 30.90625 
Q 41.609375 37.453125 38.875 40.71875 
Q 34.671875 45.796875 27.984375 45.796875 
Q 21.921875 45.796875 17.796875 41.75 
Q 13.671875 37.703125 13.234375 30.90625 
z
" id="ArialMT-101"/>
       <path d="M 12.359375 -21.046875 
L 6.0625 -21.046875 
Q 20.65625 2.390625 20.65625 25.875 
Q 20.65625 35.0625 18.5625 44.09375 
Q 16.890625 51.421875 13.921875 58.15625 
Q 12.015625 62.546875 6.0625 72.796875 
L 12.359375 72.796875 
Q 21.53125 60.546875 25.921875 48.1875 
Q 29.6875 37.546875 29.6875 25.921875 
Q 29.6875 12.75 24.625 0.4375 
Q 19.578125 -11.859375 12.359375 -21.046875 
z
" id="ArialMT-41"/>
      </defs>
      <use transform="translate(0 0.203125)" xlink:href="#DejaVuSans-Oblique-116"/>
      <use transform="translate(39.208984 0.203125)" xlink:href="#ArialMT-32"/>
      <use transform="translate(66.992188 0.203125)" xlink:href="#ArialMT-40"/>
      <use transform="translate(100.292969 0.203125)" xlink:href="#ArialMT-84"/>
      <use transform="translate(161.376953 0.203125)" xlink:href="#ArialMT-105"/>
      <use transform="translate(183.59375 0.203125)" xlink:href="#ArialMT-109"/>
      <use transform="translate(266.894531 0.203125)" xlink:href="#ArialMT-101"/>
      <use transform="translate(322.509766 0.203125)" xlink:href="#ArialMT-41"/>
     </g>
    </g>
   </g>
   <g id="matplotlib.axis_2">
    <g id="ytick_1">
     <g id="line2d_8">
      <defs>
       <path d="M 0 0 
L -6 0 
" id="m9fd317155e" style="stroke:#262626;stroke-width:1.25;"/>
      </defs>
      <g>
       <use style="fill:#262626;stroke:#262626;stroke-width:1.25;" x="53.814688" xlink:href="#m9fd317155e" y="221.404285"/>
      </g>
     </g>
     <g id="text_9">
      <!-- −1.5 -->
      <g style="fill:#262626;" transform="translate(22.6 225.341082)scale(0.11 -0.11)">
       <defs>
        <path d="M 52.828125 31.203125 
L 5.5625 31.203125 
L 5.5625 39.40625 
L 52.828125 39.40625 
z
" id="ArialMT-8722"/>
        <path d="M 9.078125 0 
L 9.078125 10.015625 
L 19.09375 10.015625 
L 19.09375 0 
z
" id="ArialMT-46"/>
        <path d="M 4.15625 18.75 
L 13.375 19.53125 
Q 14.40625 12.796875 18.140625 9.390625 
Q 21.875 6 27.15625 6 
Q 33.5 6 37.890625 10.78125 
Q 42.28125 15.578125 42.28125 23.484375 
Q 42.28125 31 38.0625 35.34375 
Q 33.84375 39.703125 27 39.703125 
Q 22.75 39.703125 19.328125 37.765625 
Q 15.921875 35.84375 13.96875 32.765625 
L 5.71875 33.84375 
L 12.640625 70.609375 
L 48.25 70.609375 
L 48.25 62.203125 
L 19.671875 62.203125 
L 15.828125 42.96875 
Q 22.265625 47.46875 29.34375 47.46875 
Q 38.71875 47.46875 45.15625 40.96875 
Q 51.609375 34.46875 51.609375 24.265625 
Q 51.609375 14.546875 45.953125 7.46875 
Q 39.0625 -1.21875 27.15625 -1.21875 
Q 17.390625 -1.21875 11.203125 4.25 
Q 5.03125 9.71875 4.15625 18.75 
z
" id="ArialMT-53"/>
       </defs>
       <use xlink:href="#ArialMT-8722"/>
       <use x="58.398438" xlink:href="#ArialMT-49"/>
       <use x="114.013672" xlink:href="#ArialMT-46"/>
       <use x="141.796875" xlink:href="#ArialMT-53"/>
      </g>
     </g>
    </g>
    <g id="ytick_2">
     <g id="line2d_9">
      <g>
       <use style="fill:#262626;stroke:#262626;stroke-width:1.25;" x="53.814688" xlink:href="#m9fd317155e" y="188.124418"/>
      </g>
     </g>
     <g id="text_10">
      <!-- −1.0 -->
      <g style="fill:#262626;" transform="translate(22.6 192.061215)scale(0.11 -0.11)">
       <use xlink:href="#ArialMT-8722"/>
       <use x="58.398438" xlink:href="#ArialMT-49"/>
       <use x="114.013672" xlink:href="#ArialMT-46"/>
       <use x="141.796875" xlink:href="#ArialMT-48"/>
      </g>
     </g>
    </g>
    <g id="ytick_3">
     <g id="line2d_10">
      <g>
       <use style="fill:#262626;stroke:#262626;stroke-width:1.25;" x="53.814688" xlink:href="#m9fd317155e" y="154.844551"/>
      </g>
     </g>
     <g id="text_11">
      <!-- −0.5 -->
      <g style="fill:#262626;" transform="translate(22.6 158.781348)scale(0.11 -0.11)">
       <use xlink:href="#ArialMT-8722"/>
       <use x="58.398438" xlink:href="#ArialMT-48"/>
       <use x="114.013672" xlink:href="#ArialMT-46"/>
       <use x="141.796875" xlink:href="#ArialMT-53"/>
      </g>
     </g>
    </g>
    <g id="ytick_4">
     <g id="line2d_11">
      <g>
       <use style="fill:#262626;stroke:#262626;stroke-width:1.25;" x="53.814688" xlink:href="#m9fd317155e" y="121.564684"/>
      </g>
     </g>
     <g id="text_12">
      <!-- 0.0 -->
      <g style="fill:#262626;" transform="translate(29.024688 125.501481)scale(0.11 -0.11)">
       <use xlink:href="#ArialMT-48"/>
       <use x="55.615234" xlink:href="#ArialMT-46"/>
       <use x="83.398438" xlink:href="#ArialMT-48"/>
      </g>
     </g>
    </g>
    <g id="ytick_5">
     <g id="line2d_12">
      <g>
       <use style="fill:#262626;stroke:#262626;stroke-width:1.25;" x="53.814688" xlink:href="#m9fd317155e" y="88.284817"/>
      </g>
     </g>
     <g id="text_13">
      <!-- 0.5 -->
      <g style="fill:#262626;" transform="translate(29.024688 92.221614)scale(0.11 -0.11)">
       <use xlink:href="#ArialMT-48"/>
       <use x="55.615234" xlink:href="#ArialMT-46"/>
       <use x="83.398438" xlink:href="#ArialMT-53"/>
      </g>
     </g>
    </g>
    <g id="ytick_6">
     <g id="line2d_13">
      <g>
       <use style="fill:#262626;stroke:#262626;stroke-width:1.25;" x="53.814688" xlink:href="#m9fd317155e" y="55.00495"/>
      </g>
     </g>
     <g id="text_14">
      <!-- 1.0 -->
      <g style="fill:#262626;" transform="translate(29.024688 58.941747)scale(0.11 -0.11)">
       <use xlink:href="#ArialMT-49"/>
       <use x="55.615234" xlink:href="#ArialMT-46"/>
       <use x="83.398438" xlink:href="#ArialMT-48"/>
      </g>
     </g>
    </g>
    <g id="ytick_7">
     <g id="line2d_14">
      <g>
       <use style="fill:#262626;stroke:#262626;stroke-width:1.25;" x="53.814688" xlink:href="#m9fd317155e" y="21.725083"/>
      </g>
     </g>
     <g id="text_15">
      <!-- 1.5 -->
      <g style="fill:#262626;" transform="translate(29.024688 25.66188)scale(0.11 -0.11)">
       <use xlink:href="#ArialMT-49"/>
       <use x="55.615234" xlink:href="#ArialMT-46"/>
       <use x="83.398438" xlink:href="#ArialMT-53"/>
      </g>
     </g>
    </g>
    <g id="text_16">
     <!-- $y$ (Position) -->
     <g style="fill:#262626;" transform="translate(15.96 146.52)rotate(-90)scale(0.12 -0.12)">
      <defs>
       <path d="M 24.8125 -5.078125 
Q 18.5625 -15.578125 14.625 -18.1875 
Q 10.6875 -20.796875 4.59375 -20.796875 
L -2.484375 -20.796875 
L -0.984375 -13.28125 
L 4.203125 -13.28125 
Q 7.953125 -13.28125 10.59375 -11.234375 
Q 13.234375 -9.1875 16.5 -3.21875 
L 19.28125 2 
L 7.171875 54.6875 
L 16.703125 54.6875 
L 25.78125 12.796875 
L 50.875 54.6875 
L 60.296875 54.6875 
z
" id="DejaVuSans-Oblique-121"/>
       <path d="M 7.71875 0 
L 7.71875 71.578125 
L 34.71875 71.578125 
Q 41.84375 71.578125 45.609375 70.90625 
Q 50.875 70.015625 54.4375 67.546875 
Q 58.015625 65.09375 60.1875 60.640625 
Q 62.359375 56.203125 62.359375 50.875 
Q 62.359375 41.75 56.546875 35.421875 
Q 50.734375 29.109375 35.546875 29.109375 
L 17.1875 29.109375 
L 17.1875 0 
z
M 17.1875 37.546875 
L 35.6875 37.546875 
Q 44.875 37.546875 48.734375 40.96875 
Q 52.59375 44.390625 52.59375 50.59375 
Q 52.59375 55.078125 50.3125 58.265625 
Q 48.046875 61.46875 44.34375 62.5 
Q 41.9375 63.140625 35.5 63.140625 
L 17.1875 63.140625 
z
" id="ArialMT-80"/>
       <path d="M 3.328125 25.921875 
Q 3.328125 40.328125 11.328125 47.265625 
Q 18.015625 53.03125 27.640625 53.03125 
Q 38.328125 53.03125 45.109375 46.015625 
Q 51.90625 39.015625 51.90625 26.65625 
Q 51.90625 16.65625 48.90625 10.90625 
Q 45.90625 5.171875 40.15625 2 
Q 34.421875 -1.171875 27.640625 -1.171875 
Q 16.75 -1.171875 10.03125 5.8125 
Q 3.328125 12.796875 3.328125 25.921875 
z
M 12.359375 25.921875 
Q 12.359375 15.96875 16.703125 11.015625 
Q 21.046875 6.0625 27.640625 6.0625 
Q 34.1875 6.0625 38.53125 11.03125 
Q 42.875 16.015625 42.875 26.21875 
Q 42.875 35.84375 38.5 40.796875 
Q 34.125 45.75 27.640625 45.75 
Q 21.046875 45.75 16.703125 40.8125 
Q 12.359375 35.890625 12.359375 25.921875 
z
" id="ArialMT-111"/>
       <path d="M 3.078125 15.484375 
L 11.765625 16.84375 
Q 12.5 11.625 15.84375 8.84375 
Q 19.1875 6.0625 25.203125 6.0625 
Q 31.25 6.0625 34.171875 8.515625 
Q 37.109375 10.984375 37.109375 14.3125 
Q 37.109375 17.28125 34.515625 19 
Q 32.71875 20.171875 25.53125 21.96875 
Q 15.875 24.421875 12.140625 26.203125 
Q 8.40625 27.984375 6.46875 31.125 
Q 4.546875 34.28125 4.546875 38.09375 
Q 4.546875 41.546875 6.125 44.5 
Q 7.71875 47.46875 10.453125 49.421875 
Q 12.5 50.921875 16.03125 51.96875 
Q 19.578125 53.03125 23.640625 53.03125 
Q 29.734375 53.03125 34.34375 51.265625 
Q 38.96875 49.515625 41.15625 46.5 
Q 43.359375 43.5 44.1875 38.484375 
L 35.59375 37.3125 
Q 35.015625 41.3125 32.203125 43.546875 
Q 29.390625 45.796875 24.265625 45.796875 
Q 18.21875 45.796875 15.625 43.796875 
Q 13.03125 41.796875 13.03125 39.109375 
Q 13.03125 37.40625 14.109375 36.03125 
Q 15.1875 34.625 17.484375 33.6875 
Q 18.796875 33.203125 25.25 31.453125 
Q 34.578125 28.953125 38.25 27.359375 
Q 41.9375 25.78125 44.03125 22.75 
Q 46.140625 19.734375 46.140625 15.234375 
Q 46.140625 10.84375 43.578125 6.953125 
Q 41.015625 3.078125 36.171875 0.953125 
Q 31.34375 -1.171875 25.25 -1.171875 
Q 15.140625 -1.171875 9.84375 3.03125 
Q 4.546875 7.234375 3.078125 15.484375 
z
" id="ArialMT-115"/>
       <path d="M 25.78125 7.859375 
L 27.046875 0.09375 
Q 23.34375 -0.6875 20.40625 -0.6875 
Q 15.625 -0.6875 12.984375 0.828125 
Q 10.359375 2.34375 9.28125 4.8125 
Q 8.203125 7.28125 8.203125 15.1875 
L 8.203125 45.015625 
L 1.765625 45.015625 
L 1.765625 51.859375 
L 8.203125 51.859375 
L 8.203125 64.703125 
L 16.9375 69.96875 
L 16.9375 51.859375 
L 25.78125 51.859375 
L 25.78125 45.015625 
L 16.9375 45.015625 
L 16.9375 14.703125 
Q 16.9375 10.9375 17.40625 9.859375 
Q 17.875 8.796875 18.921875 8.15625 
Q 19.96875 7.515625 21.921875 7.515625 
Q 23.390625 7.515625 25.78125 7.859375 
z
" id="ArialMT-116"/>
       <path d="M 6.59375 0 
L 6.59375 51.859375 
L 14.5 51.859375 
L 14.5 44.484375 
Q 20.21875 53.03125 31 53.03125 
Q 35.6875 53.03125 39.625 51.34375 
Q 43.5625 49.65625 45.515625 46.921875 
Q 47.46875 44.1875 48.25 40.4375 
Q 48.734375 37.984375 48.734375 31.890625 
L 48.734375 0 
L 39.9375 0 
L 39.9375 31.546875 
Q 39.9375 36.921875 38.90625 39.578125 
Q 37.890625 42.234375 35.28125 43.8125 
Q 32.671875 45.40625 29.15625 45.40625 
Q 23.53125 45.40625 19.453125 41.84375 
Q 15.375 38.28125 15.375 28.328125 
L 15.375 0 
z
" id="ArialMT-110"/>
      </defs>
      <use transform="translate(0 0.203125)" xlink:href="#DejaVuSans-Oblique-121"/>
      <use transform="translate(59.179688 0.203125)" xlink:href="#ArialMT-32"/>
      <use transform="translate(86.962891 0.203125)" xlink:href="#ArialMT-40"/>
      <use transform="translate(120.263672 0.203125)" xlink:href="#ArialMT-80"/>
      <use transform="translate(186.962891 0.203125)" xlink:href="#ArialMT-111"/>
      <use transform="translate(242.578125 0.203125)" xlink:href="#ArialMT-115"/>
      <use transform="translate(292.578125 0.203125)" xlink:href="#ArialMT-105"/>
      <use transform="translate(314.794922 0.203125)" xlink:href="#ArialMT-116"/>
      <use transform="translate(342.578125 0.203125)" xlink:href="#ArialMT-105"/>
      <use transform="translate(364.794922 0.203125)" xlink:href="#ArialMT-111"/>
      <use transform="translate(420.410156 0.203125)" xlink:href="#ArialMT-110"/>
      <use transform="translate(476.025391 0.203125)" xlink:href="#ArialMT-41"/>
     </g>
    </g>
   </g>
   <g id="line2d_15">
    <path clip-path="url(#p9e5bc795a7)" d="M 69.032869 21.725083 
L 72.107249 30.719123 
L 75.18163 53.578102 
L 78.25601 86.408977 
L 81.33039 123.869623 
L 84.40477 160.033739 
L 87.47915 189.32467 
L 90.55353 207.371606 
L 93.627911 211.657271 
L 96.702291 201.861902 
L 99.776671 179.857758 
L 102.851051 149.363779 
L 105.925431 115.32248 
L 108.999811 83.10268 
L 112.074192 57.656097 
L 115.148572 42.759781 
L 118.222952 40.459727 
L 121.297332 50.796927 
L 124.371712 71.851276 
L 127.446092 100.088538 
L 130.520473 130.948983 
L 133.594853 159.580317 
L 136.669233 181.597619 
L 139.743613 193.75174 
L 142.817993 194.404784 
L 145.892373 183.743762 
L 148.966754 163.705836 
L 152.041134 137.633995 
L 155.115514 109.723305 
L 158.189894 84.348885 
L 161.264274 65.382799 
L 164.338654 55.6061 
L 167.413035 56.30483 
L 170.487415 67.108025 
L 173.561795 86.086792 
L 176.636175 110.092534 
L 179.710555 135.275884 
L 182.784935 157.701316 
L 185.859316 173.959719 
L 188.933696 181.683959 
L 192.008076 179.889911 
L 195.082456 169.094435 
L 198.156836 151.197575 
L 201.231216 129.153196 
L 204.305597 106.484406 
L 207.379977 86.722849 
L 210.454357 72.860719 
L 213.528737 66.90019 
L 216.603117 69.567685 
L 219.677497 80.233189 
L 222.751878 97.041968 
L 225.826258 117.23294 
L 228.900638 137.589648 
L 231.975018 154.950558 
L 235.049398 166.698041 
L 238.123778 171.150742 
L 241.198159 167.800895 
L 244.272539 157.363657 
L 247.346919 141.635532 
L 250.421299 123.188622 
L 253.495679 104.952245 
L 256.570059 89.749635 
L 259.64444 79.862711 
L 262.71882 76.691712 
L 265.7932 80.560121 
L 268.86758 90.691479 
L 271.94196 105.357392 
L 275.01634 122.169468 
L 278.090721 138.466311 
L 281.165101 151.733151 
L 284.239481 159.98822 
L 287.313861 162.076763 
L 290.388241 157.829419 
L 293.462621 148.063785 
L 296.537002 134.432864 
L 299.611382 119.147741 
L 302.685762 104.620645 
L 305.760142 93.085768 
L 308.834522 86.257194 
L 311.908902 85.07608 
L 314.983283 89.584054 
L 318.057663 98.93931 
L 321.132043 111.569313 
L 324.206423 125.433028 
L 327.280803 138.34923 
L 330.355183 148.338332 
L 333.429564 153.92437 
L 336.503944 154.351308 
L 339.578324 149.682249 
L 342.652704 140.769119 
L 345.727084 129.100755 
L 348.801464 116.556018 
L 351.875845 105.102598 
L 354.950225 96.489597 
L 358.024605 91.981712 
L 361.098985 92.175226 
L 364.173365 96.922274 
L 367.247745 105.372432 
L 370.322126 116.122232 
L 373.396506 127.446704 
" style="fill:none;stroke:#4c72b0;stroke-linecap:round;stroke-width:1.5;"/>
   </g>
   <g id="line2d_16">
    <defs>
     <path d="M 0 1.5 
C 0.397805 1.5 0.77937 1.341951 1.06066 1.06066 
C 1.341951 0.77937 1.5 0.397805 1.5 0 
C 1.5 -0.397805 1.341951 -0.77937 1.06066 -1.06066 
C 0.77937 -1.341951 0.397805 -1.5 0 -1.5 
C -0.397805 -1.5 -0.77937 -1.341951 -1.06066 -1.06066 
C -1.341951 -0.77937 -1.5 -0.397805 -1.5 0 
C -1.5 0.397805 -1.341951 0.77937 -1.06066 1.06066 
C -0.77937 1.341951 -0.397805 1.5 0 1.5 
z
" id="m55f3fb6b24" style="stroke:#dd8452;"/>
    </defs>
    <g clip-path="url(#p9e5bc795a7)">
     <use style="fill:#dd8452;stroke:#dd8452;" x="69.032869" xlink:href="#m55f3fb6b24" y="17.083636"/>
     <use style="fill:#dd8452;stroke:#dd8452;" x="72.107249" xlink:href="#m55f3fb6b24" y="30.455246"/>
     <use style="fill:#dd8452;stroke:#dd8452;" x="75.18163" xlink:href="#m55f3fb6b24" y="56.461956"/>
     <use style="fill:#dd8452;stroke:#dd8452;" x="78.25601" xlink:href="#m55f3fb6b24" y="91.837035"/>
     <use style="fill:#dd8452;stroke:#dd8452;" x="81.33039" xlink:href="#m55f3fb6b24" y="125.377632"/>
     <use style="fill:#dd8452;stroke:#dd8452;" x="84.40477" xlink:href="#m55f3fb6b24" y="161.462375"/>
     <use style="fill:#dd8452;stroke:#dd8452;" x="87.47915" xlink:href="#m55f3fb6b24" y="190.747763"/>
     <use style="fill:#dd8452;stroke:#dd8452;" x="90.55353" xlink:href="#m55f3fb6b24" y="214.756364"/>
     <use style="fill:#dd8452;stroke:#dd8452;" x="93.627911" xlink:href="#m55f3fb6b24" y="203.563563"/>
     <use style="fill:#dd8452;stroke:#dd8452;" x="96.702291" xlink:href="#m55f3fb6b24" y="210.896215"/>
     <use style="fill:#dd8452;stroke:#dd8452;" x="99.776671" xlink:href="#m55f3fb6b24" y="178.779871"/>
     <use style="fill:#dd8452;stroke:#dd8452;" x="102.851051" xlink:href="#m55f3fb6b24" y="150.712657"/>
     <use style="fill:#dd8452;stroke:#dd8452;" x="105.925431" xlink:href="#m55f3fb6b24" y="113.505014"/>
     <use style="fill:#dd8452;stroke:#dd8452;" x="108.999811" xlink:href="#m55f3fb6b24" y="77.737099"/>
     <use style="fill:#dd8452;stroke:#dd8452;" x="112.074192" xlink:href="#m55f3fb6b24" y="52.154936"/>
     <use style="fill:#dd8452;stroke:#dd8452;" x="115.148572" xlink:href="#m55f3fb6b24" y="46.414874"/>
     <use style="fill:#dd8452;stroke:#dd8452;" x="118.222952" xlink:href="#m55f3fb6b24" y="48.379454"/>
     <use style="fill:#dd8452;stroke:#dd8452;" x="121.297332" xlink:href="#m55f3fb6b24" y="45.927616"/>
     <use style="fill:#dd8452;stroke:#dd8452;" x="124.371712" xlink:href="#m55f3fb6b24" y="82.961752"/>
     <use style="fill:#dd8452;stroke:#dd8452;" x="127.446092" xlink:href="#m55f3fb6b24" y="101.112226"/>
     <use style="fill:#dd8452;stroke:#dd8452;" x="130.520473" xlink:href="#m55f3fb6b24" y="129.675567"/>
     <use style="fill:#dd8452;stroke:#dd8452;" x="133.594853" xlink:href="#m55f3fb6b24" y="164.38817"/>
     <use style="fill:#dd8452;stroke:#dd8452;" x="136.669233" xlink:href="#m55f3fb6b24" y="190.526409"/>
     <use style="fill:#dd8452;stroke:#dd8452;" x="139.743613" xlink:href="#m55f3fb6b24" y="201.783642"/>
     <use style="fill:#dd8452;stroke:#dd8452;" x="142.817993" xlink:href="#m55f3fb6b24" y="195.316423"/>
     <use style="fill:#dd8452;stroke:#dd8452;" x="145.892373" xlink:href="#m55f3fb6b24" y="189.226506"/>
     <use style="fill:#dd8452;stroke:#dd8452;" x="148.966754" xlink:href="#m55f3fb6b24" y="162.247326"/>
     <use style="fill:#dd8452;stroke:#dd8452;" x="152.041134" xlink:href="#m55f3fb6b24" y="129.011538"/>
     <use style="fill:#dd8452;stroke:#dd8452;" x="155.115514" xlink:href="#m55f3fb6b24" y="110.258217"/>
     <use style="fill:#dd8452;stroke:#dd8452;" x="158.189894" xlink:href="#m55f3fb6b24" y="94.536576"/>
     <use style="fill:#dd8452;stroke:#dd8452;" x="161.264274" xlink:href="#m55f3fb6b24" y="70.617411"/>
     <use style="fill:#dd8452;stroke:#dd8452;" x="164.338654" xlink:href="#m55f3fb6b24" y="62.456811"/>
     <use style="fill:#dd8452;stroke:#dd8452;" x="167.413035" xlink:href="#m55f3fb6b24" y="60.929194"/>
     <use style="fill:#dd8452;stroke:#dd8452;" x="170.487415" xlink:href="#m55f3fb6b24" y="69.050746"/>
     <use style="fill:#dd8452;stroke:#dd8452;" x="173.561795" xlink:href="#m55f3fb6b24" y="78.285617"/>
     <use style="fill:#dd8452;stroke:#dd8452;" x="176.636175" xlink:href="#m55f3fb6b24" y="105.726571"/>
     <use style="fill:#dd8452;stroke:#dd8452;" x="179.710555" xlink:href="#m55f3fb6b24" y="143.641254"/>
     <use style="fill:#dd8452;stroke:#dd8452;" x="182.784935" xlink:href="#m55f3fb6b24" y="159.75832"/>
     <use style="fill:#dd8452;stroke:#dd8452;" x="185.859316" xlink:href="#m55f3fb6b24" y="175.393398"/>
     <use style="fill:#dd8452;stroke:#dd8452;" x="188.933696" xlink:href="#m55f3fb6b24" y="191.660194"/>
     <use style="fill:#dd8452;stroke:#dd8452;" x="192.008076" xlink:href="#m55f3fb6b24" y="172.602516"/>
     <use style="fill:#dd8452;stroke:#dd8452;" x="195.082456" xlink:href="#m55f3fb6b24" y="170.896074"/>
     <use style="fill:#dd8452;stroke:#dd8452;" x="198.156836" xlink:href="#m55f3fb6b24" y="151.228374"/>
     <use style="fill:#dd8452;stroke:#dd8452;" x="201.231216" xlink:href="#m55f3fb6b24" y="115.389308"/>
     <use style="fill:#dd8452;stroke:#dd8452;" x="204.305597" xlink:href="#m55f3fb6b24" y="119.552119"/>
     <use style="fill:#dd8452;stroke:#dd8452;" x="207.379977" xlink:href="#m55f3fb6b24" y="85.53033"/>
     <use style="fill:#dd8452;stroke:#dd8452;" x="210.454357" xlink:href="#m55f3fb6b24" y="82.822166"/>
     <use style="fill:#dd8452;stroke:#dd8452;" x="213.528737" xlink:href="#m55f3fb6b24" y="70.141715"/>
     <use style="fill:#dd8452;stroke:#dd8452;" x="216.603117" xlink:href="#m55f3fb6b24" y="78.55559"/>
     <use style="fill:#dd8452;stroke:#dd8452;" x="219.677497" xlink:href="#m55f3fb6b24" y="75.258502"/>
     <use style="fill:#dd8452;stroke:#dd8452;" x="222.751878" xlink:href="#m55f3fb6b24" y="96.329038"/>
     <use style="fill:#dd8452;stroke:#dd8452;" x="225.826258" xlink:href="#m55f3fb6b24" y="112.453092"/>
     <use style="fill:#dd8452;stroke:#dd8452;" x="228.900638" xlink:href="#m55f3fb6b24" y="142.263854"/>
     <use style="fill:#dd8452;stroke:#dd8452;" x="231.975018" xlink:href="#m55f3fb6b24" y="161.418508"/>
     <use style="fill:#dd8452;stroke:#dd8452;" x="235.049398" xlink:href="#m55f3fb6b24" y="171.064928"/>
     <use style="fill:#dd8452;stroke:#dd8452;" x="238.123778" xlink:href="#m55f3fb6b24" y="171.891406"/>
     <use style="fill:#dd8452;stroke:#dd8452;" x="241.198159" xlink:href="#m55f3fb6b24" y="154.855863"/>
     <use style="fill:#dd8452;stroke:#dd8452;" x="244.272539" xlink:href="#m55f3fb6b24" y="159.098811"/>
     <use style="fill:#dd8452;stroke:#dd8452;" x="247.346919" xlink:href="#m55f3fb6b24" y="144.39625"/>
     <use style="fill:#dd8452;stroke:#dd8452;" x="250.421299" xlink:href="#m55f3fb6b24" y="126.924073"/>
     <use style="fill:#dd8452;stroke:#dd8452;" x="253.495679" xlink:href="#m55f3fb6b24" y="114.769564"/>
     <use style="fill:#dd8452;stroke:#dd8452;" x="256.570059" xlink:href="#m55f3fb6b24" y="88.855041"/>
     <use style="fill:#dd8452;stroke:#dd8452;" x="259.64444" xlink:href="#m55f3fb6b24" y="70.362264"/>
     <use style="fill:#dd8452;stroke:#dd8452;" x="262.71882" xlink:href="#m55f3fb6b24" y="77.873523"/>
     <use style="fill:#dd8452;stroke:#dd8452;" x="265.7932" xlink:href="#m55f3fb6b24" y="92.228011"/>
     <use style="fill:#dd8452;stroke:#dd8452;" x="268.86758" xlink:href="#m55f3fb6b24" y="87.299107"/>
     <use style="fill:#dd8452;stroke:#dd8452;" x="271.94196" xlink:href="#m55f3fb6b24" y="115.275698"/>
     <use style="fill:#dd8452;stroke:#dd8452;" x="275.01634" xlink:href="#m55f3fb6b24" y="123.76586"/>
     <use style="fill:#dd8452;stroke:#dd8452;" x="278.090721" xlink:href="#m55f3fb6b24" y="138.29379"/>
     <use style="fill:#dd8452;stroke:#dd8452;" x="281.165101" xlink:href="#m55f3fb6b24" y="145.091212"/>
     <use style="fill:#dd8452;stroke:#dd8452;" x="284.239481" xlink:href="#m55f3fb6b24" y="154.362453"/>
     <use style="fill:#dd8452;stroke:#dd8452;" x="287.313861" xlink:href="#m55f3fb6b24" y="162.422172"/>
     <use style="fill:#dd8452;stroke:#dd8452;" x="290.388241" xlink:href="#m55f3fb6b24" y="150.944485"/>
     <use style="fill:#dd8452;stroke:#dd8452;" x="293.462621" xlink:href="#m55f3fb6b24" y="154.951763"/>
     <use style="fill:#dd8452;stroke:#dd8452;" x="296.537002" xlink:href="#m55f3fb6b24" y="125.67781"/>
     <use style="fill:#dd8452;stroke:#dd8452;" x="299.611382" xlink:href="#m55f3fb6b24" y="126.859732"/>
     <use style="fill:#dd8452;stroke:#dd8452;" x="302.685762" xlink:href="#m55f3fb6b24" y="104.081896"/>
     <use style="fill:#dd8452;stroke:#dd8452;" x="305.760142" xlink:href="#m55f3fb6b24" y="95.247484"/>
     <use style="fill:#dd8452;stroke:#dd8452;" x="308.834522" xlink:href="#m55f3fb6b24" y="84.661717"/>
     <use style="fill:#dd8452;stroke:#dd8452;" x="311.908902" xlink:href="#m55f3fb6b24" y="72.802135"/>
     <use style="fill:#dd8452;stroke:#dd8452;" x="314.983283" xlink:href="#m55f3fb6b24" y="85.744634"/>
     <use style="fill:#dd8452;stroke:#dd8452;" x="318.057663" xlink:href="#m55f3fb6b24" y="102.991105"/>
     <use style="fill:#dd8452;stroke:#dd8452;" x="321.132043" xlink:href="#m55f3fb6b24" y="110.325563"/>
     <use style="fill:#dd8452;stroke:#dd8452;" x="324.206423" xlink:href="#m55f3fb6b24" y="136.44603"/>
     <use style="fill:#dd8452;stroke:#dd8452;" x="327.280803" xlink:href="#m55f3fb6b24" y="146.826332"/>
     <use style="fill:#dd8452;stroke:#dd8452;" x="330.355183" xlink:href="#m55f3fb6b24" y="146.752116"/>
     <use style="fill:#dd8452;stroke:#dd8452;" x="333.429564" xlink:href="#m55f3fb6b24" y="151.673258"/>
     <use style="fill:#dd8452;stroke:#dd8452;" x="336.503944" xlink:href="#m55f3fb6b24" y="159.563159"/>
     <use style="fill:#dd8452;stroke:#dd8452;" x="339.578324" xlink:href="#m55f3fb6b24" y="143.663324"/>
     <use style="fill:#dd8452;stroke:#dd8452;" x="342.652704" xlink:href="#m55f3fb6b24" y="140.572669"/>
     <use style="fill:#dd8452;stroke:#dd8452;" x="345.727084" xlink:href="#m55f3fb6b24" y="123.226316"/>
     <use style="fill:#dd8452;stroke:#dd8452;" x="348.801464" xlink:href="#m55f3fb6b24" y="123.246688"/>
     <use style="fill:#dd8452;stroke:#dd8452;" x="351.875845" xlink:href="#m55f3fb6b24" y="96.163697"/>
     <use style="fill:#dd8452;stroke:#dd8452;" x="354.950225" xlink:href="#m55f3fb6b24" y="99.167596"/>
     <use style="fill:#dd8452;stroke:#dd8452;" x="358.024605" xlink:href="#m55f3fb6b24" y="91.776007"/>
     <use style="fill:#dd8452;stroke:#dd8452;" x="361.098985" xlink:href="#m55f3fb6b24" y="96.668384"/>
     <use style="fill:#dd8452;stroke:#dd8452;" x="364.173365" xlink:href="#m55f3fb6b24" y="102.217279"/>
     <use style="fill:#dd8452;stroke:#dd8452;" x="367.247745" xlink:href="#m55f3fb6b24" y="108.923339"/>
     <use style="fill:#dd8452;stroke:#dd8452;" x="370.322126" xlink:href="#m55f3fb6b24" y="117.7587"/>
     <use style="fill:#dd8452;stroke:#dd8452;" x="373.396506" xlink:href="#m55f3fb6b24" y="132.432006"/>
    </g>
   </g>
   <g id="patch_3">
    <path d="M 53.814688 224.64 
L 53.814688 7.2 
" style="fill:none;stroke:#262626;stroke-linecap:square;stroke-linejoin:miter;stroke-width:1.25;"/>
   </g>
   <g id="patch_4">
    <path d="M 388.614688 224.64 
L 388.614688 7.2 
" style="fill:none;stroke:#262626;stroke-linecap:square;stroke-linejoin:miter;stroke-width:1.25;"/>
   </g>
   <g id="patch_5">
    <path d="M 53.814688 224.64 
L 388.614688 224.64 
" style="fill:none;stroke:#262626;stroke-linecap:square;stroke-linejoin:miter;stroke-width:1.25;"/>
   </g>
   <g id="patch_6">
    <path d="M 53.814688 7.2 
L 388.614688 7.2 
" style="fill:none;stroke:#262626;stroke-linecap:square;stroke-linejoin:miter;stroke-width:1.25;"/>
   </g>
   <g id="legend_1">
    <g id="patch_7">
     <path d="M 194.710469 47.382656 
L 380.914688 47.382656 
Q 383.114688 47.382656 383.114688 45.182656 
L 383.114688 14.9 
Q 383.114688 12.7 380.914688 12.7 
L 194.710469 12.7 
Q 192.510469 12.7 192.510469 14.9 
L 192.510469 45.182656 
Q 192.510469 47.382656 194.710469 47.382656 
z
" style="fill:#ffffff;opacity:0.8;stroke:#cccccc;stroke-linejoin:miter;"/>
    </g>
    <g id="line2d_17">
     <path d="M 196.910469 21.123594 
L 218.910469 21.123594 
" style="fill:none;stroke:#4c72b0;stroke-linecap:round;stroke-width:1.5;"/>
    </g>
    <g id="line2d_18"/>
    <g id="text_17">
     <!-- Unobserved true position -->
     <g style="fill:#262626;" transform="translate(227.710469 24.973594)scale(0.11 -0.11)">
      <defs>
       <path d="M 54.6875 71.578125 
L 64.15625 71.578125 
L 64.15625 30.21875 
Q 64.15625 19.4375 61.71875 13.078125 
Q 59.28125 6.734375 52.90625 2.75 
Q 46.53125 -1.21875 36.1875 -1.21875 
Q 26.125 -1.21875 19.71875 2.25 
Q 13.328125 5.71875 10.59375 12.28125 
Q 7.859375 18.84375 7.859375 30.21875 
L 7.859375 71.578125 
L 17.328125 71.578125 
L 17.328125 30.28125 
Q 17.328125 20.953125 19.0625 16.53125 
Q 20.796875 12.109375 25.015625 9.71875 
Q 29.25 7.328125 35.359375 7.328125 
Q 45.796875 7.328125 50.234375 12.0625 
Q 54.6875 16.796875 54.6875 30.28125 
z
" id="ArialMT-85"/>
       <path d="M 14.703125 0 
L 6.546875 0 
L 6.546875 71.578125 
L 15.328125 71.578125 
L 15.328125 46.046875 
Q 20.90625 53.03125 29.546875 53.03125 
Q 34.328125 53.03125 38.59375 51.09375 
Q 42.875 49.171875 45.625 45.671875 
Q 48.390625 42.1875 49.953125 37.25 
Q 51.515625 32.328125 51.515625 26.703125 
Q 51.515625 13.375 44.921875 6.09375 
Q 38.328125 -1.171875 29.109375 -1.171875 
Q 19.921875 -1.171875 14.703125 6.5 
z
M 14.59375 26.3125 
Q 14.59375 17 17.140625 12.84375 
Q 21.296875 6.0625 28.375 6.0625 
Q 34.125 6.0625 38.328125 11.0625 
Q 42.53125 16.0625 42.53125 25.984375 
Q 42.53125 36.140625 38.5 40.96875 
Q 34.46875 45.796875 28.765625 45.796875 
Q 23 45.796875 18.796875 40.796875 
Q 14.59375 35.796875 14.59375 26.3125 
z
" id="ArialMT-98"/>
       <path d="M 6.5 0 
L 6.5 51.859375 
L 14.40625 51.859375 
L 14.40625 44 
Q 17.4375 49.515625 20 51.265625 
Q 22.5625 53.03125 25.640625 53.03125 
Q 30.078125 53.03125 34.671875 50.203125 
L 31.640625 42.046875 
Q 28.421875 43.953125 25.203125 43.953125 
Q 22.3125 43.953125 20.015625 42.21875 
Q 17.71875 40.484375 16.75 37.40625 
Q 15.28125 32.71875 15.28125 27.15625 
L 15.28125 0 
z
" id="ArialMT-114"/>
       <path d="M 21 0 
L 1.265625 51.859375 
L 10.546875 51.859375 
L 21.6875 20.796875 
Q 23.484375 15.765625 25 10.359375 
Q 26.171875 14.453125 28.265625 20.21875 
L 39.796875 51.859375 
L 48.828125 51.859375 
L 29.203125 0 
z
" id="ArialMT-118"/>
       <path d="M 40.234375 0 
L 40.234375 6.546875 
Q 35.296875 -1.171875 25.734375 -1.171875 
Q 19.53125 -1.171875 14.328125 2.25 
Q 9.125 5.671875 6.265625 11.796875 
Q 3.421875 17.921875 3.421875 25.875 
Q 3.421875 33.640625 6 39.96875 
Q 8.59375 46.296875 13.765625 49.65625 
Q 18.953125 53.03125 25.34375 53.03125 
Q 30.03125 53.03125 33.6875 51.046875 
Q 37.359375 49.078125 39.65625 45.90625 
L 39.65625 71.578125 
L 48.390625 71.578125 
L 48.390625 0 
z
M 12.453125 25.875 
Q 12.453125 15.921875 16.640625 10.984375 
Q 20.84375 6.0625 26.5625 6.0625 
Q 32.328125 6.0625 36.34375 10.765625 
Q 40.375 15.484375 40.375 25.140625 
Q 40.375 35.796875 36.265625 40.765625 
Q 32.171875 45.75 26.171875 45.75 
Q 20.3125 45.75 16.375 40.96875 
Q 12.453125 36.1875 12.453125 25.875 
z
" id="ArialMT-100"/>
       <path d="M 40.578125 0 
L 40.578125 7.625 
Q 34.515625 -1.171875 24.125 -1.171875 
Q 19.53125 -1.171875 15.546875 0.578125 
Q 11.578125 2.34375 9.640625 5 
Q 7.71875 7.671875 6.9375 11.53125 
Q 6.390625 14.109375 6.390625 19.734375 
L 6.390625 51.859375 
L 15.1875 51.859375 
L 15.1875 23.09375 
Q 15.1875 16.21875 15.71875 13.8125 
Q 16.546875 10.359375 19.234375 8.375 
Q 21.921875 6.390625 25.875 6.390625 
Q 29.828125 6.390625 33.296875 8.421875 
Q 36.765625 10.453125 38.203125 13.9375 
Q 39.65625 17.4375 39.65625 24.078125 
L 39.65625 51.859375 
L 48.4375 51.859375 
L 48.4375 0 
z
" id="ArialMT-117"/>
       <path d="M 6.59375 -19.875 
L 6.59375 51.859375 
L 14.59375 51.859375 
L 14.59375 45.125 
Q 17.4375 49.078125 21 51.046875 
Q 24.5625 53.03125 29.640625 53.03125 
Q 36.28125 53.03125 41.359375 49.609375 
Q 46.4375 46.1875 49.015625 39.953125 
Q 51.609375 33.734375 51.609375 26.3125 
Q 51.609375 18.359375 48.75 11.984375 
Q 45.90625 5.609375 40.453125 2.21875 
Q 35.015625 -1.171875 29 -1.171875 
Q 24.609375 -1.171875 21.109375 0.6875 
Q 17.625 2.546875 15.375 5.375 
L 15.375 -19.875 
z
M 14.546875 25.640625 
Q 14.546875 15.625 18.59375 10.84375 
Q 22.65625 6.0625 28.421875 6.0625 
Q 34.28125 6.0625 38.453125 11.015625 
Q 42.625 15.96875 42.625 26.375 
Q 42.625 36.28125 38.546875 41.203125 
Q 34.46875 46.140625 28.8125 46.140625 
Q 23.1875 46.140625 18.859375 40.890625 
Q 14.546875 35.640625 14.546875 25.640625 
z
" id="ArialMT-112"/>
      </defs>
      <use xlink:href="#ArialMT-85"/>
      <use x="72.216797" xlink:href="#ArialMT-110"/>
      <use x="127.832031" xlink:href="#ArialMT-111"/>
      <use x="183.447266" xlink:href="#ArialMT-98"/>
      <use x="239.0625" xlink:href="#ArialMT-115"/>
      <use x="289.0625" xlink:href="#ArialMT-101"/>
      <use x="344.677734" xlink:href="#ArialMT-114"/>
      <use x="377.978516" xlink:href="#ArialMT-118"/>
      <use x="427.978516" xlink:href="#ArialMT-101"/>
      <use x="483.59375" xlink:href="#ArialMT-100"/>
      <use x="539.208984" xlink:href="#ArialMT-32"/>
      <use x="566.992188" xlink:href="#ArialMT-116"/>
      <use x="594.775391" xlink:href="#ArialMT-114"/>
      <use x="628.076172" xlink:href="#ArialMT-117"/>
      <use x="683.691406" xlink:href="#ArialMT-101"/>
      <use x="739.306641" xlink:href="#ArialMT-32"/>
      <use x="767.089844" xlink:href="#ArialMT-112"/>
      <use x="822.705078" xlink:href="#ArialMT-111"/>
      <use x="878.320312" xlink:href="#ArialMT-115"/>
      <use x="928.320312" xlink:href="#ArialMT-105"/>
      <use x="950.537109" xlink:href="#ArialMT-116"/>
      <use x="978.320312" xlink:href="#ArialMT-105"/>
      <use x="1000.537109" xlink:href="#ArialMT-111"/>
      <use x="1056.152344" xlink:href="#ArialMT-110"/>
     </g>
    </g>
    <g id="line2d_19"/>
    <g id="line2d_20">
     <g>
      <use style="fill:#dd8452;stroke:#dd8452;" x="207.910469" xlink:href="#m55f3fb6b24" y="36.8175"/>
     </g>
    </g>
    <g id="text_18">
     <!-- Noisy measurement of position -->
     <g style="fill:#262626;" transform="translate(227.710469 40.6675)scale(0.11 -0.11)">
      <defs>
       <path d="M 7.625 0 
L 7.625 71.578125 
L 17.328125 71.578125 
L 54.9375 15.375 
L 54.9375 71.578125 
L 64.015625 71.578125 
L 64.015625 0 
L 54.296875 0 
L 16.703125 56.25 
L 16.703125 0 
z
" id="ArialMT-78"/>
       <path d="M 6.203125 -19.96875 
L 5.21875 -11.71875 
Q 8.109375 -12.5 10.25 -12.5 
Q 13.1875 -12.5 14.9375 -11.515625 
Q 16.703125 -10.546875 17.828125 -8.796875 
Q 18.65625 -7.46875 20.515625 -2.25 
Q 20.75 -1.515625 21.296875 -0.09375 
L 1.609375 51.859375 
L 11.078125 51.859375 
L 21.875 21.828125 
Q 23.96875 16.109375 25.640625 9.8125 
Q 27.15625 15.875 29.25 21.625 
L 40.328125 51.859375 
L 49.125 51.859375 
L 29.390625 -0.875 
Q 26.21875 -9.421875 24.46875 -12.640625 
Q 22.125 -17 19.09375 -19.015625 
Q 16.0625 -21.046875 11.859375 -21.046875 
Q 9.328125 -21.046875 6.203125 -19.96875 
z
" id="ArialMT-121"/>
       <path d="M 40.4375 6.390625 
Q 35.546875 2.25 31.03125 0.53125 
Q 26.515625 -1.171875 21.34375 -1.171875 
Q 12.796875 -1.171875 8.203125 3 
Q 3.609375 7.171875 3.609375 13.671875 
Q 3.609375 17.484375 5.34375 20.625 
Q 7.078125 23.78125 9.890625 25.6875 
Q 12.703125 27.59375 16.21875 28.5625 
Q 18.796875 29.25 24.03125 29.890625 
Q 34.671875 31.15625 39.703125 32.90625 
Q 39.75 34.71875 39.75 35.203125 
Q 39.75 40.578125 37.25 42.78125 
Q 33.890625 45.75 27.25 45.75 
Q 21.046875 45.75 18.09375 43.578125 
Q 15.140625 41.40625 13.71875 35.890625 
L 5.125 37.0625 
Q 6.296875 42.578125 8.984375 45.96875 
Q 11.671875 49.359375 16.75 51.1875 
Q 21.828125 53.03125 28.515625 53.03125 
Q 35.15625 53.03125 39.296875 51.46875 
Q 43.453125 49.90625 45.40625 47.53125 
Q 47.359375 45.171875 48.140625 41.546875 
Q 48.578125 39.3125 48.578125 33.453125 
L 48.578125 21.734375 
Q 48.578125 9.46875 49.140625 6.21875 
Q 49.703125 2.984375 51.375 0 
L 42.1875 0 
Q 40.828125 2.734375 40.4375 6.390625 
z
M 39.703125 26.03125 
Q 34.90625 24.078125 25.34375 22.703125 
Q 19.921875 21.921875 17.671875 20.9375 
Q 15.4375 19.96875 14.203125 18.09375 
Q 12.984375 16.21875 12.984375 13.921875 
Q 12.984375 10.40625 15.640625 8.0625 
Q 18.3125 5.71875 23.4375 5.71875 
Q 28.515625 5.71875 32.46875 7.9375 
Q 36.421875 10.15625 38.28125 14.015625 
Q 39.703125 17 39.703125 22.796875 
z
" id="ArialMT-97"/>
       <path d="M 8.6875 0 
L 8.6875 45.015625 
L 0.921875 45.015625 
L 0.921875 51.859375 
L 8.6875 51.859375 
L 8.6875 57.375 
Q 8.6875 62.59375 9.625 65.140625 
Q 10.890625 68.5625 14.078125 70.671875 
Q 17.28125 72.796875 23.046875 72.796875 
Q 26.765625 72.796875 31.25 71.921875 
L 29.9375 64.265625 
Q 27.203125 64.75 24.75 64.75 
Q 20.75 64.75 19.09375 63.03125 
Q 17.4375 61.328125 17.4375 56.640625 
L 17.4375 51.859375 
L 27.546875 51.859375 
L 27.546875 45.015625 
L 17.4375 45.015625 
L 17.4375 0 
z
" id="ArialMT-102"/>
      </defs>
      <use xlink:href="#ArialMT-78"/>
      <use x="72.216797" xlink:href="#ArialMT-111"/>
      <use x="127.832031" xlink:href="#ArialMT-105"/>
      <use x="150.048828" xlink:href="#ArialMT-115"/>
      <use x="200.048828" xlink:href="#ArialMT-121"/>
      <use x="250.048828" xlink:href="#ArialMT-32"/>
      <use x="277.832031" xlink:href="#ArialMT-109"/>
      <use x="361.132812" xlink:href="#ArialMT-101"/>
      <use x="416.748047" xlink:href="#ArialMT-97"/>
      <use x="472.363281" xlink:href="#ArialMT-115"/>
      <use x="522.363281" xlink:href="#ArialMT-117"/>
      <use x="577.978516" xlink:href="#ArialMT-114"/>
      <use x="611.279297" xlink:href="#ArialMT-101"/>
      <use x="666.894531" xlink:href="#ArialMT-109"/>
      <use x="750.195312" xlink:href="#ArialMT-101"/>
      <use x="805.810547" xlink:href="#ArialMT-110"/>
      <use x="861.425781" xlink:href="#ArialMT-116"/>
      <use x="889.208984" xlink:href="#ArialMT-32"/>
      <use x="916.992188" xlink:href="#ArialMT-111"/>
      <use x="972.607422" xlink:href="#ArialMT-102"/>
      <use x="1000.390625" xlink:href="#ArialMT-32"/>
      <use x="1028.173828" xlink:href="#ArialMT-112"/>
      <use x="1083.789062" xlink:href="#ArialMT-111"/>
      <use x="1139.404297" xlink:href="#ArialMT-115"/>
      <use x="1189.404297" xlink:href="#ArialMT-105"/>
      <use x="1211.621094" xlink:href="#ArialMT-116"/>
      <use x="1239.404297" xlink:href="#ArialMT-105"/>
      <use x="1261.621094" xlink:href="#ArialMT-111"/>
      <use x="1317.236328" xlink:href="#ArialMT-110"/>
     </g>
    </g>
   </g>
  </g>
 </g>
 <defs>
  <clipPath id="p9e5bc795a7">
   <rect height="217.44" width="334.8" x="53.814688" y="7.2"/>
  </clipPath>
 </defs>
</svg>