<?xml version="1.0" encoding="utf-8" standalone="no"?>
<!DOCTYPE svg PUBLIC "-//W3C//DTD SVG 1.1//EN"
  "http://www.w3.org/Graphics/SVG/1.1/DTD/svg11.dtd">
<!-- Created with matplotlib (https://matplotlib.org/) -->
<svg height="266.374219pt" version="1.1" viewBox="0 0 398.450156 266.374219" width="398.450156pt" xmlns="http://www.w3.org/2000/svg" xmlns:xlink="http://www.w3.org/1999/xlink">
 <metadata>
  <rdf:RDF xmlns:cc="http://creativecommons.org/ns#" xmlns:dc="http://purl.org/dc/elements/1.1/" xmlns:rdf="http://www.w3.org/1999/02/22-rdf-syntax-ns#">
   <cc:Work>
    <dc:type rdf:resource="http://purl.org/dc/dcmitype/StillImage"/>
    <dc:date>2021-08-03T16:51:12.196295</dc:date>
    <dc:format>image/svg+xml</dc:format>
    <dc:creator>
     <cc:Agent>
      <dc:title>Matplotlib v3.3.4, https://matplotlib.org/</dc:title>
     </cc:Agent>
    </dc:creator>
   </cc:Work>
  </rdf:RDF>
 </metadata>
 <defs>
  <style type="text/css">*{stroke-linecap:butt;stroke-linejoin:round;}</style>
 </defs>
 <g id="figure_1">
  <g id="patch_1">
   <path d="M 0 266.374219 
L 398.450156 266.374219 
L 398.450156 0 
L 0 0 
z
" style="fill:#ffffff;"/>
  </g>
  <g id="axes_1">
   <g id="patch_2">
    <path d="M 56.450156 224.64 
L 391.250156 224.64 
L 391.250156 7.2 
L 56.450156 7.2 
z
" style="fill:#ffffff;"/>
   </g>
   <g id="matplotlib.axis_1">
    <g id="xtick_1">
     <g id="line2d_1">
      <defs>
       <path d="M 0 0 
L 0 6 
" id="m5de2920c15" style="stroke:#262626;stroke-width:1.25;"/>
      </defs>
      <g>
       <use style="fill:#262626;stroke:#262626;stroke-width:1.25;" x="71.668338" xlink:href="#m5de2920c15" y="224.64"/>
      </g>
     </g>
     <g id="text_1">
      <!-- 0 -->
      <g style="fill:#262626;" transform="translate(68.609822 242.013594)scale(0.11 -0.11)">
       <defs>
        <path d="M 4.15625 35.296875 
Q 4.15625 48 6.765625 55.734375 
Q 9.375 63.484375 14.515625 67.671875 
Q 19.671875 71.875 27.484375 71.875 
Q 33.25 71.875 37.59375 69.546875 
Q 41.9375 67.234375 44.765625 62.859375 
Q 47.609375 58.5 49.21875 52.21875 
Q 50.828125 45.953125 50.828125 35.296875 
Q 50.828125 22.703125 48.234375 14.96875 
Q 45.65625 7.234375 40.5 3 
Q 35.359375 -1.21875 27.484375 -1.21875 
Q 17.140625 -1.21875 11.234375 6.203125 
Q 4.15625 15.140625 4.15625 35.296875 
z
M 13.1875 35.296875 
Q 13.1875 17.671875 17.3125 11.828125 
Q 21.4375 6 27.484375 6 
Q 33.546875 6 37.671875 11.859375 
Q 41.796875 17.71875 41.796875 35.296875 
Q 41.796875 52.984375 37.671875 58.78125 
Q 33.546875 64.59375 27.390625 64.59375 
Q 21.34375 64.59375 17.71875 59.46875 
Q 13.1875 52.9375 13.1875 35.296875 
z
" id="ArialMT-48"/>
       </defs>
       <use xlink:href="#ArialMT-48"/>
      </g>
     </g>
    </g>
    <g id="xtick_2">
     <g id="line2d_2">
      <g>
       <use style="fill:#262626;stroke:#262626;stroke-width:1.25;" x="122.395611" xlink:href="#m5de2920c15" y="224.64"/>
      </g>
     </g>
     <g id="text_2">
      <!-- 10 -->
      <g style="fill:#262626;" transform="translate(116.27858 242.013594)scale(0.11 -0.11)">
       <defs>
        <path d="M 37.25 0 
L 28.46875 0 
L 28.46875 56 
Q 25.296875 52.984375 20.140625 49.953125 
Q 14.984375 46.921875 10.890625 45.40625 
L 10.890625 53.90625 
Q 18.265625 57.375 23.78125 62.296875 
Q 29.296875 67.234375 31.59375 71.875 
L 37.25 71.875 
z
" id="ArialMT-49"/>
       </defs>
       <use xlink:href="#ArialMT-49"/>
       <use x="55.615234" xlink:href="#ArialMT-48"/>
      </g>
     </g>
    </g>
    <g id="xtick_3">
     <g id="line2d_3">
      <g>
       <use style="fill:#262626;stroke:#262626;stroke-width:1.25;" x="173.122884" xlink:href="#m5de2920c15" y="224.64"/>
      </g>
     </g>
     <g id="text_3">
      <!-- 20 -->
      <g style="fill:#262626;" transform="translate(167.005852 242.013594)scale(0.11 -0.11)">
       <defs>
        <path d="M 50.34375 8.453125 
L 50.34375 0 
L 3.03125 0 
Q 2.9375 3.171875 4.046875 6.109375 
Q 5.859375 10.9375 9.828125 15.625 
Q 13.8125 20.3125 21.34375 26.46875 
Q 33.015625 36.03125 37.109375 41.625 
Q 41.21875 47.21875 41.21875 52.203125 
Q 41.21875 57.421875 37.46875 61 
Q 33.734375 64.59375 27.734375 64.59375 
Q 21.390625 64.59375 17.578125 60.78125 
Q 13.765625 56.984375 13.71875 50.25 
L 4.6875 51.171875 
Q 5.609375 61.28125 11.65625 66.578125 
Q 17.71875 71.875 27.9375 71.875 
Q 38.234375 71.875 44.234375 66.15625 
Q 50.25 60.453125 50.25 52 
Q 50.25 47.703125 48.484375 43.546875 
Q 46.734375 39.40625 42.65625 34.8125 
Q 38.578125 30.21875 29.109375 22.21875 
Q 21.1875 15.578125 18.9375 13.203125 
Q 16.703125 10.84375 15.234375 8.453125 
z
" id="ArialMT-50"/>
       </defs>
       <use xlink:href="#ArialMT-50"/>
       <use x="55.615234" xlink:href="#ArialMT-48"/>
      </g>
     </g>
    </g>
    <g id="xtick_4">
     <g id="line2d_4">
      <g>
       <use style="fill:#262626;stroke:#262626;stroke-width:1.25;" x="223.850156" xlink:href="#m5de2920c15" y="224.64"/>
      </g>
     </g>
     <g id="text_4">
      <!-- 30 -->
      <g style="fill:#262626;" transform="translate(217.733125 242.013594)scale(0.11 -0.11)">
       <defs>
        <path d="M 4.203125 18.890625 
L 12.984375 20.0625 
Q 14.5 12.59375 18.140625 9.296875 
Q 21.78125 6 27 6 
Q 33.203125 6 37.46875 10.296875 
Q 41.75 14.59375 41.75 20.953125 
Q 41.75 27 37.796875 30.921875 
Q 33.84375 34.859375 27.734375 34.859375 
Q 25.25 34.859375 21.53125 33.890625 
L 22.515625 41.609375 
Q 23.390625 41.5 23.921875 41.5 
Q 29.546875 41.5 34.03125 44.421875 
Q 38.53125 47.359375 38.53125 53.46875 
Q 38.53125 58.296875 35.25 61.46875 
Q 31.984375 64.65625 26.8125 64.65625 
Q 21.6875 64.65625 18.265625 61.421875 
Q 14.84375 58.203125 13.875 51.765625 
L 5.078125 53.328125 
Q 6.6875 62.15625 12.390625 67.015625 
Q 18.109375 71.875 26.609375 71.875 
Q 32.46875 71.875 37.390625 69.359375 
Q 42.328125 66.84375 44.9375 62.5 
Q 47.5625 58.15625 47.5625 53.265625 
Q 47.5625 48.640625 45.0625 44.828125 
Q 42.578125 41.015625 37.703125 38.765625 
Q 44.046875 37.3125 47.5625 32.6875 
Q 51.078125 28.078125 51.078125 21.140625 
Q 51.078125 11.765625 44.234375 5.25 
Q 37.40625 -1.265625 26.953125 -1.265625 
Q 17.53125 -1.265625 11.296875 4.34375 
Q 5.078125 9.96875 4.203125 18.890625 
z
" id="ArialMT-51"/>
       </defs>
       <use xlink:href="#ArialMT-51"/>
       <use x="55.615234" xlink:href="#ArialMT-48"/>
      </g>
     </g>
    </g>
    <g id="xtick_5">
     <g id="line2d_5">
      <g>
       <use style="fill:#262626;stroke:#262626;stroke-width:1.25;" x="274.577429" xlink:href="#m5de2920c15" y="224.64"/>
      </g>
     </g>
     <g id="text_5">
      <!-- 40 -->
      <g style="fill:#262626;" transform="translate(268.460398 242.013594)scale(0.11 -0.11)">
       <defs>
        <path d="M 32.328125 0 
L 32.328125 17.140625 
L 1.265625 17.140625 
L 1.265625 25.203125 
L 33.9375 71.578125 
L 41.109375 71.578125 
L 41.109375 25.203125 
L 50.78125 25.203125 
L 50.78125 17.140625 
L 41.109375 17.140625 
L 41.109375 0 
z
M 32.328125 25.203125 
L 32.328125 57.46875 
L 9.90625 25.203125 
z
" id="ArialMT-52"/>
       </defs>
       <use xlink:href="#ArialMT-52"/>
       <use x="55.615234" xlink:href="#ArialMT-48"/>
      </g>
     </g>
    </g>
    <g id="xtick_6">
     <g id="line2d_6">
      <g>
       <use style="fill:#262626;stroke:#262626;stroke-width:1.25;" x="325.304702" xlink:href="#m5de2920c15" y="224.64"/>
      </g>
     </g>
     <g id="text_6">
      <!-- 50 -->
      <g style="fill:#262626;" transform="translate(319.18767 242.013594)scale(0.11 -0.11)">
       <defs>
        <path d="M 4.15625 18.75 
L 13.375 19.53125 
Q 14.40625 12.796875 18.140625 9.390625 
Q 21.875 6 27.15625 6 
Q 33.5 6 37.890625 10.78125 
Q 42.28125 15.578125 42.28125 23.484375 
Q 42.28125 31 38.0625 35.34375 
Q 33.84375 39.703125 27 39.703125 
Q 22.75 39.703125 19.328125 37.765625 
Q 15.921875 35.84375 13.96875 32.765625 
L 5.71875 33.84375 
L 12.640625 70.609375 
L 48.25 70.609375 
L 48.25 62.203125 
L 19.671875 62.203125 
L 15.828125 42.96875 
Q 22.265625 47.46875 29.34375 47.46875 
Q 38.71875 47.46875 45.15625 40.96875 
Q 51.609375 34.46875 51.609375 24.265625 
Q 51.609375 14.546875 45.953125 7.46875 
Q 39.0625 -1.21875 27.15625 -1.21875 
Q 17.390625 -1.21875 11.203125 4.25 
Q 5.03125 9.71875 4.15625 18.75 
z
" id="ArialMT-53"/>
       </defs>
       <use xlink:href="#ArialMT-53"/>
       <use x="55.615234" xlink:href="#ArialMT-48"/>
      </g>
     </g>
    </g>
    <g id="xtick_7">
     <g id="line2d_7">
      <g>
       <use style="fill:#262626;stroke:#262626;stroke-width:1.25;" x="376.031974" xlink:href="#m5de2920c15" y="224.64"/>
      </g>
     </g>
     <g id="text_7">
      <!-- 60 -->
      <g style="fill:#262626;" transform="translate(369.914943 242.013594)scale(0.11 -0.11)">
       <defs>
        <path d="M 49.75 54.046875 
L 41.015625 53.375 
Q 39.84375 58.546875 37.703125 60.890625 
Q 34.125 64.65625 28.90625 64.65625 
Q 24.703125 64.65625 21.53125 62.3125 
Q 17.390625 59.28125 14.984375 53.46875 
Q 12.59375 47.65625 12.5 36.921875 
Q 15.671875 41.75 20.265625 44.09375 
Q 24.859375 46.4375 29.890625 46.4375 
Q 38.671875 46.4375 44.84375 39.96875 
Q 51.03125 33.5 51.03125 23.25 
Q 51.03125 16.5 48.125 10.71875 
Q 45.21875 4.9375 40.140625 1.859375 
Q 35.0625 -1.21875 28.609375 -1.21875 
Q 17.625 -1.21875 10.6875 6.859375 
Q 3.765625 14.9375 3.765625 33.5 
Q 3.765625 54.25 11.421875 63.671875 
Q 18.109375 71.875 29.4375 71.875 
Q 37.890625 71.875 43.28125 67.140625 
Q 48.6875 62.40625 49.75 54.046875 
z
M 13.875 23.1875 
Q 13.875 18.65625 15.796875 14.5 
Q 17.71875 10.359375 21.1875 8.171875 
Q 24.65625 6 28.46875 6 
Q 34.03125 6 38.03125 10.484375 
Q 42.046875 14.984375 42.046875 22.703125 
Q 42.046875 30.125 38.078125 34.390625 
Q 34.125 38.671875 28.125 38.671875 
Q 22.171875 38.671875 18.015625 34.390625 
Q 13.875 30.125 13.875 23.1875 
z
" id="ArialMT-54"/>
       </defs>
       <use xlink:href="#ArialMT-54"/>
       <use x="55.615234" xlink:href="#ArialMT-48"/>
      </g>
     </g>
    </g>
    <g id="text_8">
     <!-- $x$ -->
     <g style="fill:#262626;" transform="translate(220.250156 256.789219)scale(0.12 -0.12)">
      <defs>
       <path d="M 60.015625 54.6875 
L 34.90625 27.875 
L 50.296875 0 
L 39.984375 0 
L 28.421875 21.6875 
L 8.296875 0 
L -2.59375 0 
L 24.3125 28.8125 
L 10.015625 54.6875 
L 20.3125 54.6875 
L 30.8125 34.90625 
L 49.125 54.6875 
z
" id="DejaVuSans-Oblique-120"/>
      </defs>
      <use transform="translate(0 0.3125)" xlink:href="#DejaVuSans-Oblique-120"/>
     </g>
    </g>
   </g>
   <g id="matplotlib.axis_2">
    <g id="ytick_1">
     <g id="line2d_8">
      <defs>
       <path d="M 0 0 
L -6 0 
" id="mc524f294cb" style="stroke:#262626;stroke-width:1.25;"/>
      </defs>
      <g>
       <use style="fill:#262626;stroke:#262626;stroke-width:1.25;" x="56.450156" xlink:href="#mc524f294cb" y="222.413292"/>
      </g>
     </g>
     <g id="text_9">
      <!-- −150 -->
      <g style="fill:#262626;" transform="translate(22.174375 226.350089)scale(0.11 -0.11)">
       <defs>
        <path d="M 52.828125 31.203125 
L 5.5625 31.203125 
L 5.5625 39.40625 
L 52.828125 39.40625 
z
" id="ArialMT-8722"/>
       </defs>
       <use xlink:href="#ArialMT-8722"/>
       <use x="58.398438" xlink:href="#ArialMT-49"/>
       <use x="114.013672" xlink:href="#ArialMT-53"/>
       <use x="169.628906" xlink:href="#ArialMT-48"/>
      </g>
     </g>
    </g>
    <g id="ytick_2">
     <g id="line2d_9">
      <g>
       <use style="fill:#262626;stroke:#262626;stroke-width:1.25;" x="56.450156" xlink:href="#mc524f294cb" y="177.551811"/>
      </g>
     </g>
     <g id="text_10">
      <!-- −100 -->
      <g style="fill:#262626;" transform="translate(22.174375 181.488608)scale(0.11 -0.11)">
       <use xlink:href="#ArialMT-8722"/>
       <use x="58.398438" xlink:href="#ArialMT-49"/>
       <use x="114.013672" xlink:href="#ArialMT-48"/>
       <use x="169.628906" xlink:href="#ArialMT-48"/>
      </g>
     </g>
    </g>
    <g id="ytick_3">
     <g id="line2d_10">
      <g>
       <use style="fill:#262626;stroke:#262626;stroke-width:1.25;" x="56.450156" xlink:href="#mc524f294cb" y="132.69033"/>
      </g>
     </g>
     <g id="text_11">
      <!-- −50 -->
      <g style="fill:#262626;" transform="translate(28.291406 136.627127)scale(0.11 -0.11)">
       <use xlink:href="#ArialMT-8722"/>
       <use x="58.398438" xlink:href="#ArialMT-53"/>
       <use x="114.013672" xlink:href="#ArialMT-48"/>
      </g>
     </g>
    </g>
    <g id="ytick_4">
     <g id="line2d_11">
      <g>
       <use style="fill:#262626;stroke:#262626;stroke-width:1.25;" x="56.450156" xlink:href="#mc524f294cb" y="87.828849"/>
      </g>
     </g>
     <g id="text_12">
      <!-- 0 -->
      <g style="fill:#262626;" transform="translate(40.833125 91.765646)scale(0.11 -0.11)">
       <use xlink:href="#ArialMT-48"/>
      </g>
     </g>
    </g>
    <g id="ytick_5">
     <g id="line2d_12">
      <g>
       <use style="fill:#262626;stroke:#262626;stroke-width:1.25;" x="56.450156" xlink:href="#mc524f294cb" y="42.967368"/>
      </g>
     </g>
     <g id="text_13">
      <!-- 50 -->
      <g style="fill:#262626;" transform="translate(34.716094 46.904165)scale(0.11 -0.11)">
       <use xlink:href="#ArialMT-53"/>
       <use x="55.615234" xlink:href="#ArialMT-48"/>
      </g>
     </g>
    </g>
    <g id="text_14">
     <!-- $y$ -->
     <g style="fill:#262626;" transform="translate(15.654375 119.52)rotate(-90)scale(0.12 -0.12)">
      <defs>
       <path d="M 24.8125 -5.078125 
Q 18.5625 -15.578125 14.625 -18.1875 
Q 10.6875 -20.796875 4.59375 -20.796875 
L -2.484375 -20.796875 
L -0.984375 -13.28125 
L 4.203125 -13.28125 
Q 7.953125 -13.28125 10.59375 -11.234375 
Q 13.234375 -9.1875 16.5 -3.21875 
L 19.28125 2 
L 7.171875 54.6875 
L 16.703125 54.6875 
L 25.78125 12.796875 
L 50.875 54.6875 
L 60.296875 54.6875 
z
" id="DejaVuSans-Oblique-121"/>
      </defs>
      <use transform="translate(0 0.3125)" xlink:href="#DejaVuSans-Oblique-121"/>
     </g>
    </g>
   </g>
   <g id="line2d_13">
    <defs>
     <path d="M -3 3 
L 3 -3 
M -3 -3 
L 3 3 
" id="me607a7c706" style="stroke:#4c72b0;stroke-width:2;"/>
    </defs>
    <g clip-path="url(#pd88e17ee4e)">
     <use style="fill:#4c72b0;stroke:#4c72b0;stroke-width:2;" x="83.842884" xlink:href="#me607a7c706" y="87.828849"/>
     <use style="fill:#4c72b0;stroke:#4c72b0;stroke-width:2;" x="84.857429" xlink:href="#me607a7c706" y="88.995248"/>
     <use style="fill:#4c72b0;stroke:#4c72b0;stroke-width:2;" x="87.901065" xlink:href="#me607a7c706" y="90.251369"/>
     <use style="fill:#4c72b0;stroke:#4c72b0;stroke-width:2;" x="89.930156" xlink:href="#me607a7c706" y="87.828849"/>
     <use style="fill:#4c72b0;stroke:#4c72b0;stroke-width:2;" x="91.959247" xlink:href="#me607a7c706" y="90.251369"/>
     <use style="fill:#4c72b0;stroke:#4c72b0;stroke-width:2;" x="103.119247" xlink:href="#me607a7c706" y="90.251369"/>
     <use style="fill:#4c72b0;stroke:#4c72b0;stroke-width:2;" x="105.148338" xlink:href="#me607a7c706" y="90.251369"/>
     <use style="fill:#4c72b0;stroke:#4c72b0;stroke-width:2;" x="106.162884" xlink:href="#me607a7c706" y="88.995248"/>
     <use style="fill:#4c72b0;stroke:#4c72b0;stroke-width:2;" x="111.235611" xlink:href="#me607a7c706" y="90.251369"/>
     <use style="fill:#4c72b0;stroke:#4c72b0;stroke-width:2;" x="113.264702" xlink:href="#me607a7c706" y="90.251369"/>
     <use style="fill:#4c72b0;stroke:#4c72b0;stroke-width:2;" x="116.308338" xlink:href="#me607a7c706" y="88.995248"/>
     <use style="fill:#4c72b0;stroke:#4c72b0;stroke-width:2;" x="120.36652" xlink:href="#me607a7c706" y="90.251369"/>
     <use style="fill:#4c72b0;stroke:#4c72b0;stroke-width:2;" x="122.395611" xlink:href="#me607a7c706" y="90.251369"/>
     <use style="fill:#4c72b0;stroke:#4c72b0;stroke-width:2;" x="123.410156" xlink:href="#me607a7c706" y="92.673889"/>
     <use style="fill:#4c72b0;stroke:#4c72b0;stroke-width:2;" x="125.439247" xlink:href="#me607a7c706" y="90.251369"/>
     <use style="fill:#4c72b0;stroke:#4c72b0;stroke-width:2;" x="127.468338" xlink:href="#me607a7c706" y="92.673889"/>
     <use style="fill:#4c72b0;stroke:#4c72b0;stroke-width:2;" x="129.497429" xlink:href="#me607a7c706" y="87.828849"/>
     <use style="fill:#4c72b0;stroke:#4c72b0;stroke-width:2;" x="138.628338" xlink:href="#me607a7c706" y="90.251369"/>
     <use style="fill:#4c72b0;stroke:#4c72b0;stroke-width:2;" x="140.657429" xlink:href="#me607a7c706" y="90.251369"/>
     <use style="fill:#4c72b0;stroke:#4c72b0;stroke-width:2;" x="141.671974" xlink:href="#me607a7c706" y="87.828849"/>
     <use style="fill:#4c72b0;stroke:#4c72b0;stroke-width:2;" x="145.730156" xlink:href="#me607a7c706" y="99.762003"/>
     <use style="fill:#4c72b0;stroke:#4c72b0;stroke-width:2;" x="146.744702" xlink:href="#me607a7c706" y="90.251369"/>
     <use style="fill:#4c72b0;stroke:#4c72b0;stroke-width:2;" x="149.788338" xlink:href="#me607a7c706" y="108.285685"/>
     <use style="fill:#4c72b0;stroke:#4c72b0;stroke-width:2;" x="150.802884" xlink:href="#me607a7c706" y="123.89748"/>
     <use style="fill:#4c72b0;stroke:#4c72b0;stroke-width:2;" x="151.817429" xlink:href="#me607a7c706" y="107.119286"/>
     <use style="fill:#4c72b0;stroke:#4c72b0;stroke-width:2;" x="152.831974" xlink:href="#me607a7c706" y="126.32"/>
     <use style="fill:#4c72b0;stroke:#4c72b0;stroke-width:2;" x="153.84652" xlink:href="#me607a7c706" y="107.119286"/>
     <use style="fill:#4c72b0;stroke:#4c72b0;stroke-width:2;" x="154.861065" xlink:href="#me607a7c706" y="92.673889"/>
     <use style="fill:#4c72b0;stroke:#4c72b0;stroke-width:2;" x="155.875611" xlink:href="#me607a7c706" y="140.765397"/>
     <use style="fill:#4c72b0;stroke:#4c72b0;stroke-width:2;" x="156.890156" xlink:href="#me607a7c706" y="151.532152"/>
     <use style="fill:#4c72b0;stroke:#4c72b0;stroke-width:2;" x="160.948338" xlink:href="#me607a7c706" y="121.47496"/>
     <use style="fill:#4c72b0;stroke:#4c72b0;stroke-width:2;" x="161.962884" xlink:href="#me607a7c706" y="176.744305"/>
     <use style="fill:#4c72b0;stroke:#4c72b0;stroke-width:2;" x="166.021065" xlink:href="#me607a7c706" y="188.767182"/>
     <use style="fill:#4c72b0;stroke:#4c72b0;stroke-width:2;" x="169.064702" xlink:href="#me607a7c706" y="198.277816"/>
     <use style="fill:#4c72b0;stroke:#4c72b0;stroke-width:2;" x="170.079247" xlink:href="#me607a7c706" y="164.631705"/>
     <use style="fill:#4c72b0;stroke:#4c72b0;stroke-width:2;" x="171.093793" xlink:href="#me607a7c706" y="201.956457"/>
     <use style="fill:#4c72b0;stroke:#4c72b0;stroke-width:2;" x="174.137429" xlink:href="#me607a7c706" y="198.277816"/>
     <use style="fill:#4c72b0;stroke:#4c72b0;stroke-width:2;" x="175.151974" xlink:href="#me607a7c706" y="193.612222"/>
     <use style="fill:#4c72b0;stroke:#4c72b0;stroke-width:2;" x="179.210156" xlink:href="#me607a7c706" y="208.057618"/>
     <use style="fill:#4c72b0;stroke:#4c72b0;stroke-width:2;" x="180.224702" xlink:href="#me607a7c706" y="179.256548"/>
     <use style="fill:#4c72b0;stroke:#4c72b0;stroke-width:2;" x="182.253793" xlink:href="#me607a7c706" y="185.08854"/>
     <use style="fill:#4c72b0;stroke:#4c72b0;stroke-width:2;" x="183.268338" xlink:href="#me607a7c706" y="198.277816"/>
     <use style="fill:#4c72b0;stroke:#4c72b0;stroke-width:2;" x="189.355611" xlink:href="#me607a7c706" y="198.277816"/>
     <use style="fill:#4c72b0;stroke:#4c72b0;stroke-width:2;" x="190.370156" xlink:href="#me607a7c706" y="203.122856"/>
     <use style="fill:#4c72b0;stroke:#4c72b0;stroke-width:2;" x="193.413793" xlink:href="#me607a7c706" y="188.767182"/>
     <use style="fill:#4c72b0;stroke:#4c72b0;stroke-width:2;" x="194.428338" xlink:href="#me607a7c706" y="173.155386"/>
     <use style="fill:#4c72b0;stroke:#4c72b0;stroke-width:2;" x="196.457429" xlink:href="#me607a7c706" y="135.830634"/>
     <use style="fill:#4c72b0;stroke:#4c72b0;stroke-width:2;" x="198.48652" xlink:href="#me607a7c706" y="145.610437"/>
     <use style="fill:#4c72b0;stroke:#4c72b0;stroke-width:2;" x="200.515611" xlink:href="#me607a7c706" y="152.698551"/>
     <use style="fill:#4c72b0;stroke:#4c72b0;stroke-width:2;" x="201.530156" xlink:href="#me607a7c706" y="111.874603"/>
     <use style="fill:#4c72b0;stroke:#4c72b0;stroke-width:2;" x="203.559247" xlink:href="#me607a7c706" y="92.673889"/>
     <use style="fill:#4c72b0;stroke:#4c72b0;stroke-width:2;" x="204.573793" xlink:href="#me607a7c706" y="183.922142"/>
     <use style="fill:#4c72b0;stroke:#4c72b0;stroke-width:2;" x="205.588338" xlink:href="#me607a7c706" y="146.687112"/>
     <use style="fill:#4c72b0;stroke:#4c72b0;stroke-width:2;" x="208.631974" xlink:href="#me607a7c706" y="102.184523"/>
     <use style="fill:#4c72b0;stroke:#4c72b0;stroke-width:2;" x="209.64652" xlink:href="#me607a7c706" y="128.74252"/>
     <use style="fill:#4c72b0;stroke:#4c72b0;stroke-width:2;" x="211.675611" xlink:href="#me607a7c706" y="84.239931"/>
     <use style="fill:#4c72b0;stroke:#4c72b0;stroke-width:2;" x="214.719247" xlink:href="#me607a7c706" y="77.062094"/>
     <use style="fill:#4c72b0;stroke:#4c72b0;stroke-width:2;" x="215.733793" xlink:href="#me607a7c706" y="107.119286"/>
     <use style="fill:#4c72b0;stroke:#4c72b0;stroke-width:2;" x="216.748338" xlink:href="#me607a7c706" y="45.74878"/>
     <use style="fill:#4c72b0;stroke:#4c72b0;stroke-width:2;" x="220.80652" xlink:href="#me607a7c706" y="103.440645"/>
     <use style="fill:#4c72b0;stroke:#4c72b0;stroke-width:2;" x="224.864702" xlink:href="#me607a7c706" y="55.349137"/>
     <use style="fill:#4c72b0;stroke:#4c72b0;stroke-width:2;" x="228.922884" xlink:href="#me607a7c706" y="20.536628"/>
     <use style="fill:#4c72b0;stroke:#4c72b0;stroke-width:2;" x="229.937429" xlink:href="#me607a7c706" y="80.561289"/>
     <use style="fill:#4c72b0;stroke:#4c72b0;stroke-width:2;" x="233.995611" xlink:href="#me607a7c706" y="38.570943"/>
     <use style="fill:#4c72b0;stroke:#4c72b0;stroke-width:2;" x="238.053793" xlink:href="#me607a7c706" y="45.74878"/>
     <use style="fill:#4c72b0;stroke:#4c72b0;stroke-width:2;" x="241.097429" xlink:href="#me607a7c706" y="73.473175"/>
     <use style="fill:#4c72b0;stroke:#4c72b0;stroke-width:2;" x="243.12652" xlink:href="#me607a7c706" y="46.915179"/>
     <use style="fill:#4c72b0;stroke:#4c72b0;stroke-width:2;" x="246.170156" xlink:href="#me607a7c706" y="86.662451"/>
     <use style="fill:#4c72b0;stroke:#4c72b0;stroke-width:2;" x="248.199247" xlink:href="#me607a7c706" y="20.536628"/>
     <use style="fill:#4c72b0;stroke:#4c72b0;stroke-width:2;" x="250.228338" xlink:href="#me607a7c706" y="102.184523"/>
     <use style="fill:#4c72b0;stroke:#4c72b0;stroke-width:2;" x="251.242884" xlink:href="#me607a7c706" y="25.381668"/>
     <use style="fill:#4c72b0;stroke:#4c72b0;stroke-width:2;" x="252.257429" xlink:href="#me607a7c706" y="56.605259"/>
     <use style="fill:#4c72b0;stroke:#4c72b0;stroke-width:2;" x="255.301065" xlink:href="#me607a7c706" y="121.47496"/>
     <use style="fill:#4c72b0;stroke:#4c72b0;stroke-width:2;" x="264.431974" xlink:href="#me607a7c706" y="45.74878"/>
     <use style="fill:#4c72b0;stroke:#4c72b0;stroke-width:2;" x="270.519247" xlink:href="#me607a7c706" y="82.983809"/>
     <use style="fill:#4c72b0;stroke:#4c72b0;stroke-width:2;" x="271.533793" xlink:href="#me607a7c706" y="88.995248"/>
     <use style="fill:#4c72b0;stroke:#4c72b0;stroke-width:2;" x="274.577429" xlink:href="#me607a7c706" y="107.119286"/>
     <use style="fill:#4c72b0;stroke:#4c72b0;stroke-width:2;" x="276.60652" xlink:href="#me607a7c706" y="99.762003"/>
     <use style="fill:#4c72b0;stroke:#4c72b0;stroke-width:2;" x="282.693793" xlink:href="#me607a7c706" y="60.194177"/>
     <use style="fill:#4c72b0;stroke:#4c72b0;stroke-width:2;" x="286.751974" xlink:href="#me607a7c706" y="61.450298"/>
     <use style="fill:#4c72b0;stroke:#4c72b0;stroke-width:2;" x="288.781065" xlink:href="#me607a7c706" y="87.828849"/>
     <use style="fill:#4c72b0;stroke:#4c72b0;stroke-width:2;" x="289.795611" xlink:href="#me607a7c706" y="74.639574"/>
     <use style="fill:#4c72b0;stroke:#4c72b0;stroke-width:2;" x="294.868338" xlink:href="#me607a7c706" y="88.995248"/>
     <use style="fill:#4c72b0;stroke:#4c72b0;stroke-width:2;" x="296.897429" xlink:href="#me607a7c706" y="87.828849"/>
     <use style="fill:#4c72b0;stroke:#4c72b0;stroke-width:2;" x="299.941065" xlink:href="#me607a7c706" y="78.228492"/>
     <use style="fill:#4c72b0;stroke:#4c72b0;stroke-width:2;" x="308.057429" xlink:href="#me607a7c706" y="78.228492"/>
     <use style="fill:#4c72b0;stroke:#4c72b0;stroke-width:2;" x="314.144702" xlink:href="#me607a7c706" y="111.874603"/>
     <use style="fill:#4c72b0;stroke:#4c72b0;stroke-width:2;" x="319.217429" xlink:href="#me607a7c706" y="99.762003"/>
     <use style="fill:#4c72b0;stroke:#4c72b0;stroke-width:2;" x="328.348338" xlink:href="#me607a7c706" y="87.828849"/>
     <use style="fill:#4c72b0;stroke:#4c72b0;stroke-width:2;" x="335.450156" xlink:href="#me607a7c706" y="78.228492"/>
     <use style="fill:#4c72b0;stroke:#4c72b0;stroke-width:2;" x="341.537429" xlink:href="#me607a7c706" y="101.018125"/>
     <use style="fill:#4c72b0;stroke:#4c72b0;stroke-width:2;" x="350.668338" xlink:href="#me607a7c706" y="90.251369"/>
     <use style="fill:#4c72b0;stroke:#4c72b0;stroke-width:2;" x="352.697429" xlink:href="#me607a7c706" y="90.251369"/>
     <use style="fill:#4c72b0;stroke:#4c72b0;stroke-width:2;" x="363.857429" xlink:href="#me607a7c706" y="78.228492"/>
    </g>
   </g>
   <g id="line2d_14">
    <path clip-path="url(#pd88e17ee4e)" d="M 71.668338 34.765378 
L 73.197804 36.060244 
L 74.727269 39.809595 
L 76.256735 45.618329 
L 77.7862 52.903102 
L 82.374597 76.922264 
L 83.904062 83.737482 
L 85.433528 89.345444 
L 86.962993 93.61017 
L 88.492459 96.519731 
L 90.021924 98.150572 
L 91.55139 98.635287 
L 93.080855 98.140321 
L 94.610321 96.855008 
L 96.139786 94.988887 
L 100.728183 88.275466 
L 102.257648 86.488139 
L 103.787114 85.289119 
L 105.316579 84.817151 
L 106.846045 85.129729 
L 108.37551 86.195971 
L 109.904976 87.903358 
L 111.434441 90.077132 
L 116.022838 97.303287 
L 117.552303 99.317487 
L 119.081769 100.912022 
L 120.611234 102.01816 
L 122.1407 102.603576 
L 123.670165 102.664494 
L 125.199631 102.220121 
L 126.729096 101.311163 
L 128.258562 100.002091 
L 129.788027 98.385002 
L 134.376424 93.029864 
L 135.905889 91.614759 
L 137.435355 90.643638 
L 138.96482 90.224057 
L 140.494286 90.408244 
L 142.023751 91.187521 
L 143.553217 92.498768 
L 145.082683 94.242651 
L 146.612148 96.310712 
L 148.141614 98.616627 
L 149.671079 101.126129 
L 151.200545 103.880235 
L 152.73001 107.00714 
L 154.259476 110.719007 
L 155.788941 115.290946 
L 157.318407 121.021017 
L 158.847872 128.17267 
L 160.377338 136.904976 
L 161.906803 147.200887 
L 164.965734 171.211396 
L 166.4952 183.645905 
L 168.024665 195.168058 
L 169.554131 204.770743 
L 171.083596 211.530476 
L 172.613062 214.756364 
L 174.142527 214.108692 
L 175.671993 209.659696 
L 177.201458 201.882135 
L 178.730924 191.56882 
L 184.848786 144.457348 
L 186.378251 135.229811 
L 187.907717 127.882892 
L 189.437182 122.461357 
L 190.966648 118.858872 
L 192.496113 116.874534 
L 194.025579 116.258471 
L 195.555044 116.740924 
L 197.08451 118.045872 
L 198.613975 119.894837 
L 201.672906 124.110939 
L 203.202372 125.944343 
L 204.731837 127.285896 
L 206.261303 127.970348 
L 207.790768 127.907657 
L 209.320234 127.091322 
L 210.849699 125.593452 
L 212.379165 123.546081 
L 213.90863 121.111687 
L 216.967561 115.676262 
L 220.026492 109.947841 
L 221.555958 106.86295 
L 223.085423 103.425642 
L 224.614889 99.428403 
L 226.144355 94.668084 
L 227.67382 88.995618 
L 229.203286 82.36736 
L 230.732751 74.88876 
L 235.321148 50.966756 
L 236.850613 44.375684 
L 238.380079 39.515298 
L 239.909544 36.874028 
L 241.43901 36.726962 
L 242.968475 39.08618 
L 244.497941 43.696941 
L 246.027406 50.08016 
L 249.086337 65.611142 
L 250.615803 73.445109 
L 252.145268 80.584271 
L 253.674734 86.647759 
L 255.204199 91.408444 
L 256.733665 94.774995 
L 258.26313 96.761094 
L 259.792596 97.453647 
L 261.322061 96.988748 
L 262.851527 95.539063 
L 264.380992 93.311099 
L 265.910458 90.546909 
L 268.969389 84.54226 
L 270.498854 81.910854 
L 272.02832 79.910481 
L 273.557785 78.762707 
L 275.087251 78.598632 
L 276.616716 79.439969 
L 278.146182 81.197043 
L 279.675647 83.684662 
L 282.734578 89.820954 
L 284.264044 92.920113 
L 285.793509 95.714959 
L 287.322975 98.022714 
L 288.85244 99.716318 
L 290.381906 100.719243 
L 291.911371 100.996489 
L 293.440837 100.546938 
L 294.970302 99.400621 
L 296.499768 97.621732 
L 298.029233 95.315361 
L 301.088164 89.776552 
L 302.61763 86.982391 
L 304.147095 84.50785 
L 305.676561 82.598138 
L 307.206027 81.453279 
L 308.735492 81.197576 
L 310.264958 81.859554 
L 311.794423 83.367395 
L 313.323889 85.561091 
L 316.38282 91.087692 
L 317.912285 93.922205 
L 319.441751 96.505561 
L 320.971216 98.668064 
L 322.500682 100.291154 
L 324.030147 101.303312 
L 325.559613 101.67182 
L 327.089078 101.395095 
L 328.618544 100.499074 
L 330.148009 99.038757 
L 331.677475 97.103456 
L 334.736406 92.365067 
L 336.265871 89.936124 
L 337.795337 87.757207 
L 339.324802 86.042851 
L 340.854268 84.97112 
L 342.383733 84.656214 
L 343.913199 85.129115 
L 345.442664 86.330716 
L 346.97213 88.118624 
L 351.560526 94.74086 
L 353.089992 96.496594 
L 354.619457 97.591732 
L 356.148923 97.781907 
L 357.678388 96.836367 
L 359.207854 94.543776 
L 360.737319 90.729012 
L 362.266785 85.283985 
L 363.79625 78.210257 
L 365.325716 69.665125 
L 368.384647 49.760986 
L 369.914112 39.684036 
L 371.443578 30.605384 
L 372.973043 23.368039 
L 374.502509 18.69705 
L 376.031974 17.083636 
L 376.031974 17.083636 
" style="fill:none;stroke:#dd8452;stroke-linecap:round;stroke-width:1.5;"/>
   </g>
   <g id="patch_3">
    <path d="M 56.450156 224.64 
L 56.450156 7.2 
" style="fill:none;stroke:#262626;stroke-linecap:square;stroke-linejoin:miter;stroke-width:1.25;"/>
   </g>
   <g id="patch_4">
    <path d="M 391.250156 224.64 
L 391.250156 7.2 
" style="fill:none;stroke:#262626;stroke-linecap:square;stroke-linejoin:miter;stroke-width:1.25;"/>
   </g>
   <g id="patch_5">
    <path d="M 56.450156 224.64 
L 391.250156 224.64 
" style="fill:none;stroke:#262626;stroke-linecap:square;stroke-linejoin:miter;stroke-width:1.25;"/>
   </g>
   <g id="patch_6">
    <path d="M 56.450156 7.2 
L 391.250156 7.2 
" style="fill:none;stroke:#262626;stroke-linecap:square;stroke-linejoin:miter;stroke-width:1.25;"/>
   </g>
   <g id="legend_1">
    <g id="patch_7">
     <path d="M 112.408125 47.382656 
L 335.292188 47.382656 
Q 337.492188 47.382656 337.492188 45.182656 
L 337.492188 14.9 
Q 337.492188 12.7 335.292188 12.7 
L 112.408125 12.7 
Q 110.208125 12.7 110.208125 14.9 
L 110.208125 45.182656 
Q 110.208125 47.382656 112.408125 47.382656 
z
" style="fill:#ffffff;opacity:0.8;stroke:#cccccc;stroke-linejoin:miter;"/>
    </g>
    <g id="line2d_15"/>
    <g id="line2d_16">
     <g>
      <use style="fill:#4c72b0;stroke:#4c72b0;stroke-width:2;" x="125.608125" xlink:href="#me607a7c706" y="21.123594"/>
     </g>
    </g>
    <g id="text_15">
     <!-- Observations -->
     <g style="fill:#262626;" transform="translate(145.408125 24.973594)scale(0.11 -0.11)">
      <defs>
       <path d="M 4.828125 34.859375 
Q 4.828125 52.6875 14.390625 62.765625 
Q 23.96875 72.859375 39.109375 72.859375 
Q 49.03125 72.859375 56.984375 68.109375 
Q 64.9375 63.375 69.109375 54.90625 
Q 73.296875 46.4375 73.296875 35.6875 
Q 73.296875 24.8125 68.890625 16.21875 
Q 64.5 7.625 56.4375 3.203125 
Q 48.390625 -1.21875 39.0625 -1.21875 
Q 28.953125 -1.21875 20.984375 3.65625 
Q 13.03125 8.546875 8.921875 16.984375 
Q 4.828125 25.4375 4.828125 34.859375 
z
M 14.59375 34.71875 
Q 14.59375 21.78125 21.546875 14.328125 
Q 28.515625 6.890625 39.015625 6.890625 
Q 49.703125 6.890625 56.609375 14.40625 
Q 63.53125 21.921875 63.53125 35.75 
Q 63.53125 44.484375 60.578125 51 
Q 57.625 57.515625 51.921875 61.109375 
Q 46.234375 64.703125 39.15625 64.703125 
Q 29.109375 64.703125 21.84375 57.78125 
Q 14.59375 50.875 14.59375 34.71875 
z
" id="ArialMT-79"/>
       <path d="M 14.703125 0 
L 6.546875 0 
L 6.546875 71.578125 
L 15.328125 71.578125 
L 15.328125 46.046875 
Q 20.90625 53.03125 29.546875 53.03125 
Q 34.328125 53.03125 38.59375 51.09375 
Q 42.875 49.171875 45.625 45.671875 
Q 48.390625 42.1875 49.953125 37.25 
Q 51.515625 32.328125 51.515625 26.703125 
Q 51.515625 13.375 44.921875 6.09375 
Q 38.328125 -1.171875 29.109375 -1.171875 
Q 19.921875 -1.171875 14.703125 6.5 
z
M 14.59375 26.3125 
Q 14.59375 17 17.140625 12.84375 
Q 21.296875 6.0625 28.375 6.0625 
Q 34.125 6.0625 38.328125 11.0625 
Q 42.53125 16.0625 42.53125 25.984375 
Q 42.53125 36.140625 38.5 40.96875 
Q 34.46875 45.796875 28.765625 45.796875 
Q 23 45.796875 18.796875 40.796875 
Q 14.59375 35.796875 14.59375 26.3125 
z
" id="ArialMT-98"/>
       <path d="M 3.078125 15.484375 
L 11.765625 16.84375 
Q 12.5 11.625 15.84375 8.84375 
Q 19.1875 6.0625 25.203125 6.0625 
Q 31.25 6.0625 34.171875 8.515625 
Q 37.109375 10.984375 37.109375 14.3125 
Q 37.109375 17.28125 34.515625 19 
Q 32.71875 20.171875 25.53125 21.96875 
Q 15.875 24.421875 12.140625 26.203125 
Q 8.40625 27.984375 6.46875 31.125 
Q 4.546875 34.28125 4.546875 38.09375 
Q 4.546875 41.546875 6.125 44.5 
Q 7.71875 47.46875 10.453125 49.421875 
Q 12.5 50.921875 16.03125 51.96875 
Q 19.578125 53.03125 23.640625 53.03125 
Q 29.734375 53.03125 34.34375 51.265625 
Q 38.96875 49.515625 41.15625 46.5 
Q 43.359375 43.5 44.1875 38.484375 
L 35.59375 37.3125 
Q 35.015625 41.3125 32.203125 43.546875 
Q 29.390625 45.796875 24.265625 45.796875 
Q 18.21875 45.796875 15.625 43.796875 
Q 13.03125 41.796875 13.03125 39.109375 
Q 13.03125 37.40625 14.109375 36.03125 
Q 15.1875 34.625 17.484375 33.6875 
Q 18.796875 33.203125 25.25 31.453125 
Q 34.578125 28.953125 38.25 27.359375 
Q 41.9375 25.78125 44.03125 22.75 
Q 46.140625 19.734375 46.140625 15.234375 
Q 46.140625 10.84375 43.578125 6.953125 
Q 41.015625 3.078125 36.171875 0.953125 
Q 31.34375 -1.171875 25.25 -1.171875 
Q 15.140625 -1.171875 9.84375 3.03125 
Q 4.546875 7.234375 3.078125 15.484375 
z
" id="ArialMT-115"/>
       <path d="M 42.09375 16.703125 
L 51.171875 15.578125 
Q 49.03125 7.625 43.21875 3.21875 
Q 37.40625 -1.171875 28.375 -1.171875 
Q 17 -1.171875 10.328125 5.828125 
Q 3.65625 12.84375 3.65625 25.484375 
Q 3.65625 38.578125 10.390625 45.796875 
Q 17.140625 53.03125 27.875 53.03125 
Q 38.28125 53.03125 44.875 45.953125 
Q 51.46875 38.875 51.46875 26.03125 
Q 51.46875 25.25 51.421875 23.6875 
L 12.75 23.6875 
Q 13.234375 15.140625 17.578125 10.59375 
Q 21.921875 6.0625 28.421875 6.0625 
Q 33.25 6.0625 36.671875 8.59375 
Q 40.09375 11.140625 42.09375 16.703125 
z
M 13.234375 30.90625 
L 42.1875 30.90625 
Q 41.609375 37.453125 38.875 40.71875 
Q 34.671875 45.796875 27.984375 45.796875 
Q 21.921875 45.796875 17.796875 41.75 
Q 13.671875 37.703125 13.234375 30.90625 
z
" id="ArialMT-101"/>
       <path d="M 6.5 0 
L 6.5 51.859375 
L 14.40625 51.859375 
L 14.40625 44 
Q 17.4375 49.515625 20 51.265625 
Q 22.5625 53.03125 25.640625 53.03125 
Q 30.078125 53.03125 34.671875 50.203125 
L 31.640625 42.046875 
Q 28.421875 43.953125 25.203125 43.953125 
Q 22.3125 43.953125 20.015625 42.21875 
Q 17.71875 40.484375 16.75 37.40625 
Q 15.28125 32.71875 15.28125 27.15625 
L 15.28125 0 
z
" id="ArialMT-114"/>
       <path d="M 21 0 
L 1.265625 51.859375 
L 10.546875 51.859375 
L 21.6875 20.796875 
Q 23.484375 15.765625 25 10.359375 
Q 26.171875 14.453125 28.265625 20.21875 
L 39.796875 51.859375 
L 48.828125 51.859375 
L 29.203125 0 
z
" id="ArialMT-118"/>
       <path d="M 40.4375 6.390625 
Q 35.546875 2.25 31.03125 0.53125 
Q 26.515625 -1.171875 21.34375 -1.171875 
Q 12.796875 -1.171875 8.203125 3 
Q 3.609375 7.171875 3.609375 13.671875 
Q 3.609375 17.484375 5.34375 20.625 
Q 7.078125 23.78125 9.890625 25.6875 
Q 12.703125 27.59375 16.21875 28.5625 
Q 18.796875 29.25 24.03125 29.890625 
Q 34.671875 31.15625 39.703125 32.90625 
Q 39.75 34.71875 39.75 35.203125 
Q 39.75 40.578125 37.25 42.78125 
Q 33.890625 45.75 27.25 45.75 
Q 21.046875 45.75 18.09375 43.578125 
Q 15.140625 41.40625 13.71875 35.890625 
L 5.125 37.0625 
Q 6.296875 42.578125 8.984375 45.96875 
Q 11.671875 49.359375 16.75 51.1875 
Q 21.828125 53.03125 28.515625 53.03125 
Q 35.15625 53.03125 39.296875 51.46875 
Q 43.453125 49.90625 45.40625 47.53125 
Q 47.359375 45.171875 48.140625 41.546875 
Q 48.578125 39.3125 48.578125 33.453125 
L 48.578125 21.734375 
Q 48.578125 9.46875 49.140625 6.21875 
Q 49.703125 2.984375 51.375 0 
L 42.1875 0 
Q 40.828125 2.734375 40.4375 6.390625 
z
M 39.703125 26.03125 
Q 34.90625 24.078125 25.34375 22.703125 
Q 19.921875 21.921875 17.671875 20.9375 
Q 15.4375 19.96875 14.203125 18.09375 
Q 12.984375 16.21875 12.984375 13.921875 
Q 12.984375 10.40625 15.640625 8.0625 
Q 18.3125 5.71875 23.4375 5.71875 
Q 28.515625 5.71875 32.46875 7.9375 
Q 36.421875 10.15625 38.28125 14.015625 
Q 39.703125 17 39.703125 22.796875 
z
" id="ArialMT-97"/>
       <path d="M 25.78125 7.859375 
L 27.046875 0.09375 
Q 23.34375 -0.6875 20.40625 -0.6875 
Q 15.625 -0.6875 12.984375 0.828125 
Q 10.359375 2.34375 9.28125 4.8125 
Q 8.203125 7.28125 8.203125 15.1875 
L 8.203125 45.015625 
L 1.765625 45.015625 
L 1.765625 51.859375 
L 8.203125 51.859375 
L 8.203125 64.703125 
L 16.9375 69.96875 
L 16.9375 51.859375 
L 25.78125 51.859375 
L 25.78125 45.015625 
L 16.9375 45.015625 
L 16.9375 14.703125 
Q 16.9375 10.9375 17.40625 9.859375 
Q 17.875 8.796875 18.921875 8.15625 
Q 19.96875 7.515625 21.921875 7.515625 
Q 23.390625 7.515625 25.78125 7.859375 
z
" id="ArialMT-116"/>
       <path d="M 6.640625 61.46875 
L 6.640625 71.578125 
L 15.4375 71.578125 
L 15.4375 61.46875 
z
M 6.640625 0 
L 6.640625 51.859375 
L 15.4375 51.859375 
L 15.4375 0 
z
" id="ArialMT-105"/>
       <path d="M 3.328125 25.921875 
Q 3.328125 40.328125 11.328125 47.265625 
Q 18.015625 53.03125 27.640625 53.03125 
Q 38.328125 53.03125 45.109375 46.015625 
Q 51.90625 39.015625 51.90625 26.65625 
Q 51.90625 16.65625 48.90625 10.90625 
Q 45.90625 5.171875 40.15625 2 
Q 34.421875 -1.171875 27.640625 -1.171875 
Q 16.75 -1.171875 10.03125 5.8125 
Q 3.328125 12.796875 3.328125 25.921875 
z
M 12.359375 25.921875 
Q 12.359375 15.96875 16.703125 11.015625 
Q 21.046875 6.0625 27.640625 6.0625 
Q 34.1875 6.0625 38.53125 11.03125 
Q 42.875 16.015625 42.875 26.21875 
Q 42.875 35.84375 38.5 40.796875 
Q 34.125 45.75 27.640625 45.75 
Q 21.046875 45.75 16.703125 40.8125 
Q 12.359375 35.890625 12.359375 25.921875 
z
" id="ArialMT-111"/>
       <path d="M 6.59375 0 
L 6.59375 51.859375 
L 14.5 51.859375 
L 14.5 44.484375 
Q 20.21875 53.03125 31 53.03125 
Q 35.6875 53.03125 39.625 51.34375 
Q 43.5625 49.65625 45.515625 46.921875 
Q 47.46875 44.1875 48.25 40.4375 
Q 48.734375 37.984375 48.734375 31.890625 
L 48.734375 0 
L 39.9375 0 
L 39.9375 31.546875 
Q 39.9375 36.921875 38.90625 39.578125 
Q 37.890625 42.234375 35.28125 43.8125 
Q 32.671875 45.40625 29.15625 45.40625 
Q 23.53125 45.40625 19.453125 41.84375 
Q 15.375 38.28125 15.375 28.328125 
L 15.375 0 
z
" id="ArialMT-110"/>
      </defs>
      <use xlink:href="#ArialMT-79"/>
      <use x="77.783203" xlink:href="#ArialMT-98"/>
      <use x="133.398438" xlink:href="#ArialMT-115"/>
      <use x="183.398438" xlink:href="#ArialMT-101"/>
      <use x="239.013672" xlink:href="#ArialMT-114"/>
      <use x="272.314453" xlink:href="#ArialMT-118"/>
      <use x="322.314453" xlink:href="#ArialMT-97"/>
      <use x="377.929688" xlink:href="#ArialMT-116"/>
      <use x="405.712891" xlink:href="#ArialMT-105"/>
      <use x="427.929688" xlink:href="#ArialMT-111"/>
      <use x="483.544922" xlink:href="#ArialMT-110"/>
      <use x="539.160156" xlink:href="#ArialMT-115"/>
     </g>
    </g>
    <g id="line2d_17">
     <path d="M 114.608125 36.8175 
L 136.608125 36.8175 
" style="fill:none;stroke:#dd8452;stroke-linecap:round;stroke-width:1.5;"/>
    </g>
    <g id="line2d_18"/>
    <g id="text_16">
     <!-- LS Prediction (Radial Basis Functions) -->
     <g style="fill:#262626;" transform="translate(145.408125 40.6675)scale(0.11 -0.11)">
      <defs>
       <path d="M 7.328125 0 
L 7.328125 71.578125 
L 16.796875 71.578125 
L 16.796875 8.453125 
L 52.046875 8.453125 
L 52.046875 0 
z
" id="ArialMT-76"/>
       <path d="M 4.5 23 
L 13.421875 23.78125 
Q 14.0625 18.40625 16.375 14.96875 
Q 18.703125 11.53125 23.578125 9.40625 
Q 28.46875 7.28125 34.578125 7.28125 
Q 39.984375 7.28125 44.140625 8.890625 
Q 48.296875 10.5 50.3125 13.296875 
Q 52.34375 16.109375 52.34375 19.4375 
Q 52.34375 22.796875 50.390625 25.3125 
Q 48.4375 27.828125 43.953125 29.546875 
Q 41.0625 30.671875 31.203125 33.03125 
Q 21.34375 35.40625 17.390625 37.5 
Q 12.25 40.1875 9.734375 44.15625 
Q 7.234375 48.140625 7.234375 53.078125 
Q 7.234375 58.5 10.296875 63.203125 
Q 13.375 67.921875 19.28125 70.359375 
Q 25.203125 72.796875 32.421875 72.796875 
Q 40.375 72.796875 46.453125 70.234375 
Q 52.546875 67.671875 55.8125 62.6875 
Q 59.078125 57.71875 59.328125 51.421875 
L 50.25 50.734375 
Q 49.515625 57.515625 45.28125 60.984375 
Q 41.0625 64.453125 32.8125 64.453125 
Q 24.21875 64.453125 20.28125 61.296875 
Q 16.359375 58.15625 16.359375 53.71875 
Q 16.359375 49.859375 19.140625 47.359375 
Q 21.875 44.875 33.421875 42.265625 
Q 44.96875 39.65625 49.265625 37.703125 
Q 55.515625 34.8125 58.484375 30.390625 
Q 61.46875 25.984375 61.46875 20.21875 
Q 61.46875 14.5 58.203125 9.4375 
Q 54.9375 4.390625 48.796875 1.578125 
Q 42.671875 -1.21875 35.015625 -1.21875 
Q 25.296875 -1.21875 18.71875 1.609375 
Q 12.15625 4.4375 8.421875 10.125 
Q 4.6875 15.828125 4.5 23 
z
" id="ArialMT-83"/>
       <path id="ArialMT-32"/>
       <path d="M 7.71875 0 
L 7.71875 71.578125 
L 34.71875 71.578125 
Q 41.84375 71.578125 45.609375 70.90625 
Q 50.875 70.015625 54.4375 67.546875 
Q 58.015625 65.09375 60.1875 60.640625 
Q 62.359375 56.203125 62.359375 50.875 
Q 62.359375 41.75 56.546875 35.421875 
Q 50.734375 29.109375 35.546875 29.109375 
L 17.1875 29.109375 
L 17.1875 0 
z
M 17.1875 37.546875 
L 35.6875 37.546875 
Q 44.875 37.546875 48.734375 40.96875 
Q 52.59375 44.390625 52.59375 50.59375 
Q 52.59375 55.078125 50.3125 58.265625 
Q 48.046875 61.46875 44.34375 62.5 
Q 41.9375 63.140625 35.5 63.140625 
L 17.1875 63.140625 
z
" id="ArialMT-80"/>
       <path d="M 40.234375 0 
L 40.234375 6.546875 
Q 35.296875 -1.171875 25.734375 -1.171875 
Q 19.53125 -1.171875 14.328125 2.25 
Q 9.125 5.671875 6.265625 11.796875 
Q 3.421875 17.921875 3.421875 25.875 
Q 3.421875 33.640625 6 39.96875 
Q 8.59375 46.296875 13.765625 49.65625 
Q 18.953125 53.03125 25.34375 53.03125 
Q 30.03125 53.03125 33.6875 51.046875 
Q 37.359375 49.078125 39.65625 45.90625 
L 39.65625 71.578125 
L 48.390625 71.578125 
L 48.390625 0 
z
M 12.453125 25.875 
Q 12.453125 15.921875 16.640625 10.984375 
Q 20.84375 6.0625 26.5625 6.0625 
Q 32.328125 6.0625 36.34375 10.765625 
Q 40.375 15.484375 40.375 25.140625 
Q 40.375 35.796875 36.265625 40.765625 
Q 32.171875 45.75 26.171875 45.75 
Q 20.3125 45.75 16.375 40.96875 
Q 12.453125 36.1875 12.453125 25.875 
z
" id="ArialMT-100"/>
       <path d="M 40.4375 19 
L 49.078125 17.875 
Q 47.65625 8.9375 41.8125 3.875 
Q 35.984375 -1.171875 27.484375 -1.171875 
Q 16.84375 -1.171875 10.375 5.78125 
Q 3.90625 12.75 3.90625 25.734375 
Q 3.90625 34.125 6.6875 40.421875 
Q 9.46875 46.734375 15.15625 49.875 
Q 20.84375 53.03125 27.546875 53.03125 
Q 35.984375 53.03125 41.359375 48.75 
Q 46.734375 44.484375 48.25 36.625 
L 39.703125 35.296875 
Q 38.484375 40.53125 35.375 43.15625 
Q 32.28125 45.796875 27.875 45.796875 
Q 21.234375 45.796875 17.078125 41.03125 
Q 12.9375 36.28125 12.9375 25.984375 
Q 12.9375 15.53125 16.9375 10.796875 
Q 20.953125 6.0625 27.390625 6.0625 
Q 32.5625 6.0625 36.03125 9.234375 
Q 39.5 12.40625 40.4375 19 
z
" id="ArialMT-99"/>
       <path d="M 23.390625 -21.046875 
Q 16.109375 -11.859375 11.078125 0.4375 
Q 6.0625 12.75 6.0625 25.921875 
Q 6.0625 37.546875 9.8125 48.1875 
Q 14.203125 60.546875 23.390625 72.796875 
L 29.6875 72.796875 
Q 23.78125 62.640625 21.875 58.296875 
Q 18.890625 51.5625 17.1875 44.234375 
Q 15.09375 35.109375 15.09375 25.875 
Q 15.09375 2.390625 29.6875 -21.046875 
z
" id="ArialMT-40"/>
       <path d="M 7.859375 0 
L 7.859375 71.578125 
L 39.59375 71.578125 
Q 49.171875 71.578125 54.140625 69.640625 
Q 59.125 67.71875 62.109375 62.828125 
Q 65.09375 57.953125 65.09375 52.046875 
Q 65.09375 44.4375 60.15625 39.203125 
Q 55.21875 33.984375 44.921875 32.5625 
Q 48.6875 30.765625 50.640625 29 
Q 54.78125 25.203125 58.5 19.484375 
L 70.953125 0 
L 59.03125 0 
L 49.5625 14.890625 
Q 45.40625 21.34375 42.71875 24.75 
Q 40.046875 28.171875 37.921875 29.53125 
Q 35.796875 30.90625 33.59375 31.453125 
Q 31.984375 31.78125 28.328125 31.78125 
L 17.328125 31.78125 
L 17.328125 0 
z
M 17.328125 39.984375 
L 37.703125 39.984375 
Q 44.1875 39.984375 47.84375 41.328125 
Q 51.515625 42.671875 53.421875 45.625 
Q 55.328125 48.578125 55.328125 52.046875 
Q 55.328125 57.125 51.640625 60.390625 
Q 47.953125 63.671875 39.984375 63.671875 
L 17.328125 63.671875 
z
" id="ArialMT-82"/>
       <path d="M 6.390625 0 
L 6.390625 71.578125 
L 15.1875 71.578125 
L 15.1875 0 
z
" id="ArialMT-108"/>
       <path d="M 7.328125 0 
L 7.328125 71.578125 
L 34.1875 71.578125 
Q 42.390625 71.578125 47.34375 69.40625 
Q 52.296875 67.234375 55.09375 62.71875 
Q 57.90625 58.203125 57.90625 53.265625 
Q 57.90625 48.6875 55.421875 44.625 
Q 52.9375 40.578125 47.90625 38.09375 
Q 54.390625 36.1875 57.875 31.59375 
Q 61.375 27 61.375 20.75 
Q 61.375 15.71875 59.25 11.390625 
Q 57.125 7.078125 54 4.734375 
Q 50.875 2.390625 46.15625 1.1875 
Q 41.453125 0 34.625 0 
z
M 16.796875 41.5 
L 32.28125 41.5 
Q 38.578125 41.5 41.3125 42.328125 
Q 44.921875 43.40625 46.75 45.890625 
Q 48.578125 48.390625 48.578125 52.15625 
Q 48.578125 55.71875 46.875 58.421875 
Q 45.171875 61.140625 41.984375 62.140625 
Q 38.8125 63.140625 31.109375 63.140625 
L 16.796875 63.140625 
z
M 16.796875 8.453125 
L 34.625 8.453125 
Q 39.203125 8.453125 41.0625 8.796875 
Q 44.34375 9.375 46.53125 10.734375 
Q 48.734375 12.109375 50.140625 14.71875 
Q 51.5625 17.328125 51.5625 20.75 
Q 51.5625 24.75 49.515625 27.703125 
Q 47.46875 30.671875 43.828125 31.859375 
Q 40.1875 33.0625 33.34375 33.0625 
L 16.796875 33.0625 
z
" id="ArialMT-66"/>
       <path d="M 8.203125 0 
L 8.203125 71.578125 
L 56.5 71.578125 
L 56.5 63.140625 
L 17.671875 63.140625 
L 17.671875 40.96875 
L 51.265625 40.96875 
L 51.265625 32.515625 
L 17.671875 32.515625 
L 17.671875 0 
z
" id="ArialMT-70"/>
       <path d="M 40.578125 0 
L 40.578125 7.625 
Q 34.515625 -1.171875 24.125 -1.171875 
Q 19.53125 -1.171875 15.546875 0.578125 
Q 11.578125 2.34375 9.640625 5 
Q 7.71875 7.671875 6.9375 11.53125 
Q 6.390625 14.109375 6.390625 19.734375 
L 6.390625 51.859375 
L 15.1875 51.859375 
L 15.1875 23.09375 
Q 15.1875 16.21875 15.71875 13.8125 
Q 16.546875 10.359375 19.234375 8.375 
Q 21.921875 6.390625 25.875 6.390625 
Q 29.828125 6.390625 33.296875 8.421875 
Q 36.765625 10.453125 38.203125 13.9375 
Q 39.65625 17.4375 39.65625 24.078125 
L 39.65625 51.859375 
L 48.4375 51.859375 
L 48.4375 0 
z
" id="ArialMT-117"/>
       <path d="M 12.359375 -21.046875 
L 6.0625 -21.046875 
Q 20.65625 2.390625 20.65625 25.875 
Q 20.65625 35.0625 18.5625 44.09375 
Q 16.890625 51.421875 13.921875 58.15625 
Q 12.015625 62.546875 6.0625 72.796875 
L 12.359375 72.796875 
Q 21.53125 60.546875 25.921875 48.1875 
Q 29.6875 37.546875 29.6875 25.921875 
Q 29.6875 12.75 24.625 0.4375 
Q 19.578125 -11.859375 12.359375 -21.046875 
z
" id="ArialMT-41"/>
      </defs>
      <use xlink:href="#ArialMT-76"/>
      <use x="55.615234" xlink:href="#ArialMT-83"/>
      <use x="122.314453" xlink:href="#ArialMT-32"/>
      <use x="150.097656" xlink:href="#ArialMT-80"/>
      <use x="216.796875" xlink:href="#ArialMT-114"/>
      <use x="250.097656" xlink:href="#ArialMT-101"/>
      <use x="305.712891" xlink:href="#ArialMT-100"/>
      <use x="361.328125" xlink:href="#ArialMT-105"/>
      <use x="383.544922" xlink:href="#ArialMT-99"/>
      <use x="433.544922" xlink:href="#ArialMT-116"/>
      <use x="461.328125" xlink:href="#ArialMT-105"/>
      <use x="483.544922" xlink:href="#ArialMT-111"/>
      <use x="539.160156" xlink:href="#ArialMT-110"/>
      <use x="594.775391" xlink:href="#ArialMT-32"/>
      <use x="622.558594" xlink:href="#ArialMT-40"/>
      <use x="655.859375" xlink:href="#ArialMT-82"/>
      <use x="728.076172" xlink:href="#ArialMT-97"/>
      <use x="783.691406" xlink:href="#ArialMT-100"/>
      <use x="839.306641" xlink:href="#ArialMT-105"/>
      <use x="861.523438" xlink:href="#ArialMT-97"/>
      <use x="917.138672" xlink:href="#ArialMT-108"/>
      <use x="939.355469" xlink:href="#ArialMT-32"/>
      <use x="967.138672" xlink:href="#ArialMT-66"/>
      <use x="1033.837891" xlink:href="#ArialMT-97"/>
      <use x="1089.453125" xlink:href="#ArialMT-115"/>
      <use x="1139.453125" xlink:href="#ArialMT-105"/>
      <use x="1161.669922" xlink:href="#ArialMT-115"/>
      <use x="1211.669922" xlink:href="#ArialMT-32"/>
      <use x="1239.453125" xlink:href="#ArialMT-70"/>
      <use x="1300.537109" xlink:href="#ArialMT-117"/>
      <use x="1356.152344" xlink:href="#ArialMT-110"/>
      <use x="1411.767578" xlink:href="#ArialMT-99"/>
      <use x="1461.767578" xlink:href="#ArialMT-116"/>
      <use x="1489.550781" xlink:href="#ArialMT-105"/>
      <use x="1511.767578" xlink:href="#ArialMT-111"/>
      <use x="1567.382812" xlink:href="#ArialMT-110"/>
      <use x="1622.998047" xlink:href="#ArialMT-115"/>
      <use x="1672.998047" xlink:href="#ArialMT-41"/>
     </g>
    </g>
   </g>
  </g>
 </g>
 <defs>
  <clipPath id="pd88e17ee4e">
   <rect height="217.44" width="334.8" x="56.450156" y="7.2"/>
  </clipPath>
 </defs>
</svg>