<?xml version="1.0" encoding="utf-8" standalone="no"?>
<!DOCTYPE svg PUBLIC "-//W3C//DTD SVG 1.1//EN"
  "http://www.w3.org/Graphics/SVG/1.1/DTD/svg11.dtd">
<!-- Created with matplotlib (https://matplotlib.org/) -->
<svg height="266.799844pt" version="1.1" viewBox="0 0 386.641719 266.799844" width="386.641719pt" xmlns="http://www.w3.org/2000/svg" xmlns:xlink="http://www.w3.org/1999/xlink">
 <metadata>
  <rdf:RDF xmlns:cc="http://creativecommons.org/ns#" xmlns:dc="http://purl.org/dc/elements/1.1/" xmlns:rdf="http://www.w3.org/1999/02/22-rdf-syntax-ns#">
   <cc:Work>
    <dc:type rdf:resource="http://purl.org/dc/dcmitype/StillImage"/>
    <dc:date>2021-06-23T14:55:25.118792</dc:date>
    <dc:format>image/svg+xml</dc:format>
    <dc:creator>
     <cc:Agent>
      <dc:title>Matplotlib v3.3.4, https://matplotlib.org/</dc:title>
     </cc:Agent>
    </dc:creator>
   </cc:Work>
  </rdf:RDF>
 </metadata>
 <defs>
  <style type="text/css">*{stroke-linecap:butt;stroke-linejoin:round;}</style>
 </defs>
 <g id="figure_1">
  <g id="patch_1">
   <path d="M 0 266.799844 
L 386.641719 266.799844 
L 386.641719 0 
L 0 0 
z
" style="fill:#ffffff;"/>
  </g>
  <g id="axes_1">
   <g id="patch_2">
    <path d="M 44.641719 224.64 
L 379.441719 224.64 
L 379.441719 7.2 
L 44.641719 7.2 
z
" style="fill:#ffffff;"/>
   </g>
   <g id="matplotlib.axis_1">
    <g id="xtick_1">
     <g id="line2d_1">
      <defs>
       <path d="M 0 0 
L 0 6 
" id="m596690a4be" style="stroke:#262626;stroke-width:1.25;"/>
      </defs>
      <g>
       <use style="fill:#262626;stroke:#262626;stroke-width:1.25;" x="59.859901" xlink:href="#m596690a4be" y="224.64"/>
      </g>
     </g>
     <g id="text_1">
      <!-- 0 -->
      <g style="fill:#262626;" transform="translate(56.801385 242.013594)scale(0.11 -0.11)">
       <defs>
        <path d="M 4.15625 35.296875 
Q 4.15625 48 6.765625 55.734375 
Q 9.375 63.484375 14.515625 67.671875 
Q 19.671875 71.875 27.484375 71.875 
Q 33.25 71.875 37.59375 69.546875 
Q 41.9375 67.234375 44.765625 62.859375 
Q 47.609375 58.5 49.21875 52.21875 
Q 50.828125 45.953125 50.828125 35.296875 
Q 50.828125 22.703125 48.234375 14.96875 
Q 45.65625 7.234375 40.5 3 
Q 35.359375 -1.21875 27.484375 -1.21875 
Q 17.140625 -1.21875 11.234375 6.203125 
Q 4.15625 15.140625 4.15625 35.296875 
z
M 13.1875 35.296875 
Q 13.1875 17.671875 17.3125 11.828125 
Q 21.4375 6 27.484375 6 
Q 33.546875 6 37.671875 11.859375 
Q 41.796875 17.71875 41.796875 35.296875 
Q 41.796875 52.984375 37.671875 58.78125 
Q 33.546875 64.59375 27.390625 64.59375 
Q 21.34375 64.59375 17.71875 59.46875 
Q 13.1875 52.9375 13.1875 35.296875 
z
" id="ArialMT-48"/>
       </defs>
       <use xlink:href="#ArialMT-48"/>
      </g>
     </g>
    </g>
    <g id="xtick_2">
     <g id="line2d_2">
      <g>
       <use style="fill:#262626;stroke:#262626;stroke-width:1.25;" x="108.300878" xlink:href="#m596690a4be" y="224.64"/>
      </g>
     </g>
     <g id="text_2">
      <!-- 2 -->
      <g style="fill:#262626;" transform="translate(105.242362 242.013594)scale(0.11 -0.11)">
       <defs>
        <path d="M 50.34375 8.453125 
L 50.34375 0 
L 3.03125 0 
Q 2.9375 3.171875 4.046875 6.109375 
Q 5.859375 10.9375 9.828125 15.625 
Q 13.8125 20.3125 21.34375 26.46875 
Q 33.015625 36.03125 37.109375 41.625 
Q 41.21875 47.21875 41.21875 52.203125 
Q 41.21875 57.421875 37.46875 61 
Q 33.734375 64.59375 27.734375 64.59375 
Q 21.390625 64.59375 17.578125 60.78125 
Q 13.765625 56.984375 13.71875 50.25 
L 4.6875 51.171875 
Q 5.609375 61.28125 11.65625 66.578125 
Q 17.71875 71.875 27.9375 71.875 
Q 38.234375 71.875 44.234375 66.15625 
Q 50.25 60.453125 50.25 52 
Q 50.25 47.703125 48.484375 43.546875 
Q 46.734375 39.40625 42.65625 34.8125 
Q 38.578125 30.21875 29.109375 22.21875 
Q 21.1875 15.578125 18.9375 13.203125 
Q 16.703125 10.84375 15.234375 8.453125 
z
" id="ArialMT-50"/>
       </defs>
       <use xlink:href="#ArialMT-50"/>
      </g>
     </g>
    </g>
    <g id="xtick_3">
     <g id="line2d_3">
      <g>
       <use style="fill:#262626;stroke:#262626;stroke-width:1.25;" x="156.741855" xlink:href="#m596690a4be" y="224.64"/>
      </g>
     </g>
     <g id="text_3">
      <!-- 4 -->
      <g style="fill:#262626;" transform="translate(153.683339 242.013594)scale(0.11 -0.11)">
       <defs>
        <path d="M 32.328125 0 
L 32.328125 17.140625 
L 1.265625 17.140625 
L 1.265625 25.203125 
L 33.9375 71.578125 
L 41.109375 71.578125 
L 41.109375 25.203125 
L 50.78125 25.203125 
L 50.78125 17.140625 
L 41.109375 17.140625 
L 41.109375 0 
z
M 32.328125 25.203125 
L 32.328125 57.46875 
L 9.90625 25.203125 
z
" id="ArialMT-52"/>
       </defs>
       <use xlink:href="#ArialMT-52"/>
      </g>
     </g>
    </g>
    <g id="xtick_4">
     <g id="line2d_4">
      <g>
       <use style="fill:#262626;stroke:#262626;stroke-width:1.25;" x="205.182832" xlink:href="#m596690a4be" y="224.64"/>
      </g>
     </g>
     <g id="text_4">
      <!-- 6 -->
      <g style="fill:#262626;" transform="translate(202.124317 242.013594)scale(0.11 -0.11)">
       <defs>
        <path d="M 49.75 54.046875 
L 41.015625 53.375 
Q 39.84375 58.546875 37.703125 60.890625 
Q 34.125 64.65625 28.90625 64.65625 
Q 24.703125 64.65625 21.53125 62.3125 
Q 17.390625 59.28125 14.984375 53.46875 
Q 12.59375 47.65625 12.5 36.921875 
Q 15.671875 41.75 20.265625 44.09375 
Q 24.859375 46.4375 29.890625 46.4375 
Q 38.671875 46.4375 44.84375 39.96875 
Q 51.03125 33.5 51.03125 23.25 
Q 51.03125 16.5 48.125 10.71875 
Q 45.21875 4.9375 40.140625 1.859375 
Q 35.0625 -1.21875 28.609375 -1.21875 
Q 17.625 -1.21875 10.6875 6.859375 
Q 3.765625 14.9375 3.765625 33.5 
Q 3.765625 54.25 11.421875 63.671875 
Q 18.109375 71.875 29.4375 71.875 
Q 37.890625 71.875 43.28125 67.140625 
Q 48.6875 62.40625 49.75 54.046875 
z
M 13.875 23.1875 
Q 13.875 18.65625 15.796875 14.5 
Q 17.71875 10.359375 21.1875 8.171875 
Q 24.65625 6 28.46875 6 
Q 34.03125 6 38.03125 10.484375 
Q 42.046875 14.984375 42.046875 22.703125 
Q 42.046875 30.125 38.078125 34.390625 
Q 34.125 38.671875 28.125 38.671875 
Q 22.171875 38.671875 18.015625 34.390625 
Q 13.875 30.125 13.875 23.1875 
z
" id="ArialMT-54"/>
       </defs>
       <use xlink:href="#ArialMT-54"/>
      </g>
     </g>
    </g>
    <g id="xtick_5">
     <g id="line2d_5">
      <g>
       <use style="fill:#262626;stroke:#262626;stroke-width:1.25;" x="253.623809" xlink:href="#m596690a4be" y="224.64"/>
      </g>
     </g>
     <g id="text_5">
      <!-- 8 -->
      <g style="fill:#262626;" transform="translate(250.565294 242.013594)scale(0.11 -0.11)">
       <defs>
        <path d="M 17.671875 38.8125 
Q 12.203125 40.828125 9.5625 44.53125 
Q 6.9375 48.25 6.9375 53.421875 
Q 6.9375 61.234375 12.546875 66.546875 
Q 18.171875 71.875 27.484375 71.875 
Q 36.859375 71.875 42.578125 66.421875 
Q 48.296875 60.984375 48.296875 53.171875 
Q 48.296875 48.1875 45.671875 44.5 
Q 43.0625 40.828125 37.75 38.8125 
Q 44.34375 36.671875 47.78125 31.875 
Q 51.21875 27.09375 51.21875 20.453125 
Q 51.21875 11.28125 44.71875 5.03125 
Q 38.234375 -1.21875 27.640625 -1.21875 
Q 17.046875 -1.21875 10.546875 5.046875 
Q 4.046875 11.328125 4.046875 20.703125 
Q 4.046875 27.6875 7.59375 32.390625 
Q 11.140625 37.109375 17.671875 38.8125 
z
M 15.921875 53.71875 
Q 15.921875 48.640625 19.1875 45.40625 
Q 22.46875 42.1875 27.6875 42.1875 
Q 32.765625 42.1875 36.015625 45.375 
Q 39.265625 48.578125 39.265625 53.21875 
Q 39.265625 58.0625 35.90625 61.359375 
Q 32.5625 64.65625 27.59375 64.65625 
Q 22.5625 64.65625 19.234375 61.421875 
Q 15.921875 58.203125 15.921875 53.71875 
z
M 13.09375 20.65625 
Q 13.09375 16.890625 14.875 13.375 
Q 16.65625 9.859375 20.171875 7.921875 
Q 23.6875 6 27.734375 6 
Q 34.03125 6 38.125 10.046875 
Q 42.234375 14.109375 42.234375 20.359375 
Q 42.234375 26.703125 38.015625 30.859375 
Q 33.796875 35.015625 27.4375 35.015625 
Q 21.234375 35.015625 17.15625 30.90625 
Q 13.09375 26.8125 13.09375 20.65625 
z
" id="ArialMT-56"/>
       </defs>
       <use xlink:href="#ArialMT-56"/>
      </g>
     </g>
    </g>
    <g id="xtick_6">
     <g id="line2d_6">
      <g>
       <use style="fill:#262626;stroke:#262626;stroke-width:1.25;" x="302.064787" xlink:href="#m596690a4be" y="224.64"/>
      </g>
     </g>
     <g id="text_6">
      <!-- 10 -->
      <g style="fill:#262626;" transform="translate(295.947755 242.013594)scale(0.11 -0.11)">
       <defs>
        <path d="M 37.25 0 
L 28.46875 0 
L 28.46875 56 
Q 25.296875 52.984375 20.140625 49.953125 
Q 14.984375 46.921875 10.890625 45.40625 
L 10.890625 53.90625 
Q 18.265625 57.375 23.78125 62.296875 
Q 29.296875 67.234375 31.59375 71.875 
L 37.25 71.875 
z
" id="ArialMT-49"/>
       </defs>
       <use xlink:href="#ArialMT-49"/>
       <use x="55.615234" xlink:href="#ArialMT-48"/>
      </g>
     </g>
    </g>
    <g id="xtick_7">
     <g id="line2d_7">
      <g>
       <use style="fill:#262626;stroke:#262626;stroke-width:1.25;" x="350.505764" xlink:href="#m596690a4be" y="224.64"/>
      </g>
     </g>
     <g id="text_7">
      <!-- 12 -->
      <g style="fill:#262626;" transform="translate(344.388733 242.013594)scale(0.11 -0.11)">
       <use xlink:href="#ArialMT-49"/>
       <use x="55.615234" xlink:href="#ArialMT-50"/>
      </g>
     </g>
    </g>
    <g id="text_8">
     <!-- $t$ (Time) -->
     <g style="fill:#262626;" transform="translate(190.681719 256.959844)scale(0.12 -0.12)">
      <defs>
       <path d="M 42.28125 54.6875 
L 40.921875 47.703125 
L 23 47.703125 
L 17.1875 18.015625 
Q 16.890625 16.359375 16.75 15.234375 
Q 16.609375 14.109375 16.609375 13.484375 
Q 16.609375 10.359375 18.484375 8.9375 
Q 20.359375 7.515625 24.515625 7.515625 
L 33.59375 7.515625 
L 32.078125 0 
L 23.484375 0 
Q 15.484375 0 11.546875 3.125 
Q 7.625 6.25 7.625 12.59375 
Q 7.625 13.71875 7.765625 15.0625 
Q 7.90625 16.40625 8.203125 18.015625 
L 14.015625 47.703125 
L 6.390625 47.703125 
L 7.8125 54.6875 
L 15.28125 54.6875 
L 18.3125 70.21875 
L 27.296875 70.21875 
L 24.3125 54.6875 
z
" id="DejaVuSans-Oblique-116"/>
       <path id="ArialMT-32"/>
       <path d="M 23.390625 -21.046875 
Q 16.109375 -11.859375 11.078125 0.4375 
Q 6.0625 12.75 6.0625 25.921875 
Q 6.0625 37.546875 9.8125 48.1875 
Q 14.203125 60.546875 23.390625 72.796875 
L 29.6875 72.796875 
Q 23.78125 62.640625 21.875 58.296875 
Q 18.890625 51.5625 17.1875 44.234375 
Q 15.09375 35.109375 15.09375 25.875 
Q 15.09375 2.390625 29.6875 -21.046875 
z
" id="ArialMT-40"/>
       <path d="M 25.921875 0 
L 25.921875 63.140625 
L 2.34375 63.140625 
L 2.34375 71.578125 
L 59.078125 71.578125 
L 59.078125 63.140625 
L 35.40625 63.140625 
L 35.40625 0 
z
" id="ArialMT-84"/>
       <path d="M 6.640625 61.46875 
L 6.640625 71.578125 
L 15.4375 71.578125 
L 15.4375 61.46875 
z
M 6.640625 0 
L 6.640625 51.859375 
L 15.4375 51.859375 
L 15.4375 0 
z
" id="ArialMT-105"/>
       <path d="M 6.59375 0 
L 6.59375 51.859375 
L 14.453125 51.859375 
L 14.453125 44.578125 
Q 16.890625 48.390625 20.9375 50.703125 
Q 25 53.03125 30.171875 53.03125 
Q 35.9375 53.03125 39.625 50.640625 
Q 43.3125 48.25 44.828125 43.953125 
Q 50.984375 53.03125 60.84375 53.03125 
Q 68.5625 53.03125 72.703125 48.75 
Q 76.859375 44.484375 76.859375 35.59375 
L 76.859375 0 
L 68.109375 0 
L 68.109375 32.671875 
Q 68.109375 37.9375 67.25 40.25 
Q 66.40625 42.578125 64.15625 43.984375 
Q 61.921875 45.40625 58.890625 45.40625 
Q 53.421875 45.40625 49.796875 41.765625 
Q 46.1875 38.140625 46.1875 30.125 
L 46.1875 0 
L 37.40625 0 
L 37.40625 33.6875 
Q 37.40625 39.546875 35.25 42.46875 
Q 33.109375 45.40625 28.21875 45.40625 
Q 24.515625 45.40625 21.359375 43.453125 
Q 18.21875 41.5 16.796875 37.734375 
Q 15.375 33.984375 15.375 26.90625 
L 15.375 0 
z
" id="ArialMT-109"/>
       <path d="M 42.09375 16.703125 
L 51.171875 15.578125 
Q 49.03125 7.625 43.21875 3.21875 
Q 37.40625 -1.171875 28.375 -1.171875 
Q 17 -1.171875 10.328125 5.828125 
Q 3.65625 12.84375 3.65625 25.484375 
Q 3.65625 38.578125 10.390625 45.796875 
Q 17.140625 53.03125 27.875 53.03125 
Q 38.28125 53.03125 44.875 45.953125 
Q 51.46875 38.875 51.46875 26.03125 
Q 51.46875 25.25 51.421875 23.6875 
L 12.75 23.6875 
Q 13.234375 15.140625 17.578125 10.59375 
Q 21.921875 6.0625 28.421875 6.0625 
Q 33.25 6.0625 36.671875 8.59375 
Q 40.09375 11.140625 42.09375 16.703125 
z
M 13.234375 30.90625 
L 42.1875 30.90625 
Q 41.609375 37.453125 38.875 40.71875 
Q 34.671875 45.796875 27.984375 45.796875 
Q 21.921875 45.796875 17.796875 41.75 
Q 13.671875 37.703125 13.234375 30.90625 
z
" id="ArialMT-101"/>
       <path d="M 12.359375 -21.046875 
L 6.0625 -21.046875 
Q 20.65625 2.390625 20.65625 25.875 
Q 20.65625 35.0625 18.5625 44.09375 
Q 16.890625 51.421875 13.921875 58.15625 
Q 12.015625 62.546875 6.0625 72.796875 
L 12.359375 72.796875 
Q 21.53125 60.546875 25.921875 48.1875 
Q 29.6875 37.546875 29.6875 25.921875 
Q 29.6875 12.75 24.625 0.4375 
Q 19.578125 -11.859375 12.359375 -21.046875 
z
" id="ArialMT-41"/>
      </defs>
      <use transform="translate(0 0.203125)" xlink:href="#DejaVuSans-Oblique-116"/>
      <use transform="translate(39.208984 0.203125)" xlink:href="#ArialMT-32"/>
      <use transform="translate(66.992188 0.203125)" xlink:href="#ArialMT-40"/>
      <use transform="translate(100.292969 0.203125)" xlink:href="#ArialMT-84"/>
      <use transform="translate(161.376953 0.203125)" xlink:href="#ArialMT-105"/>
      <use transform="translate(183.59375 0.203125)" xlink:href="#ArialMT-109"/>
      <use transform="translate(266.894531 0.203125)" xlink:href="#ArialMT-101"/>
      <use transform="translate(322.509766 0.203125)" xlink:href="#ArialMT-41"/>
     </g>
    </g>
   </g>
   <g id="matplotlib.axis_2">
    <g id="ytick_1">
     <g id="line2d_8">
      <defs>
       <path d="M 0 0 
L -6 0 
" id="m7e02631d5b" style="stroke:#262626;stroke-width:1.25;"/>
      </defs>
      <g>
       <use style="fill:#262626;stroke:#262626;stroke-width:1.25;" x="44.641719" xlink:href="#m7e02631d5b" y="211.933644"/>
      </g>
     </g>
     <g id="text_9">
      <!-- −4 -->
      <g style="fill:#262626;" transform="translate(22.6 215.870441)scale(0.11 -0.11)">
       <defs>
        <path d="M 52.828125 31.203125 
L 5.5625 31.203125 
L 5.5625 39.40625 
L 52.828125 39.40625 
z
" id="ArialMT-8722"/>
       </defs>
       <use xlink:href="#ArialMT-8722"/>
       <use x="58.398438" xlink:href="#ArialMT-52"/>
      </g>
     </g>
    </g>
    <g id="ytick_2">
     <g id="line2d_9">
      <g>
       <use style="fill:#262626;stroke:#262626;stroke-width:1.25;" x="44.641719" xlink:href="#m7e02631d5b" y="165.087836"/>
      </g>
     </g>
     <g id="text_10">
      <!-- −2 -->
      <g style="fill:#262626;" transform="translate(22.6 169.024633)scale(0.11 -0.11)">
       <use xlink:href="#ArialMT-8722"/>
       <use x="58.398438" xlink:href="#ArialMT-50"/>
      </g>
     </g>
    </g>
    <g id="ytick_3">
     <g id="line2d_10">
      <g>
       <use style="fill:#262626;stroke:#262626;stroke-width:1.25;" x="44.641719" xlink:href="#m7e02631d5b" y="118.242028"/>
      </g>
     </g>
     <g id="text_11">
      <!-- 0 -->
      <g style="fill:#262626;" transform="translate(29.024688 122.178825)scale(0.11 -0.11)">
       <use xlink:href="#ArialMT-48"/>
      </g>
     </g>
    </g>
    <g id="ytick_4">
     <g id="line2d_11">
      <g>
       <use style="fill:#262626;stroke:#262626;stroke-width:1.25;" x="44.641719" xlink:href="#m7e02631d5b" y="71.396221"/>
      </g>
     </g>
     <g id="text_12">
      <!-- 2 -->
      <g style="fill:#262626;" transform="translate(29.024688 75.333018)scale(0.11 -0.11)">
       <use xlink:href="#ArialMT-50"/>
      </g>
     </g>
    </g>
    <g id="ytick_5">
     <g id="line2d_12">
      <g>
       <use style="fill:#262626;stroke:#262626;stroke-width:1.25;" x="44.641719" xlink:href="#m7e02631d5b" y="24.550413"/>
      </g>
     </g>
     <g id="text_13">
      <!-- 4 -->
      <g style="fill:#262626;" transform="translate(29.024688 28.48721)scale(0.11 -0.11)">
       <use xlink:href="#ArialMT-52"/>
      </g>
     </g>
    </g>
    <g id="text_14">
     <!-- $v$ (Velocity) -->
     <g style="fill:#262626;" transform="translate(15.96 146.16)rotate(-90)scale(0.12 -0.12)">
      <defs>
       <path d="M 7.171875 54.6875 
L 16.703125 54.6875 
L 24.703125 8.203125 
L 50.875 54.6875 
L 60.40625 54.6875 
L 29.296875 0 
L 17.1875 0 
z
" id="DejaVuSans-Oblique-118"/>
       <path d="M 28.171875 0 
L 0.4375 71.578125 
L 10.6875 71.578125 
L 29.296875 19.578125 
Q 31.546875 13.328125 33.0625 7.859375 
Q 34.71875 13.71875 36.921875 19.578125 
L 56.25 71.578125 
L 65.921875 71.578125 
L 37.890625 0 
z
" id="ArialMT-86"/>
       <path d="M 6.390625 0 
L 6.390625 71.578125 
L 15.1875 71.578125 
L 15.1875 0 
z
" id="ArialMT-108"/>
       <path d="M 3.328125 25.921875 
Q 3.328125 40.328125 11.328125 47.265625 
Q 18.015625 53.03125 27.640625 53.03125 
Q 38.328125 53.03125 45.109375 46.015625 
Q 51.90625 39.015625 51.90625 26.65625 
Q 51.90625 16.65625 48.90625 10.90625 
Q 45.90625 5.171875 40.15625 2 
Q 34.421875 -1.171875 27.640625 -1.171875 
Q 16.75 -1.171875 10.03125 5.8125 
Q 3.328125 12.796875 3.328125 25.921875 
z
M 12.359375 25.921875 
Q 12.359375 15.96875 16.703125 11.015625 
Q 21.046875 6.0625 27.640625 6.0625 
Q 34.1875 6.0625 38.53125 11.03125 
Q 42.875 16.015625 42.875 26.21875 
Q 42.875 35.84375 38.5 40.796875 
Q 34.125 45.75 27.640625 45.75 
Q 21.046875 45.75 16.703125 40.8125 
Q 12.359375 35.890625 12.359375 25.921875 
z
" id="ArialMT-111"/>
       <path d="M 40.4375 19 
L 49.078125 17.875 
Q 47.65625 8.9375 41.8125 3.875 
Q 35.984375 -1.171875 27.484375 -1.171875 
Q 16.84375 -1.171875 10.375 5.78125 
Q 3.90625 12.75 3.90625 25.734375 
Q 3.90625 34.125 6.6875 40.421875 
Q 9.46875 46.734375 15.15625 49.875 
Q 20.84375 53.03125 27.546875 53.03125 
Q 35.984375 53.03125 41.359375 48.75 
Q 46.734375 44.484375 48.25 36.625 
L 39.703125 35.296875 
Q 38.484375 40.53125 35.375 43.15625 
Q 32.28125 45.796875 27.875 45.796875 
Q 21.234375 45.796875 17.078125 41.03125 
Q 12.9375 36.28125 12.9375 25.984375 
Q 12.9375 15.53125 16.9375 10.796875 
Q 20.953125 6.0625 27.390625 6.0625 
Q 32.5625 6.0625 36.03125 9.234375 
Q 39.5 12.40625 40.4375 19 
z
" id="ArialMT-99"/>
       <path d="M 25.78125 7.859375 
L 27.046875 0.09375 
Q 23.34375 -0.6875 20.40625 -0.6875 
Q 15.625 -0.6875 12.984375 0.828125 
Q 10.359375 2.34375 9.28125 4.8125 
Q 8.203125 7.28125 8.203125 15.1875 
L 8.203125 45.015625 
L 1.765625 45.015625 
L 1.765625 51.859375 
L 8.203125 51.859375 
L 8.203125 64.703125 
L 16.9375 69.96875 
L 16.9375 51.859375 
L 25.78125 51.859375 
L 25.78125 45.015625 
L 16.9375 45.015625 
L 16.9375 14.703125 
Q 16.9375 10.9375 17.40625 9.859375 
Q 17.875 8.796875 18.921875 8.15625 
Q 19.96875 7.515625 21.921875 7.515625 
Q 23.390625 7.515625 25.78125 7.859375 
z
" id="ArialMT-116"/>
       <path d="M 6.203125 -19.96875 
L 5.21875 -11.71875 
Q 8.109375 -12.5 10.25 -12.5 
Q 13.1875 -12.5 14.9375 -11.515625 
Q 16.703125 -10.546875 17.828125 -8.796875 
Q 18.65625 -7.46875 20.515625 -2.25 
Q 20.75 -1.515625 21.296875 -0.09375 
L 1.609375 51.859375 
L 11.078125 51.859375 
L 21.875 21.828125 
Q 23.96875 16.109375 25.640625 9.8125 
Q 27.15625 15.875 29.25 21.625 
L 40.328125 51.859375 
L 49.125 51.859375 
L 29.390625 -0.875 
Q 26.21875 -9.421875 24.46875 -12.640625 
Q 22.125 -17 19.09375 -19.015625 
Q 16.0625 -21.046875 11.859375 -21.046875 
Q 9.328125 -21.046875 6.203125 -19.96875 
z
" id="ArialMT-121"/>
      </defs>
      <use transform="translate(0 0.203125)" xlink:href="#DejaVuSans-Oblique-118"/>
      <use transform="translate(59.179688 0.203125)" xlink:href="#ArialMT-32"/>
      <use transform="translate(86.962891 0.203125)" xlink:href="#ArialMT-40"/>
      <use transform="translate(120.263672 0.203125)" xlink:href="#ArialMT-86"/>
      <use transform="translate(186.962891 0.203125)" xlink:href="#ArialMT-101"/>
      <use transform="translate(242.578125 0.203125)" xlink:href="#ArialMT-108"/>
      <use transform="translate(264.794922 0.203125)" xlink:href="#ArialMT-111"/>
      <use transform="translate(320.410156 0.203125)" xlink:href="#ArialMT-99"/>
      <use transform="translate(370.410156 0.203125)" xlink:href="#ArialMT-105"/>
      <use transform="translate(392.626953 0.203125)" xlink:href="#ArialMT-116"/>
      <use transform="translate(420.410156 0.203125)" xlink:href="#ArialMT-121"/>
      <use transform="translate(470.410156 0.203125)" xlink:href="#ArialMT-41"/>
     </g>
    </g>
   </g>
   <g id="line2d_13">
    <path clip-path="url(#pf37510fc89)" d="M 59.859901 84.962853 
L 62.934281 116.172598 
L 66.008661 146.92098 
L 69.083041 172.450407 
L 72.157421 188.932019 
L 75.231801 194.036276 
L 78.306182 187.25669 
L 81.380562 169.942687 
L 84.454942 145.043783 
L 87.529322 116.611997 
L 90.603702 89.145735 
L 93.678082 66.880886 
L 96.752463 53.140404 
L 99.826843 49.841795 
L 102.901223 57.234934 
L 105.975603 73.905115 
L 109.049983 97.034199 
L 112.124363 122.872897 
L 115.198744 147.345633 
L 118.273124 166.690861 
L 121.347504 178.036616 
L 124.421884 179.823662 
L 127.496264 172.014434 
L 130.570644 156.060714 
L 133.645025 134.641127 
L 136.719405 111.214921 
L 139.793785 89.465865 
L 142.868165 72.725256 
L 145.942545 63.464059 
L 149.016925 62.931226 
L 152.091306 70.990605 
L 155.165686 86.176783 
L 158.240066 105.955695 
L 161.314446 127.14445 
L 164.388826 146.421276 
L 167.463206 160.844211 
L 170.537587 168.29789 
L 173.611967 167.800927 
L 176.686347 159.629702 
L 179.760727 145.243965 
L 182.835107 127.030763 
L 185.909487 107.910956 
L 188.983868 90.872804 
L 192.058248 78.506789 
L 195.132628 72.613799 
L 198.207008 73.94559 
L 201.281388 82.114495 
L 204.355768 95.682109 
L 207.430149 112.408726 
L 210.504529 129.620818 
L 213.578909 144.636571 
L 216.653289 155.182058 
L 219.727669 159.733702 
L 222.802049 157.735778 
L 225.876429 149.662348 
L 228.95081 136.917919 
L 232.02519 121.596274 
L 235.09957 106.138445 
L 238.17395 92.945397 
L 241.24833 84.006637 
L 244.32271 80.601948 
L 247.397091 83.120683 
L 250.471471 91.023697 
L 253.545851 102.950242 
L 256.620231 116.949622 
L 259.694611 130.798533 
L 262.768991 142.352745 
L 265.843372 149.877689 
L 268.917752 152.307228 
L 271.992132 149.39226 
L 275.066512 141.718877 
L 278.140892 130.59652 
L 281.215272 117.836752 
L 284.289653 105.459694 
L 287.364033 95.375468 
L 290.438413 89.090689 
L 293.512793 87.484904 
L 296.587173 90.689884 
L 299.661553 98.087937 
L 302.735934 108.426497 
L 305.810314 120.028315 
L 308.884694 131.062252 
L 311.959074 139.831148 
L 315.033454 145.031703 
L 318.107834 145.946744 
L 321.182215 142.541771 
L 324.256595 135.453194 
L 327.330975 125.872809 
L 330.405355 115.349021 
L 333.479735 105.537748 
L 336.554115 97.942882 
L 339.628496 93.686851 
L 342.702876 93.34608 
L 345.777256 96.875281 
L 348.851636 103.630055 
L 351.926016 112.481864 
L 355.000396 122.005201 
L 358.074777 130.706138 
L 361.149157 137.25575 
L 364.223537 140.692103 
" style="fill:none;stroke:#4c72b0;stroke-linecap:round;stroke-width:1.5;"/>
   </g>
   <g id="line2d_14">
    <defs>
     <path d="M 0 1.5 
C 0.397805 1.5 0.77937 1.341951 1.06066 1.06066 
C 1.341951 0.77937 1.5 0.397805 1.5 0 
C 1.5 -0.397805 1.341951 -0.77937 1.06066 -1.06066 
C 0.77937 -1.341951 0.397805 -1.5 0 -1.5 
C -0.397805 -1.5 -0.77937 -1.341951 -1.06066 -1.06066 
C -1.341951 -0.77937 -1.5 -0.397805 -1.5 0 
C -1.5 0.397805 -1.341951 0.77937 -1.06066 1.06066 
C -0.77937 1.341951 -0.397805 1.5 0 1.5 
z
" id="m29837c2b1b" style="stroke:#dd8452;"/>
    </defs>
    <g clip-path="url(#pf37510fc89)">
     <use style="fill:#dd8452;stroke:#dd8452;" x="59.859901" xlink:href="#m29837c2b1b" y="155.313359"/>
     <use style="fill:#dd8452;stroke:#dd8452;" x="62.934281" xlink:href="#m29837c2b1b" y="172.828079"/>
     <use style="fill:#dd8452;stroke:#dd8452;" x="66.008661" xlink:href="#m29837c2b1b" y="203.32919"/>
     <use style="fill:#dd8452;stroke:#dd8452;" x="69.083041" xlink:href="#m29837c2b1b" y="213.772631"/>
     <use style="fill:#dd8452;stroke:#dd8452;" x="72.157421" xlink:href="#m29837c2b1b" y="214.756364"/>
     <use style="fill:#dd8452;stroke:#dd8452;" x="75.231801" xlink:href="#m29837c2b1b" y="208.857811"/>
     <use style="fill:#dd8452;stroke:#dd8452;" x="78.306182" xlink:href="#m29837c2b1b" y="192.117917"/>
     <use style="fill:#dd8452;stroke:#dd8452;" x="81.380562" xlink:href="#m29837c2b1b" y="136.007233"/>
     <use style="fill:#dd8452;stroke:#dd8452;" x="84.454942" xlink:href="#m29837c2b1b" y="112.891108"/>
     <use style="fill:#dd8452;stroke:#dd8452;" x="87.529322" xlink:href="#m29837c2b1b" y="83.886986"/>
     <use style="fill:#dd8452;stroke:#dd8452;" x="90.603702" xlink:href="#m29837c2b1b" y="34.815849"/>
     <use style="fill:#dd8452;stroke:#dd8452;" x="93.678082" xlink:href="#m29837c2b1b" y="27.758313"/>
     <use style="fill:#dd8452;stroke:#dd8452;" x="96.752463" xlink:href="#m29837c2b1b" y="17.083636"/>
     <use style="fill:#dd8452;stroke:#dd8452;" x="99.826843" xlink:href="#m29837c2b1b" y="33.198824"/>
     <use style="fill:#dd8452;stroke:#dd8452;" x="102.901223" xlink:href="#m29837c2b1b" y="74.823301"/>
     <use style="fill:#dd8452;stroke:#dd8452;" x="105.975603" xlink:href="#m29837c2b1b" y="113.008473"/>
     <use style="fill:#dd8452;stroke:#dd8452;" x="109.049983" xlink:href="#m29837c2b1b" y="117.566594"/>
     <use style="fill:#dd8452;stroke:#dd8452;" x="112.124363" xlink:href="#m29837c2b1b" y="166.179856"/>
     <use style="fill:#dd8452;stroke:#dd8452;" x="115.198744" xlink:href="#m29837c2b1b" y="194.738689"/>
     <use style="fill:#dd8452;stroke:#dd8452;" x="118.273124" xlink:href="#m29837c2b1b" y="182.99651"/>
     <use style="fill:#dd8452;stroke:#dd8452;" x="121.347504" xlink:href="#m29837c2b1b" y="205.954858"/>
     <use style="fill:#dd8452;stroke:#dd8452;" x="124.421884" xlink:href="#m29837c2b1b" y="202.593193"/>
     <use style="fill:#dd8452;stroke:#dd8452;" x="127.496264" xlink:href="#m29837c2b1b" y="170.079465"/>
     <use style="fill:#dd8452;stroke:#dd8452;" x="130.570644" xlink:href="#m29837c2b1b" y="124.881924"/>
     <use style="fill:#dd8452;stroke:#dd8452;" x="133.645025" xlink:href="#m29837c2b1b" y="100.835383"/>
     <use style="fill:#dd8452;stroke:#dd8452;" x="136.719405" xlink:href="#m29837c2b1b" y="72.401795"/>
     <use style="fill:#dd8452;stroke:#dd8452;" x="139.793785" xlink:href="#m29837c2b1b" y="34.772308"/>
     <use style="fill:#dd8452;stroke:#dd8452;" x="142.868165" xlink:href="#m29837c2b1b" y="46.174957"/>
     <use style="fill:#dd8452;stroke:#dd8452;" x="145.942545" xlink:href="#m29837c2b1b" y="70.452992"/>
     <use style="fill:#dd8452;stroke:#dd8452;" x="149.016925" xlink:href="#m29837c2b1b" y="63.292121"/>
     <use style="fill:#dd8452;stroke:#dd8452;" x="152.091306" xlink:href="#m29837c2b1b" y="73.773201"/>
     <use style="fill:#dd8452;stroke:#dd8452;" x="155.165686" xlink:href="#m29837c2b1b" y="104.812265"/>
     <use style="fill:#dd8452;stroke:#dd8452;" x="158.240066" xlink:href="#m29837c2b1b" y="127.382512"/>
     <use style="fill:#dd8452;stroke:#dd8452;" x="161.314446" xlink:href="#m29837c2b1b" y="142.301424"/>
     <use style="fill:#dd8452;stroke:#dd8452;" x="164.388826" xlink:href="#m29837c2b1b" y="169.081892"/>
     <use style="fill:#dd8452;stroke:#dd8452;" x="167.463206" xlink:href="#m29837c2b1b" y="208.83772"/>
     <use style="fill:#dd8452;stroke:#dd8452;" x="170.537587" xlink:href="#m29837c2b1b" y="193.140598"/>
     <use style="fill:#dd8452;stroke:#dd8452;" x="173.611967" xlink:href="#m29837c2b1b" y="162.256709"/>
     <use style="fill:#dd8452;stroke:#dd8452;" x="176.686347" xlink:href="#m29837c2b1b" y="162.464263"/>
     <use style="fill:#dd8452;stroke:#dd8452;" x="179.760727" xlink:href="#m29837c2b1b" y="114.37332"/>
     <use style="fill:#dd8452;stroke:#dd8452;" x="182.835107" xlink:href="#m29837c2b1b" y="89.458898"/>
     <use style="fill:#dd8452;stroke:#dd8452;" x="185.909487" xlink:href="#m29837c2b1b" y="88.613289"/>
     <use style="fill:#dd8452;stroke:#dd8452;" x="188.983868" xlink:href="#m29837c2b1b" y="41.298797"/>
     <use style="fill:#dd8452;stroke:#dd8452;" x="192.058248" xlink:href="#m29837c2b1b" y="74.332546"/>
     <use style="fill:#dd8452;stroke:#dd8452;" x="195.132628" xlink:href="#m29837c2b1b" y="76.851648"/>
     <use style="fill:#dd8452;stroke:#dd8452;" x="198.207008" xlink:href="#m29837c2b1b" y="67.327132"/>
     <use style="fill:#dd8452;stroke:#dd8452;" x="201.281388" xlink:href="#m29837c2b1b" y="96.910399"/>
     <use style="fill:#dd8452;stroke:#dd8452;" x="204.355768" xlink:href="#m29837c2b1b" y="112.32772"/>
     <use style="fill:#dd8452;stroke:#dd8452;" x="207.430149" xlink:href="#m29837c2b1b" y="125.334896"/>
     <use style="fill:#dd8452;stroke:#dd8452;" x="210.504529" xlink:href="#m29837c2b1b" y="142.879503"/>
     <use style="fill:#dd8452;stroke:#dd8452;" x="213.578909" xlink:href="#m29837c2b1b" y="169.801003"/>
     <use style="fill:#dd8452;stroke:#dd8452;" x="216.653289" xlink:href="#m29837c2b1b" y="181.916665"/>
     <use style="fill:#dd8452;stroke:#dd8452;" x="219.727669" xlink:href="#m29837c2b1b" y="186.117669"/>
     <use style="fill:#dd8452;stroke:#dd8452;" x="222.802049" xlink:href="#m29837c2b1b" y="158.165947"/>
     <use style="fill:#dd8452;stroke:#dd8452;" x="225.876429" xlink:href="#m29837c2b1b" y="132.759512"/>
     <use style="fill:#dd8452;stroke:#dd8452;" x="228.95081" xlink:href="#m29837c2b1b" y="95.773096"/>
     <use style="fill:#dd8452;stroke:#dd8452;" x="232.02519" xlink:href="#m29837c2b1b" y="100.508991"/>
     <use style="fill:#dd8452;stroke:#dd8452;" x="235.09957" xlink:href="#m29837c2b1b" y="103.742959"/>
     <use style="fill:#dd8452;stroke:#dd8452;" x="238.17395" xlink:href="#m29837c2b1b" y="73.641551"/>
     <use style="fill:#dd8452;stroke:#dd8452;" x="241.24833" xlink:href="#m29837c2b1b" y="77.173649"/>
     <use style="fill:#dd8452;stroke:#dd8452;" x="244.32271" xlink:href="#m29837c2b1b" y="65.470908"/>
     <use style="fill:#dd8452;stroke:#dd8452;" x="247.397091" xlink:href="#m29837c2b1b" y="56.684828"/>
     <use style="fill:#dd8452;stroke:#dd8452;" x="250.471471" xlink:href="#m29837c2b1b" y="103.019496"/>
     <use style="fill:#dd8452;stroke:#dd8452;" x="253.545851" xlink:href="#m29837c2b1b" y="148.552229"/>
     <use style="fill:#dd8452;stroke:#dd8452;" x="256.620231" xlink:href="#m29837c2b1b" y="131.307732"/>
     <use style="fill:#dd8452;stroke:#dd8452;" x="259.694611" xlink:href="#m29837c2b1b" y="150.190629"/>
     <use style="fill:#dd8452;stroke:#dd8452;" x="262.768991" xlink:href="#m29837c2b1b" y="168.792077"/>
     <use style="fill:#dd8452;stroke:#dd8452;" x="265.843372" xlink:href="#m29837c2b1b" y="150.149604"/>
     <use style="fill:#dd8452;stroke:#dd8452;" x="268.917752" xlink:href="#m29837c2b1b" y="147.803136"/>
     <use style="fill:#dd8452;stroke:#dd8452;" x="271.992132" xlink:href="#m29837c2b1b" y="140.516337"/>
     <use style="fill:#dd8452;stroke:#dd8452;" x="275.066512" xlink:href="#m29837c2b1b" y="142.266127"/>
     <use style="fill:#dd8452;stroke:#dd8452;" x="278.140892" xlink:href="#m29837c2b1b" y="113.504056"/>
     <use style="fill:#dd8452;stroke:#dd8452;" x="281.215272" xlink:href="#m29837c2b1b" y="107.886581"/>
     <use style="fill:#dd8452;stroke:#dd8452;" x="284.289653" xlink:href="#m29837c2b1b" y="83.217477"/>
     <use style="fill:#dd8452;stroke:#dd8452;" x="287.364033" xlink:href="#m29837c2b1b" y="79.300981"/>
     <use style="fill:#dd8452;stroke:#dd8452;" x="290.438413" xlink:href="#m29837c2b1b" y="88.305869"/>
     <use style="fill:#dd8452;stroke:#dd8452;" x="293.512793" xlink:href="#m29837c2b1b" y="74.421272"/>
     <use style="fill:#dd8452;stroke:#dd8452;" x="296.587173" xlink:href="#m29837c2b1b" y="91.321864"/>
     <use style="fill:#dd8452;stroke:#dd8452;" x="299.661553" xlink:href="#m29837c2b1b" y="87.128386"/>
     <use style="fill:#dd8452;stroke:#dd8452;" x="302.735934" xlink:href="#m29837c2b1b" y="119.743162"/>
     <use style="fill:#dd8452;stroke:#dd8452;" x="305.810314" xlink:href="#m29837c2b1b" y="160.089844"/>
     <use style="fill:#dd8452;stroke:#dd8452;" x="308.884694" xlink:href="#m29837c2b1b" y="152.316003"/>
     <use style="fill:#dd8452;stroke:#dd8452;" x="311.959074" xlink:href="#m29837c2b1b" y="164.617096"/>
     <use style="fill:#dd8452;stroke:#dd8452;" x="315.033454" xlink:href="#m29837c2b1b" y="168.839231"/>
     <use style="fill:#dd8452;stroke:#dd8452;" x="318.107834" xlink:href="#m29837c2b1b" y="132.528279"/>
     <use style="fill:#dd8452;stroke:#dd8452;" x="321.182215" xlink:href="#m29837c2b1b" y="124.960815"/>
     <use style="fill:#dd8452;stroke:#dd8452;" x="324.256595" xlink:href="#m29837c2b1b" y="136.000638"/>
     <use style="fill:#dd8452;stroke:#dd8452;" x="327.330975" xlink:href="#m29837c2b1b" y="107.138694"/>
     <use style="fill:#dd8452;stroke:#dd8452;" x="330.405355" xlink:href="#m29837c2b1b" y="91.917497"/>
     <use style="fill:#dd8452;stroke:#dd8452;" x="333.479735" xlink:href="#m29837c2b1b" y="89.912341"/>
     <use style="fill:#dd8452;stroke:#dd8452;" x="336.554115" xlink:href="#m29837c2b1b" y="94.224831"/>
     <use style="fill:#dd8452;stroke:#dd8452;" x="339.628496" xlink:href="#m29837c2b1b" y="80.727947"/>
     <use style="fill:#dd8452;stroke:#dd8452;" x="342.702876" xlink:href="#m29837c2b1b" y="84.863699"/>
     <use style="fill:#dd8452;stroke:#dd8452;" x="345.777256" xlink:href="#m29837c2b1b" y="112.159832"/>
     <use style="fill:#dd8452;stroke:#dd8452;" x="348.851636" xlink:href="#m29837c2b1b" y="114.777631"/>
     <use style="fill:#dd8452;stroke:#dd8452;" x="351.926016" xlink:href="#m29837c2b1b" y="132.715673"/>
     <use style="fill:#dd8452;stroke:#dd8452;" x="355.000396" xlink:href="#m29837c2b1b" y="135.229793"/>
     <use style="fill:#dd8452;stroke:#dd8452;" x="358.074777" xlink:href="#m29837c2b1b" y="139.785477"/>
     <use style="fill:#dd8452;stroke:#dd8452;" x="361.149157" xlink:href="#m29837c2b1b" y="150.829638"/>
     <use style="fill:#dd8452;stroke:#dd8452;" x="364.223537" xlink:href="#m29837c2b1b" y="158.922172"/>
    </g>
   </g>
   <g id="patch_3">
    <path d="M 44.641719 224.64 
L 44.641719 7.2 
" style="fill:none;stroke:#262626;stroke-linecap:square;stroke-linejoin:miter;stroke-width:1.25;"/>
   </g>
   <g id="patch_4">
    <path d="M 379.441719 224.64 
L 379.441719 7.2 
" style="fill:none;stroke:#262626;stroke-linecap:square;stroke-linejoin:miter;stroke-width:1.25;"/>
   </g>
   <g id="patch_5">
    <path d="M 44.641719 224.64 
L 379.441719 224.64 
" style="fill:none;stroke:#262626;stroke-linecap:square;stroke-linejoin:miter;stroke-width:1.25;"/>
   </g>
   <g id="patch_6">
    <path d="M 44.641719 7.2 
L 379.441719 7.2 
" style="fill:none;stroke:#262626;stroke-linecap:square;stroke-linejoin:miter;stroke-width:1.25;"/>
   </g>
   <g id="legend_1">
    <g id="patch_7">
     <path d="M 81.623594 219.14 
L 371.741719 219.14 
Q 373.941719 219.14 373.941719 216.94 
L 373.941719 186.528437 
Q 373.941719 184.328437 371.741719 184.328437 
L 81.623594 184.328437 
Q 79.423594 184.328437 79.423594 186.528437 
L 79.423594 216.94 
Q 79.423594 219.14 81.623594 219.14 
z
" style="fill:#ffffff;opacity:0.8;stroke:#cccccc;stroke-linejoin:miter;"/>
    </g>
    <g id="line2d_15">
     <path d="M 83.823594 192.752031 
L 105.823594 192.752031 
" style="fill:none;stroke:#4c72b0;stroke-linecap:round;stroke-width:1.5;"/>
    </g>
    <g id="line2d_16"/>
    <g id="text_15">
     <!-- Unobserved true velocity -->
     <g style="fill:#262626;" transform="translate(114.623594 196.602031)scale(0.11 -0.11)">
      <defs>
       <path d="M 54.6875 71.578125 
L 64.15625 71.578125 
L 64.15625 30.21875 
Q 64.15625 19.4375 61.71875 13.078125 
Q 59.28125 6.734375 52.90625 2.75 
Q 46.53125 -1.21875 36.1875 -1.21875 
Q 26.125 -1.21875 19.71875 2.25 
Q 13.328125 5.71875 10.59375 12.28125 
Q 7.859375 18.84375 7.859375 30.21875 
L 7.859375 71.578125 
L 17.328125 71.578125 
L 17.328125 30.28125 
Q 17.328125 20.953125 19.0625 16.53125 
Q 20.796875 12.109375 25.015625 9.71875 
Q 29.25 7.328125 35.359375 7.328125 
Q 45.796875 7.328125 50.234375 12.0625 
Q 54.6875 16.796875 54.6875 30.28125 
z
" id="ArialMT-85"/>
       <path d="M 6.59375 0 
L 6.59375 51.859375 
L 14.5 51.859375 
L 14.5 44.484375 
Q 20.21875 53.03125 31 53.03125 
Q 35.6875 53.03125 39.625 51.34375 
Q 43.5625 49.65625 45.515625 46.921875 
Q 47.46875 44.1875 48.25 40.4375 
Q 48.734375 37.984375 48.734375 31.890625 
L 48.734375 0 
L 39.9375 0 
L 39.9375 31.546875 
Q 39.9375 36.921875 38.90625 39.578125 
Q 37.890625 42.234375 35.28125 43.8125 
Q 32.671875 45.40625 29.15625 45.40625 
Q 23.53125 45.40625 19.453125 41.84375 
Q 15.375 38.28125 15.375 28.328125 
L 15.375 0 
z
" id="ArialMT-110"/>
       <path d="M 14.703125 0 
L 6.546875 0 
L 6.546875 71.578125 
L 15.328125 71.578125 
L 15.328125 46.046875 
Q 20.90625 53.03125 29.546875 53.03125 
Q 34.328125 53.03125 38.59375 51.09375 
Q 42.875 49.171875 45.625 45.671875 
Q 48.390625 42.1875 49.953125 37.25 
Q 51.515625 32.328125 51.515625 26.703125 
Q 51.515625 13.375 44.921875 6.09375 
Q 38.328125 -1.171875 29.109375 -1.171875 
Q 19.921875 -1.171875 14.703125 6.5 
z
M 14.59375 26.3125 
Q 14.59375 17 17.140625 12.84375 
Q 21.296875 6.0625 28.375 6.0625 
Q 34.125 6.0625 38.328125 11.0625 
Q 42.53125 16.0625 42.53125 25.984375 
Q 42.53125 36.140625 38.5 40.96875 
Q 34.46875 45.796875 28.765625 45.796875 
Q 23 45.796875 18.796875 40.796875 
Q 14.59375 35.796875 14.59375 26.3125 
z
" id="ArialMT-98"/>
       <path d="M 3.078125 15.484375 
L 11.765625 16.84375 
Q 12.5 11.625 15.84375 8.84375 
Q 19.1875 6.0625 25.203125 6.0625 
Q 31.25 6.0625 34.171875 8.515625 
Q 37.109375 10.984375 37.109375 14.3125 
Q 37.109375 17.28125 34.515625 19 
Q 32.71875 20.171875 25.53125 21.96875 
Q 15.875 24.421875 12.140625 26.203125 
Q 8.40625 27.984375 6.46875 31.125 
Q 4.546875 34.28125 4.546875 38.09375 
Q 4.546875 41.546875 6.125 44.5 
Q 7.71875 47.46875 10.453125 49.421875 
Q 12.5 50.921875 16.03125 51.96875 
Q 19.578125 53.03125 23.640625 53.03125 
Q 29.734375 53.03125 34.34375 51.265625 
Q 38.96875 49.515625 41.15625 46.5 
Q 43.359375 43.5 44.1875 38.484375 
L 35.59375 37.3125 
Q 35.015625 41.3125 32.203125 43.546875 
Q 29.390625 45.796875 24.265625 45.796875 
Q 18.21875 45.796875 15.625 43.796875 
Q 13.03125 41.796875 13.03125 39.109375 
Q 13.03125 37.40625 14.109375 36.03125 
Q 15.1875 34.625 17.484375 33.6875 
Q 18.796875 33.203125 25.25 31.453125 
Q 34.578125 28.953125 38.25 27.359375 
Q 41.9375 25.78125 44.03125 22.75 
Q 46.140625 19.734375 46.140625 15.234375 
Q 46.140625 10.84375 43.578125 6.953125 
Q 41.015625 3.078125 36.171875 0.953125 
Q 31.34375 -1.171875 25.25 -1.171875 
Q 15.140625 -1.171875 9.84375 3.03125 
Q 4.546875 7.234375 3.078125 15.484375 
z
" id="ArialMT-115"/>
       <path d="M 6.5 0 
L 6.5 51.859375 
L 14.40625 51.859375 
L 14.40625 44 
Q 17.4375 49.515625 20 51.265625 
Q 22.5625 53.03125 25.640625 53.03125 
Q 30.078125 53.03125 34.671875 50.203125 
L 31.640625 42.046875 
Q 28.421875 43.953125 25.203125 43.953125 
Q 22.3125 43.953125 20.015625 42.21875 
Q 17.71875 40.484375 16.75 37.40625 
Q 15.28125 32.71875 15.28125 27.15625 
L 15.28125 0 
z
" id="ArialMT-114"/>
       <path d="M 21 0 
L 1.265625 51.859375 
L 10.546875 51.859375 
L 21.6875 20.796875 
Q 23.484375 15.765625 25 10.359375 
Q 26.171875 14.453125 28.265625 20.21875 
L 39.796875 51.859375 
L 48.828125 51.859375 
L 29.203125 0 
z
" id="ArialMT-118"/>
       <path d="M 40.234375 0 
L 40.234375 6.546875 
Q 35.296875 -1.171875 25.734375 -1.171875 
Q 19.53125 -1.171875 14.328125 2.25 
Q 9.125 5.671875 6.265625 11.796875 
Q 3.421875 17.921875 3.421875 25.875 
Q 3.421875 33.640625 6 39.96875 
Q 8.59375 46.296875 13.765625 49.65625 
Q 18.953125 53.03125 25.34375 53.03125 
Q 30.03125 53.03125 33.6875 51.046875 
Q 37.359375 49.078125 39.65625 45.90625 
L 39.65625 71.578125 
L 48.390625 71.578125 
L 48.390625 0 
z
M 12.453125 25.875 
Q 12.453125 15.921875 16.640625 10.984375 
Q 20.84375 6.0625 26.5625 6.0625 
Q 32.328125 6.0625 36.34375 10.765625 
Q 40.375 15.484375 40.375 25.140625 
Q 40.375 35.796875 36.265625 40.765625 
Q 32.171875 45.75 26.171875 45.75 
Q 20.3125 45.75 16.375 40.96875 
Q 12.453125 36.1875 12.453125 25.875 
z
" id="ArialMT-100"/>
       <path d="M 40.578125 0 
L 40.578125 7.625 
Q 34.515625 -1.171875 24.125 -1.171875 
Q 19.53125 -1.171875 15.546875 0.578125 
Q 11.578125 2.34375 9.640625 5 
Q 7.71875 7.671875 6.9375 11.53125 
Q 6.390625 14.109375 6.390625 19.734375 
L 6.390625 51.859375 
L 15.1875 51.859375 
L 15.1875 23.09375 
Q 15.1875 16.21875 15.71875 13.8125 
Q 16.546875 10.359375 19.234375 8.375 
Q 21.921875 6.390625 25.875 6.390625 
Q 29.828125 6.390625 33.296875 8.421875 
Q 36.765625 10.453125 38.203125 13.9375 
Q 39.65625 17.4375 39.65625 24.078125 
L 39.65625 51.859375 
L 48.4375 51.859375 
L 48.4375 0 
z
" id="ArialMT-117"/>
      </defs>
      <use xlink:href="#ArialMT-85"/>
      <use x="72.216797" xlink:href="#ArialMT-110"/>
      <use x="127.832031" xlink:href="#ArialMT-111"/>
      <use x="183.447266" xlink:href="#ArialMT-98"/>
      <use x="239.0625" xlink:href="#ArialMT-115"/>
      <use x="289.0625" xlink:href="#ArialMT-101"/>
      <use x="344.677734" xlink:href="#ArialMT-114"/>
      <use x="377.978516" xlink:href="#ArialMT-118"/>
      <use x="427.978516" xlink:href="#ArialMT-101"/>
      <use x="483.59375" xlink:href="#ArialMT-100"/>
      <use x="539.208984" xlink:href="#ArialMT-32"/>
      <use x="566.992188" xlink:href="#ArialMT-116"/>
      <use x="594.775391" xlink:href="#ArialMT-114"/>
      <use x="628.076172" xlink:href="#ArialMT-117"/>
      <use x="683.691406" xlink:href="#ArialMT-101"/>
      <use x="739.306641" xlink:href="#ArialMT-32"/>
      <use x="767.089844" xlink:href="#ArialMT-118"/>
      <use x="817.089844" xlink:href="#ArialMT-101"/>
      <use x="872.705078" xlink:href="#ArialMT-108"/>
      <use x="894.921875" xlink:href="#ArialMT-111"/>
      <use x="950.537109" xlink:href="#ArialMT-99"/>
      <use x="1000.537109" xlink:href="#ArialMT-105"/>
      <use x="1022.753906" xlink:href="#ArialMT-116"/>
      <use x="1050.537109" xlink:href="#ArialMT-121"/>
     </g>
    </g>
    <g id="line2d_17"/>
    <g id="line2d_18">
     <g>
      <use style="fill:#dd8452;stroke:#dd8452;" x="94.823594" xlink:href="#m29837c2b1b" y="208.574844"/>
     </g>
    </g>
    <g id="text_16">
     <!-- Reconstruction of velocity from noisy measurements -->
     <g style="fill:#262626;" transform="translate(114.623594 212.424844)scale(0.11 -0.11)">
      <defs>
       <path d="M 7.859375 0 
L 7.859375 71.578125 
L 39.59375 71.578125 
Q 49.171875 71.578125 54.140625 69.640625 
Q 59.125 67.71875 62.109375 62.828125 
Q 65.09375 57.953125 65.09375 52.046875 
Q 65.09375 44.4375 60.15625 39.203125 
Q 55.21875 33.984375 44.921875 32.5625 
Q 48.6875 30.765625 50.640625 29 
Q 54.78125 25.203125 58.5 19.484375 
L 70.953125 0 
L 59.03125 0 
L 49.5625 14.890625 
Q 45.40625 21.34375 42.71875 24.75 
Q 40.046875 28.171875 37.921875 29.53125 
Q 35.796875 30.90625 33.59375 31.453125 
Q 31.984375 31.78125 28.328125 31.78125 
L 17.328125 31.78125 
L 17.328125 0 
z
M 17.328125 39.984375 
L 37.703125 39.984375 
Q 44.1875 39.984375 47.84375 41.328125 
Q 51.515625 42.671875 53.421875 45.625 
Q 55.328125 48.578125 55.328125 52.046875 
Q 55.328125 57.125 51.640625 60.390625 
Q 47.953125 63.671875 39.984375 63.671875 
L 17.328125 63.671875 
z
" id="ArialMT-82"/>
       <path d="M 8.6875 0 
L 8.6875 45.015625 
L 0.921875 45.015625 
L 0.921875 51.859375 
L 8.6875 51.859375 
L 8.6875 57.375 
Q 8.6875 62.59375 9.625 65.140625 
Q 10.890625 68.5625 14.078125 70.671875 
Q 17.28125 72.796875 23.046875 72.796875 
Q 26.765625 72.796875 31.25 71.921875 
L 29.9375 64.265625 
Q 27.203125 64.75 24.75 64.75 
Q 20.75 64.75 19.09375 63.03125 
Q 17.4375 61.328125 17.4375 56.640625 
L 17.4375 51.859375 
L 27.546875 51.859375 
L 27.546875 45.015625 
L 17.4375 45.015625 
L 17.4375 0 
z
" id="ArialMT-102"/>
       <path d="M 40.4375 6.390625 
Q 35.546875 2.25 31.03125 0.53125 
Q 26.515625 -1.171875 21.34375 -1.171875 
Q 12.796875 -1.171875 8.203125 3 
Q 3.609375 7.171875 3.609375 13.671875 
Q 3.609375 17.484375 5.34375 20.625 
Q 7.078125 23.78125 9.890625 25.6875 
Q 12.703125 27.59375 16.21875 28.5625 
Q 18.796875 29.25 24.03125 29.890625 
Q 34.671875 31.15625 39.703125 32.90625 
Q 39.75 34.71875 39.75 35.203125 
Q 39.75 40.578125 37.25 42.78125 
Q 33.890625 45.75 27.25 45.75 
Q 21.046875 45.75 18.09375 43.578125 
Q 15.140625 41.40625 13.71875 35.890625 
L 5.125 37.0625 
Q 6.296875 42.578125 8.984375 45.96875 
Q 11.671875 49.359375 16.75 51.1875 
Q 21.828125 53.03125 28.515625 53.03125 
Q 35.15625 53.03125 39.296875 51.46875 
Q 43.453125 49.90625 45.40625 47.53125 
Q 47.359375 45.171875 48.140625 41.546875 
Q 48.578125 39.3125 48.578125 33.453125 
L 48.578125 21.734375 
Q 48.578125 9.46875 49.140625 6.21875 
Q 49.703125 2.984375 51.375 0 
L 42.1875 0 
Q 40.828125 2.734375 40.4375 6.390625 
z
M 39.703125 26.03125 
Q 34.90625 24.078125 25.34375 22.703125 
Q 19.921875 21.921875 17.671875 20.9375 
Q 15.4375 19.96875 14.203125 18.09375 
Q 12.984375 16.21875 12.984375 13.921875 
Q 12.984375 10.40625 15.640625 8.0625 
Q 18.3125 5.71875 23.4375 5.71875 
Q 28.515625 5.71875 32.46875 7.9375 
Q 36.421875 10.15625 38.28125 14.015625 
Q 39.703125 17 39.703125 22.796875 
z
" id="ArialMT-97"/>
      </defs>
      <use xlink:href="#ArialMT-82"/>
      <use x="72.216797" xlink:href="#ArialMT-101"/>
      <use x="127.832031" xlink:href="#ArialMT-99"/>
      <use x="177.832031" xlink:href="#ArialMT-111"/>
      <use x="233.447266" xlink:href="#ArialMT-110"/>
      <use x="289.0625" xlink:href="#ArialMT-115"/>
      <use x="339.0625" xlink:href="#ArialMT-116"/>
      <use x="366.845703" xlink:href="#ArialMT-114"/>
      <use x="400.146484" xlink:href="#ArialMT-117"/>
      <use x="455.761719" xlink:href="#ArialMT-99"/>
      <use x="505.761719" xlink:href="#ArialMT-116"/>
      <use x="533.544922" xlink:href="#ArialMT-105"/>
      <use x="555.761719" xlink:href="#ArialMT-111"/>
      <use x="611.376953" xlink:href="#ArialMT-110"/>
      <use x="666.992188" xlink:href="#ArialMT-32"/>
      <use x="694.775391" xlink:href="#ArialMT-111"/>
      <use x="750.390625" xlink:href="#ArialMT-102"/>
      <use x="778.173828" xlink:href="#ArialMT-32"/>
      <use x="805.957031" xlink:href="#ArialMT-118"/>
      <use x="855.957031" xlink:href="#ArialMT-101"/>
      <use x="911.572266" xlink:href="#ArialMT-108"/>
      <use x="933.789062" xlink:href="#ArialMT-111"/>
      <use x="989.404297" xlink:href="#ArialMT-99"/>
      <use x="1039.404297" xlink:href="#ArialMT-105"/>
      <use x="1061.621094" xlink:href="#ArialMT-116"/>
      <use x="1089.404297" xlink:href="#ArialMT-121"/>
      <use x="1139.404297" xlink:href="#ArialMT-32"/>
      <use x="1167.1875" xlink:href="#ArialMT-102"/>
      <use x="1194.970703" xlink:href="#ArialMT-114"/>
      <use x="1228.271484" xlink:href="#ArialMT-111"/>
      <use x="1283.886719" xlink:href="#ArialMT-109"/>
      <use x="1367.1875" xlink:href="#ArialMT-32"/>
      <use x="1394.970703" xlink:href="#ArialMT-110"/>
      <use x="1450.585938" xlink:href="#ArialMT-111"/>
      <use x="1506.201172" xlink:href="#ArialMT-105"/>
      <use x="1528.417969" xlink:href="#ArialMT-115"/>
      <use x="1578.417969" xlink:href="#ArialMT-121"/>
      <use x="1628.417969" xlink:href="#ArialMT-32"/>
      <use x="1656.201172" xlink:href="#ArialMT-109"/>
      <use x="1739.501953" xlink:href="#ArialMT-101"/>
      <use x="1795.117188" xlink:href="#ArialMT-97"/>
      <use x="1850.732422" xlink:href="#ArialMT-115"/>
      <use x="1900.732422" xlink:href="#ArialMT-117"/>
      <use x="1956.347656" xlink:href="#ArialMT-114"/>
      <use x="1989.648438" xlink:href="#ArialMT-101"/>
      <use x="2045.263672" xlink:href="#ArialMT-109"/>
      <use x="2128.564453" xlink:href="#ArialMT-101"/>
      <use x="2184.179688" xlink:href="#ArialMT-110"/>
      <use x="2239.794922" xlink:href="#ArialMT-116"/>
      <use x="2267.578125" xlink:href="#ArialMT-115"/>
     </g>
    </g>
   </g>
  </g>
 </g>
 <defs>
  <clipPath id="pf37510fc89">
   <rect height="217.44" width="334.8" x="44.641719" y="7.2"/>
  </clipPath>
 </defs>
</svg>