<?xml version="1.0" encoding="utf-8" standalone="no"?>
<!DOCTYPE svg PUBLIC "-//W3C//DTD SVG 1.1//EN"
  "http://www.w3.org/Graphics/SVG/1.1/DTD/svg11.dtd">
<!-- Created with matplotlib (https://matplotlib.org/) -->
<svg height="270.457266pt" version="1.1" viewBox="0 0 390.184396 270.457266" width="390.184396pt" xmlns="http://www.w3.org/2000/svg" xmlns:xlink="http://www.w3.org/1999/xlink">
 <metadata>
  <rdf:RDF xmlns:cc="http://creativecommons.org/ns#" xmlns:dc="http://purl.org/dc/elements/1.1/" xmlns:rdf="http://www.w3.org/1999/02/22-rdf-syntax-ns#">
   <cc:Work>
    <dc:type rdf:resource="http://purl.org/dc/dcmitype/StillImage"/>
    <dc:date>2021-07-02T13:22:53.091958</dc:date>
    <dc:format>image/svg+xml</dc:format>
    <dc:creator>
     <cc:Agent>
      <dc:title>Matplotlib v3.3.4, https://matplotlib.org/</dc:title>
     </cc:Agent>
    </dc:creator>
   </cc:Work>
  </rdf:RDF>
 </metadata>
 <defs>
  <style type="text/css">*{stroke-linecap:butt;stroke-linejoin:round;}</style>
 </defs>
 <g id="figure_1">
  <g id="patch_1">
   <path d="M 0 270.457266 
L 390.184396 270.457266 
L 390.184396 0 
L 0 0 
z
" style="fill:#ffffff;"/>
  </g>
  <g id="axes_1">
   <g id="patch_2">
    <path d="M 48.11 228.576797 
L 382.91 228.576797 
L 382.91 11.136797 
L 48.11 11.136797 
z
" style="fill:#ffffff;"/>
   </g>
   <g id="matplotlib.axis_1">
    <g id="xtick_1">
     <g id="line2d_1">
      <defs>
       <path d="M 0 0 
L 0 6 
" id="m7fb8245da4" style="stroke:#262626;stroke-width:1.25;"/>
      </defs>
      <g>
       <use style="fill:#262626;stroke:#262626;stroke-width:1.25;" x="63.297742" xlink:href="#m7fb8245da4" y="228.576797"/>
      </g>
     </g>
     <g id="text_1">
      <!-- 0 -->
      <g style="fill:#262626;" transform="translate(60.239227 245.950391)scale(0.11 -0.11)">
       <defs>
        <path d="M 4.15625 35.296875 
Q 4.15625 48 6.765625 55.734375 
Q 9.375 63.484375 14.515625 67.671875 
Q 19.671875 71.875 27.484375 71.875 
Q 33.25 71.875 37.59375 69.546875 
Q 41.9375 67.234375 44.765625 62.859375 
Q 47.609375 58.5 49.21875 52.21875 
Q 50.828125 45.953125 50.828125 35.296875 
Q 50.828125 22.703125 48.234375 14.96875 
Q 45.65625 7.234375 40.5 3 
Q 35.359375 -1.21875 27.484375 -1.21875 
Q 17.140625 -1.21875 11.234375 6.203125 
Q 4.15625 15.140625 4.15625 35.296875 
z
M 13.1875 35.296875 
Q 13.1875 17.671875 17.3125 11.828125 
Q 21.4375 6 27.484375 6 
Q 33.546875 6 37.671875 11.859375 
Q 41.796875 17.71875 41.796875 35.296875 
Q 41.796875 52.984375 37.671875 58.78125 
Q 33.546875 64.59375 27.390625 64.59375 
Q 21.34375 64.59375 17.71875 59.46875 
Q 13.1875 52.9375 13.1875 35.296875 
z
" id="ArialMT-48"/>
       </defs>
       <use xlink:href="#ArialMT-48"/>
      </g>
     </g>
    </g>
    <g id="xtick_2">
     <g id="line2d_2">
      <g>
       <use style="fill:#262626;stroke:#262626;stroke-width:1.25;" x="124.176558" xlink:href="#m7fb8245da4" y="228.576797"/>
      </g>
     </g>
     <g id="text_2">
      <!-- 2000 -->
      <g style="fill:#262626;" transform="translate(111.942495 245.950391)scale(0.11 -0.11)">
       <defs>
        <path d="M 50.34375 8.453125 
L 50.34375 0 
L 3.03125 0 
Q 2.9375 3.171875 4.046875 6.109375 
Q 5.859375 10.9375 9.828125 15.625 
Q 13.8125 20.3125 21.34375 26.46875 
Q 33.015625 36.03125 37.109375 41.625 
Q 41.21875 47.21875 41.21875 52.203125 
Q 41.21875 57.421875 37.46875 61 
Q 33.734375 64.59375 27.734375 64.59375 
Q 21.390625 64.59375 17.578125 60.78125 
Q 13.765625 56.984375 13.71875 50.25 
L 4.6875 51.171875 
Q 5.609375 61.28125 11.65625 66.578125 
Q 17.71875 71.875 27.9375 71.875 
Q 38.234375 71.875 44.234375 66.15625 
Q 50.25 60.453125 50.25 52 
Q 50.25 47.703125 48.484375 43.546875 
Q 46.734375 39.40625 42.65625 34.8125 
Q 38.578125 30.21875 29.109375 22.21875 
Q 21.1875 15.578125 18.9375 13.203125 
Q 16.703125 10.84375 15.234375 8.453125 
z
" id="ArialMT-50"/>
       </defs>
       <use xlink:href="#ArialMT-50"/>
       <use x="55.615234" xlink:href="#ArialMT-48"/>
       <use x="111.230469" xlink:href="#ArialMT-48"/>
       <use x="166.845703" xlink:href="#ArialMT-48"/>
      </g>
     </g>
    </g>
    <g id="xtick_3">
     <g id="line2d_3">
      <g>
       <use style="fill:#262626;stroke:#262626;stroke-width:1.25;" x="185.055373" xlink:href="#m7fb8245da4" y="228.576797"/>
      </g>
     </g>
     <g id="text_3">
      <!-- 4000 -->
      <g style="fill:#262626;" transform="translate(172.82131 245.950391)scale(0.11 -0.11)">
       <defs>
        <path d="M 32.328125 0 
L 32.328125 17.140625 
L 1.265625 17.140625 
L 1.265625 25.203125 
L 33.9375 71.578125 
L 41.109375 71.578125 
L 41.109375 25.203125 
L 50.78125 25.203125 
L 50.78125 17.140625 
L 41.109375 17.140625 
L 41.109375 0 
z
M 32.328125 25.203125 
L 32.328125 57.46875 
L 9.90625 25.203125 
z
" id="ArialMT-52"/>
       </defs>
       <use xlink:href="#ArialMT-52"/>
       <use x="55.615234" xlink:href="#ArialMT-48"/>
       <use x="111.230469" xlink:href="#ArialMT-48"/>
       <use x="166.845703" xlink:href="#ArialMT-48"/>
      </g>
     </g>
    </g>
    <g id="xtick_4">
     <g id="line2d_4">
      <g>
       <use style="fill:#262626;stroke:#262626;stroke-width:1.25;" x="245.934188" xlink:href="#m7fb8245da4" y="228.576797"/>
      </g>
     </g>
     <g id="text_4">
      <!-- 6000 -->
      <g style="fill:#262626;" transform="translate(233.700125 245.950391)scale(0.11 -0.11)">
       <defs>
        <path d="M 49.75 54.046875 
L 41.015625 53.375 
Q 39.84375 58.546875 37.703125 60.890625 
Q 34.125 64.65625 28.90625 64.65625 
Q 24.703125 64.65625 21.53125 62.3125 
Q 17.390625 59.28125 14.984375 53.46875 
Q 12.59375 47.65625 12.5 36.921875 
Q 15.671875 41.75 20.265625 44.09375 
Q 24.859375 46.4375 29.890625 46.4375 
Q 38.671875 46.4375 44.84375 39.96875 
Q 51.03125 33.5 51.03125 23.25 
Q 51.03125 16.5 48.125 10.71875 
Q 45.21875 4.9375 40.140625 1.859375 
Q 35.0625 -1.21875 28.609375 -1.21875 
Q 17.625 -1.21875 10.6875 6.859375 
Q 3.765625 14.9375 3.765625 33.5 
Q 3.765625 54.25 11.421875 63.671875 
Q 18.109375 71.875 29.4375 71.875 
Q 37.890625 71.875 43.28125 67.140625 
Q 48.6875 62.40625 49.75 54.046875 
z
M 13.875 23.1875 
Q 13.875 18.65625 15.796875 14.5 
Q 17.71875 10.359375 21.1875 8.171875 
Q 24.65625 6 28.46875 6 
Q 34.03125 6 38.03125 10.484375 
Q 42.046875 14.984375 42.046875 22.703125 
Q 42.046875 30.125 38.078125 34.390625 
Q 34.125 38.671875 28.125 38.671875 
Q 22.171875 38.671875 18.015625 34.390625 
Q 13.875 30.125 13.875 23.1875 
z
" id="ArialMT-54"/>
       </defs>
       <use xlink:href="#ArialMT-54"/>
       <use x="55.615234" xlink:href="#ArialMT-48"/>
       <use x="111.230469" xlink:href="#ArialMT-48"/>
       <use x="166.845703" xlink:href="#ArialMT-48"/>
      </g>
     </g>
    </g>
    <g id="xtick_5">
     <g id="line2d_5">
      <g>
       <use style="fill:#262626;stroke:#262626;stroke-width:1.25;" x="306.813003" xlink:href="#m7fb8245da4" y="228.576797"/>
      </g>
     </g>
     <g id="text_5">
      <!-- 8000 -->
      <g style="fill:#262626;" transform="translate(294.578941 245.950391)scale(0.11 -0.11)">
       <defs>
        <path d="M 17.671875 38.8125 
Q 12.203125 40.828125 9.5625 44.53125 
Q 6.9375 48.25 6.9375 53.421875 
Q 6.9375 61.234375 12.546875 66.546875 
Q 18.171875 71.875 27.484375 71.875 
Q 36.859375 71.875 42.578125 66.421875 
Q 48.296875 60.984375 48.296875 53.171875 
Q 48.296875 48.1875 45.671875 44.5 
Q 43.0625 40.828125 37.75 38.8125 
Q 44.34375 36.671875 47.78125 31.875 
Q 51.21875 27.09375 51.21875 20.453125 
Q 51.21875 11.28125 44.71875 5.03125 
Q 38.234375 -1.21875 27.640625 -1.21875 
Q 17.046875 -1.21875 10.546875 5.046875 
Q 4.046875 11.328125 4.046875 20.703125 
Q 4.046875 27.6875 7.59375 32.390625 
Q 11.140625 37.109375 17.671875 38.8125 
z
M 15.921875 53.71875 
Q 15.921875 48.640625 19.1875 45.40625 
Q 22.46875 42.1875 27.6875 42.1875 
Q 32.765625 42.1875 36.015625 45.375 
Q 39.265625 48.578125 39.265625 53.21875 
Q 39.265625 58.0625 35.90625 61.359375 
Q 32.5625 64.65625 27.59375 64.65625 
Q 22.5625 64.65625 19.234375 61.421875 
Q 15.921875 58.203125 15.921875 53.71875 
z
M 13.09375 20.65625 
Q 13.09375 16.890625 14.875 13.375 
Q 16.65625 9.859375 20.171875 7.921875 
Q 23.6875 6 27.734375 6 
Q 34.03125 6 38.125 10.046875 
Q 42.234375 14.109375 42.234375 20.359375 
Q 42.234375 26.703125 38.015625 30.859375 
Q 33.796875 35.015625 27.4375 35.015625 
Q 21.234375 35.015625 17.15625 30.90625 
Q 13.09375 26.8125 13.09375 20.65625 
z
" id="ArialMT-56"/>
       </defs>
       <use xlink:href="#ArialMT-56"/>
       <use x="55.615234" xlink:href="#ArialMT-48"/>
       <use x="111.230469" xlink:href="#ArialMT-48"/>
       <use x="166.845703" xlink:href="#ArialMT-48"/>
      </g>
     </g>
    </g>
    <g id="xtick_6">
     <g id="line2d_6">
      <g>
       <use style="fill:#262626;stroke:#262626;stroke-width:1.25;" x="367.691818" xlink:href="#m7fb8245da4" y="228.576797"/>
      </g>
     </g>
     <g id="text_6">
      <!-- 10000 -->
      <g style="fill:#262626;" transform="translate(352.39924 245.950391)scale(0.11 -0.11)">
       <defs>
        <path d="M 37.25 0 
L 28.46875 0 
L 28.46875 56 
Q 25.296875 52.984375 20.140625 49.953125 
Q 14.984375 46.921875 10.890625 45.40625 
L 10.890625 53.90625 
Q 18.265625 57.375 23.78125 62.296875 
Q 29.296875 67.234375 31.59375 71.875 
L 37.25 71.875 
z
" id="ArialMT-49"/>
       </defs>
       <use xlink:href="#ArialMT-49"/>
       <use x="55.615234" xlink:href="#ArialMT-48"/>
       <use x="111.230469" xlink:href="#ArialMT-48"/>
       <use x="166.845703" xlink:href="#ArialMT-48"/>
       <use x="222.460938" xlink:href="#ArialMT-48"/>
      </g>
     </g>
    </g>
    <g id="text_7">
     <!-- Number of experiments -->
     <g style="fill:#262626;" transform="translate(153.155937 260.872266)scale(0.12 -0.12)">
      <defs>
       <path d="M 7.625 0 
L 7.625 71.578125 
L 17.328125 71.578125 
L 54.9375 15.375 
L 54.9375 71.578125 
L 64.015625 71.578125 
L 64.015625 0 
L 54.296875 0 
L 16.703125 56.25 
L 16.703125 0 
z
" id="ArialMT-78"/>
       <path d="M 40.578125 0 
L 40.578125 7.625 
Q 34.515625 -1.171875 24.125 -1.171875 
Q 19.53125 -1.171875 15.546875 0.578125 
Q 11.578125 2.34375 9.640625 5 
Q 7.71875 7.671875 6.9375 11.53125 
Q 6.390625 14.109375 6.390625 19.734375 
L 6.390625 51.859375 
L 15.1875 51.859375 
L 15.1875 23.09375 
Q 15.1875 16.21875 15.71875 13.8125 
Q 16.546875 10.359375 19.234375 8.375 
Q 21.921875 6.390625 25.875 6.390625 
Q 29.828125 6.390625 33.296875 8.421875 
Q 36.765625 10.453125 38.203125 13.9375 
Q 39.65625 17.4375 39.65625 24.078125 
L 39.65625 51.859375 
L 48.4375 51.859375 
L 48.4375 0 
z
" id="ArialMT-117"/>
       <path d="M 6.59375 0 
L 6.59375 51.859375 
L 14.453125 51.859375 
L 14.453125 44.578125 
Q 16.890625 48.390625 20.9375 50.703125 
Q 25 53.03125 30.171875 53.03125 
Q 35.9375 53.03125 39.625 50.640625 
Q 43.3125 48.25 44.828125 43.953125 
Q 50.984375 53.03125 60.84375 53.03125 
Q 68.5625 53.03125 72.703125 48.75 
Q 76.859375 44.484375 76.859375 35.59375 
L 76.859375 0 
L 68.109375 0 
L 68.109375 32.671875 
Q 68.109375 37.9375 67.25 40.25 
Q 66.40625 42.578125 64.15625 43.984375 
Q 61.921875 45.40625 58.890625 45.40625 
Q 53.421875 45.40625 49.796875 41.765625 
Q 46.1875 38.140625 46.1875 30.125 
L 46.1875 0 
L 37.40625 0 
L 37.40625 33.6875 
Q 37.40625 39.546875 35.25 42.46875 
Q 33.109375 45.40625 28.21875 45.40625 
Q 24.515625 45.40625 21.359375 43.453125 
Q 18.21875 41.5 16.796875 37.734375 
Q 15.375 33.984375 15.375 26.90625 
L 15.375 0 
z
" id="ArialMT-109"/>
       <path d="M 14.703125 0 
L 6.546875 0 
L 6.546875 71.578125 
L 15.328125 71.578125 
L 15.328125 46.046875 
Q 20.90625 53.03125 29.546875 53.03125 
Q 34.328125 53.03125 38.59375 51.09375 
Q 42.875 49.171875 45.625 45.671875 
Q 48.390625 42.1875 49.953125 37.25 
Q 51.515625 32.328125 51.515625 26.703125 
Q 51.515625 13.375 44.921875 6.09375 
Q 38.328125 -1.171875 29.109375 -1.171875 
Q 19.921875 -1.171875 14.703125 6.5 
z
M 14.59375 26.3125 
Q 14.59375 17 17.140625 12.84375 
Q 21.296875 6.0625 28.375 6.0625 
Q 34.125 6.0625 38.328125 11.0625 
Q 42.53125 16.0625 42.53125 25.984375 
Q 42.53125 36.140625 38.5 40.96875 
Q 34.46875 45.796875 28.765625 45.796875 
Q 23 45.796875 18.796875 40.796875 
Q 14.59375 35.796875 14.59375 26.3125 
z
" id="ArialMT-98"/>
       <path d="M 42.09375 16.703125 
L 51.171875 15.578125 
Q 49.03125 7.625 43.21875 3.21875 
Q 37.40625 -1.171875 28.375 -1.171875 
Q 17 -1.171875 10.328125 5.828125 
Q 3.65625 12.84375 3.65625 25.484375 
Q 3.65625 38.578125 10.390625 45.796875 
Q 17.140625 53.03125 27.875 53.03125 
Q 38.28125 53.03125 44.875 45.953125 
Q 51.46875 38.875 51.46875 26.03125 
Q 51.46875 25.25 51.421875 23.6875 
L 12.75 23.6875 
Q 13.234375 15.140625 17.578125 10.59375 
Q 21.921875 6.0625 28.421875 6.0625 
Q 33.25 6.0625 36.671875 8.59375 
Q 40.09375 11.140625 42.09375 16.703125 
z
M 13.234375 30.90625 
L 42.1875 30.90625 
Q 41.609375 37.453125 38.875 40.71875 
Q 34.671875 45.796875 27.984375 45.796875 
Q 21.921875 45.796875 17.796875 41.75 
Q 13.671875 37.703125 13.234375 30.90625 
z
" id="ArialMT-101"/>
       <path d="M 6.5 0 
L 6.5 51.859375 
L 14.40625 51.859375 
L 14.40625 44 
Q 17.4375 49.515625 20 51.265625 
Q 22.5625 53.03125 25.640625 53.03125 
Q 30.078125 53.03125 34.671875 50.203125 
L 31.640625 42.046875 
Q 28.421875 43.953125 25.203125 43.953125 
Q 22.3125 43.953125 20.015625 42.21875 
Q 17.71875 40.484375 16.75 37.40625 
Q 15.28125 32.71875 15.28125 27.15625 
L 15.28125 0 
z
" id="ArialMT-114"/>
       <path id="ArialMT-32"/>
       <path d="M 3.328125 25.921875 
Q 3.328125 40.328125 11.328125 47.265625 
Q 18.015625 53.03125 27.640625 53.03125 
Q 38.328125 53.03125 45.109375 46.015625 
Q 51.90625 39.015625 51.90625 26.65625 
Q 51.90625 16.65625 48.90625 10.90625 
Q 45.90625 5.171875 40.15625 2 
Q 34.421875 -1.171875 27.640625 -1.171875 
Q 16.75 -1.171875 10.03125 5.8125 
Q 3.328125 12.796875 3.328125 25.921875 
z
M 12.359375 25.921875 
Q 12.359375 15.96875 16.703125 11.015625 
Q 21.046875 6.0625 27.640625 6.0625 
Q 34.1875 6.0625 38.53125 11.03125 
Q 42.875 16.015625 42.875 26.21875 
Q 42.875 35.84375 38.5 40.796875 
Q 34.125 45.75 27.640625 45.75 
Q 21.046875 45.75 16.703125 40.8125 
Q 12.359375 35.890625 12.359375 25.921875 
z
" id="ArialMT-111"/>
       <path d="M 8.6875 0 
L 8.6875 45.015625 
L 0.921875 45.015625 
L 0.921875 51.859375 
L 8.6875 51.859375 
L 8.6875 57.375 
Q 8.6875 62.59375 9.625 65.140625 
Q 10.890625 68.5625 14.078125 70.671875 
Q 17.28125 72.796875 23.046875 72.796875 
Q 26.765625 72.796875 31.25 71.921875 
L 29.9375 64.265625 
Q 27.203125 64.75 24.75 64.75 
Q 20.75 64.75 19.09375 63.03125 
Q 17.4375 61.328125 17.4375 56.640625 
L 17.4375 51.859375 
L 27.546875 51.859375 
L 27.546875 45.015625 
L 17.4375 45.015625 
L 17.4375 0 
z
" id="ArialMT-102"/>
       <path d="M 0.734375 0 
L 19.671875 26.953125 
L 2.15625 51.859375 
L 13.140625 51.859375 
L 21.09375 39.703125 
Q 23.34375 36.234375 24.703125 33.890625 
Q 26.859375 37.109375 28.65625 39.59375 
L 37.40625 51.859375 
L 47.90625 51.859375 
L 29.984375 27.4375 
L 49.265625 0 
L 38.484375 0 
L 27.828125 16.109375 
L 25 20.453125 
L 11.375 0 
z
" id="ArialMT-120"/>
       <path d="M 6.59375 -19.875 
L 6.59375 51.859375 
L 14.59375 51.859375 
L 14.59375 45.125 
Q 17.4375 49.078125 21 51.046875 
Q 24.5625 53.03125 29.640625 53.03125 
Q 36.28125 53.03125 41.359375 49.609375 
Q 46.4375 46.1875 49.015625 39.953125 
Q 51.609375 33.734375 51.609375 26.3125 
Q 51.609375 18.359375 48.75 11.984375 
Q 45.90625 5.609375 40.453125 2.21875 
Q 35.015625 -1.171875 29 -1.171875 
Q 24.609375 -1.171875 21.109375 0.6875 
Q 17.625 2.546875 15.375 5.375 
L 15.375 -19.875 
z
M 14.546875 25.640625 
Q 14.546875 15.625 18.59375 10.84375 
Q 22.65625 6.0625 28.421875 6.0625 
Q 34.28125 6.0625 38.453125 11.015625 
Q 42.625 15.96875 42.625 26.375 
Q 42.625 36.28125 38.546875 41.203125 
Q 34.46875 46.140625 28.8125 46.140625 
Q 23.1875 46.140625 18.859375 40.890625 
Q 14.546875 35.640625 14.546875 25.640625 
z
" id="ArialMT-112"/>
       <path d="M 6.640625 61.46875 
L 6.640625 71.578125 
L 15.4375 71.578125 
L 15.4375 61.46875 
z
M 6.640625 0 
L 6.640625 51.859375 
L 15.4375 51.859375 
L 15.4375 0 
z
" id="ArialMT-105"/>
       <path d="M 6.59375 0 
L 6.59375 51.859375 
L 14.5 51.859375 
L 14.5 44.484375 
Q 20.21875 53.03125 31 53.03125 
Q 35.6875 53.03125 39.625 51.34375 
Q 43.5625 49.65625 45.515625 46.921875 
Q 47.46875 44.1875 48.25 40.4375 
Q 48.734375 37.984375 48.734375 31.890625 
L 48.734375 0 
L 39.9375 0 
L 39.9375 31.546875 
Q 39.9375 36.921875 38.90625 39.578125 
Q 37.890625 42.234375 35.28125 43.8125 
Q 32.671875 45.40625 29.15625 45.40625 
Q 23.53125 45.40625 19.453125 41.84375 
Q 15.375 38.28125 15.375 28.328125 
L 15.375 0 
z
" id="ArialMT-110"/>
       <path d="M 25.78125 7.859375 
L 27.046875 0.09375 
Q 23.34375 -0.6875 20.40625 -0.6875 
Q 15.625 -0.6875 12.984375 0.828125 
Q 10.359375 2.34375 9.28125 4.8125 
Q 8.203125 7.28125 8.203125 15.1875 
L 8.203125 45.015625 
L 1.765625 45.015625 
L 1.765625 51.859375 
L 8.203125 51.859375 
L 8.203125 64.703125 
L 16.9375 69.96875 
L 16.9375 51.859375 
L 25.78125 51.859375 
L 25.78125 45.015625 
L 16.9375 45.015625 
L 16.9375 14.703125 
Q 16.9375 10.9375 17.40625 9.859375 
Q 17.875 8.796875 18.921875 8.15625 
Q 19.96875 7.515625 21.921875 7.515625 
Q 23.390625 7.515625 25.78125 7.859375 
z
" id="ArialMT-116"/>
       <path d="M 3.078125 15.484375 
L 11.765625 16.84375 
Q 12.5 11.625 15.84375 8.84375 
Q 19.1875 6.0625 25.203125 6.0625 
Q 31.25 6.0625 34.171875 8.515625 
Q 37.109375 10.984375 37.109375 14.3125 
Q 37.109375 17.28125 34.515625 19 
Q 32.71875 20.171875 25.53125 21.96875 
Q 15.875 24.421875 12.140625 26.203125 
Q 8.40625 27.984375 6.46875 31.125 
Q 4.546875 34.28125 4.546875 38.09375 
Q 4.546875 41.546875 6.125 44.5 
Q 7.71875 47.46875 10.453125 49.421875 
Q 12.5 50.921875 16.03125 51.96875 
Q 19.578125 53.03125 23.640625 53.03125 
Q 29.734375 53.03125 34.34375 51.265625 
Q 38.96875 49.515625 41.15625 46.5 
Q 43.359375 43.5 44.1875 38.484375 
L 35.59375 37.3125 
Q 35.015625 41.3125 32.203125 43.546875 
Q 29.390625 45.796875 24.265625 45.796875 
Q 18.21875 45.796875 15.625 43.796875 
Q 13.03125 41.796875 13.03125 39.109375 
Q 13.03125 37.40625 14.109375 36.03125 
Q 15.1875 34.625 17.484375 33.6875 
Q 18.796875 33.203125 25.25 31.453125 
Q 34.578125 28.953125 38.25 27.359375 
Q 41.9375 25.78125 44.03125 22.75 
Q 46.140625 19.734375 46.140625 15.234375 
Q 46.140625 10.84375 43.578125 6.953125 
Q 41.015625 3.078125 36.171875 0.953125 
Q 31.34375 -1.171875 25.25 -1.171875 
Q 15.140625 -1.171875 9.84375 3.03125 
Q 4.546875 7.234375 3.078125 15.484375 
z
" id="ArialMT-115"/>
      </defs>
      <use xlink:href="#ArialMT-78"/>
      <use x="72.216797" xlink:href="#ArialMT-117"/>
      <use x="127.832031" xlink:href="#ArialMT-109"/>
      <use x="211.132812" xlink:href="#ArialMT-98"/>
      <use x="266.748047" xlink:href="#ArialMT-101"/>
      <use x="322.363281" xlink:href="#ArialMT-114"/>
      <use x="355.664062" xlink:href="#ArialMT-32"/>
      <use x="383.447266" xlink:href="#ArialMT-111"/>
      <use x="439.0625" xlink:href="#ArialMT-102"/>
      <use x="466.845703" xlink:href="#ArialMT-32"/>
      <use x="494.628906" xlink:href="#ArialMT-101"/>
      <use x="550.244141" xlink:href="#ArialMT-120"/>
      <use x="600.244141" xlink:href="#ArialMT-112"/>
      <use x="655.859375" xlink:href="#ArialMT-101"/>
      <use x="711.474609" xlink:href="#ArialMT-114"/>
      <use x="744.775391" xlink:href="#ArialMT-105"/>
      <use x="766.992188" xlink:href="#ArialMT-109"/>
      <use x="850.292969" xlink:href="#ArialMT-101"/>
      <use x="905.908203" xlink:href="#ArialMT-110"/>
      <use x="961.523438" xlink:href="#ArialMT-116"/>
      <use x="989.306641" xlink:href="#ArialMT-115"/>
     </g>
    </g>
   </g>
   <g id="matplotlib.axis_2">
    <g id="ytick_1">
     <g id="line2d_7">
      <defs>
       <path d="M 0 0 
L -6 0 
" id="m949cab1c96" style="stroke:#262626;stroke-width:1.25;"/>
      </defs>
      <g>
       <use style="fill:#262626;stroke:#262626;stroke-width:1.25;" x="48.11" xlink:href="#m949cab1c96" y="218.693161"/>
      </g>
     </g>
     <g id="text_8">
      <!-- 0.0 -->
      <g style="fill:#262626;" transform="translate(23.32 222.629957)scale(0.11 -0.11)">
       <defs>
        <path d="M 9.078125 0 
L 9.078125 10.015625 
L 19.09375 10.015625 
L 19.09375 0 
z
" id="ArialMT-46"/>
       </defs>
       <use xlink:href="#ArialMT-48"/>
       <use x="55.615234" xlink:href="#ArialMT-46"/>
       <use x="83.398438" xlink:href="#ArialMT-48"/>
      </g>
     </g>
    </g>
    <g id="ytick_2">
     <g id="line2d_8">
      <g>
       <use style="fill:#262626;stroke:#262626;stroke-width:1.25;" x="48.11" xlink:href="#m949cab1c96" y="189.042251"/>
      </g>
     </g>
     <g id="text_9">
      <!-- 0.1 -->
      <g style="fill:#262626;" transform="translate(23.32 192.979048)scale(0.11 -0.11)">
       <use xlink:href="#ArialMT-48"/>
       <use x="55.615234" xlink:href="#ArialMT-46"/>
       <use x="83.398438" xlink:href="#ArialMT-49"/>
      </g>
     </g>
    </g>
    <g id="ytick_3">
     <g id="line2d_9">
      <g>
       <use style="fill:#262626;stroke:#262626;stroke-width:1.25;" x="48.11" xlink:href="#m949cab1c96" y="159.391342"/>
      </g>
     </g>
     <g id="text_10">
      <!-- 0.2 -->
      <g style="fill:#262626;" transform="translate(23.32 163.328139)scale(0.11 -0.11)">
       <use xlink:href="#ArialMT-48"/>
       <use x="55.615234" xlink:href="#ArialMT-46"/>
       <use x="83.398438" xlink:href="#ArialMT-50"/>
      </g>
     </g>
    </g>
    <g id="ytick_4">
     <g id="line2d_10">
      <g>
       <use style="fill:#262626;stroke:#262626;stroke-width:1.25;" x="48.11" xlink:href="#m949cab1c96" y="129.740433"/>
      </g>
     </g>
     <g id="text_11">
      <!-- 0.3 -->
      <g style="fill:#262626;" transform="translate(23.32 133.67723)scale(0.11 -0.11)">
       <defs>
        <path d="M 4.203125 18.890625 
L 12.984375 20.0625 
Q 14.5 12.59375 18.140625 9.296875 
Q 21.78125 6 27 6 
Q 33.203125 6 37.46875 10.296875 
Q 41.75 14.59375 41.75 20.953125 
Q 41.75 27 37.796875 30.921875 
Q 33.84375 34.859375 27.734375 34.859375 
Q 25.25 34.859375 21.53125 33.890625 
L 22.515625 41.609375 
Q 23.390625 41.5 23.921875 41.5 
Q 29.546875 41.5 34.03125 44.421875 
Q 38.53125 47.359375 38.53125 53.46875 
Q 38.53125 58.296875 35.25 61.46875 
Q 31.984375 64.65625 26.8125 64.65625 
Q 21.6875 64.65625 18.265625 61.421875 
Q 14.84375 58.203125 13.875 51.765625 
L 5.078125 53.328125 
Q 6.6875 62.15625 12.390625 67.015625 
Q 18.109375 71.875 26.609375 71.875 
Q 32.46875 71.875 37.390625 69.359375 
Q 42.328125 66.84375 44.9375 62.5 
Q 47.5625 58.15625 47.5625 53.265625 
Q 47.5625 48.640625 45.0625 44.828125 
Q 42.578125 41.015625 37.703125 38.765625 
Q 44.046875 37.3125 47.5625 32.6875 
Q 51.078125 28.078125 51.078125 21.140625 
Q 51.078125 11.765625 44.234375 5.25 
Q 37.40625 -1.265625 26.953125 -1.265625 
Q 17.53125 -1.265625 11.296875 4.34375 
Q 5.078125 9.96875 4.203125 18.890625 
z
" id="ArialMT-51"/>
       </defs>
       <use xlink:href="#ArialMT-48"/>
       <use x="55.615234" xlink:href="#ArialMT-46"/>
       <use x="83.398438" xlink:href="#ArialMT-51"/>
      </g>
     </g>
    </g>
    <g id="ytick_5">
     <g id="line2d_11">
      <g>
       <use style="fill:#262626;stroke:#262626;stroke-width:1.25;" x="48.11" xlink:href="#m949cab1c96" y="100.089524"/>
      </g>
     </g>
     <g id="text_12">
      <!-- 0.4 -->
      <g style="fill:#262626;" transform="translate(23.32 104.026321)scale(0.11 -0.11)">
       <use xlink:href="#ArialMT-48"/>
       <use x="55.615234" xlink:href="#ArialMT-46"/>
       <use x="83.398438" xlink:href="#ArialMT-52"/>
      </g>
     </g>
    </g>
    <g id="ytick_6">
     <g id="line2d_12">
      <g>
       <use style="fill:#262626;stroke:#262626;stroke-width:1.25;" x="48.11" xlink:href="#m949cab1c96" y="70.438615"/>
      </g>
     </g>
     <g id="text_13">
      <!-- 0.5 -->
      <g style="fill:#262626;" transform="translate(23.32 74.375412)scale(0.11 -0.11)">
       <defs>
        <path d="M 4.15625 18.75 
L 13.375 19.53125 
Q 14.40625 12.796875 18.140625 9.390625 
Q 21.875 6 27.15625 6 
Q 33.5 6 37.890625 10.78125 
Q 42.28125 15.578125 42.28125 23.484375 
Q 42.28125 31 38.0625 35.34375 
Q 33.84375 39.703125 27 39.703125 
Q 22.75 39.703125 19.328125 37.765625 
Q 15.921875 35.84375 13.96875 32.765625 
L 5.71875 33.84375 
L 12.640625 70.609375 
L 48.25 70.609375 
L 48.25 62.203125 
L 19.671875 62.203125 
L 15.828125 42.96875 
Q 22.265625 47.46875 29.34375 47.46875 
Q 38.71875 47.46875 45.15625 40.96875 
Q 51.609375 34.46875 51.609375 24.265625 
Q 51.609375 14.546875 45.953125 7.46875 
Q 39.0625 -1.21875 27.15625 -1.21875 
Q 17.390625 -1.21875 11.203125 4.25 
Q 5.03125 9.71875 4.15625 18.75 
z
" id="ArialMT-53"/>
       </defs>
       <use xlink:href="#ArialMT-48"/>
       <use x="55.615234" xlink:href="#ArialMT-46"/>
       <use x="83.398438" xlink:href="#ArialMT-53"/>
      </g>
     </g>
    </g>
    <g id="ytick_7">
     <g id="line2d_13">
      <g>
       <use style="fill:#262626;stroke:#262626;stroke-width:1.25;" x="48.11" xlink:href="#m949cab1c96" y="40.787706"/>
      </g>
     </g>
     <g id="text_14">
      <!-- 0.6 -->
      <g style="fill:#262626;" transform="translate(23.32 44.724503)scale(0.11 -0.11)">
       <use xlink:href="#ArialMT-48"/>
       <use x="55.615234" xlink:href="#ArialMT-46"/>
       <use x="83.398438" xlink:href="#ArialMT-54"/>
      </g>
     </g>
    </g>
    <g id="ytick_8">
     <g id="line2d_14">
      <g>
       <use style="fill:#262626;stroke:#262626;stroke-width:1.25;" x="48.11" xlink:href="#m949cab1c96" y="11.136797"/>
      </g>
     </g>
     <g id="text_15">
      <!-- 0.7 -->
      <g style="fill:#262626;" transform="translate(23.32 15.073594)scale(0.11 -0.11)">
       <defs>
        <path d="M 4.734375 62.203125 
L 4.734375 70.65625 
L 51.078125 70.65625 
L 51.078125 63.8125 
Q 44.234375 56.546875 37.515625 44.484375 
Q 30.8125 32.421875 27.15625 19.671875 
Q 24.515625 10.6875 23.78125 0 
L 14.75 0 
Q 14.890625 8.453125 18.0625 20.40625 
Q 21.234375 32.375 27.171875 43.484375 
Q 33.109375 54.59375 39.796875 62.203125 
z
" id="ArialMT-55"/>
       </defs>
       <use xlink:href="#ArialMT-48"/>
       <use x="55.615234" xlink:href="#ArialMT-46"/>
       <use x="83.398438" xlink:href="#ArialMT-55"/>
      </g>
     </g>
    </g>
    <g id="text_16">
     <!-- $p(H|I)$ -->
     <g style="fill:#262626;" transform="translate(16.44 136.656797)rotate(-90)scale(0.12 -0.12)">
      <defs>
       <path d="M 49.609375 33.6875 
Q 49.609375 40.875 46.484375 44.671875 
Q 43.359375 48.484375 37.5 48.484375 
Q 33.5 48.484375 29.859375 46.4375 
Q 26.21875 44.390625 23.390625 40.484375 
Q 20.609375 36.625 18.9375 31.15625 
Q 17.28125 25.6875 17.28125 20.3125 
Q 17.28125 13.484375 20.40625 9.796875 
Q 23.53125 6.109375 29.296875 6.109375 
Q 33.546875 6.109375 37.1875 8.109375 
Q 40.828125 10.109375 43.40625 13.921875 
Q 46.1875 17.921875 47.890625 23.34375 
Q 49.609375 28.765625 49.609375 33.6875 
z
M 21.78125 46.390625 
Q 25.390625 51.125 30.296875 53.5625 
Q 35.203125 56 41.21875 56 
Q 49.609375 56 54.25 50.5 
Q 58.890625 45.015625 58.890625 35.109375 
Q 58.890625 27 56 19.65625 
Q 53.125 12.3125 47.703125 6.5 
Q 44.09375 2.640625 39.546875 0.609375 
Q 35.015625 -1.421875 29.984375 -1.421875 
Q 24.171875 -1.421875 20.21875 1 
Q 16.265625 3.421875 14.3125 8.203125 
L 8.6875 -20.796875 
L -0.296875 -20.796875 
L 14.40625 54.6875 
L 23.390625 54.6875 
z
" id="DejaVuSans-Oblique-112"/>
       <path d="M 31 75.875 
Q 24.46875 64.65625 21.28125 53.65625 
Q 18.109375 42.671875 18.109375 31.390625 
Q 18.109375 20.125 21.3125 9.0625 
Q 24.515625 -2 31 -13.1875 
L 23.1875 -13.1875 
Q 15.875 -1.703125 12.234375 9.375 
Q 8.59375 20.453125 8.59375 31.390625 
Q 8.59375 42.28125 12.203125 53.3125 
Q 15.828125 64.359375 23.1875 75.875 
z
" id="DejaVuSans-40"/>
       <path d="M 16.890625 72.90625 
L 26.8125 72.90625 
L 21 43.015625 
L 56.78125 43.015625 
L 62.59375 72.90625 
L 72.515625 72.90625 
L 58.296875 0 
L 48.390625 0 
L 55.171875 34.71875 
L 19.390625 34.71875 
L 12.59375 0 
L 2.6875 0 
z
" id="DejaVuSans-Oblique-72"/>
       <path d="M 21 76.421875 
L 21 -23.578125 
L 12.703125 -23.578125 
L 12.703125 76.421875 
z
" id="DejaVuSans-124"/>
       <path d="M 16.890625 72.90625 
L 26.8125 72.90625 
L 12.59375 0 
L 2.6875 0 
z
" id="DejaVuSans-Oblique-73"/>
       <path d="M 8.015625 75.875 
L 15.828125 75.875 
Q 23.140625 64.359375 26.78125 53.3125 
Q 30.421875 42.28125 30.421875 31.390625 
Q 30.421875 20.453125 26.78125 9.375 
Q 23.140625 -1.703125 15.828125 -13.1875 
L 8.015625 -13.1875 
Q 14.5 -2 17.703125 9.0625 
Q 20.90625 20.125 20.90625 31.390625 
Q 20.90625 42.671875 17.703125 53.65625 
Q 14.5 64.65625 8.015625 75.875 
z
" id="DejaVuSans-41"/>
      </defs>
      <use transform="translate(0 0.578125)" xlink:href="#DejaVuSans-Oblique-112"/>
      <use transform="translate(63.476562 0.578125)" xlink:href="#DejaVuSans-40"/>
      <use transform="translate(102.490234 0.578125)" xlink:href="#DejaVuSans-Oblique-72"/>
      <use transform="translate(177.685547 0.578125)" xlink:href="#DejaVuSans-124"/>
      <use transform="translate(211.376953 0.578125)" xlink:href="#DejaVuSans-Oblique-73"/>
      <use transform="translate(240.869141 0.578125)" xlink:href="#DejaVuSans-41"/>
     </g>
    </g>
   </g>
   <g id="line2d_15">
    <path clip-path="url(#pd4c6129343)" d="M 63.328182 70.438615 
L 367.691818 70.438615 
L 367.691818 70.438615 
" style="fill:none;stroke:#c44e52;stroke-dasharray:5.55,2.4;stroke-dashoffset:0;stroke-width:1.5;"/>
   </g>
   <g id="line2d_16">
    <path clip-path="url(#pd4c6129343)" d="M 63.328182 218.693161 
L 63.389061 21.020433 
L 63.449939 100.089524 
L 63.510818 91.617836 
L 63.571697 119.856797 
L 63.693455 59.034419 
L 63.723894 70.438615 
L 63.876091 109.452969 
L 63.906531 100.089524 
L 64.058728 76.368797 
L 64.089167 81.842811 
L 64.119606 75.929524 
L 64.210925 70.438615 
L 64.393561 86.911342 
L 64.424 82.459254 
L 64.484879 89.445608 
L 64.545758 95.750367 
L 64.576198 91.617836 
L 64.606637 87.677516 
L 64.667516 93.500433 
L 64.697955 89.776164 
L 64.728395 92.519079 
L 64.758834 88.970433 
L 64.789273 91.617836 
L 64.911031 78.830382 
L 64.94147 81.420433 
L 65.184986 94.350639 
L 65.276304 90.966168 
L 65.306743 92.901425 
L 65.398062 98.370631 
L 65.428501 95.85368 
L 65.45894 93.407629 
L 65.519819 96.840109 
L 65.550259 94.479893 
L 65.611137 97.748663 
L 65.641577 95.468603 
L 65.732895 88.970433 
L 65.824213 90.086808 
L 65.885092 89.624497 
L 65.97641 94.024565 
L 66.128607 87.974099 
L 66.159047 89.364727 
L 66.219926 88.970433 
L 66.311244 92.901425 
L 66.341683 91.194251 
L 66.402562 93.69423 
L 66.463441 93.247007 
L 66.52432 95.613915 
L 66.615638 90.840617 
L 66.706956 91.617836 
L 66.859153 94.51414 
L 67.04179 90.929081 
L 67.072229 91.959436 
L 67.102668 90.601233 
L 67.133108 91.617836 
L 67.285305 87.414326 
L 67.315744 88.408863 
L 67.407062 91.30407 
L 67.467941 90.999464 
L 67.498381 89.776164 
L 67.559259 91.617836 
L 67.620138 91.319537 
L 67.681017 93.088615 
L 67.772335 89.600767 
L 67.863654 90.205888 
L 68.076729 94.046027 
L 68.168048 94.529979 
L 68.228926 92.402251 
L 68.411563 96.912641 
L 68.472442 96.601182 
L 68.56376 95.290533 
L 68.594199 95.999744 
L 68.837715 99.76369 
L 69.05079 96.324329 
L 69.142109 98.236342 
L 69.172548 97.324154 
L 69.324745 95.896466 
L 69.385624 97.124433 
L 69.416063 96.254083 
L 69.56826 92.029083 
L 69.659579 92.428524 
L 69.690018 93.029784 
L 69.720457 92.220089 
L 70.024851 85.867821 
L 70.08573 85.729443 
L 70.146609 86.911342 
L 70.268367 85.32881 
L 70.298806 85.908655 
L 70.359685 85.775292 
L 70.420564 86.911342 
L 70.511882 87.328373 
L 70.572761 85.946413 
L 70.664079 87.592034 
L 70.724958 87.451432 
L 70.907594 85.857088 
L 70.968473 85.734719 
L 71.059791 87.298936 
L 71.242428 84.639242 
L 71.272867 85.150898 
L 71.303307 84.531252 
L 71.333746 85.039442 
L 71.546822 81.926975 
L 71.577261 82.429792 
L 71.607701 81.842811 
L 71.668579 80.681656 
L 71.699019 81.181698 
L 71.820777 83.146148 
L 71.881655 83.056023 
L 71.912095 82.487571 
L 71.942534 82.967168 
L 71.972974 83.4434 
L 72.003413 82.879556 
L 72.15561 81.137397 
L 72.186049 81.608478 
L 72.216489 81.064367 
L 72.338246 79.922913 
L 72.368686 80.388585 
L 72.399125 79.859472 
L 72.460004 78.811795 
L 72.490443 79.274979 
L 72.551322 80.192204 
L 72.581762 79.674144 
L 72.703519 78.595014 
L 72.733959 79.046944 
L 72.764398 78.542561 
L 72.855716 77.992987 
L 72.916595 78.883494 
L 72.977474 78.830382 
L 73.007913 78.339328 
L 73.038353 78.777933 
L 73.068792 79.213806 
L 73.099232 78.726136 
L 73.220989 77.714912 
L 73.342747 79.423739 
L 73.373186 78.948695 
L 73.555823 77.037482 
L 73.586262 77.456582 
L 73.616702 76.998551 
L 73.647141 77.4153 
L 73.67758 76.960076 
L 73.70802 77.3745 
L 73.829777 79.008242 
L 73.860217 78.556299 
L 73.981974 77.619035 
L 74.012414 78.019813 
L 74.042853 77.578352 
L 74.134172 77.101741 
L 74.164611 77.498355 
L 74.19505 77.064517 
L 74.22549 76.633095 
L 74.255929 77.027706 
L 74.286369 77.420131 
L 74.316808 76.991302 
L 74.408126 76.531268 
L 74.469005 76.498065 
L 74.529884 77.26877 
L 74.621202 76.018087 
L 74.651641 76.400594 
L 74.71252 77.159488 
L 74.74296 76.747319 
L 74.773399 76.337337 
L 74.803838 76.71394 
L 74.864717 77.461199 
L 74.895157 77.053647 
L 74.925596 76.64823 
L 74.956036 77.019104 
L 75.016914 77.755073 
L 75.077793 77.717262 
L 75.169111 77.281133 
L 75.22999 77.246222 
L 75.290869 77.964227 
L 75.443066 76.755225 
L 75.534384 77.814463 
L 75.595263 77.777949 
L 75.686581 77.359589 
L 75.74746 78.050707 
L 75.7779 77.670544 
L 75.808339 77.292232 
L 75.838778 77.635438 
L 75.869218 77.976982 
L 75.899657 77.60067 
L 75.990975 77.193618 
L 76.051854 77.869034 
L 76.082294 77.498355 
L 76.234491 76.368797 
L 76.295369 77.035422 
L 76.325809 76.673619 
L 76.447566 75.929524 
L 76.508445 76.587421 
L 76.538885 76.232471 
L 76.660642 75.50426 
L 76.721521 76.153643 
L 76.751961 75.805295 
L 76.7824 75.458521 
L 76.812839 75.781121 
L 77.025915 77.34182 
L 77.208552 75.953554 
L 77.26943 76.575513 
L 77.330309 76.548889 
L 77.360749 76.214766 
L 77.391188 76.522495 
L 77.452067 77.133982 
L 77.512946 77.105308 
L 77.665143 76.09239 
L 77.695582 76.393872 
L 77.726022 76.068535 
L 77.756461 75.744567 
L 77.7869 76.044879 
L 77.81734 76.343932 
L 77.847779 76.021422 
L 77.878219 76.319276 
L 77.908658 75.998161 
L 77.939097 76.294824 
L 77.969537 76.590256 
L 77.999976 76.270574 
L 78.060855 75.635166 
L 78.091294 75.929524 
L 78.152173 75.90702 
L 78.273931 77.067883 
L 78.365249 76.129194 
L 78.395689 76.416621 
L 78.426128 76.702892 
L 78.456567 76.392613 
L 78.578325 75.754515 
L 78.639204 76.321732 
L 78.669643 76.016509 
L 78.791401 75.390142 
L 79.034916 77.034078 
L 79.065356 76.73514 
L 79.095795 77.008662 
L 79.33931 78.596835 
L 79.36975 78.300599 
L 79.400189 78.565991 
L 79.430628 78.830382 
L 79.461068 78.535379 
L 79.582825 77.92062 
L 79.735023 78.674979 
L 79.765462 78.385716 
L 79.795901 78.644586 
L 79.917659 79.670583 
L 79.948098 79.382674 
L 80.039417 79.064334 
L 80.191614 79.788001 
L 80.222053 79.50454 
L 80.252492 79.75443 
L 80.282932 80.003424 
L 80.313371 79.7211 
L 80.343811 79.969264 
L 80.37425 79.688007 
L 80.404689 79.935348 
L 80.465568 80.427396 
L 80.496008 80.14732 
L 80.617765 79.557963 
L 80.709084 80.287693 
L 80.739523 80.011771 
L 80.830841 79.704524 
L 80.89172 79.672462 
L 80.952599 80.151844 
L 81.013478 79.608999 
L 81.043917 79.847566 
L 81.074356 80.085315 
L 81.104796 79.815398 
L 81.226553 79.248308 
L 81.317872 79.954954 
L 81.348311 79.688899 
L 81.530948 78.606228 
L 81.591826 79.072407 
L 81.622266 78.811795 
L 81.713584 78.525227 
L 81.89622 79.416386 
L 81.957099 78.903393 
L 81.987539 79.131064 
L 82.048417 79.584188 
L 82.078857 79.329082 
L 82.231054 78.542561 
L 82.291933 78.991762 
L 82.352812 78.964436 
L 82.535448 77.476014 
L 82.565887 77.699106 
L 82.626766 77.676239 
L 82.809403 78.99621 
L 82.9616 78.241486 
L 83.052918 78.890723 
L 83.113797 78.864757 
L 83.174676 78.384877 
L 83.205115 78.599416 
L 83.235554 78.813299 
L 83.265994 78.574535 
L 83.418191 77.840128 
L 83.509509 78.476512 
L 83.539948 78.241486 
L 83.570388 78.007165 
L 83.600827 78.218089 
L 83.631267 78.428381 
L 83.661706 78.194832 
L 83.722585 77.729822 
L 83.753024 77.939589 
L 83.813903 78.357255 
L 83.844343 78.125888 
L 83.935661 77.43588 
L 83.9661 77.643917 
L 84.148737 78.446525 
L 84.240055 78.19612 
L 84.422691 78.983546 
L 84.48357 78.532972 
L 84.514009 78.734063 
L 84.574888 78.710328 
L 84.635767 79.109708 
L 84.666207 78.886168 
L 84.696646 79.085039 
L 84.879282 79.848283 
L 84.970601 79.183967 
L 85.00104 79.379633 
L 85.092358 79.963348 
L 85.153237 79.936817 
L 85.183676 79.717411 
L 85.214116 79.910433 
L 85.51851 81.40539 
L 85.731586 80.29543 
L 85.914222 81.013973 
L 86.03598 80.560411 
L 86.249056 81.449563 
L 86.279495 81.238615 
L 86.309935 81.420433 
L 86.340374 81.601771 
L 86.370813 81.391457 
L 86.401253 81.572356 
L 86.462132 81.153464 
L 86.492571 81.333962 
L 86.55345 81.30544 
L 86.644768 81.842811 
L 86.675207 81.634922 
L 86.705647 81.813151 
L 86.766526 81.783645 
L 86.918723 82.665794 
L 86.979602 82.253245 
L 87.010041 82.428392 
L 87.101359 82.951147 
L 87.162238 82.919227 
L 87.283996 82.103313 
L 87.314435 82.27643 
L 87.375314 82.621353 
L 87.405753 82.41878 
L 87.58839 81.585573 
L 87.710147 82.269402 
L 87.740587 82.070043 
L 87.771026 81.87118 
L 87.801466 82.041145 
L 87.923223 82.716804 
L 87.984102 82.686524 
L 88.07542 82.094992 
L 88.10586 82.262597 
L 88.258057 82.732894 
L 88.410254 81.759871 
L 88.440693 81.92565 
L 88.501572 81.897904 
L 88.562451 82.227531 
L 88.653769 82.007097 
L 88.684208 82.170989 
L 88.714648 81.979388 
L 88.745087 81.788245 
L 88.775527 81.951812 
L 88.836405 82.277774 
L 88.866845 82.087186 
L 89.019042 81.491913 
L 89.079921 81.465813 
L 89.171239 81.950144 
L 89.323436 81.362634 
L 89.384315 81.683126 
L 89.445194 81.656945 
L 89.62783 80.89356 
L 89.688709 80.869442 
L 89.810466 81.502387 
L 89.962663 80.931517 
L 90.023542 80.907615 
L 90.084421 81.220764 
L 90.206179 80.836558 
L 90.267058 81.147747 
L 90.297497 80.968532 
L 90.449694 80.410894 
L 90.480133 80.565745 
L 90.510573 80.388585 
L 90.541012 80.543115 
L 90.63233 80.014076 
L 90.66277 80.168335 
L 90.754088 80.629061 
L 90.814967 80.606515 
L 91.028043 79.714695 
L 91.088922 79.694375 
L 91.1498 79.998198 
L 91.241119 79.482465 
L 91.271558 79.633946 
L 91.301997 79.785097 
L 91.332437 79.613978 
L 91.362876 79.764823 
L 91.575952 78.896625 
L 91.606391 79.046944 
L 91.636831 78.878455 
L 91.758588 78.208105 
L 91.789028 78.358195 
L 91.819467 78.507966 
L 91.849907 78.341309 
L 91.910786 78.00906 
L 91.941225 78.158565 
L 92.123861 79.048964 
L 92.18474 79.030817 
L 92.21518 78.865716 
L 92.245619 79.012748 
L 92.276058 79.159471 
L 92.306498 78.994754 
L 92.428255 78.649159 
L 92.458695 78.795343 
L 92.489134 78.632036 
L 92.519574 78.777933 
L 92.550013 78.614984 
L 92.580452 78.760596 
L 92.610892 78.905905 
L 92.641331 78.74333 
L 92.73265 78.257624 
L 92.763089 78.402702 
L 92.823968 78.386281 
L 92.884847 78.674979 
L 92.915286 78.514145 
L 92.945725 78.658066 
L 92.976165 78.801692 
L 93.006604 78.641223 
L 93.037044 78.784572 
L 93.250119 77.971874 
L 93.463195 78.666668 
L 93.554514 78.194386 
L 93.584953 78.335591 
L 93.676271 78.757507 
L 93.706711 78.600777 
L 93.73715 78.444361 
L 93.767589 78.584469 
L 93.798029 78.724298 
L 93.828468 78.568226 
L 94.071983 77.330765 
L 94.102423 77.470451 
L 94.132862 77.609862 
L 94.163302 77.456582 
L 94.467696 76.229808 
L 94.559014 76.645962 
L 94.589453 76.495707 
L 94.619893 76.345745 
L 94.650332 76.483946 
L 94.680772 76.621879 
L 94.711211 76.47223 
L 94.77209 76.173801 
L 94.802529 76.3115 
L 95.137363 77.525352 
L 95.228681 77.081097 
L 95.25912 77.215966 
L 95.350439 77.33745 
L 95.502636 76.884465 
L 95.533075 77.018373 
L 95.563514 76.872303 
L 95.654833 76.435742 
L 95.685272 76.569442 
L 95.80703 76.82411 
L 96.141863 75.522413 
L 96.29406 75.909262 
L 96.415818 75.344096 
L 96.446257 75.47573 
L 96.476697 75.607122 
L 96.507136 75.466496 
L 96.659333 75.037752 
L 96.84197 75.550841 
L 96.963727 75.26426 
L 96.994167 75.393826 
L 97.024606 75.25555 
L 97.085485 74.979745 
L 97.115924 75.1091 
L 97.237682 75.358273 
L 97.268121 75.22102 
L 97.298561 75.349464 
L 97.329 75.477678 
L 97.359439 75.340687 
L 97.420318 75.067437 
L 97.450758 75.195445 
L 97.481197 75.323226 
L 97.511637 75.186981 
L 97.663834 74.772007 
L 97.724712 75.02651 
L 97.755152 74.89149 
L 97.907349 74.480735 
L 97.968228 74.733962 
L 97.998667 74.600146 
L 98.029106 74.466565 
L 98.059546 74.592858 
L 98.120425 74.844782 
L 98.150864 74.711453 
L 98.242182 74.571146 
L 98.394379 75.196133 
L 98.424819 75.06354 
L 98.546576 74.791512 
L 98.607455 75.039618 
L 98.637895 74.90796 
L 98.85097 74.246523 
L 99.155365 75.22102 
L 99.185804 75.091217 
L 99.216243 75.212914 
L 99.277122 75.455689 
L 99.307562 75.326128 
L 99.581516 74.418603 
L 99.611956 74.539537 
L 99.642395 74.411936 
L 99.703274 74.157375 
L 99.733713 74.278123 
L 99.825032 74.639161 
L 99.855471 74.51222 
L 100.007668 74.126539 
L 100.038107 74.246313 
L 100.068547 74.120433 
L 100.098986 73.994762 
L 100.129426 74.114348 
L 100.159865 74.233736 
L 100.190304 74.108282 
L 100.372941 73.603326 
L 100.43382 73.841178 
L 100.464259 73.716971 
L 100.525138 73.469166 
L 100.555577 73.587813 
L 100.707774 73.936892 
L 100.829532 73.685065 
L 100.859971 73.802576 
L 100.890411 73.679808 
L 101.194805 72.701134 
L 101.377441 73.164318 
L 101.46876 72.803121 
L 101.499199 72.919368 
L 101.681835 73.377841 
L 101.986229 72.421563 
L 102.107987 72.880455 
L 102.138426 72.762354 
L 102.229745 72.640989 
L 102.381942 72.978802 
L 102.412381 72.861452 
L 102.442821 72.974851 
L 102.625457 73.422066 
L 102.747215 73.18407 
L 102.838533 73.291859 
L 102.868972 73.175622 
L 102.899412 73.287473 
L 102.96029 73.510659 
L 102.99073 73.394611 
L 103.082048 73.274394 
L 103.264685 73.713087 
L 103.295124 73.597768 
L 103.325563 73.708107 
L 103.47776 74.032665 
L 103.660397 73.569179 
L 103.782154 73.782703 
L 103.903912 73.328134 
L 103.934352 73.437022 
L 103.964791 73.545746 
L 103.99523 73.432536 
L 104.116988 73.202495 
L 104.177867 73.419161 
L 104.208306 73.306635 
L 104.299624 73.190184 
L 104.451821 73.508975 
L 104.573579 73.281254 
L 104.634458 73.49541 
L 104.664897 73.38407 
L 104.847534 72.936677 
L 105.03017 73.358289 
L 105.212807 72.914907 
L 105.304125 73.016955 
L 105.456322 72.686518 
L 105.57808 72.893514 
L 105.608519 72.78509 
L 105.638958 72.889984 
L 105.730277 73.203764 
L 105.760716 73.095507 
L 105.791155 72.987404 
L 105.821595 73.091703 
L 105.943352 73.295769 
L 106.034671 73.18407 
L 106.125989 73.283585 
L 106.278186 72.958522 
L 106.339065 73.164653 
L 106.369504 73.057953 
L 106.491262 72.841613 
L 106.673898 73.247649 
L 106.795656 73.032291 
L 106.978292 73.641326 
L 107.008732 73.535855 
L 107.039171 73.43053 
L 107.069611 73.531547 
L 107.252247 73.929373 
L 107.282686 73.824359 
L 107.313126 73.924545 
L 107.495762 74.318555 
L 107.58708 74.004876 
L 107.61752 74.104249 
L 107.739277 74.297295 
L 107.769717 74.193179 
L 107.800156 74.292016 
L 107.830596 74.390718 
L 107.861035 74.286752 
L 107.982793 74.074285 
L 108.013232 74.172732 
L 108.043672 74.069339 
L 108.13499 73.961296 
L 108.256747 74.353258 
L 108.287187 74.250302 
L 108.348066 74.044807 
L 108.378505 74.142476 
L 108.500263 74.332169 
L 108.591581 74.025419 
L 108.62202 74.122576 
L 108.743778 74.311306 
L 108.865536 74.102889 
L 109.078611 74.578702 
L 109.200369 74.371096 
L 109.230808 74.466737 
L 109.261248 74.365888 
L 109.383005 74.159667 
L 109.474324 74.250037 
L 109.535203 74.049819 
L 109.565642 74.144979 
L 109.6874 74.32981 
L 109.748278 74.130406 
L 109.778718 74.225077 
L 109.839597 74.414048 
L 109.870036 74.314551 
L 109.991794 74.111153 
L 110.235309 74.861254 
L 110.265748 74.762306 
L 110.326627 74.564793 
L 110.357067 74.65802 
L 110.387506 74.751126 
L 110.417945 74.652569 
L 110.509264 74.357658 
L 110.539703 74.450658 
L 110.631021 74.538258 
L 110.783218 74.240014 
L 110.874536 74.32757 
L 111.026733 74.031519 
L 111.118052 74.119027 
L 111.331128 73.632946 
L 111.452885 73.812296 
L 111.635522 73.426112 
L 111.757279 73.791105 
L 111.787719 73.695934 
L 111.879037 73.59692 
L 112.061673 73.955265 
L 112.183431 73.577254 
L 112.21387 73.667557 
L 112.274749 73.847825 
L 112.305189 73.753624 
L 112.426946 73.377986 
L 112.457386 73.467965 
L 112.609583 73.916191 
L 112.640022 73.822587 
L 112.700901 73.635725 
L 112.73134 73.725046 
L 112.822659 73.810107 
L 112.883537 73.623949 
L 112.913977 73.712949 
L 112.944416 73.801839 
L 112.974856 73.708936 
L 113.035734 73.523471 
L 113.066174 73.61226 
L 113.401007 74.401677 
L 113.522765 74.212367 
L 113.674962 74.469705 
L 113.735841 74.285897 
L 113.76628 74.372994 
L 113.918477 74.628611 
L 114.070674 74.349406 
L 114.101114 74.435892 
L 114.131553 74.344723 
L 114.222871 74.249102 
L 114.344629 74.416823 
L 114.435947 74.144979 
L 114.466387 74.230968 
L 114.527265 74.40264 
L 114.557705 74.312249 
L 114.588144 74.221965 
L 114.618584 74.307654 
L 114.740341 74.649395 
L 114.770781 74.559232 
L 114.862099 74.289382 
L 114.892538 74.374576 
L 114.922978 74.45967 
L 114.953417 74.369938 
L 114.983856 74.280311 
L 115.014296 74.36531 
L 115.166493 74.614799 
L 115.227372 74.4361 
L 115.257811 74.520609 
L 115.379569 74.857658 
L 115.410008 74.768479 
L 115.470887 74.590434 
L 115.501326 74.674459 
L 115.531766 74.758386 
L 115.562205 74.669525 
L 115.592645 74.580768 
L 115.623084 74.664603 
L 115.653523 74.74834 
L 115.683963 74.659692 
L 115.866599 74.301646 
L 115.897039 74.385206 
L 115.927478 74.297178 
L 116.079675 74.029556 
L 116.110115 74.112935 
L 116.140554 74.025419 
L 116.201433 73.850687 
L 116.231872 73.933978 
L 116.32319 74.013064 
L 116.35363 73.925957 
L 116.384069 74.008965 
L 116.444948 74.174698 
L 116.475387 74.087697 
L 116.505827 74.000795 
L 116.536266 74.083524 
L 116.688463 74.326705 
L 116.718903 74.240014 
L 116.749342 74.322276 
L 116.901539 74.563813 
L 117.023297 74.38647 
L 117.084176 74.549805 
L 117.114615 74.463625 
L 117.266812 74.201421 
L 117.327691 74.364228 
L 117.35813 74.278541 
L 117.479888 73.936756 
L 117.510327 74.018034 
L 117.601646 74.261322 
L 117.632085 74.176125 
L 117.723403 73.921104 
L 117.753843 74.002028 
L 117.784282 74.082861 
L 117.814721 73.998049 
L 118.058237 73.487764 
L 118.149555 73.729504 
L 118.179994 73.645452 
L 118.271312 73.393855 
L 118.301752 73.474264 
L 118.484388 73.79131 
L 118.606146 73.620743 
L 118.727904 73.939409 
L 118.758343 73.856118 
L 118.788782 73.772919 
L 118.819222 73.852371 
L 118.91054 73.927912 
L 119.062737 73.675614 
L 119.093176 73.754729 
L 119.123616 73.672084 
L 119.154055 73.589529 
L 119.184495 73.668562 
L 119.214934 73.747508 
L 119.245374 73.665047 
L 119.336692 73.57926 
L 119.367131 73.658041 
L 119.397571 73.575852 
L 119.823722 72.594174 
L 119.884601 72.751354 
L 119.915041 72.670404 
L 119.975919 72.508764 
L 120.006359 72.587232 
L 120.128116 72.90026 
L 120.158556 72.819577 
L 120.188995 72.73898 
L 120.219435 72.81703 
L 120.706465 73.897364 
L 120.797783 73.813388 
L 120.858662 73.966619 
L 120.889102 73.886395 
L 121.041299 73.642851 
L 121.132617 73.715821 
L 121.376132 73.235871 
L 121.619647 73.688454 
L 121.741405 73.527251 
L 121.893602 73.750275 
L 122.01536 73.589697 
L 122.045799 73.66488 
L 122.076238 73.586433 
L 122.167557 73.504893 
L 122.228435 73.654881 
L 122.258875 73.576682 
L 122.380633 73.417454 
L 122.411072 73.492262 
L 122.441511 73.414388 
L 122.471951 73.336595 
L 122.50239 73.411328 
L 122.53283 73.485985 
L 122.563269 73.408275 
L 122.685027 73.250208 
L 122.806784 73.54779 
L 122.837224 73.470405 
L 122.958981 73.161658 
L 122.989421 73.235871 
L 123.050299 73.38407 
L 123.080739 73.307084 
L 123.111178 73.230176 
L 123.172057 73.37808 
L 123.354694 73.819991 
L 123.385133 73.743174 
L 123.476451 73.513191 
L 123.53733 73.659911 
L 123.567769 73.733161 
L 123.598209 73.656659 
L 123.811285 73.272454 
L 123.841724 73.345567 
L 123.872163 73.269606 
L 123.902603 73.193722 
L 123.963482 73.339733 
L 123.993921 73.263927 
L 124.115679 73.406674 
L 124.206997 73.328134 
L 124.237436 73.400744 
L 124.359194 73.542648 
L 124.450512 73.464218 
L 124.480952 73.536471 
L 124.633149 73.749511 
L 124.724467 73.52419 
L 124.815785 73.592967 
L 124.967982 73.951062 
L 124.998422 73.87619 
L 125.150619 73.648851 
L 125.181058 73.720196 
L 125.302816 73.859314 
L 125.60721 73.408051 
L 125.637649 73.334212 
L 125.698528 73.476025 
L 125.789846 73.688228 
L 125.820286 73.614467 
L 126.033361 73.387881 
L 126.09424 73.528749 
L 126.12468 73.455423 
L 126.337756 73.230468 
L 126.520392 73.50792 
L 126.64215 73.217052 
L 126.733468 73.284192 
L 126.824786 73.351138 
L 126.855225 73.27874 
L 126.916104 73.417893 
L 126.946544 73.345567 
L 127.068301 73.481548 
L 127.342256 73.116216 
L 127.372695 73.185374 
L 127.403135 73.113673 
L 127.555332 72.896649 
L 127.585771 72.965681 
L 127.707529 73.101031 
L 127.737968 73.029743 
L 127.798847 73.167226 
L 127.951044 73.370202 
L 128.011923 73.227976 
L 128.072802 73.364692 
L 128.407635 73.973436 
L 128.529393 73.828476 
L 128.559832 73.896044 
L 128.620711 74.03099 
L 128.65115 73.960265 
L 128.742469 74.024306 
L 128.833787 73.812732 
L 128.864226 73.879993 
L 128.894666 73.8096 
L 129.077302 73.525822 
L 129.107742 73.592967 
L 129.138181 73.66005 
L 129.16862 73.590052 
L 129.259939 73.517274 
L 129.290378 73.584237 
L 129.412136 73.851473 
L 129.442575 73.781677 
L 129.564333 73.639333 
L 129.594772 73.705933 
L 129.71653 73.835832 
L 129.807848 73.627614 
L 129.868727 73.760276 
L 129.960045 73.823422 
L 130.173121 73.610196 
L 130.20356 73.676203 
L 130.234 73.607312 
L 130.416636 73.329747 
L 130.447076 73.395641 
L 130.477515 73.461476 
L 130.507954 73.392963 
L 130.538394 73.324512 
L 130.599273 73.456007 
L 130.629712 73.38762 
L 130.690591 73.518881 
L 130.72103 73.450558 
L 130.812348 73.513326 
L 130.934106 73.240906 
L 131.086303 73.434329 
L 131.116742 73.366443 
L 131.177621 73.496781 
L 131.208061 73.561862 
L 131.2385 73.49404 
L 131.329818 73.556272 
L 131.390697 73.420937 
L 131.421137 73.485849 
L 131.451576 73.418273 
L 131.695091 73.143749 
L 131.75597 73.273184 
L 131.786409 73.206033 
L 131.877728 73.004939 
L 131.938606 73.134152 
L 132.060364 73.260636 
L 132.151682 73.322435 
L 132.212561 73.18892 
L 132.303879 73.381471 
L 132.334319 73.314806 
L 132.425637 73.245724 
L 132.456076 73.309742 
L 132.516955 73.437608 
L 132.547395 73.371123 
L 132.760471 73.167226 
L 132.882228 73.421865 
L 132.912668 73.355736 
L 133.247501 72.89017 
L 133.369259 73.014715 
L 133.399698 72.949222 
L 133.460577 73.075681 
L 133.491016 73.010246 
L 133.612774 73.262511 
L 133.643213 73.197138 
L 133.82585 72.934052 
L 133.856289 72.996933 
L 133.886729 73.059761 
L 133.917168 72.994728 
L 134.069365 72.797935 
L 134.099804 72.860658 
L 134.130244 72.923328 
L 134.160683 72.858578 
L 134.34332 72.725318 
L 134.465077 72.848227 
L 134.556396 72.781809 
L 134.586835 72.844112 
L 134.647714 72.968556 
L 134.678153 72.904256 
L 134.921668 72.643846 
L 135.104305 72.76393 
L 135.226063 72.509034 
L 135.286941 72.632657 
L 135.317381 72.69439 
L 135.37826 72.56727 
L 135.469578 72.627105 
L 135.530457 72.500309 
L 135.621775 72.435309 
L 135.682654 72.558318 
L 135.773972 72.368851 
L 135.86529 72.428609 
L 136.047927 72.671738 
L 136.078366 72.608799 
L 136.352321 72.291797 
L 136.656715 72.653206 
L 136.748033 72.589013 
L 136.778472 72.649536 
L 136.808912 72.71001 
L 136.869791 72.585454 
L 136.90023 72.645879 
L 136.991548 72.459433 
L 137.082866 72.518093 
L 137.174185 72.454437 
L 137.235063 72.574848 
L 137.356821 72.327596 
L 137.4177 72.447814 
L 137.478579 72.567835 
L 137.569897 72.504457 
L 137.600336 72.442876 
L 137.661215 72.562606 
L 138.026488 73.035334 
L 138.270003 72.786129 
L 138.300443 72.845345 
L 138.361321 72.723154 
L 138.574397 72.53684 
L 138.726594 72.712091 
L 138.757034 72.651369 
L 138.909231 72.467864 
L 138.93967 72.526707 
L 139.183186 72.75788 
L 139.335383 72.57519 
L 139.365822 72.63366 
L 139.518019 72.806899 
L 139.548458 72.74677 
L 139.670216 72.506733 
L 139.731095 72.62317 
L 139.944171 72.793731 
L 140.187686 72.551506 
L 140.339883 72.723059 
L 140.370322 72.663604 
L 140.583398 72.365515 
L 140.613838 72.423125 
L 140.796474 72.651369 
L 140.826914 72.592293 
L 141.161747 72.177331 
L 141.253065 72.348963 
L 141.313944 72.231784 
L 141.587899 71.9373 
L 141.679217 71.993129 
L 141.709656 71.934973 
L 141.892293 71.816659 
L 142.01405 71.929187 
L 142.04449 71.871303 
L 142.074929 71.813464 
L 142.135808 71.926885 
L 142.348884 72.094134 
L 142.56196 71.918883 
L 142.744596 72.029085 
L 142.775036 71.971695 
L 142.835914 72.083997 
L 142.866354 72.026652 
L 142.896793 72.082738 
L 142.957672 71.96818 
L 143.018551 71.853798 
L 143.07943 71.965846 
L 143.170748 72.0206 
L 143.201187 71.963519 
L 143.322945 71.848415 
L 143.353384 71.904249 
L 143.444703 71.846273 
L 143.505581 71.957732 
L 143.657778 71.786384 
L 143.688218 71.842009 
L 143.931733 72.061636 
L 144.266567 71.66478 
L 144.357885 71.719071 
L 144.388324 71.662939 
L 144.449203 71.550802 
L 144.540521 71.605099 
L 144.844915 71.932782 
L 144.997112 71.874762 
L 145.149309 71.927225 
L 145.392825 71.702929 
L 145.514582 71.810834 
L 145.545022 71.755458 
L 145.697219 71.698258 
L 145.879855 71.804765 
L 145.971173 71.857841 
L 146.062492 71.692699 
L 146.306007 71.906482 
L 146.427765 71.79576 
L 146.458204 71.849529 
L 146.488643 71.903259 
L 146.549522 71.793775 
L 146.579962 71.847467 
L 146.610401 71.792785 
L 146.67128 71.900051 
L 146.823477 72.059474 
L 146.853916 72.004874 
L 146.884356 71.950315 
L 146.945234 72.057114 
L 147.18875 72.26759 
L 147.219189 72.213153 
L 147.280068 72.319336 
L 147.310507 72.264939 
L 147.371386 72.37097 
L 147.462704 72.315255 
L 147.67578 72.043101 
L 147.70622 72.095986 
L 147.888856 72.305801 
L 147.919295 72.2518 
L 148.101932 72.141467 
L 148.162811 72.246597 
L 148.254129 72.191535 
L 148.467205 72.028192 
L 148.741159 72.392807 
L 148.771599 72.339314 
L 148.954235 72.229892 
L 149.258629 72.538538 
L 149.380387 72.535568 
L 149.410826 72.587232 
L 149.471705 72.480977 
L 149.74566 72.213493 
L 149.897857 72.470927 
L 149.989175 72.41673 
L 150.202251 72.256096 
L 150.445766 72.561715 
L 150.476206 72.509209 
L 150.658842 72.298254 
L 150.689282 72.349245 
L 150.811039 72.44972 
L 150.841479 72.397472 
L 151.024115 72.187628 
L 151.054554 72.238445 
L 151.26763 72.387983 
L 151.541585 72.126231 
L 151.632903 72.277748 
L 151.693782 72.174378 
L 151.7851 72.019589 
L 151.845979 72.12043 
L 151.876418 72.170799 
L 151.937297 72.067786 
L 151.967737 72.016332 
L 152.028615 72.116968 
L 152.180813 72.266411 
L 152.211252 72.21503 
L 152.759161 71.397049 
L 152.789601 71.447149 
L 152.82004 71.497216 
L 152.880919 71.395746 
L 153.124434 71.192196 
L 153.215752 71.241619 
L 153.246192 71.191176 
L 153.581025 70.838492 
L 153.794101 70.987152 
L 153.946298 70.836881 
L 153.976738 70.886514 
L 154.159374 70.984947 
L 154.281132 70.984216 
L 154.37245 71.033219 
L 154.402889 70.983486 
L 154.555086 70.834224 
L 154.585526 70.883527 
L 154.707283 70.882934 
L 155.102996 70.438615 
L 155.316072 70.585742 
L 155.468269 70.340693 
L 155.529147 70.438615 
L 155.803102 70.780103 
L 155.833541 70.731223 
L 155.985738 70.682054 
L 156.046617 70.779206 
L 156.107496 70.681735 
L 156.259693 70.632793 
L 156.564087 70.922475 
L 156.777163 70.776545 
L 157.020678 70.968268 
L 157.507709 70.390714 
L 157.629466 70.390776 
L 157.781664 70.247565 
L 157.812103 70.295374 
L 157.933861 70.295558 
L 158.146936 70.153144 
L 158.329573 70.248667 
L 158.512209 70.154239 
L 158.633967 70.249273 
L 158.664406 70.202013 
L 158.847043 70.108006 
L 158.9688 70.108427 
L 159.090558 70.014627 
L 159.120997 70.061856 
L 159.151437 70.109056 
L 159.212316 70.015165 
L 159.334073 70.015702 
L 159.48627 70.157119 
L 159.51671 70.110307 
L 159.547149 70.063524 
L 159.608028 70.157475 
L 159.851543 70.345138 
L 160.064619 70.018895 
L 160.125498 70.112371 
L 160.308134 70.206022 
L 160.460331 70.06705 
L 160.490771 70.113597 
L 160.612528 70.20675 
L 160.642968 70.160464 
L 160.764725 69.975609 
L 160.825604 70.068441 
L 161.129998 70.34636 
L 161.282195 70.300447 
L 161.403953 70.392616 
L 161.434392 70.346646 
L 161.617029 70.255018 
L 161.677908 70.346873 
L 161.738787 70.255245 
L 161.860544 70.1639 
L 161.890984 70.209757 
L 162.07362 70.301554 
L 162.104059 70.255923 
L 162.164938 70.347325 
L 162.378014 70.484162 
L 162.408453 70.438615 
L 162.469332 70.529625 
L 162.651969 70.6203 
L 162.925923 70.393319 
L 162.956363 70.438615 
L 163.017242 70.348106 
L 163.10856 70.302975 
L 163.138999 70.348216 
L 163.352075 70.483718 
L 163.686909 70.168898 
L 163.930424 70.348927 
L 164.082621 70.12518 
L 164.1435 70.214868 
L 164.265257 70.215138 
L 164.539212 69.992871 
L 164.721848 70.082662 
L 164.752288 70.038288 
L 164.813167 70.127436 
L 164.995803 70.394241 
L 165.056682 70.305572 
L 165.148 70.261383 
L 165.17844 70.305731 
L 165.330637 70.438615 
L 165.361076 70.3944 
L 165.66547 70.041859 
L 165.69591 70.086048 
L 165.817667 70.174504 
L 165.848107 70.130577 
L 166.030743 70.04327 
L 166.091622 70.131306 
L 166.152501 70.043738 
L 166.365576 69.9132 
L 166.396016 69.957127 
L 166.456895 69.86992 
L 166.609092 69.827076 
L 166.70041 69.958544 
L 166.761289 69.871593 
L 166.974365 69.742176 
L 167.035243 69.829588 
L 167.096122 69.742993 
L 167.278759 69.657414 
L 167.400516 69.745027 
L 167.430956 69.701893 
L 167.552713 69.616181 
L 167.583153 69.659695 
L 167.73535 69.70404 
L 167.765789 69.661056 
L 167.826668 69.747854 
L 167.948426 69.834903 
L 167.978865 69.791968 
L 168.22238 69.62143 
L 168.25282 69.664664 
L 168.313699 69.579168 
L 168.435456 69.580164 
L 168.526774 69.623794 
L 168.557214 69.581157 
L 168.678971 69.496501 
L 168.709411 69.539584 
L 168.800729 69.668684 
L 168.861608 69.583629 
L 168.983366 69.499214 
L 169.013805 69.542172 
L 169.105123 69.670899 
L 169.166002 69.586087 
L 169.28776 69.501912 
L 169.318199 69.544746 
L 169.348638 69.587556 
L 169.409517 69.502987 
L 169.500835 69.376315 
L 169.561714 69.461859 
L 169.683472 69.547815 
L 169.713911 69.505663 
L 169.957427 69.338553 
L 170.140063 69.424909 
L 170.29226 69.215462 
L 170.353139 69.300465 
L 170.627094 69.513601 
L 170.779291 69.472924 
L 171.114124 69.768916 
L 171.540276 69.354639 
L 171.570715 69.396624 
L 171.631594 69.313897 
L 171.875109 69.150168 
L 171.996867 69.317676 
L 172.057746 69.235318 
L 172.088185 69.194173 
L 172.149064 69.277785 
L 172.453458 69.529078 
L 172.483897 69.488 
L 172.544776 69.571146 
L 173.001367 70.109526 
L 173.031807 70.068493 
L 173.184004 70.027938 
L 173.275322 70.15138 
L 173.336201 70.069517 
L 173.488398 69.947164 
L 173.518837 69.988242 
L 173.549277 70.029298 
L 173.610155 69.947706 
L 173.853671 69.785511 
L 174.310262 70.23536 
L 174.675535 69.911884 
L 174.888611 70.034211 
L 174.91905 69.993892 
L 174.979929 70.074949 
L 175.132126 70.115796 
L 175.193005 70.035311 
L 175.253883 70.116147 
L 175.314762 70.196896 
L 175.375641 70.116498 
L 175.43652 70.036187 
L 175.497399 70.116847 
L 175.527838 70.157145 
L 175.588717 70.076921 
L 175.710475 70.077312 
L 175.92355 70.198202 
L 176.045308 70.198462 
L 176.288823 70.438615 
L 176.319263 70.398687 
L 176.47146 70.358865 
L 176.623657 70.478436 
L 176.654096 70.438615 
L 176.897611 70.279714 
L 177.019369 70.279884 
L 177.262884 70.121832 
L 177.384642 70.201281 
L 177.415081 70.161799 
L 177.628157 70.043901 
L 177.749915 70.044321 
L 177.962991 69.926985 
L 178.236945 70.124516 
L 178.358703 70.124849 
L 178.571779 70.242874 
L 178.602218 70.203787 
L 178.663097 70.282146 
L 178.876173 70.39957 
L 179.02837 70.360627 
L 179.150128 70.516521 
L 179.211006 70.438615 
L 179.363204 70.321971 
L 179.393643 70.360873 
L 179.758916 70.67111 
L 179.880673 70.670868 
L 180.03287 70.709223 
L 180.06331 70.670504 
L 180.124189 70.74764 
L 180.245946 70.824494 
L 180.276386 70.785815 
L 180.428583 70.746837 
L 180.55034 70.746517 
L 180.702537 70.70768 
L 180.824295 70.707401 
L 180.976492 70.592008 
L 181.006932 70.630307 
L 181.06781 70.706845 
L 181.128689 70.630109 
L 181.463523 70.362235 
L 181.61572 70.400474 
L 181.767917 70.362431 
L 182.163629 70.704372 
L 182.224508 70.628344 
L 182.285387 70.7041 
L 182.376705 70.741794 
L 182.407144 70.703829 
L 182.528902 70.62786 
L 182.559341 70.665651 
L 182.711538 70.778735 
L 182.741978 70.740867 
L 182.863735 70.665073 
L 182.894175 70.702749 
L 183.198569 70.927904 
L 183.229008 70.890152 
L 183.289887 70.965141 
L 183.320326 71.002606 
L 183.381205 70.92716 
L 183.533402 70.889009 
L 183.685599 71.000895 
L 183.716039 70.963277 
L 183.989993 70.775132 
L 184.111751 70.774793 
L 184.233509 70.699824 
L 184.263948 70.737064 
L 184.446585 70.811114 
L 184.720539 70.624444 
L 184.933615 70.735421 
L 185.238009 70.512631 
L 185.329327 70.623517 
L 185.390206 70.549501 
L 185.633721 70.401727 
L 185.816358 70.549115 
L 185.846797 70.512264 
L 185.998994 70.475394 
L 186.151191 70.585547 
L 186.181631 70.548787 
L 186.333828 70.511972 
L 186.455585 70.585184 
L 186.486025 70.548515 
L 186.668661 70.402036 
L 186.699101 70.438615 
L 186.72954 70.475176 
L 186.790419 70.402072 
L 186.851298 70.32904 
L 186.912177 70.402108 
L 187.155692 70.54792 
L 187.307889 70.511396 
L 187.551404 70.65653 
L 187.642722 70.547492 
L 187.703601 70.619988 
L 187.855798 70.728458 
L 187.886238 70.692165 
L 188.099313 70.583254 
L 188.221071 70.655361 
L 188.251511 70.619193 
L 188.373268 70.619017 
L 188.495026 70.618842 
L 188.616783 70.618667 
L 188.76898 70.654415 
L 188.951617 70.510444 
L 188.982056 70.546332 
L 189.042935 70.618057 
L 189.103814 70.546228 
L 189.225572 70.546124 
L 189.28645 70.61771 
L 189.347329 70.54602 
L 189.560405 70.367133 
L 189.590844 70.402882 
L 189.773481 70.474296 
L 189.895239 70.474262 
L 189.986557 70.509857 
L 190.016996 70.474227 
L 190.199633 70.403054 
L 190.32139 70.474142 
L 190.35183 70.438615 
L 190.473587 70.367646 
L 190.504027 70.403139 
L 190.534466 70.438615 
L 190.595345 70.367714 
L 190.808421 70.261658 
L 190.960618 70.297218 
L 190.991057 70.261911 
L 191.051936 70.332643 
L 191.265012 70.438615 
L 191.478088 70.332996 
L 191.599845 70.403442 
L 191.630285 70.368286 
L 191.721603 70.262916 
L 191.782482 70.333246 
L 191.965118 70.473688 
L 191.995558 70.438615 
L 192.208633 70.333594 
L 192.39127 70.473573 
L 192.421709 70.438615 
L 192.513028 70.403691 
L 192.543467 70.438615 
L 192.665225 70.578149 
L 192.726103 70.508349 
L 192.847861 70.438615 
L 192.8783 70.473441 
L 193.000058 70.542995 
L 193.030498 70.508185 
L 193.213134 70.29967 
L 193.274013 70.369175 
L 193.456649 70.507958 
L 193.487089 70.473278 
L 193.517528 70.438615 
L 193.578407 70.507893 
L 193.700164 70.577041 
L 193.730604 70.542411 
L 193.882801 70.507731 
L 193.91324 70.542265 
L 193.974119 70.473149 
L 194.156756 70.335158 
L 194.187195 70.369659 
L 194.308953 70.438615 
L 194.339392 70.404177 
L 194.582907 70.266746 
L 194.674226 70.369915 
L 194.735104 70.301279 
L 194.826423 70.267064 
L 194.856862 70.301406 
L 195.009059 70.335827 
L 195.069938 70.267381 
L 195.130817 70.335922 
L 195.161256 70.370169 
L 195.222135 70.301786 
L 195.343892 70.165209 
L 195.404771 70.233655 
L 195.435211 70.267854 
L 195.49609 70.19966 
L 195.587408 70.165712 
L 195.617847 70.19988 
L 195.739605 70.268247 
L 195.770044 70.23422 
L 195.861362 70.132234 
L 195.922241 70.200428 
L 195.952681 70.234501 
L 196.013559 70.166588 
L 196.104878 70.132795 
L 196.135317 70.166838 
L 196.439711 70.370826 
L 196.591908 70.337048 
L 196.804984 70.438615 
L 196.896302 70.404836 
L 196.926742 70.438615 
L 197.01806 70.539859 
L 197.078939 70.472348 
L 197.352893 70.303961 
L 197.565969 70.405005 
L 197.596409 70.37141 
L 197.657287 70.438615 
L 197.931242 70.60621 
L 198.083439 70.57254 
L 198.113879 70.605983 
L 198.174757 70.538991 
L 198.326954 70.505457 
L 198.479151 70.538764 
L 198.966182 70.139245 
L 199.240137 70.372223 
L 199.270576 70.339049 
L 199.453213 70.272893 
L 199.483652 70.306067 
L 199.544531 70.239882 
L 199.635849 70.206916 
L 199.666288 70.24006 
L 199.696728 70.273189 
L 199.757607 70.207122 
L 199.879364 70.207329 
L 200.09244 70.306657 
L 200.366395 70.142304 
L 200.701228 70.372929 
L 200.853425 70.340194 
L 200.883865 70.373016 
L 200.944743 70.307474 
L 201.279577 70.078853 
L 201.431774 70.111919 
L 201.583971 70.014378 
L 201.61441 70.047098 
L 201.766607 70.1453 
L 201.797047 70.112781 
L 202.010123 69.950615 
L 202.040562 69.983248 
L 202.375396 70.21148 
L 202.588471 70.049836 
L 202.618911 70.082312 
L 202.740669 70.212075 
L 202.801547 70.147476 
L 202.984184 70.083244 
L 203.136381 70.115902 
L 203.349457 70.019726 
L 203.501654 70.052368 
L 203.653851 70.020634 
L 203.806048 70.053205 
L 204.049563 69.797376 
L 204.110442 69.861749 
L 204.293078 69.92651 
L 204.475715 69.863242 
L 204.597472 69.927613 
L 204.627912 69.895792 
L 204.749669 69.832453 
L 204.780109 69.86448 
L 204.962745 69.92893 
L 204.993185 69.897191 
L 205.054063 69.961093 
L 205.206261 70.057007 
L 205.2367 70.025296 
L 205.358458 69.962117 
L 205.388897 69.993978 
L 205.632412 70.121561 
L 205.875928 69.995497 
L 205.967246 70.090674 
L 206.028125 70.027587 
L 206.210761 69.964958 
L 206.2412 69.99663 
L 206.302079 69.933704 
L 206.484716 69.871315 
L 206.75867 70.02968 
L 207.032625 69.810684 
L 207.063064 69.842207 
L 207.245701 70.031064 
L 207.30658 69.968563 
L 207.397898 69.937544 
L 207.428337 69.96896 
L 207.641413 70.063445 
L 207.671853 70.032267 
L 207.732731 70.094927 
L 208.006686 70.251504 
L 208.189322 70.189448 
L 208.402398 70.283114 
L 208.493717 70.18997 
L 208.554595 70.25221 
L 208.676353 70.252366 
L 208.858989 70.190594 
L 209.041626 70.252832 
L 209.102505 70.191008 
L 209.163384 70.252987 
L 209.193823 70.283958 
L 209.254702 70.222185 
L 209.437338 70.098936 
L 209.467778 70.12988 
L 209.619975 70.161043 
L 209.83305 70.069057 
L 210.046126 70.161849 
L 210.411399 69.855781 
L 210.441839 69.886571 
L 210.624475 69.948517 
L 210.776672 69.918424 
L 210.928869 69.949528 
L 211.172384 69.828263 
L 211.294142 69.828765 
L 211.568097 69.677711 
L 211.720294 69.708896 
L 211.872491 69.67927 
L 212.055127 69.740875 
L 212.146445 69.771621 
L 212.298643 69.802589 
L 212.481279 69.742868 
L 212.755234 69.895116 
L 212.876991 69.895558 
L 213.059628 69.956486 
L 213.333582 69.806977 
L 213.546658 69.897979 
L 213.668416 69.898416 
L 213.881492 69.989086 
L 214.185886 69.810545 
L 214.277204 69.781034 
L 214.520719 69.662726 
L 214.703356 69.723273 
L 214.855553 69.694216 
L 214.946871 69.664906 
L 215.099068 69.635954 
L 215.251265 69.666456 
L 215.373023 69.667074 
L 215.555659 69.727278 
L 215.738296 69.668923 
L 216.01225 69.818056 
L 216.103568 69.847959 
L 216.255765 69.878051 
L 216.438402 69.819783 
L 216.590599 69.849836 
L 216.803675 69.762459 
L 216.925432 69.762995 
L 217.04719 69.76353 
L 217.290705 69.881818 
L 217.442902 69.853092 
L 217.534221 69.824179 
L 217.747296 69.737372 
L 218.021251 69.884447 
L 218.143009 69.884883 
L 218.386524 70.002144 
L 218.630039 69.886619 
L 218.751797 69.887051 
L 219.056191 69.714292 
L 219.177949 69.714857 
L 219.391024 69.629113 
L 219.725858 69.832788 
L 219.938934 69.747183 
L 220.091131 69.776636 
L 220.182449 69.805786 
L 220.334646 69.835137 
L 220.456404 69.835604 
L 220.608601 69.864875 
L 220.791237 69.808232 
L 220.912995 69.808719 
L 221.126071 69.723791 
L 221.278268 69.753045 
L 221.430465 69.725167 
L 221.704419 69.868844 
L 221.978374 69.72763 
L 222.130571 69.756724 
L 222.343647 69.672515 
L 222.495844 69.701594 
L 222.648041 69.673978 
L 222.739359 69.646113 
L 222.891556 69.618592 
L 223.043753 69.647623 
L 223.409026 69.423945 
L 223.561223 69.453067 
L 223.74386 69.397936 
L 223.865617 69.398725 
L 224.017814 69.371632 
L 224.170011 69.400693 
L 224.291769 69.401478 
L 224.535284 69.514998 
L 224.839678 69.349124 
L 225.113633 69.490411 
L 225.204951 69.518818 
L 225.326709 69.519509 
L 225.600664 69.382037 
L 225.905058 69.550531 
L 226.087694 69.496084 
L 226.209452 69.496789 
L 226.392088 69.442504 
L 226.574725 69.498896 
L 226.757361 69.44473 
L 227.000876 69.556476 
L 227.213952 69.475029 
L 227.30527 69.44805 
L 227.457467 69.421478 
L 227.640104 69.477528 
L 227.82274 69.423737 
L 227.914059 69.396886 
L 228.066256 69.370459 
L 228.157574 69.343677 
L 228.34021 69.290203 
L 228.492407 69.318579 
L 228.675044 69.26524 
L 228.796801 69.266103 
L 228.979438 69.212921 
L 229.162074 69.268686 
L 229.496908 69.080973 
L 229.618665 69.081967 
L 229.770862 69.056099 
L 229.89262 69.057109 
L 230.014378 69.058118 
L 230.197014 69.113707 
L 230.41009 69.034383 
L 230.653605 69.144287 
L 230.744923 69.171943 
L 231.049318 69.335651 
L 231.140636 69.363138 
L 231.323272 69.418022 
L 231.505909 69.365473 
L 231.627666 69.366249 
L 231.810303 69.313852 
L 232.023379 69.395511 
L 232.114697 69.422807 
L 232.266894 69.450429 
L 232.44953 69.398139 
L 232.601727 69.425729 
L 232.723485 69.426457 
L 232.875682 69.453977 
L 233.180076 69.296356 
L 233.454031 69.430802 
L 233.575788 69.431523 
L 233.849743 69.56544 
L 234.062819 69.487249 
L 234.245455 69.541063 
L 234.428092 69.48928 
L 234.549849 69.489955 
L 234.823804 69.359922 
L 234.915122 69.3342 
L 235.128198 69.256781 
L 235.219516 69.231159 
L 235.432592 69.154004 
L 235.615229 69.207744 
L 235.736986 69.208613 
L 235.889183 69.235844 
L 236.010941 69.236692 
L 236.132699 69.237539 
L 236.224017 69.26427 
L 236.406653 69.317647 
L 236.528411 69.318435 
L 236.650169 69.319222 
L 236.832805 69.26839 
L 237.137199 69.426196 
L 237.380714 69.323919 
L 237.62423 69.429024 
L 237.776427 69.40404 
L 237.898184 69.404762 
L 238.202578 69.251753 
L 238.415654 69.330507 
L 238.506972 69.356841 
L 238.750488 69.461226 
L 238.963564 69.385342 
L 239.207079 69.489417 
L 239.420155 69.413696 
L 239.633231 69.49171 
L 239.815867 69.441559 
L 239.998503 69.493668 
L 240.18114 69.443618 
L 240.394216 69.521261 
L 240.515973 69.521892 
L 240.850807 69.701536 
L 241.094322 69.601019 
L 241.337837 69.703552 
L 241.429156 69.729263 
L 241.520474 69.704306 
L 241.73355 69.62931 
L 241.855307 69.629862 
L 241.977065 69.630413 
L 242.068383 69.605583 
L 242.22058 69.581069 
L 242.494535 69.708297 
L 242.585853 69.73384 
L 242.798929 69.810098 
L 242.981565 69.760507 
L 243.103323 69.760966 
L 243.25552 69.736462 
L 243.438156 69.787277 
L 243.681672 69.688086 
L 243.955626 69.814122 
L 244.107823 69.789689 
L 244.26002 69.815173 
L 244.625293 69.617329 
L 244.838369 69.692868 
L 245.051445 69.619255 
L 245.203642 69.644749 
L 245.355839 69.620625 
L 245.508036 69.646075 
L 245.660233 69.62199 
L 245.903748 69.721932 
L 245.995067 69.746991 
L 246.3299 69.920846 
L 246.421218 69.945748 
L 246.573415 69.97078 
L 246.756052 69.922049 
L 246.908249 69.947055 
L 247.182204 69.82508 
L 247.395279 69.899329 
L 247.517037 69.899686 
L 247.669234 69.924607 
L 247.821431 69.900575 
L 247.943189 69.90093 
L 248.064946 69.901284 
L 248.338901 70.024019 
L 248.460659 70.024292 
L 248.673735 70.0978 
L 248.825932 70.073756 
L 249.008568 70.122715 
L 249.343402 69.953489 
L 249.617356 70.075305 
L 249.830432 70.003142 
L 250.013068 70.051906 
L 250.165266 70.028071 
L 250.287023 70.028339 
L 250.530538 69.932462 
L 250.713175 69.981114 
L 250.926251 69.909478 
L 251.078448 69.933939 
L 251.291524 69.862496 
L 251.656796 70.055281 
L 251.808994 70.031651 
L 251.930751 70.031914 
L 252.082948 70.008337 
L 252.204706 70.008615 
L 252.326463 70.008892 
L 252.630858 70.152593 
L 252.783055 70.129007 
L 252.874373 70.105352 
L 253.178767 69.963288 
L 253.330964 69.987416 
L 253.483161 69.964049 
L 253.635358 69.988137 
L 254.03107 69.776131 
L 254.213707 69.824039 
L 254.457222 69.730393 
L 254.822495 69.920243 
L 254.913813 69.944041 
L 255.06601 69.967966 
L 255.187768 69.968264 
L 255.431283 70.062811 
L 255.613919 70.016237 
L 255.735677 70.016505 
L 255.918314 69.970048 
L 256.009632 69.946853 
L 256.131389 69.947164 
L 256.405344 70.064707 
L 256.527102 70.064943 
L 256.801056 70.182079 
L 256.892375 70.20551 
L 257.13589 70.252366 
L 257.470723 70.09 
L 257.805557 70.206605 
L 257.957754 70.229969 
L 258.231709 70.299713 
L 258.566542 70.184398 
L 258.810057 70.230879 
L 259.114451 70.139018 
L 259.297088 70.139297 
L 259.479724 70.139576 
L 259.753679 70.208906 
L 259.966755 70.186208 
L 260.149391 70.186442 
L 260.271149 70.23242 
L 260.514664 70.278439 
L 260.697301 70.278587 
L 260.879937 70.278735 
L 261.062573 70.278883 
L 261.24521 70.27903 
L 261.549604 70.188224 
L 261.853998 70.279519 
L 262.188832 70.166339 
L 262.401907 70.189295 
L 262.76718 70.054008 
L 263.041135 70.122315 
L 263.254211 70.100083 
L 263.528165 70.16816 
L 263.680362 70.190886 
L 263.83256 70.16857 
L 264.045635 70.146377 
L 264.197832 70.124136 
L 264.471787 70.057267 
L 264.745742 70.124991 
L 264.897939 70.147613 
L 265.019696 70.103046 
L 265.202333 70.103349 
L 265.32409 70.058876 
L 265.658924 69.948001 
L 265.780682 69.903722 
L 265.902439 69.948591 
L 266.237273 70.060585 
L 266.450349 70.038768 
L 266.724303 70.105858 
L 267.028697 70.017752 
L 267.180894 69.995932 
L 267.39397 69.974283 
L 267.607046 69.996855 
L 267.820122 69.975251 
L 267.94188 69.931423 
L 268.246274 69.8441 
L 268.489789 69.888791 
L 268.672425 69.88928 
L 269.037698 70.021862 
L 269.372532 69.913045 
L 269.707365 70.023214 
L 270.011759 69.936501 
L 270.46835 70.133654 
L 270.772744 70.047098 
L 270.924941 70.02565 
L 271.046699 70.069336 
L 271.259775 70.091415 
L 271.411972 70.113353 
L 271.53373 70.0702 
L 271.899003 69.941044 
L 272.112078 69.963163 
L 272.233836 70.006638 
L 272.446912 70.028655 
L 272.720867 69.964545 
L 272.933942 69.986554 
L 273.086139 70.008393 
L 273.207897 69.965645 
L 273.420973 69.944648 
L 273.694928 70.009638 
L 273.968882 69.945933 
L 274.273276 70.032204 
L 274.486352 70.011245 
L 274.668989 70.011615 
L 274.973383 69.926951 
L 275.277777 70.012841 
L 275.399534 70.055638 
L 275.673489 70.119879 
L 275.825686 70.141342 
L 276.16052 70.247811 
L 276.556232 70.100038 
L 276.830187 70.163874 
L 277.195459 70.037756 
L 277.530293 70.143707 
L 277.804248 70.08097 
L 278.047763 70.123403 
L 278.260839 70.102723 
L 278.443475 70.103008 
L 278.656551 70.082385 
L 278.869627 70.103671 
L 279.052263 70.103955 
L 279.356657 70.187973 
L 279.478415 70.229865 
L 279.72193 70.271803 
L 280.056764 70.167964 
L 280.2394 70.168191 
L 280.604673 70.044045 
L 280.817749 70.065178 
L 281.000385 70.065491 
L 281.122143 70.024265 
L 281.396098 69.962711 
L 281.578734 69.963109 
L 281.883128 69.88119 
L 282.035325 69.860946 
L 282.30928 69.799853 
L 282.583235 69.86239 
L 282.918068 69.760528 
L 283.161583 69.802329 
L 283.435538 69.741622 
L 283.557296 69.70103 
L 283.709493 69.722014 
L 283.86169 69.702048 
L 283.983447 69.743352 
L 284.37916 69.887483 
L 284.622675 69.84731 
L 284.835751 69.868249 
L 285.170584 69.767412 
L 285.4141 69.808782 
L 285.840251 69.647762 
L 286.022888 69.64841 
L 286.388161 69.528333 
L 286.601236 69.549411 
L 286.753433 69.570212 
L 286.966509 69.591216 
L 287.392661 69.431725 
L 287.544858 69.412284 
L 287.788373 69.373193 
L 287.94057 69.353826 
L 288.184086 69.314866 
L 288.397161 69.335978 
L 288.640677 69.297117 
L 288.884192 69.338359 
L 289.127707 69.299579 
L 289.371222 69.340729 
L 289.553859 69.341615 
L 289.888692 69.442816 
L 290.132208 69.404096 
L 290.375723 69.444952 
L 290.619238 69.406312 
L 290.832314 69.427112 
L 291.04539 69.408244 
L 291.288905 69.448932 
L 291.501981 69.430081 
L 291.684617 69.430887 
L 291.958572 69.372887 
L 292.110769 69.353874 
L 292.415163 69.276529 
L 292.749997 69.376563 
L 293.08483 69.279916 
L 293.358785 69.340143 
L 293.541421 69.341014 
L 293.754497 69.361611 
L 294.089331 69.265406 
L 294.211088 69.226938 
L 294.424164 69.20853 
L 294.789437 69.327437 
L 295.032952 69.289657 
L 295.306907 69.349366 
L 295.611301 69.273092 
L 295.915695 69.352217 
L 296.220089 69.276138 
L 296.524483 69.355053 
L 296.767999 69.317525 
L 296.920196 69.298938 
L 297.133271 69.280678 
L 297.315908 69.281582 
L 297.468105 69.301605 
L 297.650741 69.302491 
L 297.955135 69.227039 
L 298.289969 69.324786 
L 298.533484 69.28757 
L 298.898757 69.404281 
L 299.172712 69.348086 
L 299.477106 69.425921 
L 299.720621 69.388789 
L 300.085894 69.504758 
L 300.238091 69.524404 
L 300.542485 69.601664 
L 300.694682 69.62121 
L 300.968637 69.679114 
L 301.30347 69.585379 
L 301.760061 69.757333 
L 301.912258 69.77668 
L 302.094895 69.777186 
L 302.33841 69.740103 
L 302.581925 69.778532 
L 302.795001 69.760277 
L 303.008077 69.779706 
L 303.190714 69.780208 
L 303.37335 69.780708 
L 303.616865 69.743819 
L 303.921259 69.819716 
L 304.225653 69.745574 
L 304.37785 69.727293 
L 304.560487 69.727831 
L 304.743123 69.728369 
L 305.017078 69.673165 
L 305.473669 69.842317 
L 306.021578 69.620556 
L 306.234654 69.63985 
L 306.386851 69.658914 
L 306.569488 69.6595 
L 306.813003 69.623215 
L 306.995639 69.623826 
L 307.208715 69.606036 
L 307.391352 69.606659 
L 307.634867 69.570549 
L 307.756625 69.534061 
L 308.091458 69.443123 
L 308.334973 69.480946 
L 308.669807 69.390295 
L 308.913322 69.428081 
L 309.156837 69.392372 
L 309.461231 69.466995 
L 309.643868 69.467715 
L 309.856944 69.486857 
L 310.009141 69.505736 
L 310.313535 69.579963 
L 310.617929 69.508033 
L 310.800565 69.508719 
L 310.952762 69.527513 
L 311.135399 69.528184 
L 311.287596 69.54694 
L 311.470232 69.547597 
L 311.59199 69.584384 
L 311.987702 69.712767 
L 312.170339 69.713299 
L 312.322536 69.695621 
L 312.657369 69.606131 
L 312.840006 69.60674 
L 312.961763 69.643297 
L 313.448794 69.825248 
L 313.814067 69.718058 
L 313.966264 69.700493 
L 314.17934 69.683132 
L 314.331537 69.665613 
L 314.909885 69.434229 
L 315.18384 69.489069 
L 315.640431 69.329836 
L 315.944825 69.402619 
L 316.127462 69.403368 
L 316.401416 69.457978 
L 316.584053 69.458685 
L 316.797129 69.47731 
L 317.192841 69.354389 
L 317.314599 69.319378 
L 317.558114 69.284952 
L 317.710311 69.267904 
L 317.923387 69.251161 
L 318.25822 69.34122 
L 318.379978 69.377127 
L 318.684372 69.449073 
L 318.897448 69.432243 
L 319.080084 69.432961 
L 319.232281 69.451192 
L 319.506236 69.505089 
L 319.749751 69.470781 
L 320.145464 69.595261 
L 320.3281 69.595861 
L 320.449858 69.561162 
L 320.784691 69.474671 
L 321.058646 69.528219 
L 321.210843 69.546253 
L 321.393479 69.546885 
L 321.758752 69.443384 
L 322.002267 69.479208 
L 322.154464 69.497206 
L 322.39798 69.532925 
L 322.550177 69.550863 
L 322.824131 69.603966 
L 322.976328 69.621833 
L 323.189404 69.639867 
L 323.341601 69.657689 
L 323.554677 69.675668 
L 323.859071 69.607281 
L 324.041708 69.607863 
L 324.224344 69.608445 
L 324.376541 69.591644 
L 324.559178 69.592236 
L 324.741814 69.592827 
L 324.894011 69.61057 
L 325.289723 69.732395 
L 325.44192 69.75002 
L 325.654996 69.76778 
L 326.050709 69.648565 
L 326.202906 69.631858 
L 326.537739 69.547168 
L 326.659497 69.513309 
L 326.811694 69.530969 
L 327.085648 69.583235 
L 327.359603 69.532852 
L 327.572679 69.550659 
L 327.724876 69.568236 
L 327.907512 69.568837 
L 328.120588 69.552496 
L 328.303225 69.553107 
L 328.54674 69.519893 
L 328.881574 69.606011 
L 329.185968 69.539074 
L 329.429483 69.573811 
L 329.703438 69.523882 
L 329.977392 69.575588 
L 330.160029 69.576178 
L 330.281786 69.542766 
L 330.555741 69.493028 
L 330.738377 69.493674 
L 331.073211 69.410591 
L 331.438484 69.512971 
L 331.65156 69.496889 
L 331.864635 69.51444 
L 332.077711 69.498382 
L 332.199469 69.465244 
L 332.442984 69.43259 
L 332.564742 69.399526 
L 332.838697 69.350355 
L 333.082212 69.384792 
L 333.447485 69.285988 
L 333.660561 69.303588 
L 333.904076 69.271256 
L 334.056273 69.255245 
L 334.330227 69.206491 
L 334.451985 69.173758 
L 334.665061 69.158122 
L 334.908576 69.192499 
L 335.121652 69.176874 
L 335.334728 69.194451 
L 335.456486 69.228171 
L 335.700001 69.262386 
L 335.852198 69.2796 
L 336.004395 69.263699 
L 336.187031 69.264485 
L 336.552304 69.365144 
L 336.704501 69.382248 
L 337.008895 69.449372 
L 337.221971 69.433667 
L 337.465486 69.467479 
L 337.648123 69.468126 
L 337.861199 69.485315 
L 338.135153 69.437006 
L 338.348229 69.454189 
L 338.683063 69.37345 
L 338.83526 69.357661 
L 339.200533 69.260953 
L 339.35273 69.245255 
L 339.596245 69.213641 
L 339.809321 69.230905 
L 339.961518 69.247881 
L 340.144154 69.248667 
L 340.326791 69.249451 
L 340.570306 69.283047 
L 340.752942 69.283807 
L 341.239973 69.448195 
L 341.422609 69.448845 
L 341.666125 69.482134 
L 341.879201 69.466667 
L 342.061837 69.467303 
L 342.366231 69.403679 
L 342.487989 69.371803 
L 342.792383 69.30838 
L 342.975019 69.309118 
L 343.401171 69.181948 
L 343.614247 69.199002 
L 343.796883 69.199809 
L 344.040398 69.233032 
L 344.405671 69.138277 
L 344.679626 69.187657 
L 344.892702 69.172578 
L 345.197096 69.237979 
L 345.440611 69.207026 
L 345.592808 69.191704 
L 345.958081 69.097523 
L 346.079839 69.066183 
L 346.262475 69.067069 
L 346.53643 69.116194 
L 346.779945 69.085492 
L 346.962582 69.086363 
L 347.084339 69.118747 
L 347.266976 69.119596 
L 347.480052 69.104705 
L 347.814885 69.185581 
L 348.08884 69.139249 
L 348.423673 69.219911 
L 348.57587 69.23638 
L 348.788946 69.253085 
L 348.941143 69.269515 
L 349.12378 69.270262 
L 349.397734 69.22406 
L 349.519492 69.193044 
L 349.702128 69.193838 
L 349.915204 69.210508 
L 350.12828 69.195687 
L 350.280477 69.180621 
L 350.463113 69.181422 
L 350.676189 69.198057 
L 350.950144 69.152173 
L 351.102341 69.137174 
L 351.437175 69.060377 
L 351.68069 69.092838 
L 352.19816 68.923423 
L 352.502554 68.956226 
L 352.746069 68.926291 
L 353.050463 68.959029 
L 353.324418 68.913747 
L 353.507054 68.883606 
L 353.994085 68.730971 
L 354.572434 68.904787 
L 354.75507 68.936715 
L 355.089903 68.984836 
L 355.516055 68.894297 
L 355.850889 68.942341 
L 356.429237 68.775947 
L 356.642313 68.761771 
L 356.916268 68.747966 
L 357.190223 68.764897 
L 357.585935 68.690475 
L 357.738132 68.645399 
L 357.981647 68.646881 
L 358.407799 68.741219 
L 358.590435 68.772834 
L 359.016587 68.866796 
L 359.229663 68.883178 
L 359.534057 68.915243 
L 360.021087 68.796074 
L 360.295042 68.812784 
L 360.447239 68.859177 
L 360.751633 68.891136 
L 361.086467 68.847413 
L 361.269103 68.818099 
L 361.695255 68.729673 
L 361.96921 68.74635 
L 362.212725 68.747728 
L 362.730195 68.88629 
L 363.125907 68.813083 
L 363.338983 68.799197 
L 363.643377 68.770808 
L 363.917332 68.787339 
L 364.130407 68.80351 
L 364.373923 68.804832 
L 364.586999 68.820966 
L 364.860953 68.8374 
L 365.165347 68.809116 
L 365.378423 68.795326 
L 365.652378 68.78189 
L 365.926333 68.798301 
L 366.07853 68.843839 
L 366.230727 68.799949 
L 366.474242 68.801266 
L 366.717757 68.80258 
L 367.022151 68.774503 
L 367.235227 68.760822 
L 367.691818 68.659561 
L 367.691818 68.659561 
" style="fill:none;stroke:#4c72b0;stroke-linecap:round;stroke-width:1.5;"/>
   </g>
   <g id="patch_3">
    <path d="M 48.11 228.576797 
L 48.11 11.136797 
" style="fill:none;stroke:#262626;stroke-linecap:square;stroke-linejoin:miter;stroke-width:1.25;"/>
   </g>
   <g id="patch_4">
    <path d="M 382.91 228.576797 
L 382.91 11.136797 
" style="fill:none;stroke:#262626;stroke-linecap:square;stroke-linejoin:miter;stroke-width:1.25;"/>
   </g>
   <g id="patch_5">
    <path d="M 48.11 228.576797 
L 382.91 228.576797 
" style="fill:none;stroke:#262626;stroke-linecap:square;stroke-linejoin:miter;stroke-width:1.25;"/>
   </g>
   <g id="patch_6">
    <path d="M 48.11 11.136797 
L 382.91 11.136797 
" style="fill:none;stroke:#262626;stroke-linecap:square;stroke-linejoin:miter;stroke-width:1.25;"/>
   </g>
  </g>
 </g>
 <defs>
  <clipPath id="pd4c6129343">
   <rect height="217.44" width="334.8" x="48.11" y="11.136797"/>
  </clipPath>
 </defs>
</svg>
