<?xml version="1.0" encoding="utf-8" standalone="no"?>
<!DOCTYPE svg PUBLIC "-//W3C//DTD SVG 1.1//EN"
  "http://www.w3.org/Graphics/SVG/1.1/DTD/svg11.dtd">
<!-- Created with matplotlib (https://matplotlib.org/) -->
<svg height="275.717344pt" version="1.1" viewBox="0 0 418.424062 275.717344" width="418.424062pt" xmlns="http://www.w3.org/2000/svg" xmlns:xlink="http://www.w3.org/1999/xlink">
 <metadata>
  <rdf:RDF xmlns:cc="http://creativecommons.org/ns#" xmlns:dc="http://purl.org/dc/elements/1.1/" xmlns:rdf="http://www.w3.org/1999/02/22-rdf-syntax-ns#">
   <cc:Work>
    <dc:type rdf:resource="http://purl.org/dc/dcmitype/StillImage"/>
    <dc:date>2021-07-23T11:58:29.225033</dc:date>
    <dc:format>image/svg+xml</dc:format>
    <dc:creator>
     <cc:Agent>
      <dc:title>Matplotlib v3.3.4, https://matplotlib.org/</dc:title>
     </cc:Agent>
    </dc:creator>
   </cc:Work>
  </rdf:RDF>
 </metadata>
 <defs>
  <style type="text/css">*{stroke-linecap:butt;stroke-linejoin:round;}</style>
 </defs>
 <g id="figure_1">
  <g id="patch_1">
   <path d="M 0 275.717344 
L 418.424062 275.717344 
L 418.424062 0 
L 0 0 
z
" style="fill:#ffffff;"/>
  </g>
  <g id="axes_1">
   <g id="patch_2">
    <path d="M 53.747031 96.463125 
L 405.107031 96.463125 
L 405.107031 21.789375 
L 53.747031 21.789375 
z
" style="fill:#ffffff;"/>
   </g>
   <g id="matplotlib.axis_1">
    <g id="xtick_1">
     <g id="line2d_1">
      <defs>
       <path d="M 0 0 
L 0 6 
" id="m6d9ab293c3" style="stroke:#262626;stroke-width:1.25;"/>
      </defs>
      <g>
       <use style="fill:#262626;stroke:#262626;stroke-width:1.25;" x="77.171031" xlink:href="#m6d9ab293c3" y="96.463125"/>
      </g>
     </g>
     <g id="text_1">
      <!-- −4 -->
      <g style="fill:#262626;" transform="translate(70.900172 113.836719)scale(0.11 -0.11)">
       <defs>
        <path d="M 52.828125 31.203125 
L 5.5625 31.203125 
L 5.5625 39.40625 
L 52.828125 39.40625 
z
" id="ArialMT-8722"/>
        <path d="M 32.328125 0 
L 32.328125 17.140625 
L 1.265625 17.140625 
L 1.265625 25.203125 
L 33.9375 71.578125 
L 41.109375 71.578125 
L 41.109375 25.203125 
L 50.78125 25.203125 
L 50.78125 17.140625 
L 41.109375 17.140625 
L 41.109375 0 
z
M 32.328125 25.203125 
L 32.328125 57.46875 
L 9.90625 25.203125 
z
" id="ArialMT-52"/>
       </defs>
       <use xlink:href="#ArialMT-8722"/>
       <use x="58.398438" xlink:href="#ArialMT-52"/>
      </g>
     </g>
    </g>
    <g id="xtick_2">
     <g id="line2d_2">
      <g>
       <use style="fill:#262626;stroke:#262626;stroke-width:1.25;" x="124.019031" xlink:href="#m6d9ab293c3" y="96.463125"/>
      </g>
     </g>
     <g id="text_2">
      <!-- −2 -->
      <g style="fill:#262626;" transform="translate(117.748172 113.836719)scale(0.11 -0.11)">
       <defs>
        <path d="M 50.34375 8.453125 
L 50.34375 0 
L 3.03125 0 
Q 2.9375 3.171875 4.046875 6.109375 
Q 5.859375 10.9375 9.828125 15.625 
Q 13.8125 20.3125 21.34375 26.46875 
Q 33.015625 36.03125 37.109375 41.625 
Q 41.21875 47.21875 41.21875 52.203125 
Q 41.21875 57.421875 37.46875 61 
Q 33.734375 64.59375 27.734375 64.59375 
Q 21.390625 64.59375 17.578125 60.78125 
Q 13.765625 56.984375 13.71875 50.25 
L 4.6875 51.171875 
Q 5.609375 61.28125 11.65625 66.578125 
Q 17.71875 71.875 27.9375 71.875 
Q 38.234375 71.875 44.234375 66.15625 
Q 50.25 60.453125 50.25 52 
Q 50.25 47.703125 48.484375 43.546875 
Q 46.734375 39.40625 42.65625 34.8125 
Q 38.578125 30.21875 29.109375 22.21875 
Q 21.1875 15.578125 18.9375 13.203125 
Q 16.703125 10.84375 15.234375 8.453125 
z
" id="ArialMT-50"/>
       </defs>
       <use xlink:href="#ArialMT-8722"/>
       <use x="58.398438" xlink:href="#ArialMT-50"/>
      </g>
     </g>
    </g>
    <g id="xtick_3">
     <g id="line2d_3">
      <g>
       <use style="fill:#262626;stroke:#262626;stroke-width:1.25;" x="170.867031" xlink:href="#m6d9ab293c3" y="96.463125"/>
      </g>
     </g>
     <g id="text_3">
      <!-- 0 -->
      <g style="fill:#262626;" transform="translate(167.808516 113.836719)scale(0.11 -0.11)">
       <defs>
        <path d="M 4.15625 35.296875 
Q 4.15625 48 6.765625 55.734375 
Q 9.375 63.484375 14.515625 67.671875 
Q 19.671875 71.875 27.484375 71.875 
Q 33.25 71.875 37.59375 69.546875 
Q 41.9375 67.234375 44.765625 62.859375 
Q 47.609375 58.5 49.21875 52.21875 
Q 50.828125 45.953125 50.828125 35.296875 
Q 50.828125 22.703125 48.234375 14.96875 
Q 45.65625 7.234375 40.5 3 
Q 35.359375 -1.21875 27.484375 -1.21875 
Q 17.140625 -1.21875 11.234375 6.203125 
Q 4.15625 15.140625 4.15625 35.296875 
z
M 13.1875 35.296875 
Q 13.1875 17.671875 17.3125 11.828125 
Q 21.4375 6 27.484375 6 
Q 33.546875 6 37.671875 11.859375 
Q 41.796875 17.71875 41.796875 35.296875 
Q 41.796875 52.984375 37.671875 58.78125 
Q 33.546875 64.59375 27.390625 64.59375 
Q 21.34375 64.59375 17.71875 59.46875 
Q 13.1875 52.9375 13.1875 35.296875 
z
" id="ArialMT-48"/>
       </defs>
       <use xlink:href="#ArialMT-48"/>
      </g>
     </g>
    </g>
    <g id="xtick_4">
     <g id="line2d_4">
      <g>
       <use style="fill:#262626;stroke:#262626;stroke-width:1.25;" x="217.715031" xlink:href="#m6d9ab293c3" y="96.463125"/>
      </g>
     </g>
     <g id="text_4">
      <!-- 2 -->
      <g style="fill:#262626;" transform="translate(214.656516 113.836719)scale(0.11 -0.11)">
       <use xlink:href="#ArialMT-50"/>
      </g>
     </g>
    </g>
    <g id="xtick_5">
     <g id="line2d_5">
      <g>
       <use style="fill:#262626;stroke:#262626;stroke-width:1.25;" x="264.563031" xlink:href="#m6d9ab293c3" y="96.463125"/>
      </g>
     </g>
     <g id="text_5">
      <!-- 4 -->
      <g style="fill:#262626;" transform="translate(261.504516 113.836719)scale(0.11 -0.11)">
       <use xlink:href="#ArialMT-52"/>
      </g>
     </g>
    </g>
    <g id="xtick_6">
     <g id="line2d_6">
      <g>
       <use style="fill:#262626;stroke:#262626;stroke-width:1.25;" x="311.411031" xlink:href="#m6d9ab293c3" y="96.463125"/>
      </g>
     </g>
     <g id="text_6">
      <!-- 6 -->
      <g style="fill:#262626;" transform="translate(308.352516 113.836719)scale(0.11 -0.11)">
       <defs>
        <path d="M 49.75 54.046875 
L 41.015625 53.375 
Q 39.84375 58.546875 37.703125 60.890625 
Q 34.125 64.65625 28.90625 64.65625 
Q 24.703125 64.65625 21.53125 62.3125 
Q 17.390625 59.28125 14.984375 53.46875 
Q 12.59375 47.65625 12.5 36.921875 
Q 15.671875 41.75 20.265625 44.09375 
Q 24.859375 46.4375 29.890625 46.4375 
Q 38.671875 46.4375 44.84375 39.96875 
Q 51.03125 33.5 51.03125 23.25 
Q 51.03125 16.5 48.125 10.71875 
Q 45.21875 4.9375 40.140625 1.859375 
Q 35.0625 -1.21875 28.609375 -1.21875 
Q 17.625 -1.21875 10.6875 6.859375 
Q 3.765625 14.9375 3.765625 33.5 
Q 3.765625 54.25 11.421875 63.671875 
Q 18.109375 71.875 29.4375 71.875 
Q 37.890625 71.875 43.28125 67.140625 
Q 48.6875 62.40625 49.75 54.046875 
z
M 13.875 23.1875 
Q 13.875 18.65625 15.796875 14.5 
Q 17.71875 10.359375 21.1875 8.171875 
Q 24.65625 6 28.46875 6 
Q 34.03125 6 38.03125 10.484375 
Q 42.046875 14.984375 42.046875 22.703125 
Q 42.046875 30.125 38.078125 34.390625 
Q 34.125 38.671875 28.125 38.671875 
Q 22.171875 38.671875 18.015625 34.390625 
Q 13.875 30.125 13.875 23.1875 
z
" id="ArialMT-54"/>
       </defs>
       <use xlink:href="#ArialMT-54"/>
      </g>
     </g>
    </g>
    <g id="xtick_7">
     <g id="line2d_7">
      <g>
       <use style="fill:#262626;stroke:#262626;stroke-width:1.25;" x="358.259031" xlink:href="#m6d9ab293c3" y="96.463125"/>
      </g>
     </g>
     <g id="text_7">
      <!-- 8 -->
      <g style="fill:#262626;" transform="translate(355.200516 113.836719)scale(0.11 -0.11)">
       <defs>
        <path d="M 17.671875 38.8125 
Q 12.203125 40.828125 9.5625 44.53125 
Q 6.9375 48.25 6.9375 53.421875 
Q 6.9375 61.234375 12.546875 66.546875 
Q 18.171875 71.875 27.484375 71.875 
Q 36.859375 71.875 42.578125 66.421875 
Q 48.296875 60.984375 48.296875 53.171875 
Q 48.296875 48.1875 45.671875 44.5 
Q 43.0625 40.828125 37.75 38.8125 
Q 44.34375 36.671875 47.78125 31.875 
Q 51.21875 27.09375 51.21875 20.453125 
Q 51.21875 11.28125 44.71875 5.03125 
Q 38.234375 -1.21875 27.640625 -1.21875 
Q 17.046875 -1.21875 10.546875 5.046875 
Q 4.046875 11.328125 4.046875 20.703125 
Q 4.046875 27.6875 7.59375 32.390625 
Q 11.140625 37.109375 17.671875 38.8125 
z
M 15.921875 53.71875 
Q 15.921875 48.640625 19.1875 45.40625 
Q 22.46875 42.1875 27.6875 42.1875 
Q 32.765625 42.1875 36.015625 45.375 
Q 39.265625 48.578125 39.265625 53.21875 
Q 39.265625 58.0625 35.90625 61.359375 
Q 32.5625 64.65625 27.59375 64.65625 
Q 22.5625 64.65625 19.234375 61.421875 
Q 15.921875 58.203125 15.921875 53.71875 
z
M 13.09375 20.65625 
Q 13.09375 16.890625 14.875 13.375 
Q 16.65625 9.859375 20.171875 7.921875 
Q 23.6875 6 27.734375 6 
Q 34.03125 6 38.125 10.046875 
Q 42.234375 14.109375 42.234375 20.359375 
Q 42.234375 26.703125 38.015625 30.859375 
Q 33.796875 35.015625 27.4375 35.015625 
Q 21.234375 35.015625 17.15625 30.90625 
Q 13.09375 26.8125 13.09375 20.65625 
z
" id="ArialMT-56"/>
       </defs>
       <use xlink:href="#ArialMT-56"/>
      </g>
     </g>
    </g>
    <g id="xtick_8">
     <g id="line2d_8">
      <g>
       <use style="fill:#262626;stroke:#262626;stroke-width:1.25;" x="405.107031" xlink:href="#m6d9ab293c3" y="96.463125"/>
      </g>
     </g>
     <g id="text_8">
      <!-- 10 -->
      <g style="fill:#262626;" transform="translate(398.99 113.836719)scale(0.11 -0.11)">
       <defs>
        <path d="M 37.25 0 
L 28.46875 0 
L 28.46875 56 
Q 25.296875 52.984375 20.140625 49.953125 
Q 14.984375 46.921875 10.890625 45.40625 
L 10.890625 53.90625 
Q 18.265625 57.375 23.78125 62.296875 
Q 29.296875 67.234375 31.59375 71.875 
L 37.25 71.875 
z
" id="ArialMT-49"/>
       </defs>
       <use xlink:href="#ArialMT-49"/>
       <use x="55.615234" xlink:href="#ArialMT-48"/>
      </g>
     </g>
    </g>
    <g id="text_9">
     <!-- $x$ -->
     <g style="fill:#262626;" transform="translate(225.827031 128.612344)scale(0.12 -0.12)">
      <defs>
       <path d="M 60.015625 54.6875 
L 34.90625 27.875 
L 50.296875 0 
L 39.984375 0 
L 28.421875 21.6875 
L 8.296875 0 
L -2.59375 0 
L 24.3125 28.8125 
L 10.015625 54.6875 
L 20.3125 54.6875 
L 30.8125 34.90625 
L 49.125 54.6875 
z
" id="DejaVuSans-Oblique-120"/>
      </defs>
      <use transform="translate(0 0.3125)" xlink:href="#DejaVuSans-Oblique-120"/>
     </g>
    </g>
   </g>
   <g id="matplotlib.axis_2">
    <g id="ytick_1">
     <g id="line2d_9">
      <defs>
       <path d="M 0 0 
L -6 0 
" id="mfffa099cbe" style="stroke:#262626;stroke-width:1.25;"/>
      </defs>
      <g>
       <use style="fill:#262626;stroke:#262626;stroke-width:1.25;" x="53.747031" xlink:href="#mfffa099cbe" y="93.068864"/>
      </g>
     </g>
     <g id="text_10">
      <!-- 0.00 -->
      <g style="fill:#262626;" transform="translate(22.84 97.005661)scale(0.11 -0.11)">
       <defs>
        <path d="M 9.078125 0 
L 9.078125 10.015625 
L 19.09375 10.015625 
L 19.09375 0 
z
" id="ArialMT-46"/>
       </defs>
       <use xlink:href="#ArialMT-48"/>
       <use x="55.615234" xlink:href="#ArialMT-46"/>
       <use x="83.398438" xlink:href="#ArialMT-48"/>
       <use x="139.013672" xlink:href="#ArialMT-48"/>
      </g>
     </g>
    </g>
    <g id="ytick_2">
     <g id="line2d_10">
      <g>
       <use style="fill:#262626;stroke:#262626;stroke-width:1.25;" x="53.747031" xlink:href="#mfffa099cbe" y="62.750862"/>
      </g>
     </g>
     <g id="text_11">
      <!-- 0.25 -->
      <g style="fill:#262626;" transform="translate(22.84 66.687658)scale(0.11 -0.11)">
       <defs>
        <path d="M 4.15625 18.75 
L 13.375 19.53125 
Q 14.40625 12.796875 18.140625 9.390625 
Q 21.875 6 27.15625 6 
Q 33.5 6 37.890625 10.78125 
Q 42.28125 15.578125 42.28125 23.484375 
Q 42.28125 31 38.0625 35.34375 
Q 33.84375 39.703125 27 39.703125 
Q 22.75 39.703125 19.328125 37.765625 
Q 15.921875 35.84375 13.96875 32.765625 
L 5.71875 33.84375 
L 12.640625 70.609375 
L 48.25 70.609375 
L 48.25 62.203125 
L 19.671875 62.203125 
L 15.828125 42.96875 
Q 22.265625 47.46875 29.34375 47.46875 
Q 38.71875 47.46875 45.15625 40.96875 
Q 51.609375 34.46875 51.609375 24.265625 
Q 51.609375 14.546875 45.953125 7.46875 
Q 39.0625 -1.21875 27.15625 -1.21875 
Q 17.390625 -1.21875 11.203125 4.25 
Q 5.03125 9.71875 4.15625 18.75 
z
" id="ArialMT-53"/>
       </defs>
       <use xlink:href="#ArialMT-48"/>
       <use x="55.615234" xlink:href="#ArialMT-46"/>
       <use x="83.398438" xlink:href="#ArialMT-50"/>
       <use x="139.013672" xlink:href="#ArialMT-53"/>
      </g>
     </g>
    </g>
    <g id="ytick_3">
     <g id="line2d_11">
      <g>
       <use style="fill:#262626;stroke:#262626;stroke-width:1.25;" x="53.747031" xlink:href="#mfffa099cbe" y="32.43286"/>
      </g>
     </g>
     <g id="text_12">
      <!-- 0.50 -->
      <g style="fill:#262626;" transform="translate(22.84 36.369656)scale(0.11 -0.11)">
       <use xlink:href="#ArialMT-48"/>
       <use x="55.615234" xlink:href="#ArialMT-46"/>
       <use x="83.398438" xlink:href="#ArialMT-53"/>
       <use x="139.013672" xlink:href="#ArialMT-48"/>
      </g>
     </g>
    </g>
    <g id="text_13">
     <!-- $p(x)$ -->
     <g style="fill:#262626;" transform="translate(16.32 71.18625)rotate(-90)scale(0.12 -0.12)">
      <defs>
       <path d="M 49.609375 33.6875 
Q 49.609375 40.875 46.484375 44.671875 
Q 43.359375 48.484375 37.5 48.484375 
Q 33.5 48.484375 29.859375 46.4375 
Q 26.21875 44.390625 23.390625 40.484375 
Q 20.609375 36.625 18.9375 31.15625 
Q 17.28125 25.6875 17.28125 20.3125 
Q 17.28125 13.484375 20.40625 9.796875 
Q 23.53125 6.109375 29.296875 6.109375 
Q 33.546875 6.109375 37.1875 8.109375 
Q 40.828125 10.109375 43.40625 13.921875 
Q 46.1875 17.921875 47.890625 23.34375 
Q 49.609375 28.765625 49.609375 33.6875 
z
M 21.78125 46.390625 
Q 25.390625 51.125 30.296875 53.5625 
Q 35.203125 56 41.21875 56 
Q 49.609375 56 54.25 50.5 
Q 58.890625 45.015625 58.890625 35.109375 
Q 58.890625 27 56 19.65625 
Q 53.125 12.3125 47.703125 6.5 
Q 44.09375 2.640625 39.546875 0.609375 
Q 35.015625 -1.421875 29.984375 -1.421875 
Q 24.171875 -1.421875 20.21875 1 
Q 16.265625 3.421875 14.3125 8.203125 
L 8.6875 -20.796875 
L -0.296875 -20.796875 
L 14.40625 54.6875 
L 23.390625 54.6875 
z
" id="DejaVuSans-Oblique-112"/>
       <path d="M 31 75.875 
Q 24.46875 64.65625 21.28125 53.65625 
Q 18.109375 42.671875 18.109375 31.390625 
Q 18.109375 20.125 21.3125 9.0625 
Q 24.515625 -2 31 -13.1875 
L 23.1875 -13.1875 
Q 15.875 -1.703125 12.234375 9.375 
Q 8.59375 20.453125 8.59375 31.390625 
Q 8.59375 42.28125 12.203125 53.3125 
Q 15.828125 64.359375 23.1875 75.875 
z
" id="DejaVuSans-40"/>
       <path d="M 8.015625 75.875 
L 15.828125 75.875 
Q 23.140625 64.359375 26.78125 53.3125 
Q 30.421875 42.28125 30.421875 31.390625 
Q 30.421875 20.453125 26.78125 9.375 
Q 23.140625 -1.703125 15.828125 -13.1875 
L 8.015625 -13.1875 
Q 14.5 -2 17.703125 9.0625 
Q 20.90625 20.125 20.90625 31.390625 
Q 20.90625 42.671875 17.703125 53.65625 
Q 14.5 64.65625 8.015625 75.875 
z
" id="DejaVuSans-41"/>
      </defs>
      <use transform="translate(0 0.125)" xlink:href="#DejaVuSans-Oblique-112"/>
      <use transform="translate(63.476562 0.125)" xlink:href="#DejaVuSans-40"/>
      <use transform="translate(102.490234 0.125)" xlink:href="#DejaVuSans-Oblique-120"/>
      <use transform="translate(161.669922 0.125)" xlink:href="#DejaVuSans-41"/>
     </g>
    </g>
   </g>
   <g id="PolyCollection_1">
    <defs>
     <path d="M 53.747031 -182.648534 
L 53.747031 -182.64848 
L 55.512659 -182.64848 
L 57.278288 -182.64848 
L 59.043916 -182.64848 
L 60.809544 -182.64848 
L 62.575172 -182.64848 
L 64.3408 -182.64848 
L 66.106428 -182.64848 
L 67.872056 -182.64848 
L 69.637685 -182.64848 
L 71.403313 -182.64848 
L 73.168941 -182.64848 
L 74.934569 -182.64848 
L 76.700197 -182.64848 
L 78.465825 -182.64848 
L 80.231453 -182.64848 
L 81.997082 -182.64848 
L 83.76271 -182.64848 
L 85.528338 -182.64848 
L 87.293966 -182.64848 
L 89.059594 -182.64848 
L 90.825222 -182.64848 
L 92.59085 -182.64848 
L 94.356478 -182.64848 
L 96.122107 -182.64848 
L 97.887735 -182.64848 
L 99.653363 -182.64848 
L 101.418991 -182.64848 
L 103.184619 -182.64848 
L 104.950247 -182.64848 
L 106.715875 -182.64848 
L 108.481504 -182.64848 
L 110.247132 -182.64848 
L 112.01276 -182.64848 
L 113.778388 -182.64848 
L 115.544016 -182.64848 
L 117.309644 -182.64848 
L 119.075272 -182.64848 
L 120.840901 -182.64848 
L 122.606529 -182.64848 
L 124.372157 -182.64848 
L 126.137785 -182.64848 
L 127.903413 -182.64848 
L 129.669041 -182.64848 
L 131.434669 -182.64848 
L 133.200298 -182.64848 
L 134.965926 -182.64848 
L 136.731554 -182.64848 
L 138.497182 -182.64848 
L 140.26281 -182.64848 
L 142.028438 -182.64848 
L 143.794066 -182.64848 
L 145.559695 -182.64848 
L 147.325323 -182.64848 
L 149.090951 -182.64848 
L 150.856579 -182.64848 
L 152.622207 -182.64848 
L 154.387835 -182.64848 
L 156.153463 -182.64848 
L 157.919092 -182.64848 
L 159.68472 -182.64848 
L 161.450348 -182.64848 
L 163.215976 -182.64848 
L 164.981604 -182.64848 
L 166.747232 -182.64848 
L 168.51286 -182.64848 
L 170.278489 -182.64848 
L 172.044117 -182.64848 
L 173.809745 -182.64848 
L 175.575373 -182.64848 
L 177.341001 -182.64848 
L 179.106629 -182.64848 
L 180.872257 -182.64848 
L 182.637886 -182.64848 
L 184.403514 -182.64848 
L 186.169142 -182.64848 
L 187.93477 -182.64848 
L 189.700398 -182.64848 
L 191.466026 -182.64848 
L 193.231654 -182.64848 
L 194.997283 -182.64848 
L 196.762911 -182.64848 
L 198.528539 -182.64848 
L 200.294167 -182.64848 
L 202.059795 -182.64848 
L 203.825423 -182.64848 
L 205.591051 -182.64848 
L 207.356679 -182.64848 
L 209.122308 -182.64848 
L 210.887936 -182.64848 
L 212.653564 -182.64848 
L 214.419192 -182.64848 
L 216.18482 -182.64848 
L 217.950448 -182.64848 
L 219.716076 -182.64848 
L 221.481705 -182.64848 
L 223.247333 -182.64848 
L 225.012961 -182.64848 
L 226.778589 -182.64848 
L 228.544217 -182.64848 
L 230.309845 -182.64848 
L 232.075473 -182.64848 
L 233.841102 -182.64848 
L 235.60673 -182.64848 
L 237.372358 -182.64848 
L 239.137986 -182.64848 
L 240.903614 -182.64848 
L 242.669242 -182.64848 
L 244.43487 -182.64848 
L 246.200499 -182.64848 
L 247.966127 -182.64848 
L 249.731755 -182.64848 
L 251.497383 -182.64848 
L 253.263011 -182.64848 
L 255.028639 -182.64848 
L 256.794267 -182.64848 
L 258.559896 -182.64848 
L 260.325524 -182.64848 
L 262.091152 -182.64848 
L 263.85678 -182.64848 
L 265.622408 -182.64848 
L 267.388036 -182.64848 
L 269.153664 -182.64848 
L 270.919293 -182.64848 
L 272.684921 -182.64848 
L 274.450549 -182.64848 
L 276.216177 -182.64848 
L 277.981805 -182.64848 
L 279.747433 -182.64848 
L 281.513061 -182.64848 
L 283.27869 -182.64848 
L 285.044318 -182.64848 
L 286.809946 -182.64848 
L 288.575574 -182.64848 
L 290.341202 -182.64848 
L 292.10683 -182.64848 
L 293.872458 -182.64848 
L 295.638087 -182.64848 
L 297.403715 -182.64848 
L 299.169343 -182.64848 
L 300.934971 -182.64848 
L 302.700599 -182.64848 
L 304.466227 -182.64848 
L 306.231855 -182.64848 
L 307.997484 -182.64848 
L 309.763112 -182.64848 
L 311.52874 -182.64848 
L 313.294368 -182.64848 
L 315.059996 -182.64848 
L 316.825624 -182.64848 
L 318.591252 -182.64848 
L 320.35688 -182.64848 
L 322.122509 -182.64848 
L 323.888137 -182.64848 
L 325.653765 -182.64848 
L 327.419393 -182.64848 
L 329.185021 -182.64848 
L 330.950649 -182.64848 
L 332.716277 -182.64848 
L 334.481906 -182.64848 
L 336.247534 -182.64848 
L 338.013162 -182.64848 
L 339.77879 -182.64848 
L 341.544418 -182.64848 
L 343.310046 -182.64848 
L 345.075674 -182.64848 
L 346.841303 -182.64848 
L 348.606931 -182.64848 
L 350.372559 -182.64848 
L 352.138187 -182.64848 
L 353.903815 -182.64848 
L 355.669443 -182.64848 
L 357.435071 -182.64848 
L 359.2007 -182.64848 
L 360.966328 -182.64848 
L 362.731956 -182.64848 
L 364.497584 -182.64848 
L 366.263212 -182.64848 
L 368.02884 -182.64848 
L 369.794468 -182.64848 
L 371.560097 -182.64848 
L 373.325725 -182.64848 
L 375.091353 -182.64848 
L 376.856981 -182.64848 
L 378.622609 -182.64848 
L 380.388237 -182.64848 
L 382.153865 -182.64848 
L 383.919494 -182.64848 
L 385.685122 -182.64848 
L 387.45075 -182.64848 
L 389.216378 -182.64848 
L 390.982006 -182.64848 
L 392.747634 -182.64848 
L 394.513262 -182.64848 
L 396.278891 -182.64848 
L 398.044519 -182.64848 
L 399.810147 -182.64848 
L 401.575775 -182.64848 
L 403.341403 -182.64848 
L 405.107031 -182.64848 
L 405.107031 -182.64848 
L 405.107031 -182.64848 
L 403.341403 -182.64848 
L 401.575775 -182.64848 
L 399.810147 -182.64848 
L 398.044519 -182.64848 
L 396.278891 -182.64848 
L 394.513262 -182.64848 
L 392.747634 -182.64848 
L 390.982006 -182.64848 
L 389.216378 -182.64848 
L 387.45075 -182.64848 
L 385.685122 -182.64848 
L 383.919494 -182.64848 
L 382.153865 -182.64848 
L 380.388237 -182.64848 
L 378.622609 -182.64848 
L 376.856981 -182.64848 
L 375.091353 -182.64848 
L 373.325725 -182.64848 
L 371.560097 -182.64848 
L 369.794468 -182.64848 
L 368.02884 -182.64848 
L 366.263212 -182.64848 
L 364.497584 -182.64848 
L 362.731956 -182.64848 
L 360.966328 -182.64848 
L 359.2007 -182.64848 
L 357.435071 -182.64848 
L 355.669443 -182.64848 
L 353.903815 -182.64848 
L 352.138187 -182.64848 
L 350.372559 -182.64848 
L 348.606931 -182.64848 
L 346.841303 -182.64848 
L 345.075674 -182.64848 
L 343.310046 -182.64848 
L 341.544418 -182.64848 
L 339.77879 -182.64848 
L 338.013162 -182.64848 
L 336.247534 -182.64848 
L 334.481906 -182.64848 
L 332.716277 -182.64848 
L 330.950649 -182.64848 
L 329.185021 -182.64848 
L 327.419393 -182.64848 
L 325.653765 -182.64848 
L 323.888137 -182.64848 
L 322.122509 -182.64848 
L 320.35688 -182.64848 
L 318.591252 -182.64848 
L 316.825624 -182.64848 
L 315.059996 -182.64848 
L 313.294368 -182.648481 
L 311.52874 -182.648481 
L 309.763112 -182.648483 
L 307.997484 -182.648486 
L 306.231855 -182.648494 
L 304.466227 -182.648512 
L 302.700599 -182.64855 
L 300.934971 -182.648631 
L 299.169343 -182.648801 
L 297.403715 -182.649146 
L 295.638087 -182.649836 
L 293.872458 -182.651178 
L 292.10683 -182.653732 
L 290.341202 -182.658478 
L 288.575574 -182.667089 
L 286.809946 -182.682344 
L 285.044318 -182.708727 
L 283.27869 -182.753268 
L 281.513061 -182.826656 
L 279.747433 -182.944647 
L 277.981805 -183.129731 
L 276.216177 -183.412931 
L 274.450549 -183.835525 
L 272.684921 -184.450346 
L 270.919293 -185.322189 
L 269.153664 -186.526778 
L 267.388036 -188.147722 
L 265.622408 -190.271 
L 263.85678 -192.976766 
L 262.091152 -196.32866 
L 260.325524 -200.361371 
L 258.559896 -205.067754 
L 256.794267 -210.387351 
L 255.028639 -216.198449 
L 253.263011 -222.315811 
L 251.497383 -228.495728 
L 249.731755 -234.449186 
L 247.966127 -239.86269 
L 246.200499 -244.424953 
L 244.43487 -247.856426 
L 242.669242 -249.937836 
L 240.903614 -250.533707 
L 239.137986 -249.607384 
L 237.372358 -247.225248 
L 235.60673 -243.549501 
L 233.841102 -238.820597 
L 232.075473 -233.332019 
L 230.309845 -227.401082 
L 228.544217 -221.339801 
L 226.778589 -215.429506 
L 225.012961 -209.901919 
L 223.247333 -204.92813 
L 221.481705 -200.615575 
L 219.716076 -197.011959 
L 217.950448 -194.11429 
L 216.18482 -191.880872 
L 214.419192 -190.244147 
L 212.653564 -189.122693 
L 210.887936 -188.431209 
L 209.122308 -188.08791 
L 207.356679 -188.019275 
L 205.591051 -188.162424 
L 203.825423 -188.465655 
L 202.059795 -188.887703 
L 200.294167 -189.396258 
L 198.528539 -189.966196 
L 196.762911 -190.577816 
L 194.997283 -191.215284 
L 193.231654 -191.865386 
L 191.466026 -192.516584 
L 189.700398 -193.158384 
L 187.93477 -193.78094 
L 186.169142 -194.374864 
L 184.403514 -194.931168 
L 182.637886 -195.441318 
L 180.872257 -195.897338 
L 179.106629 -196.291958 
L 177.341001 -196.61877 
L 175.575373 -196.872384 
L 173.809745 -197.04856 
L 172.044117 -197.144328 
L 170.278489 -197.15806 
L 168.51286 -197.089523 
L 166.747232 -196.939879 
L 164.981604 -196.711657 
L 163.215976 -196.408676 
L 161.450348 -196.035943 
L 159.68472 -195.599513 
L 157.919092 -195.106328 
L 156.153463 -194.564031 
L 154.387835 -193.98077 
L 152.622207 -193.364999 
L 150.856579 -192.725272 
L 149.090951 -192.07005 
L 147.325323 -191.407526 
L 145.559695 -190.745454 
L 143.794066 -190.091021 
L 142.028438 -189.450723 
L 140.26281 -188.830289 
L 138.497182 -188.234615 
L 136.731554 -187.667742 
L 134.965926 -187.132842 
L 133.200298 -186.632248 
L 131.434669 -186.167485 
L 129.669041 -185.739331 
L 127.903413 -185.34789 
L 126.137785 -184.992667 
L 124.372157 -184.672654 
L 122.606529 -184.386425 
L 120.840901 -184.132217 
L 119.075272 -183.908014 
L 117.309644 -183.711633 
L 115.544016 -183.540786 
L 113.778388 -183.393151 
L 112.01276 -183.266422 
L 110.247132 -183.158354 
L 108.481504 -183.066802 
L 106.715875 -182.989745 
L 104.950247 -182.925305 
L 103.184619 -182.87176 
L 101.418991 -182.827552 
L 99.653363 -182.791284 
L 97.887735 -182.761715 
L 96.122107 -182.737761 
L 94.356478 -182.718475 
L 92.59085 -182.703044 
L 90.825222 -182.690774 
L 89.059594 -182.681078 
L 87.293966 -182.673462 
L 85.528338 -182.667517 
L 83.76271 -182.662904 
L 81.997082 -182.659348 
L 80.231453 -182.656621 
L 78.465825 -182.654545 
L 76.700197 -182.652972 
L 74.934569 -182.651788 
L 73.168941 -182.650903 
L 71.403313 -182.650244 
L 69.637685 -182.649757 
L 67.872056 -182.6494 
L 66.106428 -182.649138 
L 64.3408 -182.648949 
L 62.575172 -182.648812 
L 60.809544 -182.648714 
L 59.043916 -182.648643 
L 57.278288 -182.648594 
L 55.512659 -182.648559 
L 53.747031 -182.648534 
z
" id="ma4f45fd8fc" style="stroke:#4c72b0;stroke-opacity:0.5;"/>
    </defs>
    <g clip-path="url(#pce969fb1af)">
     <use style="fill:#4c72b0;fill-opacity:0.5;stroke:#4c72b0;stroke-opacity:0.5;" x="0" xlink:href="#ma4f45fd8fc" y="275.717344"/>
    </g>
   </g>
   <g id="line2d_12">
    <path clip-path="url(#pce969fb1af)" d="M 53.747031 93.06881 
L 96.122107 92.979583 
L 106.715875 92.727599 
L 113.778388 92.324193 
L 119.075272 91.809329 
L 124.372157 91.044689 
L 129.669041 89.978012 
L 134.965926 88.584501 
L 140.26281 86.887055 
L 147.325323 84.309818 
L 154.387835 81.736573 
L 157.919092 80.611016 
L 161.450348 79.681401 
L 164.981604 79.005687 
L 168.51286 78.627821 
L 172.044117 78.573016 
L 175.575373 78.84496 
L 179.106629 79.425386 
L 182.637886 80.276026 
L 186.169142 81.34248 
L 191.466026 83.200759 
L 198.528539 85.751148 
L 202.059795 86.829641 
L 203.825423 87.251689 
L 205.591051 87.55492 
L 207.356679 87.698069 
L 209.122308 87.629433 
L 210.887936 87.286135 
L 212.653564 86.59465 
L 214.419192 85.473197 
L 216.18482 83.836472 
L 217.950448 81.603054 
L 219.716076 78.705385 
L 221.481705 75.101769 
L 223.247333 70.789214 
L 225.012961 65.815425 
L 226.778589 60.287838 
L 233.841102 36.896747 
L 235.60673 32.167843 
L 237.372358 28.492096 
L 239.137986 26.10996 
L 240.903614 25.183636 
L 242.669242 25.779508 
L 244.43487 27.860918 
L 246.200499 31.292391 
L 247.966127 35.854654 
L 249.731755 41.268157 
L 258.559896 70.64959 
L 260.325524 75.355973 
L 262.091152 79.388684 
L 263.85678 82.740578 
L 265.622408 85.446343 
L 267.388036 87.569622 
L 269.153664 89.190566 
L 270.919293 90.395155 
L 272.684921 91.266998 
L 274.450549 91.881819 
L 276.216177 92.304413 
L 279.747433 92.772696 
L 283.27869 92.964075 
L 290.341202 93.058866 
L 334.481906 93.068864 
L 405.107031 93.068864 
L 405.107031 93.068864 
" style="fill:none;stroke:#4c72b0;stroke-linecap:round;stroke-width:1.5;"/>
   </g>
   <g id="line2d_13">
    <defs>
     <path d="M 0 3 
C 0.795609 3 1.55874 2.683901 2.12132 2.12132 
C 2.683901 1.55874 3 0.795609 3 0 
C 3 -0.795609 2.683901 -1.55874 2.12132 -2.12132 
C 1.55874 -2.683901 0.795609 -3 0 -3 
C -0.795609 -3 -1.55874 -2.683901 -2.12132 -2.12132 
C -2.683901 -1.55874 -3 -0.795609 -3 0 
C -3 0.795609 -2.683901 1.55874 -2.12132 2.12132 
C -1.55874 2.683901 -0.795609 3 0 3 
z
" id="m6d0574b525" style="stroke:#c44e52;"/>
    </defs>
    <g clip-path="url(#pce969fb1af)">
     <use style="fill:#c44e52;stroke:#c44e52;" x="220.057431" xlink:href="#m6d0574b525" y="93.068864"/>
    </g>
   </g>
   <g id="patch_3">
    <path d="M 53.747031 96.463125 
L 53.747031 21.789375 
" style="fill:none;stroke:#262626;stroke-linecap:square;stroke-linejoin:miter;stroke-width:1.25;"/>
   </g>
   <g id="patch_4">
    <path d="M 405.107031 96.463125 
L 405.107031 21.789375 
" style="fill:none;stroke:#262626;stroke-linecap:square;stroke-linejoin:miter;stroke-width:1.25;"/>
   </g>
   <g id="patch_5">
    <path d="M 53.747031 96.463125 
L 405.107031 96.463125 
" style="fill:none;stroke:#262626;stroke-linecap:square;stroke-linejoin:miter;stroke-width:1.25;"/>
   </g>
   <g id="patch_6">
    <path d="M 53.747031 21.789375 
L 405.107031 21.789375 
" style="fill:none;stroke:#262626;stroke-linecap:square;stroke-linejoin:miter;stroke-width:1.25;"/>
   </g>
   <g id="text_14">
    <!-- $V[X]$ = 1.21 -->
    <g style="fill:#262626;" transform="translate(197.987031 15.789375)scale(0.12 -0.12)">
     <defs>
      <path d="M 20.609375 0 
L 7.8125 72.90625 
L 17.484375 72.90625 
L 28.078125 10.203125 
L 63.484375 72.90625 
L 74.21875 72.90625 
L 32.078125 0 
z
" id="DejaVuSans-Oblique-86"/>
      <path d="M 8.59375 75.984375 
L 29.296875 75.984375 
L 29.296875 69 
L 17.578125 69 
L 17.578125 -6.203125 
L 29.296875 -6.203125 
L 29.296875 -13.1875 
L 8.59375 -13.1875 
z
" id="DejaVuSans-91"/>
      <path d="M 13.71875 72.90625 
L 23.6875 72.90625 
L 36.1875 46.578125 
L 58.796875 72.90625 
L 70.3125 72.90625 
L 40.28125 38.09375 
L 58.40625 0 
L 48.484375 0 
L 33.796875 30.71875 
L 7.171875 0 
L -4.296875 0 
L 29.78125 39.203125 
z
" id="DejaVuSans-Oblique-88"/>
      <path d="M 30.421875 75.984375 
L 30.421875 -13.1875 
L 9.71875 -13.1875 
L 9.71875 -6.203125 
L 21.390625 -6.203125 
L 21.390625 69 
L 9.71875 69 
L 9.71875 75.984375 
z
" id="DejaVuSans-93"/>
      <path id="ArialMT-32"/>
      <path d="M 52.828125 42.09375 
L 5.5625 42.09375 
L 5.5625 50.296875 
L 52.828125 50.296875 
z
M 52.828125 20.359375 
L 5.5625 20.359375 
L 5.5625 28.5625 
L 52.828125 28.5625 
z
" id="ArialMT-61"/>
     </defs>
     <use transform="translate(0 0.015625)" xlink:href="#DejaVuSans-Oblique-86"/>
     <use transform="translate(68.408203 0.015625)" xlink:href="#DejaVuSans-91"/>
     <use transform="translate(107.421875 0.015625)" xlink:href="#DejaVuSans-Oblique-88"/>
     <use transform="translate(175.927734 0.015625)" xlink:href="#DejaVuSans-93"/>
     <use transform="translate(214.941406 0.015625)" xlink:href="#ArialMT-32"/>
     <use transform="translate(242.724609 0.015625)" xlink:href="#ArialMT-61"/>
     <use transform="translate(301.123047 0.015625)" xlink:href="#ArialMT-32"/>
     <use transform="translate(328.90625 0.015625)" xlink:href="#ArialMT-49"/>
     <use transform="translate(384.521484 0.015625)" xlink:href="#ArialMT-46"/>
     <use transform="translate(412.304688 0.015625)" xlink:href="#ArialMT-50"/>
     <use transform="translate(467.919922 0.015625)" xlink:href="#ArialMT-49"/>
    </g>
   </g>
  </g>
  <g id="axes_2">
   <g id="patch_7">
    <path d="M 53.747031 233.983125 
L 405.107031 233.983125 
L 405.107031 159.309375 
L 53.747031 159.309375 
z
" style="fill:#ffffff;"/>
   </g>
   <g id="matplotlib.axis_3">
    <g id="xtick_9">
     <g id="line2d_14">
      <g>
       <use style="fill:#262626;stroke:#262626;stroke-width:1.25;" x="77.171031" xlink:href="#m6d9ab293c3" y="233.983125"/>
      </g>
     </g>
     <g id="text_15">
      <!-- −4 -->
      <g style="fill:#262626;" transform="translate(70.900172 251.356719)scale(0.11 -0.11)">
       <use xlink:href="#ArialMT-8722"/>
       <use x="58.398438" xlink:href="#ArialMT-52"/>
      </g>
     </g>
    </g>
    <g id="xtick_10">
     <g id="line2d_15">
      <g>
       <use style="fill:#262626;stroke:#262626;stroke-width:1.25;" x="124.019031" xlink:href="#m6d9ab293c3" y="233.983125"/>
      </g>
     </g>
     <g id="text_16">
      <!-- −2 -->
      <g style="fill:#262626;" transform="translate(117.748172 251.356719)scale(0.11 -0.11)">
       <use xlink:href="#ArialMT-8722"/>
       <use x="58.398438" xlink:href="#ArialMT-50"/>
      </g>
     </g>
    </g>
    <g id="xtick_11">
     <g id="line2d_16">
      <g>
       <use style="fill:#262626;stroke:#262626;stroke-width:1.25;" x="170.867031" xlink:href="#m6d9ab293c3" y="233.983125"/>
      </g>
     </g>
     <g id="text_17">
      <!-- 0 -->
      <g style="fill:#262626;" transform="translate(167.808516 251.356719)scale(0.11 -0.11)">
       <use xlink:href="#ArialMT-48"/>
      </g>
     </g>
    </g>
    <g id="xtick_12">
     <g id="line2d_17">
      <g>
       <use style="fill:#262626;stroke:#262626;stroke-width:1.25;" x="217.715031" xlink:href="#m6d9ab293c3" y="233.983125"/>
      </g>
     </g>
     <g id="text_18">
      <!-- 2 -->
      <g style="fill:#262626;" transform="translate(214.656516 251.356719)scale(0.11 -0.11)">
       <use xlink:href="#ArialMT-50"/>
      </g>
     </g>
    </g>
    <g id="xtick_13">
     <g id="line2d_18">
      <g>
       <use style="fill:#262626;stroke:#262626;stroke-width:1.25;" x="264.563031" xlink:href="#m6d9ab293c3" y="233.983125"/>
      </g>
     </g>
     <g id="text_19">
      <!-- 4 -->
      <g style="fill:#262626;" transform="translate(261.504516 251.356719)scale(0.11 -0.11)">
       <use xlink:href="#ArialMT-52"/>
      </g>
     </g>
    </g>
    <g id="xtick_14">
     <g id="line2d_19">
      <g>
       <use style="fill:#262626;stroke:#262626;stroke-width:1.25;" x="311.411031" xlink:href="#m6d9ab293c3" y="233.983125"/>
      </g>
     </g>
     <g id="text_20">
      <!-- 6 -->
      <g style="fill:#262626;" transform="translate(308.352516 251.356719)scale(0.11 -0.11)">
       <use xlink:href="#ArialMT-54"/>
      </g>
     </g>
    </g>
    <g id="xtick_15">
     <g id="line2d_20">
      <g>
       <use style="fill:#262626;stroke:#262626;stroke-width:1.25;" x="358.259031" xlink:href="#m6d9ab293c3" y="233.983125"/>
      </g>
     </g>
     <g id="text_21">
      <!-- 8 -->
      <g style="fill:#262626;" transform="translate(355.200516 251.356719)scale(0.11 -0.11)">
       <use xlink:href="#ArialMT-56"/>
      </g>
     </g>
    </g>
    <g id="xtick_16">
     <g id="line2d_21">
      <g>
       <use style="fill:#262626;stroke:#262626;stroke-width:1.25;" x="405.107031" xlink:href="#m6d9ab293c3" y="233.983125"/>
      </g>
     </g>
     <g id="text_22">
      <!-- 10 -->
      <g style="fill:#262626;" transform="translate(398.99 251.356719)scale(0.11 -0.11)">
       <use xlink:href="#ArialMT-49"/>
       <use x="55.615234" xlink:href="#ArialMT-48"/>
      </g>
     </g>
    </g>
    <g id="text_23">
     <!-- $x$ -->
     <g style="fill:#262626;" transform="translate(225.827031 266.132344)scale(0.12 -0.12)">
      <use transform="translate(0 0.3125)" xlink:href="#DejaVuSans-Oblique-120"/>
     </g>
    </g>
   </g>
   <g id="matplotlib.axis_4">
    <g id="ytick_4">
     <g id="line2d_22">
      <g>
       <use style="fill:#262626;stroke:#262626;stroke-width:1.25;" x="53.747031" xlink:href="#mfffa099cbe" y="230.588864"/>
      </g>
     </g>
     <g id="text_24">
      <!-- 0.0 -->
      <g style="fill:#262626;" transform="translate(28.957031 234.525661)scale(0.11 -0.11)">
       <use xlink:href="#ArialMT-48"/>
       <use x="55.615234" xlink:href="#ArialMT-46"/>
       <use x="83.398438" xlink:href="#ArialMT-48"/>
      </g>
     </g>
    </g>
    <g id="ytick_5">
     <g id="line2d_23">
      <g>
       <use style="fill:#262626;stroke:#262626;stroke-width:1.25;" x="53.747031" xlink:href="#mfffa099cbe" y="188.86963"/>
      </g>
     </g>
     <g id="text_25">
      <!-- 0.1 -->
      <g style="fill:#262626;" transform="translate(28.957031 192.806427)scale(0.11 -0.11)">
       <use xlink:href="#ArialMT-48"/>
       <use x="55.615234" xlink:href="#ArialMT-46"/>
       <use x="83.398438" xlink:href="#ArialMT-49"/>
      </g>
     </g>
    </g>
    <g id="text_26">
     <!-- $p(x)$ -->
     <g style="fill:#262626;" transform="translate(22.437031 208.70625)rotate(-90)scale(0.12 -0.12)">
      <use transform="translate(0 0.125)" xlink:href="#DejaVuSans-Oblique-112"/>
      <use transform="translate(63.476562 0.125)" xlink:href="#DejaVuSans-40"/>
      <use transform="translate(102.490234 0.125)" xlink:href="#DejaVuSans-Oblique-120"/>
      <use transform="translate(161.669922 0.125)" xlink:href="#DejaVuSans-41"/>
     </g>
    </g>
   </g>
   <g id="PolyCollection_2">
    <defs>
     <path d="M 53.747031 -46.244923 
L 53.747031 -45.12848 
L 55.512659 -45.12848 
L 57.278288 -45.12848 
L 59.043916 -45.12848 
L 60.809544 -45.12848 
L 62.575172 -45.12848 
L 64.3408 -45.12848 
L 66.106428 -45.12848 
L 67.872056 -45.12848 
L 69.637685 -45.12848 
L 71.403313 -45.12848 
L 73.168941 -45.12848 
L 74.934569 -45.12848 
L 76.700197 -45.12848 
L 78.465825 -45.12848 
L 80.231453 -45.12848 
L 81.997082 -45.12848 
L 83.76271 -45.12848 
L 85.528338 -45.12848 
L 87.293966 -45.12848 
L 89.059594 -45.12848 
L 90.825222 -45.12848 
L 92.59085 -45.12848 
L 94.356478 -45.12848 
L 96.122107 -45.12848 
L 97.887735 -45.12848 
L 99.653363 -45.12848 
L 101.418991 -45.12848 
L 103.184619 -45.12848 
L 104.950247 -45.12848 
L 106.715875 -45.12848 
L 108.481504 -45.12848 
L 110.247132 -45.12848 
L 112.01276 -45.12848 
L 113.778388 -45.12848 
L 115.544016 -45.12848 
L 117.309644 -45.12848 
L 119.075272 -45.12848 
L 120.840901 -45.12848 
L 122.606529 -45.12848 
L 124.372157 -45.12848 
L 126.137785 -45.12848 
L 127.903413 -45.12848 
L 129.669041 -45.12848 
L 131.434669 -45.12848 
L 133.200298 -45.12848 
L 134.965926 -45.12848 
L 136.731554 -45.12848 
L 138.497182 -45.12848 
L 140.26281 -45.12848 
L 142.028438 -45.12848 
L 143.794066 -45.12848 
L 145.559695 -45.12848 
L 147.325323 -45.12848 
L 149.090951 -45.12848 
L 150.856579 -45.12848 
L 152.622207 -45.12848 
L 154.387835 -45.12848 
L 156.153463 -45.12848 
L 157.919092 -45.12848 
L 159.68472 -45.12848 
L 161.450348 -45.12848 
L 163.215976 -45.12848 
L 164.981604 -45.12848 
L 166.747232 -45.12848 
L 168.51286 -45.12848 
L 170.278489 -45.12848 
L 172.044117 -45.12848 
L 173.809745 -45.12848 
L 175.575373 -45.12848 
L 177.341001 -45.12848 
L 179.106629 -45.12848 
L 180.872257 -45.12848 
L 182.637886 -45.12848 
L 184.403514 -45.12848 
L 186.169142 -45.12848 
L 187.93477 -45.12848 
L 189.700398 -45.12848 
L 191.466026 -45.12848 
L 193.231654 -45.12848 
L 194.997283 -45.12848 
L 196.762911 -45.12848 
L 198.528539 -45.12848 
L 200.294167 -45.12848 
L 202.059795 -45.12848 
L 203.825423 -45.12848 
L 205.591051 -45.12848 
L 207.356679 -45.12848 
L 209.122308 -45.12848 
L 210.887936 -45.12848 
L 212.653564 -45.12848 
L 214.419192 -45.12848 
L 216.18482 -45.12848 
L 217.950448 -45.12848 
L 219.716076 -45.12848 
L 221.481705 -45.12848 
L 223.247333 -45.12848 
L 225.012961 -45.12848 
L 226.778589 -45.12848 
L 228.544217 -45.12848 
L 230.309845 -45.12848 
L 232.075473 -45.12848 
L 233.841102 -45.12848 
L 235.60673 -45.12848 
L 237.372358 -45.12848 
L 239.137986 -45.12848 
L 240.903614 -45.12848 
L 242.669242 -45.12848 
L 244.43487 -45.12848 
L 246.200499 -45.12848 
L 247.966127 -45.12848 
L 249.731755 -45.12848 
L 251.497383 -45.12848 
L 253.263011 -45.12848 
L 255.028639 -45.12848 
L 256.794267 -45.12848 
L 258.559896 -45.12848 
L 260.325524 -45.12848 
L 262.091152 -45.12848 
L 263.85678 -45.12848 
L 265.622408 -45.12848 
L 267.388036 -45.12848 
L 269.153664 -45.12848 
L 270.919293 -45.12848 
L 272.684921 -45.12848 
L 274.450549 -45.12848 
L 276.216177 -45.12848 
L 277.981805 -45.12848 
L 279.747433 -45.12848 
L 281.513061 -45.12848 
L 283.27869 -45.12848 
L 285.044318 -45.12848 
L 286.809946 -45.12848 
L 288.575574 -45.12848 
L 290.341202 -45.12848 
L 292.10683 -45.12848 
L 293.872458 -45.12848 
L 295.638087 -45.12848 
L 297.403715 -45.12848 
L 299.169343 -45.12848 
L 300.934971 -45.12848 
L 302.700599 -45.12848 
L 304.466227 -45.12848 
L 306.231855 -45.12848 
L 307.997484 -45.12848 
L 309.763112 -45.12848 
L 311.52874 -45.12848 
L 313.294368 -45.12848 
L 315.059996 -45.12848 
L 316.825624 -45.12848 
L 318.591252 -45.12848 
L 320.35688 -45.12848 
L 322.122509 -45.12848 
L 323.888137 -45.12848 
L 325.653765 -45.12848 
L 327.419393 -45.12848 
L 329.185021 -45.12848 
L 330.950649 -45.12848 
L 332.716277 -45.12848 
L 334.481906 -45.12848 
L 336.247534 -45.12848 
L 338.013162 -45.12848 
L 339.77879 -45.12848 
L 341.544418 -45.12848 
L 343.310046 -45.12848 
L 345.075674 -45.12848 
L 346.841303 -45.12848 
L 348.606931 -45.12848 
L 350.372559 -45.12848 
L 352.138187 -45.12848 
L 353.903815 -45.12848 
L 355.669443 -45.12848 
L 357.435071 -45.12848 
L 359.2007 -45.12848 
L 360.966328 -45.12848 
L 362.731956 -45.12848 
L 364.497584 -45.12848 
L 366.263212 -45.12848 
L 368.02884 -45.12848 
L 369.794468 -45.12848 
L 371.560097 -45.12848 
L 373.325725 -45.12848 
L 375.091353 -45.12848 
L 376.856981 -45.12848 
L 378.622609 -45.12848 
L 380.388237 -45.12848 
L 382.153865 -45.12848 
L 383.919494 -45.12848 
L 385.685122 -45.12848 
L 387.45075 -45.12848 
L 389.216378 -45.12848 
L 390.982006 -45.12848 
L 392.747634 -45.12848 
L 394.513262 -45.12848 
L 396.278891 -45.12848 
L 398.044519 -45.12848 
L 399.810147 -45.12848 
L 401.575775 -45.12848 
L 403.341403 -45.12848 
L 405.107031 -45.12848 
L 405.107031 -45.256 
L 405.107031 -45.256 
L 403.341403 -45.273884 
L 401.575775 -45.294041 
L 399.810147 -45.316725 
L 398.044519 -45.342214 
L 396.278891 -45.370811 
L 394.513262 -45.402844 
L 392.747634 -45.438672 
L 390.982006 -45.478683 
L 389.216378 -45.523294 
L 387.45075 -45.572958 
L 385.685122 -45.628161 
L 383.919494 -45.689426 
L 382.153865 -45.757311 
L 380.388237 -45.832414 
L 378.622609 -45.915372 
L 376.856981 -46.006864 
L 375.091353 -46.107607 
L 373.325725 -46.218361 
L 371.560097 -46.33993 
L 369.794468 -46.473156 
L 368.02884 -46.618926 
L 366.263212 -46.778166 
L 364.497584 -46.951841 
L 362.731956 -47.140958 
L 360.966328 -47.346557 
L 359.2007 -47.569713 
L 357.435071 -47.811535 
L 355.669443 -48.073156 
L 353.903815 -48.355736 
L 352.138187 -48.660456 
L 350.372559 -48.988509 
L 348.606931 -49.341101 
L 346.841303 -49.71944 
L 345.075674 -50.12473 
L 343.310046 -50.558167 
L 341.544418 -51.020929 
L 339.77879 -51.514167 
L 338.013162 -52.038999 
L 336.247534 -52.596499 
L 334.481906 -53.187688 
L 332.716277 -53.813523 
L 330.950649 -54.474891 
L 329.185021 -55.172594 
L 327.419393 -55.90734 
L 325.653765 -56.679735 
L 323.888137 -57.490267 
L 322.122509 -58.339303 
L 320.35688 -59.227072 
L 318.591252 -60.15366 
L 316.825624 -61.119 
L 315.059996 -62.122858 
L 313.294368 -63.164835 
L 311.52874 -64.244348 
L 309.763112 -65.360632 
L 307.997484 -66.512733 
L 306.231855 -67.699501 
L 304.466227 -68.919587 
L 302.700599 -70.171445 
L 300.934971 -71.453327 
L 299.169343 -72.763287 
L 297.403715 -74.09918 
L 295.638087 -75.458669 
L 293.872458 -76.839232 
L 292.10683 -78.238161 
L 290.341202 -79.652581 
L 288.575574 -81.079453 
L 286.809946 -82.515588 
L 285.044318 -83.95766 
L 283.27869 -85.40222 
L 281.513061 -86.845715 
L 279.747433 -88.2845 
L 277.981805 -89.71486 
L 276.216177 -91.133027 
L 274.450549 -92.535202 
L 272.684921 -93.917576 
L 270.919293 -95.276345 
L 269.153664 -96.607741 
L 267.388036 -97.908047 
L 265.622408 -99.173618 
L 263.85678 -100.400907 
L 262.091152 -101.58648 
L 260.325524 -102.727042 
L 258.559896 -103.819451 
L 256.794267 -104.860737 
L 255.028639 -105.848121 
L 253.263011 -106.779028 
L 251.497383 -107.651105 
L 249.731755 -108.462226 
L 247.966127 -109.21051 
L 246.200499 -109.894324 
L 244.43487 -110.512294 
L 242.669242 -111.063306 
L 240.903614 -111.54651 
L 239.137986 -111.961321 
L 237.372358 -112.307417 
L 235.60673 -112.584735 
L 233.841102 -112.793467 
L 232.075473 -112.934051 
L 230.309845 -113.007163 
L 228.544217 -113.013707 
L 226.778589 -112.954802 
L 225.012961 -112.831767 
L 223.247333 -112.646109 
L 221.481705 -112.399508 
L 219.716076 -112.093798 
L 217.950448 -111.73095 
L 216.18482 -111.313058 
L 214.419192 -110.842319 
L 212.653564 -110.321014 
L 210.887936 -109.751494 
L 209.122308 -109.13616 
L 207.356679 -108.477449 
L 205.591051 -107.777816 
L 203.825423 -107.03972 
L 202.059795 -106.265609 
L 200.294167 -105.457907 
L 198.528539 -104.619004 
L 196.762911 -103.751243 
L 194.997283 -102.856912 
L 193.231654 -101.938233 
L 191.466026 -100.997361 
L 189.700398 -100.036372 
L 187.93477 -99.057263 
L 186.169142 -98.061948 
L 184.403514 -97.052256 
L 182.637886 -96.029931 
L 180.872257 -94.996633 
L 179.106629 -93.953936 
L 177.341001 -92.903335 
L 175.575373 -91.846249 
L 173.809745 -90.784021 
L 172.044117 -89.717923 
L 170.278489 -88.649165 
L 168.51286 -87.578897 
L 166.747232 -86.508212 
L 164.981604 -85.438156 
L 163.215976 -84.36973 
L 161.450348 -83.303896 
L 159.68472 -82.241582 
L 157.919092 -81.183687 
L 156.153463 -80.131083 
L 154.387835 -79.084623 
L 152.622207 -78.045141 
L 150.856579 -77.013453 
L 149.090951 -75.990364 
L 147.325323 -74.976668 
L 145.559695 -73.973146 
L 143.794066 -72.98057 
L 142.028438 -71.999702 
L 140.26281 -71.031293 
L 138.497182 -70.076083 
L 136.731554 -69.134797 
L 134.965926 -68.208147 
L 133.200298 -67.296826 
L 131.434669 -66.401509 
L 129.669041 -65.522847 
L 127.903413 -64.661466 
L 126.137785 -63.817967 
L 124.372157 -62.992915 
L 122.606529 -62.186843 
L 120.840901 -61.400249 
L 119.075272 -60.633588 
L 117.309644 -59.887275 
L 115.544016 -59.16168 
L 113.778388 -58.457125 
L 112.01276 -57.773885 
L 110.247132 -57.112184 
L 108.481504 -56.472195 
L 106.715875 -55.854041 
L 104.950247 -55.25779 
L 103.184619 -54.683458 
L 101.418991 -54.131011 
L 99.653363 -53.600361 
L 97.887735 -53.091373 
L 96.122107 -52.60386 
L 94.356478 -52.137588 
L 92.59085 -51.69228 
L 90.825222 -51.267615 
L 89.059594 -50.86323 
L 87.293966 -50.478725 
L 85.528338 -50.113667 
L 83.76271 -49.767588 
L 81.997082 -49.439992 
L 80.231453 -49.130359 
L 78.465825 -48.838145 
L 76.700197 -48.562786 
L 74.934569 -48.303704 
L 73.168941 -48.060308 
L 71.403313 -47.831995 
L 69.637685 -47.618157 
L 67.872056 -47.418184 
L 66.106428 -47.231462 
L 64.3408 -47.05738 
L 62.575172 -46.895331 
L 60.809544 -46.744716 
L 59.043916 -46.604942 
L 57.278288 -46.475429 
L 55.512659 -46.355607 
L 53.747031 -46.244923 
z
" id="m2a646ef5fe" style="stroke:#4c72b0;stroke-opacity:0.5;"/>
    </defs>
    <g clip-path="url(#pe3c2020d3b)">
     <use style="fill:#4c72b0;fill-opacity:0.5;stroke:#4c72b0;stroke-opacity:0.5;" x="0" xlink:href="#m2a646ef5fe" y="275.717344"/>
    </g>
   </g>
   <g id="line2d_24">
    <path clip-path="url(#pe3c2020d3b)" d="M 53.747031 229.472421 
L 62.575172 228.822013 
L 69.637685 228.099186 
L 76.700197 227.154558 
L 83.76271 225.949756 
L 89.059594 224.854114 
L 94.356478 223.579755 
L 99.653363 222.116982 
L 104.950247 220.459554 
L 110.247132 218.60516 
L 115.544016 216.555664 
L 120.840901 214.317095 
L 127.903413 211.055877 
L 134.965926 207.509197 
L 142.028438 203.717642 
L 150.856579 198.703891 
L 161.450348 192.413448 
L 184.403514 178.665087 
L 191.466026 174.719983 
L 196.762911 171.9661 
L 202.059795 169.451735 
L 207.356679 167.239895 
L 210.887936 165.96585 
L 214.419192 164.875025 
L 217.950448 163.986394 
L 221.481705 163.317835 
L 225.012961 162.885577 
L 228.544217 162.703636 
L 232.075473 162.783293 
L 235.60673 163.132609 
L 239.137986 163.756023 
L 242.669242 164.654038 
L 246.200499 165.823019 
L 249.731755 167.255118 
L 253.263011 168.938315 
L 256.794267 170.856607 
L 260.325524 172.990301 
L 265.622408 176.543726 
L 270.919293 180.440999 
L 277.981805 186.002484 
L 297.403715 201.618164 
L 302.700599 205.545899 
L 307.997484 209.20461 
L 313.294368 212.552509 
L 318.591252 215.563683 
L 323.888137 218.227077 
L 329.185021 220.54475 
L 334.481906 222.529656 
L 339.77879 224.203177 
L 345.075674 225.592614 
L 350.372559 226.728834 
L 355.669443 227.644188 
L 360.966328 228.370787 
L 368.02884 229.098418 
L 375.091353 229.609737 
L 383.919494 230.027918 
L 396.278891 230.346533 
L 405.107031 230.461344 
L 405.107031 230.461344 
" style="fill:none;stroke:#4c72b0;stroke-linecap:round;stroke-width:1.5;"/>
   </g>
   <g id="line2d_25">
    <g clip-path="url(#pe3c2020d3b)">
     <use style="fill:#c44e52;stroke:#c44e52;" x="220.057431" xlink:href="#m6d0574b525" y="230.588864"/>
    </g>
   </g>
   <g id="patch_8">
    <path d="M 53.747031 233.983125 
L 53.747031 159.309375 
" style="fill:none;stroke:#262626;stroke-linecap:square;stroke-linejoin:miter;stroke-width:1.25;"/>
   </g>
   <g id="patch_9">
    <path d="M 405.107031 233.983125 
L 405.107031 159.309375 
" style="fill:none;stroke:#262626;stroke-linecap:square;stroke-linejoin:miter;stroke-width:1.25;"/>
   </g>
   <g id="patch_10">
    <path d="M 53.747031 233.983125 
L 405.107031 233.983125 
" style="fill:none;stroke:#262626;stroke-linecap:square;stroke-linejoin:miter;stroke-width:1.25;"/>
   </g>
   <g id="patch_11">
    <path d="M 53.747031 159.309375 
L 405.107031 159.309375 
" style="fill:none;stroke:#262626;stroke-linecap:square;stroke-linejoin:miter;stroke-width:1.25;"/>
   </g>
   <g id="text_27">
    <!-- $V[X]$ = 6.05 -->
    <g style="fill:#262626;" transform="translate(197.987031 153.309375)scale(0.12 -0.12)">
     <use transform="translate(0 0.015625)" xlink:href="#DejaVuSans-Oblique-86"/>
     <use transform="translate(68.408203 0.015625)" xlink:href="#DejaVuSans-91"/>
     <use transform="translate(107.421875 0.015625)" xlink:href="#DejaVuSans-Oblique-88"/>
     <use transform="translate(175.927734 0.015625)" xlink:href="#DejaVuSans-93"/>
     <use transform="translate(214.941406 0.015625)" xlink:href="#ArialMT-32"/>
     <use transform="translate(242.724609 0.015625)" xlink:href="#ArialMT-61"/>
     <use transform="translate(301.123047 0.015625)" xlink:href="#ArialMT-32"/>
     <use transform="translate(328.90625 0.015625)" xlink:href="#ArialMT-54"/>
     <use transform="translate(384.521484 0.015625)" xlink:href="#ArialMT-46"/>
     <use transform="translate(412.304688 0.015625)" xlink:href="#ArialMT-48"/>
     <use transform="translate(467.919922 0.015625)" xlink:href="#ArialMT-53"/>
    </g>
   </g>
  </g>
 </g>
 <defs>
  <clipPath id="pce969fb1af">
   <rect height="74.67375" width="351.36" x="53.747031" y="21.789375"/>
  </clipPath>
  <clipPath id="pe3c2020d3b">
   <rect height="74.67375" width="351.36" x="53.747031" y="159.309375"/>
  </clipPath>
 </defs>
</svg>
