<?xml version="1.0" encoding="utf-8" standalone="no"?>
<!DOCTYPE svg PUBLIC "-//W3C//DTD SVG 1.1//EN"
  "http://www.w3.org/Graphics/SVG/1.1/DTD/svg11.dtd">
<!-- Created with matplotlib (https://matplotlib.org/) -->
<svg height="266.374219pt" version="1.1" viewBox="0 0 402.171719 266.374219" width="402.171719pt" xmlns="http://www.w3.org/2000/svg" xmlns:xlink="http://www.w3.org/1999/xlink">
 <metadata>
  <rdf:RDF xmlns:cc="http://creativecommons.org/ns#" xmlns:dc="http://purl.org/dc/elements/1.1/" xmlns:rdf="http://www.w3.org/1999/02/22-rdf-syntax-ns#">
   <cc:Work>
    <dc:type rdf:resource="http://purl.org/dc/dcmitype/StillImage"/>
    <dc:date>2021-08-03T16:51:02.107032</dc:date>
    <dc:format>image/svg+xml</dc:format>
    <dc:creator>
     <cc:Agent>
      <dc:title>Matplotlib v3.3.4, https://matplotlib.org/</dc:title>
     </cc:Agent>
    </dc:creator>
   </cc:Work>
  </rdf:RDF>
 </metadata>
 <defs>
  <style type="text/css">*{stroke-linecap:butt;stroke-linejoin:round;}</style>
 </defs>
 <g id="figure_1">
  <g id="patch_1">
   <path d="M 0 266.374219 
L 402.171719 266.374219 
L 402.171719 0 
L 0 0 
z
" style="fill:#ffffff;"/>
  </g>
  <g id="axes_1">
   <g id="patch_2">
    <path d="M 60.171719 224.64 
L 394.971719 224.64 
L 394.971719 7.2 
L 60.171719 7.2 
z
" style="fill:#ffffff;"/>
   </g>
   <g id="matplotlib.axis_1">
    <g id="xtick_1">
     <g id="line2d_1">
      <defs>
       <path d="M 0 0 
L 0 6 
" id="m29f5d90074" style="stroke:#262626;stroke-width:1.25;"/>
      </defs>
      <g>
       <use style="fill:#262626;stroke:#262626;stroke-width:1.25;" x="75.389901" xlink:href="#m29f5d90074" y="224.64"/>
      </g>
     </g>
     <g id="text_1">
      <!-- 0 -->
      <g style="fill:#262626;" transform="translate(72.331385 242.013594)scale(0.11 -0.11)">
       <defs>
        <path d="M 4.15625 35.296875 
Q 4.15625 48 6.765625 55.734375 
Q 9.375 63.484375 14.515625 67.671875 
Q 19.671875 71.875 27.484375 71.875 
Q 33.25 71.875 37.59375 69.546875 
Q 41.9375 67.234375 44.765625 62.859375 
Q 47.609375 58.5 49.21875 52.21875 
Q 50.828125 45.953125 50.828125 35.296875 
Q 50.828125 22.703125 48.234375 14.96875 
Q 45.65625 7.234375 40.5 3 
Q 35.359375 -1.21875 27.484375 -1.21875 
Q 17.140625 -1.21875 11.234375 6.203125 
Q 4.15625 15.140625 4.15625 35.296875 
z
M 13.1875 35.296875 
Q 13.1875 17.671875 17.3125 11.828125 
Q 21.4375 6 27.484375 6 
Q 33.546875 6 37.671875 11.859375 
Q 41.796875 17.71875 41.796875 35.296875 
Q 41.796875 52.984375 37.671875 58.78125 
Q 33.546875 64.59375 27.390625 64.59375 
Q 21.34375 64.59375 17.71875 59.46875 
Q 13.1875 52.9375 13.1875 35.296875 
z
" id="ArialMT-48"/>
       </defs>
       <use xlink:href="#ArialMT-48"/>
      </g>
     </g>
    </g>
    <g id="xtick_2">
     <g id="line2d_2">
      <g>
       <use style="fill:#262626;stroke:#262626;stroke-width:1.25;" x="126.117173" xlink:href="#m29f5d90074" y="224.64"/>
      </g>
     </g>
     <g id="text_2">
      <!-- 10 -->
      <g style="fill:#262626;" transform="translate(120.000142 242.013594)scale(0.11 -0.11)">
       <defs>
        <path d="M 37.25 0 
L 28.46875 0 
L 28.46875 56 
Q 25.296875 52.984375 20.140625 49.953125 
Q 14.984375 46.921875 10.890625 45.40625 
L 10.890625 53.90625 
Q 18.265625 57.375 23.78125 62.296875 
Q 29.296875 67.234375 31.59375 71.875 
L 37.25 71.875 
z
" id="ArialMT-49"/>
       </defs>
       <use xlink:href="#ArialMT-49"/>
       <use x="55.615234" xlink:href="#ArialMT-48"/>
      </g>
     </g>
    </g>
    <g id="xtick_3">
     <g id="line2d_3">
      <g>
       <use style="fill:#262626;stroke:#262626;stroke-width:1.25;" x="176.844446" xlink:href="#m29f5d90074" y="224.64"/>
      </g>
     </g>
     <g id="text_3">
      <!-- 20 -->
      <g style="fill:#262626;" transform="translate(170.727415 242.013594)scale(0.11 -0.11)">
       <defs>
        <path d="M 50.34375 8.453125 
L 50.34375 0 
L 3.03125 0 
Q 2.9375 3.171875 4.046875 6.109375 
Q 5.859375 10.9375 9.828125 15.625 
Q 13.8125 20.3125 21.34375 26.46875 
Q 33.015625 36.03125 37.109375 41.625 
Q 41.21875 47.21875 41.21875 52.203125 
Q 41.21875 57.421875 37.46875 61 
Q 33.734375 64.59375 27.734375 64.59375 
Q 21.390625 64.59375 17.578125 60.78125 
Q 13.765625 56.984375 13.71875 50.25 
L 4.6875 51.171875 
Q 5.609375 61.28125 11.65625 66.578125 
Q 17.71875 71.875 27.9375 71.875 
Q 38.234375 71.875 44.234375 66.15625 
Q 50.25 60.453125 50.25 52 
Q 50.25 47.703125 48.484375 43.546875 
Q 46.734375 39.40625 42.65625 34.8125 
Q 38.578125 30.21875 29.109375 22.21875 
Q 21.1875 15.578125 18.9375 13.203125 
Q 16.703125 10.84375 15.234375 8.453125 
z
" id="ArialMT-50"/>
       </defs>
       <use xlink:href="#ArialMT-50"/>
       <use x="55.615234" xlink:href="#ArialMT-48"/>
      </g>
     </g>
    </g>
    <g id="xtick_4">
     <g id="line2d_4">
      <g>
       <use style="fill:#262626;stroke:#262626;stroke-width:1.25;" x="227.571719" xlink:href="#m29f5d90074" y="224.64"/>
      </g>
     </g>
     <g id="text_4">
      <!-- 30 -->
      <g style="fill:#262626;" transform="translate(221.454688 242.013594)scale(0.11 -0.11)">
       <defs>
        <path d="M 4.203125 18.890625 
L 12.984375 20.0625 
Q 14.5 12.59375 18.140625 9.296875 
Q 21.78125 6 27 6 
Q 33.203125 6 37.46875 10.296875 
Q 41.75 14.59375 41.75 20.953125 
Q 41.75 27 37.796875 30.921875 
Q 33.84375 34.859375 27.734375 34.859375 
Q 25.25 34.859375 21.53125 33.890625 
L 22.515625 41.609375 
Q 23.390625 41.5 23.921875 41.5 
Q 29.546875 41.5 34.03125 44.421875 
Q 38.53125 47.359375 38.53125 53.46875 
Q 38.53125 58.296875 35.25 61.46875 
Q 31.984375 64.65625 26.8125 64.65625 
Q 21.6875 64.65625 18.265625 61.421875 
Q 14.84375 58.203125 13.875 51.765625 
L 5.078125 53.328125 
Q 6.6875 62.15625 12.390625 67.015625 
Q 18.109375 71.875 26.609375 71.875 
Q 32.46875 71.875 37.390625 69.359375 
Q 42.328125 66.84375 44.9375 62.5 
Q 47.5625 58.15625 47.5625 53.265625 
Q 47.5625 48.640625 45.0625 44.828125 
Q 42.578125 41.015625 37.703125 38.765625 
Q 44.046875 37.3125 47.5625 32.6875 
Q 51.078125 28.078125 51.078125 21.140625 
Q 51.078125 11.765625 44.234375 5.25 
Q 37.40625 -1.265625 26.953125 -1.265625 
Q 17.53125 -1.265625 11.296875 4.34375 
Q 5.078125 9.96875 4.203125 18.890625 
z
" id="ArialMT-51"/>
       </defs>
       <use xlink:href="#ArialMT-51"/>
       <use x="55.615234" xlink:href="#ArialMT-48"/>
      </g>
     </g>
    </g>
    <g id="xtick_5">
     <g id="line2d_5">
      <g>
       <use style="fill:#262626;stroke:#262626;stroke-width:1.25;" x="278.298991" xlink:href="#m29f5d90074" y="224.64"/>
      </g>
     </g>
     <g id="text_5">
      <!-- 40 -->
      <g style="fill:#262626;" transform="translate(272.18196 242.013594)scale(0.11 -0.11)">
       <defs>
        <path d="M 32.328125 0 
L 32.328125 17.140625 
L 1.265625 17.140625 
L 1.265625 25.203125 
L 33.9375 71.578125 
L 41.109375 71.578125 
L 41.109375 25.203125 
L 50.78125 25.203125 
L 50.78125 17.140625 
L 41.109375 17.140625 
L 41.109375 0 
z
M 32.328125 25.203125 
L 32.328125 57.46875 
L 9.90625 25.203125 
z
" id="ArialMT-52"/>
       </defs>
       <use xlink:href="#ArialMT-52"/>
       <use x="55.615234" xlink:href="#ArialMT-48"/>
      </g>
     </g>
    </g>
    <g id="xtick_6">
     <g id="line2d_6">
      <g>
       <use style="fill:#262626;stroke:#262626;stroke-width:1.25;" x="329.026264" xlink:href="#m29f5d90074" y="224.64"/>
      </g>
     </g>
     <g id="text_6">
      <!-- 50 -->
      <g style="fill:#262626;" transform="translate(322.909233 242.013594)scale(0.11 -0.11)">
       <defs>
        <path d="M 4.15625 18.75 
L 13.375 19.53125 
Q 14.40625 12.796875 18.140625 9.390625 
Q 21.875 6 27.15625 6 
Q 33.5 6 37.890625 10.78125 
Q 42.28125 15.578125 42.28125 23.484375 
Q 42.28125 31 38.0625 35.34375 
Q 33.84375 39.703125 27 39.703125 
Q 22.75 39.703125 19.328125 37.765625 
Q 15.921875 35.84375 13.96875 32.765625 
L 5.71875 33.84375 
L 12.640625 70.609375 
L 48.25 70.609375 
L 48.25 62.203125 
L 19.671875 62.203125 
L 15.828125 42.96875 
Q 22.265625 47.46875 29.34375 47.46875 
Q 38.71875 47.46875 45.15625 40.96875 
Q 51.609375 34.46875 51.609375 24.265625 
Q 51.609375 14.546875 45.953125 7.46875 
Q 39.0625 -1.21875 27.15625 -1.21875 
Q 17.390625 -1.21875 11.203125 4.25 
Q 5.03125 9.71875 4.15625 18.75 
z
" id="ArialMT-53"/>
       </defs>
       <use xlink:href="#ArialMT-53"/>
       <use x="55.615234" xlink:href="#ArialMT-48"/>
      </g>
     </g>
    </g>
    <g id="xtick_7">
     <g id="line2d_7">
      <g>
       <use style="fill:#262626;stroke:#262626;stroke-width:1.25;" x="379.753537" xlink:href="#m29f5d90074" y="224.64"/>
      </g>
     </g>
     <g id="text_7">
      <!-- 60 -->
      <g style="fill:#262626;" transform="translate(373.636506 242.013594)scale(0.11 -0.11)">
       <defs>
        <path d="M 49.75 54.046875 
L 41.015625 53.375 
Q 39.84375 58.546875 37.703125 60.890625 
Q 34.125 64.65625 28.90625 64.65625 
Q 24.703125 64.65625 21.53125 62.3125 
Q 17.390625 59.28125 14.984375 53.46875 
Q 12.59375 47.65625 12.5 36.921875 
Q 15.671875 41.75 20.265625 44.09375 
Q 24.859375 46.4375 29.890625 46.4375 
Q 38.671875 46.4375 44.84375 39.96875 
Q 51.03125 33.5 51.03125 23.25 
Q 51.03125 16.5 48.125 10.71875 
Q 45.21875 4.9375 40.140625 1.859375 
Q 35.0625 -1.21875 28.609375 -1.21875 
Q 17.625 -1.21875 10.6875 6.859375 
Q 3.765625 14.9375 3.765625 33.5 
Q 3.765625 54.25 11.421875 63.671875 
Q 18.109375 71.875 29.4375 71.875 
Q 37.890625 71.875 43.28125 67.140625 
Q 48.6875 62.40625 49.75 54.046875 
z
M 13.875 23.1875 
Q 13.875 18.65625 15.796875 14.5 
Q 17.71875 10.359375 21.1875 8.171875 
Q 24.65625 6 28.46875 6 
Q 34.03125 6 38.03125 10.484375 
Q 42.046875 14.984375 42.046875 22.703125 
Q 42.046875 30.125 38.078125 34.390625 
Q 34.125 38.671875 28.125 38.671875 
Q 22.171875 38.671875 18.015625 34.390625 
Q 13.875 30.125 13.875 23.1875 
z
" id="ArialMT-54"/>
       </defs>
       <use xlink:href="#ArialMT-54"/>
       <use x="55.615234" xlink:href="#ArialMT-48"/>
      </g>
     </g>
    </g>
    <g id="text_8">
     <!-- $x$ -->
     <g style="fill:#262626;" transform="translate(223.971719 256.789219)scale(0.12 -0.12)">
      <defs>
       <path d="M 60.015625 54.6875 
L 34.90625 27.875 
L 50.296875 0 
L 39.984375 0 
L 28.421875 21.6875 
L 8.296875 0 
L -2.59375 0 
L 24.3125 28.8125 
L 10.015625 54.6875 
L 20.3125 54.6875 
L 30.8125 34.90625 
L 49.125 54.6875 
z
" id="DejaVuSans-Oblique-120"/>
      </defs>
      <use transform="translate(0 0.3125)" xlink:href="#DejaVuSans-Oblique-120"/>
     </g>
    </g>
   </g>
   <g id="matplotlib.axis_2">
    <g id="ytick_1">
     <g id="line2d_8">
      <defs>
       <path d="M 0 0 
L -6 0 
" id="m82f07273b1" style="stroke:#262626;stroke-width:1.25;"/>
      </defs>
      <g>
       <use style="fill:#262626;stroke:#262626;stroke-width:1.25;" x="60.171719" xlink:href="#m82f07273b1" y="214.759443"/>
      </g>
     </g>
     <g id="text_9">
      <!-- −1.00 -->
      <g style="fill:#262626;" transform="translate(22.84 218.69624)scale(0.11 -0.11)">
       <defs>
        <path d="M 52.828125 31.203125 
L 5.5625 31.203125 
L 5.5625 39.40625 
L 52.828125 39.40625 
z
" id="ArialMT-8722"/>
        <path d="M 9.078125 0 
L 9.078125 10.015625 
L 19.09375 10.015625 
L 19.09375 0 
z
" id="ArialMT-46"/>
       </defs>
       <use xlink:href="#ArialMT-8722"/>
       <use x="58.398438" xlink:href="#ArialMT-49"/>
       <use x="114.013672" xlink:href="#ArialMT-46"/>
       <use x="141.796875" xlink:href="#ArialMT-48"/>
       <use x="197.412109" xlink:href="#ArialMT-48"/>
      </g>
     </g>
    </g>
    <g id="ytick_2">
     <g id="line2d_9">
      <g>
       <use style="fill:#262626;stroke:#262626;stroke-width:1.25;" x="60.171719" xlink:href="#m82f07273b1" y="190.049967"/>
      </g>
     </g>
     <g id="text_10">
      <!-- −0.75 -->
      <g style="fill:#262626;" transform="translate(22.84 193.986764)scale(0.11 -0.11)">
       <defs>
        <path d="M 4.734375 62.203125 
L 4.734375 70.65625 
L 51.078125 70.65625 
L 51.078125 63.8125 
Q 44.234375 56.546875 37.515625 44.484375 
Q 30.8125 32.421875 27.15625 19.671875 
Q 24.515625 10.6875 23.78125 0 
L 14.75 0 
Q 14.890625 8.453125 18.0625 20.40625 
Q 21.234375 32.375 27.171875 43.484375 
Q 33.109375 54.59375 39.796875 62.203125 
z
" id="ArialMT-55"/>
       </defs>
       <use xlink:href="#ArialMT-8722"/>
       <use x="58.398438" xlink:href="#ArialMT-48"/>
       <use x="114.013672" xlink:href="#ArialMT-46"/>
       <use x="141.796875" xlink:href="#ArialMT-55"/>
       <use x="197.412109" xlink:href="#ArialMT-53"/>
      </g>
     </g>
    </g>
    <g id="ytick_3">
     <g id="line2d_10">
      <g>
       <use style="fill:#262626;stroke:#262626;stroke-width:1.25;" x="60.171719" xlink:href="#m82f07273b1" y="165.340491"/>
      </g>
     </g>
     <g id="text_11">
      <!-- −0.50 -->
      <g style="fill:#262626;" transform="translate(22.84 169.277288)scale(0.11 -0.11)">
       <use xlink:href="#ArialMT-8722"/>
       <use x="58.398438" xlink:href="#ArialMT-48"/>
       <use x="114.013672" xlink:href="#ArialMT-46"/>
       <use x="141.796875" xlink:href="#ArialMT-53"/>
       <use x="197.412109" xlink:href="#ArialMT-48"/>
      </g>
     </g>
    </g>
    <g id="ytick_4">
     <g id="line2d_11">
      <g>
       <use style="fill:#262626;stroke:#262626;stroke-width:1.25;" x="60.171719" xlink:href="#m82f07273b1" y="140.631015"/>
      </g>
     </g>
     <g id="text_12">
      <!-- −0.25 -->
      <g style="fill:#262626;" transform="translate(22.84 144.567812)scale(0.11 -0.11)">
       <use xlink:href="#ArialMT-8722"/>
       <use x="58.398438" xlink:href="#ArialMT-48"/>
       <use x="114.013672" xlink:href="#ArialMT-46"/>
       <use x="141.796875" xlink:href="#ArialMT-50"/>
       <use x="197.412109" xlink:href="#ArialMT-53"/>
      </g>
     </g>
    </g>
    <g id="ytick_5">
     <g id="line2d_12">
      <g>
       <use style="fill:#262626;stroke:#262626;stroke-width:1.25;" x="60.171719" xlink:href="#m82f07273b1" y="115.92154"/>
      </g>
     </g>
     <g id="text_13">
      <!-- 0.00 -->
      <g style="fill:#262626;" transform="translate(29.264687 119.858336)scale(0.11 -0.11)">
       <use xlink:href="#ArialMT-48"/>
       <use x="55.615234" xlink:href="#ArialMT-46"/>
       <use x="83.398438" xlink:href="#ArialMT-48"/>
       <use x="139.013672" xlink:href="#ArialMT-48"/>
      </g>
     </g>
    </g>
    <g id="ytick_6">
     <g id="line2d_13">
      <g>
       <use style="fill:#262626;stroke:#262626;stroke-width:1.25;" x="60.171719" xlink:href="#m82f07273b1" y="91.212064"/>
      </g>
     </g>
     <g id="text_14">
      <!-- 0.25 -->
      <g style="fill:#262626;" transform="translate(29.264687 95.148861)scale(0.11 -0.11)">
       <use xlink:href="#ArialMT-48"/>
       <use x="55.615234" xlink:href="#ArialMT-46"/>
       <use x="83.398438" xlink:href="#ArialMT-50"/>
       <use x="139.013672" xlink:href="#ArialMT-53"/>
      </g>
     </g>
    </g>
    <g id="ytick_7">
     <g id="line2d_14">
      <g>
       <use style="fill:#262626;stroke:#262626;stroke-width:1.25;" x="60.171719" xlink:href="#m82f07273b1" y="66.502588"/>
      </g>
     </g>
     <g id="text_15">
      <!-- 0.50 -->
      <g style="fill:#262626;" transform="translate(29.264687 70.439385)scale(0.11 -0.11)">
       <use xlink:href="#ArialMT-48"/>
       <use x="55.615234" xlink:href="#ArialMT-46"/>
       <use x="83.398438" xlink:href="#ArialMT-53"/>
       <use x="139.013672" xlink:href="#ArialMT-48"/>
      </g>
     </g>
    </g>
    <g id="ytick_8">
     <g id="line2d_15">
      <g>
       <use style="fill:#262626;stroke:#262626;stroke-width:1.25;" x="60.171719" xlink:href="#m82f07273b1" y="41.793112"/>
      </g>
     </g>
     <g id="text_16">
      <!-- 0.75 -->
      <g style="fill:#262626;" transform="translate(29.264687 45.729909)scale(0.11 -0.11)">
       <use xlink:href="#ArialMT-48"/>
       <use x="55.615234" xlink:href="#ArialMT-46"/>
       <use x="83.398438" xlink:href="#ArialMT-55"/>
       <use x="139.013672" xlink:href="#ArialMT-53"/>
      </g>
     </g>
    </g>
    <g id="ytick_9">
     <g id="line2d_16">
      <g>
       <use style="fill:#262626;stroke:#262626;stroke-width:1.25;" x="60.171719" xlink:href="#m82f07273b1" y="17.083636"/>
      </g>
     </g>
     <g id="text_17">
      <!-- 1.00 -->
      <g style="fill:#262626;" transform="translate(29.264687 21.020433)scale(0.11 -0.11)">
       <use xlink:href="#ArialMT-49"/>
       <use x="55.615234" xlink:href="#ArialMT-46"/>
       <use x="83.398438" xlink:href="#ArialMT-48"/>
       <use x="139.013672" xlink:href="#ArialMT-48"/>
      </g>
     </g>
    </g>
    <g id="text_18">
     <!-- $\phi_i(x)$ -->
     <g style="fill:#262626;" transform="translate(16.32 129.48)rotate(-90)scale(0.12 -0.12)">
      <defs>
       <path d="M 46.734375 75.984375 
L 42.78125 55.8125 
Q 52.546875 55.8125 57.5625 48.34375 
Q 62.75 40.71875 60.15625 27.296875 
Q 57.515625 13.875 49.359375 6.25 
Q 41.453125 -1.21875 31.6875 -1.21875 
L 27.875 -20.796875 
L 18.953125 -20.796875 
L 22.75 -1.21875 
Q 13.03125 -1.21875 7.953125 6.25 
Q 2.78125 13.875 5.421875 27.296875 
Q 8.015625 40.71875 16.15625 48.34375 
Q 24.125 55.8125 33.84375 55.8125 
L 37.796875 75.984375 
z
M 33.25 6.78125 
Q 38.765625 6.78125 43.5 11.8125 
Q 48.6875 17.4375 50.6875 27.296875 
Q 52.640625 37.0625 49.515625 42.78125 
Q 46.734375 47.796875 41.21875 47.796875 
z
M 24.3125 6.78125 
L 32.28125 47.796875 
Q 26.8125 47.796875 22.078125 42.78125 
Q 16.75 37.0625 14.890625 27.296875 
Q 13.03125 17.4375 16.0625 11.8125 
Q 18.796875 6.78125 24.3125 6.78125 
z
" id="DejaVuSans-Oblique-981"/>
       <path d="M 18.3125 75.984375 
L 27.296875 75.984375 
L 25.09375 64.59375 
L 16.109375 64.59375 
z
M 14.203125 54.6875 
L 23.1875 54.6875 
L 12.5 0 
L 3.515625 0 
z
" id="DejaVuSans-Oblique-105"/>
       <path d="M 31 75.875 
Q 24.46875 64.65625 21.28125 53.65625 
Q 18.109375 42.671875 18.109375 31.390625 
Q 18.109375 20.125 21.3125 9.0625 
Q 24.515625 -2 31 -13.1875 
L 23.1875 -13.1875 
Q 15.875 -1.703125 12.234375 9.375 
Q 8.59375 20.453125 8.59375 31.390625 
Q 8.59375 42.28125 12.203125 53.3125 
Q 15.828125 64.359375 23.1875 75.875 
z
" id="DejaVuSans-40"/>
       <path d="M 8.015625 75.875 
L 15.828125 75.875 
Q 23.140625 64.359375 26.78125 53.3125 
Q 30.421875 42.28125 30.421875 31.390625 
Q 30.421875 20.453125 26.78125 9.375 
Q 23.140625 -1.703125 15.828125 -13.1875 
L 8.015625 -13.1875 
Q 14.5 -2 17.703125 9.0625 
Q 20.90625 20.125 20.90625 31.390625 
Q 20.90625 42.671875 17.703125 53.65625 
Q 14.5 64.65625 8.015625 75.875 
z
" id="DejaVuSans-41"/>
      </defs>
      <use transform="translate(0 0.015625)" xlink:href="#DejaVuSans-Oblique-981"/>
      <use transform="translate(65.966797 -16.390625)scale(0.7)" xlink:href="#DejaVuSans-Oblique-105"/>
      <use transform="translate(88.149414 0.015625)" xlink:href="#DejaVuSans-40"/>
      <use transform="translate(127.163086 0.015625)" xlink:href="#DejaVuSans-Oblique-120"/>
      <use transform="translate(186.342773 0.015625)" xlink:href="#DejaVuSans-41"/>
     </g>
    </g>
   </g>
   <g id="line2d_17">
    <path clip-path="url(#p37e1a2b056)" d="M 75.389901 17.083636 
L 379.753537 17.083636 
L 379.753537 17.083636 
" style="fill:none;stroke:#4c72b0;stroke-linecap:round;stroke-width:1.5;"/>
   </g>
   <g id="line2d_18">
    <path clip-path="url(#p37e1a2b056)" d="M 75.389901 17.083636 
L 78.448832 17.280635 
L 81.507763 17.870845 
L 84.566694 18.851914 
L 87.625625 20.219931 
L 90.684556 21.969442 
L 93.743487 24.093474 
L 96.802418 26.58356 
L 99.861349 29.429773 
L 102.92028 32.620768 
L 105.979211 36.143824 
L 109.038142 39.984897 
L 112.097073 44.128676 
L 115.156004 48.558643 
L 119.7444 55.70127 
L 124.332797 63.383798 
L 128.921193 71.53735 
L 133.50959 80.088825 
L 139.627452 91.976844 
L 147.27478 107.350427 
L 164.0989 141.377051 
L 170.216762 153.203919 
L 174.805159 161.69431 
L 179.393555 169.774328 
L 183.981952 177.371533 
L 188.570348 184.417811 
L 191.629279 188.777843 
L 194.68821 192.847448 
L 197.747141 196.610404 
L 200.806072 200.051711 
L 203.865003 203.15765 
L 206.923934 205.91584 
L 209.982865 208.315286 
L 213.041796 210.346424 
L 216.100727 212.001157 
L 219.159658 213.272888 
L 222.218589 214.156548 
L 225.27752 214.648615 
L 228.336452 214.747127 
L 231.395383 214.45169 
L 234.454314 213.763484 
L 237.513245 212.685251 
L 240.572176 211.221289 
L 243.631107 209.377435 
L 246.690038 207.161038 
L 249.748969 204.580934 
L 252.8079 201.647407 
L 255.866831 198.372152 
L 258.925762 194.768224 
L 261.984693 190.849991 
L 265.043624 186.63307 
L 268.102555 182.134273 
L 272.690951 174.897077 
L 277.279348 167.13114 
L 281.867744 158.906087 
L 287.985606 147.353133 
L 294.103468 135.299496 
L 304.809727 113.581242 
L 315.515986 91.976844 
L 321.633848 80.088825 
L 326.222244 71.53735 
L 330.810641 63.383798 
L 335.399037 55.70127 
L 339.987434 48.558643 
L 343.046365 44.128676 
L 346.105296 39.984897 
L 349.164227 36.143824 
L 352.223158 32.620768 
L 355.282089 29.429773 
L 358.34102 26.58356 
L 361.399951 24.093474 
L 364.458882 21.969442 
L 367.517813 20.219931 
L 370.576744 18.851914 
L 373.635675 17.870845 
L 376.694606 17.280635 
L 379.753537 17.083636 
L 379.753537 17.083636 
" style="fill:none;stroke:#dd8452;stroke-linecap:round;stroke-width:1.5;"/>
   </g>
   <g id="line2d_19">
    <path clip-path="url(#p37e1a2b056)" d="M 75.389901 115.92154 
L 86.096159 94.254139 
L 92.214021 82.279954 
L 98.331883 70.841655 
L 102.92028 62.724617 
L 107.508676 55.084513 
L 112.097073 47.989839 
L 115.156004 43.594703 
L 118.214935 39.487883 
L 121.273866 35.68575 
L 124.332797 32.20346 
L 127.391728 29.054895 
L 130.450659 26.252606 
L 133.50959 23.807764 
L 136.568521 21.730114 
L 139.627452 20.027939 
L 142.686383 18.708024 
L 145.745314 17.77563 
L 148.804245 17.234475 
L 151.863176 17.086715 
L 154.922107 17.332941 
L 157.981038 17.972169 
L 161.039969 19.001852 
L 164.0989 20.417885 
L 167.157831 22.214624 
L 170.216762 24.384906 
L 173.275693 26.92008 
L 176.334624 29.81004 
L 179.393555 33.043266 
L 182.452486 36.606869 
L 185.511417 40.486643 
L 188.570348 44.667123 
L 191.629279 49.131644 
L 196.217676 56.321779 
L 200.806072 64.046252 
L 205.394469 72.23581 
L 211.512331 83.751262 
L 217.630193 95.779164 
L 226.806986 114.36126 
L 239.04271 139.108566 
L 245.160572 151.02605 
L 249.748969 159.607269 
L 254.337365 167.796827 
L 258.925762 175.5213 
L 263.514158 182.711435 
L 266.573089 187.175956 
L 269.63202 191.356436 
L 272.690951 195.236211 
L 275.749882 198.799813 
L 278.808813 202.033039 
L 281.867744 204.922999 
L 284.926675 207.458173 
L 287.985606 209.628455 
L 291.044537 211.425194 
L 294.103468 212.841227 
L 297.162399 213.87091 
L 300.22133 214.510139 
L 303.280261 214.756364 
L 306.339192 214.608604 
L 309.398124 214.067449 
L 312.457055 213.135055 
L 315.515986 211.81514 
L 318.574917 210.112965 
L 321.633848 208.035315 
L 324.692779 205.590473 
L 327.75171 202.788184 
L 330.810641 199.639619 
L 333.869572 196.157329 
L 336.928503 192.355196 
L 339.987434 188.248376 
L 343.046365 183.85324 
L 347.634761 176.758566 
L 352.223158 169.118462 
L 356.811554 161.001424 
L 361.399951 152.480226 
L 367.517813 140.622413 
L 375.16514 125.269609 
L 379.753537 115.92154 
L 379.753537 115.92154 
" style="fill:none;stroke:#55a868;stroke-linecap:round;stroke-width:1.5;"/>
   </g>
   <g id="line2d_20">
    <path clip-path="url(#p37e1a2b056)" d="M 75.389901 17.083636 
L 76.919366 17.280635 
L 78.448832 17.870845 
L 79.978297 18.851914 
L 81.507763 20.219931 
L 83.037228 21.969442 
L 84.566694 24.093474 
L 86.096159 26.58356 
L 87.625625 29.429773 
L 89.15509 32.620768 
L 90.684556 36.143824 
L 92.214021 39.984897 
L 95.272952 48.558643 
L 98.331883 58.205431 
L 101.390814 68.771596 
L 104.449745 80.088825 
L 109.038142 98.075995 
L 122.803331 153.203919 
L 125.862262 164.436906 
L 128.921193 174.897077 
L 131.980124 184.417811 
L 135.039055 192.847448 
L 136.568521 196.610404 
L 138.097986 200.051711 
L 139.627452 203.15765 
L 141.156917 205.91584 
L 142.686383 208.315286 
L 144.215848 210.346424 
L 145.745314 212.001157 
L 147.27478 213.272888 
L 148.804245 214.156548 
L 150.333711 214.648615 
L 151.863176 214.747127 
L 153.392642 214.45169 
L 154.922107 213.763484 
L 156.451573 212.685251 
L 157.981038 211.221289 
L 159.510504 209.377435 
L 161.039969 207.161038 
L 162.569435 204.580934 
L 164.0989 201.647407 
L 165.628366 198.372152 
L 167.157831 194.768224 
L 170.216762 186.63307 
L 173.275693 177.371533 
L 176.334624 167.13114 
L 179.393555 156.075016 
L 183.981952 138.349452 
L 191.629279 107.350427 
L 197.747141 83.014583 
L 200.806072 71.53735 
L 203.865003 60.767125 
L 206.923934 50.875471 
L 209.982865 42.019953 
L 213.041796 34.341636 
L 214.571262 30.982936 
L 216.100727 27.962827 
L 217.630193 25.293347 
L 219.159658 22.985138 
L 220.689124 21.0474 
L 222.218589 19.487859 
L 223.748055 18.31273 
L 225.27752 17.526699 
L 226.806986 17.132898 
L 228.336452 17.132898 
L 229.865917 17.526699 
L 231.395383 18.31273 
L 232.924848 19.487859 
L 234.454314 21.0474 
L 235.983779 22.985138 
L 237.513245 25.293347 
L 239.04271 27.962827 
L 240.572176 30.982936 
L 242.101641 34.341636 
L 243.631107 38.025536 
L 246.690038 46.308964 
L 249.748969 55.70127 
L 252.8079 66.052842 
L 255.866831 77.198786 
L 260.455227 95.016 
L 275.749882 156.075016 
L 278.808813 167.13114 
L 281.867744 177.371533 
L 284.926675 186.63307 
L 287.985606 194.768224 
L 289.515072 198.372152 
L 291.044537 201.647407 
L 292.574003 204.580934 
L 294.103468 207.161038 
L 295.632934 209.377435 
L 297.162399 211.221289 
L 298.691865 212.685251 
L 300.22133 213.763484 
L 301.750796 214.45169 
L 303.280261 214.747127 
L 304.809727 214.648615 
L 306.339192 214.156548 
L 307.868658 213.272888 
L 309.398124 212.001157 
L 310.927589 210.346424 
L 312.457055 208.315286 
L 313.98652 205.91584 
L 315.515986 203.15765 
L 317.045451 200.051711 
L 318.574917 196.610404 
L 320.104382 192.847448 
L 323.163313 184.417811 
L 326.222244 174.897077 
L 329.281175 164.436906 
L 332.340106 153.203919 
L 336.928503 135.299496 
L 350.693692 80.088825 
L 353.752623 68.771596 
L 356.811554 58.205431 
L 359.870485 48.558643 
L 362.929416 39.984897 
L 364.458882 36.143824 
L 365.988347 32.620768 
L 367.517813 29.429773 
L 369.047278 26.58356 
L 370.576744 24.093474 
L 372.106209 21.969442 
L 373.635675 20.219931 
L 375.16514 18.851914 
L 376.694606 17.870845 
L 378.224071 17.280635 
L 379.753537 17.083636 
L 379.753537 17.083636 
" style="fill:none;stroke:#c44e52;stroke-linecap:round;stroke-width:1.5;"/>
   </g>
   <g id="line2d_21">
    <path clip-path="url(#p37e1a2b056)" d="M 75.389901 115.92154 
L 81.507763 91.220666 
L 86.096159 73.640852 
L 89.15509 62.724617 
L 92.214021 52.655771 
L 95.272952 43.594703 
L 98.331883 35.68575 
L 99.861349 32.20346 
L 101.390814 29.054895 
L 102.92028 26.252606 
L 104.449745 23.807764 
L 105.979211 21.730114 
L 107.508676 20.027939 
L 109.038142 18.708024 
L 110.567607 17.77563 
L 112.097073 17.234475 
L 113.626538 17.086715 
L 115.156004 17.332941 
L 116.685469 17.972169 
L 118.214935 19.001852 
L 119.7444 20.417885 
L 121.273866 22.214624 
L 122.803331 24.384906 
L 124.332797 26.92008 
L 125.862262 29.81004 
L 127.391728 33.043266 
L 128.921193 36.606869 
L 131.980124 44.667123 
L 135.039055 53.862409 
L 138.097986 64.046252 
L 141.156917 75.056432 
L 145.745314 92.734513 
L 153.392642 123.71516 
L 159.510504 148.091817 
L 162.569435 159.607269 
L 165.628366 170.426839 
L 168.687297 180.378179 
L 171.746228 189.30277 
L 174.805159 197.058451 
L 176.334624 200.45856 
L 177.86409 203.52168 
L 179.393555 206.2356 
L 180.923021 208.589501 
L 182.452486 210.574 
L 183.981952 212.181188 
L 185.511417 213.404656 
L 187.040883 214.239527 
L 188.570348 214.682475 
L 190.099814 214.731732 
L 191.629279 214.387103 
L 193.158745 213.649961 
L 194.68821 212.523245 
L 196.217676 211.011447 
L 197.747141 209.120592 
L 199.276607 206.858218 
L 200.806072 204.233344 
L 202.335538 201.256433 
L 203.865003 197.939353 
L 205.394469 194.295325 
L 208.4534 186.085779 
L 211.512331 176.758566 
L 214.571262 166.462263 
L 217.630193 155.360883 
L 222.218589 137.588941 
L 237.513245 76.482196 
L 240.572176 65.380816 
L 243.631107 55.084513 
L 246.690038 45.757301 
L 249.748969 37.547754 
L 251.278434 33.903726 
L 252.8079 30.586646 
L 254.337365 27.609735 
L 255.866831 24.984861 
L 257.396296 22.722488 
L 258.925762 20.831633 
L 260.455227 19.319834 
L 261.984693 18.193118 
L 263.514158 17.455976 
L 265.043624 17.111347 
L 266.573089 17.160604 
L 268.102555 17.603552 
L 269.63202 18.438423 
L 271.161486 19.661891 
L 272.690951 21.269079 
L 274.220417 23.253578 
L 275.749882 25.60748 
L 277.279348 28.321399 
L 278.808813 31.384519 
L 280.338279 34.784628 
L 281.867744 38.508172 
L 284.926675 46.864965 
L 287.985606 56.321779 
L 291.044537 66.727975 
L 294.103468 77.917789 
L 298.691865 95.779164 
L 313.98652 156.786647 
L 317.045451 167.796827 
L 320.104382 177.98067 
L 323.163313 187.175956 
L 326.222244 195.236211 
L 327.75171 198.799813 
L 329.281175 202.033039 
L 330.810641 204.922999 
L 332.340106 207.458173 
L 333.869572 209.628455 
L 335.399037 211.425194 
L 336.928503 212.841227 
L 338.457968 213.87091 
L 339.987434 214.510139 
L 341.516899 214.756364 
L 343.046365 214.608604 
L 344.57583 214.067449 
L 346.105296 213.135055 
L 347.634761 211.81514 
L 349.164227 210.112965 
L 350.693692 208.035315 
L 352.223158 205.590473 
L 353.752623 202.788184 
L 355.282089 199.639619 
L 356.811554 196.157329 
L 358.34102 192.355196 
L 361.399951 183.85324 
L 364.458882 174.26918 
L 367.517813 163.755685 
L 370.576744 152.480226 
L 375.16514 134.53387 
L 379.753537 115.92154 
L 379.753537 115.92154 
" style="fill:none;stroke:#8172b3;stroke-linecap:round;stroke-width:1.5;"/>
   </g>
   <g id="patch_3">
    <path d="M 60.171719 224.64 
L 60.171719 7.2 
" style="fill:none;stroke:#262626;stroke-linecap:square;stroke-linejoin:miter;stroke-width:1.25;"/>
   </g>
   <g id="patch_4">
    <path d="M 394.971719 224.64 
L 394.971719 7.2 
" style="fill:none;stroke:#262626;stroke-linecap:square;stroke-linejoin:miter;stroke-width:1.25;"/>
   </g>
   <g id="patch_5">
    <path d="M 60.171719 224.64 
L 394.971719 224.64 
" style="fill:none;stroke:#262626;stroke-linecap:square;stroke-linejoin:miter;stroke-width:1.25;"/>
   </g>
   <g id="patch_6">
    <path d="M 60.171719 7.2 
L 394.971719 7.2 
" style="fill:none;stroke:#262626;stroke-linecap:square;stroke-linejoin:miter;stroke-width:1.25;"/>
   </g>
  </g>
 </g>
 <defs>
  <clipPath id="p37e1a2b056">
   <rect height="217.44" width="334.8" x="60.171719" y="7.2"/>
  </clipPath>
 </defs>
</svg>
