<?xml version="1.0" encoding="utf-8" standalone="no"?>
<!DOCTYPE svg PUBLIC "-//W3C//DTD SVG 1.1//EN"
  "http://www.w3.org/Graphics/SVG/1.1/DTD/svg11.dtd">
<!-- Created with matplotlib (https://matplotlib.org/) -->
<svg height="266.374219pt" version="1.1" viewBox="0 0 389.63 266.374219" width="389.63pt" xmlns="http://www.w3.org/2000/svg" xmlns:xlink="http://www.w3.org/1999/xlink">
 <metadata>
  <rdf:RDF xmlns:cc="http://creativecommons.org/ns#" xmlns:dc="http://purl.org/dc/elements/1.1/" xmlns:rdf="http://www.w3.org/1999/02/22-rdf-syntax-ns#">
   <cc:Work>
    <dc:type rdf:resource="http://purl.org/dc/dcmitype/StillImage"/>
    <dc:date>2021-08-03T16:50:52.465246</dc:date>
    <dc:format>image/svg+xml</dc:format>
    <dc:creator>
     <cc:Agent>
      <dc:title>Matplotlib v3.3.4, https://matplotlib.org/</dc:title>
     </cc:Agent>
    </dc:creator>
   </cc:Work>
  </rdf:RDF>
 </metadata>
 <defs>
  <style type="text/css">*{stroke-linecap:butt;stroke-linejoin:round;}</style>
 </defs>
 <g id="figure_1">
  <g id="patch_1">
   <path d="M 0 266.374219 
L 389.63 266.374219 
L 389.63 0 
L 0 0 
z
" style="fill:#ffffff;"/>
  </g>
  <g id="axes_1">
   <g id="patch_2">
    <path d="M 47.63 224.64 
L 382.43 224.64 
L 382.43 7.2 
L 47.63 7.2 
z
" style="fill:#ffffff;"/>
   </g>
   <g id="matplotlib.axis_1">
    <g id="xtick_1">
     <g id="line2d_1">
      <defs>
       <path d="M 0 0 
L 0 6 
" id="m06218f502d" style="stroke:#262626;stroke-width:1.25;"/>
      </defs>
      <g>
       <use style="fill:#262626;stroke:#262626;stroke-width:1.25;" x="62.848182" xlink:href="#m06218f502d" y="224.64"/>
      </g>
     </g>
     <g id="text_1">
      <!-- 0 -->
      <g style="fill:#262626;" transform="translate(59.789666 242.013594)scale(0.11 -0.11)">
       <defs>
        <path d="M 4.15625 35.296875 
Q 4.15625 48 6.765625 55.734375 
Q 9.375 63.484375 14.515625 67.671875 
Q 19.671875 71.875 27.484375 71.875 
Q 33.25 71.875 37.59375 69.546875 
Q 41.9375 67.234375 44.765625 62.859375 
Q 47.609375 58.5 49.21875 52.21875 
Q 50.828125 45.953125 50.828125 35.296875 
Q 50.828125 22.703125 48.234375 14.96875 
Q 45.65625 7.234375 40.5 3 
Q 35.359375 -1.21875 27.484375 -1.21875 
Q 17.140625 -1.21875 11.234375 6.203125 
Q 4.15625 15.140625 4.15625 35.296875 
z
M 13.1875 35.296875 
Q 13.1875 17.671875 17.3125 11.828125 
Q 21.4375 6 27.484375 6 
Q 33.546875 6 37.671875 11.859375 
Q 41.796875 17.71875 41.796875 35.296875 
Q 41.796875 52.984375 37.671875 58.78125 
Q 33.546875 64.59375 27.390625 64.59375 
Q 21.34375 64.59375 17.71875 59.46875 
Q 13.1875 52.9375 13.1875 35.296875 
z
" id="ArialMT-48"/>
       </defs>
       <use xlink:href="#ArialMT-48"/>
      </g>
     </g>
    </g>
    <g id="xtick_2">
     <g id="line2d_2">
      <g>
       <use style="fill:#262626;stroke:#262626;stroke-width:1.25;" x="113.575455" xlink:href="#m06218f502d" y="224.64"/>
      </g>
     </g>
     <g id="text_2">
      <!-- 10 -->
      <g style="fill:#262626;" transform="translate(107.458423 242.013594)scale(0.11 -0.11)">
       <defs>
        <path d="M 37.25 0 
L 28.46875 0 
L 28.46875 56 
Q 25.296875 52.984375 20.140625 49.953125 
Q 14.984375 46.921875 10.890625 45.40625 
L 10.890625 53.90625 
Q 18.265625 57.375 23.78125 62.296875 
Q 29.296875 67.234375 31.59375 71.875 
L 37.25 71.875 
z
" id="ArialMT-49"/>
       </defs>
       <use xlink:href="#ArialMT-49"/>
       <use x="55.615234" xlink:href="#ArialMT-48"/>
      </g>
     </g>
    </g>
    <g id="xtick_3">
     <g id="line2d_3">
      <g>
       <use style="fill:#262626;stroke:#262626;stroke-width:1.25;" x="164.302727" xlink:href="#m06218f502d" y="224.64"/>
      </g>
     </g>
     <g id="text_3">
      <!-- 20 -->
      <g style="fill:#262626;" transform="translate(158.185696 242.013594)scale(0.11 -0.11)">
       <defs>
        <path d="M 50.34375 8.453125 
L 50.34375 0 
L 3.03125 0 
Q 2.9375 3.171875 4.046875 6.109375 
Q 5.859375 10.9375 9.828125 15.625 
Q 13.8125 20.3125 21.34375 26.46875 
Q 33.015625 36.03125 37.109375 41.625 
Q 41.21875 47.21875 41.21875 52.203125 
Q 41.21875 57.421875 37.46875 61 
Q 33.734375 64.59375 27.734375 64.59375 
Q 21.390625 64.59375 17.578125 60.78125 
Q 13.765625 56.984375 13.71875 50.25 
L 4.6875 51.171875 
Q 5.609375 61.28125 11.65625 66.578125 
Q 17.71875 71.875 27.9375 71.875 
Q 38.234375 71.875 44.234375 66.15625 
Q 50.25 60.453125 50.25 52 
Q 50.25 47.703125 48.484375 43.546875 
Q 46.734375 39.40625 42.65625 34.8125 
Q 38.578125 30.21875 29.109375 22.21875 
Q 21.1875 15.578125 18.9375 13.203125 
Q 16.703125 10.84375 15.234375 8.453125 
z
" id="ArialMT-50"/>
       </defs>
       <use xlink:href="#ArialMT-50"/>
       <use x="55.615234" xlink:href="#ArialMT-48"/>
      </g>
     </g>
    </g>
    <g id="xtick_4">
     <g id="line2d_4">
      <g>
       <use style="fill:#262626;stroke:#262626;stroke-width:1.25;" x="215.03" xlink:href="#m06218f502d" y="224.64"/>
      </g>
     </g>
     <g id="text_4">
      <!-- 30 -->
      <g style="fill:#262626;" transform="translate(208.912969 242.013594)scale(0.11 -0.11)">
       <defs>
        <path d="M 4.203125 18.890625 
L 12.984375 20.0625 
Q 14.5 12.59375 18.140625 9.296875 
Q 21.78125 6 27 6 
Q 33.203125 6 37.46875 10.296875 
Q 41.75 14.59375 41.75 20.953125 
Q 41.75 27 37.796875 30.921875 
Q 33.84375 34.859375 27.734375 34.859375 
Q 25.25 34.859375 21.53125 33.890625 
L 22.515625 41.609375 
Q 23.390625 41.5 23.921875 41.5 
Q 29.546875 41.5 34.03125 44.421875 
Q 38.53125 47.359375 38.53125 53.46875 
Q 38.53125 58.296875 35.25 61.46875 
Q 31.984375 64.65625 26.8125 64.65625 
Q 21.6875 64.65625 18.265625 61.421875 
Q 14.84375 58.203125 13.875 51.765625 
L 5.078125 53.328125 
Q 6.6875 62.15625 12.390625 67.015625 
Q 18.109375 71.875 26.609375 71.875 
Q 32.46875 71.875 37.390625 69.359375 
Q 42.328125 66.84375 44.9375 62.5 
Q 47.5625 58.15625 47.5625 53.265625 
Q 47.5625 48.640625 45.0625 44.828125 
Q 42.578125 41.015625 37.703125 38.765625 
Q 44.046875 37.3125 47.5625 32.6875 
Q 51.078125 28.078125 51.078125 21.140625 
Q 51.078125 11.765625 44.234375 5.25 
Q 37.40625 -1.265625 26.953125 -1.265625 
Q 17.53125 -1.265625 11.296875 4.34375 
Q 5.078125 9.96875 4.203125 18.890625 
z
" id="ArialMT-51"/>
       </defs>
       <use xlink:href="#ArialMT-51"/>
       <use x="55.615234" xlink:href="#ArialMT-48"/>
      </g>
     </g>
    </g>
    <g id="xtick_5">
     <g id="line2d_5">
      <g>
       <use style="fill:#262626;stroke:#262626;stroke-width:1.25;" x="265.757273" xlink:href="#m06218f502d" y="224.64"/>
      </g>
     </g>
     <g id="text_5">
      <!-- 40 -->
      <g style="fill:#262626;" transform="translate(259.640241 242.013594)scale(0.11 -0.11)">
       <defs>
        <path d="M 32.328125 0 
L 32.328125 17.140625 
L 1.265625 17.140625 
L 1.265625 25.203125 
L 33.9375 71.578125 
L 41.109375 71.578125 
L 41.109375 25.203125 
L 50.78125 25.203125 
L 50.78125 17.140625 
L 41.109375 17.140625 
L 41.109375 0 
z
M 32.328125 25.203125 
L 32.328125 57.46875 
L 9.90625 25.203125 
z
" id="ArialMT-52"/>
       </defs>
       <use xlink:href="#ArialMT-52"/>
       <use x="55.615234" xlink:href="#ArialMT-48"/>
      </g>
     </g>
    </g>
    <g id="xtick_6">
     <g id="line2d_6">
      <g>
       <use style="fill:#262626;stroke:#262626;stroke-width:1.25;" x="316.484545" xlink:href="#m06218f502d" y="224.64"/>
      </g>
     </g>
     <g id="text_6">
      <!-- 50 -->
      <g style="fill:#262626;" transform="translate(310.367514 242.013594)scale(0.11 -0.11)">
       <defs>
        <path d="M 4.15625 18.75 
L 13.375 19.53125 
Q 14.40625 12.796875 18.140625 9.390625 
Q 21.875 6 27.15625 6 
Q 33.5 6 37.890625 10.78125 
Q 42.28125 15.578125 42.28125 23.484375 
Q 42.28125 31 38.0625 35.34375 
Q 33.84375 39.703125 27 39.703125 
Q 22.75 39.703125 19.328125 37.765625 
Q 15.921875 35.84375 13.96875 32.765625 
L 5.71875 33.84375 
L 12.640625 70.609375 
L 48.25 70.609375 
L 48.25 62.203125 
L 19.671875 62.203125 
L 15.828125 42.96875 
Q 22.265625 47.46875 29.34375 47.46875 
Q 38.71875 47.46875 45.15625 40.96875 
Q 51.609375 34.46875 51.609375 24.265625 
Q 51.609375 14.546875 45.953125 7.46875 
Q 39.0625 -1.21875 27.15625 -1.21875 
Q 17.390625 -1.21875 11.203125 4.25 
Q 5.03125 9.71875 4.15625 18.75 
z
" id="ArialMT-53"/>
       </defs>
       <use xlink:href="#ArialMT-53"/>
       <use x="55.615234" xlink:href="#ArialMT-48"/>
      </g>
     </g>
    </g>
    <g id="xtick_7">
     <g id="line2d_7">
      <g>
       <use style="fill:#262626;stroke:#262626;stroke-width:1.25;" x="367.211818" xlink:href="#m06218f502d" y="224.64"/>
      </g>
     </g>
     <g id="text_7">
      <!-- 60 -->
      <g style="fill:#262626;" transform="translate(361.094787 242.013594)scale(0.11 -0.11)">
       <defs>
        <path d="M 49.75 54.046875 
L 41.015625 53.375 
Q 39.84375 58.546875 37.703125 60.890625 
Q 34.125 64.65625 28.90625 64.65625 
Q 24.703125 64.65625 21.53125 62.3125 
Q 17.390625 59.28125 14.984375 53.46875 
Q 12.59375 47.65625 12.5 36.921875 
Q 15.671875 41.75 20.265625 44.09375 
Q 24.859375 46.4375 29.890625 46.4375 
Q 38.671875 46.4375 44.84375 39.96875 
Q 51.03125 33.5 51.03125 23.25 
Q 51.03125 16.5 48.125 10.71875 
Q 45.21875 4.9375 40.140625 1.859375 
Q 35.0625 -1.21875 28.609375 -1.21875 
Q 17.625 -1.21875 10.6875 6.859375 
Q 3.765625 14.9375 3.765625 33.5 
Q 3.765625 54.25 11.421875 63.671875 
Q 18.109375 71.875 29.4375 71.875 
Q 37.890625 71.875 43.28125 67.140625 
Q 48.6875 62.40625 49.75 54.046875 
z
M 13.875 23.1875 
Q 13.875 18.65625 15.796875 14.5 
Q 17.71875 10.359375 21.1875 8.171875 
Q 24.65625 6 28.46875 6 
Q 34.03125 6 38.03125 10.484375 
Q 42.046875 14.984375 42.046875 22.703125 
Q 42.046875 30.125 38.078125 34.390625 
Q 34.125 38.671875 28.125 38.671875 
Q 22.171875 38.671875 18.015625 34.390625 
Q 13.875 30.125 13.875 23.1875 
z
" id="ArialMT-54"/>
       </defs>
       <use xlink:href="#ArialMT-54"/>
       <use x="55.615234" xlink:href="#ArialMT-48"/>
      </g>
     </g>
    </g>
    <g id="text_8">
     <!-- $x$ -->
     <g style="fill:#262626;" transform="translate(211.43 256.789219)scale(0.12 -0.12)">
      <defs>
       <path d="M 60.015625 54.6875 
L 34.90625 27.875 
L 50.296875 0 
L 39.984375 0 
L 28.421875 21.6875 
L 8.296875 0 
L -2.59375 0 
L 24.3125 28.8125 
L 10.015625 54.6875 
L 20.3125 54.6875 
L 30.8125 34.90625 
L 49.125 54.6875 
z
" id="DejaVuSans-Oblique-120"/>
      </defs>
      <use transform="translate(0 0.3125)" xlink:href="#DejaVuSans-Oblique-120"/>
     </g>
    </g>
   </g>
   <g id="matplotlib.axis_2">
    <g id="ytick_1">
     <g id="line2d_8">
      <defs>
       <path d="M 0 0 
L -6 0 
" id="mc8792d3669" style="stroke:#262626;stroke-width:1.25;"/>
      </defs>
      <g>
       <use style="fill:#262626;stroke:#262626;stroke-width:1.25;" x="47.63" xlink:href="#mc8792d3669" y="214.756364"/>
      </g>
     </g>
     <g id="text_9">
      <!-- 0.0 -->
      <g style="fill:#262626;" transform="translate(22.84 218.693161)scale(0.11 -0.11)">
       <defs>
        <path d="M 9.078125 0 
L 9.078125 10.015625 
L 19.09375 10.015625 
L 19.09375 0 
z
" id="ArialMT-46"/>
       </defs>
       <use xlink:href="#ArialMT-48"/>
       <use x="55.615234" xlink:href="#ArialMT-46"/>
       <use x="83.398438" xlink:href="#ArialMT-48"/>
      </g>
     </g>
    </g>
    <g id="ytick_2">
     <g id="line2d_9">
      <g>
       <use style="fill:#262626;stroke:#262626;stroke-width:1.25;" x="47.63" xlink:href="#mc8792d3669" y="175.221818"/>
      </g>
     </g>
     <g id="text_10">
      <!-- 0.2 -->
      <g style="fill:#262626;" transform="translate(22.84 179.158615)scale(0.11 -0.11)">
       <use xlink:href="#ArialMT-48"/>
       <use x="55.615234" xlink:href="#ArialMT-46"/>
       <use x="83.398438" xlink:href="#ArialMT-50"/>
      </g>
     </g>
    </g>
    <g id="ytick_3">
     <g id="line2d_10">
      <g>
       <use style="fill:#262626;stroke:#262626;stroke-width:1.25;" x="47.63" xlink:href="#mc8792d3669" y="135.687273"/>
      </g>
     </g>
     <g id="text_11">
      <!-- 0.4 -->
      <g style="fill:#262626;" transform="translate(22.84 139.62407)scale(0.11 -0.11)">
       <use xlink:href="#ArialMT-48"/>
       <use x="55.615234" xlink:href="#ArialMT-46"/>
       <use x="83.398438" xlink:href="#ArialMT-52"/>
      </g>
     </g>
    </g>
    <g id="ytick_4">
     <g id="line2d_11">
      <g>
       <use style="fill:#262626;stroke:#262626;stroke-width:1.25;" x="47.63" xlink:href="#mc8792d3669" y="96.152727"/>
      </g>
     </g>
     <g id="text_12">
      <!-- 0.6 -->
      <g style="fill:#262626;" transform="translate(22.84 100.089524)scale(0.11 -0.11)">
       <use xlink:href="#ArialMT-48"/>
       <use x="55.615234" xlink:href="#ArialMT-46"/>
       <use x="83.398438" xlink:href="#ArialMT-54"/>
      </g>
     </g>
    </g>
    <g id="ytick_5">
     <g id="line2d_12">
      <g>
       <use style="fill:#262626;stroke:#262626;stroke-width:1.25;" x="47.63" xlink:href="#mc8792d3669" y="56.618182"/>
      </g>
     </g>
     <g id="text_13">
      <!-- 0.8 -->
      <g style="fill:#262626;" transform="translate(22.84 60.554979)scale(0.11 -0.11)">
       <defs>
        <path d="M 17.671875 38.8125 
Q 12.203125 40.828125 9.5625 44.53125 
Q 6.9375 48.25 6.9375 53.421875 
Q 6.9375 61.234375 12.546875 66.546875 
Q 18.171875 71.875 27.484375 71.875 
Q 36.859375 71.875 42.578125 66.421875 
Q 48.296875 60.984375 48.296875 53.171875 
Q 48.296875 48.1875 45.671875 44.5 
Q 43.0625 40.828125 37.75 38.8125 
Q 44.34375 36.671875 47.78125 31.875 
Q 51.21875 27.09375 51.21875 20.453125 
Q 51.21875 11.28125 44.71875 5.03125 
Q 38.234375 -1.21875 27.640625 -1.21875 
Q 17.046875 -1.21875 10.546875 5.046875 
Q 4.046875 11.328125 4.046875 20.703125 
Q 4.046875 27.6875 7.59375 32.390625 
Q 11.140625 37.109375 17.671875 38.8125 
z
M 15.921875 53.71875 
Q 15.921875 48.640625 19.1875 45.40625 
Q 22.46875 42.1875 27.6875 42.1875 
Q 32.765625 42.1875 36.015625 45.375 
Q 39.265625 48.578125 39.265625 53.21875 
Q 39.265625 58.0625 35.90625 61.359375 
Q 32.5625 64.65625 27.59375 64.65625 
Q 22.5625 64.65625 19.234375 61.421875 
Q 15.921875 58.203125 15.921875 53.71875 
z
M 13.09375 20.65625 
Q 13.09375 16.890625 14.875 13.375 
Q 16.65625 9.859375 20.171875 7.921875 
Q 23.6875 6 27.734375 6 
Q 34.03125 6 38.125 10.046875 
Q 42.234375 14.109375 42.234375 20.359375 
Q 42.234375 26.703125 38.015625 30.859375 
Q 33.796875 35.015625 27.4375 35.015625 
Q 21.234375 35.015625 17.15625 30.90625 
Q 13.09375 26.8125 13.09375 20.65625 
z
" id="ArialMT-56"/>
       </defs>
       <use xlink:href="#ArialMT-48"/>
       <use x="55.615234" xlink:href="#ArialMT-46"/>
       <use x="83.398438" xlink:href="#ArialMT-56"/>
      </g>
     </g>
    </g>
    <g id="ytick_6">
     <g id="line2d_13">
      <g>
       <use style="fill:#262626;stroke:#262626;stroke-width:1.25;" x="47.63" xlink:href="#mc8792d3669" y="17.083636"/>
      </g>
     </g>
     <g id="text_14">
      <!-- 1.0 -->
      <g style="fill:#262626;" transform="translate(22.84 21.020433)scale(0.11 -0.11)">
       <use xlink:href="#ArialMT-49"/>
       <use x="55.615234" xlink:href="#ArialMT-46"/>
       <use x="83.398438" xlink:href="#ArialMT-48"/>
      </g>
     </g>
    </g>
    <g id="text_15">
     <!-- $\phi_i(x)$ -->
     <g style="fill:#262626;" transform="translate(16.32 129.48)rotate(-90)scale(0.12 -0.12)">
      <defs>
       <path d="M 46.734375 75.984375 
L 42.78125 55.8125 
Q 52.546875 55.8125 57.5625 48.34375 
Q 62.75 40.71875 60.15625 27.296875 
Q 57.515625 13.875 49.359375 6.25 
Q 41.453125 -1.21875 31.6875 -1.21875 
L 27.875 -20.796875 
L 18.953125 -20.796875 
L 22.75 -1.21875 
Q 13.03125 -1.21875 7.953125 6.25 
Q 2.78125 13.875 5.421875 27.296875 
Q 8.015625 40.71875 16.15625 48.34375 
Q 24.125 55.8125 33.84375 55.8125 
L 37.796875 75.984375 
z
M 33.25 6.78125 
Q 38.765625 6.78125 43.5 11.8125 
Q 48.6875 17.4375 50.6875 27.296875 
Q 52.640625 37.0625 49.515625 42.78125 
Q 46.734375 47.796875 41.21875 47.796875 
z
M 24.3125 6.78125 
L 32.28125 47.796875 
Q 26.8125 47.796875 22.078125 42.78125 
Q 16.75 37.0625 14.890625 27.296875 
Q 13.03125 17.4375 16.0625 11.8125 
Q 18.796875 6.78125 24.3125 6.78125 
z
" id="DejaVuSans-Oblique-981"/>
       <path d="M 18.3125 75.984375 
L 27.296875 75.984375 
L 25.09375 64.59375 
L 16.109375 64.59375 
z
M 14.203125 54.6875 
L 23.1875 54.6875 
L 12.5 0 
L 3.515625 0 
z
" id="DejaVuSans-Oblique-105"/>
       <path d="M 31 75.875 
Q 24.46875 64.65625 21.28125 53.65625 
Q 18.109375 42.671875 18.109375 31.390625 
Q 18.109375 20.125 21.3125 9.0625 
Q 24.515625 -2 31 -13.1875 
L 23.1875 -13.1875 
Q 15.875 -1.703125 12.234375 9.375 
Q 8.59375 20.453125 8.59375 31.390625 
Q 8.59375 42.28125 12.203125 53.3125 
Q 15.828125 64.359375 23.1875 75.875 
z
" id="DejaVuSans-40"/>
       <path d="M 8.015625 75.875 
L 15.828125 75.875 
Q 23.140625 64.359375 26.78125 53.3125 
Q 30.421875 42.28125 30.421875 31.390625 
Q 30.421875 20.453125 26.78125 9.375 
Q 23.140625 -1.703125 15.828125 -13.1875 
L 8.015625 -13.1875 
Q 14.5 -2 17.703125 9.0625 
Q 20.90625 20.125 20.90625 31.390625 
Q 20.90625 42.671875 17.703125 53.65625 
Q 14.5 64.65625 8.015625 75.875 
z
" id="DejaVuSans-41"/>
      </defs>
      <use transform="translate(0 0.015625)" xlink:href="#DejaVuSans-Oblique-981"/>
      <use transform="translate(65.966797 -16.390625)scale(0.7)" xlink:href="#DejaVuSans-Oblique-105"/>
      <use transform="translate(88.149414 0.015625)" xlink:href="#DejaVuSans-40"/>
      <use transform="translate(127.163086 0.015625)" xlink:href="#DejaVuSans-Oblique-120"/>
      <use transform="translate(186.342773 0.015625)" xlink:href="#DejaVuSans-41"/>
     </g>
    </g>
   </g>
   <g id="line2d_14">
    <path clip-path="url(#p95d8955994)" d="M 62.848182 17.083636 
L 367.211818 17.083636 
L 367.211818 17.083636 
" style="fill:none;stroke:#4c72b0;stroke-linecap:round;stroke-width:1.5;"/>
   </g>
   <g id="line2d_15">
    <path clip-path="url(#p95d8955994)" d="M 62.848182 17.083636 
L 64.377647 20.645121 
L 65.907113 30.949172 
L 67.436578 46.9215 
L 68.966044 66.978382 
L 73.55444 133.652859 
L 75.083906 153.011809 
L 76.613371 169.428466 
L 78.142837 182.668533 
L 79.672302 192.852384 
L 81.201768 200.33808 
L 82.731233 205.604449 
L 84.260699 209.154685 
L 85.790164 211.450139 
L 87.31963 212.874646 
L 88.849095 213.72364 
L 90.378561 214.209824 
L 91.908026 214.477451 
L 94.966958 214.691233 
L 101.08482 214.754068 
L 224.971526 214.756364 
L 367.211818 214.756364 
L 367.211818 214.756364 
" style="fill:none;stroke:#dd8452;stroke-linecap:round;stroke-width:1.5;"/>
   </g>
   <g id="line2d_16">
    <path clip-path="url(#p95d8955994)" d="M 62.848182 214.729102 
L 65.907113 214.629794 
L 67.436578 214.498119 
L 68.966044 214.248274 
L 70.495509 213.792408 
L 72.024975 212.992837 
L 73.55444 211.645259 
L 75.083906 209.463933 
L 76.613371 206.074687 
L 78.142837 201.023538 
L 79.672302 193.809257 
L 81.201768 183.946053 
L 82.731233 171.056914 
L 84.260699 154.98905 
L 85.790164 135.932199 
L 88.849095 91.821725 
L 90.378561 69.380092 
L 91.908026 48.980746 
L 93.437492 32.469382 
L 94.966958 21.471197 
L 96.496423 17.128001 
L 98.025889 19.903008 
L 99.555354 29.49947 
L 101.08482 44.912939 
L 102.614285 64.604415 
L 107.202682 131.34506 
L 108.732147 150.997785 
L 110.261613 167.760436 
L 111.791078 181.353039 
L 113.320544 191.862082 
L 114.850009 199.625203 
L 116.379475 205.113072 
L 117.90894 208.830028 
L 119.438406 211.244359 
L 120.967871 212.749436 
L 122.497337 213.650462 
L 124.026802 214.168727 
L 125.556268 214.455265 
L 128.615199 214.685482 
L 134.733061 214.753825 
L 247.913508 214.756364 
L 367.211818 214.756364 
L 367.211818 214.756364 
" style="fill:none;stroke:#55a868;stroke-linecap:round;stroke-width:1.5;"/>
   </g>
   <g id="line2d_17">
    <path clip-path="url(#p95d8955994)" d="M 62.848182 214.756364 
L 98.025889 214.701448 
L 101.08482 214.517363 
L 102.614285 214.284231 
L 104.143751 213.857 
L 105.673216 213.104346 
L 107.202682 211.830177 
L 108.732147 209.758352 
L 110.261613 206.524459 
L 111.791078 201.682279 
L 113.320544 194.733319 
L 114.850009 185.18599 
L 116.379475 172.645767 
L 117.90894 156.92894 
L 119.438406 138.181865 
L 122.497337 94.361373 
L 124.026802 71.806957 
L 125.556268 51.088217 
L 127.085733 34.058155 
L 128.615199 22.380138 
L 130.144664 17.261036 
L 131.67413 19.245847 
L 133.203595 28.122136 
L 134.733061 42.957481 
L 136.262526 62.260786 
L 142.380388 148.947616 
L 143.909854 166.052894 
L 145.439319 179.999222 
L 146.968785 190.837746 
L 148.49825 198.884206 
L 150.027716 204.599872 
L 151.557181 208.489368 
L 153.086647 211.027445 
L 154.616112 212.616854 
L 156.145578 213.572631 
L 157.675043 214.124824 
L 159.204509 214.431459 
L 162.26344 214.679257 
L 168.381302 214.753557 
L 270.855491 214.756364 
L 367.211818 214.756364 
L 367.211818 214.756364 
" style="fill:none;stroke:#c44e52;stroke-linecap:round;stroke-width:1.5;"/>
   </g>
   <g id="line2d_18">
    <path clip-path="url(#p95d8955994)" d="M 62.848182 214.756364 
L 133.203595 214.648875 
L 136.262526 214.317841 
L 137.791992 213.917641 
L 139.321457 213.209499 
L 140.850923 212.00534 
L 142.380388 210.038512 
L 143.909854 206.954433 
L 145.439319 202.315008 
L 146.968785 195.625208 
L 148.49825 186.388764 
L 150.027716 174.195065 
L 151.557181 158.830979 
L 153.086647 140.400712 
L 154.616112 119.426964 
L 159.204509 53.24142 
L 160.733974 35.713476 
L 162.26344 23.370742 
L 163.792905 17.482562 
L 165.322371 18.674515 
L 166.851836 26.818951 
L 168.381302 41.057504 
L 169.910767 59.950088 
L 176.02863 146.862009 
L 177.558095 164.305963 
L 179.087561 178.606768 
L 180.617026 189.778796 
L 182.146492 198.114394 
L 183.675957 204.064161 
L 185.205423 208.132102 
L 186.734888 210.798911 
L 188.264354 212.476537 
L 189.793819 213.489891 
L 191.323285 214.077945 
L 192.85275 214.405929 
L 195.911681 214.672524 
L 202.029543 214.753262 
L 295.326939 214.756364 
L 367.211818 214.756364 
L 367.211818 214.756364 
" style="fill:none;stroke:#8172b3;stroke-linecap:round;stroke-width:1.5;"/>
   </g>
   <g id="line2d_19">
    <path clip-path="url(#p95d8955994)" d="M 62.848182 214.756364 
L 166.851836 214.657375 
L 169.910767 214.349241 
L 171.440233 213.974545 
L 172.969698 213.308609 
L 174.499164 212.171178 
L 176.02863 210.304966 
L 177.558095 207.365268 
L 179.087561 202.922429 
L 180.617026 196.485573 
L 182.146492 187.554829 
L 183.675957 175.704897 
L 185.205423 160.694731 
L 186.734888 142.58767 
L 188.264354 121.856218 
L 192.85275 55.437833 
L 194.382216 37.433255 
L 195.911681 24.441701 
L 197.441147 17.792281 
L 198.970612 18.189776 
L 200.500078 25.591606 
L 202.029543 39.215337 
L 203.559009 57.674911 
L 206.61794 101.97403 
L 208.147405 124.2642 
L 209.676871 144.741744 
L 211.206336 162.519827 
L 212.735802 177.175403 
L 214.265267 188.684669 
L 215.794733 197.315077 
L 217.324198 203.505247 
L 218.853664 207.757611 
L 220.383129 210.558257 
L 221.912595 212.328109 
L 223.44206 213.401976 
L 224.971526 214.027914 
L 226.500991 214.378562 
L 229.559922 214.665243 
L 235.677784 214.752937 
L 319.798387 214.756364 
L 367.211818 214.756364 
L 367.211818 214.756364 
" style="fill:none;stroke:#937860;stroke-linecap:round;stroke-width:1.5;"/>
   </g>
   <g id="line2d_20">
    <path clip-path="url(#p95d8955994)" d="M 62.848182 214.756364 
L 200.500078 214.665243 
L 203.559009 214.378562 
L 205.088474 214.027914 
L 206.61794 213.401976 
L 208.147405 212.328109 
L 209.676871 210.558257 
L 211.206336 207.757611 
L 212.735802 203.505247 
L 214.265267 197.315077 
L 215.794733 188.684669 
L 217.324198 177.175403 
L 218.853664 162.519827 
L 220.383129 144.741744 
L 221.912595 124.2642 
L 226.500991 57.674911 
L 228.030457 39.215337 
L 229.559922 25.591606 
L 231.089388 18.189776 
L 232.618853 17.792281 
L 234.148319 24.441701 
L 235.677784 37.433255 
L 237.20725 55.437833 
L 240.266181 99.439765 
L 241.795646 121.856218 
L 243.325112 142.58767 
L 244.854577 160.694731 
L 246.384043 175.704897 
L 247.913508 187.554829 
L 249.442974 196.485573 
L 250.972439 202.922429 
L 252.501905 207.365268 
L 254.03137 210.304966 
L 255.560836 212.171178 
L 257.090302 213.308609 
L 258.619767 213.974545 
L 260.149233 214.349241 
L 263.208164 214.657375 
L 267.79656 214.747328 
L 301.444801 214.756364 
L 367.211818 214.756364 
L 367.211818 214.756364 
" style="fill:none;stroke:#da8bc3;stroke-linecap:round;stroke-width:1.5;"/>
   </g>
   <g id="line2d_21">
    <path clip-path="url(#p95d8955994)" d="M 62.848182 214.756364 
L 234.148319 214.672524 
L 237.20725 214.405929 
L 238.736715 214.077945 
L 240.266181 213.489891 
L 241.795646 212.476537 
L 243.325112 210.798911 
L 244.854577 208.132102 
L 246.384043 204.064161 
L 247.913508 198.114394 
L 249.442974 189.778796 
L 250.972439 178.606768 
L 252.501905 164.305963 
L 254.03137 146.862009 
L 255.560836 126.64933 
L 260.149233 59.950088 
L 261.678698 41.057504 
L 263.208164 26.818951 
L 264.737629 18.674515 
L 266.267095 17.482562 
L 267.79656 23.370742 
L 269.326026 35.713476 
L 270.855491 53.24142 
L 272.384957 74.256397 
L 275.443888 119.426964 
L 276.973353 140.400712 
L 278.502819 158.830979 
L 280.032284 174.195065 
L 281.56175 186.388764 
L 283.091215 195.625208 
L 284.620681 202.315008 
L 286.150146 206.954433 
L 287.679612 210.038512 
L 289.209077 212.00534 
L 290.738543 213.209499 
L 292.268008 213.917641 
L 293.797474 214.317841 
L 296.856405 214.648875 
L 301.444801 214.746433 
L 333.563577 214.756364 
L 367.211818 214.756364 
L 367.211818 214.756364 
" style="fill:none;stroke:#8c8c8c;stroke-linecap:round;stroke-width:1.5;"/>
   </g>
   <g id="line2d_22">
    <path clip-path="url(#p95d8955994)" d="M 62.848182 214.756364 
L 267.79656 214.679257 
L 270.855491 214.431459 
L 272.384957 214.124824 
L 273.914422 213.572631 
L 275.443888 212.616854 
L 276.973353 211.027445 
L 278.502819 208.489368 
L 280.032284 204.599872 
L 281.56175 198.884206 
L 283.091215 190.837746 
L 284.620681 179.999222 
L 286.150146 166.052894 
L 287.679612 148.947616 
L 289.209077 129.010096 
L 293.797474 62.260786 
L 295.326939 42.957481 
L 296.856405 28.122136 
L 298.38587 19.245847 
L 299.915336 17.261036 
L 301.444801 22.380138 
L 302.974267 34.058155 
L 304.503732 51.088217 
L 306.033198 71.806957 
L 310.621594 138.181865 
L 312.15106 156.92894 
L 313.680525 172.645767 
L 315.209991 185.18599 
L 316.739456 194.733319 
L 318.268922 201.682279 
L 319.798387 206.524459 
L 321.327853 209.758352 
L 322.857318 211.830177 
L 324.386784 213.104346 
L 325.916249 213.857 
L 327.445715 214.284231 
L 330.504646 214.639698 
L 335.093042 214.745454 
L 364.152887 214.756364 
L 367.211818 214.756364 
L 367.211818 214.756364 
" style="fill:none;stroke:#ccb974;stroke-linecap:round;stroke-width:1.5;"/>
   </g>
   <g id="line2d_23">
    <path clip-path="url(#p95d8955994)" d="M 62.848182 214.756364 
L 301.444801 214.685482 
L 304.503732 214.455265 
L 306.033198 214.168727 
L 307.562663 213.650462 
L 309.092129 212.749436 
L 310.621594 211.244359 
L 312.15106 208.830028 
L 313.680525 205.113072 
L 315.209991 199.625203 
L 316.739456 191.862082 
L 318.268922 181.353039 
L 319.798387 167.760436 
L 321.327853 150.997785 
L 322.857318 131.34506 
L 328.97518 44.912939 
L 330.504646 29.49947 
L 332.034111 19.903008 
L 333.563577 17.128001 
L 335.093042 21.471197 
L 336.622508 32.469382 
L 338.151974 48.980746 
L 339.681439 69.380092 
L 344.269836 135.932199 
L 345.799301 154.98905 
L 347.328767 171.056914 
L 348.858232 183.946053 
L 350.387698 193.809257 
L 351.917163 201.023538 
L 353.446629 206.074687 
L 354.976094 209.463933 
L 356.50556 211.645259 
L 358.035025 212.992837 
L 359.564491 213.792408 
L 361.093956 214.248274 
L 362.623422 214.498119 
L 365.682353 214.696545 
L 367.211818 214.729102 
L 367.211818 214.729102 
" style="fill:none;stroke:#64b5cd;stroke-linecap:round;stroke-width:1.5;"/>
   </g>
   <g id="line2d_24">
    <path clip-path="url(#p95d8955994)" d="M 62.848182 214.756364 
L 335.093042 214.691233 
L 338.151974 214.477451 
L 339.681439 214.209824 
L 341.210905 213.72364 
L 342.74037 212.874646 
L 344.269836 211.450139 
L 345.799301 209.154685 
L 347.328767 205.604449 
L 348.858232 200.33808 
L 350.387698 192.852384 
L 351.917163 182.668533 
L 353.446629 169.428466 
L 354.976094 153.011809 
L 356.50556 133.652859 
L 359.564491 89.284844 
L 361.093956 66.978382 
L 362.623422 46.9215 
L 364.152887 30.949172 
L 365.682353 20.645121 
L 367.211818 17.083636 
L 367.211818 17.083636 
" style="fill:none;stroke:#4c72b0;stroke-linecap:round;stroke-width:1.5;"/>
   </g>
   <g id="patch_3">
    <path d="M 47.63 224.64 
L 47.63 7.2 
" style="fill:none;stroke:#262626;stroke-linecap:square;stroke-linejoin:miter;stroke-width:1.25;"/>
   </g>
   <g id="patch_4">
    <path d="M 382.43 224.64 
L 382.43 7.2 
" style="fill:none;stroke:#262626;stroke-linecap:square;stroke-linejoin:miter;stroke-width:1.25;"/>
   </g>
   <g id="patch_5">
    <path d="M 47.63 224.64 
L 382.43 224.64 
" style="fill:none;stroke:#262626;stroke-linecap:square;stroke-linejoin:miter;stroke-width:1.25;"/>
   </g>
   <g id="patch_6">
    <path d="M 47.63 7.2 
L 382.43 7.2 
" style="fill:none;stroke:#262626;stroke-linecap:square;stroke-linejoin:miter;stroke-width:1.25;"/>
   </g>
  </g>
 </g>
 <defs>
  <clipPath id="p95d8955994">
   <rect height="217.44" width="334.8" x="47.63" y="7.2"/>
  </clipPath>
 </defs>
</svg>
